<?xml version="1.0" standalone="no"?>
<!DOCTYPE svg PUBLIC "-//W3C//DTD SVG 1.1//EN" "http://www.w3.org/Graphics/SVG/1.1/DTD/svg11.dtd" >
<svg xmlns="http://www.w3.org/2000/svg" xmlns:xlink="http://www.w3.org/1999/xlink" version="1.1">
<metadata>
Created by FontForge 20150824 at Tue Apr 26 01:06:33 2016
 By Everything Fonts
2009  published by FSI FontShop International GmbH
</metadata>
<defs>
<font id="DINRoundPro-Black" horiz-adv-x="1112" >
  <font-face 
    font-family="DINRoundPro-Black"
    font-weight="900"
    font-stretch="normal"
    units-per-em="2000"
    panose-1="2 11 10 4 2 1 1 2 1 2"
    ascent="1528"
    descent="-472"
    x-height="1076"
    cap-height="1424"
    bbox="-240 -555 2368 2242"
    underline-thickness="252"
    underline-position="-534"
    unicode-range="U+000D-FB02"
  />
<missing-glyph horiz-adv-x="1168" 
d="M829 0h-490q-36 0 -57 1.5t-53.5 13t-55.5 34.5t-34.5 55.5t-13 53.5t-1.5 57v994q0 36 1.5 57t13 53.5t34.5 55.5t55.5 34.5t53.5 13t57 1.5h490q36 0 57 -1.5t53.5 -13t55.5 -34.5t34.5 -55.5t13 -53.5t1.5 -57v-994q0 -36 -1.5 -57t-13 -53.5t-34.5 -55.5t-55.5 -34.5
t-53.5 -13t-57 -1.5zM692 312v800h-216v-800h216z" />
    <glyph glyph-name=".notdef" horiz-adv-x="1168" 
d="M829 0h-490q-36 0 -57 1.5t-53.5 13t-55.5 34.5t-34.5 55.5t-13 53.5t-1.5 57v994q0 36 1.5 57t13 53.5t34.5 55.5t55.5 34.5t53.5 13t57 1.5h490q36 0 57 -1.5t53.5 -13t55.5 -34.5t34.5 -55.5t13 -53.5t1.5 -57v-994q0 -36 -1.5 -57t-13 -53.5t-34.5 -55.5t-55.5 -34.5
t-53.5 -13t-57 -1.5zM692 312v800h-216v-800h216z" />
    <glyph glyph-name=".null" horiz-adv-x="0" 
 />
    <glyph glyph-name=".null" horiz-adv-x="0" 
 />
    <glyph glyph-name="nonmarkingreturn" horiz-adv-x="666" 
 />
    <glyph glyph-name="CR" unicode="&#xd;" horiz-adv-x="444" 
 />
    <glyph glyph-name="space" unicode=" " horiz-adv-x="444" 
 />
    <glyph glyph-name="exclam" unicode="!" horiz-adv-x="732" 
d="M229 702v494q0 65 3.5 92.5t18.5 57.5q19 38 60.5 62t93.5 24t93.5 -24t60.5 -62q15 -30 18.5 -57.5t3.5 -92.5v-494q0 -65 -3.5 -92.5t-18.5 -57.5q-19 -38 -60.5 -62t-93.5 -24t-93.5 24t-60.5 62q-15 30 -18.5 57.5t-3.5 92.5zM406 -6q-78 0 -134 56t-56 134t56 134
t134 56t134 -56t56 -134t-56 -134t-134 -56z" />
    <glyph glyph-name="quotedbl" unicode="&#x22;" horiz-adv-x="988" 
d="M96 1015v199q0 62 3.5 89t16.5 53q18 36 56.5 58t87.5 22t87.5 -22t56.5 -58q13 -26 16.5 -53t3.5 -89v-199q0 -62 -3.5 -89t-16.5 -53q-18 -36 -56.5 -58t-87.5 -22t-87.5 22t-56.5 58q-13 26 -16.5 53t-3.5 89zM564 1015v199q0 62 3.5 89t16.5 53q18 36 56.5 58
t87.5 22t87.5 -22t56.5 -58q13 -26 16.5 -53t3.5 -89v-199q0 -62 -3.5 -89t-16.5 -53q-18 -36 -56.5 -58t-87.5 -22t-87.5 22t-56.5 58q-13 26 -16.5 53t-3.5 89z" />
    <glyph glyph-name="numbersign" unicode="#" horiz-adv-x="1550" 
d="M1396 486q0 -44 -20 -79t-52 -51q-23 -12 -48 -15t-80 -3h-85l-34 -170q-8 -42 -12.5 -59.5t-16.5 -41t-31 -41.5q-37 -34 -96 -34q-67 0 -115 45q-26 25 -34.5 61t-6 61t11.5 69l22 110h-207l-34 -170q-8 -42 -12.5 -59.5t-16.5 -41t-31 -41.5q-37 -34 -96 -34
q-67 0 -115 45q-26 25 -34.5 61t-6 61t11.5 69l22 110h-2q-55 0 -80 3t-48 15q-32 16 -52 51t-20 79t20 79t52 51q23 12 48 15t80 3h61l41 204h-26q-55 0 -80 3t-48 15q-32 16 -52 51t-20 79t20 79t52 51q23 12 48 15t80 3h85l28 138q8 42 12.5 59.5t16.5 41t31 41.5
q37 34 96 34q67 0 115 -45q26 -25 34.5 -61t6 -61t-11.5 -69l-16 -78h207l28 138q8 42 12.5 59.5t16.5 41t31 41.5q37 34 96 34q67 0 115 -45q26 -25 34.5 -61t6 -61t-11.5 -69l-16 -78h2q55 0 80 -3t48 -15q32 -16 52 -51t20 -79t-20 -79t-52 -51q-23 -12 -48 -15t-80 -3
h-61l-41 -204h26q55 0 80 -3t48 -15q32 -16 52 -51t20 -79zM858 634l41 204h-207l-41 -204h207z" />
    <glyph glyph-name="dollar" unicode="$" horiz-adv-x="1266" 
d="M691 550l-172 24q-190 27 -286 126q-98 101 -98 286q0 160 94 276t261 155v19q0 50 3 73.5t15 45.5q15 30 46.5 47.5t71.5 17.5t71.5 -17.5t46.5 -47.5q12 -22 15 -45.5t3 -73.5v-6q102 -11 199 -48q68 -27 107 -71.5t39 -100.5q0 -58 -42 -108q-39 -48 -102 -48
q-43 0 -124 34q-94 40 -194 40q-84 0 -128 -37.5t-44 -82.5q0 -48 28 -76q33 -33 98 -42l172 -24q189 -27 280 -118q106 -103 106 -312q0 -172 -109 -285t-286 -148v-55q0 -50 -3 -73.5t-15 -45.5q-15 -30 -46.5 -47.5t-71.5 -17.5t-71.5 17.5t-46.5 47.5q-12 22 -15 45.5
t-3 73.5v44q-125 10 -209 44q-94 37 -140 83.5t-46 120.5q0 66 48 114q38 38 96 38q25 0 50.5 -8.5t85.5 -33.5q121 -52 234 -52q102 0 153 33.5t51 96.5q0 53 -28 84q-30 30 -94 38z" />
    <glyph glyph-name="percent" unicode="%" horiz-adv-x="1714" 
d="M470 196l569 1134q30 61 57 81q28 21 60 21q25 0 55 -14q63 -32 63 -96q0 -32 -31 -94l-569 -1134q-30 -61 -57 -81q-29 -21 -60 -21q-25 0 -55 14q-63 32 -63 96q0 32 31 94zM462 976v174q0 78 -70 78t-70 -78v-174q0 -78 70 -78t70 78zM694 1158v-190
q0 -135 -87 -206.5t-215 -71.5t-215 71.5t-87 206.5v190q0 135 87 206.5t215 71.5t215 -71.5t87 -206.5zM1392 274v174q0 78 -70 78t-70 -78v-174q0 -78 70 -78t70 78zM1624 456v-190q0 -135 -87 -206.5t-215 -71.5t-215 71.5t-87 206.5v190q0 135 87 206.5t215 71.5
t215 -71.5t87 -206.5z" />
    <glyph glyph-name="ampersand" unicode="&#x26;" horiz-adv-x="1416" 
d="M1244 478q-34 -72 -97 -146l19 -23q46 -54 62 -86t16 -71q0 -68 -61 -119q-49 -41 -106 -41q-47 0 -80.5 23.5t-82.5 83.5l-1 1q-70 -53 -146.5 -82.5t-196.5 -29.5q-233 0 -352.5 114.5t-119.5 319.5q0 208 226 366q-26 30 -43 52t-41.5 61t-37 85t-12.5 96
q0 161 109 257.5t309 96.5q186 0 292 -96.5t106 -253.5q0 -90 -42 -150.5t-140 -132.5l-58 -43l168 -194q46 56 61 144q9 52 24 79q17 32 50 52.5t77 20.5q45 0 81 -21.5t53 -54.5q17 -34 17 -92q0 -41 -14.5 -102t-38.5 -114zM720 336l-222 254q-48 -34 -66 -68.5
t-18 -84.5q0 -67 49 -110t117 -43q81 0 140 52zM594 958l48 34q56 40 56 90q0 34 -23.5 56t-66.5 22q-44 0 -67 -22t-23 -58q0 -46 76 -122z" />
    <glyph glyph-name="quotesingle" unicode="'" horiz-adv-x="520" 
d="M96 1015v199q0 62 3.5 89t16.5 53q18 36 56.5 58t87.5 22t87.5 -22t56.5 -58q13 -26 16.5 -53t3.5 -89v-199q0 -62 -3.5 -89t-16.5 -53q-18 -36 -56.5 -58t-87.5 -22t-87.5 22t-56.5 58q-13 26 -16.5 53t-3.5 89z" />
    <glyph glyph-name="parenleft" unicode="(" horiz-adv-x="716" 
d="M144 327v770q0 182 42 269t140 185q38 39 61.5 55t54.5 26q33 13 82 1t81 -44q33 -33 42.5 -77.5t-3.5 -76.5q-10 -30 -25.5 -52.5t-53.5 -60.5q-35 -35 -59 -77q-34 -59 -34 -162v-742q0 -103 34 -162q24 -42 59 -77q38 -38 53.5 -60.5t25.5 -52.5q13 -32 3.5 -76.5
t-42.5 -77.5q-32 -32 -81 -44t-82 1q-31 10 -54.5 26t-61.5 55q-98 98 -140 185t-42 269z" />
    <glyph glyph-name="parenright" unicode=")" horiz-adv-x="716" 
d="M572 1097v-770q0 -182 -42 -269t-140 -185q-38 -39 -61.5 -55t-54.5 -26q-33 -13 -82 -1t-81 44q-33 33 -42.5 77.5t3.5 76.5q10 30 25.5 52.5t53.5 60.5q35 35 59 77q34 59 34 162v742q0 103 -34 162q-24 42 -59 77q-38 38 -53.5 60.5t-25.5 52.5q-13 32 -3.5 76.5
t42.5 77.5q32 32 81 44t82 -1q31 -10 54.5 -26t61.5 -55q98 -98 140 -185t42 -269z" />
    <glyph glyph-name="asterisk" unicode="*" horiz-adv-x="960" 
d="M192 980l57 34l-57 34q-58 35 -77 63q-34 52 3 114q38 63 100 56q34 -4 91 -38l57 -34v68q0 67 14 98q28 57 100 57t100 -57q14 -31 14 -98v-68l57 34q57 34 91 38q62 7 100 -56q37 -62 3 -114q-19 -28 -77 -63l-57 -34l57 -34q58 -35 77 -63q34 -52 -3 -114
q-38 -63 -100 -56q-34 4 -91 38l-57 34v-68q0 -67 -14 -98q-28 -57 -100 -57t-100 57q-14 31 -14 98v68l-57 -34q-57 -34 -91 -38q-62 -7 -100 56q-37 62 -3 114q19 28 77 63z" />
    <glyph glyph-name="plus" unicode="+" 
d="M822 443h-118v-118q0 -55 -3 -80t-15 -48q-16 -32 -51 -52t-79 -20t-79 20t-51 52q-12 23 -15 48t-3 80v118h-118q-55 0 -80 3.5t-48 14.5q-32 16 -52 51t-20 79t20 79t52 51q23 11 48 14.5t80 3.5h118v118q0 55 3 80t15 48q16 32 51 52t79 20t79 -20t51 -52
q12 -23 15 -48t3 -80v-118h118q55 0 80 -3.5t48 -14.5q32 -16 52 -51t20 -79t-20 -79t-52 -51q-23 -11 -48 -14.5t-80 -3.5z" />
    <glyph glyph-name="comma" unicode="," horiz-adv-x="597" 
d="M474 141l-87 -261q-19 -57 -31 -82t-33 -46q-41 -41 -104 -41q-53 0 -107 34t-62 98q-4 29 1.5 57.5t23.5 83.5l87 261q19 57 31 82t33 46q41 41 104 41q53 0 107 -34t62 -98q4 -29 -1.5 -57.5t-23.5 -83.5z" />
    <glyph glyph-name="hyphen" unicode="-" horiz-adv-x="852" 
d="M562 442h-272q-55 0 -80 3t-48 15q-32 16 -52 51t-20 79t20 79t52 51q23 12 48 15t80 3h272q55 0 80 -3t48 -15q32 -16 52 -51t20 -79t-20 -79t-52 -51q-23 -12 -48 -15t-80 -3z" />
    <glyph glyph-name="period" unicode="." horiz-adv-x="588" 
d="M294 -6q-87 0 -148.5 61.5t-61.5 148.5t61.5 148.5t148.5 61.5t148.5 -61.5t61.5 -148.5t-61.5 -148.5t-148.5 -61.5z" />
    <glyph glyph-name="slash" unicode="/" horiz-adv-x="862" 
d="M64 95l443 1328q10 30 16 46t19.5 40.5t28 37t38.5 22.5t54 10q54 0 96.5 -29.5t57.5 -73.5q9 -15 5.5 -47.5t-8.5 -51t-16 -51.5l-443 -1328q-10 -30 -16 -46t-19.5 -40.5t-28 -37t-38.5 -22.5t-54 -10q-54 0 -96.5 29.5t-57.5 73.5q-9 15 -5.5 47.5t8.5 51t16 51.5z
" />
    <glyph glyph-name="zero" unicode="0" 
d="M1014 992v-560q0 -107 -38 -193t-102.5 -140t-146 -82.5t-171.5 -28.5t-171.5 28.5t-146 82.5t-102.5 140t-38 193v560q0 107 38 193t102.5 140t146 82.5t171.5 28.5t171.5 -28.5t146 -82.5t102.5 -140t38 -193zM686 430v562q0 72 -37 110t-93 38t-93 -38t-37 -110v-562
q0 -71 37 -108.5t93 -37.5t93 37.5t37 108.5z" />
    <glyph glyph-name="one" unicode="1" 
d="M484 214v713l-90 -90q-40 -40 -60.5 -55.5t-46.5 -24.5q-35 -12 -75 -0.5t-72 43.5t-43.5 72t0.5 75q9 26 25 47t55 60l295 295q83 83 174 83q73 0 119 -46q30 -30 38.5 -67.5t8.5 -93.5v-1011q0 -62 -3.5 -89t-16.5 -53q-18 -36 -56.5 -58t-87.5 -22t-87.5 22t-56.5 58
q-13 26 -16.5 53t-3.5 89z" />
    <glyph glyph-name="two" unicode="2" 
d="M831 0h-525q-37 0 -59.5 2t-51.5 13t-50 32q-46 46 -46 119q0 50 21 89t62 86l403 463q55 64 79 109t24 103q0 54 -34 89t-95 35q-55 0 -84.5 -24t-59.5 -80q-28 -53 -64 -78q-31 -24 -88 -24q-75 0 -117 49q-39 46 -39 117q0 66 35 130.5t92 107.5q66 50 140 74t177 24
q213 0 339 -107t126 -304q0 -65 -13 -118.5t-45.5 -106.5t-64.5 -93t-92 -107l-274 -304h304q55 0 80 -3t48 -15q32 -16 52 -51t20 -79t-20 -79t-52 -51q-23 -12 -48 -15t-80 -3z" />
    <glyph glyph-name="three" unicode="3" 
d="M868 736q46 -32 78.5 -67t59 -102t26.5 -151q0 -137 -61.5 -235t-165 -145.5t-237.5 -47.5q-116 0 -195 22t-148 78q-112 91 -112 221q0 72 41 116q46 49 120 49q65 0 101 -32q28 -24 62 -89q19 -36 46.5 -52.5t82.5 -16.5q60 0 99 39.5t39 112.5q0 66 -39.5 105.5
t-106.5 44.5q-56 4 -86 19q-69 35 -69 123t69 123q30 15 86 19q61 4 100.5 38t39.5 96q0 65 -37 100.5t-95 35.5q-44 0 -69.5 -16.5t-43.5 -50.5q-35 -65 -61 -87q-37 -31 -98 -31q-68 0 -112.5 44t-44.5 116q0 66 35 129q30 53 75 90q122 102 321 102q198 0 328 -109.5
t130 -302.5q0 -59 -14 -107.5t-39 -82.5t-49 -56t-56 -42z" />
    <glyph glyph-name="four" unicode="4" 
d="M65 512l393 786q24 48 39 69t37 38q35 27 80 27q61 0 109.5 -42t48.5 -102q0 -29 -7.5 -53t-32.5 -74l-323 -645h159v2q0 57 3.5 83t15.5 51q16 34 53.5 55t83.5 21t83.5 -21t53.5 -55q12 -25 15.5 -51t3.5 -83v-2h2q57 0 83 -3.5t51 -15.5q34 -16 55 -53.5t21 -83.5
t-21 -83.5t-55 -53.5q-25 -12 -51 -15.5t-83 -3.5h-2v-2q0 -57 -3.5 -83t-15.5 -51q-16 -34 -53.5 -55t-83.5 -21t-83.5 21t-53.5 55q-12 25 -15.5 51t-3.5 83v2h-311q-68 0 -109.5 9.5t-73.5 36.5q-54 48 -54 123q0 49 45 139z" />
    <glyph glyph-name="five" unicode="5" 
d="M802 1128h-378v-220q26 20 79 38t113 18q176 0 276 -100q79 -79 105.5 -169t26.5 -209q0 -134 -27.5 -216.5t-104.5 -159.5q-122 -122 -336 -122q-104 0 -182 23t-145 77q-112 91 -112 221q0 75 46 121q44 44 115 44q65 0 101 -32q28 -24 62 -89q19 -34 44.5 -51.5
t70.5 -17.5q62 0 98 36q42 42 42 166q0 113 -34.5 157.5t-103.5 44.5q-71 0 -120 -44q-34 -31 -60 -45q-35 -19 -89 -19q-72 0 -116 44q-47 47 -47 138v481q0 97 44 141q18 18 43.5 27.5t43.5 11t48 1.5h497q57 0 79.5 -3t48.5 -15q32 -16 52 -51t20 -79t-20 -79t-52 -51
q-26 -12 -48.5 -15t-79.5 -3z" />
    <glyph glyph-name="six" unicode="6" 
d="M200 836l231 462q24 48 39 69t37 38q35 27 80 27q61 0 109.5 -42t48.5 -102q0 -29 -7.5 -53t-32.5 -74l-147 -295q35 10 86 10q67 0 133 -28.5t122 -80t90.5 -136t34.5 -185.5q0 -110 -38 -198.5t-103.5 -144.5t-150.5 -85.5t-182 -29.5t-182 29.5t-150.5 85.5
t-103.5 144.5t-38 198.5q0 78 28.5 167.5t95.5 222.5zM550 284q63 0 104.5 42.5t41.5 119.5t-41.5 119.5t-104.5 42.5t-104.5 -42.5t-41.5 -119.5t41.5 -119.5t104.5 -42.5z" />
    <glyph glyph-name="seven" unicode="7" 
d="M1026 1130l-370 -988q-33 -87 -64 -117q-36 -33 -91 -33q-58 0 -107 36.5t-54 90.5q-4 46 28 131l329 878h-301v-12q0 -62 -3.5 -89t-16.5 -53q-18 -36 -56.5 -58t-87.5 -22t-87.5 22t-56.5 58q-13 26 -16.5 53t-3.5 89v125q0 99 44 143q18 18 43.5 27.5t43.5 11t49 1.5
h587q67 0 104.5 -9t68.5 -37q50 -45 50 -122q0 -42 -32 -126z" />
    <glyph glyph-name="eight" unicode="8" 
d="M874 732q25 -20 38.5 -32t40 -43t41.5 -60t27.5 -74.5t12.5 -96.5q0 -108 -37.5 -193t-103.5 -137.5t-151.5 -80t-185.5 -27.5t-185.5 27.5t-151.5 80t-103.5 137.5t-37.5 193q0 51 12.5 96.5t27.5 74.5t41.5 60t40 43t38.5 32q-26 22 -45 42t-45.5 55.5t-41 83
t-14.5 101.5q0 98 38 179t102.5 133.5t148 81t175.5 28.5t175.5 -28.5t148 -81t102.5 -133.5t38 -179q0 -54 -14.5 -101.5t-41 -83t-45.5 -55.5t-45 -42zM556 868q57 0 96.5 39.5t39.5 96.5t-39.5 96.5t-96.5 39.5t-96.5 -39.5t-39.5 -96.5t39.5 -96.5t96.5 -39.5zM706 434
q0 62 -44 106t-106 44t-106 -44t-44 -106t44 -106t106 -44t106 44t44 106z" />
    <glyph glyph-name="nine" unicode="9" 
d="M912 588l-231 -462q-24 -48 -39 -69t-37 -38q-35 -27 -80 -27q-61 0 -109.5 42t-48.5 102q0 29 7.5 53t32.5 74l147 295q-35 -10 -86 -10q-67 0 -133 28.5t-122 80t-90.5 136t-34.5 185.5q0 110 38 198.5t103.5 144.5t150.5 85.5t182 29.5t182 -29.5t150.5 -85.5
t103.5 -144.5t38 -198.5q0 -78 -28.5 -167.5t-95.5 -222.5zM562 1140q-63 0 -104.5 -42.5t-41.5 -119.5t41.5 -119.5t104.5 -42.5t104.5 42.5t41.5 119.5t-41.5 119.5t-104.5 42.5z" />
    <glyph glyph-name="colon" unicode=":" horiz-adv-x="634" 
d="M340 -6q-87 0 -148.5 61.5t-61.5 148.5t61.5 148.5t148.5 61.5t148.5 -61.5t61.5 -148.5t-61.5 -148.5t-148.5 -61.5zM340 494q-87 0 -148.5 61.5t-61.5 148.5t61.5 148.5t148.5 61.5t148.5 -61.5t61.5 -148.5t-61.5 -148.5t-148.5 -61.5z" />
    <glyph glyph-name="semicolon" unicode=";" horiz-adv-x="634" 
d="M504 141l-87 -261q-19 -57 -31 -82t-33 -46q-41 -41 -104 -41q-53 0 -107 34t-62 98q-4 29 1.5 57.5t23.5 83.5l87 261q19 57 31 82t33 46q41 41 104 41q53 0 107 -34t62 -98q4 -29 -1.5 -57.5t-23.5 -83.5zM371 494q-87 0 -148.5 61.5t-61.5 148.5t61.5 148.5
t148.5 61.5t148.5 -61.5t61.5 -148.5t-61.5 -148.5t-148.5 -61.5z" />
    <glyph glyph-name="less" unicode="&#x3c;" 
d="M98 590q0 36 11 64t33.5 48t40.5 31.5t48 26.5l482 241q50 25 74 32.5t53 7.5q60 0 102 -48.5t42 -109.5q0 -45 -27 -80q-17 -22 -38 -37t-69 -39l-274 -137l274 -137q48 -24 69 -39t38 -37q27 -35 27 -80q0 -61 -42 -109.5t-102 -48.5q-29 0 -53 7.5t-74 32.5l-482 241
q-30 15 -48 26.5t-40.5 31.5t-33.5 48t-11 64z" />
    <glyph glyph-name="equal" unicode="=" 
d="M822 692h-532q-55 0 -80 3t-48 15q-32 16 -52 51t-20 79t20 79t52 51q23 12 48 15t80 3h532q55 0 80 -3t48 -15q32 -16 52 -51t20 -79t-20 -79t-52 -51q-23 -12 -48 -15t-80 -3zM822 190h-532q-55 0 -80 3t-48 15q-32 16 -52 51t-20 79t20 79t52 51q23 12 48 15t80 3h532
q55 0 80 -3t48 -15q32 -16 52 -51t20 -79t-20 -79t-52 -51q-23 -12 -48 -15t-80 -3z" />
    <glyph glyph-name="greater" unicode="&#x3e;" 
d="M1014 590q0 -36 -11 -64t-33.5 -48t-40.5 -31.5t-48 -26.5l-482 -241q-50 -25 -74 -32.5t-53 -7.5q-60 0 -102 48.5t-42 109.5q0 45 27 80q17 22 38 37t69 39l274 137l-274 137q-48 24 -69 39t-38 37q-27 35 -27 80q0 61 42 109.5t102 48.5q29 0 53 -7.5t74 -32.5
l482 -241q30 -15 48 -26.5t40.5 -31.5t33.5 -48t11 -64z" />
    <glyph glyph-name="question" unicode="?" horiz-adv-x="1076" 
d="M1016 1030q0 -83 -25.5 -141.5t-76.5 -117.5l-99 -117q-42 -49 -64 -100q-24 -56 -54 -86q-45 -45 -121 -45q-73 0 -121 48q-39 39 -39 106q0 80 78 171l140 162q54 64 54 120q0 48 -30.5 79t-85.5 31q-63 0 -98 -39q-21 -24 -39 -68q-18 -45 -46 -73q-38 -38 -111 -38
q-66 0 -109 43q-40 40 -40 115q0 51 30 118t92 123q126 112 317 115q124 2 224.5 -44t162 -140t61.5 -222zM576 -6q-78 0 -134 56t-56 134t56 134t134 56t134 -56t56 -134t-56 -134t-134 -56z" />
    <glyph glyph-name="at" unicode="@" horiz-adv-x="1568" 
d="M1170 82q-51 -49 -102 -71.5t-126 -22.5q-149 0 -240 88q-63 60 -79.5 140t-16.5 236t16.5 235t79.5 141q91 88 238 88q133 0 218 -82v52q0 126 -64 190t-190 64h-240q-126 0 -190 -64q-38 -38 -51 -83.5t-13 -106.5v-524q0 -49 9 -78.5t34 -60.5q28 -35 36.5 -57.5
t8.5 -53.5q0 -67 -58 -116q-46 -40 -104 -40q-45 0 -76.5 22.5t-75.5 75.5q-46 56 -66 120t-20 168v556q0 143 27.5 240t100.5 170t171.5 100.5t244.5 27.5h284q143 0 243 -27.5t173 -100.5t100.5 -169.5t27.5 -240.5v-696q0 -57 -3.5 -83t-15.5 -51q-16 -34 -53.5 -55
t-83.5 -21q-49 0 -88 24t-56 66zM1038 260q62 0 91 43t29 149t-29 149t-91 43t-91 -43t-29 -149t29 -149t91 -43z" />
    <glyph glyph-name="A" unicode="A" horiz-adv-x="1294" 
d="M70 268l380 1009q32 84 73 116q49 39 124 39t124 -39q41 -32 73 -116l380 -1009q20 -54 27.5 -84.5t0 -69t-39.5 -70.5q-52 -52 -126 -52q-60 0 -99 36q-22 20 -35.5 45t-33.5 81l-21 58h-500l-21 -58q-20 -56 -33.5 -81t-35.5 -45q-39 -36 -99 -36q-74 0 -126 52
q-32 32 -39.5 70.5t0 69t27.5 84.5zM791 504l-144 396l-144 -396h288z" />
    <glyph glyph-name="B" unicode="B" horiz-adv-x="1306" 
d="M764 0h-407q-36 0 -57 1.5t-53.5 13t-55.5 34.5t-34.5 55.5t-13 53.5t-1.5 57v994q0 36 1.5 57t13 53.5t34.5 55.5t55.5 34.5t53.5 13t57 1.5h377q218 0 336 -111.5t118 -300.5q0 -57 -17 -107t-45.5 -85t-49.5 -55t-44 -35q25 -16 41.5 -27.5t45 -39.5t45.5 -58
t30.5 -79t13.5 -106q0 -198 -123.5 -309t-320.5 -111zM494 878h218q66 0 96 33.5t30 82.5t-30 83.5t-96 34.5h-218v-234zM494 312h236q66 0 97 37.5t31 90.5q0 52 -31 88t-97 36h-236v-252z" />
    <glyph glyph-name="C" unicode="C" horiz-adv-x="1209" 
d="M96 712q0 91 1.5 139.5t9 120t22 117t43.5 97.5t71 94q156 156 393 156q131 0 212 -24.5t147 -83.5q73 -66 104 -136.5t31 -127.5q0 -84 -49 -133t-121 -49q-56 0 -94 27q-44 30 -93 117q-30 53 -63.5 75.5t-81.5 22.5q-79 0 -126 -62q-32 -42 -43 -110.5t-11 -239.5
t11 -239.5t43 -110.5q47 -62 126 -62q48 0 81.5 22.5t63.5 75.5q49 87 93 117q38 27 94 27q72 0 121 -49t49 -133q0 -57 -31 -127.5t-104 -136.5q-66 -59 -147 -83.5t-212 -24.5q-237 0 -393 156q-42 42 -71 94t-43.5 97.5t-22 117t-9 120t-1.5 139.5z" />
    <glyph glyph-name="D" unicode="D" horiz-adv-x="1302" 
d="M672 0h-315q-36 0 -57 1.5t-53.5 13t-55.5 34.5t-34.5 55.5t-13 53.5t-1.5 57v994q0 36 1.5 57t13 53.5t34.5 55.5t55.5 34.5t53.5 13t57 1.5h315q313 0 462 -240q48 -79 59 -169.5t11 -302.5t-11 -302.5t-59 -169.5q-149 -240 -462 -240zM494 312h154q115 0 168 80
q23 32 30.5 90t7.5 230q0 171 -8 229.5t-30 90.5q-53 80 -168 80h-154v-800z" />
    <glyph glyph-name="E" unicode="E" horiz-adv-x="1212" 
d="M912 0h-555q-36 0 -57 1.5t-53.5 13t-55.5 34.5t-34.5 55.5t-13 53.5t-1.5 57v994q0 36 1.5 57t13 53.5t34.5 55.5t55.5 34.5t53.5 13t57 1.5h555q57 0 83 -3.5t51 -15.5q34 -16 55 -53.5t21 -83.5t-21 -83.5t-55 -53.5q-25 -12 -51 -15.5t-83 -3.5h-418v-238h328
q57 0 83 -3.5t51 -15.5q34 -16 55 -53.5t21 -83.5t-21 -83.5t-55 -53.5q-25 -12 -51 -15.5t-83 -3.5h-328v-250h418q57 0 83 -3.5t51 -15.5q34 -16 55 -53.5t21 -83.5t-21 -83.5t-55 -53.5q-25 -12 -51 -15.5t-83 -3.5z" />
    <glyph glyph-name="F" unicode="F" horiz-adv-x="1188" 
d="M142 228v981q0 36 1.5 57t13 53.5t34.5 55.5t55.5 34.5t53.5 13t57 1.5h555q57 0 83 -3.5t51 -15.5q34 -16 55 -53.5t21 -83.5t-21 -83.5t-55 -53.5q-25 -12 -51 -15.5t-83 -3.5h-418v-250h328q57 0 83 -3.5t51 -15.5q34 -16 55 -53.5t21 -83.5t-21 -83.5t-55 -53.5
q-25 -12 -51 -15.5t-83 -3.5h-328v-322q0 -65 -3.5 -92.5t-18.5 -57.5q-19 -38 -60.5 -62t-93.5 -24t-93.5 24t-60.5 62q-15 30 -18.5 57.5t-3.5 92.5z" />
    <glyph glyph-name="G" unicode="G" horiz-adv-x="1252" 
d="M448 712q0 -179 12 -246.5t40 -103.5q20 -27 58 -44.5t82 -17.5q86 0 135 56q45 51 45 116h-4q-57 0 -83 3.5t-51 15.5q-34 16 -55 53.5t-21 83.5t21 83.5t55 53.5q25 12 51 15.5t83 3.5h121q36 0 57 -1.5t53.5 -13t55.5 -34.5t34.5 -55.5t13 -53.5t1.5 -57v-8
q0 -280 -129 -412q-85 -88 -174.5 -124.5t-212.5 -36.5q-240 0 -393 153q-42 42 -71 94t-43.5 98t-22 118t-9 121t-1.5 140t1.5 139.5t9 120t22 117t43.5 97.5t71 94q156 156 393 156q131 0 212 -24.5t147 -83.5q73 -66 104 -136.5t31 -127.5q0 -84 -49 -133t-121 -49
q-56 0 -94 27q-44 30 -93 117q-30 53 -63.5 75.5t-81.5 22.5q-79 0 -126 -62q-32 -42 -43 -110.5t-11 -239.5z" />
    <glyph glyph-name="H" unicode="H" horiz-adv-x="1360" 
d="M1218 228q0 -65 -3.5 -92.5t-18.5 -57.5q-19 -38 -60.5 -62t-93.5 -24t-93.5 24t-60.5 62q-15 30 -18.5 57.5t-3.5 92.5v336h-372v-336q0 -65 -3.5 -92.5t-18.5 -57.5q-19 -38 -60.5 -62t-93.5 -24t-93.5 24t-60.5 62q-15 30 -18.5 57.5t-3.5 92.5v968q0 65 3.5 92.5
t18.5 57.5q19 38 60.5 62t93.5 24t93.5 -24t60.5 -62q15 -30 18.5 -57.5t3.5 -92.5v-320h372v320q0 65 3.5 92.5t18.5 57.5q19 38 60.5 62t93.5 24t93.5 -24t60.5 -62q15 -30 18.5 -57.5t3.5 -92.5v-968z" />
    <glyph glyph-name="I" unicode="I" horiz-adv-x="636" 
d="M142 228v968q0 65 3.5 92.5t18.5 57.5q19 38 60.5 62t93.5 24t93.5 -24t60.5 -62q15 -30 18.5 -57.5t3.5 -92.5v-968q0 -65 -3.5 -92.5t-18.5 -57.5q-19 -38 -60.5 -62t-93.5 -24t-93.5 24t-60.5 62q-15 30 -18.5 57.5t-3.5 92.5z" />
    <glyph glyph-name="J" unicode="J" horiz-adv-x="1058" 
d="M588 496v700q0 65 3.5 92.5t18.5 57.5q19 38 60.5 62t93.5 24t93.5 -24t60.5 -62q15 -30 18.5 -57.5t3.5 -92.5v-708q0 -122 -46 -220t-123 -157.5t-171.5 -91t-197.5 -31.5q-174 0 -278 77q-76 56 -76 137q0 31 14 62t36 50q40 34 92 34q12 0 22.5 -1t23 -4.5t18 -5.5
t23 -8.5t23.5 -8.5q47 -18 102 -18q85 0 135.5 48t50.5 146z" />
    <glyph glyph-name="K" unicode="K" horiz-adv-x="1277" 
d="M874 132l-259 453l-121 -145v-212q0 -65 -3.5 -92.5t-18.5 -57.5q-19 -38 -60.5 -62t-93.5 -24t-93.5 24t-60.5 62q-15 30 -18.5 57.5t-3.5 92.5v968q0 65 3.5 92.5t18.5 57.5q19 38 60.5 62t93.5 24t93.5 -24t60.5 -62q15 -30 18.5 -57.5t3.5 -92.5v-272l334 401
q49 60 82.5 83.5t80.5 23.5q57 0 106 -41q61 -51 61 -119q0 -39 -16 -71t-62 -86l-223 -268l312 -546q31 -53 41.5 -83t10.5 -62q0 -90 -86 -139q-44 -25 -88 -25q-32 0 -58.5 11t-48 34t-34.5 42.5t-32 52.5z" />
    <glyph glyph-name="L" unicode="L" horiz-adv-x="1148" 
d="M892 0h-535q-36 0 -57 1.5t-53.5 13t-55.5 34.5t-34.5 55.5t-13 53.5t-1.5 57v981q0 65 3.5 92.5t18.5 57.5q19 38 60.5 62t93.5 24t93.5 -24t60.5 -62q15 -30 18.5 -57.5t3.5 -92.5v-884h396q57 0 83 -3.5t51 -15.5q34 -16 55 -53.5t21 -83.5t-21 -83.5t-55 -53.5
q-25 -12 -51 -15.5t-81 -3.5z" />
    <glyph glyph-name="M" unicode="M" horiz-adv-x="1616" 
d="M142 228v990q0 61 10.5 99.5t40.5 68.5q47 47 118 47q62 0 103 -28q43 -29 86 -100l308 -525l308 525q43 71 86 100q41 28 103 28q71 0 118 -47q30 -30 40.5 -68.5t10.5 -99.5v-990q0 -65 -3.5 -92.5t-18.5 -57.5q-19 -38 -60.5 -62t-93.5 -24t-93.5 24t-60.5 62
q-15 30 -18.5 57.5t-3.5 92.5v454l-163 -282q-30 -52 -63 -75t-88 -23t-88 23t-63 75l-163 282v-454q0 -65 -3.5 -92.5t-18.5 -57.5q-19 -38 -60.5 -62t-93.5 -24t-93.5 24t-60.5 62q-15 30 -18.5 57.5t-3.5 92.5z" />
    <glyph glyph-name="N" unicode="N" horiz-adv-x="1400" 
d="M1258 208q0 -58 -9 -96t-37 -66q-54 -54 -132 -54q-57 0 -101 37t-106 129l-379 558v-488q0 -65 -3.5 -92.5t-18.5 -57.5q-19 -38 -60.5 -62t-93.5 -24t-93.5 24t-60.5 62q-15 30 -18.5 57.5t-3.5 92.5v988q0 58 9 96t37 66q54 54 132 54q57 0 101 -37t106 -129l379 -558
v488q0 65 3.5 92.5t18.5 57.5q19 38 60.5 62t93.5 24t93.5 -24t60.5 -62q15 -30 18.5 -57.5t3.5 -92.5v-988z" />
    <glyph glyph-name="O" unicode="O" horiz-adv-x="1280" 
d="M1037 144q-79 -79 -174.5 -117.5t-222.5 -38.5t-222.5 38.5t-174.5 117.5q-42 42 -71 94t-43.5 97.5t-22 117t-9 120t-1.5 139.5t1.5 139.5t9 120t22 117t43.5 97.5t71 94q79 79 174.5 117.5t222.5 38.5t222.5 -38.5t174.5 -117.5q42 -42 71 -94t43.5 -97.5t22 -117
t9 -120t1.5 -139.5t-1.5 -139.5t-9 -120t-22 -117t-43.5 -97.5t-71 -94zM780 364q28 37 40 103t12 245t-12 246.5t-40 103.5q-21 27 -57.5 44.5t-82.5 17.5t-82.5 -17.5t-57.5 -44.5q-28 -36 -40 -103.5t-12 -246.5t12 -245t40 -103q49 -64 140 -64t140 64z" />
    <glyph glyph-name="P" unicode="P" horiz-adv-x="1254" 
d="M142 228v981q0 36 1.5 57t13 53.5t34.5 55.5t55.5 34.5t53.5 13t57 1.5h351q115 0 209 -38.5t153.5 -103t91.5 -146t32 -170.5t-32 -170.5t-91.5 -146t-153.5 -103t-209 -38.5h-214v-280q0 -65 -3.5 -92.5t-18.5 -57.5q-19 -38 -60.5 -62t-93.5 -24t-93.5 24t-60.5 62
q-15 30 -18.5 57.5t-3.5 92.5zM494 820h198q69 0 110.5 43.5t41.5 102.5t-41.5 102.5t-110.5 43.5h-198v-292z" />
    <glyph glyph-name="Q" unicode="Q" horiz-adv-x="1280" 
d="M244 144q-36 36 -61.5 74.5t-41.5 86t-25.5 86.5t-13.5 101t-5 103t-1 117q0 92 1 139.5t8.5 119.5t22.5 117.5t43.5 97t71.5 94.5q79 79 174.5 117.5t222.5 38.5t222.5 -38.5t174.5 -117.5q43 -43 71.5 -94.5t43.5 -97t22.5 -117.5t8.5 -119.5t1 -139.5t-2 -143.5
t-9 -120t-24.5 -121.5t-46.5 -100l10 -9q53 -53 65 -87q23 -66 -34 -123q-56 -56 -122 -34q-36 13 -88 65l-15 14q-116 -65 -278 -65q-127 0 -222 38.5t-174 117.5zM670 302l-22 22q-53 53 -65 87q-23 66 34 123t122 34q37 -14 82 -59l3 -3q8 77 8 206q0 179 -12 246.5
t-40 103.5q-21 27 -57.5 44.5t-82.5 17.5t-82.5 -17.5t-57.5 -44.5q-28 -36 -40 -103.5t-12 -246.5t12 -245t40 -103q49 -64 140 -64q20 0 30 2z" />
    <glyph glyph-name="R" unicode="R" horiz-adv-x="1304" 
d="M840 132l-227 398h-119v-302q0 -65 -3.5 -92.5t-18.5 -57.5q-19 -38 -60.5 -62t-93.5 -24t-93.5 24t-60.5 62q-15 30 -18.5 57.5t-3.5 92.5v981q0 36 1.5 57t13 53.5t34.5 55.5t55.5 34.5t53.5 13t57 1.5h351q115 0 209 -38.5t153.5 -103t91.5 -146t32 -170.5
q0 -115 -59 -213.5t-168 -156.5l168 -295q31 -53 41.5 -83t10.5 -62q0 -90 -86 -139q-44 -25 -88 -25q-32 0 -58.5 11t-48 34t-34.5 42.5t-32 52.5zM494 822h198q69 0 110.5 42.5t41.5 101.5t-41.5 102.5t-110.5 43.5h-198v-290z" />
    <glyph glyph-name="S" unicode="S" horiz-adv-x="1189" 
d="M639 550l-172 24q-190 27 -286 126q-98 101 -98 286q0 199 140.5 324.5t379.5 125.5q168 0 306 -54q68 -27 107 -71.5t39 -100.5q0 -58 -42 -108q-39 -48 -102 -48q-43 0 -124 34q-94 40 -194 40q-84 0 -128 -37.5t-44 -82.5q0 -48 28 -76q33 -33 98 -42l172 -24
q189 -27 280 -118q106 -103 106 -312q0 -140 -75.5 -243.5t-198.5 -154t-276 -50.5q-205 0 -326 48q-94 37 -140 83.5t-46 120.5q0 66 48 114q38 38 96 38q25 0 50.5 -8.5t85.5 -33.5q121 -52 234 -52q102 0 153 33.5t51 96.5q0 53 -28 84q-30 30 -94 38z" />
    <glyph glyph-name="T" unicode="T" horiz-adv-x="1162" 
d="M405 228v884h-147q-57 0 -83 3.5t-51 15.5q-34 16 -55 53.5t-21 83.5t21 83.5t55 53.5q25 12 51 15.5t83 3.5h646q57 0 83 -3.5t51 -15.5q34 -16 55 -53.5t21 -83.5t-21 -83.5t-55 -53.5q-25 -12 -51 -15.5t-83 -3.5h-147v-884q0 -65 -3.5 -92.5t-18.5 -57.5
q-19 -38 -60.5 -62t-93.5 -24t-93.5 24t-60.5 62q-15 30 -18.5 57.5t-3.5 92.5z" />
    <glyph glyph-name="U" unicode="U" horiz-adv-x="1320" 
d="M850 508v688q0 65 3.5 92.5t18.5 57.5q19 38 60.5 62t93.5 24t93.5 -24t60.5 -62q15 -30 18.5 -57.5t3.5 -92.5v-696q0 -152 -74.5 -270t-197.5 -180t-272 -62q-148 0 -270.5 62t-196 180t-73.5 270v696q0 65 3.5 92.5t18.5 57.5q19 38 60.5 62t93.5 24t93.5 -24
t60.5 -62q15 -30 18.5 -57.5t3.5 -92.5v-688q0 -98 50 -153t138 -55t140 55t52 153z" />
    <glyph glyph-name="V" unicode="V" horiz-adv-x="1176" 
d="M399 160l-334 999q-18 55 -23.5 83.5t-1.5 57.5q8 64 62 98t107 34q63 0 104 -41q21 -21 33 -46t31 -82l211 -651l211 651q19 57 31 82t33 46q41 41 104 41q53 0 107 -34t62 -98q4 -29 -1.5 -57.5t-23.5 -83.5l-334 -999q-30 -91 -70 -126q-46 -42 -119 -42t-119 42
q-40 35 -70 126z" />
    <glyph glyph-name="W" unicode="W" horiz-adv-x="1764" 
d="M1052 181l-170 551l-170 -551q-12 -38 -19 -58.5t-24 -48.5t-39 -44q-51 -38 -117 -38t-117 38q-56 42 -82 151l-246 991q-15 60 -18 85t2 58q11 49 59 83t108 34q70 0 112 -48q19 -22 28.5 -47t24.5 -86l143 -579l190 621q20 66 54 100q39 39 111 39t111 -39
q34 -34 54 -100l190 -621l143 579q15 61 24.5 86t28.5 47q42 48 112 48q60 0 108 -34t59 -83q5 -33 2 -58t-18 -85l-246 -991q-26 -109 -82 -151q-51 -38 -117 -38t-117 38q-22 16 -39 44t-24 48.5t-19 58.5z" />
    <glyph glyph-name="X" unicode="X" horiz-adv-x="1152" 
d="M109 302l250 430l-227 391q-30 53 -41 83t-11 62q0 90 86 139q44 25 88 25q32 0 58.5 -11t48 -34t34.5 -42.5t32 -52.5l149 -265l149 265q19 33 32 52.5t34.5 42.5t48 34t58.5 11q44 0 88 -25q86 -49 86 -139q0 -32 -11 -62t-41 -83l-227 -391l250 -430q31 -54 42 -84
t11 -62q0 -90 -86 -139q-44 -25 -88 -25q-32 0 -58.5 11t-48 34t-34.5 42.5t-32 52.5l-173 306l-173 -306q-19 -33 -32 -52.5t-34.5 -42.5t-48 -34t-58.5 -11q-44 0 -88 25q-86 49 -86 139q0 32 11 62t42 84z" />
    <glyph glyph-name="Y" unicode="Y" horiz-adv-x="1114" 
d="M381 228v319l-297 594q-28 56 -37 81t-9 54q0 41 24.5 77.5t68.5 58.5q39 20 82 20q46 0 83 -27q23 -17 37.5 -39t42.5 -79l181 -367l181 367q28 57 42.5 79t37.5 39q37 27 83 27q43 0 82 -20q44 -22 68.5 -58.5t24.5 -77.5q0 -29 -9 -54t-37 -81l-297 -594v-319
q0 -65 -3.5 -92.5t-18.5 -57.5q-19 -38 -60.5 -62t-93.5 -24t-93.5 24t-60.5 62q-15 30 -18.5 57.5t-3.5 92.5z" />
    <glyph glyph-name="Z" unicode="Z" horiz-adv-x="1149" 
d="M859 0h-538q-46 0 -72.5 2t-62.5 14.5t-61 37.5q-55 56 -55 136q0 59 58 148l505 774h-328q-57 0 -83 3.5t-51 15.5q-34 16 -55 53.5t-21 83.5t21 83.5t55 53.5q25 12 51 15.5t83 3.5h512q46 0 72.5 -2t62.5 -14.5t61 -37.5q55 -56 55 -136q0 -59 -58 -148l-505 -774h354
q57 0 83 -3.5t51 -15.5q34 -16 55 -53.5t21 -83.5t-21 -83.5t-55 -53.5q-25 -12 -51 -15.5t-83 -3.5z" />
    <glyph glyph-name="bracketleft" unicode="[" horiz-adv-x="832" 
d="M560 -148h-216q-35 0 -54.5 1.5t-48.5 12t-49 30.5q-48 48 -48 156v1320q0 108 48 156q20 20 49 30.5t48.5 12t54.5 1.5h216q55 0 80 -3t48 -15q32 -16 52 -51t20 -79t-20 -79t-52 -51q-23 -12 -48 -15t-80 -3h-88v-1128h88q55 0 80 -3t48 -15q32 -16 52 -51t20 -79
t-20 -79t-52 -51q-23 -12 -48 -15t-80 -3z" />
    <glyph glyph-name="backslash" unicode="\" horiz-adv-x="862" 
d="M507 -2l-443 1328q-11 33 -16 51.5t-8.5 51t5.5 47.5q15 44 57.5 73.5t96.5 29.5q30 0 54 -10t38.5 -22.5t28 -37t19.5 -40.5t16 -46l443 -1328q11 -33 16 -51.5t8.5 -51t-5.5 -47.5q-15 -44 -57.5 -73.5t-96.5 -29.5q-30 0 -54 10t-38.5 22.5t-28 37t-19.5 40.5t-16 46z
" />
    <glyph glyph-name="bracketright" unicode="]" horiz-adv-x="832" 
d="M488 -148h-216q-55 0 -80 3t-48 15q-32 16 -52 51t-20 79t20 79t52 51q23 12 48 15t80 3h88v1128h-88q-55 0 -80 3t-48 15q-32 16 -52 51t-20 79t20 79t52 51q23 12 48 15t80 3h216q35 0 54.5 -1.5t48.5 -12t49 -30.5q48 -48 48 -156v-1320q0 -108 -48 -156
q-20 -20 -49 -30.5t-48.5 -12t-54.5 -1.5z" />
    <glyph glyph-name="asciicircum" unicode="^" 
d="M556 1432q36 0 64 -11t48 -33.5t31.5 -40.5t26.5 -48l241 -482q25 -50 32.5 -74t7.5 -53q0 -60 -48.5 -102t-109.5 -42q-45 0 -80 27q-22 17 -37 38t-39 69l-137 274l-137 -274q-24 -48 -39 -69t-37 -38q-35 -27 -80 -27q-61 0 -109.5 42t-48.5 102q0 29 7.5 53t32.5 74
l241 482q15 30 26.5 48t31.5 40.5t48 33.5t64 11z" />
    <glyph glyph-name="underscore" unicode="_" horiz-adv-x="1280" 
d="M1096 -408h-912q-75 0 -108 16q-62 30 -62 110t62 110q33 16 108 16h912q75 0 108 -16q62 -30 62 -110t-62 -110q-33 -16 -108 -16z" />
    <glyph glyph-name="grave" unicode="`" horiz-adv-x="1000" 
d="M376 1288l-75 120q-45 71 -48 110q-7 73 66 118q37 23 76 23q37 0 69 -22q24 -17 67 -85l75 -120q45 -71 48 -110q7 -73 -66 -118q-37 -23 -76 -23q-37 0 -69 22q-24 17 -67 85z" />
    <glyph glyph-name="a" unicode="a" horiz-adv-x="1076" 
d="M962 698v-484q0 -62 -3.5 -89t-16.5 -53q-18 -36 -56.5 -58t-87.5 -22q-104 0 -154 96q-59 -55 -110 -76.5t-132 -21.5q-162 0 -258 96q-94 94 -94 252q0 63 22 117.5t65.5 99t116.5 70t168 25.5h212v28q0 72 -37 103t-115 31q-63 0 -134 -30q-62 -26 -100 -26
q-57 0 -92 44q-36 44 -36 98q0 47 30 80.5t70 51.5q130 58 268 58q233 0 353.5 -97.5t120.5 -292.5zM634 404v28h-156q-56 0 -85 -23.5t-29 -64.5q0 -39 30 -63.5t88 -24.5q42 0 67.5 8t50.5 30q34 31 34 110z" />
    <glyph glyph-name="b" unicode="b" horiz-adv-x="1138" 
d="M124 214v996q0 62 3.5 89t16.5 53q18 36 56.5 58t87.5 22t87.5 -22t56.5 -58q13 -26 16.5 -53t3.5 -89v-212q90 90 240 90q163 0 258 -98q36 -37 58 -85t31 -114t11 -115.5t2 -137.5t-2 -137.5t-11 -115.5t-31 -114t-58 -85q-95 -98 -260 -98q-81 0 -139 24.5t-109 75.5
q-50 -96 -154 -96q-49 0 -87.5 22t-56.5 58q-13 26 -16.5 53t-3.5 89zM588 284q36 0 61 12t39.5 31.5t22.5 54t10.5 69.5t2.5 87t-2.5 87t-10.5 69.5t-22.5 54t-39.5 31.5t-61 12t-61 -12t-39.5 -31.5t-22.5 -54t-10.5 -69.5t-2.5 -87t2.5 -87t10.5 -69.5t22.5 -54
t39.5 -31.5t61 -12z" />
    <glyph glyph-name="c" unicode="c" horiz-adv-x="954" 
d="M746 22q-79 -34 -186 -34q-44 0 -86 5.5t-91 21.5t-91.5 41.5t-83 68t-69 98.5t-46 137t-17.5 178t17.5 178t46 137t69 98.5t83 68t91.5 41.5t91 21.5t86 5.5q107 0 186 -34q61 -26 109.5 -73.5t48.5 -104.5q0 -59 -46 -108q-17 -19 -44.5 -31.5t-55.5 -12.5
q-44 0 -102 38q-46 30 -96 30q-60 0 -102 -42q-54 -57 -54 -212t54 -212q42 -42 102 -42q50 0 96 30q58 38 102 38q28 0 55.5 -12.5t44.5 -31.5q46 -49 46 -108q0 -57 -48.5 -104.5t-109.5 -73.5z" />
    <glyph glyph-name="d" unicode="d" horiz-adv-x="1138" 
d="M1014 214q0 -62 -3.5 -89t-16.5 -53q-18 -36 -56.5 -58t-87.5 -22q-104 0 -154 96q-51 -51 -109 -75.5t-139 -24.5q-165 0 -260 98q-36 37 -58 85t-31 114t-11 115.5t-2 137.5t2 137.5t11 115.5t31 114t58 85q95 98 258 98q150 0 240 -90v212q0 62 3.5 89t16.5 53
q18 36 56.5 58t87.5 22t87.5 -22t56.5 -58q13 -26 16.5 -53t3.5 -89v-996zM550 284q36 0 61 12t39.5 31.5t22.5 54t10.5 69.5t2.5 87t-2.5 87t-10.5 69.5t-22.5 54t-39.5 31.5t-61 12t-61 -12t-39.5 -31.5t-22.5 -54t-10.5 -69.5t-2.5 -87t2.5 -87t10.5 -69.5t22.5 -54
t39.5 -31.5t61 -12z" />
    <glyph glyph-name="e" unicode="e" horiz-adv-x="1113" 
d="M861 432h-463q0 -70 52 -120t142 -50q88 0 162 48q63 42 114 42q47 0 88.5 -40.5t41.5 -95.5q0 -77 -102 -148q-116 -80 -308 -80q-512 0 -512 550q0 259 133 404.5t349 145.5q145 0 254.5 -65t165.5 -170t62 -235q4 -98 -44 -146q-18 -18 -43.5 -27.5t-43.5 -11
t-48 -1.5zM398 650h320q0 48 -18 84q-40 84 -142 84q-104 0 -142 -84q-18 -39 -18 -84z" />
    <glyph glyph-name="f" unicode="f" horiz-adv-x="743" 
d="M189 214v568h-1q-75 0 -108 16q-62 30 -62 110t62 110q33 16 108 16h1v94q0 58 19.5 112.5t58 101.5t104 75.5t148.5 28.5h6q88 0 132 -22q68 -34 68 -116q0 -85 -66 -118q-33 -17 -76 -18q-66 -3 -66 -68v-70h38q75 0 108 -16q62 -30 62 -110t-62 -110q-33 -16 -108 -16
h-38v-568q0 -62 -3.5 -89t-16.5 -53q-18 -36 -56.5 -58t-87.5 -22t-87.5 22t-56.5 58q-13 26 -16.5 53t-3.5 89z" />
    <glyph glyph-name="g" unicode="g" horiz-adv-x="1122" 
d="M670 84v74q-90 -90 -232 -90q-156 0 -252 96q-67 67 -83.5 153.5t-16.5 260.5t16.5 260.5t83.5 153.5q96 96 254 96q79 0 133.5 -24t106.5 -76q50 96 154 96q49 0 87.5 -22t56.5 -58q13 -26 16.5 -53t3.5 -89v-784q0 -192 -133.5 -315t-352.5 -123q-170 0 -286 64
q-104 57 -104 146q0 57 40 96.5t88 39.5q50 0 112 -30q83 -40 134 -40q90 0 132 48t42 120zM542 364q35 0 59.5 12.5t37.5 30.5t20.5 49t9 57t1.5 65t-1.5 65t-9 57t-20.5 49t-37.5 30.5t-59.5 12.5t-59.5 -12.5t-37.5 -30.5t-20.5 -49t-9 -57t-1.5 -65t1.5 -65t9 -57
t20.5 -49t37.5 -30.5t59.5 -12.5z" />
    <glyph glyph-name="h" unicode="h" horiz-adv-x="1158" 
d="M716 214v430q0 44 -14 75t-36 46t-42 21t-40 6t-40 -6t-42 -21t-36 -46t-14 -75v-430q0 -62 -3.5 -89t-16.5 -53q-18 -36 -56.5 -58t-87.5 -22t-87.5 22t-56.5 58q-13 26 -16.5 53t-3.5 89v996q0 62 3.5 89t16.5 53q18 36 56.5 58t87.5 22t87.5 -22t56.5 -58
q13 -26 16.5 -53t3.5 -89v-215q48 44 113.5 68.5t128.5 24.5q150 0 242 -92q64 -64 86 -137t22 -171v-474q0 -62 -3.5 -89t-16.5 -53q-18 -36 -56.5 -58t-87.5 -22t-87.5 22t-56.5 58q-13 26 -16.5 53t-3.5 89z" />
    <glyph glyph-name="i" unicode="i" horiz-adv-x="576" 
d="M124 214v606q0 62 3.5 89t16.5 53q18 36 56.5 58t87.5 22t87.5 -22t56.5 -58q13 -26 16.5 -53t3.5 -89v-606q0 -62 -3.5 -89t-16.5 -53q-18 -36 -56.5 -58t-87.5 -22t-87.5 22t-56.5 58q-13 26 -16.5 53t-3.5 89zM288 1142q-75 0 -128.5 53.5t-53.5 128.5t53.5 128.5
t128.5 53.5t128.5 -53.5t53.5 -128.5t-53.5 -128.5t-128.5 -53.5z" />
    <glyph glyph-name="j" unicode="j" horiz-adv-x="576" 
d="M122 -360h-6q-88 0 -132 22q-68 34 -68 116q0 85 66 118q31 15 81 18q61 3 61 68v838q0 62 3.5 89t16.5 53q18 36 56.5 58t87.5 22t87.5 -22t56.5 -58q13 -26 16.5 -53t3.5 -89v-862q0 -58 -19.5 -112.5t-58 -101.5t-104 -75.5t-148.5 -28.5zM288 1142q-75 0 -128.5 53.5
t-53.5 128.5t53.5 128.5t128.5 53.5t128.5 -53.5t53.5 -128.5t-53.5 -128.5t-128.5 -53.5z" />
    <glyph glyph-name="k" unicode="k" horiz-adv-x="1062" 
d="M692 114l-163 262l-77 -89v-73q0 -62 -3.5 -89t-16.5 -53q-18 -36 -56.5 -58t-87.5 -22t-87.5 22t-56.5 58q-13 26 -16.5 53t-3.5 89v996q0 62 3.5 89t16.5 53q18 36 56.5 58t87.5 22t87.5 -22t56.5 -58q13 -26 16.5 -53t3.5 -89v-510l253 290q45 51 76 72t70 21
q57 0 100 -38q53 -47 53 -109q0 -33 -17 -64.5t-58 -77.5l-172 -197l199 -318q54 -86 54 -140q0 -73 -75 -120q-43 -27 -85 -27q-50 0 -83.5 28t-74.5 94z" />
    <glyph glyph-name="l" unicode="l" horiz-adv-x="664" 
d="M450 0h-6q-83 0 -148.5 28.5t-104 75.5t-58 101.5t-19.5 112.5v892q0 62 3.5 89t16.5 53q18 36 56.5 58t87.5 22t87.5 -22t56.5 -58q13 -26 16.5 -53t3.5 -89v-868q0 -65 61 -68q50 -3 81 -18q66 -33 66 -118q0 -82 -68 -116q-44 -22 -132 -22z" />
    <glyph glyph-name="m" unicode="m" horiz-adv-x="1750" 
d="M1308 214v430q0 44 -14 75t-36 46t-42 21t-40 6t-40 -6t-42 -21t-36 -46t-14 -75v-430q0 -62 -3.5 -89t-16.5 -53q-18 -36 -56.5 -58t-87.5 -22t-87.5 22t-56.5 58q-13 26 -16.5 53t-3.5 89v430q0 44 -14 75t-36 46t-42 21t-40 6t-40 -6t-42 -21t-36 -46t-14 -75v-430
q0 -62 -3.5 -89t-16.5 -53q-18 -36 -56.5 -58t-87.5 -22t-87.5 22t-56.5 58q-13 26 -16.5 53t-3.5 89v648q0 62 3.5 89t16.5 53q18 36 56.5 58t87.5 22q104 0 154 -96q48 48 116 74t136 26q162 0 262 -114q70 61 140.5 87.5t163.5 26.5q77 0 146 -24.5t112 -67.5
q118 -118 118 -308v-474q0 -62 -3.5 -89t-16.5 -53q-18 -36 -56.5 -58t-87.5 -22t-87.5 22t-56.5 58q-13 26 -16.5 53t-3.5 89z" />
    <glyph glyph-name="n" unicode="n" horiz-adv-x="1158" 
d="M716 214v430q0 44 -14 75t-36 46t-42 21t-40 6t-40 -6t-42 -21t-36 -46t-14 -75v-430q0 -62 -3.5 -89t-16.5 -53q-18 -36 -56.5 -58t-87.5 -22t-87.5 22t-56.5 58q-13 26 -16.5 53t-3.5 89v648q0 62 3.5 89t16.5 53q18 36 56.5 58t87.5 22q104 0 154 -96q48 48 116.5 74
t135.5 26q150 0 242 -92q64 -64 86 -137t22 -171v-474q0 -62 -3.5 -89t-16.5 -53q-18 -36 -56.5 -58t-87.5 -22t-87.5 22t-56.5 58q-13 26 -16.5 53t-3.5 89z" />
    <glyph glyph-name="o" unicode="o" horiz-adv-x="1100" 
d="M638 314q29 29 38.5 81.5t9.5 142.5t-9.5 142.5t-38.5 81.5q-30 30 -88 30t-88 -30q-29 -29 -38.5 -81.5t-9.5 -142.5t9.5 -142.5t38.5 -81.5q30 -30 88 -30t88 30zM896 126q-130 -138 -346 -138t-346 138q-67 73 -92.5 162.5t-25.5 249.5q0 159 25.5 249t92.5 163
q130 138 346 138t346 -138q67 -73 92.5 -163t25.5 -249q0 -160 -25.5 -249.5t-92.5 -162.5z" />
    <glyph glyph-name="p" unicode="p" horiz-adv-x="1138" 
d="M144 -276q-13 26 -16.5 53t-3.5 89v996q0 62 3.5 89t16.5 53q18 36 56.5 58t87.5 22q104 0 154 -96q51 51 109 75.5t139 24.5q165 0 260 -98q36 -37 58 -85t31 -114t11 -115.5t2 -137.5t-2 -137.5t-11 -115.5t-31 -114t-58 -85q-95 -98 -258 -98q-150 0 -240 90v-212
q0 -62 -3.5 -89t-16.5 -53q-18 -36 -56.5 -58t-87.5 -22t-87.5 22t-56.5 58zM588 284q36 0 61 12t39.5 31.5t22.5 54t10.5 69.5t2.5 87t-2.5 87t-10.5 69.5t-22.5 54t-39.5 31.5t-61 12t-61 -12t-39.5 -31.5t-22.5 -54t-10.5 -69.5t-2.5 -87t2.5 -87t10.5 -69.5t22.5 -54
t39.5 -31.5t61 -12z" />
    <glyph glyph-name="q" unicode="q" horiz-adv-x="1138" 
d="M686 -134v212q-90 -90 -240 -90q-163 0 -258 98q-36 37 -58 85t-31 114t-11 115.5t-2 137.5t2 137.5t11 115.5t31 114t58 85q95 98 260 98q81 0 139 -24.5t109 -75.5q50 96 154 96q49 0 87.5 -22t56.5 -58q13 -26 16.5 -53t3.5 -89v-996q0 -62 -3.5 -89t-16.5 -53
q-18 -36 -56.5 -58t-87.5 -22t-87.5 22t-56.5 58q-13 26 -16.5 53t-3.5 89zM550 284q36 0 61 12t39.5 31.5t22.5 54t10.5 69.5t2.5 87t-2.5 87t-10.5 69.5t-22.5 54t-39.5 31.5t-61 12t-61 -12t-39.5 -31.5t-22.5 -54t-10.5 -69.5t-2.5 -87t2.5 -87t10.5 -69.5t22.5 -54
t39.5 -31.5t61 -12z" />
    <glyph glyph-name="r" unicode="r" horiz-adv-x="956" 
d="M124 214v648q0 62 3.5 89t16.5 53q18 36 56.5 58t87.5 22q104 0 154 -96q41 41 104.5 70.5t130.5 29.5q109 0 181 -50q74 -52 74 -128q0 -72 -50 -122q-44 -44 -110 -44q-45 0 -100 26q-47 22 -84 22q-21 0 -42 -6.5t-43.5 -21.5t-36.5 -46t-14 -74v-430q0 -62 -3.5 -89
t-16.5 -53q-18 -36 -56.5 -58t-87.5 -22t-87.5 22t-56.5 58q-13 26 -16.5 53t-3.5 89z" />
    <glyph glyph-name="s" unicode="s" horiz-adv-x="1008" 
d="M552 404l-166 16q-312 30 -312 312q0 86 36.5 155.5t97.5 112.5t136.5 65.5t157.5 22.5q146 0 266 -44q67 -25 102 -60q36 -37 36 -94q0 -28 -13 -57.5t-31 -46.5q-39 -36 -88 -36q-32 0 -89 24q-122 50 -191 50q-46 0 -75 -18.5t-29 -48.5q0 -54 70 -61l166 -16
q163 -16 243.5 -104t80.5 -224q0 -74 -24.5 -135t-67.5 -103t-102 -71t-127.5 -42t-144.5 -13q-126 0 -212 22t-158 70q-72 49 -72 120q0 33 14.5 64t37.5 48q40 31 86 31q37 0 98 -31q101 -52 214 -52q59 0 98.5 19.5t39.5 56.5q0 61 -78 68z" />
    <glyph glyph-name="t" unicode="t" horiz-adv-x="767" 
d="M525 0h-6q-83 0 -148.5 28.5t-104 75.5t-58 101.5t-19.5 112.5v464h-1q-75 0 -108 16q-62 30 -62 110t62 110q33 16 108 16h1v94q0 62 3.5 89t16.5 53q18 36 56.5 58t87.5 22t87.5 -22t56.5 -58q13 -26 16.5 -53t3.5 -89v-94h38q75 0 108 -16q62 -30 62 -110t-62 -110
q-33 -16 -108 -16h-38v-440q0 -65 61 -68q50 -3 81 -18q66 -33 66 -118q0 -82 -68 -116q-44 -22 -132 -22z" />
    <glyph glyph-name="u" unicode="u" horiz-adv-x="1158" 
d="M706 432v430q0 62 3.5 89t16.5 53q18 36 56.5 58t87.5 22t87.5 -22t56.5 -58q13 -26 16.5 -53t3.5 -89v-648q0 -62 -3.5 -89t-16.5 -53q-18 -36 -56.5 -58t-87.5 -22q-104 0 -154 96q-48 -48 -116.5 -74t-135.5 -26q-150 0 -242 92q-64 64 -86 137t-22 171v474
q0 62 3.5 89t16.5 53q18 36 56.5 58t87.5 22t87.5 -22t56.5 -58q13 -26 16.5 -53t3.5 -89v-430q0 -44 14 -75t36 -46t42 -21t40 -6t40 6t42 21t36 46t14 75z" />
    <glyph glyph-name="v" unicode="v" horiz-adv-x="946" 
d="M284 160l-227 671q-35 103 -19 150q15 44 57.5 73.5t96.5 29.5q30 0 54 -10t38.5 -22.5t28 -37t19.5 -40.5t16 -46l125 -385l125 385q10 30 16 46t19.5 40.5t28 37t38.5 22.5t54 10q54 0 96.5 -29.5t57.5 -73.5q16 -47 -19 -150l-227 -671q-30 -91 -70 -126
q-46 -42 -119 -42t-119 42q-40 35 -70 126z" />
    <glyph glyph-name="w" unicode="w" horiz-adv-x="1518" 
d="M252 155l-199 682q-16 55 -19.5 78.5t1.5 53.5q9 47 54 81t100 34q67 0 104 -42q18 -20 29 -44t25 -77l112 -403l137 416q27 83 61 114q39 36 102 36t102 -36q34 -31 61 -114l137 -416l112 403q14 53 25 77t29 44q37 42 104 42q55 0 100 -34t54 -81q5 -30 1.5 -53.5
t-19.5 -78.5l-199 -682q-26 -89 -66 -122q-49 -41 -116 -41q-66 0 -115 41q-38 32 -67 122l-143 435l-143 -435q-29 -90 -67 -122q-49 -41 -115 -41q-67 0 -116 41q-40 33 -66 122z" />
    <glyph glyph-name="x" unicode="x" horiz-adv-x="945" 
d="M109 279l175 265l-165 252q-54 81 -54 140q0 73 75 120q43 27 85 27q50 0 83 -27.5t75 -94.5l90 -145l90 145q42 67 75 94.5t83 27.5q42 0 85 -27q75 -47 75 -120q0 -59 -54 -140l-165 -252l175 -265q54 -81 54 -140q0 -73 -75 -120q-43 -27 -85 -27q-50 0 -84 28.5
t-74 93.5l-100 164l-100 -164q-40 -65 -74 -93.5t-84 -28.5q-42 0 -85 27q-75 47 -75 120q0 59 54 140z" />
    <glyph glyph-name="y" unicode="y" horiz-adv-x="946" 
d="M288 12l23 68l-254 751q-35 103 -19 150q15 44 57.5 73.5t96.5 29.5q30 0 54 -9.5t39 -23t28 -37t19.5 -41t15.5 -45.5l125 -414l125 414q9 28 15.5 45.5t19.5 41t28 37t39 23t54 9.5q54 0 96.5 -29.5t57.5 -73.5q16 -47 -19 -150l-331 -963q-28 -83 -84 -142
q-87 -90 -234 -90q-110 0 -150 40q-44 44 -44 108q0 77 48 116q22 18 42 24t58 6q67 0 94 82z" />
    <glyph glyph-name="z" unicode="z" horiz-adv-x="960" 
d="M718 0h-476q-89 0 -132 22q-34 17 -51 48.5t-17 65.5q0 41 13.5 72.5t52.5 83.5l366 488h-208q-55 0 -80 3t-48 15q-32 16 -52 51t-20 79t20 79t52 51q23 12 48 15t80 3h452q89 0 132 -22q34 -17 51 -48.5t17 -65.5q0 -41 -13.5 -72.5t-52.5 -83.5l-368 -488h234
q55 0 80 -3t48 -15q32 -16 52 -51t20 -79t-20 -79t-52 -51q-23 -12 -48 -15t-80 -3z" />
    <glyph glyph-name="braceleft" unicode="{" horiz-adv-x="1036" 
d="M765 -148h-89q-154 0 -238 84q-96 96 -96 234v238q0 86 -34 120q-23 23 -62 31q-7 1 -26.5 5t-27 5.5t-22.5 5t-23 7.5t-17.5 10t-17.5 14q-40 40 -40 106t40 106q8 8 17.5 14t17.5 10t23 7.5t22.5 5t27 5.5t26.5 5q39 8 62 31q34 34 34 120v237q0 139 96 235
q84 84 238 84h89q55 0 80 -3t48 -15q32 -16 52 -51t20 -79t-20 -79t-52 -51q-35 -17 -92 -18q-73 -2 -99 -28q-32 -32 -32 -128v-208q0 -46 -12.5 -82t-27.5 -55.5t-39 -34.5t-36.5 -19t-30.5 -9q18 -5 30.5 -9t36.5 -19t39 -34.5t27.5 -55.5t12.5 -82v-208q0 -96 32 -128
q26 -26 99 -28q57 -1 92 -18q32 -16 52 -51t20 -79t-20 -79t-52 -51q-23 -12 -48 -15t-80 -3z" />
    <glyph glyph-name="bar" unicode="|" horiz-adv-x="728" 
d="M200 67v1291q0 62 3.5 89t16.5 53q18 36 56.5 58t87.5 22t87.5 -22t56.5 -58q13 -26 16.5 -53t3.5 -89v-1291q0 -62 -3.5 -89t-16.5 -53q-18 -36 -56.5 -58t-87.5 -22t-87.5 22t-56.5 58q-13 26 -16.5 53t-3.5 89z" />
    <glyph glyph-name="braceright" unicode="}" horiz-adv-x="1036" 
d="M361 -148h-89q-55 0 -80 3t-48 15q-32 16 -52 51t-20 79t20 79t52 51q35 17 92 18q73 2 99 28q32 32 32 128v208q0 46 12.5 82t27.5 55.5t39 34.5t36.5 19t30.5 9q-18 5 -30.5 9t-36.5 19t-39 34.5t-27.5 55.5t-12.5 82v208q0 96 -32 128q-26 26 -99 28q-57 1 -92 18
q-32 16 -52 51t-20 79t20 79t52 51q23 12 48 15t80 3h89q154 0 238 -84q96 -96 96 -235v-237q0 -86 34 -120q23 -23 62 -31q7 -1 26.5 -5t27 -5.5t22.5 -5t23 -7.5t17.5 -10t17.5 -14q40 -40 40 -106t-40 -106q-8 -8 -17.5 -14t-17.5 -10t-23 -7.5t-22.5 -5t-27 -5.5
t-26.5 -5q-39 -8 -62 -31q-34 -34 -34 -120v-238q0 -138 -96 -234q-84 -84 -238 -84z" />
    <glyph glyph-name="asciitilde" unicode="~" horiz-adv-x="1292" 
d="M1136 474q-66 -55 -129 -77.5t-147 -22.5q-125 0 -246 68q-88 50 -168 50q-65 0 -130 -48q-46 -34 -92 -34q-65 0 -112 56q-38 45 -38 100q0 76 82 144q66 55 129 77.5t147 22.5q128 0 246 -68q88 -50 168 -50q65 0 130 48q46 34 92 34q65 0 112 -56q38 -45 38 -100
q0 -76 -82 -144z" />
    <glyph glyph-name="uni00A0" unicode="&#xa0;" horiz-adv-x="444" 
 />
    <glyph glyph-name="exclamdown" unicode="&#xa1;" horiz-adv-x="732" 
d="M149 -119v494q0 65 3.5 92.5t18.5 57.5q19 38 60.5 62t93.5 24t93.5 -24t60.5 -62q15 -30 18.5 -57.5t3.5 -92.5v-494q0 -65 -3.5 -92.5t-18.5 -57.5q-19 -38 -60.5 -62t-93.5 -24t-93.5 24t-60.5 62q-15 30 -18.5 57.5t-3.5 92.5zM326 1083q78 0 134 -56t56 -134
t-56 -134t-134 -56t-134 56t-56 134t56 134t134 56z" />
    <glyph glyph-name="cent" unicode="&#xa2;" horiz-adv-x="954" 
d="M746 216q-30 -14 -60 -21v-19q0 -50 -3 -73.5t-15 -45.5q-15 -30 -46.5 -47.5t-71.5 -17.5t-71.5 17.5t-46.5 47.5q-12 22 -15 45.5t-3 73.5v23q-53 14 -99 37.5t-91 66t-77 99t-51.5 141.5t-19.5 189t19.5 188.5t51.5 141.5t77 99.5t91 66t99 36.5q0 69 18 103
q15 30 46.5 47.5t71.5 17.5t71.5 -17.5t46.5 -47.5q17 -33 18 -99q27 -7 60 -20q61 -26 109.5 -73.5t48.5 -104.5q0 -59 -46 -108q-17 -19 -44.5 -31.5t-55.5 -12.5q-44 0 -102 38q-46 30 -96 30q-60 0 -102 -42q-54 -57 -54 -212t54 -212q42 -42 102 -42q50 0 96 30
q58 38 102 38q28 0 55.5 -12.5t44.5 -31.5q46 -49 46 -108q0 -57 -48.5 -104.5t-109.5 -73.5z" />
    <glyph glyph-name="sterling" unicode="&#xa3;" horiz-adv-x="1270" 
d="M988 0h-509q-36 0 -57 1.5t-53.5 13t-55.5 34.5t-34.5 55.5t-13 53.5t-1.5 57v341h-6q-75 0 -108 16q-62 30 -62 110t62 110q33 16 108 16h6v128q0 122 45.5 220t122 157.5t170.5 91t198 31.5q173 0 289 -72q104 -65 104 -165q0 -70 -46 -116q-38 -38 -82 -38
q-29 0 -50.5 6.5t-61.5 27.5q-82 45 -151 45q-85 0 -135.5 -49t-50.5 -147v-120h79q75 0 108 -16q62 -30 62 -110t-62 -110q-33 -16 -108 -16h-79v-244h372q57 0 83 -3.5t51 -15.5q34 -16 55 -53.5t21 -83.5t-21 -83.5t-55 -53.5q-25 -12 -51 -15.5t-83 -3.5z" />
    <glyph glyph-name="currency" unicode="&#xa4;" horiz-adv-x="1348" 
d="M943 105l-52 52q-101 -53 -217 -53t-217 53l-52 -52q-40 -40 -60.5 -55.5t-46.5 -24.5q-35 -12 -75 -0.5t-72 43.5t-43.5 72t0.5 75q9 26 25 47t55 60l53 53q-52 101 -52 215t52 215l-53 53q-39 39 -55 60t-25 47q-12 35 -0.5 75t43.5 72t72 43.5t75 -0.5
q26 -9 46.5 -24.5t60.5 -55.5l52 -52q101 53 217 53t217 -53l52 52q40 40 60.5 55.5t46.5 24.5q35 12 75 0.5t72 -43.5t43.5 -72t-0.5 -75q-9 -26 -25 -47t-55 -60l-53 -53q52 -101 52 -215t-52 -215l53 -53q39 -39 55 -60t25 -47q12 -35 0.5 -75t-43.5 -72t-72 -43.5
t-75 0.5q-26 9 -46.5 24.5t-60.5 55.5zM864 590q0 78 -56 134t-134 56t-134 -56t-56 -134t56 -134t134 -56t134 56t56 134z" />
    <glyph glyph-name="yen" unicode="&#xa5;" horiz-adv-x="1178" 
d="M922 255h-157v-17q0 -67 -3.5 -99t-18.5 -61q-19 -38 -60.5 -62t-93.5 -24t-93.5 24t-60.5 62q-15 29 -18.5 61t-3.5 99v17h-157q-75 0 -108 16q-62 30 -62 110t62 110q33 16 108 16h157v80l-29 57h-128q-75 0 -108 16q-62 30 -62 110t62 110q33 16 108 16h2l-122 245
q-28 56 -37 81t-9 54q0 41 24.5 77.5t68.5 58.5q39 20 82 20q46 0 83 -27q23 -17 37.5 -39t42.5 -79l161 -327l161 327q28 57 42.5 79t37.5 39q37 27 83 27q43 0 82 -20q44 -22 68.5 -58.5t24.5 -77.5q0 -29 -9 -54t-37 -81l-123 -245h3q75 0 108 -16q62 -30 62 -110
t-62 -110q-33 -16 -108 -16h-129l-28 -57v-80h157q75 0 108 -16q62 -30 62 -110t-62 -110q-33 -16 -108 -16z" />
    <glyph glyph-name="brokenbar" unicode="&#xa6;" horiz-adv-x="728" 
d="M200 66v272q0 62 3.5 87.5t16.5 54.5q17 35 56 57.5t88 22.5q48 0 86.5 -22t57.5 -58q14 -28 17 -52t3 -90v-272q0 -65 -3 -89.5t-17 -52.5q-19 -36 -57.5 -58t-86.5 -22q-49 0 -88 22.5t-56 57.5q-13 29 -16.5 54.5t-3.5 87.5zM200 1086v272q0 62 3.5 87.5t16.5 54.5
q17 35 56 57.5t88 22.5q48 0 86.5 -22t57.5 -58q14 -28 17 -52t3 -90v-272q0 -66 -3 -90t-17 -52q-19 -36 -57.5 -58t-86.5 -22q-49 0 -88 22.5t-56 57.5q-13 29 -16.5 54.5t-3.5 87.5z" />
    <glyph glyph-name="section" unicode="&#xa7;" horiz-adv-x="1032" 
d="M500 119l-108 40q-81 30 -132.5 59t-92.5 71.5t-59 101.5t-18 140q0 99 53 175.5t113 114.5q-132 80 -132 257q0 67 22 128t67.5 114t125 84.5t183.5 31.5q206 0 314 -110q75 -76 75 -176q0 -46 -18 -84q-17 -33 -53 -53.5t-81 -20.5q-68 0 -110 42q-25 25 -37 69
q-16 61 -90 61q-45 0 -69.5 -20t-24.5 -51q0 -35 23 -58.5t89 -47.5l108 -40q81 -30 132.5 -59t92.5 -71.5t59 -101.5t18 -140q0 -98 -52 -174t-110 -116q66 -40 104 -99t38 -166q0 -97 -36.5 -172.5t-97.5 -119.5t-132 -66t-147 -22q-160 0 -264 71q-62 42 -93.5 101
t-31.5 121q0 47 18 85q17 34 53 55t81 21q68 0 108 -40q26 -26 38 -73q17 -62 91 -62q50 0 75.5 22t25.5 61q0 36 -23.5 63.5t-94.5 53.5zM520 421q52 0 82 30q36 36 36 102t-36 102q-30 30 -82 30t-82 -30q-36 -36 -36 -102t36 -102q30 -30 82 -30z" />
    <glyph glyph-name="dieresis" unicode="&#xa8;" horiz-adv-x="1000" 
d="M267 1200q-66 0 -113 47t-47 113t47 113t113 47t113 -47t47 -113t-47 -113t-113 -47zM735 1200q-66 0 -113 47t-47 113t47 113t113 47t113 -47t47 -113t-47 -113t-113 -47z" />
    <glyph glyph-name="copyright" unicode="&#xa9;" horiz-adv-x="1644" 
d="M1546 712q0 -197 -97 -363.5t-263.5 -263.5t-363.5 -97t-363.5 97t-263.5 263.5t-97 363.5t97 363.5t263.5 263.5t363.5 97t363.5 -97t263.5 -263.5t97 -363.5zM1342 712q0 232 -148 381t-372 149t-372 -149t-148 -381t148 -381t372 -149t372 149t148 381zM684 712
q0 -98 42.5 -149t113.5 -51q39 0 79 26q38 27 70 27q40 0 66 -26t26 -66q0 -37 -36 -73q-72 -72 -205 -72q-70 0 -132.5 22.5t-114.5 67.5t-82.5 121t-30.5 173t30.5 173t82.5 121t114.5 67.5t132.5 22.5q133 0 205 -72q36 -36 36 -73q0 -40 -26 -66t-66 -26q-32 0 -70 27
q-40 26 -79 26q-71 0 -113.5 -51t-42.5 -149z" />
    <glyph glyph-name="ordfeminine" unicode="&#xaa;" horiz-adv-x="912" 
d="M800 729q0 -71 -15 -102q-29 -59 -104 -59q-85 0 -111 75q-47 -44 -91 -61.5t-115 -17.5q-130 0 -202 75t-72 196q0 106 73.5 175.5t220.5 69.5h178v40q0 58 -33 84t-101 26q-60 0 -118 -28q-47 -23 -80 -23q-41 0 -63 26q-26 30 -26 73q0 70 90.5 111t207.5 41
q178 0 269.5 -76t91.5 -227v-398zM562 887v35h-146q-47 0 -71.5 -22t-24.5 -59q0 -80 108 -80q72 0 103 31t31 95z" />
    <glyph glyph-name="guillemotleft" unicode="&#xab;" horiz-adv-x="1369" 
d="M357 263l-297 297l297 297q40 40 60.5 55.5t46.5 24.5q35 12 75 0.5t72 -43.5t43.5 -72t-0.5 -75q-9 -26 -25 -47t-55 -60l-80 -80l80 -80q39 -39 55 -60t25 -47q12 -35 0.5 -75t-43.5 -72t-72 -43.5t-75 0.5q-26 9 -46.5 24.5t-60.5 55.5zM975 263l-297 297l297 297
q40 40 60.5 55.5t46.5 24.5q35 12 75 0.5t72 -43.5t43.5 -72t-0.5 -75q-9 -26 -25 -47t-55 -60l-80 -80l80 -80q39 -39 55 -60t25 -47q12 -35 0.5 -75t-43.5 -72t-72 -43.5t-75 0.5q-26 9 -46.5 24.5t-60.5 55.5z" />
    <glyph glyph-name="logicalnot" unicode="&#xac;" 
d="M1026 572v-199q0 -55 -3 -80t-15 -48q-16 -32 -51 -52t-79 -20t-79 20t-51 52q-12 23 -15 48t-3 80v103h-452q-55 0 -80 3t-48 15q-32 16 -52 51t-20 79t20 79t52 51q23 12 48 15t80 3h548q33 0 52.5 -1.5t50 -12.5t51.5 -32t32 -51.5t12.5 -50t1.5 -52.5z" />
    <glyph glyph-name="uni00AD" unicode="&#xad;" horiz-adv-x="852" 
d="M562 442h-272q-55 0 -80 3t-48 15q-32 16 -52 51t-20 79t20 79t52 51q23 12 48 15t80 3h272q55 0 80 -3t48 -15q32 -16 52 -51t20 -79t-20 -79t-52 -51q-23 -12 -48 -15t-80 -3z" />
    <glyph glyph-name="registered" unicode="&#xae;" horiz-adv-x="1644" 
d="M1138 846q0 -71 -34.5 -120.5t-85.5 -75.5l84 -145q30 -53 32 -80q3 -53 -52 -84q-26 -15 -53 -15q-33 0 -53 19.5t-45 62.5l-119 208h-62v-151q0 -62 -13 -89q-24 -50 -89 -50t-89 50q-13 27 -13 89v499q0 68 29 97t97 29h208q120 0 189 -72.5t69 -171.5zM934 846
q0 36 -22 56t-58 20h-104v-152h104q36 0 58 20t22 56zM1342 712q0 232 -148 381t-372 149t-372 -149t-148 -381t148 -381t372 -149t372 149t148 381zM1546 712q0 -197 -97 -363.5t-263.5 -263.5t-363.5 -97t-363.5 97t-263.5 263.5t-97 363.5t97 363.5t263.5 263.5t363.5 97
t363.5 -97t263.5 -263.5t97 -363.5z" />
    <glyph glyph-name="macron" unicode="&#xaf;" horiz-adv-x="1000" 
d="M664 1258h-328q-75 0 -108 16q-62 30 -62 110t62 110q33 16 108 16h328q75 0 108 -16q62 -30 62 -110t-62 -110q-33 -16 -108 -16z" />
    <glyph glyph-name="degree" unicode="&#xb0;" horiz-adv-x="972" 
d="M486 676q-162 0 -277 115t-115 277t115 277t277 115t277 -115t115 -277t-115 -277t-277 -115zM486 934q54 0 92 39t38 95t-38 95t-92 39t-92 -39t-38 -95t38 -95t92 -39z" />
    <glyph glyph-name="plusminus" unicode="&#xb1;" 
d="M822 749h-118v-118q0 -55 -3 -80t-15 -48q-16 -32 -51 -52t-79 -20t-79 20t-51 52q-12 23 -15 48t-3 80v118h-118q-55 0 -80 3.5t-48 14.5q-32 16 -52 51t-20 79t20 79t52 51q23 11 48 14.5t80 3.5h118v118q0 55 3 80t15 48q16 32 51 52t79 20t79 -20t51 -52
q12 -23 15 -48t3 -80v-118h118q55 0 80 -3.5t48 -14.5q32 -16 52 -51t20 -79t-20 -79t-52 -51q-23 -11 -48 -14.5t-80 -3.5zM822 -1h-532q-55 0 -80 3.5t-48 14.5q-32 16 -52 51t-20 79t20 79t52 51q23 11 48 14.5t80 3.5h532q55 0 80 -3.5t48 -14.5q32 -16 52 -51t20 -79
t-20 -79t-52 -51q-23 -11 -48 -14.5t-80 -3.5z" />
    <glyph glyph-name="twosuperior" unicode="&#xb2;" horiz-adv-x="680" 
d="M491 570h-299q-78 0 -108 31q-31 33 -31 85q0 54 53 111l244 267q54 59 54 106q0 24 -16.5 39t-44.5 15q-25 0 -40 -12t-29 -39q-17 -35 -44 -53q-24 -15 -60 -15q-62 0 -91 45q-18 29 -18 66q0 41 24.5 83.5t61.5 70.5q82 62 196 62q138 0 215.5 -67t77.5 -195
q0 -70 -35.5 -129t-124.5 -148l-115 -115h130q61 0 89 -14q26 -13 44.5 -37t18.5 -53t-18.5 -53t-44.5 -37q-28 -14 -89 -14z" />
    <glyph glyph-name="threesuperior" unicode="&#xb3;" horiz-adv-x="680" 
d="M632 1172q0 -44 -14.5 -78.5t-28.5 -49t-37 -32.5q26 -25 40 -40t31 -54.5t17 -85.5q0 -132 -85.5 -201t-210.5 -69q-130 0 -213 74q-70 61 -70 149q0 46 24 74q36 41 88 41q39 0 69 -22q19 -15 32 -52q11 -30 26.5 -43t43.5 -13q64 0 64 70q0 27 -19.5 47.5t-43.5 21.5
q-46 2 -69 25q-26 26 -26 71q0 49 26 75t69 26q26 0 41.5 19.5t15.5 38.5q0 28 -16.5 44t-39.5 16t-36.5 -11.5t-22.5 -37.5q-12 -33 -34 -52q-29 -22 -67 -22q-47 0 -79 33t-32 81q0 88 71 147q81 70 200 70q123 0 204.5 -74t81.5 -186z" />
    <glyph glyph-name="acute" unicode="&#xb4;" horiz-adv-x="1000" 
d="M799 1408l-75 -120q-43 -68 -67 -85q-32 -22 -69 -22q-39 0 -76 23q-73 45 -66 118q3 39 48 110l75 120q43 68 67 85q32 22 69 22q39 0 76 -23q73 -45 66 -118q-3 -39 -48 -110z" />
    <glyph glyph-name="mu" unicode="&#xb5;" horiz-adv-x="1168" 
d="M452 -11v-123q0 -62 -3.5 -89t-16.5 -53q-18 -36 -56.5 -58t-87.5 -22t-87.5 22t-56.5 58q-13 26 -16.5 53t-3.5 89v996q0 62 3.5 89t16.5 53q18 36 56.5 58t87.5 22t87.5 -22t56.5 -58q13 -26 16.5 -53t3.5 -89v-430q0 -44 14 -75t36 -46t42 -21t40 -6t40 6t42 21t36 46
t14 75v430q0 62 3.5 89t16.5 53q18 36 56.5 58t87.5 22t87.5 -22t56.5 -58q13 -26 16.5 -53t3.5 -89v-648q0 -62 -3.5 -89t-16.5 -53q-18 -36 -56.5 -58t-87.5 -22q-104 0 -154 96q-48 -48 -116.5 -74t-135.5 -26q-15 0 -22 1z" />
    <glyph glyph-name="paragraph" unicode="&#xb6;" horiz-adv-x="1414" 
d="M942 -134v1246h-180v-1246q0 -62 -3.5 -89t-16.5 -53q-18 -36 -56.5 -58t-87.5 -22t-87.5 22t-56.5 58q-13 26 -16.5 53t-3.5 89v730q-67 0 -133.5 31.5t-120 84.5t-87 131t-33.5 163q0 141 64 236.5t170 138.5t248 43h528q33 0 52.5 -1.5t50 -12.5t51.5 -32t32 -51.5
t12.5 -50t1.5 -52.5v-1358q0 -62 -3.5 -89t-16.5 -53q-18 -36 -56.5 -58t-87.5 -22t-87.5 22t-56.5 58q-13 26 -16.5 53t-3.5 89z" />
    <glyph glyph-name="periodcentered" unicode="&#xb7;" horiz-adv-x="678" 
d="M339 380q-87 0 -148.5 61.5t-61.5 148.5t61.5 148.5t148.5 61.5t148.5 -61.5t61.5 -148.5t-61.5 -148.5t-148.5 -61.5z" />
    <glyph glyph-name="cedilla" unicode="&#xb8;" horiz-adv-x="1100" 
d="M626 -328l-75 -120q-43 -68 -67 -85q-32 -22 -69 -22q-39 0 -76 23q-73 45 -66 118q3 39 48 110l75 120q43 68 67 85q32 22 69 22q39 0 76 -23q73 -45 66 -118q-3 -39 -48 -110z" />
    <glyph glyph-name="onesuperior" unicode="&#xb9;" horiz-adv-x="680" 
d="M284 723v341l-15 -15q-48 -48 -79 -59q-60 -21 -111 30t-30 111q11 31 59 79l164 164q58 58 123 58q55 0 90 -33q24 -22 30.5 -49.5t6.5 -67.5v-559q0 -71 -15 -102q-29 -59 -104 -59t-104 59q-15 31 -15 102z" />
    <glyph glyph-name="ordmasculine" unicode="&#xba;" horiz-adv-x="926" 
d="M825 997q0 -130 -24 -204t-80 -130q-99 -99 -258 -99t-258 99q-56 56 -80 130t-24 204t24 204t79 129q100 100 259 100t259 -100q55 -55 79 -129t24 -204zM588 997q0 74 -7.5 118t-32.5 69q-33 33 -85 33t-85 -33q-25 -25 -32 -68.5t-7 -118.5t7 -118.5t32 -68.5
q33 -33 85 -33t85 33q25 25 32.5 69t7.5 118z" />
    <glyph glyph-name="guillemotright" unicode="&#xbb;" horiz-adv-x="1369" 
d="M691 560l-297 -297q-40 -40 -60.5 -55.5t-46.5 -24.5q-35 -12 -75 -0.5t-72 43.5t-43.5 72t0.5 75q9 26 25 47t55 60l80 80l-80 80q-39 39 -55 60t-25 47q-12 35 -0.5 75t43.5 72t72 43.5t75 -0.5q26 -9 46.5 -24.5t60.5 -55.5zM1309 560l-297 -297q-40 -40 -60.5 -55.5
t-46.5 -24.5q-35 -12 -75 -0.5t-72 43.5t-43.5 72t0.5 75q9 26 25 47t55 60l80 80l-80 80q-39 39 -55 60t-25 47q-12 35 -0.5 75t43.5 72t72 43.5t75 -0.5q26 -9 46.5 -24.5t60.5 -55.5z" />
    <glyph glyph-name="onequarter" unicode="&#xbc;" horiz-adv-x="1716" 
d="M284 723v341l-15 -15q-48 -48 -79 -59q-60 -21 -111 30t-30 111q11 31 59 79l164 164q58 58 123 58q55 0 90 -33q24 -22 30.5 -49.5t6.5 -67.5v-559q0 -71 -15 -102q-29 -59 -104 -59t-104 59q-15 31 -15 102zM471 196l570 1134q30 61 57 81q28 21 60 21q25 0 55 -14
q63 -32 63 -96q0 -32 -31 -94l-570 -1134q-30 -61 -57 -81q-28 -21 -60 -21q-25 0 -55 14q-63 32 -63 96q0 32 31 94zM1079 297l236 469q21 43 47.5 69.5t66.5 26.5q43 0 78 -30.5t35 -73.5q0 -35 -28 -91l-175 -349h65q4 39 32.5 64.5t71.5 25.5t71.5 -25.5t32.5 -64.5
q39 -4 64 -32.5t25 -71.5t-25 -71.5t-64 -32.5q-1 -41 -14 -67q-26 -50 -90 -50t-90 50q-13 23 -14 67h-209q-66 0 -93 15q-52 30 -52 86q0 28 29 86z" />
    <glyph glyph-name="onehalf" unicode="&#xbd;" horiz-adv-x="1716" 
d="M284 723v341l-15 -15q-48 -48 -79 -59q-60 -21 -111 30t-30 111q11 31 59 79l164 164q58 58 123 58q55 0 90 -33q24 -22 30.5 -49.5t6.5 -67.5v-559q0 -71 -15 -102q-29 -59 -104 -59t-104 59q-15 31 -15 102zM471 196l570 1134q30 61 57 81q28 21 60 21q25 0 55 -14
q63 -32 63 -96q0 -32 -31 -94l-570 -1134q-30 -61 -57 -81q-28 -21 -60 -21q-25 0 -55 14q-63 32 -63 96q0 32 31 94zM1527 0h-299q-78 0 -108 31q-31 33 -31 85q0 54 53 111l244 267q54 59 54 106q0 24 -16.5 39t-44.5 15q-25 0 -40 -12t-29 -39q-17 -35 -44 -53
q-24 -15 -60 -15q-62 0 -91 45q-18 29 -18 66q0 41 24.5 83.5t61.5 70.5q82 62 196 62q138 0 215.5 -67t77.5 -195q0 -70 -35.5 -129t-124.5 -148l-115 -115h130q61 0 89 -14q26 -13 44.5 -37t18.5 -53t-18.5 -53t-44.5 -37q-28 -14 -89 -14z" />
    <glyph glyph-name="threequarters" unicode="&#xbe;" horiz-adv-x="1716" 
d="M632 1172q0 -44 -14.5 -78.5t-28.5 -49t-37 -32.5q26 -25 40 -40t31 -54.5t17 -85.5q0 -132 -85.5 -201t-210.5 -69q-130 0 -213 74q-70 61 -70 149q0 46 24 74q36 41 88 41q39 0 69 -22q19 -15 32 -52q11 -30 26.5 -43t43.5 -13q64 0 64 70q0 27 -19.5 47.5t-43.5 21.5
q-46 2 -69 25q-26 26 -26 71q0 49 26 75t69 26q26 0 41.5 19.5t15.5 38.5q0 28 -16.5 44t-39.5 16t-36.5 -11.5t-22.5 -37.5q-12 -33 -34 -52q-29 -22 -67 -22q-47 0 -79 33t-32 81q0 88 71 147q81 70 200 70q123 0 204.5 -74t81.5 -186zM471 196l570 1134q30 61 57 81
q28 21 60 21q25 0 55 -14q63 -32 63 -96q0 -32 -31 -94l-570 -1134q-30 -61 -57 -81q-28 -21 -60 -21q-25 0 -55 14q-63 32 -63 96q0 32 31 94zM1079 297l236 469q21 43 47.5 69.5t66.5 26.5q43 0 78 -30.5t35 -73.5q0 -35 -28 -91l-175 -349h65q4 39 32.5 64.5t71.5 25.5
t71.5 -25.5t32.5 -64.5q39 -4 64 -32.5t25 -71.5t-25 -71.5t-64 -32.5q-1 -41 -14 -67q-26 -50 -90 -50t-90 50q-13 23 -14 67h-209q-66 0 -93 15q-52 30 -52 86q0 28 29 86z" />
    <glyph glyph-name="questiondown" unicode="&#xbf;" horiz-adv-x="1076" 
d="M60 46q0 83 25.5 141.5t76.5 117.5l99 117q42 49 64 100q24 56 54 86q45 45 121 45q73 0 121 -48q39 -39 39 -106q0 -80 -78 -171l-140 -162q-54 -64 -54 -120q0 -48 30.5 -79t85.5 -31q63 0 98 39q21 24 39 68q18 45 46 73q38 38 111 38q66 0 109 -43q40 -40 40 -115
q0 -51 -30 -118t-92 -123q-126 -112 -317 -115q-124 -2 -224.5 44t-162 140t-61.5 222zM500 1082q78 0 134 -56t56 -134t-56 -134t-134 -56t-134 56t-56 134t56 134t134 56z" />
    <glyph glyph-name="Agrave" unicode="&#xc0;" horiz-adv-x="1294" 
d="M70 268l380 1009q32 84 73 116q49 39 124 39t124 -39q41 -32 73 -116l380 -1009q20 -54 27.5 -84.5t0 -69t-39.5 -70.5q-52 -52 -126 -52q-60 0 -99 36q-22 20 -35.5 45t-33.5 81l-21 58h-500l-21 -58q-20 -56 -33.5 -81t-35.5 -45q-39 -36 -99 -36q-74 0 -126 52
q-32 32 -39.5 70.5t0 69t27.5 84.5zM791 504l-144 396l-144 -396h288zM473 1634l-75 120q-45 71 -48 110q-7 73 66 118q37 23 76 23q37 0 69 -22q24 -17 67 -85l75 -120q45 -71 48 -110q7 -73 -66 -118q-37 -23 -76 -23q-37 0 -69 22q-24 17 -67 85z" />
    <glyph glyph-name="Aacute" unicode="&#xc1;" horiz-adv-x="1294" 
d="M70 268l380 1009q32 84 73 116q49 39 124 39t124 -39q41 -32 73 -116l380 -1009q20 -54 27.5 -84.5t0 -69t-39.5 -70.5q-52 -52 -126 -52q-60 0 -99 36q-22 20 -35.5 45t-33.5 81l-21 58h-500l-21 -58q-20 -56 -33.5 -81t-35.5 -45q-39 -36 -99 -36q-74 0 -126 52
q-32 32 -39.5 70.5t0 69t27.5 84.5zM791 504l-144 396l-144 -396h288zM896 1754l-75 -120q-43 -68 -67 -85q-32 -22 -69 -22q-39 0 -76 23q-73 45 -66 118q3 39 48 110l75 120q43 68 67 85q32 22 69 22q39 0 76 -23q73 -45 66 -118q-3 -39 -48 -110z" />
    <glyph glyph-name="Acircumflex" unicode="&#xc2;" horiz-adv-x="1294" 
d="M70 268l380 1009q32 84 73 116q49 39 124 39t124 -39q41 -32 73 -116l380 -1009q20 -54 27.5 -84.5t0 -69t-39.5 -70.5q-52 -52 -126 -52q-60 0 -99 36q-22 20 -35.5 45t-33.5 81l-21 58h-500l-21 -58q-20 -56 -33.5 -81t-35.5 -45q-39 -36 -99 -36q-74 0 -126 52
q-32 32 -39.5 70.5t0 69t27.5 84.5zM791 504l-144 396l-144 -396h288zM749 1589l-102 102l-102 -102q-52 -52 -88 -65q-66 -22 -122 34q-57 57 -34 123q12 34 65 87l139 139q23 23 38.5 36t44.5 26.5t59 13.5t59 -13.5t44.5 -26.5t38.5 -36l139 -139q53 -53 65 -87
q23 -66 -34 -123q-56 -56 -122 -34q-36 13 -88 65z" />
    <glyph glyph-name="Atilde" unicode="&#xc3;" horiz-adv-x="1294" 
d="M70 268l380 1009q32 84 73 116q49 39 124 39t124 -39q41 -32 73 -116l380 -1009q20 -54 27.5 -84.5t0 -69t-39.5 -70.5q-52 -52 -126 -52q-60 0 -99 36q-22 20 -35.5 45t-33.5 81l-21 58h-500l-21 -58q-20 -56 -33.5 -81t-35.5 -45q-39 -36 -99 -36q-74 0 -126 52
q-32 32 -39.5 70.5t0 69t27.5 84.5zM791 504l-144 396l-144 -396h288zM1045 1740q0 -57 -65 -111q-43 -34 -87.5 -48t-106.5 -14q-47 0 -81.5 8.5t-82.5 34.5q-56 31 -105 31q-45 0 -87 -29q-38 -27 -73 -27q-52 0 -84 40q-24 29 -24 77q0 57 65 111q43 34 87.5 48t106.5 14
q47 0 81.5 -8.5t82.5 -34.5q56 -31 105 -31q45 0 87 29q38 27 73 27q52 0 84 -40q24 -29 24 -77z" />
    <glyph glyph-name="Adieresis" unicode="&#xc4;" horiz-adv-x="1294" 
d="M70 268l380 1009q32 84 73 116q49 39 124 39t124 -39q41 -32 73 -116l380 -1009q20 -54 27.5 -84.5t0 -69t-39.5 -70.5q-52 -52 -126 -52q-60 0 -99 36q-22 20 -35.5 45t-33.5 81l-21 58h-500l-21 -58q-20 -56 -33.5 -81t-35.5 -45q-39 -36 -99 -36q-74 0 -126 52
q-32 32 -39.5 70.5t0 69t27.5 84.5zM791 504l-144 396l-144 -396h288zM413 1547q-66 0 -113 47t-47 113t47 113t113 47t113 -47t47 -113t-47 -113t-113 -47zM881 1547q-66 0 -113 47t-47 113t47 113t113 47t113 -47t47 -113t-47 -113t-113 -47z" />
    <glyph glyph-name="Aring" unicode="&#xc5;" horiz-adv-x="1294" 
d="M70 268l380 1009q32 84 73 116q49 39 124 39t124 -39q41 -32 73 -116l380 -1009q20 -54 27.5 -84.5t0 -69t-39.5 -70.5q-52 -52 -126 -52q-60 0 -99 36q-22 20 -35.5 45t-33.5 81l-21 58h-500l-21 -58q-20 -56 -33.5 -81t-35.5 -45q-39 -36 -99 -36q-74 0 -126 52
q-32 32 -39.5 70.5t0 69t27.5 84.5zM791 504l-144 396l-144 -396h288zM751 1786q0 43 -30.5 73.5t-73.5 30.5t-73.5 -30.5t-30.5 -73.5t30.5 -73.5t73.5 -30.5t73.5 30.5t30.5 73.5zM647 1510q-114 0 -195 81t-81 195t81 195t195 81t195 -81t81 -195t-81 -195t-195 -81z" />
    <glyph glyph-name="AE" unicode="&#xc6;" horiz-adv-x="1952" 
d="M84 283l463 928q61 120 117 165q61 48 144 48h844q57 0 83 -3.5t51 -15.5q34 -16 55 -53.5t21 -83.5t-21 -83.5t-55 -53.5q-25 -12 -51 -15.5t-83 -3.5h-418v-238h328q57 0 83 -3.5t51 -15.5q34 -16 55 -53.5t21 -83.5t-21 -83.5t-55 -53.5q-25 -12 -51 -15.5t-83 -3.5
h-328v-250h418q57 0 83 -3.5t51 -15.5q34 -16 55 -53.5t21 -83.5t-21 -83.5t-55 -53.5q-25 -12 -51 -15.5t-83 -3.5h-555q-36 0 -57 1.5t-53.5 13t-55.5 34.5t-34.5 55.5t-13 53.5t-1.5 57v83h-426l-80 -161q-28 -57 -42.5 -79t-37.5 -39q-37 -27 -83 -27q-43 0 -82 20
q-44 22 -68.5 58.5t-24.5 77.5q0 29 9 54t37 81zM602 590h280v561z" />
    <glyph glyph-name="Ccedilla" unicode="&#xc7;" horiz-adv-x="1209" 
d="M96 712q0 91 1.5 139.5t9 120t22 117t43.5 97.5t71 94q156 156 393 156q131 0 212 -24.5t147 -83.5q73 -66 104 -136.5t31 -127.5q0 -84 -49 -133t-121 -49q-56 0 -94 27q-44 30 -93 117q-30 53 -63.5 75.5t-81.5 22.5q-79 0 -126 -62q-32 -42 -43 -110.5t-11 -239.5
t11 -239.5t43 -110.5q47 -62 126 -62q48 0 81.5 22.5t63.5 75.5q49 87 93 117q38 27 94 27q72 0 121 -49t49 -133q0 -57 -31 -127.5t-104 -136.5q-66 -59 -147 -83.5t-212 -24.5q-237 0 -393 156q-42 42 -71 94t-43.5 97.5t-22 117t-9 120t-1.5 139.5zM746 -328l-75 -120
q-43 -68 -67 -85q-32 -22 -69 -22q-39 0 -76 23q-73 45 -66 118q3 39 48 110l75 120q43 68 67 85q32 22 69 22q39 0 76 -23q73 -45 66 -118q-3 -39 -48 -110z" />
    <glyph glyph-name="Egrave" unicode="&#xc8;" horiz-adv-x="1212" 
d="M912 0h-555q-36 0 -57 1.5t-53.5 13t-55.5 34.5t-34.5 55.5t-13 53.5t-1.5 57v994q0 36 1.5 57t13 53.5t34.5 55.5t55.5 34.5t53.5 13t57 1.5h555q57 0 83 -3.5t51 -15.5q34 -16 55 -53.5t21 -83.5t-21 -83.5t-55 -53.5q-25 -12 -51 -15.5t-83 -3.5h-418v-238h328
q57 0 83 -3.5t51 -15.5q34 -16 55 -53.5t21 -83.5t-21 -83.5t-55 -53.5q-25 -12 -51 -15.5t-83 -3.5h-328v-250h418q57 0 83 -3.5t51 -15.5q34 -16 55 -53.5t21 -83.5t-21 -83.5t-55 -53.5q-25 -12 -51 -15.5t-83 -3.5zM456 1634l-75 120q-45 71 -48 110q-7 73 66 118
q37 23 76 23q37 0 69 -22q24 -17 67 -85l75 -120q45 -71 48 -110q7 -73 -66 -118q-37 -23 -76 -23q-37 0 -69 22q-24 17 -67 85z" />
    <glyph glyph-name="Eacute" unicode="&#xc9;" horiz-adv-x="1212" 
d="M912 0h-555q-36 0 -57 1.5t-53.5 13t-55.5 34.5t-34.5 55.5t-13 53.5t-1.5 57v994q0 36 1.5 57t13 53.5t34.5 55.5t55.5 34.5t53.5 13t57 1.5h555q57 0 83 -3.5t51 -15.5q34 -16 55 -53.5t21 -83.5t-21 -83.5t-55 -53.5q-25 -12 -51 -15.5t-83 -3.5h-418v-238h328
q57 0 83 -3.5t51 -15.5q34 -16 55 -53.5t21 -83.5t-21 -83.5t-55 -53.5q-25 -12 -51 -15.5t-83 -3.5h-328v-250h418q57 0 83 -3.5t51 -15.5q34 -16 55 -53.5t21 -83.5t-21 -83.5t-55 -53.5q-25 -12 -51 -15.5t-83 -3.5zM879 1754l-75 -120q-43 -68 -67 -85q-32 -22 -69 -22
q-39 0 -76 23q-73 45 -66 118q3 39 48 110l75 120q43 68 67 85q32 22 69 22q39 0 76 -23q73 -45 66 -118q-3 -39 -48 -110z" />
    <glyph glyph-name="Ecircumflex" unicode="&#xca;" horiz-adv-x="1212" 
d="M912 0h-555q-36 0 -57 1.5t-53.5 13t-55.5 34.5t-34.5 55.5t-13 53.5t-1.5 57v994q0 36 1.5 57t13 53.5t34.5 55.5t55.5 34.5t53.5 13t57 1.5h555q57 0 83 -3.5t51 -15.5q34 -16 55 -53.5t21 -83.5t-21 -83.5t-55 -53.5q-25 -12 -51 -15.5t-83 -3.5h-418v-238h328
q57 0 83 -3.5t51 -15.5q34 -16 55 -53.5t21 -83.5t-21 -83.5t-55 -53.5q-25 -12 -51 -15.5t-83 -3.5h-328v-250h418q57 0 83 -3.5t51 -15.5q34 -16 55 -53.5t21 -83.5t-21 -83.5t-55 -53.5q-25 -12 -51 -15.5t-83 -3.5zM732 1589l-102 102l-102 -102q-52 -52 -88 -65
q-66 -22 -122 34q-57 57 -34 123q12 34 65 87l139 139q23 23 38.5 36t44.5 26.5t59 13.5t59 -13.5t44.5 -26.5t38.5 -36l139 -139q53 -53 65 -87q23 -66 -34 -123q-56 -56 -122 -34q-36 13 -88 65z" />
    <glyph glyph-name="Edieresis" unicode="&#xcb;" horiz-adv-x="1212" 
d="M912 0h-555q-36 0 -57 1.5t-53.5 13t-55.5 34.5t-34.5 55.5t-13 53.5t-1.5 57v994q0 36 1.5 57t13 53.5t34.5 55.5t55.5 34.5t53.5 13t57 1.5h555q57 0 83 -3.5t51 -15.5q34 -16 55 -53.5t21 -83.5t-21 -83.5t-55 -53.5q-25 -12 -51 -15.5t-83 -3.5h-418v-238h328
q57 0 83 -3.5t51 -15.5q34 -16 55 -53.5t21 -83.5t-21 -83.5t-55 -53.5q-25 -12 -51 -15.5t-83 -3.5h-328v-250h418q57 0 83 -3.5t51 -15.5q34 -16 55 -53.5t21 -83.5t-21 -83.5t-55 -53.5q-25 -12 -51 -15.5t-83 -3.5zM396 1547q-66 0 -113 47t-47 113t47 113t113 47
t113 -47t47 -113t-47 -113t-113 -47zM864 1547q-66 0 -113 47t-47 113t47 113t113 47t113 -47t47 -113t-47 -113t-113 -47z" />
    <glyph glyph-name="Igrave" unicode="&#xcc;" horiz-adv-x="636" 
d="M142 228v968q0 65 3.5 92.5t18.5 57.5q19 38 60.5 62t93.5 24t93.5 -24t60.5 -62q15 -30 18.5 -57.5t3.5 -92.5v-968q0 -65 -3.5 -92.5t-18.5 -57.5q-19 -38 -60.5 -62t-93.5 -24t-93.5 24t-60.5 62q-15 30 -18.5 57.5t-3.5 92.5zM144 1634l-75 120q-45 71 -48 110
q-7 73 66 118q37 23 76 23q37 0 69 -22q24 -17 67 -85l75 -120q45 -71 48 -110q7 -73 -66 -118q-37 -23 -76 -23q-37 0 -69 22q-24 17 -67 85z" />
    <glyph glyph-name="Iacute" unicode="&#xcd;" horiz-adv-x="636" 
d="M142 228v968q0 65 3.5 92.5t18.5 57.5q19 38 60.5 62t93.5 24t93.5 -24t60.5 -62q15 -30 18.5 -57.5t3.5 -92.5v-968q0 -65 -3.5 -92.5t-18.5 -57.5q-19 -38 -60.5 -62t-93.5 -24t-93.5 24t-60.5 62q-15 30 -18.5 57.5t-3.5 92.5zM567 1754l-75 -120q-43 -68 -67 -85
q-32 -22 -69 -22q-39 0 -76 23q-73 45 -66 118q3 39 48 110l75 120q43 68 67 85q32 22 69 22q39 0 76 -23q73 -45 66 -118q-3 -39 -48 -110z" />
    <glyph glyph-name="Icircumflex" unicode="&#xce;" horiz-adv-x="636" 
d="M142 228v968q0 65 3.5 92.5t18.5 57.5q19 38 60.5 62t93.5 24t93.5 -24t60.5 -62q15 -30 18.5 -57.5t3.5 -92.5v-968q0 -65 -3.5 -92.5t-18.5 -57.5q-19 -38 -60.5 -62t-93.5 -24t-93.5 24t-60.5 62q-15 30 -18.5 57.5t-3.5 92.5zM420 1589l-102 102l-102 -102
q-52 -52 -88 -65q-66 -22 -122 34q-57 57 -34 123q12 34 65 87l139 139q23 23 38.5 36t44.5 26.5t59 13.5t59 -13.5t44.5 -26.5t38.5 -36l139 -139q53 -53 65 -87q23 -66 -34 -123q-56 -56 -122 -34q-36 13 -88 65z" />
    <glyph glyph-name="Idieresis" unicode="&#xcf;" horiz-adv-x="636" 
d="M99 1547q-66 0 -113 47t-47 113t47 113t113 47t113 -47t47 -113t-47 -113t-113 -47zM537 1547q-66 0 -113 47t-47 113t47 113t113 47t113 -47t47 -113t-47 -113t-113 -47zM142 228v968q0 65 3.5 92.5t18.5 57.5q19 38 60.5 62t93.5 24t93.5 -24t60.5 -62
q15 -30 18.5 -57.5t3.5 -92.5v-968q0 -65 -3.5 -92.5t-18.5 -57.5q-19 -38 -60.5 -62t-93.5 -24t-93.5 24t-60.5 62q-15 30 -18.5 57.5t-3.5 92.5z" />
    <glyph glyph-name="Eth" unicode="&#xd0;" horiz-adv-x="1364" 
d="M734 0h-315q-36 0 -57 1.5t-53.5 13t-55.5 34.5t-34.5 55.5t-13 53.5t-1.5 57v367h-2q-50 0 -73.5 3t-45.5 15q-30 15 -47.5 46.5t-17.5 71.5t17.5 71.5t47.5 46.5q22 12 45.5 15t73.5 3h2v355q0 36 1.5 57t13 53.5t34.5 55.5t55.5 34.5t53.5 13t57 1.5h315
q313 0 462 -240q48 -79 59 -169.5t11 -302.5t-11 -302.5t-59 -169.5q-149 -240 -462 -240zM556 312h154q115 0 168 80q23 32 30.5 90t7.5 230q0 171 -8 229.5t-30 90.5q-53 80 -168 80h-154v-258h30q50 0 73.5 -3t45.5 -15q30 -15 47.5 -46.5t17.5 -71.5t-17.5 -71.5
t-47.5 -46.5q-22 -12 -45.5 -15t-73.5 -3h-30v-270z" />
    <glyph glyph-name="Ntilde" unicode="&#xd1;" horiz-adv-x="1400" 
d="M1258 208q0 -58 -9 -96t-37 -66q-54 -54 -132 -54q-57 0 -101 37t-106 129l-379 558v-488q0 -65 -3.5 -92.5t-18.5 -57.5q-19 -38 -60.5 -62t-93.5 -24t-93.5 24t-60.5 62q-15 30 -18.5 57.5t-3.5 92.5v988q0 58 9 96t37 66q54 54 132 54q57 0 101 -37t106 -129l379 -558
v488q0 65 3.5 92.5t18.5 57.5q19 38 60.5 62t93.5 24t93.5 -24t60.5 -62q15 -30 18.5 -57.5t3.5 -92.5v-988zM1098 1740q0 -57 -65 -111q-43 -34 -87.5 -48t-106.5 -14q-47 0 -81.5 8.5t-82.5 34.5q-56 31 -105 31q-45 0 -87 -29q-38 -27 -73 -27q-52 0 -84 40
q-24 29 -24 77q0 57 65 111q43 34 87.5 48t106.5 14q47 0 81.5 -8.5t82.5 -34.5q56 -31 105 -31q45 0 87 29q38 27 73 27q52 0 84 -40q24 -29 24 -77z" />
    <glyph glyph-name="Ograve" unicode="&#xd2;" horiz-adv-x="1280" 
d="M1037 144q-79 -79 -174.5 -117.5t-222.5 -38.5t-222.5 38.5t-174.5 117.5q-42 42 -71 94t-43.5 97.5t-22 117t-9 120t-1.5 139.5t1.5 139.5t9 120t22 117t43.5 97.5t71 94q79 79 174.5 117.5t222.5 38.5t222.5 -38.5t174.5 -117.5q42 -42 71 -94t43.5 -97.5t22 -117
t9 -120t1.5 -139.5t-1.5 -139.5t-9 -120t-22 -117t-43.5 -97.5t-71 -94zM780 364q28 37 40 103t12 245t-12 246.5t-40 103.5q-21 27 -57.5 44.5t-82.5 17.5t-82.5 -17.5t-57.5 -44.5q-28 -36 -40 -103.5t-12 -246.5t12 -245t40 -103q49 -64 140 -64t140 64zM466 1634
l-75 120q-45 71 -48 110q-7 73 66 118q37 23 76 23q37 0 69 -22q24 -17 67 -85l75 -120q45 -71 48 -110q7 -73 -66 -118q-37 -23 -76 -23q-37 0 -69 22q-24 17 -67 85z" />
    <glyph glyph-name="Oacute" unicode="&#xd3;" horiz-adv-x="1280" 
d="M1037 144q-79 -79 -174.5 -117.5t-222.5 -38.5t-222.5 38.5t-174.5 117.5q-42 42 -71 94t-43.5 97.5t-22 117t-9 120t-1.5 139.5t1.5 139.5t9 120t22 117t43.5 97.5t71 94q79 79 174.5 117.5t222.5 38.5t222.5 -38.5t174.5 -117.5q42 -42 71 -94t43.5 -97.5t22 -117
t9 -120t1.5 -139.5t-1.5 -139.5t-9 -120t-22 -117t-43.5 -97.5t-71 -94zM780 364q28 37 40 103t12 245t-12 246.5t-40 103.5q-21 27 -57.5 44.5t-82.5 17.5t-82.5 -17.5t-57.5 -44.5q-28 -36 -40 -103.5t-12 -246.5t12 -245t40 -103q49 -64 140 -64t140 64zM889 1754
l-75 -120q-43 -68 -67 -85q-32 -22 -69 -22q-39 0 -76 23q-73 45 -66 118q3 39 48 110l75 120q43 68 67 85q32 22 69 22q39 0 76 -23q73 -45 66 -118q-3 -39 -48 -110z" />
    <glyph glyph-name="Ocircumflex" unicode="&#xd4;" horiz-adv-x="1280" 
d="M1037 144q-79 -79 -174.5 -117.5t-222.5 -38.5t-222.5 38.5t-174.5 117.5q-42 42 -71 94t-43.5 97.5t-22 117t-9 120t-1.5 139.5t1.5 139.5t9 120t22 117t43.5 97.5t71 94q79 79 174.5 117.5t222.5 38.5t222.5 -38.5t174.5 -117.5q42 -42 71 -94t43.5 -97.5t22 -117
t9 -120t1.5 -139.5t-1.5 -139.5t-9 -120t-22 -117t-43.5 -97.5t-71 -94zM780 364q28 37 40 103t12 245t-12 246.5t-40 103.5q-21 27 -57.5 44.5t-82.5 17.5t-82.5 -17.5t-57.5 -44.5q-28 -36 -40 -103.5t-12 -246.5t12 -245t40 -103q49 -64 140 -64t140 64zM742 1589
l-102 102l-102 -102q-52 -52 -88 -65q-66 -22 -122 34q-57 57 -34 123q12 34 65 87l139 139q23 23 38.5 36t44.5 26.5t59 13.5t59 -13.5t44.5 -26.5t38.5 -36l139 -139q53 -53 65 -87q23 -66 -34 -123q-56 -56 -122 -34q-36 13 -88 65z" />
    <glyph glyph-name="Otilde" unicode="&#xd5;" horiz-adv-x="1280" 
d="M1037 144q-79 -79 -174.5 -117.5t-222.5 -38.5t-222.5 38.5t-174.5 117.5q-42 42 -71 94t-43.5 97.5t-22 117t-9 120t-1.5 139.5t1.5 139.5t9 120t22 117t43.5 97.5t71 94q79 79 174.5 117.5t222.5 38.5t222.5 -38.5t174.5 -117.5q42 -42 71 -94t43.5 -97.5t22 -117
t9 -120t1.5 -139.5t-1.5 -139.5t-9 -120t-22 -117t-43.5 -97.5t-71 -94zM780 364q28 37 40 103t12 245t-12 246.5t-40 103.5q-21 27 -57.5 44.5t-82.5 17.5t-82.5 -17.5t-57.5 -44.5q-28 -36 -40 -103.5t-12 -246.5t12 -245t40 -103q49 -64 140 -64t140 64zM1038 1740
q0 -57 -65 -111q-43 -34 -87.5 -48t-106.5 -14q-47 0 -81.5 8.5t-82.5 34.5q-56 31 -105 31q-45 0 -87 -29q-38 -27 -73 -27q-52 0 -84 40q-24 29 -24 77q0 57 65 111q43 34 87.5 48t106.5 14q47 0 81.5 -8.5t82.5 -34.5q56 -31 105 -31q45 0 87 29q38 27 73 27q52 0 84 -40
q24 -29 24 -77z" />
    <glyph glyph-name="Odieresis" unicode="&#xd6;" horiz-adv-x="1280" 
d="M1037 144q-79 -79 -174.5 -117.5t-222.5 -38.5t-222.5 38.5t-174.5 117.5q-42 42 -71 94t-43.5 97.5t-22 117t-9 120t-1.5 139.5t1.5 139.5t9 120t22 117t43.5 97.5t71 94q79 79 174.5 117.5t222.5 38.5t222.5 -38.5t174.5 -117.5q42 -42 71 -94t43.5 -97.5t22 -117
t9 -120t1.5 -139.5t-1.5 -139.5t-9 -120t-22 -117t-43.5 -97.5t-71 -94zM780 364q28 37 40 103t12 245t-12 246.5t-40 103.5q-21 27 -57.5 44.5t-82.5 17.5t-82.5 -17.5t-57.5 -44.5q-28 -36 -40 -103.5t-12 -246.5t12 -245t40 -103q49 -64 140 -64t140 64zM406 1547
q-66 0 -113 47t-47 113t47 113t113 47t113 -47t47 -113t-47 -113t-113 -47zM874 1547q-66 0 -113 47t-47 113t47 113t113 47t113 -47t47 -113t-47 -113t-113 -47z" />
    <glyph glyph-name="multiply" unicode="&#xd7;" 
d="M978 358q12 -35 0.5 -75t-43.5 -72t-72 -43.5t-75 0.5q-26 9 -46.5 24.5t-60.5 55.5l-125 125l-125 -125q-40 -40 -60.5 -55.5t-46.5 -24.5q-35 -12 -75 -0.5t-72 43.5t-43.5 72t0.5 75q9 26 25 47t55 60l125 125l-125 125q-39 39 -55 60t-25 47q-12 35 -0.5 75t43.5 72
t72 43.5t75 -0.5q26 -9 46.5 -24.5t60.5 -55.5l125 -125l125 125q40 40 60.5 55.5t46.5 24.5q35 12 75 0.5t72 -43.5t43.5 -72t-0.5 -75q-9 -26 -25 -47t-55 -60l-125 -125l125 -125q39 -39 55 -60t25 -47z" />
    <glyph glyph-name="Oslash" unicode="&#xd8;" horiz-adv-x="1280" 
d="M640 -12q-104 0 -191 28l-3 -6q-20 -40 -32.5 -58t-30.5 -32q-55 -42 -126 -6q-34 17 -53 45t-18 60q0 36 34 104l15 30q-33 35 -57.5 73t-39.5 84.5t-24 85.5t-12.5 100t-4.5 101.5t-1 114.5q0 91 1.5 139.5t9 120t22 117t43.5 97.5t71 94q79 79 174.5 117.5t222.5 38.5
q104 0 191 -28l3 6q20 40 32.5 58t30.5 32q55 42 126 6q34 -17 53 -45t18 -60q0 -36 -34 -104l-15 -30q33 -35 57.5 -73t39.5 -84.5t24 -85.5t12.5 -100t4.5 -101.5t1 -114.5q0 -91 -1.5 -139.5t-9 -120t-22 -117t-43.5 -97.5t-71 -94q-79 -79 -174.5 -117.5t-222.5 -38.5z
M453 525l276 578q-40 21 -89 21q-46 0 -82.5 -17.5t-57.5 -44.5q-28 -36 -40 -103.5t-12 -246.5q0 -110 5 -187zM640 300q91 0 140 64q28 37 40 103t12 245q0 118 -6 187l-275 -578q39 -21 89 -21z" />
    <glyph glyph-name="Ugrave" unicode="&#xd9;" horiz-adv-x="1320" 
d="M850 508v688q0 65 3.5 92.5t18.5 57.5q19 38 60.5 62t93.5 24t93.5 -24t60.5 -62q15 -30 18.5 -57.5t3.5 -92.5v-696q0 -152 -74.5 -270t-197.5 -180t-272 -62q-148 0 -270.5 62t-196 180t-73.5 270v696q0 65 3.5 92.5t18.5 57.5q19 38 60.5 62t93.5 24t93.5 -24
t60.5 -62q15 -30 18.5 -57.5t3.5 -92.5v-688q0 -98 50 -153t138 -55t140 55t52 153zM486 1634l-75 120q-45 71 -48 110q-7 73 66 118q37 23 76 23q37 0 69 -22q24 -17 67 -85l75 -120q45 -71 48 -110q7 -73 -66 -118q-37 -23 -76 -23q-37 0 -69 22q-24 17 -67 85z" />
    <glyph glyph-name="Uacute" unicode="&#xda;" horiz-adv-x="1320" 
d="M850 508v688q0 65 3.5 92.5t18.5 57.5q19 38 60.5 62t93.5 24t93.5 -24t60.5 -62q15 -30 18.5 -57.5t3.5 -92.5v-696q0 -152 -74.5 -270t-197.5 -180t-272 -62q-148 0 -270.5 62t-196 180t-73.5 270v696q0 65 3.5 92.5t18.5 57.5q19 38 60.5 62t93.5 24t93.5 -24
t60.5 -62q15 -30 18.5 -57.5t3.5 -92.5v-688q0 -98 50 -153t138 -55t140 55t52 153zM909 1754l-75 -120q-43 -68 -67 -85q-32 -22 -69 -22q-39 0 -76 23q-73 45 -66 118q3 39 48 110l75 120q43 68 67 85q32 22 69 22q39 0 76 -23q73 -45 66 -118q-3 -39 -48 -110z" />
    <glyph glyph-name="Ucircumflex" unicode="&#xdb;" horiz-adv-x="1320" 
d="M850 508v688q0 65 3.5 92.5t18.5 57.5q19 38 60.5 62t93.5 24t93.5 -24t60.5 -62q15 -30 18.5 -57.5t3.5 -92.5v-696q0 -152 -74.5 -270t-197.5 -180t-272 -62q-148 0 -270.5 62t-196 180t-73.5 270v696q0 65 3.5 92.5t18.5 57.5q19 38 60.5 62t93.5 24t93.5 -24
t60.5 -62q15 -30 18.5 -57.5t3.5 -92.5v-688q0 -98 50 -153t138 -55t140 55t52 153zM762 1589l-102 102l-102 -102q-52 -52 -88 -65q-66 -22 -122 34q-57 57 -34 123q12 34 65 87l139 139q23 23 38.5 36t44.5 26.5t59 13.5t59 -13.5t44.5 -26.5t38.5 -36l139 -139
q53 -53 65 -87q23 -66 -34 -123q-56 -56 -122 -34q-36 13 -88 65z" />
    <glyph glyph-name="Udieresis" unicode="&#xdc;" horiz-adv-x="1320" 
d="M850 508v688q0 65 3.5 92.5t18.5 57.5q19 38 60.5 62t93.5 24t93.5 -24t60.5 -62q15 -30 18.5 -57.5t3.5 -92.5v-696q0 -152 -74.5 -270t-197.5 -180t-272 -62q-148 0 -270.5 62t-196 180t-73.5 270v696q0 65 3.5 92.5t18.5 57.5q19 38 60.5 62t93.5 24t93.5 -24
t60.5 -62q15 -30 18.5 -57.5t3.5 -92.5v-688q0 -98 50 -153t138 -55t140 55t52 153zM426 1547q-66 0 -113 47t-47 113t47 113t113 47t113 -47t47 -113t-47 -113t-113 -47zM894 1547q-66 0 -113 47t-47 113t47 113t113 47t113 -47t47 -113t-47 -113t-113 -47z" />
    <glyph glyph-name="Yacute" unicode="&#xdd;" horiz-adv-x="1114" 
d="M381 228v319l-297 594q-28 56 -37 81t-9 54q0 41 24.5 77.5t68.5 58.5q39 20 82 20q46 0 83 -27q23 -17 37.5 -39t42.5 -79l181 -367l181 367q28 57 42.5 79t37.5 39q37 27 83 27q43 0 82 -20q44 -22 68.5 -58.5t24.5 -77.5q0 -29 -9 -54t-37 -81l-297 -594v-319
q0 -65 -3.5 -92.5t-18.5 -57.5q-19 -38 -60.5 -62t-93.5 -24t-93.5 24t-60.5 62q-15 30 -18.5 57.5t-3.5 92.5zM806 1754l-75 -120q-43 -68 -67 -85q-32 -22 -69 -22q-39 0 -76 23q-73 45 -66 118q3 39 48 110l75 120q43 68 67 85q32 22 69 22q39 0 76 -23q73 -45 66 -118
q-3 -39 -48 -110z" />
    <glyph glyph-name="Thorn" unicode="&#xde;" horiz-adv-x="1254" 
d="M708 262h-214v-34q0 -65 -3.5 -92.5t-18.5 -57.5q-19 -38 -60.5 -62t-93.5 -24t-93.5 24t-60.5 62q-15 30 -18.5 57.5t-3.5 92.5v968q0 65 3.5 92.5t18.5 57.5q19 38 60.5 62t93.5 24t93.5 -24t60.5 -62q15 -30 18.5 -57.5t3.5 -92.5v-18h214q115 0 209 -38.5t153.5 -103
t91.5 -146t32 -170.5t-32 -170.5t-91.5 -146t-153.5 -103t-209 -38.5zM494 574h198q69 0 110.5 43.5t41.5 102.5t-41.5 102.5t-110.5 43.5h-198v-292z" />
    <glyph glyph-name="germandbls" unicode="&#xdf;" horiz-adv-x="1166" 
d="M746 -4h-6q-102 0 -149 47q-39 39 -39 99q0 64 37 101q32 32 87 35q62 3 62 78v294q0 75 -62 78t-92 33q-32 32 -32 89t32 89q30 30 92 33t62 78q0 41 -25 66q-34 34 -111 34q-85 0 -117.5 -35.5t-32.5 -112.5v-788q0 -62 -3.5 -89t-16.5 -53q-18 -36 -56.5 -58
t-87.5 -22t-87.5 22t-56.5 58q-13 26 -16.5 53t-3.5 89v824q0 107 36.5 185.5t103.5 124t150.5 67t187.5 21.5q214 0 339 -90.5t125 -271.5q0 -150 -122 -218q56 -27 89 -73.5t33 -132.5v-336q0 -140 -86 -226q-92 -92 -234 -92z" />
    <glyph glyph-name="agrave" unicode="&#xe0;" horiz-adv-x="1076" 
d="M962 698v-484q0 -62 -3.5 -89t-16.5 -53q-18 -36 -56.5 -58t-87.5 -22q-104 0 -154 96q-59 -55 -110 -76.5t-132 -21.5q-162 0 -258 96q-94 94 -94 252q0 63 22 117.5t65.5 99t116.5 70t168 25.5h212v28q0 72 -37 103t-115 31q-63 0 -134 -30q-62 -26 -100 -26
q-57 0 -92 44q-36 44 -36 98q0 47 30 80.5t70 51.5q130 58 268 58q233 0 353.5 -97.5t120.5 -292.5zM634 404v28h-156q-56 0 -85 -23.5t-29 -64.5q0 -39 30 -63.5t88 -24.5q42 0 67.5 8t50.5 30q34 31 34 110zM354 1288l-75 120q-45 71 -48 110q-7 73 66 118q37 23 76 23
q37 0 69 -22q24 -17 67 -85l75 -120q45 -71 48 -110q7 -73 -66 -118q-37 -23 -76 -23q-37 0 -69 22q-24 17 -67 85z" />
    <glyph glyph-name="aacute" unicode="&#xe1;" horiz-adv-x="1076" 
d="M962 698v-484q0 -62 -3.5 -89t-16.5 -53q-18 -36 -56.5 -58t-87.5 -22q-104 0 -154 96q-59 -55 -110 -76.5t-132 -21.5q-162 0 -258 96q-94 94 -94 252q0 63 22 117.5t65.5 99t116.5 70t168 25.5h212v28q0 72 -37 103t-115 31q-63 0 -134 -30q-62 -26 -100 -26
q-57 0 -92 44q-36 44 -36 98q0 47 30 80.5t70 51.5q130 58 268 58q233 0 353.5 -97.5t120.5 -292.5zM634 404v28h-156q-56 0 -85 -23.5t-29 -64.5q0 -39 30 -63.5t88 -24.5q42 0 67.5 8t50.5 30q34 31 34 110zM777 1408l-75 -120q-43 -68 -67 -85q-32 -22 -69 -22
q-39 0 -76 23q-73 45 -66 118q3 39 48 110l75 120q43 68 67 85q32 22 69 22q39 0 76 -23q73 -45 66 -118q-3 -39 -48 -110z" />
    <glyph glyph-name="acircumflex" unicode="&#xe2;" horiz-adv-x="1076" 
d="M962 698v-484q0 -62 -3.5 -89t-16.5 -53q-18 -36 -56.5 -58t-87.5 -22q-104 0 -154 96q-59 -55 -110 -76.5t-132 -21.5q-162 0 -258 96q-94 94 -94 252q0 63 22 117.5t65.5 99t116.5 70t168 25.5h212v28q0 72 -37 103t-115 31q-63 0 -134 -30q-62 -26 -100 -26
q-57 0 -92 44q-36 44 -36 98q0 47 30 80.5t70 51.5q130 58 268 58q233 0 353.5 -97.5t120.5 -292.5zM634 404v28h-156q-56 0 -85 -23.5t-29 -64.5q0 -39 30 -63.5t88 -24.5q42 0 67.5 8t50.5 30q34 31 34 110zM630 1243l-102 102l-102 -102q-52 -52 -88 -65q-66 -22 -122 34
q-57 57 -34 123q12 34 65 87l139 139q23 23 38.5 36t44.5 26.5t59 13.5t59 -13.5t44.5 -26.5t38.5 -36l139 -139q53 -53 65 -87q23 -66 -34 -123q-56 -56 -122 -34q-36 13 -88 65z" />
    <glyph glyph-name="atilde" unicode="&#xe3;" horiz-adv-x="1076" 
d="M962 698v-484q0 -62 -3.5 -89t-16.5 -53q-18 -36 -56.5 -58t-87.5 -22q-104 0 -154 96q-59 -55 -110 -76.5t-132 -21.5q-162 0 -258 96q-94 94 -94 252q0 63 22 117.5t65.5 99t116.5 70t168 25.5h212v28q0 72 -37 103t-115 31q-63 0 -134 -30q-62 -26 -100 -26
q-57 0 -92 44q-36 44 -36 98q0 47 30 80.5t70 51.5q130 58 268 58q233 0 353.5 -97.5t120.5 -292.5zM634 404v28h-156q-56 0 -85 -23.5t-29 -64.5q0 -39 30 -63.5t88 -24.5q42 0 67.5 8t50.5 30q34 31 34 110zM926 1395q0 -57 -65 -111q-43 -34 -87.5 -48t-106.5 -14
q-47 0 -81.5 8.5t-82.5 34.5q-56 31 -105 31q-45 0 -87 -29q-38 -27 -73 -27q-52 0 -84 40q-24 29 -24 77q0 57 65 111q43 34 87.5 48t106.5 14q47 0 81.5 -8.5t82.5 -34.5q56 -31 105 -31q45 0 87 29q38 27 73 27q52 0 84 -40q24 -29 24 -77z" />
    <glyph glyph-name="adieresis" unicode="&#xe4;" horiz-adv-x="1076" 
d="M962 698v-484q0 -62 -3.5 -89t-16.5 -53q-18 -36 -56.5 -58t-87.5 -22q-104 0 -154 96q-59 -55 -110 -76.5t-132 -21.5q-162 0 -258 96q-94 94 -94 252q0 63 22 117.5t65.5 99t116.5 70t168 25.5h212v28q0 72 -37 103t-115 31q-63 0 -134 -30q-62 -26 -100 -26
q-57 0 -92 44q-36 44 -36 98q0 47 30 80.5t70 51.5q130 58 268 58q233 0 353.5 -97.5t120.5 -292.5zM634 404v28h-156q-56 0 -85 -23.5t-29 -64.5q0 -39 30 -63.5t88 -24.5q42 0 67.5 8t50.5 30q34 31 34 110zM294 1200q-66 0 -113 47t-47 113t47 113t113 47t113 -47
t47 -113t-47 -113t-113 -47zM762 1200q-66 0 -113 47t-47 113t47 113t113 47t113 -47t47 -113t-47 -113t-113 -47z" />
    <glyph glyph-name="aring" unicode="&#xe5;" horiz-adv-x="1076" 
d="M962 698v-484q0 -62 -3.5 -89t-16.5 -53q-18 -36 -56.5 -58t-87.5 -22q-104 0 -154 96q-59 -55 -110 -76.5t-132 -21.5q-162 0 -258 96q-94 94 -94 252q0 63 22 117.5t65.5 99t116.5 70t168 25.5h212v28q0 72 -37 103t-115 31q-63 0 -134 -30q-62 -26 -100 -26
q-57 0 -92 44q-36 44 -36 98q0 47 30 80.5t70 51.5q130 58 268 58q233 0 353.5 -97.5t120.5 -292.5zM634 404v28h-156q-56 0 -85 -23.5t-29 -64.5q0 -39 30 -63.5t88 -24.5q42 0 67.5 8t50.5 30q34 31 34 110zM632 1462q0 43 -30.5 73.5t-73.5 30.5t-73.5 -30.5t-30.5 -73.5
t30.5 -73.5t73.5 -30.5t73.5 30.5t30.5 73.5zM528 1186q-114 0 -195 81t-81 195t81 195t195 81t195 -81t81 -195t-81 -195t-195 -81z" />
    <glyph glyph-name="ae" unicode="&#xe6;" horiz-adv-x="1675" 
d="M1423 432h-463q0 -70 52 -120t142 -50q88 0 162 48q63 42 114 42q47 0 88.5 -40.5t41.5 -95.5q0 -77 -102 -148q-116 -80 -308 -80q-246 0 -376 130q-89 -82 -170 -106t-198 -24q-162 0 -258 98q-94 94 -94 252q0 63 22 117.5t65.5 99t116.5 70t168 25.5h212v28
q0 72 -37 103t-115 31q-63 0 -134 -30q-62 -26 -100 -26q-57 0 -92 44q-36 44 -36 98q0 47 30 80.5t70 51.5q130 58 268 58q222 0 340 -90q117 90 288 90q145 0 254.5 -65t165.5 -170t62 -235q4 -98 -44 -146q-18 -18 -43.5 -27.5t-43.5 -11t-48 -1.5zM638 404v28h-156
q-56 0 -85 -23.5t-29 -64.5q0 -39 30 -63.5t88 -24.5q42 0 67.5 8t50.5 30q34 31 34 110zM960 650h320q0 48 -18 84q-40 84 -142 84q-104 0 -142 -84q-18 -39 -18 -84z" />
    <glyph glyph-name="ccedilla" unicode="&#xe7;" horiz-adv-x="954" 
d="M746 22q-79 -34 -186 -34q-44 0 -86 5.5t-91 21.5t-91.5 41.5t-83 68t-69 98.5t-46 137t-17.5 178t17.5 178t46 137t69 98.5t83 68t91.5 41.5t91 21.5t86 5.5q107 0 186 -34q61 -26 109.5 -73.5t48.5 -104.5q0 -59 -46 -108q-17 -19 -44.5 -31.5t-55.5 -12.5
q-44 0 -102 38q-46 30 -96 30q-60 0 -102 -42q-54 -57 -54 -212t54 -212q42 -42 102 -42q50 0 96 30q58 38 102 38q28 0 55.5 -12.5t44.5 -31.5q46 -49 46 -108q0 -57 -48.5 -104.5t-109.5 -73.5zM626 -328l-75 -120q-43 -68 -67 -85q-32 -22 -69 -22q-39 0 -76 23
q-73 45 -66 118q3 39 48 110l75 120q43 68 67 85q32 22 69 22q39 0 76 -23q73 -45 66 -118q-3 -39 -48 -110z" />
    <glyph glyph-name="egrave" unicode="&#xe8;" horiz-adv-x="1113" 
d="M861 432h-463q0 -70 52 -120t142 -50q88 0 162 48q63 42 114 42q47 0 88.5 -40.5t41.5 -95.5q0 -77 -102 -148q-116 -80 -308 -80q-512 0 -512 550q0 259 133 404.5t349 145.5q145 0 254.5 -65t165.5 -170t62 -235q4 -98 -44 -146q-18 -18 -43.5 -27.5t-43.5 -11
t-48 -1.5zM398 650h320q0 48 -18 84q-40 84 -142 84q-104 0 -142 -84q-18 -39 -18 -84zM392 1288l-75 120q-45 71 -48 110q-7 73 66 118q37 23 76 23q37 0 69 -22q24 -17 67 -85l75 -120q45 -71 48 -110q7 -73 -66 -118q-37 -23 -76 -23q-37 0 -69 22q-24 17 -67 85z" />
    <glyph glyph-name="eacute" unicode="&#xe9;" horiz-adv-x="1113" 
d="M861 432h-463q0 -70 52 -120t142 -50q88 0 162 48q63 42 114 42q47 0 88.5 -40.5t41.5 -95.5q0 -77 -102 -148q-116 -80 -308 -80q-512 0 -512 550q0 259 133 404.5t349 145.5q145 0 254.5 -65t165.5 -170t62 -235q4 -98 -44 -146q-18 -18 -43.5 -27.5t-43.5 -11
t-48 -1.5zM398 650h320q0 48 -18 84q-40 84 -142 84q-104 0 -142 -84q-18 -39 -18 -84zM815 1408l-75 -120q-43 -68 -67 -85q-32 -22 -69 -22q-39 0 -76 23q-73 45 -66 118q3 39 48 110l75 120q43 68 67 85q32 22 69 22q39 0 76 -23q73 -45 66 -118q-3 -39 -48 -110z" />
    <glyph glyph-name="ecircumflex" unicode="&#xea;" horiz-adv-x="1113" 
d="M861 432h-463q0 -70 52 -120t142 -50q88 0 162 48q63 42 114 42q47 0 88.5 -40.5t41.5 -95.5q0 -77 -102 -148q-116 -80 -308 -80q-512 0 -512 550q0 259 133 404.5t349 145.5q145 0 254.5 -65t165.5 -170t62 -235q4 -98 -44 -146q-18 -18 -43.5 -27.5t-43.5 -11
t-48 -1.5zM398 650h320q0 48 -18 84q-40 84 -142 84q-104 0 -142 -84q-18 -39 -18 -84zM668 1243l-102 102l-102 -102q-52 -52 -88 -65q-66 -22 -122 34q-57 57 -34 123q12 34 65 87l139 139q23 23 38.5 36t44.5 26.5t59 13.5t59 -13.5t44.5 -26.5t38.5 -36l139 -139
q53 -53 65 -87q23 -66 -34 -123q-56 -56 -122 -34q-36 13 -88 65z" />
    <glyph glyph-name="edieresis" unicode="&#xeb;" horiz-adv-x="1113" 
d="M861 432h-463q0 -70 52 -120t142 -50q88 0 162 48q63 42 114 42q47 0 88.5 -40.5t41.5 -95.5q0 -77 -102 -148q-116 -80 -308 -80q-512 0 -512 550q0 259 133 404.5t349 145.5q145 0 254.5 -65t165.5 -170t62 -235q4 -98 -44 -146q-18 -18 -43.5 -27.5t-43.5 -11
t-48 -1.5zM398 650h320q0 48 -18 84q-40 84 -142 84q-104 0 -142 -84q-18 -39 -18 -84zM332 1200q-66 0 -113 47t-47 113t47 113t113 47t113 -47t47 -113t-47 -113t-113 -47zM800 1200q-66 0 -113 47t-47 113t47 113t113 47t113 -47t47 -113t-47 -113t-113 -47z" />
    <glyph glyph-name="igrave" unicode="&#xec;" horiz-adv-x="576" 
d="M124 214v606q0 62 3.5 89t16.5 53q18 36 56.5 58t87.5 22t87.5 -22t56.5 -58q13 -26 16.5 -53t3.5 -89v-606q0 -62 -3.5 -89t-16.5 -53q-18 -36 -56.5 -58t-87.5 -22t-87.5 22t-56.5 58q-13 26 -16.5 53t-3.5 89zM114 1288l-75 120q-45 71 -48 110q-7 73 66 118
q37 23 76 23q37 0 69 -22q24 -17 67 -85l75 -120q45 -71 48 -110q7 -73 -66 -118q-37 -23 -76 -23q-37 0 -69 22q-24 17 -67 85z" />
    <glyph glyph-name="iacute" unicode="&#xed;" horiz-adv-x="576" 
d="M124 214v606q0 62 3.5 89t16.5 53q18 36 56.5 58t87.5 22t87.5 -22t56.5 -58q13 -26 16.5 -53t3.5 -89v-606q0 -62 -3.5 -89t-16.5 -53q-18 -36 -56.5 -58t-87.5 -22t-87.5 22t-56.5 58q-13 26 -16.5 53t-3.5 89zM537 1408l-75 -120q-43 -68 -67 -85q-32 -22 -69 -22
q-39 0 -76 23q-73 45 -66 118q3 39 48 110l75 120q43 68 67 85q32 22 69 22q39 0 76 -23q73 -45 66 -118q-3 -39 -48 -110z" />
    <glyph glyph-name="icircumflex" unicode="&#xee;" horiz-adv-x="576" 
d="M124 214v606q0 62 3.5 89t16.5 53q18 36 56.5 58t87.5 22t87.5 -22t56.5 -58q13 -26 16.5 -53t3.5 -89v-606q0 -62 -3.5 -89t-16.5 -53q-18 -36 -56.5 -58t-87.5 -22t-87.5 22t-56.5 58q-13 26 -16.5 53t-3.5 89zM390 1243l-102 102l-102 -102q-52 -52 -88 -65
q-66 -22 -122 34q-57 57 -34 123q12 34 65 87l139 139q23 23 38.5 36t44.5 26.5t59 13.5t59 -13.5t44.5 -26.5t38.5 -36l139 -139q53 -53 65 -87q23 -66 -34 -123q-56 -56 -122 -34q-36 13 -88 65z" />
    <glyph glyph-name="idieresis" unicode="&#xef;" horiz-adv-x="576" 
d="M69 1200q-66 0 -113 47t-47 113t47 113t113 47t113 -47t47 -113t-47 -113t-113 -47zM507 1200q-66 0 -113 47t-47 113t47 113t113 47t113 -47t47 -113t-47 -113t-113 -47zM124 214v606q0 62 3.5 89t16.5 53q18 36 56.5 58t87.5 22t87.5 -22t56.5 -58q13 -26 16.5 -53
t3.5 -89v-606q0 -62 -3.5 -89t-16.5 -53q-18 -36 -56.5 -58t-87.5 -22t-87.5 22t-56.5 58q-13 26 -16.5 53t-3.5 89z" />
    <glyph glyph-name="eth" unicode="&#xf0;" horiz-adv-x="1100" 
d="M628 312q26 26 34 73.5t8 132.5t-8 132.5t-34 73.5q-28 28 -78 28t-78 -28q-26 -26 -34 -73.5t-8 -132.5t8 -132.5t34 -73.5q28 -28 78 -28t78 28zM339 1354h69q16 44 59 72t91 28q45 0 80 -27q32 -27 58 -73h109q67 0 98 -14q57 -28 57 -100t-57 -100q-29 -14 -89 -14
h-3l100 -201q87 -177 87 -407q0 -155 -24.5 -241.5t-89.5 -156.5q-124 -132 -334 -132t-334 132q-65 70 -89.5 156.5t-24.5 241.5q0 154 24.5 241t89.5 157q54 58 138 94q73 33 154 36l-40 80h-129q-67 0 -98 14q-57 28 -57 100t57 100q31 14 98 14z" />
    <glyph glyph-name="ntilde" unicode="&#xf1;" horiz-adv-x="1158" 
d="M716 214v430q0 44 -14 75t-36 46t-42 21t-40 6t-40 -6t-42 -21t-36 -46t-14 -75v-430q0 -62 -3.5 -89t-16.5 -53q-18 -36 -56.5 -58t-87.5 -22t-87.5 22t-56.5 58q-13 26 -16.5 53t-3.5 89v648q0 62 3.5 89t16.5 53q18 36 56.5 58t87.5 22q104 0 154 -96q48 48 116.5 74
t135.5 26q150 0 242 -92q64 -64 86 -137t22 -171v-474q0 -62 -3.5 -89t-16.5 -53q-18 -36 -56.5 -58t-87.5 -22t-87.5 22t-56.5 58q-13 26 -16.5 53t-3.5 89zM982 1395q0 -57 -65 -111q-43 -34 -87.5 -48t-106.5 -14q-47 0 -81.5 8.5t-82.5 34.5q-56 31 -105 31
q-45 0 -87 -29q-38 -27 -73 -27q-52 0 -84 40q-24 29 -24 77q0 57 65 111q43 34 87.5 48t106.5 14q47 0 81.5 -8.5t82.5 -34.5q56 -31 105 -31q45 0 87 29q38 27 73 27q52 0 84 -40q24 -29 24 -77z" />
    <glyph glyph-name="ograve" unicode="&#xf2;" horiz-adv-x="1100" 
d="M638 314q29 29 38.5 81.5t9.5 142.5t-9.5 142.5t-38.5 81.5q-30 30 -88 30t-88 -30q-29 -29 -38.5 -81.5t-9.5 -142.5t9.5 -142.5t38.5 -81.5q30 -30 88 -30t88 30zM896 126q-130 -138 -346 -138t-346 138q-67 73 -92.5 162.5t-25.5 249.5q0 159 25.5 249t92.5 163
q130 138 346 138t346 -138q67 -73 92.5 -163t25.5 -249q0 -160 -25.5 -249.5t-92.5 -162.5zM376 1288l-75 120q-45 71 -48 110q-7 73 66 118q37 23 76 23q37 0 69 -22q24 -17 67 -85l75 -120q45 -71 48 -110q7 -73 -66 -118q-37 -23 -76 -23q-37 0 -69 22q-24 17 -67 85z
" />
    <glyph glyph-name="oacute" unicode="&#xf3;" horiz-adv-x="1100" 
d="M638 314q29 29 38.5 81.5t9.5 142.5t-9.5 142.5t-38.5 81.5q-30 30 -88 30t-88 -30q-29 -29 -38.5 -81.5t-9.5 -142.5t9.5 -142.5t38.5 -81.5q30 -30 88 -30t88 30zM896 126q-130 -138 -346 -138t-346 138q-67 73 -92.5 162.5t-25.5 249.5q0 159 25.5 249t92.5 163
q130 138 346 138t346 -138q67 -73 92.5 -163t25.5 -249q0 -160 -25.5 -249.5t-92.5 -162.5zM799 1408l-75 -120q-43 -68 -67 -85q-32 -22 -69 -22q-39 0 -76 23q-73 45 -66 118q3 39 48 110l75 120q43 68 67 85q32 22 69 22q39 0 76 -23q73 -45 66 -118q-3 -39 -48 -110z
" />
    <glyph glyph-name="ocircumflex" unicode="&#xf4;" horiz-adv-x="1100" 
d="M638 314q29 29 38.5 81.5t9.5 142.5t-9.5 142.5t-38.5 81.5q-30 30 -88 30t-88 -30q-29 -29 -38.5 -81.5t-9.5 -142.5t9.5 -142.5t38.5 -81.5q30 -30 88 -30t88 30zM896 126q-130 -138 -346 -138t-346 138q-67 73 -92.5 162.5t-25.5 249.5q0 159 25.5 249t92.5 163
q130 138 346 138t346 -138q67 -73 92.5 -163t25.5 -249q0 -160 -25.5 -249.5t-92.5 -162.5zM652 1243l-102 102l-102 -102q-52 -52 -88 -65q-66 -22 -122 34q-57 57 -34 123q12 34 65 87l139 139q23 23 38.5 36t44.5 26.5t59 13.5t59 -13.5t44.5 -26.5t38.5 -36l139 -139
q53 -53 65 -87q23 -66 -34 -123q-56 -56 -122 -34q-36 13 -88 65z" />
    <glyph glyph-name="otilde" unicode="&#xf5;" horiz-adv-x="1100" 
d="M638 314q29 29 38.5 81.5t9.5 142.5t-9.5 142.5t-38.5 81.5q-30 30 -88 30t-88 -30q-29 -29 -38.5 -81.5t-9.5 -142.5t9.5 -142.5t38.5 -81.5q30 -30 88 -30t88 30zM896 126q-130 -138 -346 -138t-346 138q-67 73 -92.5 162.5t-25.5 249.5q0 159 25.5 249t92.5 163
q130 138 346 138t346 -138q67 -73 92.5 -163t25.5 -249q0 -160 -25.5 -249.5t-92.5 -162.5zM948 1395q0 -57 -65 -111q-43 -34 -87.5 -48t-106.5 -14q-47 0 -81.5 8.5t-82.5 34.5q-56 31 -105 31q-45 0 -87 -29q-38 -27 -73 -27q-52 0 -84 40q-24 29 -24 77q0 57 65 111
q43 34 87.5 48t106.5 14q47 0 81.5 -8.5t82.5 -34.5q56 -31 105 -31q45 0 87 29q38 27 73 27q52 0 84 -40q24 -29 24 -77z" />
    <glyph glyph-name="odieresis" unicode="&#xf6;" horiz-adv-x="1100" 
d="M638 314q29 29 38.5 81.5t9.5 142.5t-9.5 142.5t-38.5 81.5q-30 30 -88 30t-88 -30q-29 -29 -38.5 -81.5t-9.5 -142.5t9.5 -142.5t38.5 -81.5q30 -30 88 -30t88 30zM896 126q-130 -138 -346 -138t-346 138q-67 73 -92.5 162.5t-25.5 249.5q0 159 25.5 249t92.5 163
q130 138 346 138t346 -138q67 -73 92.5 -163t25.5 -249q0 -160 -25.5 -249.5t-92.5 -162.5zM316 1200q-66 0 -113 47t-47 113t47 113t113 47t113 -47t47 -113t-47 -113t-113 -47zM784 1200q-66 0 -113 47t-47 113t47 113t113 47t113 -47t47 -113t-47 -113t-113 -47z" />
    <glyph glyph-name="divide" unicode="&#xf7;" 
d="M822 442h-532q-55 0 -80 3t-48 15q-32 16 -52 51t-20 79t20 79t52 51q23 12 48 15t80 3h532q55 0 80 -3t48 -15q32 -16 52 -51t20 -79t-20 -79t-52 -51q-23 -12 -48 -15t-80 -3zM556 -67q-87 0 -148.5 61.5t-61.5 148.5t61.5 148.5t148.5 61.5t148.5 -61.5t61.5 -148.5
t-61.5 -148.5t-148.5 -61.5zM556 825q-87 0 -148.5 61.5t-61.5 148.5t61.5 148.5t148.5 61.5t148.5 -61.5t61.5 -148.5t-61.5 -148.5t-148.5 -61.5z" />
    <glyph glyph-name="oslash" unicode="&#xf8;" horiz-adv-x="1100" 
d="M732 1058l12 21q35 58 63 77q52 34 114 -3q61 -36 56 -100q-2 -32 -38 -91l-22 -36q54 -67 75.5 -154.5t21.5 -233.5q0 -160 -25.5 -249.5t-92.5 -162.5q-130 -138 -346 -138q-97 0 -182 30l-12 -21q-35 -58 -63 -77q-52 -34 -114 3q-61 36 -56 100q2 32 38 91l22 36
q-54 68 -75.5 154.5t-21.5 233.5q0 159 25.5 249t92.5 163q130 138 346 138q99 0 182 -30zM417 437l200 340q-25 15 -67 15q-58 0 -88 -30q-29 -29 -38.5 -81.5t-9.5 -142.5q0 -71 3 -101zM682 639l-200 -341q25 -14 68 -14q58 0 88 30q29 29 38.5 81.5t9.5 142.5
q0 61 -4 101z" />
    <glyph glyph-name="ugrave" unicode="&#xf9;" horiz-adv-x="1158" 
d="M706 432v430q0 62 3.5 89t16.5 53q18 36 56.5 58t87.5 22t87.5 -22t56.5 -58q13 -26 16.5 -53t3.5 -89v-648q0 -62 -3.5 -89t-16.5 -53q-18 -36 -56.5 -58t-87.5 -22q-104 0 -154 96q-48 -48 -116.5 -74t-135.5 -26q-150 0 -242 92q-64 64 -86 137t-22 171v474
q0 62 3.5 89t16.5 53q18 36 56.5 58t87.5 22t87.5 -22t56.5 -58q13 -26 16.5 -53t3.5 -89v-430q0 -44 14 -75t36 -46t42 -21t40 -6t40 6t42 21t36 46t14 75zM400 1288l-75 120q-45 71 -48 110q-7 73 66 118q37 23 76 23q37 0 69 -22q24 -17 67 -85l75 -120q45 -71 48 -110
q7 -73 -66 -118q-37 -23 -76 -23q-37 0 -69 22q-24 17 -67 85z" />
    <glyph glyph-name="uacute" unicode="&#xfa;" horiz-adv-x="1158" 
d="M706 432v430q0 62 3.5 89t16.5 53q18 36 56.5 58t87.5 22t87.5 -22t56.5 -58q13 -26 16.5 -53t3.5 -89v-648q0 -62 -3.5 -89t-16.5 -53q-18 -36 -56.5 -58t-87.5 -22q-104 0 -154 96q-48 -48 -116.5 -74t-135.5 -26q-150 0 -242 92q-64 64 -86 137t-22 171v474
q0 62 3.5 89t16.5 53q18 36 56.5 58t87.5 22t87.5 -22t56.5 -58q13 -26 16.5 -53t3.5 -89v-430q0 -44 14 -75t36 -46t42 -21t40 -6t40 6t42 21t36 46t14 75zM823 1408l-75 -120q-43 -68 -67 -85q-32 -22 -69 -22q-39 0 -76 23q-73 45 -66 118q3 39 48 110l75 120
q43 68 67 85q32 22 69 22q39 0 76 -23q73 -45 66 -118q-3 -39 -48 -110z" />
    <glyph glyph-name="ucircumflex" unicode="&#xfb;" horiz-adv-x="1158" 
d="M706 432v430q0 62 3.5 89t16.5 53q18 36 56.5 58t87.5 22t87.5 -22t56.5 -58q13 -26 16.5 -53t3.5 -89v-648q0 -62 -3.5 -89t-16.5 -53q-18 -36 -56.5 -58t-87.5 -22q-104 0 -154 96q-48 -48 -116.5 -74t-135.5 -26q-150 0 -242 92q-64 64 -86 137t-22 171v474
q0 62 3.5 89t16.5 53q18 36 56.5 58t87.5 22t87.5 -22t56.5 -58q13 -26 16.5 -53t3.5 -89v-430q0 -44 14 -75t36 -46t42 -21t40 -6t40 6t42 21t36 46t14 75zM676 1243l-102 102l-102 -102q-52 -52 -88 -65q-66 -22 -122 34q-57 57 -34 123q12 34 65 87l139 139
q23 23 38.5 36t44.5 26.5t59 13.5t59 -13.5t44.5 -26.5t38.5 -36l139 -139q53 -53 65 -87q23 -66 -34 -123q-56 -56 -122 -34q-36 13 -88 65z" />
    <glyph glyph-name="udieresis" unicode="&#xfc;" horiz-adv-x="1158" 
d="M706 432v430q0 62 3.5 89t16.5 53q18 36 56.5 58t87.5 22t87.5 -22t56.5 -58q13 -26 16.5 -53t3.5 -89v-648q0 -62 -3.5 -89t-16.5 -53q-18 -36 -56.5 -58t-87.5 -22q-104 0 -154 96q-48 -48 -116.5 -74t-135.5 -26q-150 0 -242 92q-64 64 -86 137t-22 171v474
q0 62 3.5 89t16.5 53q18 36 56.5 58t87.5 22t87.5 -22t56.5 -58q13 -26 16.5 -53t3.5 -89v-430q0 -44 14 -75t36 -46t42 -21t40 -6t40 6t42 21t36 46t14 75zM340 1200q-66 0 -113 47t-47 113t47 113t113 47t113 -47t47 -113t-47 -113t-113 -47zM808 1200q-66 0 -113 47
t-47 113t47 113t113 47t113 -47t47 -113t-47 -113t-113 -47z" />
    <glyph glyph-name="yacute" unicode="&#xfd;" horiz-adv-x="946" 
d="M288 12l23 68l-254 751q-35 103 -19 150q15 44 57.5 73.5t96.5 29.5q30 0 54 -9.5t39 -23t28 -37t19.5 -41t15.5 -45.5l125 -414l125 414q9 28 15.5 45.5t19.5 41t28 37t39 23t54 9.5q54 0 96.5 -29.5t57.5 -73.5q16 -47 -19 -150l-331 -963q-28 -83 -84 -142
q-87 -90 -234 -90q-110 0 -150 40q-44 44 -44 108q0 77 48 116q22 18 42 24t58 6q67 0 94 82zM722 1408l-75 -120q-43 -68 -67 -85q-32 -22 -69 -22q-39 0 -76 23q-73 45 -66 118q3 39 48 110l75 120q43 68 67 85q32 22 69 22q39 0 76 -23q73 -45 66 -118q-3 -39 -48 -110z
" />
    <glyph glyph-name="thorn" unicode="&#xfe;" horiz-adv-x="1138" 
d="M124 -134v1344q0 62 3.5 89t16.5 53q18 36 56.5 58t87.5 22t87.5 -22t56.5 -58q13 -26 16.5 -53t3.5 -89v-212q90 90 240 90q163 0 258 -98q36 -37 58 -85t31 -114t11 -115.5t2 -137.5t-2 -137.5t-11 -115.5t-31 -114t-58 -85q-95 -98 -258 -98q-150 0 -240 90v-212
q0 -62 -3.5 -89t-16.5 -53q-18 -36 -56.5 -58t-87.5 -22t-87.5 22t-56.5 58q-13 26 -16.5 53t-3.5 89zM588 284q36 0 61 12t39.5 31.5t22.5 54t10.5 69.5t2.5 87t-2.5 87t-10.5 69.5t-22.5 54t-39.5 31.5t-61 12t-61 -12t-39.5 -31.5t-22.5 -54t-10.5 -69.5t-2.5 -87
t2.5 -87t10.5 -69.5t22.5 -54t39.5 -31.5t61 -12z" />
    <glyph glyph-name="ydieresis" unicode="&#xff;" horiz-adv-x="946" 
d="M288 12l23 68l-254 751q-35 103 -19 150q15 44 57.5 73.5t96.5 29.5q30 0 54 -9.5t39 -23t28 -37t19.5 -41t15.5 -45.5l125 -414l125 414q9 28 15.5 45.5t19.5 41t28 37t39 23t54 9.5q54 0 96.5 -29.5t57.5 -73.5q16 -47 -19 -150l-331 -963q-28 -83 -84 -142
q-87 -90 -234 -90q-110 0 -150 40q-44 44 -44 108q0 77 48 116q22 18 42 24t58 6q67 0 94 82zM239 1200q-66 0 -113 47t-47 113t47 113t113 47t113 -47t47 -113t-47 -113t-113 -47zM707 1200q-66 0 -113 47t-47 113t47 113t113 47t113 -47t47 -113t-47 -113t-113 -47z" />
    <glyph glyph-name="Amacron" unicode="&#x100;" horiz-adv-x="1294" 
d="M70 268l380 1009q32 84 73 116q49 39 124 39t124 -39q41 -32 73 -116l380 -1009q20 -54 27.5 -84.5t0 -69t-39.5 -70.5q-52 -52 -126 -52q-60 0 -99 36q-22 20 -35.5 45t-33.5 81l-21 58h-500l-21 -58q-20 -56 -33.5 -81t-35.5 -45q-39 -36 -99 -36q-74 0 -126 52
q-32 32 -39.5 70.5t0 69t27.5 84.5zM791 504l-144 396l-144 -396h288zM811 1604h-328q-75 0 -108 16q-62 30 -62 110t62 110q33 16 108 16h328q75 0 108 -16q62 -30 62 -110t-62 -110q-33 -16 -108 -16z" />
    <glyph glyph-name="amacron" unicode="&#x101;" horiz-adv-x="1076" 
d="M962 698v-484q0 -62 -3.5 -89t-16.5 -53q-18 -36 -56.5 -58t-87.5 -22q-104 0 -154 96q-59 -55 -110 -76.5t-132 -21.5q-162 0 -258 96q-94 94 -94 252q0 63 22 117.5t65.5 99t116.5 70t168 25.5h212v28q0 72 -37 103t-115 31q-63 0 -134 -30q-62 -26 -100 -26
q-57 0 -92 44q-36 44 -36 98q0 47 30 80.5t70 51.5q130 58 268 58q233 0 353.5 -97.5t120.5 -292.5zM634 404v28h-156q-56 0 -85 -23.5t-29 -64.5q0 -39 30 -63.5t88 -24.5q42 0 67.5 8t50.5 30q34 31 34 110zM692 1258h-328q-75 0 -108 16q-62 30 -62 110t62 110
q33 16 108 16h328q75 0 108 -16q62 -30 62 -110t-62 -110q-33 -16 -108 -16z" />
    <glyph glyph-name="Abreve" unicode="&#x102;" horiz-adv-x="1294" 
d="M70 268l380 1009q32 84 73 116q49 39 124 39t124 -39q41 -32 73 -116l380 -1009q20 -54 27.5 -84.5t0 -69t-39.5 -70.5q-52 -52 -126 -52q-60 0 -99 36q-22 20 -35.5 45t-33.5 81l-21 58h-500l-21 -58q-20 -56 -33.5 -81t-35.5 -45q-39 -36 -99 -36q-74 0 -126 52
q-32 32 -39.5 70.5t0 69t27.5 84.5zM791 504l-144 396l-144 -396h288zM915 1643q-61 -51 -121 -71.5t-147 -20.5t-147 20.5t-121 71.5q-69 57 -69 117q0 42 30 78q37 43 85 43q33 0 71 -27q74 -55 151 -55t151 55q38 27 71 27q48 0 85 -43q30 -36 30 -78q0 -60 -69 -117z
" />
    <glyph glyph-name="abreve" unicode="&#x103;" horiz-adv-x="1076" 
d="M962 698v-484q0 -62 -3.5 -89t-16.5 -53q-18 -36 -56.5 -58t-87.5 -22q-104 0 -154 96q-59 -55 -110 -76.5t-132 -21.5q-162 0 -258 96q-94 94 -94 252q0 63 22 117.5t65.5 99t116.5 70t168 25.5h212v28q0 72 -37 103t-115 31q-63 0 -134 -30q-62 -26 -100 -26
q-57 0 -92 44q-36 44 -36 98q0 47 30 80.5t70 51.5q130 58 268 58q233 0 353.5 -97.5t120.5 -292.5zM634 404v28h-156q-56 0 -85 -23.5t-29 -64.5q0 -39 30 -63.5t88 -24.5q42 0 67.5 8t50.5 30q34 31 34 110zM796 1297q-61 -51 -121.5 -71.5t-146.5 -20.5t-146.5 20.5
t-121.5 71.5q-69 57 -69 117q0 42 30 78q37 43 85 43q33 0 71 -27q74 -55 151 -55t151 55q38 27 71 27q48 0 85 -43q30 -36 30 -78q0 -60 -69 -117z" />
    <glyph glyph-name="Aogonek" unicode="&#x104;" horiz-adv-x="1294" 
d="M70 268l380 1009q32 84 73 116q49 39 124 39t124 -39q41 -32 73 -116l380 -1009q20 -54 27.5 -84.5t0 -69t-39.5 -70.5q-52 -52 -126 -52q-60 0 -99 36q-22 20 -35.5 45t-33.5 81l-21 58h-500l-21 -58q-20 -56 -33.5 -81t-35.5 -45q-39 -36 -99 -36q-74 0 -126 52
q-32 32 -39.5 70.5t0 69t27.5 84.5zM791 504l-144 396l-144 -396h288zM1196 -328l-75 -120q-43 -68 -67 -85q-32 -22 -69 -22q-39 0 -76 23q-73 45 -66 118q3 39 48 110l75 120q43 68 67 85q32 22 69 22q39 0 76 -23q73 -45 66 -118q-3 -39 -48 -110z" />
    <glyph glyph-name="aogonek" unicode="&#x105;" horiz-adv-x="1076" 
d="M962 698v-484q0 -62 -3.5 -89t-16.5 -53q-18 -36 -56.5 -58t-87.5 -22q-104 0 -154 96q-59 -55 -110 -76.5t-132 -21.5q-162 0 -258 96q-94 94 -94 252q0 63 22 117.5t65.5 99t116.5 70t168 25.5h212v28q0 72 -37 103t-115 31q-63 0 -134 -30q-62 -26 -100 -26
q-57 0 -92 44q-36 44 -36 98q0 47 30 80.5t70 51.5q130 58 268 58q233 0 353.5 -97.5t120.5 -292.5zM634 404v28h-156q-56 0 -85 -23.5t-29 -64.5q0 -39 30 -63.5t88 -24.5q42 0 67.5 8t50.5 30q34 31 34 110zM844 -328l-75 -120q-43 -68 -67 -85q-32 -22 -69 -22
q-39 0 -76 23q-73 45 -66 118q3 39 48 110l75 120q43 68 67 85q32 22 69 22q39 0 76 -23q73 -45 66 -118q-3 -39 -48 -110z" />
    <glyph glyph-name="Cacute" unicode="&#x106;" horiz-adv-x="1209" 
d="M96 712q0 91 1.5 139.5t9 120t22 117t43.5 97.5t71 94q156 156 393 156q131 0 212 -24.5t147 -83.5q73 -66 104 -136.5t31 -127.5q0 -84 -49 -133t-121 -49q-56 0 -94 27q-44 30 -93 117q-30 53 -63.5 75.5t-81.5 22.5q-79 0 -126 -62q-32 -42 -43 -110.5t-11 -239.5
t11 -239.5t43 -110.5q47 -62 126 -62q48 0 81.5 22.5t63.5 75.5q49 87 93 117q38 27 94 27q72 0 121 -49t49 -133q0 -57 -31 -127.5t-104 -136.5q-66 -59 -147 -83.5t-212 -24.5q-237 0 -393 156q-42 42 -71 94t-43.5 97.5t-22 117t-9 120t-1.5 139.5zM885 1754l-75 -120
q-43 -68 -67 -85q-32 -22 -69 -22q-39 0 -76 23q-73 45 -66 118q3 39 48 110l75 120q43 68 67 85q32 22 69 22q39 0 76 -23q73 -45 66 -118q-3 -39 -48 -110z" />
    <glyph glyph-name="cacute" unicode="&#x107;" horiz-adv-x="954" 
d="M746 22q-79 -34 -186 -34q-44 0 -86 5.5t-91 21.5t-91.5 41.5t-83 68t-69 98.5t-46 137t-17.5 178t17.5 178t46 137t69 98.5t83 68t91.5 41.5t91 21.5t86 5.5q107 0 186 -34q61 -26 109.5 -73.5t48.5 -104.5q0 -59 -46 -108q-17 -19 -44.5 -31.5t-55.5 -12.5
q-44 0 -102 38q-46 30 -96 30q-60 0 -102 -42q-54 -57 -54 -212t54 -212q42 -42 102 -42q50 0 96 30q58 38 102 38q28 0 55.5 -12.5t44.5 -31.5q46 -49 46 -108q0 -57 -48.5 -104.5t-109.5 -73.5zM809 1408l-75 -120q-43 -68 -67 -85q-32 -22 -69 -22q-39 0 -76 23
q-73 45 -66 118q3 39 48 110l75 120q43 68 67 85q32 22 69 22q39 0 76 -23q73 -45 66 -118q-3 -39 -48 -110z" />
    <glyph glyph-name="Ccircumflex" unicode="&#x108;" horiz-adv-x="1209" 
d="M96 712q0 91 1.5 139.5t9 120t22 117t43.5 97.5t71 94q156 156 393 156q131 0 212 -24.5t147 -83.5q73 -66 104 -136.5t31 -127.5q0 -84 -49 -133t-121 -49q-56 0 -94 27q-44 30 -93 117q-30 53 -63.5 75.5t-81.5 22.5q-79 0 -126 -62q-32 -42 -43 -110.5t-11 -239.5
t11 -239.5t43 -110.5q47 -62 126 -62q48 0 81.5 22.5t63.5 75.5q49 87 93 117q38 27 94 27q72 0 121 -49t49 -133q0 -57 -31 -127.5t-104 -136.5q-66 -59 -147 -83.5t-212 -24.5q-237 0 -393 156q-42 42 -71 94t-43.5 97.5t-22 117t-9 120t-1.5 139.5zM738 1589l-102 102
l-102 -102q-52 -52 -88 -65q-66 -22 -122 34q-57 57 -34 123q12 34 65 87l139 139q23 23 38.5 36t44.5 26.5t59 13.5t59 -13.5t44.5 -26.5t38.5 -36l139 -139q53 -53 65 -87q23 -66 -34 -123q-56 -56 -122 -34q-36 13 -88 65z" />
    <glyph glyph-name="ccircumflex" unicode="&#x109;" horiz-adv-x="954" 
d="M746 22q-79 -34 -186 -34q-44 0 -86 5.5t-91 21.5t-91.5 41.5t-83 68t-69 98.5t-46 137t-17.5 178t17.5 178t46 137t69 98.5t83 68t91.5 41.5t91 21.5t86 5.5q107 0 186 -34q61 -26 109.5 -73.5t48.5 -104.5q0 -59 -46 -108q-17 -19 -44.5 -31.5t-55.5 -12.5
q-44 0 -102 38q-46 30 -96 30q-60 0 -102 -42q-54 -57 -54 -212t54 -212q42 -42 102 -42q50 0 96 30q58 38 102 38q28 0 55.5 -12.5t44.5 -31.5q46 -49 46 -108q0 -57 -48.5 -104.5t-109.5 -73.5zM662 1243l-102 102l-102 -102q-52 -52 -88 -65q-66 -22 -122 34
q-57 57 -34 123q12 34 65 87l139 139q23 23 38.5 36t44.5 26.5t59 13.5t59 -13.5t44.5 -26.5t38.5 -36l139 -139q53 -53 65 -87q23 -66 -34 -123q-56 -56 -122 -34q-36 13 -88 65z" />
    <glyph glyph-name="Cdotaccent" unicode="&#x10a;" horiz-adv-x="1209" 
d="M96 712q0 91 1.5 139.5t9 120t22 117t43.5 97.5t71 94q156 156 393 156q131 0 212 -24.5t147 -83.5q73 -66 104 -136.5t31 -127.5q0 -84 -49 -133t-121 -49q-56 0 -94 27q-44 30 -93 117q-30 53 -63.5 75.5t-81.5 22.5q-79 0 -126 -62q-32 -42 -43 -110.5t-11 -239.5
t11 -239.5t43 -110.5q47 -62 126 -62q48 0 81.5 22.5t63.5 75.5q49 87 93 117q38 27 94 27q72 0 121 -49t49 -133q0 -57 -31 -127.5t-104 -136.5q-66 -59 -147 -83.5t-212 -24.5q-237 0 -393 156q-42 42 -71 94t-43.5 97.5t-22 117t-9 120t-1.5 139.5zM636 1550
q-66 0 -113 47t-47 113t47 113t113 47t113 -47t47 -113t-47 -113t-113 -47z" />
    <glyph glyph-name="cdotaccent" unicode="&#x10b;" horiz-adv-x="954" 
d="M746 22q-79 -34 -186 -34q-44 0 -86 5.5t-91 21.5t-91.5 41.5t-83 68t-69 98.5t-46 137t-17.5 178t17.5 178t46 137t69 98.5t83 68t91.5 41.5t91 21.5t86 5.5q107 0 186 -34q61 -26 109.5 -73.5t48.5 -104.5q0 -59 -46 -108q-17 -19 -44.5 -31.5t-55.5 -12.5
q-44 0 -102 38q-46 30 -96 30q-60 0 -102 -42q-54 -57 -54 -212t54 -212q42 -42 102 -42q50 0 96 30q58 38 102 38q28 0 55.5 -12.5t44.5 -31.5q46 -49 46 -108q0 -57 -48.5 -104.5t-109.5 -73.5zM560 1204q-66 0 -113 47t-47 113t47 113t113 47t113 -47t47 -113t-47 -113
t-113 -47z" />
    <glyph glyph-name="Ccaron" unicode="&#x10c;" horiz-adv-x="1209" 
d="M96 712q0 91 1.5 139.5t9 120t22 117t43.5 97.5t71 94q156 156 393 156q131 0 212 -24.5t147 -83.5q73 -66 104 -136.5t31 -127.5q0 -84 -49 -133t-121 -49q-56 0 -94 27q-44 30 -93 117q-30 53 -63.5 75.5t-81.5 22.5q-79 0 -126 -62q-32 -42 -43 -110.5t-11 -239.5
t11 -239.5t43 -110.5q47 -62 126 -62q48 0 81.5 22.5t63.5 75.5q49 87 93 117q38 27 94 27q72 0 121 -49t49 -133q0 -57 -31 -127.5t-104 -136.5q-66 -59 -147 -83.5t-212 -24.5q-237 0 -393 156q-42 42 -71 94t-43.5 97.5t-22 117t-9 120t-1.5 139.5zM917 1725l-139 -139
q-23 -23 -38.5 -36t-44.5 -26.5t-59 -13.5t-59 13.5t-44.5 26.5t-38.5 36l-139 139q-53 53 -65 87q-23 66 34 123q56 56 122 34q36 -13 88 -65l102 -102l102 102q52 52 88 65q66 22 122 -34q57 -57 34 -123q-12 -34 -65 -87z" />
    <glyph glyph-name="ccaron" unicode="&#x10d;" horiz-adv-x="954" 
d="M746 22q-79 -34 -186 -34q-44 0 -86 5.5t-91 21.5t-91.5 41.5t-83 68t-69 98.5t-46 137t-17.5 178t17.5 178t46 137t69 98.5t83 68t91.5 41.5t91 21.5t86 5.5q107 0 186 -34q61 -26 109.5 -73.5t48.5 -104.5q0 -59 -46 -108q-17 -19 -44.5 -31.5t-55.5 -12.5
q-44 0 -102 38q-46 30 -96 30q-60 0 -102 -42q-54 -57 -54 -212t54 -212q42 -42 102 -42q50 0 96 30q58 38 102 38q28 0 55.5 -12.5t44.5 -31.5q46 -49 46 -108q0 -57 -48.5 -104.5t-109.5 -73.5zM841 1379l-139 -139q-23 -23 -38.5 -36t-44.5 -26.5t-59 -13.5t-59 13.5
t-44.5 26.5t-38.5 36l-139 139q-53 53 -65 87q-23 66 34 123q56 56 122 34q36 -13 88 -65l102 -102l102 102q52 52 88 65q66 22 122 -34q57 -57 34 -123q-12 -34 -65 -87z" />
    <glyph glyph-name="Dcaron" unicode="&#x10e;" horiz-adv-x="1302" 
d="M672 0h-315q-36 0 -57 1.5t-53.5 13t-55.5 34.5t-34.5 55.5t-13 53.5t-1.5 57v994q0 36 1.5 57t13 53.5t34.5 55.5t55.5 34.5t53.5 13t57 1.5h315q313 0 462 -240q48 -79 59 -169.5t11 -302.5t-11 -302.5t-59 -169.5q-149 -240 -462 -240zM494 312h154q115 0 168 80
q23 32 30.5 90t7.5 230q0 171 -8 229.5t-30 90.5q-53 80 -168 80h-154v-800zM931 1725l-139 -139q-23 -23 -38.5 -36t-44.5 -26.5t-59 -13.5t-59 13.5t-44.5 26.5t-38.5 36l-139 139q-53 53 -65 87q-23 66 34 123q56 56 122 34q36 -13 88 -65l102 -102l102 102q52 52 88 65
q66 22 122 -34q57 -57 34 -123q-12 -34 -65 -87z" />
    <glyph glyph-name="dcaron" unicode="&#x10f;" horiz-adv-x="1138" 
d="M1431 1414l-49 -147q-16 -48 -26 -69t-28 -39q-32 -32 -83 -32q-49 0 -89 27t-50 69q-4 16 -4.5 31t3.5 33.5t7.5 30t11.5 35.5l49 147q16 48 26 69t28 39q32 32 83 32q49 0 89 -27t50 -69q4 -16 4.5 -31t-3.5 -33.5t-7.5 -30t-11.5 -35.5zM1014 214q0 -62 -3.5 -89
t-16.5 -53q-18 -36 -56.5 -58t-87.5 -22q-104 0 -154 96q-51 -51 -109 -75.5t-139 -24.5q-165 0 -260 98q-36 37 -58 85t-31 114t-11 115.5t-2 137.5t2 137.5t11 115.5t31 114t58 85q95 98 258 98q150 0 240 -90v212q0 62 3.5 89t16.5 53q18 36 56.5 58t87.5 22t87.5 -22
t56.5 -58q13 -26 16.5 -53t3.5 -89v-996zM550 284q36 0 61 12t39.5 31.5t22.5 54t10.5 69.5t2.5 87t-2.5 87t-10.5 69.5t-22.5 54t-39.5 31.5t-61 12t-61 -12t-39.5 -31.5t-22.5 -54t-10.5 -69.5t-2.5 -87t2.5 -87t10.5 -69.5t22.5 -54t39.5 -31.5t61 -12z" />
    <glyph glyph-name="Dcroat" unicode="&#x110;" horiz-adv-x="1364" 
d="M734 0h-315q-36 0 -57 1.5t-53.5 13t-55.5 34.5t-34.5 55.5t-13 53.5t-1.5 57v367h-2q-50 0 -73.5 3t-45.5 15q-30 15 -47.5 46.5t-17.5 71.5t17.5 71.5t47.5 46.5q22 12 45.5 15t73.5 3h2v355q0 36 1.5 57t13 53.5t34.5 55.5t55.5 34.5t53.5 13t57 1.5h315
q313 0 462 -240q48 -79 59 -169.5t11 -302.5t-11 -302.5t-59 -169.5q-149 -240 -462 -240zM556 312h154q115 0 168 80q23 32 30.5 90t7.5 230q0 171 -8 229.5t-30 90.5q-53 80 -168 80h-154v-258h30q50 0 73.5 -3t45.5 -15q30 -15 47.5 -46.5t17.5 -71.5t-17.5 -71.5
t-47.5 -46.5q-22 -12 -45.5 -15t-73.5 -3h-30v-270z" />
    <glyph glyph-name="dcroat" unicode="&#x111;" horiz-adv-x="1138" 
d="M448 -12q-165 0 -260 98q-36 37 -58 85t-31 114t-11 115.5t-2 137.5t2 137.5t11 115.5t31 114t58 85q95 98 258 98q150 0 240 -90v102h-13q-75 0 -108 16q-62 30 -62 110t62 110q33 16 108 16h33q18 36 56.5 58t87.5 22t87.5 -22t56.5 -58q51 -1 82 -16q62 -30 62 -110
t-62 -110q-26 -12 -62 -15v-887q0 -62 -3.5 -89t-16.5 -53q-18 -36 -56.5 -58t-87.5 -22q-65 0 -107 35q-26 22 -45 57l-2 4q-51 -51 -109 -75.5t-139 -24.5zM550 284q36 0 61 12t39.5 31.5t22.5 54t10.5 69.5t2.5 87t-2.5 87t-10.5 69.5t-22.5 54t-39.5 31.5t-61 12
t-61 -12t-39.5 -31.5t-22.5 -54t-10.5 -69.5t-2.5 -87t2.5 -87t10.5 -69.5t22.5 -54t39.5 -31.5t61 -12z" />
    <glyph glyph-name="Emacron" unicode="&#x112;" horiz-adv-x="1212" 
d="M912 0h-555q-36 0 -57 1.5t-53.5 13t-55.5 34.5t-34.5 55.5t-13 53.5t-1.5 57v994q0 36 1.5 57t13 53.5t34.5 55.5t55.5 34.5t53.5 13t57 1.5h555q57 0 83 -3.5t51 -15.5q34 -16 55 -53.5t21 -83.5t-21 -83.5t-55 -53.5q-25 -12 -51 -15.5t-83 -3.5h-418v-238h328
q57 0 83 -3.5t51 -15.5q34 -16 55 -53.5t21 -83.5t-21 -83.5t-55 -53.5q-25 -12 -51 -15.5t-83 -3.5h-328v-250h418q57 0 83 -3.5t51 -15.5q34 -16 55 -53.5t21 -83.5t-21 -83.5t-55 -53.5q-25 -12 -51 -15.5t-83 -3.5zM794 1604h-328q-75 0 -108 16q-62 30 -62 110t62 110
q33 16 108 16h328q75 0 108 -16q62 -30 62 -110t-62 -110q-33 -16 -108 -16z" />
    <glyph glyph-name="emacron" unicode="&#x113;" horiz-adv-x="1113" 
d="M861 432h-463q0 -70 52 -120t142 -50q88 0 162 48q63 42 114 42q47 0 88.5 -40.5t41.5 -95.5q0 -77 -102 -148q-116 -80 -308 -80q-512 0 -512 550q0 259 133 404.5t349 145.5q145 0 254.5 -65t165.5 -170t62 -235q4 -98 -44 -146q-18 -18 -43.5 -27.5t-43.5 -11
t-48 -1.5zM398 650h320q0 48 -18 84q-40 84 -142 84q-104 0 -142 -84q-18 -39 -18 -84zM730 1258h-328q-75 0 -108 16q-62 30 -62 110t62 110q33 16 108 16h328q75 0 108 -16q62 -30 62 -110t-62 -110q-33 -16 -108 -16z" />
    <glyph glyph-name="Ebreve" unicode="&#x114;" horiz-adv-x="1212" 
d="M912 0h-555q-36 0 -57 1.5t-53.5 13t-55.5 34.5t-34.5 55.5t-13 53.5t-1.5 57v994q0 36 1.5 57t13 53.5t34.5 55.5t55.5 34.5t53.5 13t57 1.5h555q57 0 83 -3.5t51 -15.5q34 -16 55 -53.5t21 -83.5t-21 -83.5t-55 -53.5q-25 -12 -51 -15.5t-83 -3.5h-418v-238h328
q57 0 83 -3.5t51 -15.5q34 -16 55 -53.5t21 -83.5t-21 -83.5t-55 -53.5q-25 -12 -51 -15.5t-83 -3.5h-328v-250h418q57 0 83 -3.5t51 -15.5q34 -16 55 -53.5t21 -83.5t-21 -83.5t-55 -53.5q-25 -12 -51 -15.5t-83 -3.5zM898 1643q-61 -51 -121.5 -71.5t-146.5 -20.5
t-146.5 20.5t-121.5 71.5q-69 57 -69 117q0 42 30 78q37 43 85 43q33 0 71 -27q74 -55 151 -55t151 55q38 27 71 27q48 0 85 -43q30 -36 30 -78q0 -60 -69 -117z" />
    <glyph glyph-name="ebreve" unicode="&#x115;" horiz-adv-x="1113" 
d="M861 432h-463q0 -70 52 -120t142 -50q88 0 162 48q63 42 114 42q47 0 88.5 -40.5t41.5 -95.5q0 -77 -102 -148q-116 -80 -308 -80q-512 0 -512 550q0 259 133 404.5t349 145.5q145 0 254.5 -65t165.5 -170t62 -235q4 -98 -44 -146q-18 -18 -43.5 -27.5t-43.5 -11
t-48 -1.5zM398 650h320q0 48 -18 84q-40 84 -142 84q-104 0 -142 -84q-18 -39 -18 -84zM834 1297q-61 -51 -121.5 -71.5t-146.5 -20.5t-146.5 20.5t-121.5 71.5q-69 57 -69 117q0 42 30 78q37 43 85 43q33 0 71 -27q74 -55 151 -55t151 55q38 27 71 27q48 0 85 -43
q30 -36 30 -78q0 -60 -69 -117z" />
    <glyph glyph-name="Edotaccent" unicode="&#x116;" horiz-adv-x="1212" 
d="M912 0h-555q-36 0 -57 1.5t-53.5 13t-55.5 34.5t-34.5 55.5t-13 53.5t-1.5 57v994q0 36 1.5 57t13 53.5t34.5 55.5t55.5 34.5t53.5 13t57 1.5h555q57 0 83 -3.5t51 -15.5q34 -16 55 -53.5t21 -83.5t-21 -83.5t-55 -53.5q-25 -12 -51 -15.5t-83 -3.5h-418v-238h328
q57 0 83 -3.5t51 -15.5q34 -16 55 -53.5t21 -83.5t-21 -83.5t-55 -53.5q-25 -12 -51 -15.5t-83 -3.5h-328v-250h418q57 0 83 -3.5t51 -15.5q34 -16 55 -53.5t21 -83.5t-21 -83.5t-55 -53.5q-25 -12 -51 -15.5t-83 -3.5zM630 1550q-66 0 -113 47t-47 113t47 113t113 47
t113 -47t47 -113t-47 -113t-113 -47z" />
    <glyph glyph-name="edotaccent" unicode="&#x117;" horiz-adv-x="1113" 
d="M861 432h-463q0 -70 52 -120t142 -50q88 0 162 48q63 42 114 42q47 0 88.5 -40.5t41.5 -95.5q0 -77 -102 -148q-116 -80 -308 -80q-512 0 -512 550q0 259 133 404.5t349 145.5q145 0 254.5 -65t165.5 -170t62 -235q4 -98 -44 -146q-18 -18 -43.5 -27.5t-43.5 -11
t-48 -1.5zM398 650h320q0 48 -18 84q-40 84 -142 84q-104 0 -142 -84q-18 -39 -18 -84zM566 1204q-66 0 -113 47t-47 113t47 113t113 47t113 -47t47 -113t-47 -113t-113 -47z" />
    <glyph glyph-name="Eogonek" unicode="&#x118;" horiz-adv-x="1212" 
d="M912 0h-555q-36 0 -57 1.5t-53.5 13t-55.5 34.5t-34.5 55.5t-13 53.5t-1.5 57v994q0 36 1.5 57t13 53.5t34.5 55.5t55.5 34.5t53.5 13t57 1.5h555q57 0 83 -3.5t51 -15.5q34 -16 55 -53.5t21 -83.5t-21 -83.5t-55 -53.5q-25 -12 -51 -15.5t-83 -3.5h-418v-238h328
q57 0 83 -3.5t51 -15.5q34 -16 55 -53.5t21 -83.5t-21 -83.5t-55 -53.5q-25 -12 -51 -15.5t-83 -3.5h-328v-250h418q57 0 83 -3.5t51 -15.5q34 -16 55 -53.5t21 -83.5t-21 -83.5t-55 -53.5q-25 -12 -51 -15.5t-83 -3.5zM1049 -328l-75 -120q-43 -68 -67 -85q-32 -22 -69 -22
q-39 0 -76 23q-73 45 -66 118q3 39 48 110l75 120q43 68 67 85q32 22 69 22q39 0 76 -23q73 -45 66 -118q-3 -39 -48 -110z" />
    <glyph glyph-name="eogonek" unicode="&#x119;" horiz-adv-x="1113" 
d="M861 432h-463q0 -70 52 -120t142 -50q88 0 162 48q63 42 114 42q47 0 88.5 -40.5t41.5 -95.5q0 -77 -102 -148q-116 -80 -308 -80q-512 0 -512 550q0 259 133 404.5t349 145.5q145 0 254.5 -65t165.5 -170t62 -235q4 -98 -44 -146q-18 -18 -43.5 -27.5t-43.5 -11
t-48 -1.5zM398 650h320q0 48 -18 84q-40 84 -142 84q-104 0 -142 -84q-18 -39 -18 -84zM826 -328l-75 -120q-43 -68 -67 -85q-32 -22 -69 -22q-39 0 -76 23q-73 45 -66 118q3 39 48 110l75 120q43 68 67 85q32 22 69 22q39 0 76 -23q73 -45 66 -118q-3 -39 -48 -110z" />
    <glyph glyph-name="Ecaron" unicode="&#x11a;" horiz-adv-x="1212" 
d="M912 0h-555q-36 0 -57 1.5t-53.5 13t-55.5 34.5t-34.5 55.5t-13 53.5t-1.5 57v994q0 36 1.5 57t13 53.5t34.5 55.5t55.5 34.5t53.5 13t57 1.5h555q57 0 83 -3.5t51 -15.5q34 -16 55 -53.5t21 -83.5t-21 -83.5t-55 -53.5q-25 -12 -51 -15.5t-83 -3.5h-418v-238h328
q57 0 83 -3.5t51 -15.5q34 -16 55 -53.5t21 -83.5t-21 -83.5t-55 -53.5q-25 -12 -51 -15.5t-83 -3.5h-328v-250h418q57 0 83 -3.5t51 -15.5q34 -16 55 -53.5t21 -83.5t-21 -83.5t-55 -53.5q-25 -12 -51 -15.5t-83 -3.5zM911 1725l-139 -139q-23 -23 -38.5 -36t-44.5 -26.5
t-59 -13.5t-59 13.5t-44.5 26.5t-38.5 36l-139 139q-53 53 -65 87q-23 66 34 123q56 56 122 34q36 -13 88 -65l102 -102l102 102q52 52 88 65q66 22 122 -34q57 -57 34 -123q-12 -34 -65 -87z" />
    <glyph glyph-name="ecaron" unicode="&#x11b;" horiz-adv-x="1113" 
d="M861 432h-463q0 -70 52 -120t142 -50q88 0 162 48q63 42 114 42q47 0 88.5 -40.5t41.5 -95.5q0 -77 -102 -148q-116 -80 -308 -80q-512 0 -512 550q0 259 133 404.5t349 145.5q145 0 254.5 -65t165.5 -170t62 -235q4 -98 -44 -146q-18 -18 -43.5 -27.5t-43.5 -11
t-48 -1.5zM398 650h320q0 48 -18 84q-40 84 -142 84q-104 0 -142 -84q-18 -39 -18 -84zM847 1379l-139 -139q-23 -23 -38.5 -36t-44.5 -26.5t-59 -13.5t-59 13.5t-44.5 26.5t-38.5 36l-139 139q-53 53 -65 87q-23 66 34 123q56 56 122 34q36 -13 88 -65l102 -102l102 102
q52 52 88 65q66 22 122 -34q57 -57 34 -123q-12 -34 -65 -87z" />
    <glyph glyph-name="Gcircumflex" unicode="&#x11c;" horiz-adv-x="1252" 
d="M448 712q0 -179 12 -246.5t40 -103.5q20 -27 58 -44.5t82 -17.5q86 0 135 56q45 51 45 116h-4q-57 0 -83 3.5t-51 15.5q-34 16 -55 53.5t-21 83.5t21 83.5t55 53.5q25 12 51 15.5t83 3.5h121q36 0 57 -1.5t53.5 -13t55.5 -34.5t34.5 -55.5t13 -53.5t1.5 -57v-8
q0 -280 -129 -412q-85 -88 -174.5 -124.5t-212.5 -36.5q-240 0 -393 153q-42 42 -71 94t-43.5 98t-22 118t-9 121t-1.5 140t1.5 139.5t9 120t22 117t43.5 97.5t71 94q156 156 393 156q131 0 212 -24.5t147 -83.5q73 -66 104 -136.5t31 -127.5q0 -84 -49 -133t-121 -49
q-56 0 -94 27q-44 30 -93 117q-30 53 -63.5 75.5t-81.5 22.5q-79 0 -126 -62q-32 -42 -43 -110.5t-11 -239.5zM738 1589l-102 102l-102 -102q-52 -52 -88 -65q-66 -22 -122 34q-57 57 -34 123q12 34 65 87l139 139q23 23 38.5 36t44.5 26.5t59 13.5t59 -13.5t44.5 -26.5
t38.5 -36l139 -139q53 -53 65 -87q23 -66 -34 -123q-56 -56 -122 -34q-36 13 -88 65z" />
    <glyph glyph-name="gcircumflex" unicode="&#x11d;" horiz-adv-x="1122" 
d="M670 84v74q-90 -90 -232 -90q-156 0 -252 96q-67 67 -83.5 153.5t-16.5 260.5t16.5 260.5t83.5 153.5q96 96 254 96q79 0 133.5 -24t106.5 -76q50 96 154 96q49 0 87.5 -22t56.5 -58q13 -26 16.5 -53t3.5 -89v-784q0 -192 -133.5 -315t-352.5 -123q-170 0 -286 64
q-104 57 -104 146q0 57 40 96.5t88 39.5q50 0 112 -30q83 -40 134 -40q90 0 132 48t42 120zM542 364q35 0 59.5 12.5t37.5 30.5t20.5 49t9 57t1.5 65t-1.5 65t-9 57t-20.5 49t-37.5 30.5t-59.5 12.5t-59.5 -12.5t-37.5 -30.5t-20.5 -49t-9 -57t-1.5 -65t1.5 -65t9 -57
t20.5 -49t37.5 -30.5t59.5 -12.5zM645 1243l-102 102l-102 -102q-52 -52 -88 -65q-66 -22 -122 34q-57 57 -34 123q12 34 65 87l139 139q23 23 38.5 36t44.5 26.5t59 13.5t59 -13.5t44.5 -26.5t38.5 -36l139 -139q53 -53 65 -87q23 -66 -34 -123q-56 -56 -122 -34
q-36 13 -88 65z" />
    <glyph glyph-name="Gbreve" unicode="&#x11e;" horiz-adv-x="1252" 
d="M448 712q0 -179 12 -246.5t40 -103.5q20 -27 58 -44.5t82 -17.5q86 0 135 56q45 51 45 116h-4q-57 0 -83 3.5t-51 15.5q-34 16 -55 53.5t-21 83.5t21 83.5t55 53.5q25 12 51 15.5t83 3.5h121q36 0 57 -1.5t53.5 -13t55.5 -34.5t34.5 -55.5t13 -53.5t1.5 -57v-8
q0 -280 -129 -412q-85 -88 -174.5 -124.5t-212.5 -36.5q-240 0 -393 153q-42 42 -71 94t-43.5 98t-22 118t-9 121t-1.5 140t1.5 139.5t9 120t22 117t43.5 97.5t71 94q156 156 393 156q131 0 212 -24.5t147 -83.5q73 -66 104 -136.5t31 -127.5q0 -84 -49 -133t-121 -49
q-56 0 -94 27q-44 30 -93 117q-30 53 -63.5 75.5t-81.5 22.5q-79 0 -126 -62q-32 -42 -43 -110.5t-11 -239.5zM904 1643q-61 -51 -121.5 -71.5t-146.5 -20.5t-146.5 20.5t-121.5 71.5q-69 57 -69 117q0 42 30 78q37 43 85 43q33 0 71 -27q74 -55 151 -55t151 55q38 27 71 27
q48 0 85 -43q30 -36 30 -78q0 -60 -69 -117z" />
    <glyph glyph-name="gbreve" unicode="&#x11f;" horiz-adv-x="1122" 
d="M670 84v74q-90 -90 -232 -90q-156 0 -252 96q-67 67 -83.5 153.5t-16.5 260.5t16.5 260.5t83.5 153.5q96 96 254 96q79 0 133.5 -24t106.5 -76q50 96 154 96q49 0 87.5 -22t56.5 -58q13 -26 16.5 -53t3.5 -89v-784q0 -192 -133.5 -315t-352.5 -123q-170 0 -286 64
q-104 57 -104 146q0 57 40 96.5t88 39.5q50 0 112 -30q83 -40 134 -40q90 0 132 48t42 120zM542 364q35 0 59.5 12.5t37.5 30.5t20.5 49t9 57t1.5 65t-1.5 65t-9 57t-20.5 49t-37.5 30.5t-59.5 12.5t-59.5 -12.5t-37.5 -30.5t-20.5 -49t-9 -57t-1.5 -65t1.5 -65t9 -57
t20.5 -49t37.5 -30.5t59.5 -12.5zM811 1297q-61 -51 -121 -71.5t-147 -20.5t-147 20.5t-121 71.5q-69 57 -69 117q0 42 30 78q37 43 85 43q33 0 71 -27q74 -55 151 -55t151 55q38 27 71 27q48 0 85 -43q30 -36 30 -78q0 -60 -69 -117z" />
    <glyph glyph-name="Gdotaccent" unicode="&#x120;" horiz-adv-x="1252" 
d="M448 712q0 -179 12 -246.5t40 -103.5q20 -27 58 -44.5t82 -17.5q86 0 135 56q45 51 45 116h-4q-57 0 -83 3.5t-51 15.5q-34 16 -55 53.5t-21 83.5t21 83.5t55 53.5q25 12 51 15.5t83 3.5h121q36 0 57 -1.5t53.5 -13t55.5 -34.5t34.5 -55.5t13 -53.5t1.5 -57v-8
q0 -280 -129 -412q-85 -88 -174.5 -124.5t-212.5 -36.5q-240 0 -393 153q-42 42 -71 94t-43.5 98t-22 118t-9 121t-1.5 140t1.5 139.5t9 120t22 117t43.5 97.5t71 94q156 156 393 156q131 0 212 -24.5t147 -83.5q73 -66 104 -136.5t31 -127.5q0 -84 -49 -133t-121 -49
q-56 0 -94 27q-44 30 -93 117q-30 53 -63.5 75.5t-81.5 22.5q-79 0 -126 -62q-32 -42 -43 -110.5t-11 -239.5zM636 1550q-66 0 -113 47t-47 113t47 113t113 47t113 -47t47 -113t-47 -113t-113 -47z" />
    <glyph glyph-name="gdotaccent" unicode="&#x121;" horiz-adv-x="1122" 
d="M670 84v74q-90 -90 -232 -90q-156 0 -252 96q-67 67 -83.5 153.5t-16.5 260.5t16.5 260.5t83.5 153.5q96 96 254 96q79 0 133.5 -24t106.5 -76q50 96 154 96q49 0 87.5 -22t56.5 -58q13 -26 16.5 -53t3.5 -89v-784q0 -192 -133.5 -315t-352.5 -123q-170 0 -286 64
q-104 57 -104 146q0 57 40 96.5t88 39.5q50 0 112 -30q83 -40 134 -40q90 0 132 48t42 120zM542 364q35 0 59.5 12.5t37.5 30.5t20.5 49t9 57t1.5 65t-1.5 65t-9 57t-20.5 49t-37.5 30.5t-59.5 12.5t-59.5 -12.5t-37.5 -30.5t-20.5 -49t-9 -57t-1.5 -65t1.5 -65t9 -57
t20.5 -49t37.5 -30.5t59.5 -12.5zM543 1204q-66 0 -113 47t-47 113t47 113t113 47t113 -47t47 -113t-47 -113t-113 -47z" />
    <glyph glyph-name="Gcommaaccent" unicode="&#x122;" horiz-adv-x="1252" 
d="M448 712q0 -179 12 -246.5t40 -103.5q20 -27 58 -44.5t82 -17.5q86 0 135 56q45 51 45 116h-4q-57 0 -83 3.5t-51 15.5q-34 16 -55 53.5t-21 83.5t21 83.5t55 53.5q25 12 51 15.5t83 3.5h121q36 0 57 -1.5t53.5 -13t55.5 -34.5t34.5 -55.5t13 -53.5t1.5 -57v-8
q0 -280 -129 -412q-85 -88 -174.5 -124.5t-212.5 -36.5q-240 0 -393 153q-42 42 -71 94t-43.5 98t-22 118t-9 121t-1.5 140t1.5 139.5t9 120t22 117t43.5 97.5t71 94q156 156 393 156q131 0 212 -24.5t147 -83.5q73 -66 104 -136.5t31 -127.5q0 -84 -49 -133t-121 -49
q-56 0 -94 27q-44 30 -93 117q-30 53 -63.5 75.5t-81.5 22.5q-79 0 -126 -62q-32 -42 -43 -110.5t-11 -239.5zM746 -328l-75 -120q-43 -68 -67 -85q-32 -22 -69 -22q-39 0 -76 23q-73 45 -66 118q3 39 48 110l75 120q43 68 67 85q32 22 69 22q39 0 76 -23q73 -45 66 -118
q-3 -39 -48 -110z" />
    <glyph glyph-name="gcommaaccent" unicode="&#x123;" horiz-adv-x="1122" 
d="M670 84v74q-90 -90 -232 -90q-156 0 -252 96q-67 67 -83.5 153.5t-16.5 260.5t16.5 260.5t83.5 153.5q96 96 254 96q79 0 133.5 -24t106.5 -76q50 96 154 96q49 0 87.5 -22t56.5 -58q13 -26 16.5 -53t3.5 -89v-784q0 -192 -133.5 -315t-352.5 -123q-170 0 -286 64
q-104 57 -104 146q0 57 40 96.5t88 39.5q50 0 112 -30q83 -40 134 -40q90 0 132 48t42 120zM542 364q35 0 59.5 12.5t37.5 30.5t20.5 49t9 57t1.5 65t-1.5 65t-9 57t-20.5 49t-37.5 30.5t-59.5 12.5t-59.5 -12.5t-37.5 -30.5t-20.5 -49t-9 -57t-1.5 -65t1.5 -65t9 -57
t20.5 -49t37.5 -30.5t59.5 -12.5zM792 1408l-75 -120q-43 -68 -67 -85q-32 -22 -69 -22q-39 0 -76 23q-73 45 -66 118q3 39 48 110l75 120q43 68 67 85q32 22 69 22q39 0 76 -23q73 -45 66 -118q-3 -39 -48 -110z" />
    <glyph glyph-name="Hcircumflex" unicode="&#x124;" horiz-adv-x="1360" 
d="M1218 228q0 -65 -3.5 -92.5t-18.5 -57.5q-19 -38 -60.5 -62t-93.5 -24t-93.5 24t-60.5 62q-15 30 -18.5 57.5t-3.5 92.5v336h-372v-336q0 -65 -3.5 -92.5t-18.5 -57.5q-19 -38 -60.5 -62t-93.5 -24t-93.5 24t-60.5 62q-15 30 -18.5 57.5t-3.5 92.5v968q0 65 3.5 92.5
t18.5 57.5q19 38 60.5 62t93.5 24t93.5 -24t60.5 -62q15 -30 18.5 -57.5t3.5 -92.5v-320h372v320q0 65 3.5 92.5t18.5 57.5q19 38 60.5 62t93.5 24t93.5 -24t60.5 -62q15 -30 18.5 -57.5t3.5 -92.5v-968zM781 1589l-102 102l-102 -102q-52 -52 -88 -65q-66 -22 -122 34
q-57 57 -34 123q12 34 65 87l139 139q23 23 38.5 36t44.5 26.5t59 13.5t59 -13.5t44.5 -26.5t38.5 -36l139 -139q53 -53 65 -87q23 -66 -34 -123q-56 -56 -122 -34q-36 13 -88 65z" />
    <glyph glyph-name="hcircumflex" unicode="&#x125;" horiz-adv-x="1158" 
d="M716 214v430q0 44 -14 75t-36 46t-42 21t-40 6t-40 -6t-42 -21t-36 -46t-14 -75v-430q0 -62 -3.5 -89t-16.5 -53q-18 -36 -56.5 -58t-87.5 -22t-87.5 22t-56.5 58q-13 26 -16.5 53t-3.5 89v996q0 62 3.5 89t16.5 53q18 36 56.5 58t87.5 22t87.5 -22t56.5 -58
q13 -26 16.5 -53t3.5 -89v-215q48 44 113.5 68.5t128.5 24.5q150 0 242 -92q64 -64 86 -137t22 -171v-474q0 -62 -3.5 -89t-16.5 -53q-18 -36 -56.5 -58t-87.5 -22t-87.5 22t-56.5 58q-13 26 -16.5 53t-3.5 89zM390 1579l-102 102l-102 -102q-52 -52 -88 -65
q-66 -22 -122 34q-57 57 -34 123q12 34 65 87l139 139q23 23 38.5 36t44.5 26.5t59 13.5t59 -13.5t44.5 -26.5t38.5 -36l139 -139q53 -53 65 -87q23 -66 -34 -123q-56 -56 -122 -34q-36 13 -88 65z" />
    <glyph glyph-name="Hbar" unicode="&#x126;" horiz-adv-x="1484" 
d="M928 228v336h-372v-336q0 -65 -3.5 -92.5t-18.5 -57.5q-19 -38 -60.5 -62t-93.5 -24t-93.5 24t-60.5 62q-15 30 -18.5 57.5t-3.5 92.5v788h-16q-75 0 -108 16q-62 30 -62 110t62 110q33 16 108 16h17q3 41 21 78q19 38 60.5 62t93.5 24t93.5 -24t60.5 -62q17 -34 20 -78
h375q3 41 21 78q19 38 60.5 62t93.5 24t93.5 -24t60.5 -62q17 -34 20 -78h18q75 0 108 -16q62 -30 62 -110t-62 -110q-33 -16 -108 -16h-16v-788q0 -65 -3.5 -92.5t-18.5 -57.5q-19 -38 -60.5 -62t-93.5 -24t-93.5 24t-60.5 62q-15 30 -18.5 57.5t-3.5 92.5zM556 876h372
v140h-372v-140z" />
    <glyph glyph-name="hbar" unicode="&#x127;" horiz-adv-x="1158" 
d="M716 214v430q0 44 -14 75t-36 46t-42 21t-40 6t-40 -6t-42 -21t-36 -46t-14 -75v-430q0 -62 -3.5 -89t-16.5 -53q-18 -36 -56.5 -58t-87.5 -22t-87.5 22t-56.5 58q-13 26 -16.5 53t-3.5 89v887q-34 1 -62 15q-62 30 -62 110t62 110q31 15 82 16q18 36 56.5 58t87.5 22
t87.5 -22t56.5 -58h33q75 0 108 -16q62 -30 62 -110t-62 -110q-33 -16 -108 -16h-13v-105q48 44 113.5 68.5t128.5 24.5q150 0 242 -92q64 -64 86 -137t22 -171v-474q0 -62 -3.5 -89t-16.5 -53q-18 -36 -56.5 -58t-87.5 -22t-87.5 22t-56.5 58q-13 26 -16.5 53t-3.5 89z" />
    <glyph glyph-name="Itilde" unicode="&#x128;" horiz-adv-x="636" 
d="M142 228v968q0 65 3.5 92.5t18.5 57.5q19 38 60.5 62t93.5 24t93.5 -24t60.5 -62q15 -30 18.5 -57.5t3.5 -92.5v-968q0 -65 -3.5 -92.5t-18.5 -57.5q-19 -38 -60.5 -62t-93.5 -24t-93.5 24t-60.5 62q-15 30 -18.5 57.5t-3.5 92.5zM716 1740q0 -57 -65 -111
q-43 -34 -87.5 -48t-106.5 -14q-47 0 -81.5 8.5t-82.5 34.5q-56 31 -105 31q-45 0 -87 -29q-38 -27 -73 -27q-52 0 -84 40q-24 29 -24 77q0 57 65 111q43 34 87.5 48t106.5 14q47 0 81.5 -8.5t82.5 -34.5q56 -31 105 -31q45 0 87 29q38 27 73 27q52 0 84 -40q24 -29 24 -77z
" />
    <glyph glyph-name="itilde" unicode="&#x129;" horiz-adv-x="576" 
d="M124 214v606q0 62 3.5 89t16.5 53q18 36 56.5 58t87.5 22t87.5 -22t56.5 -58q13 -26 16.5 -53t3.5 -89v-606q0 -62 -3.5 -89t-16.5 -53q-18 -36 -56.5 -58t-87.5 -22t-87.5 22t-56.5 58q-13 26 -16.5 53t-3.5 89zM686 1395q0 -57 -65 -111q-43 -34 -87.5 -48t-106.5 -14
q-47 0 -81.5 8.5t-82.5 34.5q-56 31 -105 31q-45 0 -87 -29q-38 -27 -73 -27q-52 0 -84 40q-24 29 -24 77q0 57 65 111q43 34 87.5 48t106.5 14q47 0 81.5 -8.5t82.5 -34.5q56 -31 105 -31q45 0 87 29q38 27 73 27q52 0 84 -40q24 -29 24 -77z" />
    <glyph glyph-name="Imacron" unicode="&#x12a;" horiz-adv-x="636" 
d="M142 228v968q0 65 3.5 92.5t18.5 57.5q19 38 60.5 62t93.5 24t93.5 -24t60.5 -62q15 -30 18.5 -57.5t3.5 -92.5v-968q0 -65 -3.5 -92.5t-18.5 -57.5q-19 -38 -60.5 -62t-93.5 -24t-93.5 24t-60.5 62q-15 30 -18.5 57.5t-3.5 92.5zM482 1604h-328q-75 0 -108 16
q-62 30 -62 110t62 110q33 16 108 16h328q75 0 108 -16q62 -30 62 -110t-62 -110q-33 -16 -108 -16z" />
    <glyph glyph-name="imacron" unicode="&#x12b;" horiz-adv-x="576" 
d="M124 214v606q0 62 3.5 89t16.5 53q18 36 56.5 58t87.5 22t87.5 -22t56.5 -58q13 -26 16.5 -53t3.5 -89v-606q0 -62 -3.5 -89t-16.5 -53q-18 -36 -56.5 -58t-87.5 -22t-87.5 22t-56.5 58q-13 26 -16.5 53t-3.5 89zM452 1258h-328q-75 0 -108 16q-62 30 -62 110t62 110
q33 16 108 16h328q75 0 108 -16q62 -30 62 -110t-62 -110q-33 -16 -108 -16z" />
    <glyph glyph-name="Ibreve" unicode="&#x12c;" horiz-adv-x="636" 
d="M142 228v968q0 65 3.5 92.5t18.5 57.5q19 38 60.5 62t93.5 24t93.5 -24t60.5 -62q15 -30 18.5 -57.5t3.5 -92.5v-968q0 -65 -3.5 -92.5t-18.5 -57.5q-19 -38 -60.5 -62t-93.5 -24t-93.5 24t-60.5 62q-15 30 -18.5 57.5t-3.5 92.5zM586 1643q-61 -51 -121.5 -71.5
t-146.5 -20.5t-146.5 20.5t-121.5 71.5q-69 57 -69 117q0 42 30 78q37 43 85 43q33 0 71 -27q74 -55 151 -55t151 55q38 27 71 27q48 0 85 -43q30 -36 30 -78q0 -60 -69 -117z" />
    <glyph glyph-name="ibreve" unicode="&#x12d;" horiz-adv-x="576" 
d="M124 214v606q0 62 3.5 89t16.5 53q18 36 56.5 58t87.5 22t87.5 -22t56.5 -58q13 -26 16.5 -53t3.5 -89v-606q0 -62 -3.5 -89t-16.5 -53q-18 -36 -56.5 -58t-87.5 -22t-87.5 22t-56.5 58q-13 26 -16.5 53t-3.5 89zM556 1297q-61 -51 -121.5 -71.5t-146.5 -20.5
t-146.5 20.5t-121.5 71.5q-69 57 -69 117q0 42 30 78q37 43 85 43q33 0 71 -27q74 -55 151 -55t151 55q38 27 71 27q48 0 85 -43q30 -36 30 -78q0 -60 -69 -117z" />
    <glyph glyph-name="Iogonek" unicode="&#x12e;" horiz-adv-x="636" 
d="M142 228v968q0 65 3.5 92.5t18.5 57.5q19 38 60.5 62t93.5 24t93.5 -24t60.5 -62q15 -30 18.5 -57.5t3.5 -92.5v-968q0 -65 -3.5 -92.5t-18.5 -57.5q-19 -38 -60.5 -62t-93.5 -24t-93.5 24t-60.5 62q-15 30 -18.5 57.5t-3.5 92.5zM407 -328l-75 -120q-43 -68 -67 -85
q-32 -22 -69 -22q-39 0 -76 23q-73 45 -66 118q3 39 48 110l75 120q43 68 67 85q32 22 69 22q39 0 76 -23q73 -45 66 -118q-3 -39 -48 -110z" />
    <glyph glyph-name="iogonek" unicode="&#x12f;" horiz-adv-x="576" 
d="M124 214v606q0 62 3.5 89t16.5 53q18 36 56.5 58t87.5 22t87.5 -22t56.5 -58q13 -26 16.5 -53t3.5 -89v-606q0 -62 -3.5 -89t-16.5 -53q-18 -36 -56.5 -58t-87.5 -22t-87.5 22t-56.5 58q-13 26 -16.5 53t-3.5 89zM288 1142q-75 0 -128.5 53.5t-53.5 128.5t53.5 128.5
t128.5 53.5t128.5 -53.5t53.5 -128.5t-53.5 -128.5t-128.5 -53.5zM369 -328l-75 -120q-43 -68 -67 -85q-32 -22 -69 -22q-39 0 -76 23q-73 45 -66 118q3 39 48 110l75 120q43 68 67 85q32 22 69 22q39 0 76 -23q73 -45 66 -118q-3 -39 -48 -110z" />
    <glyph glyph-name="Idotaccent" unicode="&#x130;" horiz-adv-x="636" 
d="M142 228v968q0 65 3.5 92.5t18.5 57.5q19 38 60.5 62t93.5 24t93.5 -24t60.5 -62q15 -30 18.5 -57.5t3.5 -92.5v-968q0 -65 -3.5 -92.5t-18.5 -57.5q-19 -38 -60.5 -62t-93.5 -24t-93.5 24t-60.5 62q-15 30 -18.5 57.5t-3.5 92.5zM318 1550q-66 0 -113 47t-47 113t47 113
t113 47t113 -47t47 -113t-47 -113t-113 -47z" />
    <glyph glyph-name="dotlessi" unicode="&#x131;" horiz-adv-x="576" 
d="M124 214v606q0 62 3.5 89t16.5 53q18 36 56.5 58t87.5 22t87.5 -22t56.5 -58q13 -26 16.5 -53t3.5 -89v-606q0 -62 -3.5 -89t-16.5 -53q-18 -36 -56.5 -58t-87.5 -22t-87.5 22t-56.5 58q-13 26 -16.5 53t-3.5 89z" />
    <glyph glyph-name="IJ" unicode="&#x132;" horiz-adv-x="1669" 
d="M142 228v968q0 65 3.5 92.5t18.5 57.5q19 38 60.5 62t93.5 24t93.5 -24t60.5 -62q15 -30 18.5 -57.5t3.5 -92.5v-968q0 -65 -3.5 -92.5t-18.5 -57.5q-19 -38 -60.5 -62t-93.5 -24t-93.5 24t-60.5 62q-15 30 -18.5 57.5t-3.5 92.5zM1195 496v700q0 65 3.5 92.5t18.5 57.5
q19 38 60.5 62t93.5 24t93.5 -24t60.5 -62q15 -30 18.5 -57.5t3.5 -92.5v-708q0 -122 -46 -220t-123 -157.5t-171.5 -91t-197.5 -31.5q-174 0 -278 77q-76 56 -76 137q0 31 14 62t36 50q40 34 92 34q12 0 22.5 -1t23 -4.5t18 -5.5t23 -8.5t23.5 -8.5q47 -18 102 -18
q85 0 135.5 48t50.5 146z" />
    <glyph glyph-name="ij" unicode="&#x133;" horiz-adv-x="1152" 
d="M124 214v606q0 62 3.5 89t16.5 53q18 36 56.5 58t87.5 22t87.5 -22t56.5 -58q13 -26 16.5 -53t3.5 -89v-606q0 -62 -3.5 -89t-16.5 -53q-18 -36 -56.5 -58t-87.5 -22t-87.5 22t-56.5 58q-13 26 -16.5 53t-3.5 89zM288 1142q-75 0 -128.5 53.5t-53.5 128.5t53.5 128.5
t128.5 53.5t128.5 -53.5t53.5 -128.5t-53.5 -128.5t-128.5 -53.5zM698 -360h-6q-88 0 -132 22q-68 34 -68 116q0 85 66 118q31 15 81 18q61 3 61 68v838q0 62 3.5 89t16.5 53q18 36 56.5 58t87.5 22t87.5 -22t56.5 -58q13 -26 16.5 -53t3.5 -89v-862q0 -58 -19.5 -112.5
t-58 -101.5t-104 -75.5t-148.5 -28.5zM864 1142q-75 0 -128.5 53.5t-53.5 128.5t53.5 128.5t128.5 53.5t128.5 -53.5t53.5 -128.5t-53.5 -128.5t-128.5 -53.5z" />
    <glyph glyph-name="Jcircumflex" unicode="&#x134;" horiz-adv-x="1058" 
d="M588 496v700q0 65 3.5 92.5t18.5 57.5q19 38 60.5 62t93.5 24t93.5 -24t60.5 -62q15 -30 18.5 -57.5t3.5 -92.5v-708q0 -122 -46 -220t-123 -157.5t-171.5 -91t-197.5 -31.5q-174 0 -278 77q-76 56 -76 137q0 31 14 62t36 50q40 34 92 34q12 0 22.5 -1t23 -4.5t18 -5.5
t23 -8.5t23.5 -8.5q47 -18 102 -18q85 0 135.5 48t50.5 146zM862 1589l-102 102l-102 -102q-52 -52 -88 -65q-66 -22 -122 34q-57 57 -34 123q12 34 65 87l139 139q23 23 38.5 36t44.5 26.5t59 13.5t59 -13.5t44.5 -26.5t38.5 -36l139 -139q53 -53 65 -87q23 -66 -34 -123
q-56 -56 -122 -34q-36 13 -88 65z" />
    <glyph glyph-name="jcircumflex" unicode="&#x135;" horiz-adv-x="576" 
d="M122 -360h-6q-88 0 -132 22q-68 34 -68 116q0 85 66 118q31 15 81 18q61 3 61 68v838q0 62 3.5 89t16.5 53q18 36 56.5 58t87.5 22t87.5 -22t56.5 -58q13 -26 16.5 -53t3.5 -89v-862q0 -58 -19.5 -112.5t-58 -101.5t-104 -75.5t-148.5 -28.5zM390 1243l-102 102
l-102 -102q-52 -52 -88 -65q-66 -22 -122 34q-57 57 -34 123q12 34 65 87l139 139q23 23 38.5 36t44.5 26.5t59 13.5t59 -13.5t44.5 -26.5t38.5 -36l139 -139q53 -53 65 -87q23 -66 -34 -123q-56 -56 -122 -34q-36 13 -88 65z" />
    <glyph glyph-name="Kcommaaccent" unicode="&#x136;" horiz-adv-x="1277" 
d="M874 132l-259 453l-121 -145v-212q0 -65 -3.5 -92.5t-18.5 -57.5q-19 -38 -60.5 -62t-93.5 -24t-93.5 24t-60.5 62q-15 30 -18.5 57.5t-3.5 92.5v968q0 65 3.5 92.5t18.5 57.5q19 38 60.5 62t93.5 24t93.5 -24t60.5 -62q15 -30 18.5 -57.5t3.5 -92.5v-272l334 401
q49 60 82.5 83.5t80.5 23.5q57 0 106 -41q61 -51 61 -119q0 -39 -16 -71t-62 -86l-223 -268l312 -546q31 -53 41.5 -83t10.5 -62q0 -90 -86 -139q-44 -25 -88 -25q-32 0 -58.5 11t-48 34t-34.5 42.5t-32 52.5zM789 -328l-75 -120q-43 -68 -67 -85q-32 -22 -69 -22
q-39 0 -76 23q-73 45 -66 118q3 39 48 110l75 120q43 68 67 85q32 22 69 22q39 0 76 -23q73 -45 66 -118q-3 -39 -48 -110z" />
    <glyph glyph-name="kcommaaccent" unicode="&#x137;" horiz-adv-x="1062" 
d="M692 114l-163 262l-77 -89v-73q0 -62 -3.5 -89t-16.5 -53q-18 -36 -56.5 -58t-87.5 -22t-87.5 22t-56.5 58q-13 26 -16.5 53t-3.5 89v996q0 62 3.5 89t16.5 53q18 36 56.5 58t87.5 22t87.5 -22t56.5 -58q13 -26 16.5 -53t3.5 -89v-510l253 290q45 51 76 72t70 21
q57 0 100 -38q53 -47 53 -109q0 -33 -17 -64.5t-58 -77.5l-172 -197l199 -318q54 -86 54 -140q0 -73 -75 -120q-43 -27 -85 -27q-50 0 -83.5 28t-74.5 94zM645 -328l-75 -120q-43 -68 -67 -85q-32 -22 -69 -22q-39 0 -76 23q-73 45 -66 118q3 39 48 110l75 120q43 68 67 85
q32 22 69 22q39 0 76 -23q73 -45 66 -118q-3 -39 -48 -110z" />
    <glyph glyph-name="kgreenlandic" unicode="&#x138;" horiz-adv-x="1065" 
d="M693 114l-164 262l-77 -89v-73q0 -62 -3.5 -89t-16.5 -53q-18 -36 -56.5 -58t-87.5 -22t-87.5 22t-56.5 58q-13 26 -16.5 53t-3.5 89v648q0 62 3.5 89t16.5 53q18 36 56.5 58t87.5 22t87.5 -22t56.5 -58q13 -26 16.5 -53t3.5 -89v-160l253 288q47 53 75.5 73t67.5 20
q55 0 101 -40q55 -49 55 -111q0 -31 -17 -61.5t-58 -76.5l-172 -196l200 -319q32 -51 44 -79t12 -57q0 -35 -20.5 -68t-56.5 -55q-41 -28 -88 -28q-50 0 -81.5 27.5t-73.5 94.5z" />
    <glyph glyph-name="Lacute" unicode="&#x139;" horiz-adv-x="1148" 
d="M892 0h-535q-36 0 -57 1.5t-53.5 13t-55.5 34.5t-34.5 55.5t-13 53.5t-1.5 57v981q0 65 3.5 92.5t18.5 57.5q19 38 60.5 62t93.5 24t93.5 -24t60.5 -62q15 -30 18.5 -57.5t3.5 -92.5v-884h396q57 0 83 -3.5t51 -15.5q34 -16 55 -53.5t21 -83.5t-21 -83.5t-55 -53.5
q-25 -12 -51 -15.5t-81 -3.5zM566 1754l-75 -120q-43 -68 -67 -85q-32 -22 -69 -22q-39 0 -76 23q-73 45 -66 118q3 39 48 110l75 120q43 68 67 85q32 22 69 22q39 0 76 -23q73 -45 66 -118q-3 -39 -48 -110z" />
    <glyph glyph-name="lacute" unicode="&#x13a;" horiz-adv-x="664" 
d="M450 0h-6q-83 0 -148.5 28.5t-104 75.5t-58 101.5t-19.5 112.5v892q0 62 3.5 89t16.5 53q18 36 56.5 58t87.5 22t87.5 -22t56.5 -58q13 -26 16.5 -53t3.5 -89v-868q0 -65 61 -68q50 -3 81 -18q66 -33 66 -118q0 -82 -68 -116q-44 -22 -132 -22zM527 1735l-75 -120
q-43 -68 -67 -85q-32 -22 -69 -22q-39 0 -76 23q-73 45 -66 118q3 39 48 110l75 120q43 68 67 85q32 22 69 22q39 0 76 -23q73 -45 66 -118q-3 -39 -48 -110z" />
    <glyph glyph-name="Lcommaaccent" unicode="&#x13b;" horiz-adv-x="1148" 
d="M892 0h-535q-36 0 -57 1.5t-53.5 13t-55.5 34.5t-34.5 55.5t-13 53.5t-1.5 57v981q0 65 3.5 92.5t18.5 57.5q19 38 60.5 62t93.5 24t93.5 -24t60.5 -62q15 -30 18.5 -57.5t3.5 -92.5v-884h396q57 0 83 -3.5t51 -15.5q34 -16 55 -53.5t21 -83.5t-21 -83.5t-55 -53.5
q-25 -12 -51 -15.5t-81 -3.5zM709 -328l-75 -120q-43 -68 -67 -85q-32 -22 -69 -22q-39 0 -76 23q-73 45 -66 118q3 39 48 110l75 120q43 68 67 85q32 22 69 22q39 0 76 -23q73 -45 66 -118q-3 -39 -48 -110z" />
    <glyph glyph-name="lcommaaccent" unicode="&#x13c;" horiz-adv-x="664" 
d="M450 0h-6q-83 0 -148.5 28.5t-104 75.5t-58 101.5t-19.5 112.5v892q0 62 3.5 89t16.5 53q18 36 56.5 58t87.5 22t87.5 -22t56.5 -58q13 -26 16.5 -53t3.5 -89v-868q0 -65 61 -68q50 -3 81 -18q66 -33 66 -118q0 -82 -68 -116q-44 -22 -132 -22zM475 -328l-75 -120
q-43 -68 -67 -85q-32 -22 -69 -22q-39 0 -76 23q-73 45 -66 118q3 39 48 110l75 120q43 68 67 85q32 22 69 22q39 0 76 -23q73 -45 66 -118q-3 -39 -48 -110z" />
    <glyph glyph-name="Lcaron" unicode="&#x13d;" horiz-adv-x="1148" 
d="M892 0h-535q-36 0 -57 1.5t-53.5 13t-55.5 34.5t-34.5 55.5t-13 53.5t-1.5 57v981q0 65 3.5 92.5t18.5 57.5q19 38 60.5 62t93.5 24t93.5 -24t60.5 -62q15 -30 18.5 -57.5t3.5 -92.5v-884h396q57 0 83 -3.5t51 -15.5q34 -16 55 -53.5t21 -83.5t-21 -83.5t-55 -53.5
q-25 -12 -51 -15.5t-81 -3.5zM987 1414l-49 -147q-16 -48 -26 -69t-28 -39q-32 -32 -83 -32q-49 0 -89 27t-50 69q-4 16 -4.5 31t3.5 33.5t7.5 30t11.5 35.5l49 147q16 48 26 69t28 39q32 32 83 32q49 0 89 -27t50 -69q4 -16 4.5 -31t-3.5 -33.5t-7.5 -30t-11.5 -35.5z" />
    <glyph glyph-name="lcaron" unicode="&#x13e;" horiz-adv-x="664" 
d="M450 0h-6q-83 0 -148.5 28.5t-104 75.5t-58 101.5t-19.5 112.5v892q0 62 3.5 89t16.5 53q18 36 56.5 58t87.5 22t87.5 -22t56.5 -58q13 -26 16.5 -53t3.5 -89v-868q0 -65 61 -68q50 -3 81 -18q66 -33 66 -118q0 -82 -68 -116q-44 -22 -132 -22zM866 1414l-49 -147
q-16 -48 -26 -69t-28 -39q-32 -32 -83 -32q-49 0 -89 27t-50 69q-4 16 -4.5 31t3.5 33.5t7.5 30t11.5 35.5l49 147q16 48 26 69t28 39q32 32 83 32q49 0 89 -27t50 -69q4 -16 4.5 -31t-3.5 -33.5t-7.5 -30t-11.5 -35.5z" />
    <glyph glyph-name="Ldot" unicode="&#x13f;" horiz-adv-x="1148" 
d="M892 0h-535q-36 0 -57 1.5t-53.5 13t-55.5 34.5t-34.5 55.5t-13 53.5t-1.5 57v981q0 65 3.5 92.5t18.5 57.5q19 38 60.5 62t93.5 24t93.5 -24t60.5 -62q15 -30 18.5 -57.5t3.5 -92.5v-884h396q57 0 83 -3.5t51 -15.5q34 -16 55 -53.5t21 -83.5t-21 -83.5t-55 -53.5
q-25 -12 -51 -15.5t-81 -3.5zM886 559q-66 0 -113 47t-47 113t47 113t113 47t113 -47t47 -113t-47 -113t-113 -47z" />
    <glyph glyph-name="ldot" unicode="&#x140;" horiz-adv-x="926" 
d="M450 0h-6q-83 0 -148.5 28.5t-104 75.5t-58 101.5t-19.5 112.5v892q0 62 3.5 89t16.5 53q18 36 56.5 58t87.5 22t87.5 -22t56.5 -58q13 -26 16.5 -53t3.5 -89v-868q0 -65 61 -68q50 -3 81 -18q66 -33 66 -118q0 -82 -68 -116q-44 -22 -132 -22zM733 424q-66 0 -113 47
t-47 113t47 113t113 47t113 -47t47 -113t-47 -113t-113 -47z" />
    <glyph glyph-name="Lslash" unicode="&#x141;" horiz-adv-x="1210" 
d="M954 0h-535q-36 0 -57 1.5t-53.5 13t-55.5 34.5t-34.5 55.5t-13 53.5t-1.5 57v252q-26 -11 -59 -11q-47 0 -85 38q-42 42 -42 104q0 50 28 78.5t91 60.5l67 33v426q0 65 3.5 92.5t18.5 57.5q19 38 60.5 62t93.5 24t93.5 -24t60.5 -62q15 -30 18.5 -57.5t3.5 -92.5v-250
l63 32q47 24 67 30.5t47 6.5q47 0 85 -38q42 -42 42 -104q0 -50 -28 -78.5t-91 -60.5l-185 -93v-329h396q57 0 83 -3.5t51 -15.5q34 -16 55 -53.5t21 -83.5t-21 -83.5t-55 -53.5q-25 -12 -51 -15.5t-81 -3.5z" />
    <glyph glyph-name="lslash" unicode="&#x142;" horiz-adv-x="761" 
d="M519 0h-6q-83 0 -148.5 28.5t-104 75.5t-58 101.5t-19.5 112.5v248q-24 -9 -51 -9q-70 0 -105 70q-15 30 -15 62q0 37 22 65q14 18 32 30.5t58 32.5l59 29v364q0 62 3.5 89t16.5 53q18 36 56.5 58t87.5 22t87.5 -22t56.5 -58q13 -26 16.5 -53t3.5 -89v-200q48 24 84 24
q70 0 105 -70q15 -30 15 -62q0 -37 -22 -65q-14 -18 -32 -30.5t-58 -32.5l-92 -46v-386q0 -65 61 -68q50 -3 81 -18q66 -33 66 -118q0 -82 -68 -116q-44 -22 -132 -22z" />
    <glyph glyph-name="Nacute" unicode="&#x143;" horiz-adv-x="1400" 
d="M1258 208q0 -58 -9 -96t-37 -66q-54 -54 -132 -54q-57 0 -101 37t-106 129l-379 558v-488q0 -65 -3.5 -92.5t-18.5 -57.5q-19 -38 -60.5 -62t-93.5 -24t-93.5 24t-60.5 62q-15 30 -18.5 57.5t-3.5 92.5v988q0 58 9 96t37 66q54 54 132 54q57 0 101 -37t106 -129l379 -558
v488q0 65 3.5 92.5t18.5 57.5q19 38 60.5 62t93.5 24t93.5 -24t60.5 -62q15 -30 18.5 -57.5t3.5 -92.5v-988zM949 1754l-75 -120q-43 -68 -67 -85q-32 -22 -69 -22q-39 0 -76 23q-73 45 -66 118q3 39 48 110l75 120q43 68 67 85q32 22 69 22q39 0 76 -23q73 -45 66 -118
q-3 -39 -48 -110z" />
    <glyph glyph-name="nacute" unicode="&#x144;" horiz-adv-x="1158" 
d="M716 214v430q0 44 -14 75t-36 46t-42 21t-40 6t-40 -6t-42 -21t-36 -46t-14 -75v-430q0 -62 -3.5 -89t-16.5 -53q-18 -36 -56.5 -58t-87.5 -22t-87.5 22t-56.5 58q-13 26 -16.5 53t-3.5 89v648q0 62 3.5 89t16.5 53q18 36 56.5 58t87.5 22q104 0 154 -96q48 48 116.5 74
t135.5 26q150 0 242 -92q64 -64 86 -137t22 -171v-474q0 -62 -3.5 -89t-16.5 -53q-18 -36 -56.5 -58t-87.5 -22t-87.5 22t-56.5 58q-13 26 -16.5 53t-3.5 89zM833 1408l-75 -120q-43 -68 -67 -85q-32 -22 -69 -22q-39 0 -76 23q-73 45 -66 118q3 39 48 110l75 120
q43 68 67 85q32 22 69 22q39 0 76 -23q73 -45 66 -118q-3 -39 -48 -110z" />
    <glyph glyph-name="Ncommaaccent" unicode="&#x145;" horiz-adv-x="1400" 
d="M1258 208q0 -58 -9 -96t-37 -66q-54 -54 -132 -54q-57 0 -101 37t-106 129l-379 558v-488q0 -65 -3.5 -92.5t-18.5 -57.5q-19 -38 -60.5 -62t-93.5 -24t-93.5 24t-60.5 62q-15 30 -18.5 57.5t-3.5 92.5v988q0 58 9 96t37 66q54 54 132 54q57 0 101 -37t106 -129l379 -558
v488q0 65 3.5 92.5t18.5 57.5q19 38 60.5 62t93.5 24t93.5 -24t60.5 -62q15 -30 18.5 -57.5t3.5 -92.5v-988zM818 -328l-75 -120q-43 -68 -67 -85q-32 -22 -69 -22q-39 0 -76 23q-73 45 -66 118q3 39 48 110l75 120q43 68 67 85q32 22 69 22q39 0 76 -23q73 -45 66 -118
q-3 -39 -48 -110z" />
    <glyph glyph-name="ncommaaccent" unicode="&#x146;" horiz-adv-x="1158" 
d="M716 214v430q0 44 -14 75t-36 46t-42 21t-40 6t-40 -6t-42 -21t-36 -46t-14 -75v-430q0 -62 -3.5 -89t-16.5 -53q-18 -36 -56.5 -58t-87.5 -22t-87.5 22t-56.5 58q-13 26 -16.5 53t-3.5 89v648q0 62 3.5 89t16.5 53q18 36 56.5 58t87.5 22q104 0 154 -96q48 48 116.5 74
t135.5 26q150 0 242 -92q64 -64 86 -137t22 -171v-474q0 -62 -3.5 -89t-16.5 -53q-18 -36 -56.5 -58t-87.5 -22t-87.5 22t-56.5 58q-13 26 -16.5 53t-3.5 89zM660 -328l-75 -120q-43 -68 -67 -85q-32 -22 -69 -22q-39 0 -76 23q-73 45 -66 118q3 39 48 110l75 120
q43 68 67 85q32 22 69 22q39 0 76 -23q73 -45 66 -118q-3 -39 -48 -110z" />
    <glyph glyph-name="Ncaron" unicode="&#x147;" horiz-adv-x="1400" 
d="M1258 208q0 -58 -9 -96t-37 -66q-54 -54 -132 -54q-57 0 -101 37t-106 129l-379 558v-488q0 -65 -3.5 -92.5t-18.5 -57.5q-19 -38 -60.5 -62t-93.5 -24t-93.5 24t-60.5 62q-15 30 -18.5 57.5t-3.5 92.5v988q0 58 9 96t37 66q54 54 132 54q57 0 101 -37t106 -129l379 -558
v488q0 65 3.5 92.5t18.5 57.5q19 38 60.5 62t93.5 24t93.5 -24t60.5 -62q15 -30 18.5 -57.5t3.5 -92.5v-988zM981 1725l-139 -139q-23 -23 -38.5 -36t-44.5 -26.5t-59 -13.5t-59 13.5t-44.5 26.5t-38.5 36l-139 139q-53 53 -65 87q-23 66 34 123q56 56 122 34q36 -13 88 -65
l102 -102l102 102q52 52 88 65q66 22 122 -34q57 -57 34 -123q-12 -34 -65 -87z" />
    <glyph glyph-name="ncaron" unicode="&#x148;" horiz-adv-x="1158" 
d="M716 214v430q0 44 -14 75t-36 46t-42 21t-40 6t-40 -6t-42 -21t-36 -46t-14 -75v-430q0 -62 -3.5 -89t-16.5 -53q-18 -36 -56.5 -58t-87.5 -22t-87.5 22t-56.5 58q-13 26 -16.5 53t-3.5 89v648q0 62 3.5 89t16.5 53q18 36 56.5 58t87.5 22q104 0 154 -96q48 48 116.5 74
t135.5 26q150 0 242 -92q64 -64 86 -137t22 -171v-474q0 -62 -3.5 -89t-16.5 -53q-18 -36 -56.5 -58t-87.5 -22t-87.5 22t-56.5 58q-13 26 -16.5 53t-3.5 89zM865 1379l-139 -139q-23 -23 -38.5 -36t-44.5 -26.5t-59 -13.5t-59 13.5t-44.5 26.5t-38.5 36l-139 139
q-53 53 -65 87q-23 66 34 123q56 56 122 34q36 -13 88 -65l102 -102l102 102q52 52 88 65q66 22 122 -34q57 -57 34 -123q-12 -34 -65 -87z" />
    <glyph glyph-name="napostrophe" unicode="&#x149;" horiz-adv-x="1658" 
d="M1216 214v430q0 44 -14 75t-36 46t-42 21t-40 6t-40 -6t-42 -21t-36 -46t-14 -75v-430q0 -62 -3.5 -89t-16.5 -53q-18 -36 -56.5 -58t-87.5 -22t-87.5 22t-56.5 58q-13 26 -16.5 53t-3.5 89v648q0 62 3.5 89t16.5 53q18 36 56.5 58t87.5 22q104 0 154 -96q48 48 116.5 74
t135.5 26q150 0 242 -92q64 -64 86 -137t22 -171v-474q0 -62 -3.5 -89t-16.5 -53q-18 -36 -56.5 -58t-87.5 -22t-87.5 22t-56.5 58q-13 26 -16.5 53t-3.5 89zM113 1066l67 201q19 57 31 82t33 46q41 41 104 41q53 0 107 -34t62 -98q4 -29 -1.5 -57.5t-23.5 -83.5l-67 -201
q-19 -57 -31 -82t-33 -46q-41 -41 -104 -41q-53 0 -107 34t-62 98q-4 29 1.5 57.5t23.5 83.5z" />
    <glyph glyph-name="Eng" unicode="&#x14a;" horiz-adv-x="1400" 
d="M928 -360h-6q-88 0 -132 22q-68 34 -68 116q0 85 66 118q31 15 81 18q61 3 61 68v97l-436 637v-488q0 -65 -3.5 -92.5t-18.5 -57.5q-19 -38 -60.5 -62t-93.5 -24t-93.5 24t-60.5 62q-15 30 -18.5 57.5t-3.5 92.5v988q0 58 9 96t37 66q54 54 132 54q57 0 101 -37t106 -129
l379 -558v488q0 65 3.5 92.5t18.5 57.5q19 38 60.5 62t93.5 24t93.5 -24t60.5 -62q15 -30 18.5 -57.5t3.5 -92.5v-1238q0 -58 -19.5 -112.5t-58 -101.5t-104 -75.5t-148.5 -28.5z" />
    <glyph glyph-name="eng" unicode="&#x14b;" horiz-adv-x="1158" 
d="M714 -360h-6q-88 0 -132 22q-68 34 -68 116q0 85 66 118q31 15 81 18q61 3 61 68v662q0 44 -14 75t-36 46t-42 21t-40 6t-40 -6t-42 -21t-36 -46t-14 -75v-430q0 -62 -3.5 -89t-16.5 -53q-18 -36 -56.5 -58t-87.5 -22t-87.5 22t-56.5 58q-13 26 -16.5 53t-3.5 89v648
q0 62 3.5 89t16.5 53q18 36 56.5 58t87.5 22q104 0 154 -96q48 48 116.5 74t135.5 26q150 0 242 -92q64 -64 86 -137t22 -171v-730q0 -58 -19.5 -112.5t-58 -101.5t-104 -75.5t-148.5 -28.5z" />
    <glyph glyph-name="Omacron" unicode="&#x14c;" horiz-adv-x="1280" 
d="M1037 144q-79 -79 -174.5 -117.5t-222.5 -38.5t-222.5 38.5t-174.5 117.5q-42 42 -71 94t-43.5 97.5t-22 117t-9 120t-1.5 139.5t1.5 139.5t9 120t22 117t43.5 97.5t71 94q79 79 174.5 117.5t222.5 38.5t222.5 -38.5t174.5 -117.5q42 -42 71 -94t43.5 -97.5t22 -117
t9 -120t1.5 -139.5t-1.5 -139.5t-9 -120t-22 -117t-43.5 -97.5t-71 -94zM780 364q28 37 40 103t12 245t-12 246.5t-40 103.5q-21 27 -57.5 44.5t-82.5 17.5t-82.5 -17.5t-57.5 -44.5q-28 -36 -40 -103.5t-12 -246.5t12 -245t40 -103q49 -64 140 -64t140 64zM804 1604h-328
q-75 0 -108 16q-62 30 -62 110t62 110q33 16 108 16h328q75 0 108 -16q62 -30 62 -110t-62 -110q-33 -16 -108 -16z" />
    <glyph glyph-name="omacron" unicode="&#x14d;" horiz-adv-x="1100" 
d="M638 314q29 29 38.5 81.5t9.5 142.5t-9.5 142.5t-38.5 81.5q-30 30 -88 30t-88 -30q-29 -29 -38.5 -81.5t-9.5 -142.5t9.5 -142.5t38.5 -81.5q30 -30 88 -30t88 30zM896 126q-130 -138 -346 -138t-346 138q-67 73 -92.5 162.5t-25.5 249.5q0 159 25.5 249t92.5 163
q130 138 346 138t346 -138q67 -73 92.5 -163t25.5 -249q0 -160 -25.5 -249.5t-92.5 -162.5zM714 1258h-328q-75 0 -108 16q-62 30 -62 110t62 110q33 16 108 16h328q75 0 108 -16q62 -30 62 -110t-62 -110q-33 -16 -108 -16z" />
    <glyph glyph-name="Obreve" unicode="&#x14e;" horiz-adv-x="1280" 
d="M1037 144q-79 -79 -174.5 -117.5t-222.5 -38.5t-222.5 38.5t-174.5 117.5q-42 42 -71 94t-43.5 97.5t-22 117t-9 120t-1.5 139.5t1.5 139.5t9 120t22 117t43.5 97.5t71 94q79 79 174.5 117.5t222.5 38.5t222.5 -38.5t174.5 -117.5q42 -42 71 -94t43.5 -97.5t22 -117
t9 -120t1.5 -139.5t-1.5 -139.5t-9 -120t-22 -117t-43.5 -97.5t-71 -94zM780 364q28 37 40 103t12 245t-12 246.5t-40 103.5q-21 27 -57.5 44.5t-82.5 17.5t-82.5 -17.5t-57.5 -44.5q-28 -36 -40 -103.5t-12 -246.5t12 -245t40 -103q49 -64 140 -64t140 64zM908 1643
q-61 -51 -121.5 -71.5t-146.5 -20.5t-146.5 20.5t-121.5 71.5q-69 57 -69 117q0 42 30 78q37 43 85 43q33 0 71 -27q74 -55 151 -55t151 55q38 27 71 27q48 0 85 -43q30 -36 30 -78q0 -60 -69 -117z" />
    <glyph glyph-name="obreve" unicode="&#x14f;" horiz-adv-x="1100" 
d="M638 314q29 29 38.5 81.5t9.5 142.5t-9.5 142.5t-38.5 81.5q-30 30 -88 30t-88 -30q-29 -29 -38.5 -81.5t-9.5 -142.5t9.5 -142.5t38.5 -81.5q30 -30 88 -30t88 30zM896 126q-130 -138 -346 -138t-346 138q-67 73 -92.5 162.5t-25.5 249.5q0 159 25.5 249t92.5 163
q130 138 346 138t346 -138q67 -73 92.5 -163t25.5 -249q0 -160 -25.5 -249.5t-92.5 -162.5zM818 1297q-61 -51 -121.5 -71.5t-146.5 -20.5t-146.5 20.5t-121.5 71.5q-69 57 -69 117q0 42 30 78q37 43 85 43q33 0 71 -27q74 -55 151 -55t151 55q38 27 71 27q48 0 85 -43
q30 -36 30 -78q0 -60 -69 -117z" />
    <glyph glyph-name="Ohungarumlaut" unicode="&#x150;" horiz-adv-x="1280" 
d="M1037 144q-79 -79 -174.5 -117.5t-222.5 -38.5t-222.5 38.5t-174.5 117.5q-42 42 -71 94t-43.5 97.5t-22 117t-9 120t-1.5 139.5t1.5 139.5t9 120t22 117t43.5 97.5t71 94q79 79 174.5 117.5t222.5 38.5t222.5 -38.5t174.5 -117.5q42 -42 71 -94t43.5 -97.5t22 -117
t9 -120t1.5 -139.5t-1.5 -139.5t-9 -120t-22 -117t-43.5 -97.5t-71 -94zM780 364q28 37 40 103t12 245t-12 246.5t-40 103.5q-21 27 -57.5 44.5t-82.5 17.5t-82.5 -17.5t-57.5 -44.5q-28 -36 -40 -103.5t-12 -246.5t12 -245t40 -103q49 -64 140 -64t140 64zM642 1754
l-75 -120q-43 -68 -67 -85q-32 -22 -69 -22q-39 0 -76 23q-73 45 -66 118q3 39 48 110l75 120q43 68 67 85q32 22 69 22q39 0 76 -23q73 -45 66 -118q-3 -39 -48 -110zM1100 1754l-75 -120q-43 -68 -67 -85q-32 -22 -69 -22q-39 0 -76 23q-73 45 -66 118q3 39 48 110l75 120
q43 68 67 85q32 22 69 22q39 0 76 -23q73 -45 66 -118q-3 -39 -48 -110z" />
    <glyph glyph-name="ohungarumlaut" unicode="&#x151;" horiz-adv-x="1100" 
d="M638 314q29 29 38.5 81.5t9.5 142.5t-9.5 142.5t-38.5 81.5q-30 30 -88 30t-88 -30q-29 -29 -38.5 -81.5t-9.5 -142.5t9.5 -142.5t38.5 -81.5q30 -30 88 -30t88 30zM896 126q-130 -138 -346 -138t-346 138q-67 73 -92.5 162.5t-25.5 249.5q0 159 25.5 249t92.5 163
q130 138 346 138t346 -138q67 -73 92.5 -163t25.5 -249q0 -160 -25.5 -249.5t-92.5 -162.5zM552 1408l-75 -120q-43 -68 -67 -85q-32 -22 -69 -22q-39 0 -76 23q-73 45 -66 118q3 39 48 110l75 120q43 68 67 85q32 22 69 22q39 0 76 -23q73 -45 66 -118q-3 -39 -48 -110z
M1010 1408l-75 -120q-43 -68 -67 -85q-32 -22 -69 -22q-39 0 -76 23q-73 45 -66 118q3 39 48 110l75 120q43 68 67 85q32 22 69 22q39 0 76 -23q73 -45 66 -118q-3 -39 -48 -110z" />
    <glyph glyph-name="OE" unicode="&#x152;" horiz-adv-x="1901" 
d="M1601 0h-555q-36 0 -57 1.5t-53.5 13t-55.5 34.5q-100 -61 -240 -61q-127 0 -222.5 38.5t-174.5 117.5q-42 42 -71 94t-43.5 97.5t-22 117t-9 120t-1.5 139.5t1.5 139.5t9 120t22 117t43.5 97.5t71 94q79 79 174.5 117.5t222.5 38.5q139 0 240 -62q23 23 55 34.5t54 13.5
t57 2h555q57 0 83 -3.5t51 -15.5q34 -16 55 -53.5t21 -83.5t-21 -83.5t-55 -53.5q-25 -12 -51 -15.5t-83 -3.5h-418v-238h328q57 0 83 -3.5t51 -15.5q34 -16 55 -53.5t21 -83.5t-21 -83.5t-55 -53.5q-25 -12 -51 -15.5t-83 -3.5h-328v-250h418q57 0 83 -3.5t51 -15.5
q34 -16 55 -53.5t21 -83.5t-21 -83.5t-55 -53.5q-25 -12 -51 -15.5t-83 -3.5zM640 300q91 0 140 64q28 37 40 103t12 245t-12 246.5t-40 103.5q-21 27 -57.5 44.5t-82.5 17.5t-82.5 -17.5t-57.5 -44.5q-28 -36 -40 -103.5t-12 -246.5t12 -245t40 -103q49 -64 140 -64z" />
    <glyph glyph-name="oe" unicode="&#x153;" horiz-adv-x="1723" 
d="M1464 432h-456q0 -70 52 -120t142 -50q88 0 162 48q63 42 114 42q47 0 88.5 -40.5t41.5 -95.5q0 -77 -102 -148q-116 -80 -308 -80q-220 0 -344 100q-122 -100 -304 -100q-216 0 -346 138q-67 73 -92.5 162.5t-25.5 249.5q0 159 25.5 249t92.5 163q130 138 346 138
q187 0 312 -106q126 106 306 106q145 0 254.5 -65t165.5 -170t62 -235q4 -98 -44 -146q-19 -19 -46.5 -28.5t-44.5 -10.5t-51 -1zM638 314q29 29 38.5 81.5t9.5 142.5t-9.5 142.5t-38.5 81.5q-30 30 -88 30t-88 -30q-29 -29 -38.5 -81.5t-9.5 -142.5t9.5 -142.5t38.5 -81.5
q30 -30 88 -30t88 30zM1008 650h320q0 48 -18 84q-40 84 -142 84q-104 0 -142 -84q-18 -39 -18 -84z" />
    <glyph glyph-name="Racute" unicode="&#x154;" horiz-adv-x="1304" 
d="M840 132l-227 398h-119v-302q0 -65 -3.5 -92.5t-18.5 -57.5q-19 -38 -60.5 -62t-93.5 -24t-93.5 24t-60.5 62q-15 30 -18.5 57.5t-3.5 92.5v981q0 36 1.5 57t13 53.5t34.5 55.5t55.5 34.5t53.5 13t57 1.5h351q115 0 209 -38.5t153.5 -103t91.5 -146t32 -170.5
q0 -115 -59 -213.5t-168 -156.5l168 -295q31 -53 41.5 -83t10.5 -62q0 -90 -86 -139q-44 -25 -88 -25q-32 0 -58.5 11t-48 34t-34.5 42.5t-32 52.5zM494 822h198q69 0 110.5 42.5t41.5 101.5t-41.5 102.5t-110.5 43.5h-198v-290zM901 1754l-75 -120q-43 -68 -67 -85
q-32 -22 -69 -22q-39 0 -76 23q-73 45 -66 118q3 39 48 110l75 120q43 68 67 85q32 22 69 22q39 0 76 -23q73 -45 66 -118q-3 -39 -48 -110z" />
    <glyph glyph-name="racute" unicode="&#x155;" horiz-adv-x="956" 
d="M124 214v648q0 62 3.5 89t16.5 53q18 36 56.5 58t87.5 22q104 0 154 -96q41 41 104.5 70.5t130.5 29.5q109 0 181 -50q74 -52 74 -128q0 -72 -50 -122q-44 -44 -110 -44q-45 0 -100 26q-47 22 -84 22q-21 0 -42 -6.5t-43.5 -21.5t-36.5 -46t-14 -74v-430q0 -62 -3.5 -89
t-16.5 -53q-18 -36 -56.5 -58t-87.5 -22t-87.5 22t-56.5 58q-13 26 -16.5 53t-3.5 89zM725 1408l-75 -120q-43 -68 -67 -85q-32 -22 -69 -22q-39 0 -76 23q-73 45 -66 118q3 39 48 110l75 120q43 68 67 85q32 22 69 22q39 0 76 -23q73 -45 66 -118q-3 -39 -48 -110z" />
    <glyph glyph-name="Rcommaaccent" unicode="&#x156;" horiz-adv-x="1304" 
d="M840 132l-227 398h-119v-302q0 -65 -3.5 -92.5t-18.5 -57.5q-19 -38 -60.5 -62t-93.5 -24t-93.5 24t-60.5 62q-15 30 -18.5 57.5t-3.5 92.5v981q0 36 1.5 57t13 53.5t34.5 55.5t55.5 34.5t53.5 13t57 1.5h351q115 0 209 -38.5t153.5 -103t91.5 -146t32 -170.5
q0 -115 -59 -213.5t-168 -156.5l168 -295q31 -53 41.5 -83t10.5 -62q0 -90 -86 -139q-44 -25 -88 -25q-32 0 -58.5 11t-48 34t-34.5 42.5t-32 52.5zM494 822h198q69 0 110.5 42.5t41.5 101.5t-41.5 102.5t-110.5 43.5h-198v-290zM771 -328l-75 -120q-43 -68 -67 -85
q-32 -22 -69 -22q-39 0 -76 23q-73 45 -66 118q3 39 48 110l75 120q43 68 67 85q32 22 69 22q39 0 76 -23q73 -45 66 -118q-3 -39 -48 -110z" />
    <glyph glyph-name="rcommaaccent" unicode="&#x157;" horiz-adv-x="956" 
d="M124 214v648q0 62 3.5 89t16.5 53q18 36 56.5 58t87.5 22q104 0 154 -96q41 41 104.5 70.5t130.5 29.5q109 0 181 -50q74 -52 74 -128q0 -72 -50 -122q-44 -44 -110 -44q-45 0 -100 26q-47 22 -84 22q-21 0 -42 -6.5t-43.5 -21.5t-36.5 -46t-14 -74v-430q0 -62 -3.5 -89
t-16.5 -53q-18 -36 -56.5 -58t-87.5 -22t-87.5 22t-56.5 58q-13 26 -16.5 53t-3.5 89zM364 -328l-75 -120q-43 -68 -67 -85q-32 -22 -69 -22q-39 0 -76 23q-73 45 -66 118q3 39 48 110l75 120q43 68 67 85q32 22 69 22q39 0 76 -23q73 -45 66 -118q-3 -39 -48 -110z" />
    <glyph glyph-name="Rcaron" unicode="&#x158;" horiz-adv-x="1304" 
d="M840 132l-227 398h-119v-302q0 -65 -3.5 -92.5t-18.5 -57.5q-19 -38 -60.5 -62t-93.5 -24t-93.5 24t-60.5 62q-15 30 -18.5 57.5t-3.5 92.5v981q0 36 1.5 57t13 53.5t34.5 55.5t55.5 34.5t53.5 13t57 1.5h351q115 0 209 -38.5t153.5 -103t91.5 -146t32 -170.5
q0 -115 -59 -213.5t-168 -156.5l168 -295q31 -53 41.5 -83t10.5 -62q0 -90 -86 -139q-44 -25 -88 -25q-32 0 -58.5 11t-48 34t-34.5 42.5t-32 52.5zM494 822h198q69 0 110.5 42.5t41.5 101.5t-41.5 102.5t-110.5 43.5h-198v-290zM933 1725l-139 -139q-23 -23 -38.5 -36
t-44.5 -26.5t-59 -13.5t-59 13.5t-44.5 26.5t-38.5 36l-139 139q-53 53 -65 87q-23 66 34 123q56 56 122 34q36 -13 88 -65l102 -102l102 102q52 52 88 65q66 22 122 -34q57 -57 34 -123q-12 -34 -65 -87z" />
    <glyph glyph-name="rcaron" unicode="&#x159;" horiz-adv-x="956" 
d="M124 214v648q0 62 3.5 89t16.5 53q18 36 56.5 58t87.5 22q104 0 154 -96q41 41 104.5 70.5t130.5 29.5q109 0 181 -50q74 -52 74 -128q0 -72 -50 -122q-44 -44 -110 -44q-45 0 -100 26q-47 22 -84 22q-21 0 -42 -6.5t-43.5 -21.5t-36.5 -46t-14 -74v-430q0 -62 -3.5 -89
t-16.5 -53q-18 -36 -56.5 -58t-87.5 -22t-87.5 22t-56.5 58q-13 26 -16.5 53t-3.5 89zM757 1379l-139 -139q-23 -23 -38.5 -36t-44.5 -26.5t-59 -13.5t-59 13.5t-44.5 26.5t-38.5 36l-139 139q-53 53 -65 87q-23 66 34 123q56 56 122 34q36 -13 88 -65l102 -102l102 102
q52 52 88 65q66 22 122 -34q57 -57 34 -123q-12 -34 -65 -87z" />
    <glyph glyph-name="Sacute" unicode="&#x15a;" horiz-adv-x="1189" 
d="M639 550l-172 24q-190 27 -286 126q-98 101 -98 286q0 199 140.5 324.5t379.5 125.5q168 0 306 -54q68 -27 107 -71.5t39 -100.5q0 -58 -42 -108q-39 -48 -102 -48q-43 0 -124 34q-94 40 -194 40q-84 0 -128 -37.5t-44 -82.5q0 -48 28 -76q33 -33 98 -42l172 -24
q189 -27 280 -118q106 -103 106 -312q0 -140 -75.5 -243.5t-198.5 -154t-276 -50.5q-205 0 -326 48q-94 37 -140 83.5t-46 120.5q0 66 48 114q38 38 96 38q25 0 50.5 -8.5t85.5 -33.5q121 -52 234 -52q102 0 153 33.5t51 96.5q0 53 -28 84q-30 30 -94 38zM848 1754l-75 -120
q-43 -68 -67 -85q-32 -22 -69 -22q-39 0 -76 23q-73 45 -66 118q3 39 48 110l75 120q43 68 67 85q32 22 69 22q39 0 76 -23q73 -45 66 -118q-3 -39 -48 -110z" />
    <glyph glyph-name="sacute" unicode="&#x15b;" horiz-adv-x="1008" 
d="M552 404l-166 16q-312 30 -312 312q0 86 36.5 155.5t97.5 112.5t136.5 65.5t157.5 22.5q146 0 266 -44q67 -25 102 -60q36 -37 36 -94q0 -28 -13 -57.5t-31 -46.5q-39 -36 -88 -36q-32 0 -89 24q-122 50 -191 50q-46 0 -75 -18.5t-29 -48.5q0 -54 70 -61l166 -16
q163 -16 243.5 -104t80.5 -224q0 -74 -24.5 -135t-67.5 -103t-102 -71t-127.5 -42t-144.5 -13q-126 0 -212 22t-158 70q-72 49 -72 120q0 33 14.5 64t37.5 48q40 31 86 31q37 0 98 -31q101 -52 214 -52q59 0 98.5 19.5t39.5 56.5q0 61 -78 68zM766 1408l-75 -120
q-43 -68 -67 -85q-32 -22 -69 -22q-39 0 -76 23q-73 45 -66 118q3 39 48 110l75 120q43 68 67 85q32 22 69 22q39 0 76 -23q73 -45 66 -118q-3 -39 -48 -110z" />
    <glyph glyph-name="Scircumflex" unicode="&#x15c;" horiz-adv-x="1189" 
d="M639 550l-172 24q-190 27 -286 126q-98 101 -98 286q0 199 140.5 324.5t379.5 125.5q168 0 306 -54q68 -27 107 -71.5t39 -100.5q0 -58 -42 -108q-39 -48 -102 -48q-43 0 -124 34q-94 40 -194 40q-84 0 -128 -37.5t-44 -82.5q0 -48 28 -76q33 -33 98 -42l172 -24
q189 -27 280 -118q106 -103 106 -312q0 -140 -75.5 -243.5t-198.5 -154t-276 -50.5q-205 0 -326 48q-94 37 -140 83.5t-46 120.5q0 66 48 114q38 38 96 38q25 0 50.5 -8.5t85.5 -33.5q121 -52 234 -52q102 0 153 33.5t51 96.5q0 53 -28 84q-30 30 -94 38zM701 1589l-102 102
l-102 -102q-52 -52 -88 -65q-66 -22 -122 34q-57 57 -34 123q12 34 65 87l139 139q23 23 38.5 36t44.5 26.5t59 13.5t59 -13.5t44.5 -26.5t38.5 -36l139 -139q53 -53 65 -87q23 -66 -34 -123q-56 -56 -122 -34q-36 13 -88 65z" />
    <glyph glyph-name="scircumflex" unicode="&#x15d;" horiz-adv-x="1008" 
d="M552 404l-166 16q-312 30 -312 312q0 86 36.5 155.5t97.5 112.5t136.5 65.5t157.5 22.5q146 0 266 -44q67 -25 102 -60q36 -37 36 -94q0 -28 -13 -57.5t-31 -46.5q-39 -36 -88 -36q-32 0 -89 24q-122 50 -191 50q-46 0 -75 -18.5t-29 -48.5q0 -54 70 -61l166 -16
q163 -16 243.5 -104t80.5 -224q0 -74 -24.5 -135t-67.5 -103t-102 -71t-127.5 -42t-144.5 -13q-126 0 -212 22t-158 70q-72 49 -72 120q0 33 14.5 64t37.5 48q40 31 86 31q37 0 98 -31q101 -52 214 -52q59 0 98.5 19.5t39.5 56.5q0 61 -78 68zM619 1243l-102 102l-102 -102
q-52 -52 -88 -65q-66 -22 -122 34q-57 57 -34 123q12 34 65 87l139 139q23 23 38.5 36t44.5 26.5t59 13.5t59 -13.5t44.5 -26.5t38.5 -36l139 -139q53 -53 65 -87q23 -66 -34 -123q-56 -56 -122 -34q-36 13 -88 65z" />
    <glyph glyph-name="Scedilla" unicode="&#x15e;" horiz-adv-x="1189" 
d="M639 550l-172 24q-190 27 -286 126q-98 101 -98 286q0 199 140.5 324.5t379.5 125.5q168 0 306 -54q68 -27 107 -71.5t39 -100.5q0 -58 -42 -108q-39 -48 -102 -48q-43 0 -124 34q-94 40 -194 40q-84 0 -128 -37.5t-44 -82.5q0 -48 28 -76q33 -33 98 -42l172 -24
q189 -27 280 -118q106 -103 106 -312q0 -140 -75.5 -243.5t-198.5 -154t-276 -50.5q-205 0 -326 48q-94 37 -140 83.5t-46 120.5q0 66 48 114q38 38 96 38q25 0 50.5 -8.5t85.5 -33.5q121 -52 234 -52q102 0 153 33.5t51 96.5q0 53 -28 84q-30 30 -94 38zM659 -328l-75 -120
q-43 -68 -67 -85q-32 -22 -69 -22q-39 0 -76 23q-73 45 -66 118q3 39 48 110l75 120q43 68 67 85q32 22 69 22q39 0 76 -23q73 -45 66 -118q-3 -39 -48 -110z" />
    <glyph glyph-name="scedilla" unicode="&#x15f;" horiz-adv-x="1008" 
d="M552 404l-166 16q-312 30 -312 312q0 86 36.5 155.5t97.5 112.5t136.5 65.5t157.5 22.5q146 0 266 -44q67 -25 102 -60q36 -37 36 -94q0 -28 -13 -57.5t-31 -46.5q-39 -36 -88 -36q-32 0 -89 24q-122 50 -191 50q-46 0 -75 -18.5t-29 -48.5q0 -54 70 -61l166 -16
q163 -16 243.5 -104t80.5 -224q0 -74 -24.5 -135t-67.5 -103t-102 -71t-127.5 -42t-144.5 -13q-126 0 -212 22t-158 70q-72 49 -72 120q0 33 14.5 64t37.5 48q40 31 86 31q37 0 98 -31q101 -52 214 -52q59 0 98.5 19.5t39.5 56.5q0 61 -78 68zM593 -328l-75 -120
q-43 -68 -67 -85q-32 -22 -69 -22q-39 0 -76 23q-73 45 -66 118q3 39 48 110l75 120q43 68 67 85q32 22 69 22q39 0 76 -23q73 -45 66 -118q-3 -39 -48 -110z" />
    <glyph glyph-name="Scaron" unicode="&#x160;" horiz-adv-x="1189" 
d="M639 550l-172 24q-190 27 -286 126q-98 101 -98 286q0 199 140.5 324.5t379.5 125.5q168 0 306 -54q68 -27 107 -71.5t39 -100.5q0 -58 -42 -108q-39 -48 -102 -48q-43 0 -124 34q-94 40 -194 40q-84 0 -128 -37.5t-44 -82.5q0 -48 28 -76q33 -33 98 -42l172 -24
q189 -27 280 -118q106 -103 106 -312q0 -140 -75.5 -243.5t-198.5 -154t-276 -50.5q-205 0 -326 48q-94 37 -140 83.5t-46 120.5q0 66 48 114q38 38 96 38q25 0 50.5 -8.5t85.5 -33.5q121 -52 234 -52q102 0 153 33.5t51 96.5q0 53 -28 84q-30 30 -94 38zM880 1725
l-139 -139q-23 -23 -38.5 -36t-44.5 -26.5t-59 -13.5t-59 13.5t-44.5 26.5t-38.5 36l-139 139q-53 53 -65 87q-23 66 34 123q56 56 122 34q36 -13 88 -65l102 -102l102 102q52 52 88 65q66 22 122 -34q57 -57 34 -123q-12 -34 -65 -87z" />
    <glyph glyph-name="scaron" unicode="&#x161;" horiz-adv-x="1008" 
d="M552 404l-166 16q-312 30 -312 312q0 86 36.5 155.5t97.5 112.5t136.5 65.5t157.5 22.5q146 0 266 -44q67 -25 102 -60q36 -37 36 -94q0 -28 -13 -57.5t-31 -46.5q-39 -36 -88 -36q-32 0 -89 24q-122 50 -191 50q-46 0 -75 -18.5t-29 -48.5q0 -54 70 -61l166 -16
q163 -16 243.5 -104t80.5 -224q0 -74 -24.5 -135t-67.5 -103t-102 -71t-127.5 -42t-144.5 -13q-126 0 -212 22t-158 70q-72 49 -72 120q0 33 14.5 64t37.5 48q40 31 86 31q37 0 98 -31q101 -52 214 -52q59 0 98.5 19.5t39.5 56.5q0 61 -78 68zM798 1379l-139 -139
q-23 -23 -38.5 -36t-44.5 -26.5t-59 -13.5t-59 13.5t-44.5 26.5t-38.5 36l-139 139q-53 53 -65 87q-23 66 34 123q56 56 122 34q36 -13 88 -65l102 -102l102 102q52 52 88 65q66 22 122 -34q57 -57 34 -123q-12 -34 -65 -87z" />
    <glyph glyph-name="Tcommaaccent" unicode="&#x162;" horiz-adv-x="1162" 
d="M405 228v884h-147q-57 0 -83 3.5t-51 15.5q-34 16 -55 53.5t-21 83.5t21 83.5t55 53.5q25 12 51 15.5t83 3.5h646q57 0 83 -3.5t51 -15.5q34 -16 55 -53.5t21 -83.5t-21 -83.5t-55 -53.5q-25 -12 -51 -15.5t-83 -3.5h-147v-884q0 -65 -3.5 -92.5t-18.5 -57.5
q-19 -38 -60.5 -62t-93.5 -24t-93.5 24t-60.5 62q-15 30 -18.5 57.5t-3.5 92.5zM668 -328l-75 -120q-43 -68 -67 -85q-32 -22 -69 -22q-39 0 -76 23q-73 45 -66 118q3 39 48 110l75 120q43 68 67 85q32 22 69 22q39 0 76 -23q73 -45 66 -118q-3 -39 -48 -110z" />
    <glyph glyph-name="tcommaaccent" unicode="&#x163;" horiz-adv-x="767" 
d="M525 0h-6q-83 0 -148.5 28.5t-104 75.5t-58 101.5t-19.5 112.5v464h-1q-75 0 -108 16q-62 30 -62 110t62 110q33 16 108 16h1v94q0 62 3.5 89t16.5 53q18 36 56.5 58t87.5 22t87.5 -22t56.5 -58q13 -26 16.5 -53t3.5 -89v-94h38q75 0 108 -16q62 -30 62 -110t-62 -110
q-33 -16 -108 -16h-38v-440q0 -65 61 -68q50 -3 81 -18q66 -33 66 -118q0 -82 -68 -116q-44 -22 -132 -22zM489 -328l-75 -120q-43 -68 -67 -85q-32 -22 -69 -22q-39 0 -76 23q-73 45 -66 118q3 39 48 110l75 120q43 68 67 85q32 22 69 22q39 0 76 -23q73 -45 66 -118
q-3 -39 -48 -110z" />
    <glyph glyph-name="Tcaron" unicode="&#x164;" horiz-adv-x="1162" 
d="M405 228v884h-147q-57 0 -83 3.5t-51 15.5q-34 16 -55 53.5t-21 83.5t21 83.5t55 53.5q25 12 51 15.5t83 3.5h646q57 0 83 -3.5t51 -15.5q34 -16 55 -53.5t21 -83.5t-21 -83.5t-55 -53.5q-25 -12 -51 -15.5t-83 -3.5h-147v-884q0 -65 -3.5 -92.5t-18.5 -57.5
q-19 -38 -60.5 -62t-93.5 -24t-93.5 24t-60.5 62q-15 30 -18.5 57.5t-3.5 92.5zM862 1725l-139 -139q-23 -23 -38.5 -36t-44.5 -26.5t-59 -13.5t-59 13.5t-44.5 26.5t-38.5 36l-139 139q-53 53 -65 87q-23 66 34 123q56 56 122 34q36 -13 88 -65l102 -102l102 102
q52 52 88 65q66 22 122 -34q57 -57 34 -123q-12 -34 -65 -87z" />
    <glyph glyph-name="tcaron" unicode="&#x165;" horiz-adv-x="767" 
d="M525 0h-6q-83 0 -148.5 28.5t-104 75.5t-58 101.5t-19.5 112.5v464h-1q-75 0 -108 16q-62 30 -62 110t62 110q33 16 108 16h1v94q0 62 3.5 89t16.5 53q18 36 56.5 58t87.5 22t87.5 -22t56.5 -58q13 -26 16.5 -53t3.5 -89v-94h38q75 0 108 -16q62 -30 62 -110t-62 -110
q-33 -16 -108 -16h-38v-440q0 -65 61 -68q50 -3 81 -18q66 -33 66 -118q0 -82 -68 -116q-44 -22 -132 -22zM923 1414l-49 -147q-16 -48 -26 -69t-28 -39q-32 -32 -83 -32q-49 0 -89 27t-50 69q-4 16 -4.5 31t3.5 33.5t7.5 30t11.5 35.5l49 147q16 48 26 69t28 39
q32 32 83 32q49 0 89 -27t50 -69q4 -16 4.5 -31t-3.5 -33.5t-7.5 -30t-11.5 -35.5z" />
    <glyph glyph-name="Tbar" unicode="&#x166;" horiz-adv-x="1162" 
d="M405 228v354h-20q-50 0 -73.5 3t-45.5 15q-30 15 -47.5 46.5t-17.5 71.5t17.5 71.5t47.5 46.5q22 12 45.5 15t73.5 3h20v258h-147q-57 0 -83 3.5t-51 15.5q-34 16 -55 53.5t-21 83.5t21 83.5t55 53.5q25 12 51 15.5t83 3.5h646q57 0 83 -3.5t51 -15.5q34 -16 55 -53.5
t21 -83.5t-21 -83.5t-55 -53.5q-25 -12 -51 -15.5t-83 -3.5h-147v-258h20q50 0 73.5 -3t45.5 -15q30 -15 47.5 -46.5t17.5 -71.5t-17.5 -71.5t-47.5 -46.5q-22 -12 -45.5 -15t-73.5 -3h-20v-354q0 -65 -3.5 -92.5t-18.5 -57.5q-19 -38 -60.5 -62t-93.5 -24t-93.5 24
t-60.5 62q-15 30 -18.5 57.5t-3.5 92.5z" />
    <glyph glyph-name="tbar" unicode="&#x167;" horiz-adv-x="767" 
d="M525 0h-6q-83 0 -148.5 28.5t-104 75.5t-58 101.5t-19.5 112.5v114h-1q-75 0 -108 16q-62 30 -62 110t62 110q33 16 109 16v98h-1q-75 0 -108 16q-62 30 -62 110t62 110q33 16 108 16h1v94q0 62 3.5 89t16.5 53q18 36 56.5 58t87.5 22t87.5 -22t56.5 -58q13 -26 16.5 -53
t3.5 -89v-94h38q75 0 108 -16q62 -30 62 -110t-62 -110q-33 -16 -108 -16h-38v-98h18q75 0 108 -16q62 -30 62 -110t-62 -110q-33 -16 -108 -16h-18v-90q0 -65 61 -68q50 -3 81 -18q66 -33 66 -118q0 -82 -68 -116q-44 -22 -132 -22z" />
    <glyph glyph-name="Utilde" unicode="&#x168;" horiz-adv-x="1320" 
d="M850 508v688q0 65 3.5 92.5t18.5 57.5q19 38 60.5 62t93.5 24t93.5 -24t60.5 -62q15 -30 18.5 -57.5t3.5 -92.5v-696q0 -152 -74.5 -270t-197.5 -180t-272 -62q-148 0 -270.5 62t-196 180t-73.5 270v696q0 65 3.5 92.5t18.5 57.5q19 38 60.5 62t93.5 24t93.5 -24
t60.5 -62q15 -30 18.5 -57.5t3.5 -92.5v-688q0 -98 50 -153t138 -55t140 55t52 153zM1058 1740q0 -57 -65 -111q-43 -34 -87.5 -48t-106.5 -14q-47 0 -81.5 8.5t-82.5 34.5q-56 31 -105 31q-45 0 -87 -29q-38 -27 -73 -27q-52 0 -84 40q-24 29 -24 77q0 57 65 111
q43 34 87.5 48t106.5 14q47 0 81.5 -8.5t82.5 -34.5q56 -31 105 -31q45 0 87 29q38 27 73 27q52 0 84 -40q24 -29 24 -77z" />
    <glyph glyph-name="utilde" unicode="&#x169;" horiz-adv-x="1158" 
d="M706 432v430q0 62 3.5 89t16.5 53q18 36 56.5 58t87.5 22t87.5 -22t56.5 -58q13 -26 16.5 -53t3.5 -89v-648q0 -62 -3.5 -89t-16.5 -53q-18 -36 -56.5 -58t-87.5 -22q-104 0 -154 96q-48 -48 -116.5 -74t-135.5 -26q-150 0 -242 92q-64 64 -86 137t-22 171v474
q0 62 3.5 89t16.5 53q18 36 56.5 58t87.5 22t87.5 -22t56.5 -58q13 -26 16.5 -53t3.5 -89v-430q0 -44 14 -75t36 -46t42 -21t40 -6t40 6t42 21t36 46t14 75zM972 1395q0 -57 -65 -111q-43 -34 -87.5 -48t-106.5 -14q-47 0 -81.5 8.5t-82.5 34.5q-56 31 -105 31
q-45 0 -87 -29q-38 -27 -73 -27q-52 0 -84 40q-24 29 -24 77q0 57 65 111q43 34 87.5 48t106.5 14q47 0 81.5 -8.5t82.5 -34.5q56 -31 105 -31q45 0 87 29q38 27 73 27q52 0 84 -40q24 -29 24 -77z" />
    <glyph glyph-name="Umacron" unicode="&#x16a;" horiz-adv-x="1320" 
d="M850 508v688q0 65 3.5 92.5t18.5 57.5q19 38 60.5 62t93.5 24t93.5 -24t60.5 -62q15 -30 18.5 -57.5t3.5 -92.5v-696q0 -152 -74.5 -270t-197.5 -180t-272 -62q-148 0 -270.5 62t-196 180t-73.5 270v696q0 65 3.5 92.5t18.5 57.5q19 38 60.5 62t93.5 24t93.5 -24
t60.5 -62q15 -30 18.5 -57.5t3.5 -92.5v-688q0 -98 50 -153t138 -55t140 55t52 153zM824 1604h-328q-75 0 -108 16q-62 30 -62 110t62 110q33 16 108 16h328q75 0 108 -16q62 -30 62 -110t-62 -110q-33 -16 -108 -16z" />
    <glyph glyph-name="umacron" unicode="&#x16b;" horiz-adv-x="1158" 
d="M706 432v430q0 62 3.5 89t16.5 53q18 36 56.5 58t87.5 22t87.5 -22t56.5 -58q13 -26 16.5 -53t3.5 -89v-648q0 -62 -3.5 -89t-16.5 -53q-18 -36 -56.5 -58t-87.5 -22q-104 0 -154 96q-48 -48 -116.5 -74t-135.5 -26q-150 0 -242 92q-64 64 -86 137t-22 171v474
q0 62 3.5 89t16.5 53q18 36 56.5 58t87.5 22t87.5 -22t56.5 -58q13 -26 16.5 -53t3.5 -89v-430q0 -44 14 -75t36 -46t42 -21t40 -6t40 6t42 21t36 46t14 75zM738 1258h-328q-75 0 -108 16q-62 30 -62 110t62 110q33 16 108 16h328q75 0 108 -16q62 -30 62 -110t-62 -110
q-33 -16 -108 -16z" />
    <glyph glyph-name="Ubreve" unicode="&#x16c;" horiz-adv-x="1320" 
d="M850 508v688q0 65 3.5 92.5t18.5 57.5q19 38 60.5 62t93.5 24t93.5 -24t60.5 -62q15 -30 18.5 -57.5t3.5 -92.5v-696q0 -152 -74.5 -270t-197.5 -180t-272 -62q-148 0 -270.5 62t-196 180t-73.5 270v696q0 65 3.5 92.5t18.5 57.5q19 38 60.5 62t93.5 24t93.5 -24
t60.5 -62q15 -30 18.5 -57.5t3.5 -92.5v-688q0 -98 50 -153t138 -55t140 55t52 153zM928 1643q-61 -51 -121.5 -71.5t-146.5 -20.5t-146.5 20.5t-121.5 71.5q-69 57 -69 117q0 42 30 78q37 43 85 43q33 0 71 -27q74 -55 151 -55t151 55q38 27 71 27q48 0 85 -43
q30 -36 30 -78q0 -60 -69 -117z" />
    <glyph glyph-name="ubreve" unicode="&#x16d;" horiz-adv-x="1158" 
d="M706 432v430q0 62 3.5 89t16.5 53q18 36 56.5 58t87.5 22t87.5 -22t56.5 -58q13 -26 16.5 -53t3.5 -89v-648q0 -62 -3.5 -89t-16.5 -53q-18 -36 -56.5 -58t-87.5 -22q-104 0 -154 96q-48 -48 -116.5 -74t-135.5 -26q-150 0 -242 92q-64 64 -86 137t-22 171v474
q0 62 3.5 89t16.5 53q18 36 56.5 58t87.5 22t87.5 -22t56.5 -58q13 -26 16.5 -53t3.5 -89v-430q0 -44 14 -75t36 -46t42 -21t40 -6t40 6t42 21t36 46t14 75zM842 1297q-61 -51 -121.5 -71.5t-146.5 -20.5t-146.5 20.5t-121.5 71.5q-69 57 -69 117q0 42 30 78q37 43 85 43
q33 0 71 -27q74 -55 151 -55t151 55q38 27 71 27q48 0 85 -43q30 -36 30 -78q0 -60 -69 -117z" />
    <glyph glyph-name="Uring" unicode="&#x16e;" horiz-adv-x="1320" 
d="M850 508v688q0 65 3.5 92.5t18.5 57.5q19 38 60.5 62t93.5 24t93.5 -24t60.5 -62q15 -30 18.5 -57.5t3.5 -92.5v-696q0 -152 -74.5 -270t-197.5 -180t-272 -62q-148 0 -270.5 62t-196 180t-73.5 270v696q0 65 3.5 92.5t18.5 57.5q19 38 60.5 62t93.5 24t93.5 -24
t60.5 -62q15 -30 18.5 -57.5t3.5 -92.5v-688q0 -98 50 -153t138 -55t140 55t52 153zM764 1786q0 43 -30.5 73.5t-73.5 30.5t-73.5 -30.5t-30.5 -73.5t30.5 -73.5t73.5 -30.5t73.5 30.5t30.5 73.5zM660 1510q-114 0 -195 81t-81 195t81 195t195 81t195 -81t81 -195t-81 -195
t-195 -81z" />
    <glyph glyph-name="uring" unicode="&#x16f;" horiz-adv-x="1158" 
d="M706 432v430q0 62 3.5 89t16.5 53q18 36 56.5 58t87.5 22t87.5 -22t56.5 -58q13 -26 16.5 -53t3.5 -89v-648q0 -62 -3.5 -89t-16.5 -53q-18 -36 -56.5 -58t-87.5 -22q-104 0 -154 96q-48 -48 -116.5 -74t-135.5 -26q-150 0 -242 92q-64 64 -86 137t-22 171v474
q0 62 3.5 89t16.5 53q18 36 56.5 58t87.5 22t87.5 -22t56.5 -58q13 -26 16.5 -53t3.5 -89v-430q0 -44 14 -75t36 -46t42 -21t40 -6t40 6t42 21t36 46t14 75zM678 1462q0 43 -30.5 73.5t-73.5 30.5t-73.5 -30.5t-30.5 -73.5t30.5 -73.5t73.5 -30.5t73.5 30.5t30.5 73.5z
M574 1186q-114 0 -195 81t-81 195t81 195t195 81t195 -81t81 -195t-81 -195t-195 -81z" />
    <glyph glyph-name="Uhungarumlaut" unicode="&#x170;" horiz-adv-x="1320" 
d="M850 508v688q0 65 3.5 92.5t18.5 57.5q19 38 60.5 62t93.5 24t93.5 -24t60.5 -62q15 -30 18.5 -57.5t3.5 -92.5v-696q0 -152 -74.5 -270t-197.5 -180t-272 -62q-148 0 -270.5 62t-196 180t-73.5 270v696q0 65 3.5 92.5t18.5 57.5q19 38 60.5 62t93.5 24t93.5 -24
t60.5 -62q15 -30 18.5 -57.5t3.5 -92.5v-688q0 -98 50 -153t138 -55t140 55t52 153zM662 1754l-75 -120q-43 -68 -67 -85q-32 -22 -69 -22q-39 0 -76 23q-73 45 -66 118q3 39 48 110l75 120q43 68 67 85q32 22 69 22q39 0 76 -23q73 -45 66 -118q-3 -39 -48 -110zM1120 1754
l-75 -120q-43 -68 -67 -85q-32 -22 -69 -22q-39 0 -76 23q-73 45 -66 118q3 39 48 110l75 120q43 68 67 85q32 22 69 22q39 0 76 -23q73 -45 66 -118q-3 -39 -48 -110z" />
    <glyph glyph-name="uhungarumlaut" unicode="&#x171;" horiz-adv-x="1158" 
d="M706 432v430q0 62 3.5 89t16.5 53q18 36 56.5 58t87.5 22t87.5 -22t56.5 -58q13 -26 16.5 -53t3.5 -89v-648q0 -62 -3.5 -89t-16.5 -53q-18 -36 -56.5 -58t-87.5 -22q-104 0 -154 96q-48 -48 -116.5 -74t-135.5 -26q-150 0 -242 92q-64 64 -86 137t-22 171v474
q0 62 3.5 89t16.5 53q18 36 56.5 58t87.5 22t87.5 -22t56.5 -58q13 -26 16.5 -53t3.5 -89v-430q0 -44 14 -75t36 -46t42 -21t40 -6t40 6t42 21t36 46t14 75zM576 1408l-75 -120q-43 -68 -67 -85q-32 -22 -69 -22q-39 0 -76 23q-73 45 -66 118q3 39 48 110l75 120
q43 68 67 85q32 22 69 22q39 0 76 -23q73 -45 66 -118q-3 -39 -48 -110zM1034 1408l-75 -120q-43 -68 -67 -85q-32 -22 -69 -22q-39 0 -76 23q-73 45 -66 118q3 39 48 110l75 120q43 68 67 85q32 22 69 22q39 0 76 -23q73 -45 66 -118q-3 -39 -48 -110z" />
    <glyph glyph-name="Uogonek" unicode="&#x172;" horiz-adv-x="1320" 
d="M850 508v688q0 65 3.5 92.5t18.5 57.5q19 38 60.5 62t93.5 24t93.5 -24t60.5 -62q15 -30 18.5 -57.5t3.5 -92.5v-696q0 -152 -74.5 -270t-197.5 -180t-272 -62q-148 0 -270.5 62t-196 180t-73.5 270v696q0 65 3.5 92.5t18.5 57.5q19 38 60.5 62t93.5 24t93.5 -24
t60.5 -62q15 -30 18.5 -57.5t3.5 -92.5v-688q0 -98 50 -153t138 -55t140 55t52 153zM982 -328l-75 -120q-43 -68 -67 -85q-32 -22 -69 -22q-39 0 -76 23q-73 45 -66 118q3 39 48 110l75 120q43 68 67 85q32 22 69 22q39 0 76 -23q73 -45 66 -118q-3 -39 -48 -110z" />
    <glyph glyph-name="uogonek" unicode="&#x173;" horiz-adv-x="1158" 
d="M706 432v430q0 62 3.5 89t16.5 53q18 36 56.5 58t87.5 22t87.5 -22t56.5 -58q13 -26 16.5 -53t3.5 -89v-648q0 -62 -3.5 -89t-16.5 -53q-18 -36 -56.5 -58t-87.5 -22q-104 0 -154 96q-48 -48 -116.5 -74t-135.5 -26q-150 0 -242 92q-64 64 -86 137t-22 171v474
q0 62 3.5 89t16.5 53q18 36 56.5 58t87.5 22t87.5 -22t56.5 -58q13 -26 16.5 -53t3.5 -89v-430q0 -44 14 -75t36 -46t42 -21t40 -6t40 6t42 21t36 46t14 75zM924 -328l-75 -120q-43 -68 -67 -85q-32 -22 -69 -22q-39 0 -76 23q-73 45 -66 118q3 39 48 110l75 120
q43 68 67 85q32 22 69 22q39 0 76 -23q73 -45 66 -118q-3 -39 -48 -110z" />
    <glyph glyph-name="Wcircumflex" unicode="&#x174;" horiz-adv-x="1764" 
d="M1052 181l-170 551l-170 -551q-12 -38 -19 -58.5t-24 -48.5t-39 -44q-51 -38 -117 -38t-117 38q-56 42 -82 151l-246 991q-15 60 -18 85t2 58q11 49 59 83t108 34q70 0 112 -48q19 -22 28.5 -47t24.5 -86l143 -579l190 621q20 66 54 100q39 39 111 39t111 -39
q34 -34 54 -100l190 -621l143 579q15 61 24.5 86t28.5 47q42 48 112 48q60 0 108 -34t59 -83q5 -33 2 -58t-18 -85l-246 -991q-26 -109 -82 -151q-51 -38 -117 -38t-117 38q-22 16 -39 44t-24 48.5t-19 58.5zM984 1589l-102 102l-102 -102q-52 -52 -88 -65q-66 -22 -122 34
q-57 57 -34 123q12 34 65 87l139 139q23 23 38.5 36t44.5 26.5t59 13.5t59 -13.5t44.5 -26.5t38.5 -36l139 -139q53 -53 65 -87q23 -66 -34 -123q-56 -56 -122 -34q-36 13 -88 65z" />
    <glyph glyph-name="wcircumflex" unicode="&#x175;" horiz-adv-x="1518" 
d="M252 155l-199 682q-16 55 -19.5 78.5t1.5 53.5q9 47 54 81t100 34q67 0 104 -42q18 -20 29 -44t25 -77l112 -403l137 416q27 83 61 114q39 36 102 36t102 -36q34 -31 61 -114l137 -416l112 403q14 53 25 77t29 44q37 42 104 42q55 0 100 -34t54 -81q5 -30 1.5 -53.5
t-19.5 -78.5l-199 -682q-26 -89 -66 -122q-49 -41 -116 -41q-66 0 -115 41q-38 32 -67 122l-143 435l-143 -435q-29 -90 -67 -122q-49 -41 -115 -41q-67 0 -116 41q-40 33 -66 122zM861 1243l-102 102l-102 -102q-52 -52 -88 -65q-66 -22 -122 34q-57 57 -34 123
q12 34 65 87l139 139q23 23 38.5 36t44.5 26.5t59 13.5t59 -13.5t44.5 -26.5t38.5 -36l139 -139q53 -53 65 -87q23 -66 -34 -123q-56 -56 -122 -34q-36 13 -88 65z" />
    <glyph glyph-name="Ycircumflex" unicode="&#x176;" horiz-adv-x="1114" 
d="M381 228v319l-297 594q-28 56 -37 81t-9 54q0 41 24.5 77.5t68.5 58.5q39 20 82 20q46 0 83 -27q23 -17 37.5 -39t42.5 -79l181 -367l181 367q28 57 42.5 79t37.5 39q37 27 83 27q43 0 82 -20q44 -22 68.5 -58.5t24.5 -77.5q0 -29 -9 -54t-37 -81l-297 -594v-319
q0 -65 -3.5 -92.5t-18.5 -57.5q-19 -38 -60.5 -62t-93.5 -24t-93.5 24t-60.5 62q-15 30 -18.5 57.5t-3.5 92.5zM658 1589l-102 102l-102 -102q-52 -52 -88 -65q-66 -22 -122 34q-57 57 -34 123q12 34 65 87l139 139q23 23 38.5 36t44.5 26.5t59 13.5t59 -13.5t44.5 -26.5
t38.5 -36l139 -139q53 -53 65 -87q23 -66 -34 -123q-56 -56 -122 -34q-36 13 -88 65z" />
    <glyph glyph-name="ycircumflex" unicode="&#x177;" horiz-adv-x="946" 
d="M288 12l23 68l-254 751q-35 103 -19 150q15 44 57.5 73.5t96.5 29.5q30 0 54 -9.5t39 -23t28 -37t19.5 -41t15.5 -45.5l125 -414l125 414q9 28 15.5 45.5t19.5 41t28 37t39 23t54 9.5q54 0 96.5 -29.5t57.5 -73.5q16 -47 -19 -150l-331 -963q-28 -83 -84 -142
q-87 -90 -234 -90q-110 0 -150 40q-44 44 -44 108q0 77 48 116q22 18 42 24t58 6q67 0 94 82zM575 1243l-102 102l-102 -102q-52 -52 -88 -65q-66 -22 -122 34q-57 57 -34 123q12 34 65 87l139 139q23 23 38.5 36t44.5 26.5t59 13.5t59 -13.5t44.5 -26.5t38.5 -36l139 -139
q53 -53 65 -87q23 -66 -34 -123q-56 -56 -122 -34q-36 13 -88 65z" />
    <glyph glyph-name="Ydieresis" unicode="&#x178;" horiz-adv-x="1114" 
d="M381 228v319l-297 594q-28 56 -37 81t-9 54q0 41 24.5 77.5t68.5 58.5q39 20 82 20q46 0 83 -27q23 -17 37.5 -39t42.5 -79l181 -367l181 367q28 57 42.5 79t37.5 39q37 27 83 27q43 0 82 -20q44 -22 68.5 -58.5t24.5 -77.5q0 -29 -9 -54t-37 -81l-297 -594v-319
q0 -65 -3.5 -92.5t-18.5 -57.5q-19 -38 -60.5 -62t-93.5 -24t-93.5 24t-60.5 62q-15 30 -18.5 57.5t-3.5 92.5zM320 1547q-66 0 -113 47t-47 113t47 113t113 47t113 -47t47 -113t-47 -113t-113 -47zM788 1547q-66 0 -113 47t-47 113t47 113t113 47t113 -47t47 -113t-47 -113
t-113 -47z" />
    <glyph glyph-name="Zacute" unicode="&#x179;" horiz-adv-x="1149" 
d="M859 0h-538q-46 0 -72.5 2t-62.5 14.5t-61 37.5q-55 56 -55 136q0 59 58 148l505 774h-328q-57 0 -83 3.5t-51 15.5q-34 16 -55 53.5t-21 83.5t21 83.5t55 53.5q25 12 51 15.5t83 3.5h512q46 0 72.5 -2t62.5 -14.5t61 -37.5q55 -56 55 -136q0 -59 -58 -148l-505 -774h354
q57 0 83 -3.5t51 -15.5q34 -16 55 -53.5t21 -83.5t-21 -83.5t-55 -53.5q-25 -12 -51 -15.5t-83 -3.5zM841 1754l-75 -120q-43 -68 -67 -85q-32 -22 -69 -22q-39 0 -76 23q-73 45 -66 118q3 39 48 110l75 120q43 68 67 85q32 22 69 22q39 0 76 -23q73 -45 66 -118
q-3 -39 -48 -110z" />
    <glyph glyph-name="zacute" unicode="&#x17a;" horiz-adv-x="960" 
d="M718 0h-476q-89 0 -132 22q-34 17 -51 48.5t-17 65.5q0 41 13.5 72.5t52.5 83.5l366 488h-208q-55 0 -80 3t-48 15q-32 16 -52 51t-20 79t20 79t52 51q23 12 48 15t80 3h452q89 0 132 -22q34 -17 51 -48.5t17 -65.5q0 -41 -13.5 -72.5t-52.5 -83.5l-368 -488h234
q55 0 80 -3t48 -15q32 -16 52 -51t20 -79t-20 -79t-52 -51q-23 -12 -48 -15t-80 -3zM741 1408l-75 -120q-43 -68 -67 -85q-32 -22 -69 -22q-39 0 -76 23q-73 45 -66 118q3 39 48 110l75 120q43 68 67 85q32 22 69 22q39 0 76 -23q73 -45 66 -118q-3 -39 -48 -110z" />
    <glyph glyph-name="Zdotaccent" unicode="&#x17b;" horiz-adv-x="1149" 
d="M859 0h-538q-46 0 -72.5 2t-62.5 14.5t-61 37.5q-55 56 -55 136q0 59 58 148l505 774h-328q-57 0 -83 3.5t-51 15.5q-34 16 -55 53.5t-21 83.5t21 83.5t55 53.5q25 12 51 15.5t83 3.5h512q46 0 72.5 -2t62.5 -14.5t61 -37.5q55 -56 55 -136q0 -59 -58 -148l-505 -774h354
q57 0 83 -3.5t51 -15.5q34 -16 55 -53.5t21 -83.5t-21 -83.5t-55 -53.5q-25 -12 -51 -15.5t-83 -3.5zM592 1550q-66 0 -113 47t-47 113t47 113t113 47t113 -47t47 -113t-47 -113t-113 -47z" />
    <glyph glyph-name="zdotaccent" unicode="&#x17c;" horiz-adv-x="960" 
d="M718 0h-476q-89 0 -132 22q-34 17 -51 48.5t-17 65.5q0 41 13.5 72.5t52.5 83.5l366 488h-208q-55 0 -80 3t-48 15q-32 16 -52 51t-20 79t20 79t52 51q23 12 48 15t80 3h452q89 0 132 -22q34 -17 51 -48.5t17 -65.5q0 -41 -13.5 -72.5t-52.5 -83.5l-368 -488h234
q55 0 80 -3t48 -15q32 -16 52 -51t20 -79t-20 -79t-52 -51q-23 -12 -48 -15t-80 -3zM492 1204q-66 0 -113 47t-47 113t47 113t113 47t113 -47t47 -113t-47 -113t-113 -47z" />
    <glyph glyph-name="Zcaron" unicode="&#x17d;" horiz-adv-x="1149" 
d="M859 0h-538q-46 0 -72.5 2t-62.5 14.5t-61 37.5q-55 56 -55 136q0 59 58 148l505 774h-328q-57 0 -83 3.5t-51 15.5q-34 16 -55 53.5t-21 83.5t21 83.5t55 53.5q25 12 51 15.5t83 3.5h512q46 0 72.5 -2t62.5 -14.5t61 -37.5q55 -56 55 -136q0 -59 -58 -148l-505 -774h354
q57 0 83 -3.5t51 -15.5q34 -16 55 -53.5t21 -83.5t-21 -83.5t-55 -53.5q-25 -12 -51 -15.5t-83 -3.5zM873 1725l-139 -139q-23 -23 -38.5 -36t-44.5 -26.5t-59 -13.5t-59 13.5t-44.5 26.5t-38.5 36l-139 139q-53 53 -65 87q-23 66 34 123q56 56 122 34q36 -13 88 -65
l102 -102l102 102q52 52 88 65q66 22 122 -34q57 -57 34 -123q-12 -34 -65 -87z" />
    <glyph glyph-name="zcaron" unicode="&#x17e;" horiz-adv-x="960" 
d="M718 0h-476q-89 0 -132 22q-34 17 -51 48.5t-17 65.5q0 41 13.5 72.5t52.5 83.5l366 488h-208q-55 0 -80 3t-48 15q-32 16 -52 51t-20 79t20 79t52 51q23 12 48 15t80 3h452q89 0 132 -22q34 -17 51 -48.5t17 -65.5q0 -41 -13.5 -72.5t-52.5 -83.5l-368 -488h234
q55 0 80 -3t48 -15q32 -16 52 -51t20 -79t-20 -79t-52 -51q-23 -12 -48 -15t-80 -3zM773 1379l-139 -139q-23 -23 -38.5 -36t-44.5 -26.5t-59 -13.5t-59 13.5t-44.5 26.5t-38.5 36l-139 139q-53 53 -65 87q-23 66 34 123q56 56 122 34q36 -13 88 -65l102 -102l102 102
q52 52 88 65q66 22 122 -34q57 -57 34 -123q-12 -34 -65 -87z" />
    <glyph glyph-name="longs" unicode="&#x17f;" horiz-adv-x="576" 
d="M124 214v914q0 58 19.5 112.5t58 101.5t104 75.5t148.5 28.5h6q88 0 132 -22q68 -34 68 -116q0 -85 -66 -118q-33 -17 -76 -18q-66 -3 -66 -68v-890q0 -62 -3.5 -89t-16.5 -53q-18 -36 -56.5 -58t-87.5 -22t-87.5 22t-56.5 58q-13 26 -16.5 53t-3.5 89z" />
    <glyph glyph-name="uni018F" unicode="&#x18f;" horiz-adv-x="1262" 
d="M100 561v18q0 36 1.5 57t13 53.5t34.5 55.5t55.5 34.5t53.5 13t57 1.5h498q-1 124 -14.5 179.5t-38.5 88.5q-47 62 -126 62q-99 0 -154 -98q-25 -43 -44.5 -69t-45.5 -45q-39 -29 -96 -29q-71 0 -121 50q-47 47 -47 131q0 55 35 126.5t113 139.5q66 57 149.5 81.5
t208.5 24.5q233 0 389 -156q30 -30 53.5 -65.5t39 -67t25.5 -77.5t15.5 -78t8 -89t3 -90.5t0.5 -100.5q0 -91 -1.5 -139.5t-9 -120t-22 -117t-43.5 -97.5t-71 -94q-79 -79 -174.5 -117.5t-222.5 -38.5q-124 0 -212.5 35.5t-177.5 124.5q-132 132 -132 413zM809 532h-376
q5 -74 16.5 -109.5t30.5 -60.5q47 -62 141 -62t141 62q19 25 30.5 60.5t16.5 109.5z" />
    <glyph glyph-name="florin" unicode="&#x192;" horiz-adv-x="981" 
d="M126 -120l134 676h-4q-75 0 -108 16q-62 30 -62 110t62 110q33 16 108 16h54l64 320q32 163 123.5 241t221.5 78h6q88 0 132 -22q68 -34 68 -116q0 -85 -66 -118q-33 -17 -76 -18h-2q-47 -3 -69.5 -19t-29.5 -50l-59 -296h46q75 0 108 -16q62 -30 62 -110t-62 -110
q-33 -16 -108 -16h-97l-146 -736q-8 -42 -12.5 -59.5t-16.5 -41t-31 -41.5q-37 -34 -96 -34q-67 0 -115 45q-26 25 -34.5 61t-6 61t11.5 69z" />
    <glyph glyph-name="uni01B5" unicode="&#x1b5;" horiz-adv-x="1149" 
d="M859 0h-538q-46 0 -72.5 2t-62.5 14.5t-61 37.5q-55 56 -55 136q0 59 58 148l160 246q-27 4 -48 16q-30 15 -47.5 46.5t-17.5 71.5t17.5 71.5t47.5 46.5q22 12 45.5 15t73.5 3h105l169 258h-328q-57 0 -83 3.5t-51 15.5q-34 16 -55 53.5t-21 83.5t21 83.5t55 53.5
q25 12 51 15.5t83 3.5h512q46 0 72.5 -2t62.5 -14.5t61 -37.5q55 -56 55 -136q0 -59 -58 -148l-154 -235h1q24 -3 49 -15q30 -15 47.5 -46.5t17.5 -71.5t-17.5 -71.5t-47.5 -46.5q-22 -12 -45.5 -15t-73.5 -3h-106l-176 -270h354q57 0 83 -3.5t51 -15.5q34 -16 55 -53.5
t21 -83.5t-21 -83.5t-55 -53.5q-25 -12 -51 -15.5t-83 -3.5z" />
    <glyph glyph-name="uni01B6" unicode="&#x1b6;" horiz-adv-x="960" 
d="M718 0h-476q-89 0 -132 22q-34 17 -51 48.5t-17 65.5q0 41 13.5 72.5t52.5 83.5l100 133q-25 5 -40 13q-62 30 -62 110t62 110q33 16 108 16h118l80 106h-208q-55 0 -80 3t-48 15q-32 16 -52 51t-20 79t20 79t52 51q23 12 48 15t80 3h452q89 0 132 -22q34 -17 51 -48.5
t17 -65.5q0 -41 -13.5 -72.5t-52.5 -83.5l-88 -116q18 -6 27 -10q62 -30 62 -110t-62 -110q-33 -16 -108 -16h-104l-95 -126h234q55 0 80 -3t48 -15q32 -16 52 -51t20 -79t-20 -79t-52 -51q-23 -12 -48 -15t-80 -3z" />
    <glyph glyph-name="uni01C4" unicode="&#x1c4;" horiz-adv-x="2425" 
d="M672 0h-315q-36 0 -57 1.5t-53.5 13t-55.5 34.5t-34.5 55.5t-13 53.5t-1.5 57v994q0 36 1.5 57t13 53.5t34.5 55.5t55.5 34.5t53.5 13t57 1.5h315q313 0 462 -240q48 -79 59 -169.5t11 -302.5t-11 -302.5t-59 -169.5q-149 -240 -462 -240zM494 312h154q115 0 168 80
q23 32 30.5 90t7.5 230q0 171 -8 229.5t-30 90.5q-53 80 -168 80h-154v-800zM2135 0h-538q-46 0 -72.5 2t-62.5 14.5t-61 37.5q-55 56 -55 136q0 59 58 148l505 774h-328q-57 0 -83 3.5t-51 15.5q-34 16 -55 53.5t-21 83.5t21 83.5t55 53.5q25 12 51 15.5t83 3.5h512
q46 0 72.5 -2t62.5 -14.5t61 -37.5q55 -56 55 -136q0 -59 -58 -148l-505 -774h354q57 0 83 -3.5t51 -15.5q34 -16 55 -53.5t21 -83.5t-21 -83.5t-55 -53.5q-25 -12 -51 -15.5t-83 -3.5zM2156 1725l-139 -139q-23 -23 -38.5 -36t-44.5 -26.5t-59 -13.5t-59 13.5t-44.5 26.5
t-38.5 36l-139 139q-53 53 -65 87q-23 66 34 123q56 56 122 34q36 -13 88 -65l102 -102l102 102q52 52 88 65q66 22 122 -34q57 -57 34 -123q-12 -34 -65 -87z" />
    <glyph glyph-name="uni01C5" unicode="&#x1c5;" horiz-adv-x="2259" 
d="M672 0h-315q-36 0 -57 1.5t-53.5 13t-55.5 34.5t-34.5 55.5t-13 53.5t-1.5 57v994q0 36 1.5 57t13 53.5t34.5 55.5t55.5 34.5t53.5 13t57 1.5h315q313 0 462 -240q48 -79 59 -169.5t11 -302.5t-11 -302.5t-59 -169.5q-149 -240 -462 -240zM494 312h154q115 0 168 80
q23 32 30.5 90t7.5 230q0 171 -8 229.5t-30 90.5q-53 80 -168 80h-154v-800zM2017 0h-476q-89 0 -132 22q-34 17 -51 48.5t-17 65.5q0 41 13.5 72.5t52.5 83.5l366 488h-208q-55 0 -80 3t-48 15q-32 16 -52 51t-20 79t20 79t52 51q23 12 48 15t80 3h452q89 0 132 -22
q34 -17 51 -48.5t17 -65.5q0 -41 -13.5 -72.5t-52.5 -83.5l-368 -488h234q55 0 80 -3t48 -15q32 -16 52 -51t20 -79t-20 -79t-52 -51q-23 -12 -48 -15t-80 -3zM2075 1379l-139 -139q-23 -23 -38.5 -36t-44.5 -26.5t-59 -13.5t-59 13.5t-44.5 26.5t-38.5 36l-139 139
q-53 53 -65 87q-23 66 34 123q56 56 122 34q36 -13 88 -65l102 -102l102 102q52 52 88 65q66 22 122 -34q57 -57 34 -123q-12 -34 -65 -87z" />
    <glyph glyph-name="uni01C6" unicode="&#x1c6;" horiz-adv-x="2097" 
d="M1014 214v996q0 62 -3.5 89t-16.5 53q-18 36 -56.5 58t-87.5 22t-87.5 -22t-56.5 -58q-13 -26 -16.5 -53t-3.5 -89v-212q-90 90 -240 90q-163 0 -258 -98q-36 -37 -58 -85t-31 -114t-11 -115.5t-2 -137.5t2 -137.5t11 -115.5t31 -114t58 -85q95 -98 260 -98
q81 0 139 24.5t109 75.5q50 -96 154 -96q49 0 87.5 22t56.5 58q13 26 16.5 53t3.5 89zM550 284q-36 0 -61 12t-39.5 31.5t-22.5 54t-10.5 69.5t-2.5 87t2.5 87t10.5 69.5t22.5 54t39.5 31.5t61 12t61 -12t39.5 -31.5t22.5 -54t10.5 -69.5t2.5 -87t-2.5 -87t-10.5 -69.5
t-22.5 -54t-39.5 -31.5t-61 -12zM1855 0h-476q-89 0 -132 22q-34 17 -51 48.5t-17 65.5q0 41 13.5 72.5t52.5 83.5l366 488h-208q-55 0 -80 3t-48 15q-32 16 -52 51t-20 79t20 79t52 51q23 12 48 15t80 3h452q89 0 132 -22q34 -17 51 -48.5t17 -65.5q0 -41 -13.5 -72.5
t-52.5 -83.5l-368 -488h234q55 0 80 -3t48 -15q32 -16 52 -51t20 -79t-20 -79t-52 -51q-23 -12 -48 -15t-80 -3zM1911 1379l-139 -139q-23 -23 -38.5 -36t-44.5 -26.5t-59 -13.5t-59 13.5t-44.5 26.5t-38.5 36l-139 139q-53 53 -65 87q-23 66 34 123q56 56 122 34
q36 -13 88 -65l102 -102l102 102q52 52 88 65q66 22 122 -34q57 -57 34 -123q-12 -34 -65 -87z" />
    <glyph glyph-name="uni01C7" unicode="&#x1c7;" horiz-adv-x="2184" 
d="M892 0h-535q-36 0 -57 1.5t-53.5 13t-55.5 34.5t-34.5 55.5t-13 53.5t-1.5 57v981q0 65 3.5 92.5t18.5 57.5q19 38 60.5 62t93.5 24t93.5 -24t60.5 -62q15 -30 18.5 -57.5t3.5 -92.5v-884h396q57 0 83 -3.5t51 -15.5q34 -16 55 -53.5t21 -83.5t-21 -83.5t-55 -53.5
q-25 -12 -51 -15.5t-81 -3.5zM1710 496v700q0 65 3.5 92.5t18.5 57.5q19 38 60.5 62t93.5 24t93.5 -24t60.5 -62q15 -30 18.5 -57.5t3.5 -92.5v-708q0 -122 -46 -220t-123 -157.5t-171.5 -91t-197.5 -31.5q-174 0 -278 77q-76 56 -76 137q0 31 14 62t36 50q40 34 92 34
q12 0 22.5 -1t23 -4.5t18 -5.5t23 -8.5t23.5 -8.5q47 -18 102 -18q85 0 135.5 48t50.5 146z" />
    <glyph glyph-name="uni01C8" unicode="&#x1c8;" horiz-adv-x="1727" 
d="M892 0h-535q-36 0 -57 1.5t-53.5 13t-55.5 34.5t-34.5 55.5t-13 53.5t-1.5 57v981q0 65 3.5 92.5t18.5 57.5q19 38 60.5 62t93.5 24t93.5 -24t60.5 -62q15 -30 18.5 -57.5t3.5 -92.5v-884h396q57 0 83 -3.5t51 -15.5q34 -16 55 -53.5t21 -83.5t-21 -83.5t-55 -53.5
q-25 -12 -51 -15.5t-81 -3.5zM1273 -360h-6q-88 0 -132 22q-68 34 -68 116q0 85 66 118q31 15 81 18q61 3 61 68v838q0 62 3.5 89t16.5 53q18 36 56.5 58t87.5 22t87.5 -22t56.5 -58q13 -26 16.5 -53t3.5 -89v-862q0 -58 -19.5 -112.5t-58 -101.5t-104 -75.5t-148.5 -28.5z
M1439 1142q-75 0 -128.5 53.5t-53.5 128.5t53.5 128.5t128.5 53.5t128.5 -53.5t53.5 -128.5t-53.5 -128.5t-128.5 -53.5z" />
    <glyph glyph-name="uni01C9" unicode="&#x1c9;" horiz-adv-x="1257" 
d="M450 0h-6q-83 0 -148.5 28.5t-104 75.5t-58 101.5t-19.5 112.5v892q0 62 3.5 89t16.5 53q18 36 56.5 58t87.5 22t87.5 -22t56.5 -58q13 -26 16.5 -53t3.5 -89v-868q0 -65 61 -68q50 -3 81 -18q66 -33 66 -118q0 -82 -68 -116q-44 -22 -132 -22zM803 -360h-6
q-88 0 -132 22q-68 34 -68 116q0 85 66 118q31 15 81 18q61 3 61 68v838q0 62 3.5 89t16.5 53q18 36 56.5 58t87.5 22t87.5 -22t56.5 -58q13 -26 16.5 -53t3.5 -89v-862q0 -58 -19.5 -112.5t-58 -101.5t-104 -75.5t-148.5 -28.5zM969 1142q-75 0 -128.5 53.5t-53.5 128.5
t53.5 128.5t128.5 53.5t128.5 -53.5t53.5 -128.5t-53.5 -128.5t-128.5 -53.5z" />
    <glyph glyph-name="uni01CA" unicode="&#x1ca;" horiz-adv-x="2432" 
d="M1258 208q0 -58 -9 -96t-37 -66q-54 -54 -132 -54q-57 0 -101 37t-106 129l-379 558v-488q0 -65 -3.5 -92.5t-18.5 -57.5q-19 -38 -60.5 -62t-93.5 -24t-93.5 24t-60.5 62q-15 30 -18.5 57.5t-3.5 92.5v988q0 58 9 96t37 66q54 54 132 54q57 0 101 -37t106 -129l379 -558
v488q0 65 3.5 92.5t18.5 57.5q19 38 60.5 62t93.5 24t93.5 -24t60.5 -62q15 -30 18.5 -57.5t3.5 -92.5v-988zM1958 496v700q0 65 3.5 92.5t18.5 57.5q19 38 60.5 62t93.5 24t93.5 -24t60.5 -62q15 -30 18.5 -57.5t3.5 -92.5v-708q0 -122 -46 -220t-123 -157.5t-171.5 -91
t-197.5 -31.5q-174 0 -278 77q-76 56 -76 137q0 31 14 62t36 50q40 34 92 34q12 0 22.5 -1t23 -4.5t18 -5.5t23 -8.5t23.5 -8.5q47 -18 102 -18q85 0 135.5 48t50.5 146z" />
    <glyph glyph-name="uni01CB" unicode="&#x1cb;" horiz-adv-x="1976" 
d="M1258 208q0 -58 -9 -96t-37 -66q-54 -54 -132 -54q-57 0 -101 37t-106 129l-379 558v-488q0 -65 -3.5 -92.5t-18.5 -57.5q-19 -38 -60.5 -62t-93.5 -24t-93.5 24t-60.5 62q-15 30 -18.5 57.5t-3.5 92.5v988q0 58 9 96t37 66q54 54 132 54q57 0 101 -37t106 -129l379 -558
v488q0 65 3.5 92.5t18.5 57.5q19 38 60.5 62t93.5 24t93.5 -24t60.5 -62q15 -30 18.5 -57.5t3.5 -92.5v-988zM1522 -360h-6q-88 0 -132 22q-68 34 -68 116q0 85 66 118q31 15 81 18q61 3 61 68v838q0 62 3.5 89t16.5 53q18 36 56.5 58t87.5 22t87.5 -22t56.5 -58
q13 -26 16.5 -53t3.5 -89v-862q0 -58 -19.5 -112.5t-58 -101.5t-104 -75.5t-148.5 -28.5zM1688 1142q-75 0 -128.5 53.5t-53.5 128.5t53.5 128.5t128.5 53.5t128.5 -53.5t53.5 -128.5t-53.5 -128.5t-128.5 -53.5z" />
    <glyph glyph-name="uni01CC" unicode="&#x1cc;" horiz-adv-x="1735" 
d="M1281 -360h-6q-88 0 -132 22q-68 34 -68 116q0 85 66 118q31 15 81 18q61 3 61 68v838q0 62 3.5 89t16.5 53q18 36 56.5 58t87.5 22t87.5 -22t56.5 -58q13 -26 16.5 -53t3.5 -89v-862q0 -58 -19.5 -112.5t-58 -101.5t-104 -75.5t-148.5 -28.5zM1447 1142
q-75 0 -128.5 53.5t-53.5 128.5t53.5 128.5t128.5 53.5t128.5 -53.5t53.5 -128.5t-53.5 -128.5t-128.5 -53.5zM716 214v430q0 44 -14 75t-36 46t-42 21t-40 6t-40 -6t-42 -21t-36 -46t-14 -75v-430q0 -62 -3.5 -89t-16.5 -53q-18 -36 -56.5 -58t-87.5 -22t-87.5 22t-56.5 58
q-13 26 -16.5 53t-3.5 89v648q0 62 3.5 89t16.5 53q18 36 56.5 58t87.5 22q104 0 154 -96q48 48 116.5 74t135.5 26q150 0 242 -92q64 -64 86 -137t22 -171v-474q0 -62 -3.5 -89t-16.5 -53q-18 -36 -56.5 -58t-87.5 -22t-87.5 22t-56.5 58q-13 26 -16.5 53t-3.5 89z" />
    <glyph glyph-name="uni01F1" unicode="&#x1f1;" horiz-adv-x="2424" 
d="M672 0h-315q-36 0 -57 1.5t-53.5 13t-55.5 34.5t-34.5 55.5t-13 53.5t-1.5 57v994q0 36 1.5 57t13 53.5t34.5 55.5t55.5 34.5t53.5 13t57 1.5h315q313 0 462 -240q48 -79 59 -169.5t11 -302.5t-11 -302.5t-59 -169.5q-149 -240 -462 -240zM494 312h154q115 0 168 80
q23 32 30.5 90t7.5 230q0 171 -8 229.5t-30 90.5q-53 80 -168 80h-154v-800zM2134 0h-538q-46 0 -72.5 2t-62.5 14.5t-61 37.5q-55 56 -55 136q0 59 58 148l505 774h-328q-57 0 -83 3.5t-51 15.5q-34 16 -55 53.5t-21 83.5t21 83.5t55 53.5q25 12 51 15.5t83 3.5h512
q46 0 72.5 -2t62.5 -14.5t61 -37.5q55 -56 55 -136q0 -59 -58 -148l-505 -774h354q57 0 83 -3.5t51 -15.5q34 -16 55 -53.5t21 -83.5t-21 -83.5t-55 -53.5q-25 -12 -51 -15.5t-83 -3.5z" />
    <glyph glyph-name="uni01F2" unicode="&#x1f2;" horiz-adv-x="2259" 
d="M672 0h-315q-36 0 -57 1.5t-53.5 13t-55.5 34.5t-34.5 55.5t-13 53.5t-1.5 57v994q0 36 1.5 57t13 53.5t34.5 55.5t55.5 34.5t53.5 13t57 1.5h315q313 0 462 -240q48 -79 59 -169.5t11 -302.5t-11 -302.5t-59 -169.5q-149 -240 -462 -240zM494 312h154q115 0 168 80
q23 32 30.5 90t7.5 230q0 171 -8 229.5t-30 90.5q-53 80 -168 80h-154v-800zM2017 0h-476q-89 0 -132 22q-34 17 -51 48.5t-17 65.5q0 41 13.5 72.5t52.5 83.5l366 488h-208q-55 0 -80 3t-48 15q-32 16 -52 51t-20 79t20 79t52 51q23 12 48 15t80 3h452q89 0 132 -22
q34 -17 51 -48.5t17 -65.5q0 -41 -13.5 -72.5t-52.5 -83.5l-368 -488h234q55 0 80 -3t48 -15q32 -16 52 -51t20 -79t-20 -79t-52 -51q-23 -12 -48 -15t-80 -3z" />
    <glyph glyph-name="uni01F3" unicode="&#x1f3;" horiz-adv-x="2093" 
d="M1014 1210v-996q0 -62 -3.5 -89t-16.5 -53q-18 -36 -56.5 -58t-87.5 -22q-104 0 -154 96q-51 -51 -109 -75.5t-139 -24.5q-165 0 -260 98q-36 37 -58 85t-31 114t-11 115.5t-2 137.5t2 137.5t11 115.5t31 114t58 85q95 98 258 98q150 0 240 -90v212q0 62 3.5 89t16.5 53
q18 36 56.5 58t87.5 22t87.5 -22t56.5 -58q13 -26 16.5 -53t3.5 -89zM550 284q36 0 61 12t39.5 31.5t22.5 54t10.5 69.5t2.5 87t-2.5 87t-10.5 69.5t-22.5 54t-39.5 31.5t-61 12t-61 -12t-39.5 -31.5t-22.5 -54t-10.5 -69.5t-2.5 -87t2.5 -87t10.5 -69.5t22.5 -54
t39.5 -31.5t61 -12zM1851 0h-476q-89 0 -132 22q-34 17 -51 48.5t-17 65.5q0 41 13.5 72.5t52.5 83.5l366 488h-208q-55 0 -80 3t-48 15q-32 16 -52 51t-20 79t20 79t52 51q23 12 48 15t80 3h452q89 0 132 -22q34 -17 51 -48.5t17 -65.5q0 -41 -13.5 -72.5t-52.5 -83.5
l-368 -488h234q55 0 80 -3t48 -15q32 -16 52 -51t20 -79t-20 -79t-52 -51q-23 -12 -48 -15t-80 -3z" />
    <glyph glyph-name="Aringacute" unicode="&#x1fa;" horiz-adv-x="1294" 
d="M70 268l378 1003q-77 79 -77 191q0 114 81 195t195 81t195 -81t81 -195q0 -111 -77 -191l378 -1003q20 -54 27.5 -84.5t0 -69t-39.5 -70.5q-52 -52 -126 -52q-60 0 -99 36q-22 20 -35.5 45t-33.5 81l-21 58h-500l-21 -58q-20 -56 -33.5 -81t-35.5 -45q-39 -36 -99 -36
q-74 0 -126 52q-32 32 -39.5 70.5t0 69t27.5 84.5zM844 1904l-69 -69q-52 -52 -88 -65q-66 -22 -122 34q-57 57 -34 123q12 34 65 87l69 69q52 52 88 65q66 22 122 -34q57 -57 34 -123q-12 -34 -65 -87zM791 504l-144 396l-144 -396h288zM751 1462q0 43 -30.5 73.5
t-73.5 30.5t-73.5 -30.5t-30.5 -73.5t30.5 -73.5t73.5 -30.5t73.5 30.5t30.5 73.5z" />
    <glyph glyph-name="aringacute" unicode="&#x1fb;" horiz-adv-x="1076" 
d="M735 1904l-69 -69q-52 -52 -88 -65q-66 -22 -122 34q-57 57 -34 123q12 34 65 87l69 69q52 52 88 65q66 22 122 -34q57 -57 34 -123q-12 -34 -65 -87zM962 698v-484q0 -62 -3.5 -89t-16.5 -53q-18 -36 -56.5 -58t-87.5 -22q-104 0 -154 96q-59 -55 -110 -76.5t-132 -21.5
q-162 0 -258 96q-94 94 -94 252q0 63 22 117.5t65.5 99t116.5 70t168 25.5h212v28q0 72 -37 103t-115 31q-63 0 -134 -30q-62 -26 -100 -26q-57 0 -92 44q-36 44 -36 98q0 47 30 80.5t70 51.5q130 58 268 58q233 0 353.5 -97.5t120.5 -292.5zM634 404v28h-156
q-56 0 -85 -23.5t-29 -64.5q0 -39 30 -63.5t88 -24.5q42 0 67.5 8t50.5 30q34 31 34 110zM632 1462q0 43 -30.5 73.5t-73.5 30.5t-73.5 -30.5t-30.5 -73.5t30.5 -73.5t73.5 -30.5t73.5 30.5t30.5 73.5zM528 1186q-114 0 -195 81t-81 195t81 195t195 81t195 -81t81 -195
t-81 -195t-195 -81z" />
    <glyph glyph-name="AEacute" unicode="&#x1fc;" horiz-adv-x="1952" 
d="M84 283l463 928q61 120 117 165q61 48 144 48h844q57 0 83 -3.5t51 -15.5q34 -16 55 -53.5t21 -83.5t-21 -83.5t-55 -53.5q-25 -12 -51 -15.5t-83 -3.5h-418v-238h328q57 0 83 -3.5t51 -15.5q34 -16 55 -53.5t21 -83.5t-21 -83.5t-55 -53.5q-25 -12 -51 -15.5t-83 -3.5
h-328v-250h418q57 0 83 -3.5t51 -15.5q34 -16 55 -53.5t21 -83.5t-21 -83.5t-55 -53.5q-25 -12 -51 -15.5t-83 -3.5h-555q-36 0 -57 1.5t-53.5 13t-55.5 34.5t-34.5 55.5t-13 53.5t-1.5 57v83h-426l-80 -161q-28 -57 -42.5 -79t-37.5 -39q-37 -27 -83 -27q-43 0 -82 20
q-44 22 -68.5 58.5t-24.5 77.5q0 29 9 54t37 81zM602 590h280v561zM1287 1754l-75 -120q-43 -68 -67 -85q-32 -22 -69 -22q-39 0 -76 23q-73 45 -66 118q3 39 48 110l75 120q43 68 67 85q32 22 69 22q39 0 76 -23q73 -45 66 -118q-3 -39 -48 -110z" />
    <glyph glyph-name="aeacute" unicode="&#x1fd;" horiz-adv-x="1675" 
d="M1423 432h-463q0 -70 52 -120t142 -50q88 0 162 48q63 42 114 42q47 0 88.5 -40.5t41.5 -95.5q0 -77 -102 -148q-116 -80 -308 -80q-246 0 -376 130q-89 -82 -170 -106t-198 -24q-162 0 -258 98q-94 94 -94 252q0 63 22 117.5t65.5 99t116.5 70t168 25.5h212v28
q0 72 -37 103t-115 31q-63 0 -134 -30q-62 -26 -100 -26q-57 0 -92 44q-36 44 -36 98q0 47 30 80.5t70 51.5q130 58 268 58q222 0 340 -90q117 90 288 90q145 0 254.5 -65t165.5 -170t62 -235q4 -98 -44 -146q-18 -18 -43.5 -27.5t-43.5 -11t-48 -1.5zM638 404v28h-156
q-56 0 -85 -23.5t-29 -64.5q0 -39 30 -63.5t88 -24.5q42 0 67.5 8t50.5 30q34 31 34 110zM960 650h320q0 48 -18 84q-40 84 -142 84q-104 0 -142 -84q-18 -39 -18 -84zM991 1408l-75 -120q-43 -68 -67 -85q-32 -22 -69 -22q-39 0 -76 23q-73 45 -66 118q3 39 48 110l75 120
q43 68 67 85q32 22 69 22q39 0 76 -23q73 -45 66 -118q-3 -39 -48 -110z" />
    <glyph glyph-name="Oslashacute" unicode="&#x1fe;" horiz-adv-x="1280" 
d="M640 -12q-104 0 -191 28l-3 -6q-20 -40 -32.5 -58t-30.5 -32q-55 -42 -126 -6q-34 17 -53 45t-18 60q0 36 34 104l15 30q-33 35 -57.5 73t-39.5 84.5t-24 85.5t-12.5 100t-4.5 101.5t-1 114.5q0 91 1.5 139.5t9 120t22 117t43.5 97.5t71 94q79 79 174.5 117.5t222.5 38.5
q104 0 191 -28l3 6q20 40 32.5 58t30.5 32q55 42 126 6q34 -17 53 -45t18 -60q0 -36 -34 -104l-15 -30q33 -35 57.5 -73t39.5 -84.5t24 -85.5t12.5 -100t4.5 -101.5t1 -114.5q0 -91 -1.5 -139.5t-9 -120t-22 -117t-43.5 -97.5t-71 -94q-79 -79 -174.5 -117.5t-222.5 -38.5z
M453 525l276 578q-40 21 -89 21q-46 0 -82.5 -17.5t-57.5 -44.5q-28 -36 -40 -103.5t-12 -246.5q0 -110 5 -187zM640 300q91 0 140 64q28 37 40 103t12 245q0 118 -6 187l-275 -578q39 -21 89 -21zM889 1754l-75 -120q-43 -68 -67 -85q-32 -22 -69 -22q-39 0 -76 23
q-73 45 -66 118q3 39 48 110l75 120q43 68 67 85q32 22 69 22q39 0 76 -23q73 -45 66 -118q-3 -39 -48 -110z" />
    <glyph glyph-name="oslashacute" unicode="&#x1ff;" horiz-adv-x="1100" 
d="M732 1058l12 21q35 58 63 77q52 34 114 -3q61 -36 56 -100q-2 -32 -38 -91l-22 -36q54 -67 75.5 -154.5t21.5 -233.5q0 -160 -25.5 -249.5t-92.5 -162.5q-130 -138 -346 -138q-97 0 -182 30l-12 -21q-35 -58 -63 -77q-52 -34 -114 3q-61 36 -56 100q2 32 38 91l22 36
q-54 68 -75.5 154.5t-21.5 233.5q0 159 25.5 249t92.5 163q130 138 346 138q99 0 182 -30zM417 437l200 340q-25 15 -67 15q-58 0 -88 -30q-29 -29 -38.5 -81.5t-9.5 -142.5q0 -71 3 -101zM682 639l-200 -341q25 -14 68 -14q58 0 88 30q29 29 38.5 81.5t9.5 142.5
q0 61 -4 101zM799 1408l-75 -120q-43 -68 -67 -85q-32 -22 -69 -22q-39 0 -76 23q-73 45 -66 118q3 39 48 110l75 120q43 68 67 85q32 22 69 22q39 0 76 -23q73 -45 66 -118q-3 -39 -48 -110z" />
    <glyph glyph-name="Scommaaccent" unicode="&#x218;" horiz-adv-x="1189" 
d="M639 550l-172 24q-190 27 -286 126q-98 101 -98 286q0 199 140.5 324.5t379.5 125.5q168 0 306 -54q68 -27 107 -71.5t39 -100.5q0 -58 -42 -108q-39 -48 -102 -48q-43 0 -124 34q-94 40 -194 40q-84 0 -128 -37.5t-44 -82.5q0 -48 28 -76q33 -33 98 -42l172 -24
q189 -27 280 -118q106 -103 106 -312q0 -140 -75.5 -243.5t-198.5 -154t-276 -50.5q-205 0 -326 48q-94 37 -140 83.5t-46 120.5q0 66 48 114q38 38 96 38q25 0 50.5 -8.5t85.5 -33.5q121 -52 234 -52q102 0 153 33.5t51 96.5q0 53 -28 84q-30 30 -94 38zM659 -328l-75 -120
q-43 -68 -67 -85q-32 -22 -69 -22q-39 0 -76 23q-73 45 -66 118q3 39 48 110l75 120q43 68 67 85q32 22 69 22q39 0 76 -23q73 -45 66 -118q-3 -39 -48 -110z" />
    <glyph glyph-name="scommaaccent" unicode="&#x219;" horiz-adv-x="1008" 
d="M552 404l-166 16q-312 30 -312 312q0 86 36.5 155.5t97.5 112.5t136.5 65.5t157.5 22.5q146 0 266 -44q67 -25 102 -60q36 -37 36 -94q0 -28 -13 -57.5t-31 -46.5q-39 -36 -88 -36q-32 0 -89 24q-122 50 -191 50q-46 0 -75 -18.5t-29 -48.5q0 -54 70 -61l166 -16
q163 -16 243.5 -104t80.5 -224q0 -74 -24.5 -135t-67.5 -103t-102 -71t-127.5 -42t-144.5 -13q-126 0 -212 22t-158 70q-72 49 -72 120q0 33 14.5 64t37.5 48q40 31 86 31q37 0 98 -31q101 -52 214 -52q59 0 98.5 19.5t39.5 56.5q0 61 -78 68zM593 -328l-75 -120
q-43 -68 -67 -85q-32 -22 -69 -22q-39 0 -76 23q-73 45 -66 118q3 39 48 110l75 120q43 68 67 85q32 22 69 22q39 0 76 -23q73 -45 66 -118q-3 -39 -48 -110z" />
    <glyph glyph-name="uni021A" unicode="&#x21a;" horiz-adv-x="1162" 
d="M405 228v884h-147q-57 0 -83 3.5t-51 15.5q-34 16 -55 53.5t-21 83.5t21 83.5t55 53.5q25 12 51 15.5t83 3.5h646q57 0 83 -3.5t51 -15.5q34 -16 55 -53.5t21 -83.5t-21 -83.5t-55 -53.5q-25 -12 -51 -15.5t-83 -3.5h-147v-884q0 -65 -3.5 -92.5t-18.5 -57.5
q-19 -38 -60.5 -62t-93.5 -24t-93.5 24t-60.5 62q-15 30 -18.5 57.5t-3.5 92.5zM668 -328l-75 -120q-43 -68 -67 -85q-32 -22 -69 -22q-39 0 -76 23q-73 45 -66 118q3 39 48 110l75 120q43 68 67 85q32 22 69 22q39 0 76 -23q73 -45 66 -118q-3 -39 -48 -110z" />
    <glyph glyph-name="uni021B" unicode="&#x21b;" horiz-adv-x="767" 
d="M525 0h-6q-83 0 -148.5 28.5t-104 75.5t-58 101.5t-19.5 112.5v464h-1q-75 0 -108 16q-62 30 -62 110t62 110q33 16 108 16h1v94q0 62 3.5 89t16.5 53q18 36 56.5 58t87.5 22t87.5 -22t56.5 -58q13 -26 16.5 -53t3.5 -89v-94h38q75 0 108 -16q62 -30 62 -110t-62 -110
q-33 -16 -108 -16h-38v-440q0 -65 61 -68q50 -3 81 -18q66 -33 66 -118q0 -82 -68 -116q-44 -22 -132 -22zM489 -328l-75 -120q-43 -68 -67 -85q-32 -22 -69 -22q-39 0 -76 23q-73 45 -66 118q3 39 48 110l75 120q43 68 67 85q32 22 69 22q39 0 76 -23q73 -45 66 -118
q-3 -39 -48 -110z" />
    <glyph glyph-name="uni0237" unicode="&#x237;" horiz-adv-x="576" 
d="M122 -360h-6q-88 0 -132 22q-68 34 -68 116q0 85 66 118q31 15 81 18q61 3 61 68v838q0 62 3.5 89t16.5 53q18 36 56.5 58t87.5 22t87.5 -22t56.5 -58q13 -26 16.5 -53t3.5 -89v-862q0 -58 -19.5 -112.5t-58 -101.5t-104 -75.5t-148.5 -28.5z" />
    <glyph glyph-name="uni0259" unicode="&#x259;" horiz-adv-x="1113" 
d="M252 644h463q0 70 -52 120t-142 50q-88 0 -162 -48q-63 -42 -114 -42q-47 0 -88.5 40.5t-41.5 95.5q0 77 102 148q116 80 308 80q512 0 512 -550q0 -259 -133 -404.5t-349 -145.5q-145 0 -254.5 65t-165.5 170t-62 235q-4 98 44 146q18 18 43.5 27.5t43.5 11t48 1.5z
M715 426h-320q0 -48 18 -84q40 -84 142 -84q104 0 142 84q18 39 18 84z" />
    <glyph glyph-name="uni02BB" unicode="&#x2bb;" horiz-adv-x="605" 
d="M492 1163l-67 -201q-19 -57 -31 -82t-33 -46q-41 -41 -104 -41q-53 0 -107 34t-62 98q-4 29 1.5 57.5t23.5 83.5l67 201q19 57 31 82t33 46q41 41 104 41q53 0 107 -34t62 -98q4 -29 -1.5 -57.5t-23.5 -83.5z" />
    </font>
</defs>
</svg>
