<?xml version="1.0" standalone="no"?>
<!DOCTYPE svg PUBLIC "-//W3C//DTD SVG 1.1//EN" "http://www.w3.org/Graphics/SVG/1.1/DTD/svg11.dtd" >
<svg xmlns="http://www.w3.org/2000/svg" xmlns:xlink="http://www.w3.org/1999/xlink" version="1.1">
<metadata>
Created by FontForge 20150824 at Mon Apr 18 14:44:40 2016
 By Everything Fonts
Copyright (c) 2012 by Typedepot. All rights reserved.
</metadata>
<defs>
<font id="Corki-Rounded" horiz-adv-x="339" >
  <font-face 
    font-family="Corki Rounded"
    font-weight="400"
    font-stretch="normal"
    units-per-em="1000"
    panose-1="0 0 5 0 0 0 0 0 0 0"
    ascent="750"
    descent="-250"
    x-height="520"
    cap-height="750"
    bbox="-10 -165 812 924"
    underline-thickness="50"
    underline-position="-150"
    unicode-range="U+0020-2122"
  />
<missing-glyph horiz-adv-x="210" 
 />
    <glyph glyph-name=".notdef" horiz-adv-x="210" 
 />
    <glyph glyph-name=".null" horiz-adv-x="0" 
 />
    <glyph glyph-name="nonmarkingreturn" horiz-adv-x="333" 
 />
    <glyph glyph-name="space" unicode=" " horiz-adv-x="210" 
 />
    <glyph glyph-name="exclam" unicode="!" horiz-adv-x="165" 
d="M54 401v324q0 11 7 18t18 7h8q11 0 18 -7t7 -18v-324l-6 -203q-2 -24 -25 -24q-21 0 -23 25zM105 88v-64q0 -10 -7.5 -17.5t-17.5 -7.5q-9 0 -15 7t-6 18v64q0 10 7.5 17.5t17.5 7.5q9 0 15 -7t6 -18z" />
    <glyph glyph-name="quotedbl" unicode="&#x22;" horiz-adv-x="225" 
d="M46 702v32q0 26 24 26q23 0 21 -26v-32l-7 -107q-2 -20 -15 -20t-15 20zM135 702v32q0 26 24 26q23 0 21 -26v-32l-7 -107q-2 -20 -15 -20t-15 20z" />
    <glyph glyph-name="numbersign" unicode="#" horiz-adv-x="536" 
d="M127 245h-75q-14 0 -21.5 10t-4.5 23v1q5 20 24 20h88l33 152h-75q-14 0 -21.5 10t-4.5 23v1q5 20 24 20h88l48 226q3 19 23 19h2q14 0 22 -9.5t5 -23.5l-45 -212h120l48 226q3 19 23 19h1q14 0 22 -9.5t5 -23.5l-45 -212h76q14 0 21.5 -10t4.5 -23v-1q-5 -20 -24 -20
h-89l-33 -152h76q14 0 21.5 -10t4.5 -23v-1q-5 -20 -24 -20h-89l-48 -226q-3 -19 -23 -19h-1q-14 0 -22 9.5t-5 23.5l45 212h-120l-48 -226q-3 -19 -23 -19h-2q-14 0 -22 9.5t-5 23.5zM313 299l33 152h-120l-33 -152h120z" />
    <glyph glyph-name="dollar" unicode="$" horiz-adv-x="374" 
d="M179 782v-25q65 -15 87 -109h4v87q0 11 6 18t14 7q21 0 21 -25v-226q0 -26 -19 -26q-18 0 -23 24l-15 92q-34 103 -87 103q-26 0 -45 -23t-19 -64q0 -25 10.5 -53.5t18.5 -43t36 -55.5t36 -54q40 -53 61 -85t42.5 -85t21.5 -101q0 -60 -21 -98q-22 -39 -68 -48v-24
q-2 -24 -23 -24q-10 0 -17 7t-7 17l-2 26q-49 13 -72 62q-19 41 -19 71h-4v-111q0 -11 -6.5 -18.5t-16.5 -7.5t-16 7t-6 18v212q0 11 7 18.5t18 7.5q20 0 24 -21q10 -58 18 -83q13 -40 36 -70.5t54 -30.5q28 0 45.5 27t17.5 69q0 37 -17.5 79t-32 63.5t-45.5 63.5
q-75 102 -103 156t-28 110q0 53 22.5 91t61.5 49l2 26q0 10 7 17t17 7q21 0 24 -24z" />
    <glyph glyph-name="percent" unicode="%" horiz-adv-x="605" 
d="M45 454v182q0 55 29 89.5t81 34.5t80.5 -35t28.5 -89v-182q0 -54 -28.5 -88.5t-80.5 -34.5q-51 0 -80.5 34t-29.5 89zM153 39l251 696q7 15 22 15q16 0 24 -11.5t3 -27.5l-251 -696q-5 -15 -21 -15h-1q-16 0 -24 11.5t-3 27.5zM213 450v192q0 69 -58 69t-58 -69v-192
q0 -69 58 -69t58 69zM341 113v182q0 55 29 89.5t81 34.5t80.5 -35t28.5 -89v-182q0 -54 -28.5 -88.5t-80.5 -34.5q-51 0 -80.5 34t-29.5 89zM509 109v192q0 69 -58 69t-58 -69v-192q0 -69 58 -69t58 69z" />
    <glyph glyph-name="ampersand" unicode="&#x26;" horiz-adv-x="471" 
d="M343 372v-248q0 -78 56 -78q28 0 28 -29q0 -26 -32 -26q-53 0 -82 49q-40 -48 -103 -50h-24q-55 0 -94.5 39.5t-39.5 94.5v130q0 45 9.5 76t24.5 43.5t26 17t22 4.5q-27 1 -45.5 15t-25.5 34.5t-9 34t-2 26.5v116q0 55 39 92t94 37h84q11 0 18 -7t7 -18q0 -10 -7 -17
t-18 -7h-84q-32 0 -53.5 -23.5t-21.5 -56.5v-123q0 -8 1.5 -17t7.5 -25.5t21 -27t38 -10.5h111v61q0 11 7.5 18t17.5 7h4q10 0 17.5 -7t7.5 -18v-61h55q11 0 18 -6.5t7 -16.5t-7 -16.5t-18 -6.5h-55zM289 372h-107q-6 0 -12.5 -1.5t-18 -8.5t-20 -19t-15 -37t-6.5 -58v-129
q0 -32 23.5 -55.5t55.5 -23.5h21q32 0 55.5 23.5t23.5 55.5v253z" />
    <glyph glyph-name="quotesingle" unicode="'" horiz-adv-x="136" 
d="M46 702v32q0 26 24 26q23 0 21 -26v-32l-7 -107q-2 -20 -15 -20t-15 20z" />
    <glyph glyph-name="parenleft" unicode="(" horiz-adv-x="229" 
d="M139 786q11 25 32 14q13 -7 5 -29q-78 -208 -78 -396t78 -396q8 -22 -5 -29q-21 -11 -32 14q-94 213 -94 411t94 411z" />
    <glyph glyph-name="parenright" unicode=")" horiz-adv-x="229" 
d="M90 786q94 -213 94 -411t-94 -411q-11 -25 -32 -14q-13 7 -5 29q78 208 78 396t-78 396q-8 22 5 29q21 11 32 -14z" />
    <glyph glyph-name="asterisk" unicode="*" horiz-adv-x="322" 
d="M143 603l-43 -30q-24 -15 -38 9q-12 25 12 36l48 23l-48 23q-11 5 -14 15t3 21q5 10 16 12.5t21 -5.5l43 -29l-4 53q-1 12 6.5 20t19.5 8t19.5 -8t6.5 -20l-4 -53l43 30q10 7 20.5 4.5t16.5 -13.5q14 -22 -12 -36l-47 -22l48 -23q11 -5 14 -15t-3 -21t-16.5 -13t-21.5 5
l-42 29l4 -52q1 -12 -6.5 -20t-19.5 -8t-19.5 8t-6.5 20z" />
    <glyph glyph-name="plus" unicode="+" 
d="M145 299h-75q-10 0 -17.5 7.5t-7.5 17.5v1q0 11 7.5 18t17.5 7h75v74q0 10 7.5 17.5t17.5 7.5q11 0 18 -7t7 -18v-74h74q11 0 18 -7t7 -18v-1q0 -10 -7 -17.5t-18 -7.5h-74v-74q0 -11 -7.5 -18t-17.5 -7q-11 0 -18 7t-7 18v74z" />
    <glyph glyph-name="comma" unicode="," horiz-adv-x="188" 
d="M93 113h23q10 0 17.5 -7.5t7.5 -17.5v-87q0 -39 -25 -76q-12 -18 -32 -7q-14 8 -2 30q12 26 11 52q-11 0 -18 7t-7 18v63q0 10 7 17.5t18 7.5z" />
    <glyph glyph-name="hyphen" unicode="-" 
d="M269 297h-199q-10 0 -17.5 7.5t-7.5 17.5v2q0 10 7.5 17.5t17.5 7.5h199q11 0 18 -7.5t7 -17.5v-2q0 -10 -7 -17.5t-18 -7.5z" />
    <glyph glyph-name="period" unicode="." horiz-adv-x="173" 
d="M55 26v62q0 10 7.5 17.5t17.5 7.5h23q11 0 18 -7.5t7 -17.5v-62q0 -25 -25 -25h-22q-11 -1 -18.5 6.5t-7.5 18.5z" />
    <glyph glyph-name="slash" unicode="/" horiz-adv-x="302" 
d="M44 33l154 698q3 19 23 19h4q14 0 22 -9.5t5 -23.5l-154 -698q-3 -19 -23 -19h-4q-14 0 -22 9.5t-5 23.5z" />
    <glyph glyph-name="zero" unicode="0" horiz-adv-x="365" 
d="M45 124v502q0 69 37 101.5t100 32.5q71 0 104.5 -36t33.5 -97v-503q0 -69 -37 -101.5t-101 -32.5q-71 0 -104 36t-33 98zM262 119v512q0 80 -80 80q-79 0 -79 -79v-513q0 -80 79 -80q80 0 80 80z" />
    <glyph glyph-name="one" unicode="1" horiz-adv-x="302" 
d="M176 49h46q10 0 17.5 -7.5t7.5 -17.5t-7 -17t-18 -7h-151q-11 0 -18 7t-7 18q0 10 7 17t18 7h47v609h-48q-10 0 -17.5 7t-7.5 18t23 16q31 8 45 36q7 15 21 15h16q11 0 18.5 -7t7.5 -18v-676z" />
    <glyph glyph-name="two" unicode="2" horiz-adv-x="390" 
d="M346 165v-139q0 -11 -7 -18.5t-18 -7.5h-249q-11 0 -18.5 7t-7.5 18v17q0 8 4 13q21 28 48.5 71.5t70 120.5t70.5 168t28 170q0 126 -78 126q-83 0 -83 -107v-87q0 -11 -7 -18t-18 -7h-6q-11 0 -18.5 7t-7.5 18v81q0 84 37.5 123t102.5 39q70 0 103 -46.5t33 -126.5
q0 -121 -57.5 -261.5t-155.5 -276.5h176v116q0 11 7 18t18 7h8q11 0 18 -7t7 -18z" />
    <glyph glyph-name="three" unicode="3" horiz-adv-x="365" 
d="M320 624v-116q0 -53 -22.5 -79t-60.5 -28q44 0 63.5 -29.5t19.5 -92.5v-153q0 -136 -137 -136q-70 0 -104 36.5t-34 99.5v84q0 11 7 18.5t18 7.5h5q11 0 18 -7t7 -18v-91q0 -81 83 -81q79 0 79 81v153q0 62 -18 83.5t-54 21.5h-15q-11 0 -18.5 7t-7.5 18q0 10 7 16t18 6
h19q69 1 69 81v124q0 81 -80 81q-81 0 -81 -81v-91q0 -11 -7 -18.5t-18 -7.5h-5q-11 0 -18 7.5t-7 17.5v86q0 70 37.5 103t101.5 33q69 0 102 -36.5t33 -99.5z" />
    <glyph glyph-name="four" unicode="4" horiz-adv-x="364" 
d="M272 159v-110h46q10 0 17.5 -7.5t7.5 -17.5t-7 -17t-18 -7h-23q-31 0 -50 16q-20 -16 -46 -16h-31q-10 0 -17.5 7t-7.5 18q0 10 7 17t18 7h47v110h-148q-53 0 -32 64l165 511q5 16 22 16h25q11 0 18 -7t7 -18v-514h46q10 0 17.5 -7.5t7.5 -17.5v-2q0 -10 -7.5 -17.5
t-17.5 -7.5h-46zM215 211v236l5 207l-49 -181l-85 -262h129z" />
    <glyph glyph-name="five" unicode="5" horiz-adv-x="364" 
d="M102 697v-261q27 48 91 48q65 0 95.5 -36.5t30.5 -98.5v-225q0 -69 -36.5 -102t-98.5 -33h-4q-69 0 -102 36.5t-33 98.5v65q0 11 7.5 18t17.5 7h6q10 0 17.5 -7t7.5 -18v-70q0 -80 79 -80h4q77 0 77 80v235q0 80 -80 80h-4q-76 0 -76 -74v-1q0 -11 -7.5 -18t-17.5 -7h-5
q-11 0 -18 7t-7 18v366q0 11 7 18t18 7h203q10 0 17.5 -7t7.5 -18v-3q0 -10 -7.5 -17.5t-17.5 -7.5h-172z" />
    <glyph glyph-name="six" unicode="6" horiz-adv-x="371" 
d="M281 549h-4q-11 0 -18.5 7t-7.5 18v57q0 80 -75 80q-73 0 -73 -80v-197q31 50 89 50q65 0 95.5 -36.5t30.5 -98.5v-223q0 -70 -36.5 -103t-98.5 -33q-71 0 -104.5 36.5t-33.5 99.5v498q0 70 36 103t98 33q65 0 96 -36.5t31 -99.5v-49q0 -11 -7 -18.5t-18 -7.5zM103 355
v-236q0 -80 79 -80q78 0 78 80v236q0 81 -77 81q-80 0 -80 -81z" />
    <glyph glyph-name="seven" unicode="7" horiz-adv-x="413" 
d="M70 750h275q11 0 18 -7t7 -18v-25q0 -5 -3 -11q-15 -26 -34 -69.5t-49 -129t-50.5 -208.5t-22.5 -256q0 -11 -7 -18.5t-18 -7.5h-9q-11 0 -18.5 7.5t-7.5 18.5q4 172 46.5 358.5t110.5 316.5h-206v-122q0 -11 -7 -18.5t-18 -7.5h-6q-11 0 -18.5 7t-7.5 18v147
q0 11 7.5 18t17.5 7z" />
    <glyph glyph-name="eight" unicode="8" horiz-adv-x="368" 
d="M46 521v103q0 70 37 103t101 33q71 0 104.5 -36.5t33.5 -99.5v-103q0 -86 -76 -107q77 -24 77 -109v-185q0 -130 -139 -130q-72 0 -105.5 35t-33.5 95v185q0 85 77 109q-76 19 -76 107zM265 515v119q0 77 -81 77t-81 -77v-119q0 -77 81 -77t81 77zM103 309v-195
q0 -75 81 -75t81 75v195q0 80 -81 80t-81 -80z" />
    <glyph glyph-name="nine" unicode="9" horiz-adv-x="365" 
d="M72 201h4q11 0 18.5 -7t7.5 -18v-57q0 -80 81 -80t81 80v190q-34 -43 -95 -43t-92.5 37t-31.5 98v223q0 70 37.5 103t101.5 33q71 0 104.5 -36.5t33.5 -99.5v-498q0 -70 -38.5 -103t-102.5 -33q-134 0 -134 136v49q0 11 7 18.5t18 7.5zM264 395v236q0 80 -80 80
q-81 0 -81 -80v-236q0 -81 81 -81q80 0 80 81z" />
    <glyph glyph-name="colon" unicode=":" horiz-adv-x="153" 
d="M113 381v-64q0 -11 -7.5 -18t-17.5 -7h-22q-11 0 -18.5 7t-7.5 18v64q0 11 7 18t18 7h23q10 0 17.5 -7t7.5 -18zM113 89v-64q0 -11 -7.5 -18t-17.5 -7h-22q-11 0 -18.5 7t-7.5 18v64q0 11 7 18t18 7h23q10 0 17.5 -7t7.5 -18z" />
    <glyph glyph-name="semicolon" unicode=";" horiz-adv-x="192" 
d="M141 381v-64q0 -11 -7.5 -18t-17.5 -7h-22q-11 0 -18.5 7t-7.5 18v64q0 11 7 18t18 7h23q10 0 17.5 -7t7.5 -18zM93 113h23q10 0 17.5 -7.5t7.5 -17.5v-87q0 -39 -25 -76q-13 -18 -31 -8q-15 9 -3 31q12 26 12 52h-1q-11 0 -18 7t-7 18v63q0 10 7 17.5t18 7.5z" />
    <glyph glyph-name="less" unicode="&#x3c;" horiz-adv-x="328" 
d="M57 379l182 92q32 16 42 -7q9 -18 -6 -30q-2 -2 -4 -3l-168 -86l168 -86q16 -8 12 -28q-5 -22 -29 -17q-7 1 -15 5l-182 92q-12 7 -12 20v28q0 13 12 20z" />
    <glyph glyph-name="equal" unicode="=" 
d="M269 349h-199q-10 0 -17.5 7.5t-7.5 17.5v1q0 11 7.5 18t17.5 7h199q11 0 18 -7t7 -18v-1q0 -10 -7 -17.5t-18 -7.5zM269 248h-199q-10 0 -17.5 7t-7.5 18v2q0 11 7.5 18t17.5 7h199q11 0 18 -7t7 -18v-2q0 -11 -7 -18t-18 -7z" />
    <glyph glyph-name="greater" unicode="&#x3e;" horiz-adv-x="328" 
d="M89 471l182 -92q12 -7 12 -20v-28q0 -13 -12 -20l-182 -92q-32 -16 -42 7q-9 18 6 30q2 2 4 3l168 86l-168 86q-16 8 -12 28q5 22 29 17z" />
    <glyph glyph-name="question" unicode="?" horiz-adv-x="366" 
d="M263 585v44q0 33 -22 57t-54 24h-8q-32 0 -55.5 -24t-23.5 -57v-45q0 -10 -7 -17.5t-18 -7.5h-5q-10 0 -17.5 7.5t-7.5 17.5v40q0 57 38.5 96t95.5 39h8q56 0 95 -39.5t39 -95.5v-39q0 -47 -12 -81.5t-29.5 -55.5t-35 -40t-29.5 -45t-12 -60v-104q0 -11 -7.5 -18
t-17.5 -7q-11 0 -18 7t-7 18v102q0 41 11.5 70.5t27.5 48t32 38t27.5 51t11.5 76.5zM203 88v-64q0 -10 -7.5 -17.5t-17.5 -7.5q-11 0 -18 7t-7 18v64q0 10 7.5 17.5t17.5 7.5q11 0 18 -7t7 -18z" />
    <glyph glyph-name="at" unicode="@" horiz-adv-x="556" 
d="M59 77v370q0 112 59.5 165t161.5 53q112 0 164.5 -58.5t52.5 -159.5v-352q0 -95 -75 -95h-1q-60 0 -60 77q-19 -87 -103 -87q-59 0 -87.5 39.5t-28.5 101.5q0 138 151 165l56 10v90q0 87 -63 87q-70 0 -70 -83q0 -11 -7 -18.5t-18 -7.5q-10 0 -16.5 7t-6.5 18v96
q0 25 22 25q18 0 20 -23l2 -23h2q20 56 82 56q52 0 77.5 -36t25.5 -96v-311q0 -39 25 -39q24 1 24 44v364q0 82 -45.5 121t-124.5 39q-87 0 -128.5 -43t-41.5 -117v-388q0 -83 44 -123t115 -40q36 0 67 16q27 13 37 -5q10 -17 -9 -30q-38 -27 -98 -27q-103 0 -154 59.5
t-51 158.5zM349 259l-50 -9q-105 -22 -105 -116q0 -46 20 -69t54 -23q81 0 81 123v94z" />
    <glyph glyph-name="A" unicode="A" horiz-adv-x="396" 
d="M334 49h27q11 0 18 -7.5t7 -17.5t-7 -17t-18 -7h-111q-10 0 -17.5 7t-7.5 18q0 10 7 17t18 7h26l-31 235h-94l-31 -235h26q10 0 17.5 -7.5t7.5 -17.5t-7 -17t-18 -7h-111q-11 0 -18 7t-7 18q0 10 7 17t18 7h27l92 680q4 21 24 21h40q20 0 24 -21zM242 327l-24 183
l-20 198l-20 -198l-24 -183h88z" />
    <glyph glyph-name="B" unicode="B" horiz-adv-x="365" 
d="M334 608v-99q0 -52 -23.5 -77.5t-63.5 -27.5q93 -4 93 -140v-128q0 -136 -115 -136h-170q-11 0 -18 7t-7 18q0 10 7 17t18 7h27v652h-27q-11 0 -18 7.5t-7 17.5t7 17t18 7h170q56 0 82.5 -38.5t26.5 -103.5zM140 701v-274h68q68 0 68 80v112q0 82 -55 82h-81zM282 126
v132q0 123 -80 123h-62v-332h62q80 0 80 77z" />
    <glyph glyph-name="C" unicode="C" horiz-adv-x="344" 
d="M247 709l3 21q3 20 24 20h2q10 0 17.5 -7t7.5 -18v-217q0 -10 -7.5 -17.5t-17.5 -7.5h-8q-10 0 -17.5 7.5t-7.5 17.5v108q0 95 -77 95q-78 0 -78 -95v-500q0 -78 76 -78q79 0 79 78v126q0 11 7 18.5t18 7.5h8q10 0 17.5 -7t7.5 -18v-121q0 -68 -37 -100t-100 -32
q-69 0 -101.5 35.5t-32.5 96.5v506q0 68 34 100t92 32q70 0 89 -51h2z" />
    <glyph glyph-name="D" unicode="D" horiz-adv-x="354" 
d="M55 750h161q108 0 108 -142v-466q0 -73 -29 -107.5t-78 -34.5h-162q-11 0 -18 7t-7 18q0 10 7 17t18 7h27v652h-27q-11 0 -18 7.5t-7 17.5t7 17t18 7zM266 132v486q0 83 -51 83h-75v-652h77q49 0 49 83z" />
    <glyph glyph-name="E" unicode="E" horiz-adv-x="361" 
d="M296 483h-8q-10 0 -17.5 7.5t-7.5 17.5v193h-124v-303h81q11 0 18.5 -7t7.5 -18q0 -10 -7 -16.5t-18 -6.5h-82v-301h124v194q0 11 7.5 18t17.5 7h8q10 0 17.5 -7t7.5 -18v-218q0 -11 -7.5 -18t-17.5 -7h-241q-11 0 -18 7t-7 18q0 10 7 17t18 7h26v652h-25q-11 0 -18.5 7
t-7.5 18q0 10 7 17t18 7h240q11 0 18.5 -7t7.5 -18v-217q0 -10 -7.5 -17.5t-17.5 -7.5z" />
    <glyph glyph-name="F" unicode="F" horiz-adv-x="356" 
d="M296 483h-8q-10 0 -17.5 7.5t-7.5 17.5v193h-124v-320h102q11 0 18 -7.5t7 -17.5t-7 -16.5t-18 -6.5h-102v-284h46q11 0 18 -7.5t7 -17.5t-7 -17t-18 -7h-130q-11 0 -18 7t-7 18q0 10 7 17t18 7h26v652h-25q-11 0 -18.5 7t-7.5 18q0 10 7 17t18 7h240q11 0 18.5 -7
t7.5 -18v-217q0 -10 -7.5 -17.5t-17.5 -7.5z" />
    <glyph glyph-name="G" unicode="G" horiz-adv-x="368" 
d="M213 342h115q11 0 18 -7t7 -17q0 -11 -7 -18t-18 -7h-27v-278q0 -11 -7.5 -18t-17.5 -7h-6q-23 0 -25 23l-2 23h-2q-25 -46 -80 -46q-67 0 -99 35.5t-32 96.5v506q0 68 32.5 100t88.5 32q67 0 92 -51h4l3 20q3 21 24 21h2q10 0 17.5 -7t7.5 -18v-217q0 -10 -7.5 -17.5
t-17.5 -7.5h-8q-10 0 -17.5 7.5t-7.5 17.5v89q0 114 -82 114q-73 0 -73 -85v-509q0 -78 80 -78q75 0 75 83v171h-29q-11 0 -18.5 7t-7.5 18q0 10 7 17t18 7z" />
    <glyph glyph-name="H" unicode="H" horiz-adv-x="425" 
d="M343 701v-652h27q10 0 17.5 -7.5t7.5 -17.5t-7 -17t-18 -7h-110q-11 0 -18.5 7t-7.5 18q0 10 7 17t18 7h26v310h-145v-310h26q10 0 17.5 -7.5t7.5 -17.5t-7 -17t-18 -7h-111q-11 0 -18 7t-7 18q0 10 7 17t18 7h27v652h-27q-11 0 -18 7.5t-7 17.5t7 17t18 7h111
q10 0 17.5 -7t7.5 -18q0 -10 -7 -17t-18 -7h-26v-295h145v295h-25q-11 0 -18.5 7t-7.5 18q0 10 7 17t18 7h111q10 0 17.5 -7t7.5 -18q0 -10 -7 -17t-18 -7h-27z" />
    <glyph glyph-name="I" unicode="I" horiz-adv-x="220" 
d="M139 49h26q11 0 18 -7.5t7 -17.5v-3q0 -9 -7 -15t-18 -6h-118q-17 0 -17 25q0 10 7 17t18 7h26v652h-25q-11 0 -18.5 7t-7.5 18q0 10 7 17t18 7h110q11 0 18 -7t7 -18q0 -10 -7 -17t-18 -7h-26v-652z" />
    <glyph glyph-name="J" unicode="J" horiz-adv-x="325" 
d="M164 750h110q10 0 17.5 -7t7.5 -18q0 -10 -7 -17t-18 -7h-26v-578q0 -133 -120 -133q-61 0 -89.5 36t-28.5 97v119q0 10 7 17.5t18 7.5h6q11 0 18 -7.5t7 -17.5v-124q0 -77 64 -79q60 0 60 79v583h-25q-11 0 -18.5 7t-7.5 18q0 10 7 17t18 7z" />
    <glyph glyph-name="K" unicode="K" horiz-adv-x="427" 
d="M140 49h27q11 0 18 -7.5t7 -17.5t-7 -17t-18 -7h-110q-11 0 -18 7t-7 18q0 10 7 17t18 7h25v652h-25q-11 0 -18.5 7t-7.5 18q0 10 7 17t18 7h110q10 0 17.5 -7t7.5 -18q0 -10 -7 -17t-18 -7h-26v-652zM360 49h31q11 0 18 -7.5t7 -17.5t-7 -17t-18 -7h-116q-11 0 -18 7
t-7 17q0 11 7.5 18t18.5 7h21l-152 314q-5 9 0 18l137 320h-24q-10 0 -17.5 7.5t-7.5 17.5t7 17t18 7h117q11 0 18 -7t7 -18q0 -10 -7 -17t-18 -7h-31l-148 -324z" />
    <glyph glyph-name="L" unicode="L" horiz-adv-x="347" 
d="M297 0h-249q-17 0 -17 25q0 10 7 17t18 7h26v652h-27q-11 0 -18 7.5t-7 17.5t7 17t18 7h111q10 0 17.5 -7t7.5 -18q0 -10 -7 -17t-18 -7h-26v-652h124v208q0 11 7 18t18 7h8q11 0 18 -7t7 -18v-232q0 -11 -7 -18t-18 -7z" />
    <glyph glyph-name="M" unicode="M" horiz-adv-x="603" 
d="M520 49h28q10 0 17.5 -7.5t7.5 -17.5t-7 -17t-18 -7h-111q-11 0 -18 7t-7 18q0 10 7 17t18 7h25v241l6 295l-130 -517q-5 -18 -23 -18h-26q-20 0 -23 18l-130 517l5 -294v-242h25q10 0 17.5 -7.5t7.5 -17.5t-7 -17t-18 -7h-111q-11 0 -18 7t-7 18q0 10 7 17t18 7h28v652
h-27q-10 0 -17.5 7.5t-7.5 17.5t7 17t18 7h66q18 0 23 -18l157 -591l156 591q5 18 23 18h66q11 0 18 -7t7 -18q0 -10 -7 -17t-18 -7h-27v-652z" />
    <glyph glyph-name="N" unicode="N" horiz-adv-x="431" 
d="M270 750h121q6 0 10.5 -7.5t4.5 -17.5t-7 -17t-18 -7h-27v-676q0 -11 -7 -18t-18 -7h-13q-18 0 -23 17l-163 589l10 -254v-303h26q10 0 17.5 -7.5t7.5 -17.5t-7 -17t-18 -7h-111q-11 0 -18 7t-7 18q0 10 7 17t18 7h27v652h-27q-11 0 -18 7.5t-7 17.5t7 17t18 7h65
q18 0 23 -17l163 -589l-10 249v308h-25q-11 0 -18.5 7t-7.5 18q0 10 7 17t18 7z" />
    <glyph glyph-name="O" unicode="O" horiz-adv-x="337" 
d="M30 124v502q0 69 37 101.5t101 32.5q72 0 105.5 -36t33.5 -97v-503q0 -69 -37.5 -101.5t-101.5 -32.5q-71 0 -104.5 36t-33.5 98zM249 119v512q0 80 -81 80q-80 0 -80 -79v-513q0 -80 80 -80q81 0 81 80z" />
    <glyph glyph-name="P" unicode="P" horiz-adv-x="359" 
d="M56 750h174q104 0 104 -142v-125q0 -73 -28 -107.5t-76 -34.5h-90v-292h56q11 0 18.5 -7t7.5 -18q0 -10 -7 -17t-18 -7h-142q-11 0 -18 7t-7 18q0 10 7 17t18 7h27v652h-25q-11 0 -18.5 7t-7.5 18q0 10 7 17t18 7zM276 473v145q0 83 -59 83h-77v-311h79q57 0 57 83z" />
    <glyph glyph-name="Q" unicode="Q" horiz-adv-x="345" 
d="M310 -60l-2 -2q-20 -16 -36 5l-44 58q-28 -11 -58 -11q-72 0 -106 35.5t-34 96.5v505q0 69 37.5 101t102.5 32q71 0 104.5 -36t33.5 -97v-505q0 -23 -6 -41.5t-12 -25.5t-19 -22l44 -58q15 -20 -5 -35zM88 632v-515q0 -78 82 -78q80 0 80 78v515q0 79 -80 79
q-82 0 -82 -79z" />
    <glyph glyph-name="R" unicode="R" horiz-adv-x="403" 
d="M330 49h24q10 0 17 -7t7 -18q0 -10 -7 -17t-18 -7h-56q-11 0 -18 7t-7 18v229q0 110 -72 110h-60v-315h43q11 0 18 -7.5t7 -17.5t-7 -17t-18 -7h-128q-11 0 -18 7t-7 18q0 10 7 17t18 7h27v652h-27q-11 0 -18 7.5t-7 17.5t7 17t18 7h177q13 0 26.5 -4t32.5 -16.5
t31.5 -44t12.5 -77.5v-112q0 -4 -0.5 -11t-5.5 -25.5t-13.5 -32.5t-27.5 -26.5t-45 -13.5q12 -1 23.5 -5t27.5 -17t26 -43.5t10 -74.5v-198zM140 410h60q32 0 51 17t23 33.5t3 30.5v127q0 83 -67 83h-70v-291z" />
    <glyph glyph-name="S" unicode="S" horiz-adv-x="354" 
d="M260 648v77q0 11 7 18t18 7t18 -7t7 -18v-217q0 -10 -7 -17.5t-18 -7.5h-1q-10 0 -16.5 6.5t-8.5 17.5q-2 21 -5.5 44t-6.5 35l-3 13q-33 103 -87 103q-64 0 -64 -84q0 -66 108 -213q120 -165 120 -268q0 -147 -112 -147q-61 0 -90 37t-29 100h-4v-102q0 -11 -7 -18
t-18 -7h-3q-10 0 -17.5 7t-7.5 18v203q0 10 7.5 17.5t17.5 7.5h7q22 0 25 -22q25 -183 106 -183q65 0 65 96q0 75 -98 207q-130 174 -130 263q0 146 113 146q85 0 111 -112h3z" />
    <glyph glyph-name="T" unicode="T" horiz-adv-x="440" 
d="M45 750h349q11 0 18.5 -7t7.5 -18v-215q0 -11 -7 -18.5t-18 -7.5h-8q-11 0 -18 7t-7 18v192h-113v-652h46q11 0 18 -7.5t7 -17.5t-7 -17t-18 -7h-150q-11 0 -18 7t-7 18q0 10 7 17t18 7h46v652h-113v-192q0 -11 -7 -18t-18 -7h-8q-11 0 -18 7t-7 18v215q0 11 7 18.5
t18 7.5z" />
    <glyph glyph-name="U" unicode="U" horiz-adv-x="427" 
d="M266 750h112q24 0 24 -25q0 -10 -7 -17t-18 -7h-27v-578q0 -69 -36 -101t-97 -32h-7q-69 0 -101 36t-32 97v578h-27q-10 0 -17.5 7.5t-7.5 17.5t7 17t18 7h110q11 0 18.5 -7t7.5 -18q0 -10 -7 -17t-18 -7h-26v-582q0 -80 75 -80h7q75 0 75 80v582h-25q-11 0 -18.5 7
t-7.5 18q0 10 7 17t18 7z" />
    <glyph glyph-name="V" unicode="V" horiz-adv-x="395" 
d="M249 750h105q31 0 31 -25q0 -10 -7 -17t-18 -7h-27l-92 -680q-2 -9 -8.5 -15t-15.5 -6h-40q-9 0 -15.5 6t-8.5 15l-91 680h-27q-11 0 -18 7t-7 17q0 25 31 25h105q11 0 18 -7t7 -17q0 -11 -7.5 -18t-18.5 -7h-25l53 -430l24 -225l25 225l53 430h-25q-11 0 -18.5 7
t-7.5 18q0 10 7 17t18 7z" />
    <glyph glyph-name="W" unicode="W" horiz-adv-x="605" 
d="M460 750h111q24 0 24 -25q0 -10 -7 -17t-18 -7h-26l-92 -680q-4 -21 -24 -21h-37q-22 0 -25 22l-63 513l-63 -513q-3 -22 -25 -22h-37q-20 0 -24 21l-92 680h-27q-11 0 -18 7.5t-7 17.5t7 17t18 7h110q11 0 18 -7t7 -18q0 -10 -7 -17t-18 -7h-26l78 -631l78 631h-25
q-11 0 -18.5 7t-7.5 18q0 10 7 17t18 7h109q10 0 17.5 -7t7.5 -18q0 -10 -7 -17t-18 -7h-27l78 -631l78 631h-27q-10 0 -17.5 7.5t-7.5 17.5t7 17t18 7z" />
    <glyph glyph-name="X" unicode="X" horiz-adv-x="425" 
d="M363 701l-107 -328l107 -324h27q10 0 17.5 -7.5t7.5 -17.5t-7 -17t-18 -7h-111q-11 0 -18 7t-7 18q0 10 7 17t18 7h26l-92 287l-93 -287h26q10 0 17.5 -7.5t7.5 -17.5t-7 -17t-18 -7h-110q-11 0 -18.5 7t-7.5 18q0 10 7 17t18 7h27l109 324l-109 328h-27q-11 0 -18 7.5
t-7 17.5t7 17t18 7h111q10 0 17.5 -7t7.5 -18q0 -10 -7 -17t-18 -7h-26l93 -293l92 293h-25q-11 0 -18.5 7t-7.5 18q0 10 7 17t18 7h111q10 0 17.5 -7t7.5 -18q0 -10 -7 -17t-18 -7h-27z" />
    <glyph glyph-name="Y" unicode="Y" horiz-adv-x="423" 
d="M277 750h111q10 0 17.5 -7t7.5 -18q0 -10 -7 -17t-18 -7h-27l-120 -401v-251h41q10 0 17.5 -7.5t7.5 -17.5t-7 -17t-18 -7h-140q-10 0 -17.5 7t-7.5 18q0 10 7 17t18 7h41v251l-120 401h-27q-10 0 -17.5 7.5t-7.5 17.5t7 17t18 7h111q11 0 18 -7t7 -18q0 -10 -7 -17
t-18 -7h-26l90 -331l92 331h-26q-11 0 -18 7.5t-7 17.5t7 17t18 7z" />
    <glyph glyph-name="Z" unicode="Z" horiz-adv-x="343" 
d="M253 49v179q0 11 7 18.5t18 7.5h5q11 0 18 -7t7 -18v-204q0 -11 -7 -18t-18 -7h-210q-16 0 -24 11t-3 25l194 665h-139v-193q0 -10 -7.5 -17.5t-17.5 -7.5h-5q-11 0 -18 7.5t-7 17.5v217q0 11 7 18t18 7h204q16 0 24 -11t3 -25l-194 -665h145z" />
    <glyph glyph-name="bracketleft" unicode="[" horiz-adv-x="215" 
d="M145 762h-23q-13 0 -20 -8.5t-7 -19.5v-718q0 -11 7 -19.5t20 -8.5h23q11 0 18 -7t7 -18q0 -10 -7 -16.5t-18 -6.5h-24q-76 0 -76 81v708q0 81 76 81h24q11 0 18 -7t7 -18q0 -10 -7 -16.5t-18 -6.5z" />
    <glyph glyph-name="backslash" unicode="\" horiz-adv-x="306" 
d="M102 731l154 -698q3 -14 -5 -23.5t-22 -9.5q-18 0 -21 19l-154 698q-3 14 5 23.5t22 9.5q18 0 21 -19z" />
    <glyph glyph-name="bracketright" unicode="]" horiz-adv-x="215" 
d="M93 762h-22q-11 0 -18.5 7t-7.5 18q0 10 7 16.5t18 6.5h24q76 0 76 -81v-708q0 -81 -76 -81h-24q-10 0 -17.5 7t-7.5 18q0 10 7 16.5t18 6.5h23q13 0 20 8.5t7 19.5v718q0 11 -7 19.5t-20 8.5z" />
    <glyph glyph-name="a" unicode="a" horiz-adv-x="346" 
d="M93 477h1q22 53 85 53q53 0 79.5 -34.5t26.5 -94.5v-352h19q10 0 17.5 -7.5t7.5 -17.5t-7 -17t-18 -7h-39q-11 0 -18.5 7t-7.5 18v40q-9 -35 -37 -52.5t-65 -17.5q-57 0 -88 38.5t-31 92.5q0 129 146 178l64 21v72q0 84 -62 84q-67 0 -67 -90v-24q0 -11 -7.5 -18
t-17.5 -7t-17 7t-7 18v128q0 25 22 25q17 0 21 -23v-20zM228 277l-59 -19q-93 -29 -93 -127q0 -34 18 -59t52 -25q42 0 62 28t20 90v112z" />
    <glyph glyph-name="b" unicode="b" horiz-adv-x="343" 
d="M124 482h1q19 48 74 48q109 0 109 -132v-281q0 -122 -103 -122q-61 0 -86 50v-21q-2 -24 -25 -24h-43q-11 0 -18.5 7t-7.5 18q0 10 7 17t18 7h17v652h-16q-11 0 -18.5 7t-7.5 18q0 10 7 17t18 7h48q11 0 18.5 -7t7.5 -18v-243zM250 130v256q0 95 -64 95q-62 0 -62 -95
v-246q0 -53 17.5 -76t47.5 -19q61 0 61 85z" />
    <glyph glyph-name="c" unicode="c" horiz-adv-x="300" 
d="M217 480l2 18q3 22 25 22q11 0 18 -7t7 -18v-128q0 -11 -7.5 -18t-17.5 -7h-6q-11 0 -18.5 7t-7.5 18v19q0 95 -60 95t-60 -95v-264q0 -78 61 -78q60 0 60 78v29q0 11 7 18.5t18 7.5h7q11 0 18 -7.5t7 -17.5v-28q0 -67 -32 -98t-87 -31q-116 0 -116 132v271q0 68 28 100
t76 32q57 0 76 -50h2z" />
    <glyph glyph-name="d" unicode="d" horiz-adv-x="338" 
d="M276 49h17q11 0 18 -7t7 -17q0 -11 -7.5 -18t-18.5 -7h-43q-23 0 -26 24v21q-23 -50 -85 -50q-103 0 -103 122v281q0 132 109 132q55 0 74 -48h1v219h-16q-11 0 -18.5 7t-7.5 18q0 10 7 17t18 7h48q11 0 18.5 -7t7.5 -18v-676zM219 140v246q0 95 -62 95q-64 0 -64 -95
v-256q0 -85 61 -85q65 0 65 95z" />
    <glyph glyph-name="e" unicode="e" horiz-adv-x="309" 
d="M92 238v-114q0 -80 64 -80q61 0 61 80v29q0 11 7.5 18t17.5 7h7q11 0 18 -7t7 -18v-24q0 -69 -32 -101.5t-88 -32.5q-119 0 -119 134v267q0 69 32 101.5t87 32.5q62 0 91 -36t29 -97v-134q0 -11 -7 -18t-18 -7h-157zM92 288h125v113q0 80 -63 80q-62 0 -62 -79v-114z" />
    <glyph glyph-name="f" unicode="f" horiz-adv-x="243" 
d="M62 520v126q0 114 83 114q46 0 64.5 -29t18.5 -85q0 -9 -7 -15t-17 -6q-11 0 -18 7t-7 18v3q0 60 -29 60q-19 0 -25 -14.5t-6 -45.5v-133h71q10 0 17.5 -7t7.5 -18q0 -10 -7 -17t-18 -7h-71v-422h67q10 0 17.5 -7.5t7.5 -17.5t-7 -17t-18 -7h-146q-10 0 -16 7t-6 18
q0 10 7 17t18 7h19v422h-19q-11 0 -18 7.5t-7 17.5t7 17t18 7h19z" />
    <glyph glyph-name="g" unicode="g" horiz-adv-x="330" 
d="M242 520h49q11 0 18.5 -7t7.5 -17q0 -11 -7 -18t-18 -7h-19v-512q0 -64 -32 -94t-86 -30q-116 0 -116 101v8q0 11 7 18.5t18 7.5h6q10 0 17.5 -7t7.5 -18v-6q0 -56 61 -56t61 61v126q-17 -49 -79 -49q-103 0 -103 129v246q0 69 28 101.5t76 32.5q55 0 78 -45v10
q0 11 7.5 18t17.5 7zM92 402v-257q0 -75 62 -75t62 80v267q-6 64 -62 64q-62 0 -62 -79z" />
    <glyph glyph-name="h" unicode="h" horiz-adv-x="375" 
d="M314 49h22q10 0 16 -7t6 -18q0 -10 -7 -17t-18 -7h-98q-10 0 -16.5 7t-6.5 18q0 10 7 17t18 7h20v332q0 95 -66 95q-65 0 -65 -95v-332h19q11 0 18 -7.5t7 -17.5t-7.5 -17t-18.5 -7h-94q-11 0 -18 7t-7 18q0 10 7 17t18 7h19v652h-19q-10 0 -17.5 7.5t-7.5 17.5t7 17
t18 7h50q11 0 18.5 -7t7.5 -18v-248h2q29 53 82 53q104 0 104 -132v-349z" />
    <glyph glyph-name="i" unicode="i" horiz-adv-x="190" 
d="M101 633h-8q-11 0 -18 7.5t-7 17.5v67q0 11 7 18t18 7h8q11 0 18 -7t7 -18v-66q0 -11 -7 -18.5t-18 -7.5zM126 49h19q26 0 26 -24q0 -25 -28 -25h-90q-28 0 -28 25q0 10 7 17t18 7h19v422h-19q-10 0 -17.5 7.5t-7.5 17.5t7 17t18 7h50q11 0 18.5 -7t7.5 -18v-446z" />
    <glyph glyph-name="j" unicode="j" horiz-adv-x="156" 
d="M69 658v66q0 11 7 18.5t18 7.5h7q11 0 18 -7t7 -18v-67q0 -10 -7 -17.5t-18 -7.5h-6q-11 0 -18.5 7t-7.5 18zM126 495v-574q0 -47 -20.5 -66.5t-71.5 -19.5h-19q-11 0 -18 7.5t-7 17.5t7 17t18 7h12q26 0 34 8.5t8 38.5v540h-34q-11 0 -18 7.5t-7 17.5t7 17t18 7h66
q11 0 18 -7t7 -18z" />
    <glyph glyph-name="k" unicode="k" horiz-adv-x="360" 
d="M128 49h11q11 0 18 -7.5t7 -17.5t-7 -17t-18 -7h-89q-10 0 -17 7t-7 18q0 10 7 17t18 7h20v652h-20q-11 0 -18 7.5t-7 17.5t7 17t18 7h99q9 0 15 -7t6 -18q0 -10 -7 -17t-18 -7h-18v-652zM303 49h19q11 0 18.5 -7t7.5 -18q0 -10 -7 -17t-18 -7h-77q-29 0 -29 25
q0 10 7 17t18 7h1l-109 219q-5 11 1 20l103 183h-19q-11 0 -18 7.5t-7 17.5t7 17t18 7h97q10 0 17 -7t7 -18q0 -10 -7 -17t-18 -7h-20l-110 -191z" />
    <glyph glyph-name="l" unicode="l" horiz-adv-x="185" 
d="M126 49h22q10 0 16 -7t6 -18q0 -10 -7 -17t-18 -7h-95q-10 0 -17.5 7t-7.5 18q0 10 7 17t18 7h19v652h-19q-10 0 -17.5 7.5t-7.5 17.5t7 17t18 7h50q11 0 18.5 -7t7.5 -18v-676z" />
    <glyph glyph-name="m" unicode="m" horiz-adv-x="575" 
d="M514 49h22q10 0 16 -7t6 -18q0 -22 -25 -24h-97q-10 0 -17.5 7t-7.5 18q0 10 7 17t18 7h21v332q0 95 -71 95q-65 0 -68 -86v-341h22q10 0 17.5 -7.5t7.5 -17.5t-7.5 -17t-18.5 -7h-100q-11 0 -18 7t-7 18q0 10 7 17t18 7h22v332q0 95 -70 95q-69 0 -69 -95v-332h21
q11 0 18 -7.5t7 -17.5t-7 -17t-18 -7h-97q-10 0 -17.5 7t-7.5 18q0 10 7 17t18 7h19v422h-19q-10 0 -17.5 7.5t-7.5 17.5t7 17t18 7h50q11 0 18.5 -7t7.5 -18v-18h2q32 53 87 53q69 0 95 -68q29 68 102 68q106 0 106 -132v-349z" />
    <glyph glyph-name="n" unicode="n" horiz-adv-x="368" 
d="M307 49h22q10 0 16 -7t6 -18q0 -10 -7 -17t-18 -7h-96q-10 0 -17.5 7t-7.5 18q0 10 7 17t18 7h20v332q0 95 -66 95q-65 0 -65 -95v-332h19q10 0 17.5 -7.5t7.5 -17.5t-7 -17t-18 -7h-95q-11 0 -18 7t-7 18q0 10 7 17t18 7h19v422h-19q-11 0 -18 7.5t-7 17.5t7 17t18 7h50
q11 0 18.5 -7t7.5 -18v-18h2q29 53 82 53q104 0 104 -132v-349z" />
    <glyph glyph-name="o" unicode="o" horiz-adv-x="309" 
d="M35 129v267q0 69 32 101.5t88 32.5q119 0 119 -133v-268q0 -69 -32 -101.5t-88 -32.5q-119 0 -119 134zM217 124v277q0 80 -63 80q-62 0 -62 -79v-278q0 -80 62 -80q63 0 63 80z" />
    <glyph glyph-name="p" unicode="p" horiz-adv-x="345" 
d="M122 496v-31q24 65 85 65q103 0 103 -122v-281q0 -68 -29.5 -100t-79.5 -32q-56 0 -75 41v-152h16q11 0 18.5 -7t7.5 -18q0 -10 -7 -17t-18 -7h-93q-10 0 -17.5 7.5t-7.5 17.5t7 17t18 7h19v587h-19q-10 0 -17.5 7.5t-7.5 17.5t7 17t18 7h46q23 0 26 -24zM252 139v257
q0 85 -61 85q-65 0 -65 -95v-247q0 -95 62 -95q64 0 64 95z" />
    <glyph glyph-name="q" unicode="q" horiz-adv-x="338" 
d="M223 465v31q3 24 26 24h46q11 0 18 -7t7 -18q0 -10 -7 -17t-18 -7h-19v-587h19q11 0 18 -7t7 -18q0 -10 -7 -17t-18 -7h-90q-13 0 -20.5 7t-7.5 18q0 10 7 17t18 7h17v154h-1q-17 -43 -74 -43q-50 0 -79.5 32t-29.5 100v281q0 122 103 122q61 0 85 -65zM93 396v-257
q0 -95 64 -95q62 0 62 95v247q0 95 -65 95q-61 0 -61 -85z" />
    <glyph glyph-name="r" unicode="r" horiz-adv-x="267" 
d="M113 495v-26q10 56 62 56q77 0 77 -114v-43q0 -11 -7 -18.5t-18 -7.5q-10 0 -17 7t-7 18v51q0 60 -40 60q-44 0 -44 -80v-349h19q10 0 17.5 -7.5t7.5 -17.5t-7 -17t-18 -7h-97q-10 0 -16.5 7t-6.5 18q0 10 7 17t18 7h19v422h-19q-11 0 -18 7.5t-7 17.5t7 17t18 7h45
q10 0 17.5 -7t7.5 -18z" />
    <glyph glyph-name="s" unicode="s" horiz-adv-x="268" 
d="M20 25v139q0 11 6 18.5t16 7.5q22 0 25 -22q18 -124 82 -124q21 0 33.5 15.5t12.5 39.5q0 32 -18.5 64.5t-65.5 89.5q-91 102 -91 178q0 46 25 72.5t65 26.5q54 0 80 -61v26q0 11 7 18t18 7q10 0 16 -7t6 -18v-137q0 -10 -7.5 -17.5t-17.5 -7.5q-18 0 -20 25
q-6 122 -71 122q-22 0 -34.5 -14.5t-12.5 -38.5q0 -29 19.5 -62t62.5 -85q93 -108 93 -183q0 -45 -24.5 -73.5t-65.5 -28.5q-71 0 -93 75v-45q0 -11 -7 -18t-18 -7q-9 0 -15 7t-6 18z" />
    <glyph glyph-name="t" unicode="t" horiz-adv-x="231" 
d="M163 0h-16q-51 0 -69.5 14.5t-18.5 58.5v398h-19q-10 0 -17.5 7.5t-7.5 17.5t7 17t18 7h19v142q0 11 7 18.5t18 7.5h7q11 0 18 -7t7 -18v-143h47q11 0 18 -7t7 -18q0 -10 -7 -17t-18 -7h-47v-396q0 -26 32 -26h14q11 0 18.5 -7t7.5 -18q0 -10 -7 -17t-18 -7z" />
    <glyph glyph-name="u" unicode="u" horiz-adv-x="343" 
d="M294 49h19q11 0 18 -7.5t7 -17.5t-7 -17t-18 -7h-47q-10 0 -17.5 7t-7.5 18v18h-2q-25 -48 -80 -48q-110 0 -110 132v344h-19q-10 0 -17.5 7.5t-7.5 17.5t7 17t18 7h50q11 0 18.5 -7t7.5 -18v-361q0 -90 64 -90q67 0 67 98v329h-19q-10 0 -17.5 7.5t-7.5 17.5t7 17t18 7
h50q11 0 18.5 -7t7.5 -18v-446z" />
    <glyph glyph-name="v" unicode="v" 
d="M226 520h83q26 0 26 -25q0 -10 -7.5 -17t-18.5 -7h-21l-74 -451q-3 -20 -24 -20h-41q-21 0 -24 20l-74 451h-21q-10 0 -17.5 7.5t-7.5 17.5t7.5 17t18.5 7h86q11 0 17.5 -7t6.5 -17q0 -25 -25 -25h-9l62 -425l62 425h-5q-10 0 -17.5 7.5t-7.5 17.5t7 17t18 7z" />
    <glyph glyph-name="w" unicode="w" horiz-adv-x="490" 
d="M376 520h81q25 0 25 -25q0 -10 -7 -17t-18 -7h-21l-64 -450q-3 -21 -24 -21h-39q-22 0 -24 22l-40 365l-40 -365q-2 -22 -24 -22h-39q-21 0 -24 21l-64 450h-21q-11 0 -18 7.5t-7 17.5t7.5 17t18.5 7h82q10 0 16.5 -7t6.5 -18q0 -10 -7 -17t-18 -7h-8l55 -425l52 425h-3
q-10 0 -17.5 7.5t-7.5 17.5t7.5 17t18.5 7h72q10 0 16 -7t6 -18q0 -10 -7 -17t-18 -7h-3l52 -425l55 425h-8q-10 0 -17.5 7.5t-7.5 17.5t7 17t18 7z" />
    <glyph glyph-name="x" unicode="x" horiz-adv-x="348" 
d="M296 471l-84 -210l84 -212h22q10 0 17.5 -7.5t7.5 -17.5t-7 -17t-18 -7h-83q-10 0 -17 7t-7 18q0 10 7 17t18 7h3l-65 181l-66 -181h3q11 0 18 -7.5t7 -17.5t-7 -17t-18 -7h-86q-20 0 -20 25q0 10 7 17t18 7h20l85 212l-85 210h-20q-10 0 -17.5 7.5t-7.5 17.5t7 17t18 7
h82q10 0 16.5 -7t6.5 -18q0 -10 -7 -17t-18 -7h-2l66 -179l64 179h-2q-10 0 -17.5 7.5t-7.5 17.5t7 17t18 7h82q10 0 17.5 -7t7.5 -18q0 -10 -7 -17t-18 -7h-22z" />
    <glyph glyph-name="y" unicode="y" horiz-adv-x="332" 
d="M227 471h-9q-12 0 -19.5 7t-7.5 18q0 10 7.5 17t18.5 7h84q11 0 18.5 -7t7.5 -17t-7.5 -17.5t-17.5 -7.5h-20l-77 -547q-6 -41 -27.5 -65t-60.5 -24h-39q-11 0 -18.5 7t-7.5 18q0 10 7 17t18 7h35q32 0 39 42l11 74h-18q-21 0 -24 21l-70 450h-20q-10 0 -17.5 7.5
t-7.5 17.5t7.5 17t18.5 7h84q11 0 18.5 -7t7.5 -17q0 -11 -8 -18t-21 -7h-8l64 -425z" />
    <glyph glyph-name="z" unicode="z" horiz-adv-x="289" 
d="M212 49v65q0 10 7 17.5t18 7.5h2q11 0 18 -7.5t7 -17.5v-89q0 -11 -7 -18t-18 -7h-178q-16 0 -24 11.5t-3 27.5l157 432h-118v-72q0 -11 -7.5 -18t-17.5 -7h-3q-11 0 -18 7t-7 18v96q0 11 7 18t18 7h178q16 0 24 -11.5t3 -27.5l-154 -432h116z" />
    <glyph glyph-name="braceleft" unicode="{" horiz-adv-x="269" 
d="M91 482v247q0 81 77 81h2q10 0 17 -6.5t7 -16.5q0 -11 -7 -17.5t-17 -6.5h-2q-26 0 -26 -28v-237q0 -22 -1.5 -36t-8 -35.5t-24 -34.5t-44.5 -16q27 -3 44.5 -16t24 -34.5t8 -35.5t1.5 -36v-237q0 -28 26 -28h2q10 0 17 -6.5t7 -17.5q0 -10 -7 -16.5t-17 -6.5h-2
q-77 0 -77 81v247q0 25 -8.5 40t-17 19.5t-23.5 8.5q-11 3 -14 4t-10 5t-9 11t-2 18q0 14 5 22t10.5 10.5t17.5 5.5q16 4 24.5 7.5t17.5 19t9 41.5z" />
    <glyph glyph-name="bar" unicode="|" horiz-adv-x="140" 
d="M45 25v700q0 11 7.5 18t17.5 7q11 0 18 -7t7 -18v-699q0 -11 -7 -18.5t-18 -7.5t-18 7t-7 18z" />
    <glyph glyph-name="braceright" unicode="}" horiz-adv-x="269" 
d="M148 729v-247q0 -26 9 -41.5t17.5 -19t24.5 -7.5q12 -3 17.5 -5.5t10.5 -10.5t5 -22q0 -15 -6 -23t-10.5 -9.5t-18.5 -5.5q-15 -4 -23.5 -8.5t-17 -19.5t-8.5 -40v-247q0 -81 -77 -81h-2q-10 0 -17 6.5t-7 16.5q0 11 6.5 17.5t17.5 6.5h2q26 0 26 28v237q0 22 1.5 36
t8 35.5t24 34.5t44.5 16q-27 3 -44.5 16t-24 34.5t-8 35.5t-1.5 36v237q0 28 -26 28h-2q-11 0 -17.5 6.5t-6.5 17.5q0 10 7 16.5t17 6.5h2q77 0 77 -81z" />
    <glyph glyph-name="exclamdown" unicode="&#xa1;" horiz-adv-x="165" 
d="M60 662v64q0 10 7 17.5t18 7.5q9 0 15 -7t6 -18v-64q0 -10 -7 -17.5t-18 -7.5q-9 0 -15 7t-6 18zM111 349v-324q0 -11 -7.5 -18t-17.5 -7h-8q-10 0 -17.5 7t-7.5 18v324l6 203q2 24 25 24q21 0 23 -25z" />
    <glyph glyph-name="yen" unicode="&#xa5;" horiz-adv-x="423" 
d="M277 750h112q24 0 24 -25q0 -10 -7 -17t-18 -7h-27l-120 -400h67q11 0 18.5 -7t7.5 -18q0 -9 -7 -15t-18 -6h-68v-47h67q11 0 18.5 -7t7.5 -18q0 -10 -7 -16t-18 -6h-68v-112h41q10 0 17.5 -7.5t7.5 -17.5t-7 -17t-18 -7h-140q-10 0 -17.5 7t-7.5 18q0 10 7 17t18 7h41
v112h-67q-10 0 -17.5 7.5t-7.5 17.5t7 16t18 6h67v47h-67q-10 0 -17.5 7.5t-7.5 17.5q0 9 7 15t18 6h67l-121 400h-27q-11 0 -18 7.5t-7 17.5t7 17t18 7h112q11 0 18 -7t7 -18q0 -10 -7 -17t-18 -7h-26l90 -331l92 331h-25q-11 0 -18.5 7t-7.5 18q0 10 7 17t18 7z" />
    <glyph glyph-name="dieresis" unicode="&#xa8;" horiz-adv-x="340" 
d="M84 658v66q0 11 7 18.5t18 7.5h9q10 0 17.5 -7t7.5 -18v-67q0 -10 -7.5 -17.5t-17.5 -7.5h-8q-11 0 -18.5 7t-7.5 18zM197 658v66q0 11 7 18.5t18 7.5h9q11 0 18 -7t7 -18v-67q0 -10 -7 -17.5t-18 -7.5h-8q-11 0 -18.5 7t-7.5 18z" />
    <glyph glyph-name="copyright" unicode="&#xa9;" horiz-adv-x="463" 
d="M419 587v-424q0 -89 -50.5 -131t-136.5 -42q-97 0 -142 46.5t-45 126.5v424q0 89 50.5 131t136.5 42q97 0 142 -46.5t45 -126.5zM381 155v433q0 70 -40 103t-109 33q-77 0 -113 -34.5t-36 -94.5v-440q0 -66 40 -97.5t109 -31.5q77 0 113 34.5t36 94.5zM327 602v-146
q0 -25 -19 -25q-18 0 -18 25v78q0 55 -57 55t-57 -55v-347q0 -55 58 -55q55 0 55 55v66q0 25 19 25t19 -25v-66q0 -94 -94 -94q-95 0 -95 94v347q0 93 95 93q46 0 65 -39l2 17q2 22 14 22q13 0 13 -25z" />
    <glyph glyph-name="guillemotleft" unicode="&#xab;" horiz-adv-x="307" 
d="M53 310l51 114q6 13 24 13q16 0 22 -13t-2 -29l-42 -94l42 -95q8 -16 1 -29t-23 -13t-22 13l-51 115q-5 9 0 18zM152 310l51 114q7 13 24 13q16 0 22 -13t-2 -29l-42 -94l42 -95q7 -16 0.5 -29t-22.5 -13q-15 0 -22 13l-51 115q-4 9 0 18z" />
    <glyph glyph-name="registered" unicode="&#xae;" horiz-adv-x="463" 
d="M38 350v240q0 81 56.5 130.5t137.5 49.5t137.5 -49.5t56.5 -130.5v-240q0 -81 -56.5 -130.5t-137.5 -49.5t-137.5 49.5t-56.5 130.5zM387 336v268q0 60 -47.5 96.5t-107.5 36.5t-107.5 -36.5t-47.5 -96.5v-268q0 -59 47.5 -96t107.5 -37t107.5 37t47.5 96zM315 381v-51
q23 0 23 -17t-23 -17h-14q-11 0 -18 7t-7 18v64q0 68 -44 68h-37v-123h4q24 0 24 -17t-24 -17h-48q-25 0 -25 17t24 17h9v288h-8q-23 0 -23 17t22 17h92q9 0 19 -2.5t24 -10.5t23 -27t9 -48v-28q0 -59 -56 -68q7 0 14.5 -2.5t17.5 -10.5t16 -27t6 -47zM195 482h39
q16 0 25.5 7t13.5 21t4.5 23.5t0.5 27.5v5q0 31 -13.5 41.5t-28.5 10.5h-41v-136z" />
    <glyph glyph-name="plusminus" unicode="&#xb1;" 
d="M145 296h-75q-10 0 -17.5 7t-7.5 18q0 10 7 17t18 7h75v76q0 11 7.5 18t17.5 7q11 0 18 -7t7 -18v-76h74q11 0 18 -7.5t7 -17.5t-7 -17t-18 -7h-74v-74q0 -10 -7.5 -17.5t-17.5 -7.5q-11 0 -18 7t-7 18v74zM269 124h-199q-10 0 -17.5 7t-7.5 18t7 18t18 7h199q11 0 18 -7
t7 -18t-7 -18t-18 -7z" />
    <glyph glyph-name="acute" unicode="&#xb4;" horiz-adv-x="193" 
d="M39 630l66 89q16 21 37 5l4 -3q22 -17 4 -38l-72 -83q-7 -8 -17 -9.5t-18 5.5q-18 15 -4 34z" />
    <glyph glyph-name="guillemotright" unicode="&#xbb;" horiz-adv-x="307" 
d="M112 424l51 -114q5 -9 0 -18l-51 -115q-6 -13 -22 -13t-23 13t1 29l42 95l-42 94q-8 16 -2 29t22 13q18 0 24 -13zM211 424l51 -114q4 -9 0 -18l-51 -115q-7 -13 -22 -13q-16 0 -22.5 13t0.5 29l42 95l-42 94q-8 16 -2 29t22 13q17 0 24 -13z" />
    <glyph glyph-name="questiondown" unicode="&#xbf;" horiz-adv-x="366" 
d="M133 662v64q0 10 7.5 17.5t17.5 7.5q11 0 18 -7t7 -18v-64q0 -10 -7.5 -17.5t-17.5 -7.5q-11 0 -18 7t-7 18zM73 165v-44q0 -33 22 -57t54 -24h8q32 0 55.5 24t23.5 57v45q0 10 7 17.5t18 7.5h5q10 0 17.5 -7.5t7.5 -17.5v-40q0 -57 -38.5 -96t-95.5 -39h-8
q-56 0 -95 39.5t-39 95.5v39q0 47 12 81.5t29.5 55.5t35 40t29.5 45t12 60v104q0 11 7.5 18t17.5 7q11 0 18 -7t7 -18v-102q0 -41 -11.5 -70.5t-27.5 -48t-32 -38t-27.5 -51t-11.5 -76.5z" />
    <glyph glyph-name="AE" unicode="&#xc6;" horiz-adv-x="625" 
d="M580 725v-214q0 -28 -29 -28t-29 28v190h-124v-303h82q11 0 18 -6.5t7 -17.5q0 -10 -7 -17t-17 -7h-83v-301h124v191q0 28 29 28t29 -28v-215q0 -11 -7 -18t-18 -7h-241q-10 0 -17.5 7t-7.5 18q0 10 7 17t18 7h26v235h-109l-66 -235h31q10 0 17.5 -7.5t7.5 -17.5t-7 -17
t-18 -7h-126q-10 0 -17.5 7t-7.5 18q0 10 7 17t18 7h37l193 652h-25q-11 0 -18.5 7t-7.5 18q0 10 7 17t18 7h280q11 0 18.5 -7t7.5 -18zM340 660l-97 -333h97v333z" />
    <glyph glyph-name="Eth" unicode="&#xd0;" horiz-adv-x="404" 
d="M90 750h161q108 0 108 -142v-466q0 -73 -29 -107.5t-78 -34.5h-162q-10 0 -17.5 7t-7.5 18q0 10 7 17t18 7h27v301h-45q-10 0 -17.5 7t-7.5 18t7 18t18 7h45v301h-27q-10 0 -17.5 7.5t-7.5 17.5t7 17t18 7zM301 132v486q0 83 -51 83h-75v-301h47q10 0 17.5 -7t7.5 -18
t-7 -18t-18 -7h-47v-301h77q49 0 49 83z" />
    <glyph glyph-name="OE" unicode="&#x152;" horiz-adv-x="547" 
d="M478 483h-8q-10 0 -17.5 7.5t-7.5 17.5v193h-124v-303h81q11 0 18.5 -7t7.5 -18q0 -10 -7 -16.5t-18 -6.5h-82v-301h124v194q0 11 7.5 18t17.5 7h8q10 0 17.5 -7t7.5 -18v-218q0 -11 -7.5 -18t-17.5 -7h-141q-39 0 -53 24q-35 -34 -102 -34q-71 0 -104.5 36t-33.5 98v502
q0 69 37 101.5t101 32.5q27 0 50 -5l3 -1q29 -7 49 -26q21 22 53 22h140q11 0 18.5 -7t7.5 -18v-217q0 -10 -7.5 -17.5t-17.5 -7.5zM102 632v-513q0 -80 80 -80q81 0 81 80v512q0 80 -81 80q-80 0 -80 -79z" />
    <glyph glyph-name="uni0401" unicode="&#x401;" horiz-adv-x="361" 
d="M106 832v66q0 11 7 18.5t18 7.5h4q11 0 18 -7t7 -18v-67q0 -10 -7 -17.5t-18 -7.5h-4q-11 0 -18 7.5t-7 17.5zM219 832v66q0 11 7 18.5t18 7.5h4q10 0 17.5 -7t7.5 -18v-67q0 -10 -7.5 -17.5t-17.5 -7.5h-4q-10 0 -17.5 7.5t-7.5 17.5zM296 483h-8q-10 0 -17.5 7.5
t-7.5 17.5v193h-124v-303h81q11 0 18.5 -7t7.5 -18q0 -10 -7 -16.5t-18 -6.5h-82v-301h124v194q0 11 7.5 18t17.5 7h8q10 0 17.5 -7t7.5 -18v-218q0 -11 -7.5 -18t-17.5 -7h-241q-11 0 -18 7t-7 18q0 10 7 17t18 7h26v652h-25q-11 0 -18.5 7t-7.5 18q0 10 7 17t18 7h240
q11 0 18.5 -7t7.5 -18v-217q0 -10 -7.5 -17.5t-17.5 -7.5z" />
    <glyph glyph-name="uni0410" unicode="&#x410;" horiz-adv-x="416" 
d="M344 49h27q11 0 18 -7.5t7 -17.5t-7 -17t-18 -7h-111q-10 0 -17.5 7t-7.5 18q0 10 7 17t18 7h26l-31 235h-94l-31 -235h26q10 0 17.5 -7.5t7.5 -17.5t-7 -17t-18 -7h-111q-11 0 -18 7t-7 18q0 10 7 17t18 7h27l92 680q4 21 24 21h40q20 0 24 -21zM252 327l-24 183
l-20 198l-20 -198l-24 -183h88z" />
    <glyph glyph-name="uni0411" unicode="&#x411;" horiz-adv-x="375" 
d="M140 427h78q122 0 122 -136v-155q0 -70 -32.5 -103t-89.5 -33h-163q-11 0 -18 7t-7 18q0 10 7 17t18 7h27v652h-27q-11 0 -18 7.5t-7 17.5t7 17t18 7h242q11 0 18 -7t7 -18v-157q0 -10 -7 -17.5t-18 -7.5h-8q-11 0 -18 7.5t-7 17.5v133h-124v-274zM282 126v132
q0 120 -80 120h-62v-329h62q80 0 80 77z" />
    <glyph glyph-name="uni0412" unicode="&#x412;" horiz-adv-x="365" 
d="M334 608v-99q0 -52 -23.5 -77.5t-63.5 -27.5q93 -4 93 -140v-128q0 -136 -115 -136h-170q-11 0 -18 7t-7 18q0 10 7 17t18 7h27v652h-27q-11 0 -18 7.5t-7 17.5t7 17t18 7h170q56 0 82.5 -38.5t26.5 -103.5zM140 701v-274h68q68 0 68 80v112q0 82 -55 82h-81zM282 126
v132q0 123 -80 123h-62v-332h62q80 0 80 77z" />
    <glyph glyph-name="uni0413" unicode="&#x413;" horiz-adv-x="356" 
d="M55 750h241q10 0 17.5 -7t7.5 -18v-217q0 -10 -7.5 -17.5t-17.5 -7.5h-8q-10 0 -17.5 7.5t-7.5 17.5v193h-124v-652h46q11 0 18 -7.5t7 -17.5t-7.5 -17t-18.5 -7h-128q-11 0 -18.5 7t-7.5 18q0 10 7 17t18 7h26v652h-25q-11 0 -18.5 7t-7.5 18q0 10 7 17t18 7z" />
    <glyph glyph-name="uni0414" unicode="&#x414;" horiz-adv-x="423" 
d="M341 701v-652h27q10 0 17.5 -7.5t7.5 -17.5v-96q0 -10 -7.5 -17.5t-17.5 -7.5h-2q-10 0 -17.5 7.5t-7.5 17.5v72h-256v-72q0 -10 -7.5 -17.5t-17.5 -7.5h-5q-11 0 -18 7.5t-7 17.5v96q0 10 7 17.5t18 7.5h5q25 53 25 231v421h-27q-10 0 -17.5 7.5t-7.5 17.5t7 17t18 7
h310q10 0 17.5 -7t7.5 -18q0 -10 -7 -17t-18 -7h-27zM283 49v652h-140v-429q0 -81 -6 -137t-12 -71l-6 -15h164z" />
    <glyph glyph-name="uni0415" unicode="&#x415;" horiz-adv-x="361" 
d="M296 483h-8q-10 0 -17.5 7.5t-7.5 17.5v193h-124v-303h81q11 0 18.5 -7t7.5 -18q0 -10 -7 -16.5t-18 -6.5h-82v-301h124v194q0 11 7.5 18t17.5 7h8q10 0 17.5 -7t7.5 -18v-218q0 -11 -7.5 -18t-17.5 -7h-241q-11 0 -18 7t-7 18q0 10 7 17t18 7h26v652h-25q-11 0 -18.5 7
t-7.5 18q0 10 7 17t18 7h240q11 0 18.5 -7t7.5 -18v-217q0 -10 -7.5 -17.5t-17.5 -7.5z" />
    <glyph glyph-name="uni0416" unicode="&#x416;" horiz-adv-x="630" 
d="M559 49h31q11 0 18 -7t7 -17q0 -11 -7 -18t-18 -7h-110q-10 0 -17.5 7t-7.5 18q0 10 7 17t18 7h21l-110 303h-47v-303h26q10 0 17.5 -7.5t7.5 -17.5t-7 -17t-18 -7h-109q-11 0 -18.5 7t-7.5 18q0 10 7 17t18 7h26v303h-47l-110 -303h21q10 0 17.5 -7.5t7.5 -17.5t-7 -17
t-18 -7h-109q-11 0 -18.5 7t-7.5 18q0 10 7 17t18 7h31l122 338l-106 314h-29q-11 0 -18.5 7t-7.5 18q0 10 7 17t18 7h110q11 0 18 -7t7 -18q0 -10 -7 -17t-18 -7h-23l98 -293h44v293h-25q-11 0 -18.5 7t-7.5 18q0 10 7 17t18 7h110q10 0 17.5 -7t7.5 -18q0 -10 -7 -17
t-18 -7h-26v-293h44l98 293h-22q-11 0 -18.5 7t-7.5 18q0 10 7 17t18 7h110q11 0 18 -7t7 -18q0 -10 -7 -17t-18 -7h-30l-106 -314z" />
    <glyph glyph-name="uni0417" unicode="&#x417;" horiz-adv-x="322" 
d="M30 558v167q0 11 7 18t18 7q18 0 21 -21l4 -25h2q22 56 92 56q123 0 123 -132v-120q0 -53 -22.5 -79t-60.5 -28q83 0 83 -142v-133q0 -70 -37 -103t-101 -33q-67 0 -98 36.5t-31 99.5v65q0 11 7 18t18 7h4q11 0 18 -7t7 -18v-71q0 -81 76 -81q79 0 79 81v133
q0 125 -66 125h-2q-11 0 -18 7t-7 18q0 10 7 16t18 6h2q66 0 66 81v110q0 95 -78 95q-77 0 -77 -95v-57q0 -11 -7 -18.5t-18 -7.5h-4q-11 0 -18 7.5t-7 17.5z" />
    <glyph glyph-name="uni0418" unicode="&#x418;" horiz-adv-x="436" 
d="M354 701v-652h27q11 0 18 -7.5t7 -17.5t-7 -17t-18 -7h-111q-10 0 -17.5 7t-7.5 18q0 10 7 17t18 7h26v303l10 254l-163 -589q-5 -17 -23 -17h-60q-10 0 -17.5 7t-7.5 18q0 10 7 17t18 7h22v652h-27q-11 0 -18 7.5t-7 17.5t7 17t18 7h111q10 0 17.5 -7t7.5 -18
q0 -10 -7 -17t-18 -7h-26v-308l-10 -249l163 589q5 17 23 17h65q11 0 18 -7t7 -18q0 -10 -7 -17t-18 -7h-27z" />
    <glyph glyph-name="uni0419" unicode="&#x419;" horiz-adv-x="436" 
d="M272 890v-6q0 10 5.5 17.5t13.5 7.5q23 0 23 -22q0 -29 -22 -51t-67 -22t-67 22t-22 51q0 22 23 22q8 0 13.5 -7.5t5.5 -17.5v6q0 -15 11 -26t36 -11t36 11t11 26zM349 701v-652h27q10 0 17.5 -7.5t7.5 -17.5t-7 -17t-18 -7h-111q-11 0 -18 7t-7 18q0 10 7 17t18 7h26
v303l10 254l-163 -589q-5 -17 -23 -17h-60q-11 0 -18 7t-7 18q0 10 7 17t18 7h22v652h-27q-10 0 -17.5 7.5t-7.5 17.5t7 17t18 7h111q11 0 18 -7t7 -18q0 -10 -7 -17t-18 -7h-26v-308l-10 -249l163 589q5 17 23 17h65q10 0 17.5 -7t7.5 -18q0 -10 -7 -17t-18 -7h-27z" />
    <glyph glyph-name="uni041A" unicode="&#x41a;" horiz-adv-x="431" 
d="M140 49h27q11 0 18 -7.5t7 -17.5t-7 -17t-18 -7h-110q-11 0 -18 7t-7 18q0 10 7 17t18 7h25v652h-25q-11 0 -18.5 7t-7.5 18q0 10 7 17t18 7h9q26 0 46 -16q19 16 50 16h5q10 0 17.5 -7t7.5 -18q0 -10 -7 -17t-18 -7h-26v-652zM360 49h31q11 0 18 -7.5t7 -17.5t-7 -17
t-18 -7h-116q-11 0 -18 7t-7 17q0 11 7.5 18t18.5 7h21l-152 314q-5 9 0 18l137 320h-24q-10 0 -17.5 7.5t-7.5 17.5t7 17t18 7h13q26 0 46 -16q19 16 50 16h8q11 0 18 -7t7 -18q0 -10 -7 -17t-18 -7h-31l-148 -324z" />
    <glyph glyph-name="uni041B" unicode="&#x41b;" horiz-adv-x="416" 
d="M334 701v-652h27q11 0 18 -7.5t7 -17.5t-7 -17t-18 -7h-110q-11 0 -18.5 7t-7.5 18q0 10 7 17t18 7h26v652h-135v-578q0 -123 -78 -123h-22q-11 0 -18 7t-7 18q0 10 7 17t18 7h-2q29 0 36.5 14.5t7.5 67.5v570h-27q-10 0 -17.5 7.5t-7.5 17.5t7 17t18 7h305q11 0 18 -7
t7 -18q0 -10 -7 -17t-18 -7h-27z" />
    <glyph glyph-name="uni041C" unicode="&#x41c;" horiz-adv-x="603" 
d="M520 49h28q10 0 17.5 -7.5t7.5 -17.5t-7 -17t-18 -7h-111q-11 0 -18 7t-7 18q0 10 7 17t18 7h25v241l6 295l-130 -517q-5 -18 -23 -18h-26q-20 0 -23 18l-130 517l5 -294v-242h25q11 0 18 -7t7 -17q0 -11 -7.5 -18t-17.5 -7h-111q-11 0 -18 7t-7 17t7 17.5t18 7.5h28v652
h-27q-10 0 -17.5 7.5t-7.5 17.5t7 17t18 7h66q18 0 23 -18l157 -591l156 591q5 18 23 18h66q11 0 18 -7t7 -18q0 -10 -7 -17t-18 -7h-27v-652z" />
    <glyph glyph-name="uni041D" unicode="&#x41d;" horiz-adv-x="425" 
d="M343 701v-652h27q10 0 17.5 -7.5t7.5 -17.5t-7 -17t-18 -7h-110q-11 0 -18.5 7t-7.5 18q0 10 7 17t18 7h26v310h-145v-310h26q10 0 17.5 -7.5t7.5 -17.5t-7 -17t-18 -7h-111q-11 0 -18 7t-7 18q0 10 7 17t18 7h27v652h-27q-11 0 -18 7.5t-7 17.5t7 17t18 7h111
q10 0 17.5 -7t7.5 -18q0 -10 -7 -17t-18 -7h-26v-295h145v295h-25q-11 0 -18.5 7t-7.5 18q0 10 7 17t18 7h111q10 0 17.5 -7t7.5 -18q0 -10 -7 -17t-18 -7h-27z" />
    <glyph glyph-name="uni041E" unicode="&#x41e;" horiz-adv-x="335" 
d="M30 124v502q0 69 37 101.5t100 32.5q71 0 104.5 -36t33.5 -97v-503q0 -69 -37 -101.5t-101 -32.5q-71 0 -104 36t-33 98zM248 119v512q0 80 -81 80q-80 0 -80 -79v-513q0 -80 80 -80q81 0 81 80z" />
    <glyph glyph-name="uni041F" unicode="&#x41f;" horiz-adv-x="415" 
d="M333 49h27q10 0 17.5 -7.5t7.5 -17.5t-7 -17t-18 -7h-110q-11 0 -18.5 7t-7.5 18q0 10 7 17t18 7h26v652h-135v-652h27q11 0 18 -7.5t7 -17.5t-7 -17t-18 -7h-110q-11 0 -18.5 7t-7.5 18q0 10 7 17t18 7h26v652h-27q-11 0 -18 7.5t-7 17.5t7 17t18 7h305q11 0 18 -7
t7 -17t-7.5 -17.5t-17.5 -7.5h-27v-652z" />
    <glyph glyph-name="uni0420" unicode="&#x420;" horiz-adv-x="359" 
d="M56 750h174q104 0 104 -142v-125q0 -73 -28 -107.5t-76 -34.5h-90v-292h56q11 0 18.5 -7t7.5 -18q0 -10 -7 -17t-18 -7h-142q-11 0 -18 7t-7 18q0 10 7 17t18 7h27v652h-25q-11 0 -18.5 7t-7.5 18q0 10 7 17t18 7zM276 473v145q0 83 -59 83h-77v-311h79q57 0 57 83z" />
    <glyph glyph-name="uni0421" unicode="&#x421;" horiz-adv-x="344" 
d="M247 709l3 21q3 20 24 20h2q10 0 17.5 -7t7.5 -18v-217q0 -10 -7.5 -17.5t-17.5 -7.5h-8q-10 0 -17.5 7.5t-7.5 17.5v108q0 95 -77 95q-78 0 -78 -95v-500q0 -78 76 -78q79 0 79 78v126q0 11 7 18.5t18 7.5h8q10 0 17.5 -7t7.5 -18v-121q0 -68 -37 -100t-100 -32
q-69 0 -101.5 35.5t-32.5 96.5v506q0 68 34 100t92 32q70 0 89 -51h2z" />
    <glyph glyph-name="uni0422" unicode="&#x422;" horiz-adv-x="440" 
d="M45 750h349q11 0 18.5 -7t7.5 -18v-215q0 -11 -7 -18.5t-18 -7.5h-8q-11 0 -18 7t-7 18v192h-113v-652h46q11 0 18 -7.5t7 -17.5t-7 -17t-18 -7h-150q-11 0 -18 7t-7 18q0 10 7 17t18 7h46v652h-113v-192q0 -11 -7 -18t-18 -7h-8q-11 0 -18 7t-7 18v215q0 11 7 18.5
t18 7.5z" />
    <glyph glyph-name="uni0423" unicode="&#x423;" horiz-adv-x="412" 
d="M267 750h114q11 0 18 -7t7 -17t-7 -17.5t-18 -7.5h-26l-117 -609q-10 -49 -35 -70.5t-72 -21.5h-18q-11 0 -18 7t-7 18q0 10 7 17t18 7h17q45 0 54 49l23 118h-16q-20 0 -23 18l-109 467h-28q-11 0 -18 7.5t-7 17.5t7 17t18 7h114q11 0 18 -7t7 -18q0 -10 -7 -17t-18 -7
h-28l100 -437l75 437h-25q-11 0 -18 7t-7 17q0 11 7 18t18 7z" />
    <glyph glyph-name="uni0424" unicode="&#x424;" horiz-adv-x="375" 
d="M216 640h9q69 0 102 -36t33 -97v-263q0 -69 -36.5 -101.5t-98.5 -32.5h-9v-61h46q10 0 17.5 -7.5t7.5 -17.5t-7 -17t-18 -7h-150q-10 0 -17.5 7t-7.5 18q0 10 7 17t18 7h46v61h-6q-71 0 -104 36t-33 98v262q0 69 37 101.5t100 32.5h6v61h-46q-10 0 -17.5 7.5t-7.5 17.5
t7 17t18 7h150q10 0 17.5 -7t7.5 -18q0 -10 -7 -17t-18 -7h-46v-61zM158 159v432h-6q-80 0 -80 -80v-271q0 -81 80 -81h6zM303 240v270q0 81 -78 81h-9v-432h9q78 0 78 81z" />
    <glyph glyph-name="uni0425" unicode="&#x425;" horiz-adv-x="425" 
d="M363 701l-107 -328l107 -324h27q10 0 17.5 -7.5t7.5 -17.5t-7 -17t-18 -7h-111q-11 0 -18 7t-7 18q0 10 7 17t18 7h26l-92 287l-93 -287h26q10 0 17.5 -7.5t7.5 -17.5t-7 -17t-18 -7h-110q-11 0 -18.5 7t-7.5 18q0 10 7 17t18 7h27l109 324l-109 328h-27q-11 0 -18 7.5
t-7 17.5t7 17t18 7h111q10 0 17.5 -7t7.5 -18q0 -10 -7 -17t-18 -7h-26l93 -293l92 293h-25q-11 0 -18.5 7t-7.5 18q0 10 7 17t18 7h111q10 0 17.5 -7t7.5 -18q0 -10 -7 -17t-18 -7h-27z" />
    <glyph glyph-name="uni0426" unicode="&#x426;" horiz-adv-x="431" 
d="M343 49h28q11 0 18 -7.5t7 -17.5v-93q0 -11 -7 -18.5t-18 -7.5h-2q-11 0 -18 7.5t-7 17.5v70h-289q-11 0 -18 7t-7 18q0 10 7 17t18 7h27v652h-27q-11 0 -18 7.5t-7 17.5t7 17t18 7h111q10 0 17.5 -7t7.5 -18q0 -10 -7 -17t-18 -7h-26v-652h145v652h-25q-11 0 -18.5 7
t-7.5 18q0 10 7 17t18 7h111q10 0 17.5 -7t7.5 -18q0 -10 -7 -17t-18 -7h-27v-652z" />
    <glyph glyph-name="uni0427" unicode="&#x427;" horiz-adv-x="412" 
d="M330 701v-652h27q11 0 18 -7.5t7 -17.5t-7 -17t-18 -7h-129q-10 0 -17.5 7t-7.5 18q0 10 7 17t18 7h44v289q-25 -46 -82 -46q-66 0 -97.5 35t-31.5 95v279h-25q-11 0 -18.5 7t-7.5 18q0 10 7 17t18 7h111q10 0 17.5 -7t7.5 -18q0 -10 -7 -17t-18 -7h-27v-278
q0 -79 79 -79q74 0 74 79v278h-25q-11 0 -18.5 7t-7.5 18q0 10 7 17t18 7h111q11 0 18 -7t7 -18q0 -10 -7 -17t-18 -7h-27z" />
    <glyph glyph-name="uni0428" unicode="&#x428;" horiz-adv-x="608" 
d="M526 701v-652h27q11 0 18 -7.5t7 -17.5t-7 -17t-18 -7h-498q-11 0 -18 7t-7 18q0 10 7 17t18 7h27v652h-27q-11 0 -18 7.5t-7 17.5t7 17t18 7h111q10 0 17.5 -7t7.5 -18q0 -10 -7 -17t-18 -7h-26v-652h135v652h-27q-10 0 -17.5 7.5t-7.5 17.5t7 17t18 7h112q10 0 17.5 -7
t7.5 -18q0 -10 -7 -17t-18 -7h-27v-652h135v652h-25q-11 0 -18.5 7t-7.5 18q0 10 7 17t18 7h111q11 0 18 -7t7 -18q0 -10 -7 -17t-18 -7h-27z" />
    <glyph glyph-name="uni0429" unicode="&#x429;" horiz-adv-x="634" 
d="M526 49h53q11 0 18 -7.5t7 -17.5v-93q0 -11 -7 -18.5t-18 -7.5h-2q-11 0 -18 7.5t-7 17.5v70h-497q-11 0 -18 7t-7 18q0 10 7 17t18 7h27v652h-27q-11 0 -18 7.5t-7 17.5t7 17t18 7h111q10 0 17.5 -7t7.5 -18q0 -10 -7 -17t-18 -7h-26v-652h135v652h-27q-10 0 -17.5 7.5
t-7.5 17.5t7 17t18 7h112q10 0 17.5 -7t7.5 -18q0 -10 -7 -17t-18 -7h-27v-652h135v652h-25q-11 0 -18.5 7t-7.5 18q0 10 7 17t18 7h111q11 0 18 -7t7 -18q0 -10 -7 -17t-18 -7h-27v-652z" />
    <glyph glyph-name="uni042A" unicode="&#x42a;" horiz-adv-x="453" 
d="M224 381h90q48 0 76 -34.5t28 -107.5v-97q0 -142 -104 -142h-173q-11 0 -18.5 7t-7.5 18q0 10 7 17t18 7h26v652h-88v-132q0 -11 -7 -18.5t-18 -7.5h-4q-11 0 -18 7.5t-7 17.5v157q0 11 7 18t18 7h201q10 0 17.5 -7t7.5 -18q0 -10 -7 -17t-18 -7h-26v-320zM360 132v117
q0 83 -57 83h-79v-283h77q59 0 59 83z" />
    <glyph glyph-name="uni042B" unicode="&#x42b;" horiz-adv-x="611" 
d="M250 0h-173q-11 0 -18.5 7t-7.5 18q0 10 7 17t18 7h26v652h-25q-11 0 -18.5 7t-7.5 18q0 10 7 17t18 7h110q10 0 17.5 -7t7.5 -18q0 -10 -7 -17t-18 -7h-26v-320h90q48 0 76 -34.5t28 -107.5v-97q0 -142 -104 -142zM536 0h-111q-10 0 -17 7t-7 18q0 10 7 17t18 7h26v652
h-25q-11 0 -18.5 7t-7.5 18q0 10 7 17t18 7h110q10 0 17.5 -7t7.5 -18q0 -10 -7 -17t-18 -7h-26v-652h26q11 0 18 -6.5t7 -16.5q0 -26 -25 -26zM296 132v117q0 83 -57 83h-79v-283h77q59 0 59 83z" />
    <glyph glyph-name="uni042C" unicode="&#x42c;" horiz-adv-x="368" 
d="M229 0h-173q-11 0 -18.5 7t-7.5 18q0 10 7 17t18 7h26v652h-25q-11 0 -18.5 7t-7.5 18q0 10 7 17t18 7h110q11 0 18 -7t7 -18q0 -10 -7 -17t-18 -7h-26v-320h90q48 0 76 -34.5t28 -107.5v-97q0 -142 -104 -142zM275 132v117q0 83 -57 83h-79v-283h77q59 0 59 83z" />
    <glyph glyph-name="uni042D" unicode="&#x42d;" horiz-adv-x="340" 
d="M93 704h2q9 25 32.5 40.5t56.5 15.5q62 0 94 -37t32 -95v-506q0 -57 -37 -94.5t-97 -37.5q-59 0 -96 38t-37 94v105q0 11 7 18.5t18 7.5h4q10 0 17.5 -7.5t7.5 -17.5v-111q0 -33 23 -55.5t56 -22.5q32 0 54 22.5t22 55.5v232h-102q-10 0 -17.5 7.5t-7.5 17.5q0 11 7 18
t18 7h102v217q0 48 -21 71.5t-57 23.5q-77 0 -77 -95v-108q0 -10 -7.5 -17.5t-17.5 -7.5h-4q-10 0 -17.5 7.5t-7.5 17.5v217q0 11 7.5 18t17.5 7q18 0 22 -21z" />
    <glyph glyph-name="uni042E" unicode="&#x42e;" horiz-adv-x="606" 
d="M271 399v227q0 69 37 101.5t100 32.5q71 0 104.5 -36t33.5 -97v-503q0 -69 -37 -101.5t-101 -32.5q-71 0 -104 36t-33 98v226h-107v-301h26q10 0 17.5 -7.5t7.5 -17.5t-7 -17t-18 -7h-109q-11 0 -18.5 7t-7.5 18q0 10 7 17t18 7h26v652h-25q-11 0 -18.5 7t-7.5 18
q0 10 7 17t18 7h110q10 0 17.5 -7t7.5 -18q0 -10 -7 -17t-18 -7h-26v-302h107zM489 124v502q0 80 -81 80q-80 0 -80 -79v-503q0 -80 80 -80q81 0 81 80z" />
    <glyph glyph-name="uni042F" unicode="&#x42f;" horiz-adv-x="398" 
d="M44 49h24v198q0 44 10 74.5t26 43.5t27.5 17t23.5 5q-26 1 -45 13t-27.5 27.5t-13.5 31.5t-5 27l-1 10v112q0 46 12.5 77.5t31.5 44t32.5 16.5t26.5 4h177q11 0 18 -7t7 -17t-7 -17.5t-18 -7.5h-27v-652h27q11 0 18 -7t7 -17q0 -11 -7 -18t-18 -7h-128q-11 0 -18 7t-7 17
t7 17.5t18 7.5h43v315h-60q-72 0 -72 -110v-229q0 -11 -7 -18t-18 -7h-56q-11 0 -18 7t-7 17q0 11 7 18t17 7zM198 410h60v291h-70q-67 0 -67 -83v-127q-1 -14 3 -30.5t23 -33.5t51 -17z" />
    <glyph glyph-name="uni0430" unicode="&#x430;" horiz-adv-x="346" 
d="M93 477h1q22 53 85 53q53 0 79.5 -34.5t26.5 -94.5v-352h19q10 0 17.5 -7.5t7.5 -17.5t-7 -17t-18 -7h-39q-11 0 -18.5 7t-7.5 18v40q-9 -36 -37.5 -55.5t-64.5 -19.5q-58 0 -88.5 39t-30.5 97q0 129 146 178l64 21v72q0 84 -62 84q-67 0 -67 -90v-24q0 -11 -7.5 -18
t-17.5 -7t-17 7t-7 18v128q0 11 7 18t18 7q14 0 18 -23v-20zM228 277l-59 -19q-93 -29 -93 -127q0 -37 18 -63t52 -26q82 0 82 123v112z" />
    <glyph glyph-name="uni0431" unicode="&#x431;" 
d="M119 311h66q129 0 129 -160q0 -78 -33 -114.5t-90 -36.5h-148q-11 0 -18 7t-7 18q0 10 7 17t18 7h19v422h-19q-11 0 -18 7.5t-7 17.5t7 17t18 7h216q11 0 18 -7t7 -18v-96q0 -11 -7 -18t-18 -7h-3q-10 0 -17.5 7t-7.5 18v72h-112v-160zM119 49h61q76 0 76 104
q0 112 -76 112h-61v-216z" />
    <glyph glyph-name="uni0432" unicode="&#x432;" horiz-adv-x="349" 
d="M45 520h139q59 0 87 -35t28 -94q0 -96 -74 -113q44 -1 65 -37t21 -93q0 -148 -132 -148h-134q-11 0 -18 7t-7 18q0 10 7 17t18 7h20v422h-20q-11 0 -18 7.5t-7 17.5t7 17t18 7zM123 471v-170h53q66 0 66 87q0 83 -71 83h-48zM123 49h53q78 0 78 101q0 53 -21.5 79
t-56.5 26h-53v-206z" />
    <glyph glyph-name="uni0433" unicode="&#x433;" horiz-adv-x="299" 
d="M47 520h217q10 0 17.5 -7t7.5 -18v-96q0 -11 -7.5 -18t-17.5 -7h-6q-11 0 -18.5 7t-7.5 18v72h-109v-422h36q11 0 18 -7.5t7 -17.5t-7.5 -17t-18.5 -7h-111q-11 0 -18 7t-7 18q0 10 7 17t18 7h19v422h-19q-11 0 -18 7.5t-7 17.5t7 17t18 7z" />
    <glyph glyph-name="uni0434" unicode="&#x434;" horiz-adv-x="356" 
d="M293 49h20q11 0 18 -7.5t7 -17.5v-96q0 -10 -7 -17.5t-18 -7.5h-5q-10 0 -17.5 7.5t-7.5 17.5v72h-208v-72q0 -10 -7.5 -17.5t-17.5 -7.5h-5q-11 0 -18 7.5t-7 17.5v96q0 10 7 17.5t18 7.5h1q21 53 21 231v191h-20q-11 0 -18 7.5t-7 17.5t7 17t18 7h266q11 0 18 -7t7 -18
q0 -10 -7 -17t-18 -7h-20v-422zM124 471v-199q0 -81 -5 -137t-11 -71l-5 -15h133v422h-112z" />
    <glyph glyph-name="uni0435" unicode="&#x435;" horiz-adv-x="309" 
d="M92 238v-114q0 -80 64 -80q61 0 61 80v24q0 10 7.5 17.5t17.5 7.5h7q11 0 18 -7.5t7 -17.5v-19q0 -69 -32 -101.5t-88 -32.5q-119 0 -119 134v267q0 69 32 101.5t87 32.5q62 0 91 -36t29 -97v-134q0 -11 -7 -18t-18 -7h-157zM92 288h125v113q0 80 -63 80q-62 0 -62 -79
v-114z" />
    <glyph glyph-name="uni0436" unicode="&#x436;" horiz-adv-x="565" 
d="M506 49h25q10 0 17 -7t7 -18q0 -10 -7 -17t-18 -7h-100q-10 0 -17.5 7t-7.5 18q0 10 7 17t18 7h16l-85 186h-50v-186h19q10 0 17.5 -7.5t7.5 -17.5t-7 -17t-18 -7h-97q-10 0 -16.5 7t-6.5 18q0 10 7 17t18 7h19v186h-50l-85 -186h15q11 0 18.5 -7t7.5 -18q0 -10 -7 -17
t-18 -7h-101q-10 0 -17 7t-7 18q0 10 7 17t18 7h24l105 221l-99 201h-24q-11 0 -18 7.5t-7 17.5t7 17t18 7h101q10 0 17.5 -7t7.5 -18q0 -10 -7 -17t-18 -7h-18l89 -182h41v182h-19q-11 0 -18 7.5t-7 17.5q0 11 7 17.5t16 6.5h97q10 0 17.5 -7t7.5 -18q0 -10 -7 -17t-18 -7
h-19v-182h41l89 182h-18q-11 0 -18 7.5t-7 17.5t7 17t18 7h101q10 0 17.5 -7t7.5 -18q0 -10 -7 -17t-18 -7h-24l-99 -201z" />
    <glyph glyph-name="uni0437" unicode="&#x437;" horiz-adv-x="340" 
d="M294 408v-24q0 -85 -68 -104q77 0 77 -101v-48q0 -70 -34.5 -103t-94.5 -33q-66 0 -99 36t-33 97v24q0 10 7 17.5t18 7.5h7q10 0 17.5 -7.5t7.5 -17.5v-24q0 -79 73 -79q74 0 74 80v44q0 85 -70 85q-8 0 -13 7.5t-5 17.5t7 16t18 6h-4q59 0 59 77v17q0 77 -67 77
q-68 0 -68 -80q0 -10 -7 -16t-18 -6h-4q-10 0 -17.5 7t-7.5 18v96q0 11 7.5 18t17.5 7q18 0 20 -22l3 -24h1q23 56 82 56q114 0 114 -122z" />
    <glyph glyph-name="uni0438" unicode="&#x438;" horiz-adv-x="378" 
d="M313 49h20q11 0 18 -7.5t7 -17.5t-7.5 -17t-18.5 -7h-95q-11 0 -18 7t-7 18q0 10 7 17t18 7h19v195l9 156h-1l-137 -385q-5 -15 -21 -15h-49q-11 0 -18.5 7t-7.5 18q0 10 7 17t18 7h9v422h-20q-11 0 -18 7.5t-7 17.5t7 17t18 7h95q10 0 17.5 -7t7.5 -18q0 -10 -7 -17
t-18 -7h-18v-206l-10 -158h1l138 397q5 16 21 16h61q11 0 18 -7t7 -18q0 -10 -7 -17t-18 -7h-20v-422z" />
    <glyph glyph-name="uni0439" unicode="&#x439;" horiz-adv-x="378" 
d="M240 660v-6q0 10 5.5 17.5t13.5 7.5q23 0 23 -22q0 -29 -22 -51t-67 -22t-67 22t-22 51q0 22 23 22q8 0 13.5 -7.5t5.5 -17.5v6q0 -15 11 -26t36 -11t36 11t11 26zM313 49h20q11 0 18 -7.5t7 -17.5t-7.5 -17t-18.5 -7h-95q-11 0 -18 7t-7 18q0 10 7 17t18 7h19v195l9 156
h-1l-137 -385q-5 -15 -21 -15h-49q-11 0 -18.5 7t-7.5 18q0 10 7 17t18 7h9v422h-20q-11 0 -18 7.5t-7 17.5t7 17t18 7h95q10 0 17.5 -7t7.5 -18q0 -10 -7 -17t-18 -7h-18v-206l-10 -158h1l138 397q5 16 21 16h61q11 0 18 -7t7 -18q0 -10 -7 -17t-18 -7h-20v-422z" />
    <glyph glyph-name="uni043A" unicode="&#x43a;" horiz-adv-x="354" 
d="M122 49h8q10 0 17.5 -7.5t7.5 -17.5q0 -24 -24 -24h-83q-28 0 -28 25q0 10 7 17t18 7h20v422h-20q-11 0 -18 7t-7 17q0 25 28 25h83q24 0 24 -24q0 -10 -7.5 -17.5t-17.5 -7.5h-8v-422zM302 49h23q10 0 16 -7t6 -18q0 -24 -29 -24h-84q-28 0 -28 25q0 10 7.5 17t18.5 7h7
l-110 209q-6 11 0 22l112 191h-11q-11 0 -18.5 7t-7.5 18q0 10 7 17t17 7h93q11 0 18 -7t7 -18q0 -10 -7 -17t-18 -7h-20l-120 -200z" />
    <glyph glyph-name="uni043B" unicode="&#x43b;" horiz-adv-x="330" 
d="M267 49h18q11 0 18 -7.5t7 -17.5t-7 -17t-17 -7h-92q-10 0 -17 7t-7 18q0 10 7 17t18 7h15v422h-90v-348q3 -123 -66 -123h-27q-11 0 -18 7t-7 18q0 10 7 17t18 7h-2q26 0 32 14.5t6 67.5v340h-19q-10 0 -17.5 7.5t-7.5 17.5t7 17t18 7h246q20 0 20 -25q0 -10 -7 -17
t-18 -7h-18v-422z" />
    <glyph glyph-name="uni043C" unicode="&#x43c;" horiz-adv-x="476" 
d="M414 49h23q10 0 16 -7t6 -18q0 -10 -7 -17t-18 -7h-95q-11 0 -18 7t-7 18q0 10 7 17t18 7h18v152l10 205h-1l-97 -315q-5 -17 -22 -17h-17q-17 0 -22 16l-98 315h-1l11 -206v-150h18q10 0 17.5 -7.5t7.5 -17.5t-7 -17t-18 -7h-96q-10 0 -17 7t-7 18q0 10 7 17t18 7h20
v422h-19q-10 0 -17.5 7.5t-7.5 17.5t7 17t18 7h58q17 0 22 -16l114 -351l115 351q5 16 22 16h57q11 0 18.5 -7t7.5 -18q0 -10 -7 -17t-18 -7h-19v-422z" />
    <glyph glyph-name="uni043D" unicode="&#x43d;" horiz-adv-x="374" 
d="M312 49h19q11 0 18 -7.5t7 -17.5t-6.5 -17t-14.5 -7h-98q-11 0 -18 7t-7 18q0 10 7 17t18 7h18v192h-134v-192h18q11 0 18 -7.5t7 -17.5t-6.5 -17t-14.5 -7h-98q-11 0 -18 7t-7 18q0 10 7 17t18 7h19v422h-19q-11 0 -18 7.5t-7 17.5t7 17t18 7h98q9 0 15 -7t6 -18
q0 -10 -7 -17t-18 -7h-18v-187h134v187h-19q-10 0 -17.5 7.5t-7.5 17.5t6.5 17t14.5 7h98q10 0 17.5 -7t7.5 -18q0 -10 -7 -17t-18 -7h-18v-422z" />
    <glyph glyph-name="uni043E" unicode="&#x43e;" horiz-adv-x="309" 
d="M35 129v267q0 69 32 101.5t88 32.5q119 0 119 -133v-268q0 -69 -32 -101.5t-88 -32.5q-119 0 -119 134zM217 124v277q0 80 -63 80q-62 0 -62 -79v-278q0 -80 62 -80q63 0 63 80z" />
    <glyph glyph-name="uni043F" unicode="&#x43f;" horiz-adv-x="358" 
d="M45 520h273q20 0 20 -25q0 -10 -7 -17t-18 -7h-18v-422h18q11 0 18 -7.5t7 -17.5t-7 -17t-18 -7h-91q-10 0 -17 7t-7 18q0 10 7 17t18 7h15v422h-117v-422h15q10 0 17.5 -7.5t7.5 -17.5t-6.5 -17t-16.5 -7h-93q-11 0 -18 7t-7 18q0 10 7 17t18 7h19v422h-19
q-11 0 -18 7.5t-7 17.5t7 17t18 7z" />
    <glyph glyph-name="uni0440" unicode="&#x440;" horiz-adv-x="345" 
d="M122 496v-31q24 65 85 65q103 0 103 -122v-281q0 -68 -29.5 -100t-79.5 -32q-56 0 -75 41v-152h16q11 0 18.5 -7t7.5 -18q0 -10 -6.5 -17t-13.5 -7h-98q-10 0 -17.5 7.5t-7.5 17.5t7 17t18 7h19v587h-19q-10 0 -17.5 7.5t-7.5 17.5t7 17t18 7h46q23 0 26 -24zM252 139
v257q0 85 -61 85q-65 0 -65 -95v-247q0 -95 62 -95q64 0 64 95z" />
    <glyph glyph-name="uni0441" unicode="&#x441;" horiz-adv-x="300" 
d="M217 480l2 18q3 22 25 22q11 0 18 -7t7 -18v-137q0 -10 -7.5 -17.5t-17.5 -7.5h-6q-11 0 -18.5 7t-7.5 18v28q0 95 -60 95t-60 -95v-265q0 -78 61 -78q60 0 60 78v29q0 11 7 18.5t18 7.5h7q11 0 18 -7t7 -18v-28q0 -67 -32 -98t-87 -31q-116 0 -116 132v272q0 68 28 100
t76 32q57 0 76 -50h2z" />
    <glyph glyph-name="uni0442" unicode="&#x442;" horiz-adv-x="361" 
d="M40 520h281q11 0 18 -7t7 -18v-96q0 -11 -7 -18t-18 -7h-5q-10 0 -17.5 7t-7.5 18v72h-82v-422h35q10 0 17.5 -7.5t7.5 -17.5t-7 -17t-18 -7h-128q-10 0 -17.5 7t-7.5 18q0 10 7 17t18 7h36v422h-82v-72q0 -11 -7 -18t-18 -7h-5q-10 0 -17.5 7t-7.5 18v96q0 11 7.5 18
t17.5 7z" />
    <glyph glyph-name="uni0443" unicode="&#x443;" horiz-adv-x="334" 
d="M222 520h83q10 0 16 -6.5t6 -17.5q0 -10 -7.5 -17.5t-17.5 -7.5h-20l-77 -547q-6 -41 -27.5 -65t-60.5 -24h-39q-11 0 -18.5 7t-7.5 18q0 10 7 17t18 7h35q32 0 39 42l11 74h-18q-21 0 -24 21l-70 450h-20q-10 0 -17.5 7.5t-7.5 17.5t7.5 17t18.5 7h81q10 0 16 -6.5
t6 -17.5q0 -10 -7 -17.5t-18 -7.5h-5l64 -425l59 425h-4q-11 0 -18 7.5t-7 17.5t7 17t17 7z" />
    <glyph glyph-name="uni0444" unicode="&#x444;" horiz-adv-x="409" 
d="M233 530h15q65 0 95.5 -36t30.5 -97v-273q0 -69 -34 -101.5t-92 -32.5h-15v-106h15q10 0 17.5 -7t7.5 -18q0 -22 -23 -24h-93q-11 0 -18 7.5t-7 17.5t7 17t18 7h19v106h-14q-65 0 -96 36t-31 98v272q0 69 34 101.5t93 32.5h14v121h-35q-11 0 -18 7.5t-7 17.5t7 17t18 7
h67q10 0 17.5 -7t7.5 -18v-145zM176 39v442h-14q-70 0 -70 -79v-283q0 -80 70 -80h14zM317 119v282q0 80 -69 80h-15v-442h15q69 0 69 80z" />
    <glyph glyph-name="uni0445" unicode="&#x445;" horiz-adv-x="348" 
d="M296 471l-84 -210l84 -212h22q10 0 17.5 -7.5t7.5 -17.5q0 -24 -26 -24h-81q-25 0 -25 26q0 10 7 16.5t18 6.5h3l-65 181l-66 -181h3q11 0 18 -7t7 -17q0 -25 -25 -25h-81q-25 0 -25 25q0 10 7 17t18 7h20l85 212l-85 210h-17q-28 0 -28 25q0 24 26 24h79q25 0 25 -25
q0 -10 -7 -17t-18 -7h-2l66 -179l64 179h-2q-10 0 -17.5 7.5t-7.5 17.5q0 11 7 17.5t17 6.5h80q28 0 28 -24q0 -10 -7.5 -17.5t-17.5 -7.5h-22z" />
    <glyph glyph-name="uni0446" unicode="&#x446;" horiz-adv-x="346" 
d="M284 49h23q10 0 16 -7t6 -18v-93q0 -11 -7 -18.5t-18 -7.5h-1q-11 0 -18 7.5t-7 17.5v70h-235q-11 0 -18 7t-7 18q0 10 7 17t18 7h20v422h-19q-10 0 -17.5 7.5t-7.5 17.5q0 24 27 24h84q25 0 25 -25q0 -10 -7 -17t-18 -7h-10v-422h107v422h-10q-11 0 -18 7.5t-7 17.5
q0 24 25 24h82q29 0 29 -24q0 -10 -7 -17.5t-18 -7.5h-19v-422z" />
    <glyph glyph-name="uni0447" unicode="&#x447;" horiz-adv-x="376" 
d="M313 49h15q10 0 17.5 -7.5t7.5 -17.5q0 -24 -27 -24h-84q-30 0 -30 25q0 10 7 17t18 7h19v178h-2q-28 -47 -79 -47q-110 0 -110 132v159h-19q-10 0 -17.5 7.5t-7.5 17.5t7.5 17t18.5 7h89q26 0 26 -25q0 -10 -7 -17t-18 -7h-15v-143q0 -95 67 -95t67 95v143h-19
q-11 0 -18 7.5t-7 17.5t7.5 17t18.5 7h89q26 0 26 -25q0 -10 -7 -17t-18 -7h-15v-422z" />
    <glyph glyph-name="uni0448" unicode="&#x448;" horiz-adv-x="510" 
d="M448 49h23q10 0 16 -7t6 -18q0 -10 -7 -17t-17 -7h-426q-11 0 -18 7t-7 18q0 10 7 17t18 7h20v422h-15q-11 0 -18 7t-7 17q0 25 28 25h81q28 0 28 -25q0 -24 -26 -24h-14v-422h107v422h-14q-26 0 -26 24q0 25 28 25h81q28 0 28 -25q0 -10 -7 -17t-18 -7h-15v-422h107v422
h-14q-26 0 -26 24q0 25 28 25h81q28 0 28 -25q0 -10 -7 -17t-18 -7h-15v-422zM470 0h-1h1z" />
    <glyph glyph-name="uni0449" unicode="&#x449;" horiz-adv-x="510" 
d="M448 49h23q10 0 16 -7t6 -18v-93q0 -11 -7 -18.5t-18 -7.5h-4q-10 0 -17.5 7.5t-7.5 17.5v70h-396q-11 0 -18 7t-7 18q0 10 7 17t18 7h20v422h-15q-11 0 -18 7t-7 17q0 25 28 25h81q28 0 28 -25q0 -24 -26 -24h-14v-422h107v422h-14q-26 0 -26 24q0 25 28 25h81
q28 0 28 -25q0 -10 -7 -17t-18 -7h-15v-422h107v422h-14q-26 0 -26 24q0 25 28 25h81q28 0 28 -25q0 -10 -7 -17t-18 -7h-15v-422z" />
    <glyph glyph-name="uni044A" unicode="&#x44a;" horiz-adv-x="379" 
d="M175 311h65q129 0 129 -153q0 -81 -33 -119.5t-90 -38.5h-150q-10 0 -16 7t-6 18q0 10 7 17t18 7h19v422h-55v-72q0 -11 -7.5 -18t-17.5 -7h-3q-11 0 -18 7t-7 18v96q0 11 7 18t18 7h152q28 0 28 -25q0 -10 -7 -17t-18 -7h-15v-160zM175 49h61q76 0 76 109q0 107 -76 107
h-61v-216z" />
    <glyph glyph-name="uni044B" unicode="&#x44b;" horiz-adv-x="500" 
d="M119 311h65q129 0 129 -153q0 -81 -33 -119.5t-90 -38.5h-150q-10 0 -16 7t-6 18q0 10 7 17t18 7h19v422h-14q-26 0 -26 24q0 25 28 25h81q28 0 28 -25q0 -10 -7 -17t-18 -7h-15v-160zM439 49h19q10 0 17.5 -7.5t7.5 -17.5t-7 -17t-18 -7h-97q-10 0 -16.5 7t-6.5 18
q0 10 7 17t18 7h19v422h-19q-11 0 -18 7.5t-7 17.5t7 17t18 7h95q10 0 17.5 -7t7.5 -18q0 -10 -7 -17t-18 -7h-19v-422zM119 49h61q76 0 76 109q0 107 -76 107h-61v-216z" />
    <glyph glyph-name="uni044C" unicode="&#x44c;" horiz-adv-x="323" 
d="M119 311h65q129 0 129 -153q0 -81 -33 -119.5t-90 -38.5h-150q-10 0 -16 7t-6 18q0 10 7 17t18 7h19v422h-14q-26 0 -26 24q0 25 28 25h81q28 0 28 -25q0 -10 -7 -17t-18 -7h-15v-160zM119 49h61q76 0 76 109q0 107 -76 107h-61v-216z" />
    <glyph glyph-name="uni044D" unicode="&#x44d;" horiz-adv-x="344" 
d="M115 474h2q18 56 78 56q114 0 114 -132v-276q0 -68 -33 -100t-90 -32q-125 0 -125 129v28q0 11 7.5 18t17.5 7h7q11 0 18 -7t7 -18v-30q0 -78 65 -78q69 0 69 78v119h-87q-11 0 -18 7t-7 18t7 18t18 7h87v100q0 95 -68 95q-66 0 -66 -95v-28q0 -10 -7 -17.5t-18 -7.5h-6
q-11 0 -18 7.5t-7 17.5v137q0 11 7 18t18 7h1q22 0 24 -22z" />
    <glyph glyph-name="uni044E" unicode="&#x44e;" horiz-adv-x="476" 
d="M202 274v117q0 69 32 101.5t88 32.5q61 0 90 -36t29 -97v-263q0 -69 -32 -101.5t-88 -32.5q-119 0 -119 134v102h-83v-182h19q10 0 17.5 -7.5t7.5 -17.5t-7 -17t-18 -7h-97q-10 0 -16.5 7t-6.5 18q0 10 7 17t18 7h19v422h-19q-11 0 -18 7.5t-7 17.5q0 24 29 24h88
q28 0 28 -25q0 -10 -7 -17t-18 -7h-19v-197h83zM384 124v272q0 80 -63 80q-62 0 -62 -79v-273q0 -80 62 -80q63 0 63 80z" />
    <glyph glyph-name="uni044F" unicode="&#x44f;" horiz-adv-x="351" 
d="M285 49h20q11 0 18 -7.5t7 -17.5t-7 -17t-18 -7h-98q-10 0 -16.5 7t-6.5 18q0 10 7 17t18 7h19v194h-48q-61 0 -61 -93v-124q0 -11 -7 -18.5t-18 -7.5h-48q-11 0 -18.5 7t-7.5 18q0 10 7 17t18 7h17v94q0 122 74 125q-87 6 -87 114q0 138 120 138h128q28 0 28 -25
q0 -10 -7 -17t-18 -7h-15v-422zM228 471h-50q-73 0 -73 -90q0 -89 74 -89h49v179z" />
    <glyph glyph-name="uni0451" unicode="&#x451;" horiz-adv-x="309" 
d="M85 658v66q0 11 7 18.5t18 7.5t18 -7t7 -18v-67q0 -10 -7.5 -17.5t-17.5 -7.5q-11 0 -18 7t-7 18zM183 658v66q0 11 7 18.5t18 7.5t18 -7t7 -18v-67q0 -10 -7.5 -17.5t-17.5 -7.5q-11 0 -18 7t-7 18zM92 238v-114q0 -80 64 -80q61 0 61 80v24q0 10 7.5 17.5t17.5 7.5h7
q11 0 18 -7.5t7 -17.5v-19q0 -69 -32 -101.5t-88 -32.5q-119 0 -119 134v267q0 69 32 101.5t87 32.5q62 0 91 -36t29 -97v-134q0 -11 -7 -18t-18 -7h-157zM92 288h125v113q0 80 -63 80q-62 0 -62 -79v-114z" />
    <glyph glyph-name="quoteleft" unicode="&#x2018;" horiz-adv-x="156" 
d="M50 620l18 119q3 21 24 21q19 0 19 -27l-6 -120q-2 -24 -25 -24h-3q-13 0 -21 9t-6 22z" />
    <glyph glyph-name="quoteright" unicode="&#x2019;" horiz-adv-x="156" 
d="M108 729l-18 -119q-3 -21 -24 -21q-19 0 -19 27l6 120q2 24 25 24h3q13 0 21 -9t6 -22z" />
    <glyph glyph-name="quotesinglbase" unicode="&#x201a;" horiz-adv-x="156" 
d="M107 17l-18 -119q-3 -21 -24 -21q-19 0 -19 27l6 120q2 24 25 24h3q13 0 21 -9t6 -22z" />
    <glyph glyph-name="quotedblleft" unicode="&#x201c;" horiz-adv-x="248" 
d="M50 620l18 119q3 21 24 21q19 0 19 -27l-6 -120q-2 -24 -25 -24h-3q-13 0 -21 9t-6 22zM142 620l18 119q3 21 24 21q19 0 19 -27l-7 -120q0 -10 -7 -17t-18 -7h-2q-13 0 -21 9t-6 22z" />
    <glyph glyph-name="quotedblright" unicode="&#x201d;" horiz-adv-x="248" 
d="M107 729l-18 -119q-3 -21 -24 -21q-19 0 -19 27l7 120q0 10 7 17t18 7h2q13 0 21 -9t6 -22zM199 729l-18 -119q-3 -21 -24 -21q-19 0 -19 27l6 120q2 24 25 24h3q13 0 21 -9t6 -22z" />
    <glyph glyph-name="quotedblbase" unicode="&#x201e;" horiz-adv-x="248" 
d="M107 17l-18 -119q-3 -21 -24 -21q-19 0 -19 27l7 120q0 10 7 17t18 7h2q13 0 21 -9t6 -22zM199 17l-18 -119q-3 -21 -24 -21q-19 0 -19 27l6 120q2 24 25 24h3q13 0 21 -9t6 -22z" />
    <glyph glyph-name="dagger" unicode="&#x2020;" horiz-adv-x="333" 
d="M195 724l-3 -163l-4 -26q12 5 25 5h49q11 0 18.5 -7t7.5 -18t-7 -18t-18 -7h-50l-25 5q4 -11 4 -26l-5 -444q0 -11 -7.5 -18t-17.5 -7q-15 0 -15 25l-5 444l4 26q-9 -5 -25 -5h-49q-11 0 -18.5 7t-7.5 18t7 18t18 7h50l25 -5q-4 12 -4 26l-3 163q0 11 7.5 18.5t18.5 7.5
h5q11 0 18.5 -7.5t6.5 -18.5z" />
    <glyph glyph-name="daggerdbl" unicode="&#x2021;" horiz-adv-x="334" 
d="M195 724l-3 -163l-4 -26q12 5 25 5h49q11 0 18.5 -7t7.5 -18t-7 -18t-18 -7h-50l-25 5q4 -11 4 -26v-106l-4 -26q12 5 25 5h49q11 0 18.5 -7t7.5 -18t-7 -18t-18 -7h-50l-25 5q4 -11 4 -26l-5 -246q0 -25 -25 -25q-15 0 -15 25l-5 246l4 26q-9 -5 -25 -5h-49
q-11 0 -18.5 7t-7.5 18t7 18t18 7h50l25 -5q-4 12 -4 26v106l4 26q-9 -5 -25 -5h-49q-11 0 -18.5 7t-7.5 18t7 18t18 7h50l25 -5q-4 12 -4 26l-3 163q0 11 7.5 18.5t18.5 7.5h5q11 0 18.5 -7.5t6.5 -18.5z" />
    <glyph glyph-name="guilsinglleft" unicode="&#x2039;" horiz-adv-x="208" 
d="M53 310l51 114q6 13 24 13q16 0 22 -13t-2 -29l-42 -94l42 -95q8 -16 1 -29t-23 -13t-22 13l-51 115q-5 9 0 18z" />
    <glyph glyph-name="guilsinglright" unicode="&#x203a;" horiz-adv-x="208" 
d="M112 424l51 -114q5 -9 0 -18l-51 -115q-6 -13 -22 -13t-23 13t1 29l42 95l-42 94q-8 16 -2 29t22 13q18 0 24 -13z" />
    <glyph glyph-name="Euro" unicode="&#x20ac;" horiz-adv-x="410" 
d="M340 483h-4q-10 0 -17.5 7.5t-7.5 17.5v103q0 95 -77 95q-36 0 -57 -23.5t-21 -71.5v-167h104q10 0 17.5 -7t7.5 -18q0 -9 -7 -15t-18 -6h-104v-46h104q10 0 17.5 -7t7.5 -18q0 -9 -7 -15t-18 -6h-104v-184q0 -33 22 -55.5t54 -22.5q33 0 56 22.5t23 55.5v105
q0 11 7 18.5t18 7.5h4q10 0 17.5 -7.5t7.5 -17.5v-106q0 -56 -37 -94t-96 -38q-60 0 -97 37.5t-37 94.5v184h-28q-10 0 -17.5 7t-7.5 18q0 9 7 15t18 6h28v46h-28q-10 0 -17.5 7t-7.5 18q0 9 7 15t18 6h28v184q0 58 32 95t94 37q33 0 56.5 -15.5t32.5 -40.5h2l4 34
q2 22 24 22q10 0 16 -7t6 -18v-226q0 -11 -7 -18.5t-18 -7.5z" />
    <glyph glyph-name="trademark" unicode="&#x2122;" horiz-adv-x="365" 
d="M130 560v-17h-54v17h17v173h-30v-57h-18v74h116v-74h-18v57h-29v-173h16zM291 750h29v-17h-14v-173h14v-17h-44v17h12v116l-34 -133h-16l-33 133v-116h11v-17h-45v17h15v173h-15v17h31l44 -169z" />
    <glyph glyph-name="and" horiz-adv-x="417" 
d="M358 434q-47 -4 -145 -34.5t-152 -32.5q37 5 138 37t159 30zM223 434q-88 -35 -151 -41q26 5 75.5 20t75.5 21zM319 404q9 0 12 -2q6 -4 8 -7q2 -4 4 -10q1 -4 1 -13v-55v-54q0 -9 -1 -13q-1 -6 -5 -11q-3 -4 -7 -7q-4 -2 -12 -4l-13 -1q-2 -1 -5 -1l-4 1q-1 0 -3 1
l-3 -2q-2 -2 -3 -2l-5 -2q-5 -1 -13 -3v13q12 2 17 4l1 75v75l-17 -4v13l12 3h5h4q1 0 3 -2l3 3l4 2l5 1q2 0 6 1t6 1zM330 261l1 56v56q0 5 -2 11q-2 4 -3 5l-4 2h-3q-6 0 -18 -2v-75v-75l18 2q1 0 3 1q2 0 3 3q2 1 4 5q1 3 1 11zM243 387l6 2l7 2v-12l-13 -4v-82v-81
q-2 0 -6.5 -2t-6.5 -2l-20 63q-3 12 -10 33.5t-9 30.5l1 -24q0 -4 0.5 -11.5t0.5 -11.5v-40v-40l12 4v-12l-7 -3q-3 -1 -8 -1h-2l-2 1q-1 -1 -3 -2.5t-3 -2.5l-8 -3q-1 0 -2.5 -0.5t-2.5 -0.5v12q2 0 6 2t6 2v75q0 13 0.5 38t0.5 37l-13 -3v12l26 8q3 -11 9.5 -31.5
t9.5 -31.5l20 -64q-1 7 -1 22l-1 22v41v42q-4 -2 -12 -4v13q3 0 4 1l8 2q5 0 7 -1l3 3q0 1 1 1t2 1zM138 192l15 4v-13l-9 -2q-1 0 -3 -1h-2h-4q-1 0 -1 1l-2 1l-3 -3l-1 -1q-2 0 -2 -1l-6 -2q-2 -1 -4.5 -1t-3.5 -1v13q8 2 13 3l-4 26q-2 16 -4 26l-21 -4q0 -4 -2 -13
t-2 -14l-4 -28q2 0 6.5 0.5t6.5 1.5v-13q-6 0 -9 -1h-5q-1 0 -2 0.5t-2 0.5l-2 2l-3 -3l-4 -1l-2 -1h-3h-9v13h15q4 36 7 54l7 54q2 11 4 29l4 28q8 2 20 4l3 -27q2 -8 4 -28l7 -51q3 -18 7 -52zM102 291l-5 -44l19 4q-1 14 -5 42l-2 22q0 4 -0.5 11.5t-1.5 11.5l-3 -23
q0 -8 -2 -24zM60 145q48 4 145.5 34t151.5 32q-36 -5 -137.5 -37t-159.5 -29zM195 145q98 36 151 41q-23 -6 -73.5 -20.5t-77.5 -20.5z" />
    <glyph glyph-name="arrow_1" horiz-adv-x="780" 
d="M200 401h387q-15 38 -15 73q113 -77 148 -93q-16 -7 -53 -30t-66 -43l-29 -19q0 16 4 34t8 29l3 10h-387l-31 -59h-109l37 78l-37 79h109z" />
    <glyph glyph-name="arrow_2" horiz-adv-x="550" 
d="M359 486v11q45 -47 131 -97q-38 -22 -71 -46t-47 -38l-13 -13v10q0 25 3.5 43t7.5 24l4 6h-141q-30 -31 -44 -64h-30q9 35 30 64h-7q-29 -33 -43 -64h-30q12 39 30 64h-7q-30 -30 -44 -64h-28q11 39 39 78q-27 38 -39 78h28q10 -22 44 -63h7q-18 25 -30 63h30
q13 -29 43 -63h7q-21 29 -30 63h30q14 -31 44 -63h141q-15 16 -15 71z" />
    <glyph glyph-name="arrow_3" horiz-adv-x="653" 
d="M304 372h-129q14 -31 14 -55l-129 77l129 74q0 -26 -14 -51h123q12 22 37 22t37 -22h119l31 38h71l-36 -61l36 -61h-71l-31 39h-124q-11 -16 -32 -16q-20 0 -31 16zM335 410q-5 0 -8.5 -4t-3.5 -8q0 -12 12 -12q13 0 13 12q0 5 -4 8.5t-9 3.5z" />
    <glyph glyph-name="arrow_4" horiz-adv-x="630" 
d="M60 294l186 63l-6 -43l330 40l-58 -60l58 -61l-330 40l6 -43z" />
    <glyph glyph-name="arrow_5" horiz-adv-x="632" 
d="M83 304h-11v-21h11l-23 -46h21l23 46h21l-23 -46h22l23 46h21l-23 -46h21l23 46h21l-23 -46h21l23 46h192l-12 -54q54 26 161 65q-100 35 -161 64l12 -54h-192l-23 47h-21l23 -47h-21l-23 47h-21l23 -47h-21l-23 47h-22l23 -47h-21l-23 47h-21z" />
    <glyph glyph-name="arrow_6" horiz-adv-x="630" 
d="M494 286l-6 -37l82 41q-12 6 -25.5 12.5t-30.5 15t-26 13.5l6 -37h-237l-20 39h-11l19 -39h-12l-19 39h-12l19 -39h-11l-20 39h-12l20 -39h-12l-20 39h-11l19 -39h-12l-19 39h-12l20 -39h-12l-20 39h-12l20 -39h-12l-20 39h-11l19 -39h-12l-19 39h-12l20 -39h-12v-8h12
l-20 -38h12l19 38h12l-19 -38h11l20 38h12l-20 -38h12l20 38h12l-20 -38h12l19 38h12l-19 -38h11l20 38h12l-20 -38h12l20 38h11l-19 -38h12l19 38h12l-19 -38h11l20 38h237z" />
    <glyph glyph-name="arrow_7" horiz-adv-x="370" 
d="M86 291l-26 -79h29l17 44h10l-16 -44h30l16 44h11l-16 -44h29l17 44h47l-3 -46h6l73 81l-73 81h-6l3 -47h-47l-17 44h-29l16 -44h-11l-16 44h-30l16 -44h-10l-17 44h-29z" />
    <glyph glyph-name="by" horiz-adv-x="334" 
d="M173 431q-60 -24 -111 -27q12 3 34.5 9t41 10.5t35.5 7.5zM274 428q-30 -5 -101.5 -23t-111.5 -23q9 3 41 13t45 13.5t38 9.5t46 8t43 2zM208 211l-12 -3v12q3 1 9 2.5t8 1.5v30q0 5 0.5 15t0.5 15l-16 45q-2 8 -7.5 23t-8.5 22l-15 -4v12l10 2q6 2 11 -1q4 5 12 7l10 2
q0 -8 -1 -12l-13 -3q2 -6 6 -19t6 -19l12 -38q5 15 13 43l13 43q-4 -1 -14 -3v12q1 0 4.5 1t5.5 1q6 1 12 -3q3 5 11 5h10v-12h-15q-8 -22 -16 -50l-16 -51v-30l-1 -30l18 3v-11q-5 -1 -13 -3q-7 -1 -12 2q-5 -5 -12 -7zM86 186l-13 1v12q3 0 9 -0.5t9 -0.5v79q0 13 0.5 39
t0.5 40l-18 -1v11l13 1q7 0 12 -3q2 3 11 6l16 3q14 3 20.5 -5.5t6.5 -23.5v-24q0 -24 -22 -31q5 1 9 0t9 -7.5t5 -20.5v-32q0 -33 -28 -39l-17 -2q-8 0 -11 2q-4 -3 -12 -4zM139 316v27q0 9 -3 13.5t-6 4t-5 -0.5l-19 -3v-33l-1 -33q7 0 17 2q17 3 17 23zM105 239v-40l15 2
q20 4 20 23v32q0 13 -5 19t-7.5 6.5t-6.5 0.5l-16 -2v-41zM60 154q30 5 101.5 23t111.5 23q-9 -3 -41 -13t-45 -13.5t-38 -9.5t-46 -8t-43 -2zM161 151q61 25 111 27q-12 -3 -34.5 -9t-41 -10.5t-35.5 -7.5z" />
    <glyph glyph-name="down_index" horiz-adv-x="377" 
d="M156 536h-31q-26 -3 -28 -3q-11 0 -15 -6v-3l1 -1q2 -5 24 -7q1 0 1 -3q-23 -2 -32 7q-9 7 -6 16q0 1 1 4t0 5q-2 8 -2 11v5q-2 24 -7 43q-2 6 -2 9h3l3 -12l4 2q9 2 27.5 2.5t32.5 0.5l14 -1q6 0 18 0.5t22 0.5t18 -1q22 -2 33 -4q8 -2 30 -8q1 2 2 5.5t2 5.5q3 8 4 9
q3 0 4 -1q-2 -4 -4 -14l-3 -16v-16t-1 -16q0 -5 -2 -11q-1 -3 0 -9.5t0 -8.5q-4 -6 -13 -10l-1 6q5 3 4 7l-3 2q-2 1 -15 3l-7 1q-24 4 -76 6zM191 589h1q40 -6 60 -11q1 0 1 1q-23 13 -62 11v-1zM156 570v-1q49 -3 95 -12h1v1q-46 20 -96 12zM102 547h-1q0 -1 1 -1
q80 2 148 -8v1q-74 27 -148 8zM272 445l24 -48l5.5 -16.5t4.5 -14.5q0 -1 2.5 -6t3.5 -8q3 -8 5 -25q0 -3 -0.5 -8t-0.5 -7q-1 -9 -5 -24.5t-5 -19.5q-2 -7 -2 -23q0 -8 -4 -24q-1 -4 -2.5 -11.5t-2.5 -10.5q-4 -13 -5 -23q-4 -29 -7 -39q-15 3 -17 1q-1 -2 -2 -6
q0 -3 -2.5 -12t-2.5 -11q-18 6 -18 34q0 13 6 27q-11 32 4 60q-7 22 -4 53q1 6 5 13t5 10q-4 -3 -7 -7q-4 -4 -5 -6q-8 -10 -16 -22q-10 -12 -13 -14q-1 -1 -4 -2.5t-4 -2.5q-2 -1 -5 -6q-8 -10 -18 -13q-5 -3 -10 -3q-7 0 -17 6q-16 12 -3 22q7 5 25.5 25.5t25.5 33.5h1
q0 1 1 3v1l-12 -14l-12 -13q-3 -2 -8 -7l-7 -7q-9 -9 -15 -14q-7 -9 -18 -7q-9 1 -15 9q-2 2 -2 10q24 22 41 42q2 3 5.5 10t4.5 8q-2 -1 -3 -3t-2 -3q-4 -4 -12 -12.5t-15 -15.5t-13 -12q-7 -7 -12 -7t-12 5q0 1 -2 3t-3 4q0 1 -1 2l-1 1q-2 5 0 23v18q1 10 12 21l1 1
q1 2 2 2t5 -4q3 -5 11 -15q-4 -3 -7 -6q-1 1 -7 4q0 -2 2 -4.5t2 -3.5t-2 -3q-1 -1 -2 -3l-1 -2q3 2 9.5 8.5l8.5 8.5l9 9q-4 0 -8 -2q-3 3 -7.5 9.5t-7.5 9.5q-18 32 -21 51q-4 26 9 46q11 13 16 16q0 2 -2 7.5t-3 8.5t-1 9l-3 20q20 1 86 -1q5 0 11 -0.5t13 -1.5t11 -1
l20 -3q0 -9 1 -13v-2q2 0 2 -2q6 -9 11 -26q1 -5 3.5 -16.5t4.5 -17.5zM278 110q0 -6 -2 -6q-7 2 -12 5q3 16 4 20q2 7 3 7q5 1 12 -1q-4 -16 -5 -25z" />
    <glyph glyph-name="from" horiz-adv-x="528" 
d="M278 443q-117 -38 -190 -44q32 6 95 22t95 22zM449 432q-73 -1 -192 -27.5t-182 -29.5q30 3 163.5 35t210.5 22zM468 240v-11h-8q-5 -1 -11 3q-6 -4 -12 -4l-7 -1v12l12 1v41v40q1 14 1 41l-16 -68q-7 -28 -16 -68l-14 -2q-3 11 -8.5 32.5t-7.5 32.5l-16 65q0 -28 1 -41
v-41q0 -27 -1 -40l13 1v-11l-8 -1q-7 -1 -11 1q-6 -4 -11 -5l-9 -2v12l13 2v78v78q-8 -2 -12 -2v11q4 1 13 2.5t13 2.5l19 -77q12 -52 19 -78l19 82q3 14 9.5 41t10.5 40l26 1v-12h-13v-78v-78h12zM255 228l1 60v60q0 13 9.5 24.5t23.5 14.5q14 2 23.5 -5t8.5 -20v-61v-60
q0 -13 -9.5 -24t-23.5 -14t-23.5 4.5t-9.5 20.5zM308 238v61v61q0 8 -5.5 12.5t-13.5 2.5q-20 -4 -20 -23v-61v-61q0 -20 19 -15q18 3 20 23zM240 195l-26 -5l1 33v32q0 11 -3.5 17t-7 6h-6.5l-16 -3v-40v-39q6 0 16 2v-11l-12 -3q-5 -1 -11 2q-6 -4 -12 -5l-12 -2v12l17 2
v78v78q-5 -1 -17 -3l1 12q3 0 11 2q9 1 12 -2q8 5 11 6l19 3h9.5t10.5 -7.5t5 -21.5v-22q0 -25 -22 -30q5 0 8 -0.5t8 -8t5 -21.5l-1 -26v-26l12 3v-12zM72 172h-12v11q3 0 8.5 0.5t8.5 0.5v78v77h-16v12h12q8 0 12 -4q3 5 11 5q26 2 39 4v-32v-32l-14 -2v26v26q-5 0 -15 -1
t-15 -1v-37v-37l30 2v-13l-30 -3v-34v-34q5 1 17 1v-11q-5 -1 -13 -1q-7 0 -11 3q-4 -3 -12 -4zM182 319v-33l16 3q18 3 18 23v26q0 12 -4.5 15t-11.5 1l-18 -3v-32zM102 147q51 1 155.5 27t160.5 24q-39 -3 -147.5 -30t-168.5 -21zM244 138q97 32 161 34q-28 -5 -81 -17.5
t-80 -16.5z" />
    <glyph glyph-name="gun" horiz-adv-x="808" 
d="M731 429h9l2 -1q6 -6 6 -18.5t-7 -19.5h-2h-113q-3 -5 -9 -5h-17q0 -15 -14 -16l-20 -2q-9 0 -11 8h-136q-3 -9 -11 -7q-4 0 -7 3q-2 4 -3 4q-1 -1 -1 -5q2 -5 1 -6q-15 -12 -18 -42q-1 -3 -6 -3l-7 1q-7 -9 -14 -10q-30 -5 -33 -8q-6 -4 -6 -20q0 -13 -2 -18
q-4 -10 -16 -15q-19 -10 -39 -6q-9 1 -16 10q-2 2 -4.5 7t-4.5 8t-6 5.5t-9 2.5q-19 0 -32 -25q-9 -22 -6 -46q1 -14 6 -28q9 -3 8.5 -12t-9.5 -10q-7 -11 -23 -17q-17 -6 -32 -6q-41 0 -59 19l-2 1q-1 1 -3 2t-3 3q-4 5 -1.5 11t8.5 8q30 80 41 102q13 22 28 35
q21 17 56 25q7 18 24 24q-3 6 -3 30q-5 0 -11 3q-10 8 -12 15q-7 13 -13 14q-3 1 -2.5 3.5t2.5 4.5q2 3 9 3q6 -2 9 -4l8 -7q5 -4 12 -4q9 0 29 18q3 2 5 0l3 -6l3 3l1.5 1.5t1.5 0.5q84 -2 124 -2q4 1 8 -1q3 -2 5 -5h297v15q0 5 10 5q20 0 27 -20zM699 429h28q-4 7 -10 12
q-5 4 -12 4q-6 0 -6 -3v-13zM362 380h33q1 30 -1 44q-1 6 -2 6.5t-8 1.5h-38h-55h-29q-3 -3 -9 -6q-3 -5 -12.5 -16.5t-11.5 -21.5q0 10 10.5 23.5t10.5 20.5v2q-25 -31 -41 -22q-4 2 -9.5 6.5t-7.5 5.5q3 -2 8 -10.5t12 -10.5q2 0 5 -0.5t4 -1t2 -3t1 -6.5q0 -19 1 -24
q5 -11 15 -11q-10 -4 -11 -6t-1 -6v-41q10 1 30.5 4t30.5 5q-7 8 0 15h-16q-8 0 -8 6v13v22v20q0 19 -3 27q-2 7 -7 2l-1 1q0 6 12 6q80 2 117 2q3 0 5 -4q1 -2 1.5 -12.5t-0.5 -15.5q0 -3 -7 -5q-2 -1 -5 -5h-2q-2 1 -3.5 2.5t-3.5 2.5l-6 3v-13zM352 317q6 1 12 7l-4 5
q-4 0 -12 -0.5t-12 -0.5l1 -2v-5l18 2q-10 -5 -22 -5l2 2v6l-1 2h-43q-4 -3 -3 -8t6 -7l2 -2q-46 -6 -68 -10l-2 2v43q0 7 8 10q-8 4 -10 11q-1 5 -1 13v13q0 4 -1 5.5t-4.5 2t-5.5 0.5q-8 2 -15 16q-3 6 -7 8q-1 0 -1 1h1q3 -1 11.5 -7.5t13 -6.5t17.5 7q-5 -4 -13 -4
q-6 0 -10.5 2t-8.5 6.5t-7 6.5q-6 2 -8 2l-4 -2v-1q6 -3 13 -16q7 -9 14 -13q2 -1 4.5 -1.5t4.5 -1t2 -1.5q1 -1 1 -3q0 -26 3 -31v-4q-3 -16 -1 -73q6 2 13 0q12 11 44 19q12 2 36.5 6t36.5 7zM266 407l1 -14q2 16 3 25l1 1h1h115q0 6 -4 6q-20 0 -58.5 -0.5t-58.5 -0.5
q-8 0 -9 -4q4 2 6.5 -1.5t2.5 -11.5zM404 425h-6h-1q1 -15 1 -45h40.5h48h41.5l3 13h-4l-4 -13q1 2 2 6.5t1 6.5h-4l-4 -13q0 7 3 13h-4l-5 -12l3 12h-4l-4 -12l3 12l-4 -1l-4 -11q2 8 3 11h-4l-4 -10q1 1 2 4.5t1 5.5h-4l-4 -10q0 1 1 4.5t1 5.5h-4l-3 -10q0 4 2 10h-4
l-3 -9q0 3 2 9h-4l-3 -9q0 3 2 9h-4q-2 -6 -4 -9l3 9h-5l-3 -8q2 4 2 8h-4q-2 -6 -3 -8l2 8h-4l-3 -8q0 1 0.5 4t1.5 4h-4q-1 -2 -3 -8l2 8h-4l-3 -7q0 3 2 7l-5 1q0 -1 -0.5 -4t-1.5 -4l1 8h-4l-3 -8q2 6 2 8l-30 1v-1h-3v32zM407 425v-30h3v30h-3zM414 425v-30
q44 0 154.5 0.5t154.5 -0.5q7 15 1 30h-310zM726 395h3q7 15 1 30h-4q6 -15 0 -30zM739 425h-6q6 -15 0 -30h5q4 5 4 15t-3 15zM295 398l64 -2q-1 12 -3 21h-61v-19zM284 417h-12q-5 -35 0 -80h12v80zM290 417h-3v-80l3 1v79zM421 404q44 -1 146 0.5t148 0.5
q-181 -7 -294 -1zM279 321h-1q-36 -9 -40 -7l-1 1v20q0 17 14 24q-12 5 -15 17q-2 14 13 27q-12 -14 -9 -27q1 -9 12 -14l3 -1q4 -2 0 -4q-14 -7 -14 -22v-17q35 3 38 3zM359 396l-64 -1v-8l64 -2v11zM611 389q10 0 11 5l-51 -1q3 -3 3 -6q13 0 37 2zM568 393h-2l2 -5
q3 -7 -1 -15h4q1 2 1 7v6q-2 4 -4 7zM549 380h5q-2 6 2 13h-3zM544 380h5l3 13h-4zM538 380h5l4 13h-4zM533 380h5l3 13h-3zM528 380h5l3 13h-4zM295 378l64 -1v8l-64 -1v-6zM592 375q3 6 2 10l-20 -1q2 -5 -1 -13l13 2q2 0 6 2zM395 368q-3 3 0 9l-33 1v-5q3 3 6 3
q9 0 9 -9q0 -8 -8 -8q-5 0 -8 4v-10q7 1 23 1q4 7 11 14zM412 377h-10l1 -2q6 -2 9 2zM295 371l64 -1v7l-64 -1v-5zM364 371l11 -5q0 4 -2 6t-4 2q-3 0 -5 -3zM295 364l63 -1l1 7l-64 -1v-5zM374 364l-11 5q-2 -4 3 -7q4 -2 8 2zM295 358l63 -2v6l-63 -1v-3zM356 334h-85
l-1 1l-2 25v-26q0 -4 5 -4q58 0 86 -1zM218 282q1 25 1 77q-14 -6 -21 -21h1q5 3 10 3q8 -2 6 -7q0 -6 -6 -4q-4 2 -4 5v1h-2q-10 -4 -7 -23q2 4 4 5q4 4 8 2q5 0 6 -4q1 -2 -1.5 -4t-4.5 -1q-2 2 -3 4v1h-1q-9 -5 -4.5 -16.5t12.5 -17.5h5h1zM295 352l62 -1l1 5l-63 -1v-3z
M380 345l3 7q-15 0 -23 1l-2 -17q4 -7 9 -10q3 -2 8 -2q2 14 4 20h-15q4 1 16 1zM295 348l62 -2v4l-62 -1v-1zM295 342l61 -1l1 3h-62v-2zM356 340h-61v-2h61v2zM179 253q10 24 28 28l-2 3q-46 -17 -37 -95v-3q0 -1 -1 -2l-2 -1q0 -1 -2 -1q-11 -2 -32 -2l5 2q19 9 20 26
t-11 21l-2 1q2 0 4 2q6 4 7 8q2 9 -4 9q-4 1 -6 -5q0 -4 3 -5l1 -1q0 -1 -1 -1q-8 -9 -20 1q-7 8 -9 18q1 -3 4 -4q3 -3 10 -3q8 0 7 7q-2 4 -6 3q-4 0 -4 -4l-1 -1h-2q-10 4 -6 17l2 6q6 11 12 18v-5q0 -4 3 -8q6 -8 13 -5q4 2 5 4v5l-2 2q-4 0 -4 -3q-2 -2 0 -4h-4
q-4 2 -5 4q-2 3 -2 10q2 10 15 18q18 13 40 17l1 4q-35 -8 -54 -23q-13 -12 -26 -35q-18 -34 -41 -100q55 -11 107 1q-4 13 -6 27q-2 27 5 49zM331 325q2 -4 -4.5 -7t-16.5 -4q-8 -1 -13 1.5t-3 8.5v1l37 1v-1zM331 325l-36 -1q-1 -5 3 -6.5t12 -0.5q5 0 10 1.5t8 3.5t3 3z
M321 310l1 1q-7 -2 -19.5 -5t-18.5 -4q10 0 16 -5t6 -13q2 -11 0 -18t-5 -12q9 7 9 17v13q-2 22 11 26zM279 248q21 4 24 18q2 9 0 19q-3 11 -14 13q-13 2 -25 -4q-2 -15 0 -22q3 -9 9 -17q0 -2 -2 -3q-18 15 -18 38q-8 -5 -9 -13q-1 -10 3 -19q8 -14 32 -10zM261 272l1 2
q-1 9 0 19l-4 -1q0 -11 3 -20zM244 256l2 -3q0 1 -1 1l-1 2q-5 12 -4 21q2 7 6 12q-7 -5 -9 -9h-3q-4 4 -11 2q5 -2 9 -6.5t7 -11t5 -8.5zM139 199q3 -10 -10 -16q-10 -3 -22 -3l-12 2q-2 0 -3 1l-2 2q0 1 -1 2l1 3q23 68 24 71q-1 -13 6 -21t15 -10q-9 -4 -6 -9t8 -2
q4 2 2 5l1 2h1q5 0 8.5 -6t2.5 -12q-2 -11 -9 -17q0 1 0.5 2.5t0.5 2.5q0 6 -4 10q-6 8 -10 2q-2 -4 1 -7t6 -1h1zM187 168q-1 6 -8 6q-49 -10 -104 -2q-8 0 -8 -5q-1 -8 9 -10q49 -10 105 2q7 2 6 9zM70 164q59 -8 112 2q-54 -15 -112 -2z" />
    <glyph glyph-name="in" horiz-adv-x="333" 
d="M173 433q-62 -25 -111 -28q9 2 49 13t62 15zM274 430q-25 -4 -98.5 -23t-114.5 -23q9 3 49.5 15.5t58 17t49 9.5t56.5 4zM160 373v12l27 6l21 -69l21 -69l-1 23q0 4 -0.5 11.5t-0.5 11.5v43v44l-13 -2v12l8 1q8 1 13 -2q4 4 11 4h9v-11l-13 -1v-84l-1 -85q-2 -1 -7 -1.5
t-7 -0.5l-21 68l-21 69l1 -25q1 -8 1 -25v-42v-42l13 3v-12l-9 -2q-5 -2 -11 0q-5 -5 -13 -7l-8 -2v12l13 4q0 13 0.5 39.5t0.5 40.5v81q-5 -1 -13 -3zM107 189l-14 -1v12q3 0 9 0.5t9 0.5v82q1 27 1 81l-18 -2v12l13 1q7 1 12 -2q5 5 13 6l12 3v-12l-18 -4v-81v-82
q6 2 18 4v-12q-2 -1 -6.5 -2t-6.5 -1q-7 -1 -12 2q-5 -5 -12 -5zM60 156q32 5 103 23t110 23q-6 -2 -49 -15t-59 -17t-48 -9.5t-57 -4.5zM161 152q57 25 111 28q-12 -3 -51 -13t-60 -15z" />
    <glyph glyph-name="left_index" horiz-adv-x="629" 
d="M273 405v-1q-13 -7 -33.5 -25.5t-25.5 -25.5q-10 -13 -22 3q-6 10 -6 17q0 5 3 10q3 10 13 18q5 3 6 5q1 1 2.5 4t2.5 4q2 3 14 13q12 8 22 16q2 1 6 5q4 3 7 7q-3 -1 -10 -5t-13 -5q-31 -3 -53 4q-28 -15 -60 -4q-14 -6 -27 -6q-28 0 -34 18q2 0 11 2.5t12 2.5
q10 2 6 14q-1 3 -1 5q10 3 39 7q10 1 23 5q3 1 10.5 2.5t11.5 2.5q16 4 24 4q16 0 23 2q4 1 19.5 5t24.5 5q2 0 7 0.5t8 0.5q17 -2 25 -5q3 -1 8 -3.5t6 -2.5q4 -1 14.5 -4.5l16.5 -5.5l48 -24q6 -2 17.5 -4.5t16.5 -3.5q17 -5 26 -11q2 0 2 -2h2q4 -1 13 -1l3 -20
q0 -1 1.5 -14.5t1.5 -20.5q2 -66 1 -86l-20 3q-6 0 -9 1t-8.5 3t-7.5 2q-3 -5 -16 -16q-20 -13 -46 -9q-19 3 -51 21q-3 3 -9.5 7.5t-9.5 7.5q2 4 2 8l-9 -9l-8.5 -8.5t-8.5 -9.5l2 1q2 1 3 2q2 2 3 2t3.5 -2t4.5 -2q-3 6 -4 7q3 3 6 7q10 -8 15 -11q4 -4 4 -5l-3 -3
q-11 -11 -21 -12h-18q-18 -2 -23 0l-1 1l-2 1q-2 1 -4 3t-3 2q-5 7 -5 12t7 12l40 40q1 1 3 2t3 3q-1 -1 -8 -4.5t-10 -5.5q-20 -17 -42 -41q-8 0 -10 2q-8 6 -9 15q-2 11 7 18q5 6 14 15l7 7t7 8l13 12l14 12h-1q-2 -1 -3 -1zM66 476q9 1 25 5q2 -7 1 -12q0 -1 -7 -3
q-4 -1 -20 -4q-3 5 -5 12q0 2 6 2zM517 267h-5q-3 0 -11 2q-2 1 -5 0t-4 -1q-9 -3 -16 6q-9 9 -7 32q3 0 3 -1q2 -22 7 -24l1 -1h3q6 4 6 15q0 2 3 28v31q-2 52 -6 76l-1 7q-2 13 -3 15l-2 3q-4 1 -7 -4l-6 1q4 9 10 13q2 1 8.5 0t9.5 0q6 2 11 2q6 1 16 1h16l16 3
q10 2 14 4q1 -1 1 -4q-1 -1 -9 -4q-2 -1 -5.5 -2t-5.5 -2q6 -22 8 -30q2 -11 4 -33q1 -8 1 -18t-0.5 -22t-0.5 -18q2 -54 -2 -74q-1 -3 -2 -4l12 -3v-3q-3 0 -9 2q-19 5 -43 7zM545 390v-1h1q2 39 -11 62q-1 0 -1 -1q5 -20 11 -60zM525 354h1q8 50 -12 96h-1v-1
q9 -46 12 -95zM495 448h-1q10 -68 8 -148q0 -1 1 -1v1q19 74 -8 148z" />
    <glyph glyph-name="of" horiz-adv-x="333" 
d="M173 429q-57 -25 -111 -28q12 3 51 13t60 15zM274 425q-32 -5 -103 -23t-110 -23q6 2 49 15t59 17t48 9.5t57 4.5zM246 327h-14v26v27q-22 -2 -31 -4v-38v-38q9 2 31 4v-14q-5 0 -15.5 -2t-15.5 -2v-36v-34l17 2v-12l-24 -4q-19 -4 -25 -5v12q12 2 17 4l1 80v80l-18 -4
v13q13 2 39 8q20 3 38 3v-33v-33zM85 214v62v62q2 12 3 13q4 8 8 11q6 6 10 7q4 3 13 5h14q4 -1 10 -5q7 -7 8 -9q2 -8 2 -12v-62v-62q0 -8 -3 -14q-5 -10 -7 -12q-4 -6 -11 -9q-4 -3 -13 -5q-5 -1 -13 1q-7 2 -11 6q-6 6 -7 10q-3 6 -3 13zM139 219v63v64q0 5 -2 9
q-3 4 -8 6q-3 1 -10 1q-8 -3 -10 -4q-3 -2 -7 -8q-2 -3 -2 -10l-1 -63v-64q0 -6 3 -10q2 -4 7 -6q6 -2 10 -1q6 2 10 4q3 2 7 8q3 6 3 11zM60 152q32 5 103 23t110 22q-13 -4 -50 -15t-57 -16.5t-50.5 -10t-55.5 -3.5zM161 148q57 25 111 28q-9 -2 -49 -13t-62 -15z" />
    <glyph glyph-name="on" horiz-adv-x="333" 
d="M173 430q-60 -27 -111 -28q12 3 51 13t60 15zM274 426q-32 -5 -103 -23t-110 -23q6 2 49 15t59 17t48 9.5t57 4.5zM164 370v12q18 4 26 6l20 -70q3 -11 10 -34t10 -35l-2 46v44v43q-4 0 -12 -2v12q2 1 7 1q7 1 12 -2q6 4 11 4l8 1v-12l-12 -1v-84l-1 -84q-8 -2 -13 -3
l-20 69q-6 23 -20 69l1 -25q1 -8 1 -25v-42v-42l13 3v-12l-9 -2q-6 -2 -11 1q-5 -5 -12 -7l-7 -2v12l12 3q0 54 1 81v80q-8 -2 -13 -3zM80 216v62v62q1 14 10 23.5t23 11.5q15 2 24 -5.5t9 -21.5v-62v-62q0 -14 -10 -26t-23 -13q-14 -2 -23.5 7.5t-9.5 23.5zM132 220v63
q1 21 1 63q0 19 -20 17q-19 -4 -19 -22v-63v-63q0 -20 19 -18t19 23zM60 152q30 5 102 23.5t111 22.5q-14 -4 -50.5 -15t-56.5 -16.5t-50.5 -10.5t-55.5 -4zM161 149q62 25 111 28q-9 -2 -49 -13t-62 -15z" />
    <glyph glyph-name="panel_1" horiz-adv-x="734" 
d="M624 381v7q-64 38 -257 38t-257 -39l1 -5q61 36 256.5 36t256.5 -37zM619 241l5 137q-58 35 -256.5 35t-257.5 -35l5 -136q63 38 252.5 37.5t251.5 -38.5zM106 350v-8q-30 -8 -46 -18v6q20 13 46 20zM628 350v-8q30 -8 46 -18v6q-20 13 -46 20zM109 279v-2l-6 -3h6
q0 -3 0.5 -12.5t0.5 -14.5q0 -19 1 -23q3 -13 19 -11q5 1 15.5 4t19 4.5t15.5 0.5q4 0 6 -1l1 -2v-2v-1q0 -1 -1 -2t-6.5 -2t-6.5 -1l-31 -5q-57 -11 -77 -25l-5 139q17 9 46 17l1 -7q-13 -3 -27 -10q9 3 27 7v-6q-14 -4 -22 -8q13 4 22 5v-6q-3 -1 -17 -6l17 3l1 -6
q-10 -2 -14 -5l14 3v-6q-2 -1 -5.5 -2t-5.5 -2l11 1v-6q-1 0 -3.5 -1t-3.5 -2h7zM626 279v-2q1 -1 5 -3h-5q-1 -7 -1 -27q0 -19 -1 -23q-4 -13 -19 -11q-6 1 -16.5 4t-19 4.5t-15.5 0.5q-3 0 -5 -1l-1 -2q-1 0 -1 -2v-1q1 -1 1 -2q2 -1 7 -2t7 -1l31 -5q57 -11 77 -25l4 139
q-16 9 -46 17v-7q12 -3 26 -10q-11 4 -26 7v-6q12 -3 21 -8q-14 4 -22 5v-6q10 -2 17 -6l-17 3v-6q9 -2 13 -5l-13 3l-1 -6q6 -2 10 -4l-10 1v-6q1 0 3.5 -1t3.5 -2h-7v-4zM189 237l2 -1q-2 13 -8 25l-4 -1q7 -10 10 -23zM546 237l-2 -1q0 9 8 25l3 -1q-7 -13 -9 -23z
M189 223l-1 8q-2 -1 -6 -1t-6 -1q4 2 12 4l-2 6q-10 -2 -16 -3q10 4 15 5l-2 5q-3 0 -9 -2t-9 -2q7 4 17 6l-2 5q-4 -1 -11 -2.5t-10 -2.5q11 6 19 7l-2 5q-33 -9 -52 -20q-7 -3 -9 -8q-4 -11 7 -15q7 -3 34.5 4.5t32.5 1.5zM545 223q0 1 0.5 3.5t0.5 4.5l12 -1q-3 2 -11 4
l2 5q10 -2 15 -2q-7 4 -14 5l2 4l18 -3q-7 4 -17 6l2 4q3 -1 10 -2.5t11 -1.5q-6 3 -20 7l3 4q31 -8 52 -20q5 -2 9 -8q4 -10 -7 -15q-7 -3 -34.5 4.5t-33.5 1.5zM163 206l-11 -2q18 -6 25 -26l3 -1q-3 18 -17 29zM571 206l11 -2q-16 -5 -25 -26l-3 -1q5 19 17 29zM87 159
q8 2 25.5 6t25 5t19 0t22.5 -6q-6 35 -38 38q-49 -10 -72 -23q-6 -3 -6 -11t8 -9q6 -2 16 0zM647 159q-7 1 -25 5.5t-25 5.5t-19 0t-23 -6q3 15 13.5 26t24.5 12q49 -9 73 -23q6 -3 5.5 -11t-8.5 -9q-5 -2 -16 0z" />
    <glyph glyph-name="panel_2" horiz-adv-x="696" 
d="M621 348l-1 5q-99 73 -272 73t-272 -73l-1 -5q93 71 273.5 71t272.5 -71zM625 340q-57 47 -166.5 64t-219.5 0t-167 -64q-1 -1 -3 -7q-13 -64 -8 -154q46 46 167 64t241.5 0.5t166.5 -63.5q4 91 -9 154q0 5 -2 6zM222 200h2v2q-4 15 -18 29l-8 -1q13 -11 24 -30zM475 200
h-2q-1 1 -1 2q3 13 19 29l8 -1q-16 -14 -24 -30zM219 187l2 1v1q-4 23 -27 40l-8 -1q5 -5 13 -15q-3 3 -8 7t-8 7l-8 -2q3 -2 7 -7t5 -6l-15 13q-1 -1 -3.5 -1t-3.5 -1q8 -6 12 -13q-2 2 -4.5 4t-5.5 4.5t-5 3.5l-7 -1q8 -8 11 -13q-4 4 -14 12l-7 -2q1 -2 4.5 -6t5.5 -6
l-14 11q-4 -2 -6 -2q4 -4 10 -12l-13 10q-3 0 -7 -2q4 -3 10 -11l-13 10q-4 -2 -6 -2q2 -2 5 -5.5t4 -4.5l-11 9l-6 -3q6 -6 8 -9l-11 8l-6 -3q3 -2 7 -8l-9 7l-6 -3q4 -4 5 -7l-7 5q-1 0 -2.5 -0.5t-2.5 -1.5l4 -6q-1 0 -2.5 1t-2.5 2t-2 1q-12 -8 -16 -12q-8 -11 1 -21
q8 -9 28 -1q11 5 27.5 13.5t29.5 14t26 7.5q20 3 42 -4zM478 187l-2 1l-1 1q4 21 27 40l7 -1q-7 -7 -11 -14q5 5 15 13l8 -1q-5 -5 -11 -13l14 12q1 -1 3.5 -1.5t3.5 -0.5q-5 -3 -11 -12q13 10 14 11l7 -1q-4 -4 -10 -12q10 8 13 11l8 -2q-7 -7 -10 -11l13 10q4 -2 6 -2
q-1 -2 -4 -5.5t-5 -5.5l12 10q3 -1 7 -3q-1 -1 -4 -4.5t-5 -5.5l12 9q1 0 3 -1t3 -1q-6 -6 -8 -10l11 9q1 -1 2.5 -2t2.5 -1q-2 -1 -7 -9l10 8l6 -3q-2 -2 -6 -8l9 7q4 -2 5 -3q0 -1 -1.5 -3t-2.5 -4l7 5q1 0 2.5 -1t2.5 -1l-4 -6q1 0 3 2t3 2q7 -4 17 -12q7 -12 -1 -21
q-9 -9 -28 -1q-11 4 -27.5 13t-30 14.5t-26.5 7.5q-19 3 -41 -4z" />
    <glyph glyph-name="panel_3" horiz-adv-x="816" 
d="M152 424l1 4l1 2q2 0 2 -1q41 -57 108.5 -86.5t143.5 -29.5t143.5 29.5t108.5 86.5l2 1q2 0 2 -2l1 -4q-43 -55 -111.5 -84t-145.5 -29t-145 29t-111 84zM408 151q-141 0 -247 71q6 1 16 7q-16 -5 -19 -5l-7 5q10 4 15 7l-18 -5q-1 1 -3 2.5t-3 2.5q13 5 16 7
q-3 -1 -9.5 -2.5t-9.5 -2.5l-7 6q8 1 16 6q-8 -2 -18 -4l-7 6q9 2 15 6l-17 -4q-4 4 -6 5q2 1 5 2t5.5 2t4.5 2l-17 -3q-4 4 -5 6q3 1 14 5l-17 -3q-1 1 -2 2.5t-2 2.5q7 2 13 6l-15 -3q-2 1 -4 5q4 1 12 5l-14 -3q-1 1 -2.5 3t-2.5 3l10 5l-11 -2q-2 2 -4 6q3 1 7 3l-9 -1
l-3 6l6 3q-2 -1 -7 -1q-12 22 -17 40q0 3 1 4t4 1q29 -8 66 -8l-1 6q-36 0 -68 13l-1 3q0 1 1 2h2q30 -12 66 -15q-1 31 7 63q0 2 3 2q2 1 4 -1q40 -53 110.5 -84.5t153.5 -31.5t153.5 31.5t111.5 84.5q2 2 4 1q1 0 3 -2q7 -34 6 -63q37 3 67 15h2v-2v-3q-33 -13 -69 -13v-6
q37 0 66 8q2 0 3 -1q3 -2 1 -4q-4 -17 -16 -40l-7 1q3 -3 5 -3l-3 -6q-3 1 -9 1q1 -1 4 -2t4 -1l-4 -6q-2 0 -6 1t-6 1l5 -2.5l5 -2.5l-4 -6q-10 2 -14 3q8 -4 12 -5l-4 -5l-15 3q6 -5 13 -6l-5 -5q-2 0 -8 1t-8 2q7 -4 14 -5l-5 -6l-18 3l15 -6l-5 -5q-12 2 -18 4
q8 -4 15 -6l-6 -6q-12 2 -18 4q7 -4 15 -6l-6 -6q-4 1 -9.5 2.5t-9.5 2.5q6 -4 16 -7l-6 -5q-3 1 -9.5 2.5t-9.5 2.5q3 -2 16 -7l-8 -5q-4 1 -19 5q9 -6 16 -7q-106 -71 -247 -71z" />
    <glyph glyph-name="panel_4" horiz-adv-x="871" 
d="M210 389l3 3q-60 -9 -113 16h-2v-2l1 -3q51 -23 111 -14zM662 389l-3 3q59 -9 113 16h1q1 -1 1 -2l-1 -3q-52 -24 -111 -14zM186 268l-21 87q48 -6 53 -6l-1 35q-21 -17 -41 -24h1q20 15 27 22q-60 -8 -109 14q-1 2 -3 0q-1 -1 -1 -3q10 -36 19 -54q-21 -12 -49 -17
l-1 -1v-1l2 -2q24 3 49 19l3 -4q-23 -15 -46 -22q-2 0 -2 -2t1 -3q5 -7 21 -17l7 5q0 -1 -1.5 -3.5t-2.5 -3.5l5 -3q2 3 8 7q-1 -1 -2.5 -4t-2.5 -4l6 -3l9 9q-2 -4 -6 -10l6 -3q8 6 11 10q-2 -4 -8 -12l6 -2l3.5 3.5t4.5 4t3 3.5q-4 -8 -8 -12l7 -2l12 12q-3 -7 -9 -13
l7 -2q5 4 13 12q-3 -5 -9 -13l7 -2l12 12q-4 -8 -9 -13l8 -1q9 8 13 12q-3 -5 -9 -13l7 -2q1 1 3.5 3t4 3.5t2.5 3.5zM686 268l21 87h-1q-48 -6 -52 -6l1 35q18 -16 40 -24q-20 15 -27 22q60 -8 109 14q1 2 3 0q1 -1 1 -3q-10 -36 -19 -54q21 -12 48 -17l2 -1q0 -1 -1 -1
l-1 -2q-23 3 -50 19l-2 -4q23 -15 46 -22q2 0 2 -2t-1 -3q-7 -8 -21 -17l-7 5q3 -6 4 -7l-5 -3q-5 5 -8 7q2 -5 5 -8l-6 -3q-6 6 -10 9q1 -2 4 -5.5t3 -4.5l-7 -3l-10 10q4 -8 7 -12l-6 -2l-11 11q2 -4 8 -12l-6 -2l-12 12q3 -7 9 -13l-8 -2l-12 12q1 -2 9 -13l-7 -2
q-8 8 -13 12q1 -2 4 -6.5t5 -6.5l-8 -1q-1 1 -3 2.5t-3 3t-3 3t-3 3.5q3 -7 9 -13l-8 -2l-5 5t-4 5zM669 204l31 148h-1q-120 -24 -263.5 -24t-263.5 23l31 -147q2 -6 8 -8q225 -47 450 0q7 2 8 8zM683 257l3 10l6 -9q-2 0 -5 -0.5t-4 -0.5zM189 257l-3 10l-6 -9q2 0 5 -0.5
t4 -0.5z" />
    <glyph glyph-name="panel_5" horiz-adv-x="678" 
d="M60 351l2 -138q0 -3 2 -4q41 -17 92.5 -18t88 6t98 22.5t89.5 20.5q90 19 153 2q18 -4 28 -10h3q2 1 2 4l-1 138q0 3 -3 3q-36 16 -78 19q-43 4 -90 -3.5t-111 -24.5t-88 -22q-96 -18 -154 -1q-17 4 -27 10q-3 0 -4 -1q-2 0 -2 -3zM99 394q2 -1 6 -2q112 -38 141 -5
q2 3 4 1q3 0 3 -3q-2 -26 -6 -33q-36 -8 -58 -9l-4 6q0 -4 2 -6l-6 -1q-1 1 -2.5 3.5t-2.5 3.5l2 -7h-6l-7 10q2 -6 4 -10h-4h-4l-7 12q0 -2 1.5 -6t2.5 -6h-6q-1 3 -3.5 7.5t-3.5 5.5q2 -8 4 -12h-6q-1 3 -4 7t-5 7q1 -1 2.5 -6t3.5 -8l-8 1l-9 15q4 -10 6 -14l-7 1
q-1 2 -3 4.5t-3.5 5t-2.5 5.5q1 -5 5 -15l-7 2q-5 7 -10 16l6 -15l-8 2q-6 10 -9 17q2 -9 6 -16l-9 2q-5 8 -8 16q1 -4 5 -14l-7 2q-23 11 -12 32q8 11 34 4zM72 200l-1 3q29 -12 61 -16t73.5 1.5t65 9.5t74 17t61.5 15q47 11 82 13l5 -7q0 2 -2 8h6l6 -9l-3 9l6 1
q1 -2 3.5 -6t3.5 -6q-2 8 -4 12h7q7 -12 8 -13q0 1 -5 13l6 -1q1 -2 4 -6.5t5 -6.5q-2 7 -6 13h7l9 -15q-2 9 -6 15l7 -1q2 -2 5.5 -8t4.5 -8q-1 5 -6 15l7 -1q1 -1 4.5 -7t5.5 -9q-5 13 -7 16l8 -2q8 -12 10 -16q-1 7 -6 15l8 -2q2 -3 10 -17q-1 3 -3 8t-3 8l8 -3
q3 -5 8 -15q-3 11 -4 14l6 -3q10 -4 13.5 -12.5t-1.5 -18.5q-7 -11 -34 -4q-86 29 -120 21q-17 -4 -27 -15q-1 -1 -4 -1q-2 1 -2 4q0 9 2 23q-16 -3 -81.5 -18t-98 -20t-84.5 -4t-92 17zM478 211l-3 1q27 1 105 -24q26 -9 34 3l3 6q1 -8 -6 -13.5t-16 -4.5t-20 5
q-5 2 -23.5 8.5t-26.5 9.5t-21.5 6t-25.5 3z" />
    <glyph glyph-name="panel_6" horiz-adv-x="682" 
d="M229 265l48 27q-56 0 -156 -4l1 -19l-61 88l58 90v-26h116h145h108v-121q-307 -3 -367 -6v-3q187 8 365 2l-54 -27q-81 -1 -203 -1zM60 349l1 2l58 -84h-7zM616 263l-29 -61l30 -55q-44 1 -195.5 0.5t-195.5 -1.5l-2 114q275 5 392 3zM591 199l-1 3l28 57l5 -1zM227 138
l-1 4h105.5h177.5h106l-2 -4h-105.5h-176.5h-104z" />
    <glyph glyph-name="panel_7" horiz-adv-x="785" 
d="M135 325l5 40q0 4 5 6q59 18 227.5 -3.5t216.5 -17.5l-3 14h-1q-7 36 6 38q9 2 19 0l17 1q-16 8 -22.5 28.5t1.5 36.5q1 2 3 2l1 -2q1 -18 26 -26q13 -4 41.5 0t37.5 -1q10 -5 10 -15t-3 -19q-11 -91 -17 -145q-1 -4 -6 -6q-22 -7 -49 -8l-4 -40q-2 -6 -6 -6
q-59 -18 -227.5 3.5t-216.5 17.5q7 -19 7 -35t-9 -17q-2 -1 -19 -1h-17q16 -8 22.5 -28.5t-1.5 -36.5l-2 -2l-2 1q-1 19 -26 27q-13 4 -41 0t-38 1t-10 15t3 19q11 91 17 145q2 5 6 6q22 7 49 8zM718 417q5 5 4 11q-2 12 -20 12q-5 0 -33.5 -3t-33.5 2q-24 7 -27 28
q-8 -21 1.5 -40.5t30.5 -23.5q50 2 78 14zM654 279l-1 -7q10 0 28 2q-12 -4 -28 -4l-1 -9q33 3 49 10l17 141q-32 -15 -114 -13q-11 0 -14 -1l-1 -1q-1 -1 -1 -2v-2l2 -2q2 -2 5 -2q11 -2 16.5 -1.5t18 2t17.5 1.5q17 -2 18 -15q0 -1 -3 -23l-3 -26q1 0 3.5 -0.5t3.5 -0.5
q-4 -2 -7 -2l-1 -4v-3q6 0 8 -1q-2 -1 -8 -1l-1 -7h11q-3 -2 -11 -2l-1 -7h15q-10 -2 -15 -2l-1 -6h18q-9 -3 -18 -3l-1 -7q8 1 23 1q-11 -3 -23 -3zM591 356q2 0 4 1l12 2q-8 -4 -12 -5l-3 -1v-1l1 -2q30 3 56 12q8 2 11 7q4 11 -5 16q-6 4 -36.5 1t-33.5 4v-8l1 -1h1
q2 -1 6 -1h18l-18 -2q-3 -2 -7 0l1 -6h1h5q12 2 17 2l-17 -5h-5l1 -5h4q10 2 14 2q-1 0 -6 -1.5t-8 -2.5l-3 -1v-2q1 -2 1 -3zM145 361v-5q60 23 302 -15q-1 0 -51 6t-73.5 8t-66 5t-70 1t-42.5 -8l-17 -139q39 16 109.5 14t137 -13t140.5 -16t120 6q6 2 6 7l1 5
q-54 -20 -291 12q10 -1 65 -7t89 -8.5t76.5 -2t60.5 8.5l17 139q-39 -16 -109 -14t-137 13t-140.5 16t-120.5 -6q-4 -1 -6 -7zM135 321l-45 -7q-5 0 -5 -6l-1 -4q18 7 50 10zM132 295v6q-9 0 -27 -2q13 5 28 5l1 8q-34 -3 -50 -10l-17 -142q32 16 114 14q11 0 14 1l1 1
q1 1 1 2v2l-1 1l-6 3q-3 3 -25.5 0.5t-26.5 -2.5q-17 2 -18 15q0 1 3 23l3 27q-4 0 -6 1q2 1 6 1l1 4v3l-7 1q4 2 8 2v6l-10 1q6 2 11 2v6h-14q7 3 15 3v6h-17q10 2 18 2v7l-22 -1q7 2 23 4zM651 259l-1 -8q30 4 45 7q5 2 5 7l1 3q-25 -8 -50 -9zM194 216h-3l-13 -3
q8 4 12 5l3 1q0 1 -1 3q-35 -3 -56 -11q-7 -3 -10 -7q-6 -10 4 -17q6 -4 37 -0.5t33 -3.5v8l-1 1h-1h-6h-18l18 3q5 0 7 -1v6l-2 1q-3 0 -5 -1q-3 0 -8.5 -0.5t-7.5 -0.5l16 4h6l-1 5h-1h-4q-10 -2 -14 -2q2 1 7 2.5t7 2.5h4q0 1 -1 2.5t-1 2.5zM67 156q-11 -9 0 -18
q7 -7 29 -4q46 3 54 0q24 -7 27 -28q8 21 -1.5 40t-30.5 24q-57 -4 -78 -14z" />
    <glyph glyph-name="panel_8" horiz-adv-x="700" 
d="M217 336q133 -28 267 0q-5 3 -14 17t-8 22q0 4 5 3q18 -6 38 -2q16 2 41.5 16.5t37.5 19.5q21 8 31 -3q3 -5 6 -12q2 -8 3 -24t1 -17q3 -24 8.5 -60t7.5 -51q0 -7 -8 -11q-114 -65 -282.5 -65t-283.5 65q-7 4 -7 11q11 79 15 111q1 3 2 18t3 22q1 7 6 12q9 12 31 4
q13 -5 38 -19.5t41 -17.5q22 -2 38 3q5 1 5 -3q1 -8 -8 -22t-14 -17zM218 353q-6 -10 -12 -15l6 -1q8 5 16.5 17t8.5 21q-24 -6 -42 -3q-13 2 -25.5 7.5t-28.5 14t-26 13.5q-19 8 -27 -1t-1 -19q5 -8 18 -16l6 4q-2 -4 -4 -5l2 -1l1 -1q2 0 2 -1l7 5q-1 -1 -2.5 -3t-1.5 -3
l5 -3q2 2 4.5 4t3.5 3q0 -1 -5 -8l6 -2q3 2 9 8q-3 -6 -6 -9l5 -2q6 4 10 8q-1 -1 -3.5 -4t-3.5 -5l5 -2q8 6 11 9q-2 -4 -8 -10l7 -2q3 3 11 9q-4 -6 -8 -10l6 -2q8 6 12 10q-6 -8 -9 -11l7 -2q2 2 6 5.5t6 5.5l-9 -12l6 -1q10 8 14 12q-5 -8 -11 -13l7 -1q1 1 4 3.5t5 5
t4 4.5q-6 -10 -10 -14l7 -1q2 2 7 6.5t8 7.5zM483 354q10 -10 16 -15l7 1q-7 6 -11 14l14 -13q1 0 3 0.5t3 0.5q-7 6 -11 14q9 -9 14 -13l7 2q-4 3 -10 11q10 -8 13 -11l7 2q-7 7 -9 11l12 -10q1 0 3 1t3 1q-3 3 -9 11l12 -10q1 1 3 1t3 1q-4 4 -8 10l11 -9q1 0 3 1t3 1
q-3 3 -7 9l10 -8q1 1 2 1t1.5 0.5t1.5 0.5q-3 3 -7 9l10 -8l6 3q-1 1 -3 3.5t-3 3.5l8 -6q2 0 6 2q-1 1 -5 7l7 -6l1 1q2 0 2 1l2 1q0 1 -1 2.5t-2 2.5l5 -4q15 9 18 16q7 10 -1 19t-27 1q-10 -5 -26 -13.5t-29 -14t-25 -7.5q-18 -3 -42 3q0 -9 8.5 -21t16.5 -17l6 1
q-8 10 -12 16zM635 247v1q-14 -9 -27 -12q9 4 27 14l-1 6q-13 -8 -23 -10q4 2 11.5 6t11.5 6l-1 6q-6 -4 -18 -8l18 10l-1 5q-10 -5 -15 -6l15 9l-1 4q-2 -2 -12 -4l12 7v4q-6 -2 -8 -3q4 4 7 5v4q-4 -2 -6 -2l5 5l-11 87q-24 -30 -132 -50q-136 -23 -271 0q-108 20 -132 50
l-11 -88q4 -2 5 -4q-2 0 -6 2v-4q4 -2 7 -5q-4 0 -8 3v-4l12 -8q-7 2 -12 5l-1 -4l15 -9q-10 2 -15 6l-1 -5l18 -10q-14 5 -18 7l-1 -5q4 -2 11.5 -6t11.5 -6q-10 2 -23 10l-1 -6q18 -10 27 -14q-9 2 -27 11q-2 -4 2 -6q103 -66 282.5 -66t282.5 65q2 2 2 7z" />
    <glyph glyph-name="panel_9" horiz-adv-x="780" 
d="M666 349l2 40q0 6 -4 7q-77 36 -273 36q-86 0 -164 -10.5t-110 -25.5q-5 -2 -5 -7l2 -40q-32 -8 -50 -16q-4 -2 -4 -7q4 -98 5 -147v-6.5v-7t0.5 -6t1.5 -5.5t4 -4.5t7 -3.5q8 -2 16 0q14 2 30.5 7t22.5 5q36 2 43 -23l2 -1l2 2q5 17 -4.5 36.5t-27.5 25.5l18 3
q1 0 8.5 1t10.5 2q18 7 -7 52q67 16 196.5 16t199.5 -16q-25 -45 -7 -52q3 -1 11 -2t9 -1l17 -3q-18 -6 -27.5 -25.5t-4.5 -36.5l2 -2l2 1q7 25 44 23q6 0 22.5 -5t29.5 -7q8 -2 16 0q4 1 7 3.5t4 4.5t1.5 5.5t0.5 6v7v6.5q1 49 5 147q0 6 -4 7q-18 8 -50 16zM662 386v-5
q-30 16 -106.5 26t-163.5 10q-90 0 -167 -10t-106 -26l-1 5q0 5 5 8q36 15 111.5 24.5t157.5 9.5q182 0 265 -34q5 -3 5 -8zM662 378l-5 -141q-23 13 -68 23q-105 23 -259 15.5t-206 -38.5l-5 141q28 17 105.5 27t167.5 10q89 0 165 -10t105 -27zM666 338v7q22 -5 45 -14
q4 -1 4 -7v-4q-17 10 -49 18zM114 345v-7q-32 -8 -49 -18v4q0 5 5 7q20 8 44 14zM114 335l1 -5q-13 -3 -27 -10q9 3 27 7v-6q-10 -3 -22 -8l22 5v-6q-5 -2 -17 -6l18 3v-6q-3 -1 -14 -5l14 2v-6q-6 -2 -9 -4l9 1l1 -6q-3 -1 -7 -3h7v-7l-4 -2h4l1 -31q0 -20 1 -23
q4 -14 21 -12q2 0 22.5 5.5t30.5 4.5q2 0 6 -2l1 -1l1 -2v-2q-1 -1 -2 -1q-3 -3 -14 -3l-33 -6q-61 -11 -82 -26l-5 144q19 11 49 17zM665 321l1 6l14 -3.5l14 -3.5q-15 8 -28 9v6q33 -8 49 -18l-5 -143q-21 15 -82 26q-22 4 -33 5q-1 1 -7 2t-7 1l-1 2l-1 1l1 3l1 1
q1 1 3 1t3 1q10 1 30.5 -4t23.5 -6q16 -2 20 11q1 4 1 24l1 30h6q-2 2 -6 4l1 6l7 -1q-3 3 -7 3v7l11 -1q-1 0 -5 1.5t-6 2.5v6l15 -3q-6 4 -14 6v6l18 -4q-7 4 -18 6v7q16 -4 24 -5q-11 5 -24 8zM170 245l22 5q0 -1 2 -5q-9 -1 -18 -6l19 4q2 -4 2 -5q-5 -1 -15 -5l16 2
q2 -4 2 -5q-8 -2 -11 -4l12 1q2 -6 2 -10q-6 6 -35 -1.5t-37 -4.5q-13 5 -7 16q2 5 9 8q23 12 56 20l1 -3q-8 -1 -20 -7zM610 245q-12 6 -20 7l2 4q35 -9 55 -20q8 -5 10 -9q4 -10 -7 -16q-8 -3 -37.5 4.5t-35.5 1.5q0 3 2 9l13 -1q-4 2 -12 4l2 6q2 -1 8 -2t8 -1
q-10 4 -15 5l2 5q12 -2 19 -3q-12 4 -18 5l2 5q4 -1 11.5 -2.5t10.5 -1.5zM192 138q-8 25 -46 25q-5 0 -12.5 -2t-18.5 -4.5t-21 -4.5t-17 -1q-9 2 -9 10.5t6 11.5q22 12 78 24q21 -3 32.5 -21t7.5 -38zM588 138q-4 20 7.5 38t32.5 21q54 -12 78 -24q6 -3 6 -11.5t-9 -10.5
q-6 -1 -17 1q-10 2 -21 4.5t-18.5 4.5t-12.5 2q-38 0 -46 -25z" />
    <glyph glyph-name="right_index" horiz-adv-x="629" 
d="M228 468l48 24l16.5 5.5t14.5 4.5q1 0 6 2.5t8 3.5q8 3 25 5q2 0 7 -0.5t8 -0.5q9 -1 24.5 -5t19.5 -5q7 -2 23 -2q8 0 24 -4q4 -1 11.5 -2.5t10.5 -2.5q13 -4 23 -5q29 -4 39 -7q-3 -15 -1 -17q2 -1 6 -2q3 0 12 -2.5t11 -2.5q-6 -18 -34 -18q-14 0 -27 6q-32 -11 -60 4
q-22 -7 -53 -4q-6 1 -13 5t-10 5q3 -4 7 -7q4 -4 6 -5q10 -8 22 -16q12 -10 14 -13q1 -1 2.5 -4t2.5 -4q1 -2 6 -5q10 -8 13 -18q3 -5 3 -10q0 -7 -6 -17q-12 -16 -22 -3q-5 7 -25.5 25.5t-33.5 25.5v1q-1 0 -2 1h-2l14 -12l13 -12l7 -7t7 -8q9 -9 14 -15q9 -7 7 -18
q-1 -9 -9 -15q-2 -2 -10 -2q-22 24 -42 41q-3 2 -10 5.5t-8 4.5q1 -2 3 -3t3 -2l40 -40q7 -7 7 -12t-5 -12q-1 0 -3 -2t-4 -3q-1 0 -2 -1l-1 -1q-5 -2 -23 0h-18q-10 1 -21 12l-1 1q-2 1 -2 2t4 5q5 3 15 11q3 -4 6 -7q-1 -1 -4 -7q2 0 4.5 2t3.5 2t3 -2q1 -1 3 -2l2 -1
q-2 3 -8.5 9.5l-8.5 8.5l-9 9q0 -4 2 -8q-3 -3 -9.5 -7.5t-9.5 -7.5q-32 -18 -51 -21q-26 -4 -46 9q-13 11 -16 16q-2 0 -7.5 -2t-8.5 -3t-9 -1l-20 -3q-1 20 1 86q0 5 0.5 11t1.5 13t1 11l3 20q9 0 13 1h2q0 2 2 2q9 6 26 11q5 1 16.5 3.5t17.5 4.5zM563 474q6 0 6 -2
q-2 -7 -5 -12q-16 3 -20 4q-7 2 -7 3q-1 5 1 12q16 -4 25 -5zM137 352v-31q3 -26 3 -28q0 -11 6 -15h2l2 1q5 2 7 24q0 1 3 1q2 -23 -7 -32q-7 -9 -16 -6q-1 0 -4 1t-5 0q-8 -2 -11 -2h-5q-24 -2 -43 -7q-6 -2 -9 -2v3l12 3l-2 4q-2 9 -2.5 27.5t0.5 32.5v14v58q2 22 4 33
q2 8 8 30q-2 1 -5.5 2t-5.5 2q-8 3 -9 4q0 3 1 4q4 -2 14 -4l16 -3h16t16 -1q5 0 11 -2q3 -1 9.5 0t8.5 0q6 -4 10 -13l-6 -1q-3 5 -7 4l-2 -3q-1 -2 -3 -15l-1 -7q-4 -24 -6 -76zM84 387v1q6 40 11 60q0 1 -1 1q-13 -23 -11 -62h1zM103 352h1q3 49 12 95v1h-1
q-20 -46 -12 -96zM126 298v-1q1 0 1 1q-2 81 8 148h-1q-27 -74 -8 -148z" />
    <glyph glyph-name="stamp_1" horiz-adv-x="410" 
d="M231 420q7 -1 15.5 1.5t14.5 0.5q5 -2 9.5 -10t9.5 -12q5 -3 14.5 -4t13.5 -5t5 -13.5t4 -14.5q4 -5 12 -9.5t10 -9.5t-0.5 -14t-1.5 -15q1 -5 7.5 -13.5t5.5 -13.5q1 -5 -5.5 -13t-7.5 -13q-1 -7 1.5 -15.5t0.5 -14.5q-2 -5 -10 -9.5t-12 -9.5q-3 -5 -4 -14.5t-5 -13.5
t-13.5 -5t-14.5 -4q-5 -4 -9.5 -12t-9.5 -10q-6 -2 -14.5 0.5t-15.5 1.5q-6 -1 -13 -7t-13 -6t-13 6t-13 7t-15 -1.5t-14 -0.5q-6 2 -10 10t-9 12q-6 3 -15 4t-13 5t-5 13.5t-5 14.5q-3 5 -11 9.5t-11 9.5q-2 6 0.5 14.5t1.5 15.5q-1 5 -7 13t-6 13t6 13t7 14t-1.5 15
t-0.5 14q3 5 11 9.5t11 9.5q4 5 5 14.5t5 13.5t13 5t15 4q5 4 9 12t10 10q5 2 14 -0.5t15 -1.5t13 7t13 6t13 -6t13 -7zM205 415q-52 0 -89 -37t-37 -90q0 -52 36.5 -89t89.5 -37t90 37t37 89t-37 89.5t-90 37.5zM205 409q-49 0 -85 -36q-35 -33 -35 -85q0 -50 35 -85
t85 -35q52 0 85 35q36 36 36 85q0 51 -36 85q-34 36 -85 36zM289 372q34 -36 34 -84q0 -49 -34 -83q-35 -35 -84 -35q-50 0 -83 35q-35 33 -35 83q0 49 35 84q34 34 83 34q48 0 84 -34zM161 358q20 12 44 12q35 0 59 -24t24 -58t-24.5 -58t-58.5 -24t-58 24t-24 58
q0 45 38 70zM181 215h-5q14 -6 29 -6q33 0 56 23.5t23 55.5q0 33 -23 56t-56 23q-13 0 -28 -5l5 -1l-10 -1l-5 -3l7 -1l-11 -1l-6 -5l9 -1l-13 -1l-4 -4l10 -1l-12 -2l-4 -4l10 -1l-12 -2l-3 -4l11 -1l-12 -1l-2 -5l11 -1l-13 -1l-1 -4l11 -2l-12 -1l-2 -4l12 -1l-12 -2
l-1 -4l11 -1l-12 -1v-5l11 -1l-12 -1v-4l12 -2l-12 -1v-4l12 -2l-11 -1v-4l12 -1l-11 -2l1 -4l12 -1l-12 -1l2 -5l12 -1l-12 -1l2 -4l12 -2l-11 -1l3 -4l12 -1l-11 -2l3 -4l12 -1l-10 -1l3 -5l13 -1l-10 -1l4 -4l12 -2l-9 -1l5 -4l13 -1l-9 -1l6 -3zM101 278l-4 7l-9 1l7 6
l-2 7l8 -3l8 3l-2 -7l7 -6l-9 -1zM309 277l-3 8l-9 1l6 5l-2 8l8 -4l8 4l-1 -8l6 -5l-9 -1z" />
    <glyph glyph-name="stamp_2" horiz-adv-x="409" 
d="M307 389q42 -44 42 -103q0 -60 -42 -102q-43 -43 -102 -43q-58 0 -103 43q-42 42 -42 102q0 59 42 103q44 42 103 42q60 0 102 -42zM304 354h8l-2 3q-3 5 -4 13.5t-5 12.5t-12.5 5t-13.5 4t-9 10.5t-9 10.5q-5 2 -13 -0.5t-15 -1.5q-6 1 -12.5 6.5t-11.5 5.5
q-6 0 -12.5 -5.5t-12.5 -6.5t-14.5 1.5t-13.5 0.5q-4 -2 -8 -9.5t-10 -11.5q-5 -3 -13.5 -4t-12.5 -5t-5 -12.5t-4 -13.5l-1 -3h109q48 1 97 0zM159 387l-1 -7l6 -6l-9 -1l-4 -7l-3 7l-9 1l6 6l-1 7l7 -3zM254 373l-8 1l6 6l-2 7l8 -3l8 3l-2 -7l7 -6l-9 -1l-4 -7zM107 352
l1 1l-11 1l-2 -2h1h3h5h3zM268 352l8 1h4q-49 0 -73 1h-36l-1 -2l-9 -1l43 -1h63zM298 351l5 -1h15q-1 0 -3 2zM82 338v6q0 -1 -2 -2.5t-2 -2.5q-1 -5 1.5 -13t0.5 -15q-1 -5 -6.5 -12.5t-5.5 -12.5t5.5 -12.5t6.5 -12.5q2 -6 -0.5 -14.5t-1.5 -12.5q2 -5 7 -8l237 -1
q7 3 9 9q2 5 -0.5 13t-1.5 14q1 5 7 12.5t6 12.5t-6 12.5t-7 12.5q-1 6 1.5 14.5t0.5 13.5q-1 2 -4 5l-1 -1v2l-6 3l-1 -4l-2 4l-5 1l-1 -5l-1 5h-5l-1 -6q-1 0 -1 1l-1 5h-5l-1 -6l-1 6h-6l-1 -6l-1 6h-5l-1 -6h-1l-1 6h-5l-1 -6l-1 6h-5l-2 -7l-1 7h-5l-1 -7l-2 7h-4
l-2 -7l-1 7h-5l-1 -7h-1l-1 7h-5l-1 -7l-1 7h-5l-2 -8v1l-1 7h-5l-1 -8l-2 8h-4l-2 -8l-1 8h-5l-1 -8h-1l-1 8h-5l-1 -8l-1 8h-5l-2 -9v1l-1 8h-5l-1 -9h-1l-1 9h-5l-1 -9l-1 9h-5l-2 -9l-1 9h-5l-1 -9l-1 9h-6l-1 -9l-1 9h-5l-1 -9h-1l-1 9h-5l-1 -10v1l-1 9h-5l-2 -10
l-1 10h-5l-1 -10l-1 10h-6l-1 -10l-1 10h-5l-1 -10h-1l-1 10h-5l-1 -11v1l-1 10h-5l-2 -11l-1 10l-5 -3l-1 -7h-1zM123 222v-2h-11q0 -1 72 0h71l1 2l8 1h5h-137l-1 -2zM93 222l7 1h-9zM306 221l-5 -1l12 -1l2 2l-7 1zM103 219h-6l2 -3q3 -5 4 -14t5 -13t12.5 -4.5
t13.5 -3.5q5 -4 9 -11.5t9 -9.5t13.5 0.5t14.5 1.5t12.5 -6.5t12.5 -6.5q5 1 11.5 6.5t12.5 6.5t14.5 -1.5t13.5 -0.5t9 9.5t9 11.5q5 3 13.5 3.5t12.5 4.5t5 13t5 14q-70 1 -208 3zM129 189l2 7l-7 6l9 1l4 7l4 -7l9 -1l-7 -6l2 -7l-8 3zM265 189l1 7l-6 6l9 1l3 7l4 -7
l9 -1l-6 -6l1 -7l-8 3z" />
    <glyph glyph-name="stamp_3" horiz-adv-x="410" 
d="M231 421q7 -1 15.5 2t14.5 1q5 -3 9.5 -11t9.5 -12q5 -3 14.5 -4t13.5 -5t5 -13t4 -15q4 -5 12 -9.5t10 -9.5t-0.5 -14t-1.5 -15q1 -5 7.5 -13.5t5.5 -13.5q1 -5 -5.5 -13t-7.5 -13q-1 -6 1.5 -15t0.5 -14q-2 -6 -10 -10.5t-12 -9.5q-3 -5 -4 -14t-5 -13t-13.5 -5
t-14.5 -5q-5 -3 -9.5 -11t-9.5 -11q-6 -2 -14.5 0.5t-15.5 1.5q-6 -1 -13 -7t-13 -6t-13 6t-13 7t-15 -1.5t-14 -0.5q-6 3 -10 11t-9 11q-6 4 -15 5t-13 5t-5 13t-5 14q-3 5 -11 9.5t-11 10.5q-2 5 0.5 14t1.5 15q-1 5 -7 13t-6 13t6 13.5t7 13.5q1 6 -1.5 15t-0.5 14
q3 5 11 9.5t11 9.5q4 6 5 15t5 13t13 5t15 4q5 4 9 12t10 11q5 2 14 -1t15 -2t13 7t13 7q6 -1 13 -7t13 -7zM205 416q-52 0 -89 -37t-37 -90q0 -52 37 -89t89 -37t89.5 37t37.5 89q0 53 -37 90t-90 37zM205 384q-39 0 -66.5 -28t-27.5 -67t27.5 -66.5t66.5 -27.5t66.5 27.5
t27.5 66.5t-27.5 67t-66.5 28zM167 358l-8 1q3 3 4 5l11 1l-9 1q2 5 6 7q3 1 8.5 -0.5t9.5 -0.5q4 0 8 4t8 4q3 0 7.5 -3.5t9.5 -4.5q4 -1 9.5 0.5t8.5 0.5q3 -2 6 -7t6 -7t8.5 -2.5t8.5 -3.5t3.5 -8.5t2.5 -8.5t7 -6t7 -6q1 -3 -0.5 -8.5t-1.5 -9.5q1 -3 5 -8t4 -9
q0 -3 -4 -8t-5 -8q0 -4 1.5 -9.5t0.5 -8.5q-2 -4 -7 -6.5t-7 -5.5t-2.5 -9t-3.5 -9q-3 -2 -8.5 -2.5t-8.5 -2.5t-6 -7t-6 -7q-4 -2 -9 0t-9 1t-8.5 -4.5t-8.5 -3.5t-8 3.5t-8 4.5t-9.5 -1t-8.5 0q-3 1 -6 6l9 2l-11 1l-4 4l9 1l-14 2q-1 0 -5.5 0.5t-6.5 1.5l14 2l-16 1
q-1 2 -1 5l10 1l-11 1l-1 5l7 1l-7 1l-1 2q-2 2 -4 3l7 1l-9 1q-5 2 -7 5l12 1l-14 2v4l12 1l-11 1l1 5l7 1l-7 1v4v2h6l-7 1l-4 5l10 1l-11 2q-2 2 -2 4l13 1l-13 2q0 2 2 4l11 2l-9 1q1 1 3 5l7 1h-6v2v4l8 1l-8 1l-1 5l11 1l-12 1v4l15 2l-13 1q0 1 7 5l9 1l-6 1l3 3l1 2
l7 1l-7 1l1 5l11 1l-10 1q0 3 1 5l16 1l-13 2q1 1 3 1t4 0.5t4 0.5zM100 318l-2 5h-6l4 4l-1 5l5 -2l6 2l-2 -5l5 -4h-6zM309 318l3 5h6l-4 4l1 5l-6 -2l-5 2l1 -5l-4 -4h6zM95 280l-4 7l-8 1l6 4l-1 7l7 -3l7 3l-2 -7l6 -4l-8 -1zM315 280l4 7l7 1l-5 4l1 7l-7 -3l-7 3
l2 -7l-6 -4l8 -1zM100 247l-3 4l-6 1l4 4l-1 5l6 -3l5 3l-1 -5l4 -4l-6 -1zM310 247l3 4l6 1l-5 4l1 5l-5 -3l-5 3l1 -5l-4 -4l6 -1z" />
    <glyph glyph-name="star_1" horiz-adv-x="383" 
d="M191 515q56 0 94 -38t38 -94q0 -55 -38 -92.5t-94 -37.5q-54 0 -92.5 38t-38.5 92q0 56 38.5 94t92.5 38zM228 373l47 35h-59l-25 61l-24 -61h-59l50 -35l-26 -64l59 35l60 -35z" />
    <glyph glyph-name="star_2" horiz-adv-x="364" 
d="M258 294l-76 51l-82 -51l31 89l-71 54h90l32 90l31 -90h91l-68 -54z" />
    <glyph glyph-name="star_3" horiz-adv-x="389" 
d="M195 515q55 0 94.5 -39.5t39.5 -94.5t-39.5 -94.5t-94.5 -39.5q-56 0 -95.5 39.5t-39.5 94.5t39.5 94.5t95.5 39.5zM145 382l-18 -53h75v-27l69 80l-69 78v-28h-75z" />
    <glyph glyph-name="the" horiz-adv-x="422" 
d="M362 437q-48 -4 -147 -35t-154 -33q36 5 139.5 37.5t161.5 30.5zM225 437q-94 -36 -153 -42q25 6 75.5 21t77.5 21zM276 389v11q8 2 13 3q7 2 12 -1q3 5 11 6q20 3 39 3v-32v-32h-14v26v26q-20 -2 -30 -4v-35v-36q10 2 30 4v-14q-20 -2 -30 -4v-35v-36q9 2 29 4l1 26v26
l14 1q0 -6 -0.5 -16.5t-0.5 -15.5v-32q-26 -2 -39 -4q-8 0 -11 2q-4 -4 -12 -6l-12 -3v11l17 4v79v78q-5 -2 -17 -4zM180 190l-8 -3v12q8 2 12 4v78q0 52 1 78l-13 -4v12l9 2q5 2 11 0q3 5 12 8l7 3v-12l-13 -4v-36v-35q22 7 37 13l1 35v35l-13 -4v12l8 2q6 3 12 1q3 4 11 7
l8 2v-11l-12 -4q-1 -26 -1 -78v-79q4 2 12 4v-11q-2 -1 -8 -3q-7 -1 -11 0q-5 -5 -12 -7l-7 -3v12l12 4v37v37q-24 -8 -37 -12v-37v-38l12 5v-12l-7 -3q-6 -2 -12 0q-5 -5 -11 -7zM133 175l-12 -2q-8 -3 -11 1q-5 -5 -12 -6l-12 -1v12l17 2v78v78l-27 -3v-26v-26l-14 -1v32
v32l36 3q7 1 12 -2q5 5 11 6q6 2 18.5 5.5t18.5 4.5v-32v-32l-14 -4v26v26q-18 -4 -27 -7v-78q-1 -26 -1 -78l17 4v-12zM60 143q49 4 148 34.5t154 32.5q-37 -5 -140.5 -37.5t-161.5 -29.5zM197 143q94 36 153 42q-23 -5 -74 -20.5t-79 -21.5z" />
    <glyph glyph-name="up_index" horiz-adv-x="377" 
d="M278 607q1 -9 5 -25q-7 -2 -12 -1q-1 0 -3 7q-1 4 -4 20q5 3 12 5q2 0 2 -6zM207 400h-1q-7 13 -25.5 33.5t-25.5 25.5q-13 10 3 22q10 6 17 6q5 0 10 -3q10 -3 18 -13q3 -5 5 -6q1 -1 4 -2.5t4 -2.5q3 -2 13 -14q8 -12 16 -22q1 -2 5 -6q3 -4 7 -7q-1 3 -5 10t-5 13
q-3 31 4 53q-15 28 -4 60q-6 13 -6 27q0 28 18 34q0 -2 2.5 -11t2.5 -12q2 -10 14 -6q3 1 5 1q3 -10 7 -39q1 -10 5 -23q1 -3 2.5 -10.5t2.5 -11.5q4 -16 4 -24q0 -16 2 -23q1 -4 5 -19.5t5 -24.5q0 -3 0.5 -8t0.5 -7q-2 -17 -5 -25q-1 -3 -3.5 -8t-2.5 -6q-1 -4 -4.5 -14.5
l-5.5 -16.5l-24 -48q-2 -6 -4.5 -17.5t-3.5 -16.5q-5 -17 -11 -26q0 -2 -2 -2v-2q-1 -4 -1 -13l-20 -3q-1 0 -14.5 -1.5t-20.5 -1.5q-66 -2 -86 -1l3 20q0 6 1 9t3 8.5t2 7.5q-5 3 -16 16q-13 20 -9 46q3 19 21 51q3 3 7.5 9.5t7.5 9.5q4 -2 8 -2l-9 9l-8.5 8.5t-9.5 8.5
l1 -2q1 -2 2 -3q2 -2 2 -3t-2 -3.5t-2 -4.5q6 3 7 4q3 -3 7 -6q-8 -10 -11 -15q-4 -4 -5 -4l-3 3q-11 11 -12 21v18q-2 18 0 23l1 1l1 2q1 2 3 4t2 3q7 5 12 5t12 -7q6 -5 13 -12t15 -15.5t12 -12.5q1 -1 2 -3t3 -3q-1 1 -4.5 8t-5.5 10q-17 20 -41 42q0 8 2 10q6 8 15 9
q11 2 18 -7q6 -5 15 -14l7 -7t8 -7l12 -13l12 -14v2q-1 1 -1 2zM69 156v5q0 3 2 11q1 2 0 5t-1 4q-3 9 6 16q9 9 32 7q0 -3 -1 -3q-22 -2 -24 -7l-1 -2v-2q4 -6 15 -6q2 0 28 -3h31q52 2 76 6l7 1q14 2 15 3l3 2q1 4 -4 7l1 6q9 -4 13 -10q1 -2 0 -8.5t0 -9.5q2 -6 2 -11
q1 -6 1 -16v-16l3 -16q2 -10 4 -14q-1 -1 -4 -1q-1 2 -4 9q-1 2 -2 5.5t-2 5.5q-22 -6 -30 -8q-11 -2 -33 -4h-58q-54 -2 -74 2q-3 1 -4 2l-3 -12h-3q0 3 2 9q5 19 7 43zM250 178v1q-67 -10 -148 -8q-1 0 -1 -1h1q74 -19 148 8zM156 148v-1q50 -8 96 12v1h-1q-46 -9 -95 -12
zM191 128v-1q39 -2 62 11q0 1 -1 1q-20 -5 -60 -11h-1z" />
    <glyph glyph-name="right_index.alt" horiz-adv-x="644" 
d="M237 296v-1q-3 1 -12.5 4t-12.5 5q0 -19 -5 -24t-25 -10q-9 -16 -15 -19q-12 -5 -64 -5q-28 0 -37 -3l-2 3q10 8 25 10h1q-21 32 -19.5 101.5t17.5 100.5q-25 5 -28 8l3 3q14 -4 96 4q4 0 7 -7h21q7 0 10 -4q2 -4 2 -7q41 0 72 15q43 21 80 20q51 -2 77 -8q5 -1 24 -2.5
t29 -4.5q73 -8 89 -12q17 -5 13 -25q-2 -11 -14 -14q-20 -5 -53 2q-27 -5 -45 2q-37 -3 -50 5l-19 15l-6 3q-7 2 -62 12l-24 -1v-2q18 0 24 1l59 -14l6 -3l29 -23v-1q-1 -1 -2.5 -3t-3.5 -7t-2 -9q3 -6 9.5 -8.5t11.5 -2.5l5 1q-19 0 -23 12l9 16q6 -2 28 -13q7 -3 0 -17
q-6 -11 -32 -11q-14 0 -25 7q-21 11 -27 11q-9 1 -35 -1q-4 0 -14 4l-4 2t-3.5 2t-2.5 1v-1q9 -8 15 -10l-17 -19q-14 -11 -35 -11v-1q18 -4 33 5q6 4 14 12.5t9 9.5q2 1 9 1h7l-1 -3l-6 -3q-10 -10 -9 -21q1 -9 6.5 -15.5t12.5 -5.5h1q1 0 0 -1q-8 -9 -5 -17q4 -16 17 -14
q-31 -27 -61 -30q-74 -5 -72 49h-1q-4 -19 3 -33zM168 459h-1q2 -24 -2.5 -71t-1.5 -71q19 3 19 -15q0 -13 -13 -15q0 -1 0.5 -3.5t1.5 -3.5h1q18 2 22 3q5 1 7 2t3.5 5t1.5 12q-3 -8 -7 -8q-5 0 -7.5 11t-2.5 32v36.5t1 41.5t1 30v2q1 7 4 7q-1 3 -4.5 4.5t-7 1.5t-9 -0.5
t-6.5 -0.5zM413 375v-1q-2 -1 -19.5 -9.5t-26.5 -12.5q-15 -7 -19 -5q-5 3 -7.5 10.5t3.5 17.5q21 25 42 13q14 -8 27 -13zM421 373q10 4 13.5 0.5t6.5 -12.5q0 -1 0.5 -2t0.5 -2q2 -7 -11 -16q-15 -11 -39.5 -20.5t-30.5 -4.5q-18 16 17 37q17 10 43 20zM420 330
q11 3 12.5 2t9.5 -12q4 -6 -8.5 -15t-29.5 -15q-16 -5 -23 0q-9 7 -8 12q0 4 9.5 9.5t22 11t15.5 7.5z" />
    <glyph glyph-name="down_index.alt" horiz-adv-x="368" 
d="M113 452h-1q1 3 4 12.5t5 12.5q-19 0 -24 5t-10 25q-16 9 -19 15q-5 12 -5 64q0 28 -3 37l3 2q8 -10 10 -25v-1q32 21 101.5 19.5t100.5 -17.5q5 25 8 28l3 -3q-4 -14 4 -96q0 -4 -7 -7v-21q0 -7 -4 -10q-4 -2 -7 -2q0 -41 15 -72q21 -43 20 -80q-2 -51 -8 -77
q-1 -5 -2.5 -24t-4.5 -29q-8 -73 -12 -89q-5 -17 -25 -13q-11 2 -14 14q-5 20 2 53q-5 27 2 45q-3 37 5 50l15 19l3 6q2 7 12 62l-1 24h-2q0 -18 1 -24l-14 -59l-3 -6l-23 -29h-1q-1 1 -3 2.5t-7 3.5t-9 2q-6 -3 -8.5 -9.5t-1.5 -11.5v-5q0 19 12 23l16 -9q-2 -6 -13 -28
q-3 -7 -17 0q-11 6 -11 32q0 14 7 25q10 21 11 27q1 9 -1 35q0 4 4 14l2 4t2 3.5t1 2.5h-1q-8 -9 -10 -15l-19 17q-11 14 -11 35h-1q-4 -18 5 -33q4 -6 12.5 -14t9.5 -9q1 -2 1 -9v-7l-3 1l-3 6q-10 10 -21 9q-9 -1 -15.5 -6.5t-5.5 -12.5v-1q0 -1 -1 0q-9 8 -17 5
q-16 -4 -14 -17q-27 31 -30 61q-5 74 49 72v1q-19 4 -33 -3zM276 521v1q-24 -3 -71 1.5t-71 2.5q3 -19 -15 -19q-13 0 -15 13q-1 0 -3.5 -0.5t-3.5 -1.5v-1q2 -18 3 -22q1 -5 2 -7t5 -3.5t12 -1.5q-8 3 -8 7q0 5 11 7.5t32 2.5h36.5t41.5 -1t30 -1q9 0 9 -1q1 -1 0 -3
q3 1 4.5 4.5t1.5 7t-0.5 9t-0.5 6.5zM192 276h-1q-1 2 -9.5 19.5t-12.5 26.5q-7 15 -5 19q3 5 10.5 7.5t17.5 -3.5q25 -21 13 -42q-8 -14 -13 -27zM190 268q4 -10 0.5 -13.5t-12.5 -6.5q-3 -1 -4 -1q-7 -2 -16 11q-11 15 -20.5 39.5t-4.5 30.5q16 18 37 -17q10 -17 20 -43z
M147 269q3 -11 2 -12.5t-12 -9.5q-6 -4 -15 8.5t-15 29.5q-5 16 0 23q7 9 12 8q4 0 9.5 -9.5t11 -22t7.5 -15.5z" />
    <glyph glyph-name="left_index.alt" horiz-adv-x="644" 
d="M580 246l-2 -3q-9 3 -37 3q-52 0 -64 5q-6 3 -15 19q-14 4 -19 6t-8 8.5t-3 19.5q-3 -2 -12.5 -5t-12.5 -4v1q7 14 3 33h-1q2 -54 -72 -49q-13 1 -28.5 8.5t-24.5 14.5l-8 7q13 -2 17 14q3 8 -5 17v1h1q7 -1 12.5 5.5t6.5 15.5q1 11 -9 21l-6 3l-1 3h7q7 0 9 -1
q1 -1 9 -9.5t14 -12.5q15 -9 33 -5v1q-21 0 -35 11l-17 19l15 10v1q-1 0 -2.5 -1t-3.5 -2l-4 -2q-10 -4 -14 -4q-26 2 -35 1q-6 0 -27 -11q-11 -7 -25 -7q-26 0 -32 11q-7 14 0 17q22 11 28 13q6 -5 9 -16q-4 -12 -23 -12q20 -4 26 10q0 4 -2 9t-4 8l-2 2v1l29 23l6 3l59 14
l24 -1v2q-14 0 -24 1q-55 -10 -62 -12l-6 -3l-19 -15q-13 -8 -50 -5q-8 -3 -19 -3.5t-18 0.5l-8 1q-33 -7 -53 -2q-12 3 -14 14q-4 20 13 25q16 4 89 12q10 3 29 4.5t24 2.5q26 6 77 8q37 1 80 -20q31 -15 72 -15q0 3 2 7q3 4 10 4h21q1 3 3 5t3 2h1q82 -8 96 -4l3 -3
q-3 -3 -28 -8q16 -31 17.5 -100.5t-19.5 -101.5h1q15 -2 25 -10zM472 280h1q1 1 1.5 3.5t0.5 3.5q-13 2 -13 15q0 8 5 12t9 4l5 -1q3 24 -2 71t-2 71h-1q-1 0 -6.5 0.5t-9 0.5t-7 -1.5t-4.5 -4.5q3 1 3.5 -0.5t0.5 -8.5q0 -4 1 -30t1 -41.5v-36.5t-2.5 -32t-7.5 -11
q-4 0 -7 8q0 -11 2.5 -14t9.5 -5q4 -1 22 -3zM231 374v1q13 5 27 13q21 12 42 -13q6 -10 3.5 -17.5t-7.5 -10.5q-4 -2 -19 5q-9 4 -26.5 12.5t-19.5 9.5zM223 373q26 -10 43 -20q35 -21 17 -37q-6 -5 -30.5 4.5t-39.5 20.5q-13 9 -11 16q0 1 1.5 5t2 4.5t1.5 3.5t2 3.5t3 1
t5 0t6 -1.5zM224 330q3 -2 15.5 -7.5t22 -11t9.5 -9.5q1 -5 -8 -12q-7 -5 -23 0q-17 6 -29.5 15t-8.5 15q8 11 9.5 12t12.5 -2z" />
    <glyph glyph-name="up_index.alt" horiz-adv-x="368" 
d="M63 108l-3 2q3 9 3 37q0 52 5 64q3 6 19 15q4 14 6 19t8.5 8t19.5 3q-2 3 -5 12.5t-4 12.5h1q14 -7 33 -3v1q-54 -2 -49 72q1 13 8.5 28.5t14.5 24.5l7 8q-2 -13 14 -17q8 -3 17 5h1v-1q-1 -7 5.5 -12.5t15.5 -6.5q11 -1 21 9l3 6l3 1v-7q0 -7 -1 -9q-1 -1 -9.5 -9
t-12.5 -14q-9 -15 -5 -33h1q0 21 11 35l19 17l10 -15h1q0 1 -1 2.5t-2 3.5l-2 4q-4 10 -4 14q2 26 1 35q-1 6 -11 27q-7 11 -7 25q0 26 11 32q14 7 17 0q11 -22 13 -28q-5 -6 -16 -9q-12 4 -12 23q-4 -20 10 -26q4 0 9 2t7 4l3 2h1l23 -29l3 -6l14 -59l-1 -24h2q0 14 1 24
q-10 55 -12 62l-3 6l-15 19q-8 13 -5 50q-3 8 -3.5 19.5t0.5 18.5l1 7q-7 33 -2 53q3 12 14 14q20 4 25 -13q4 -16 12 -89q3 -10 4.5 -29t2.5 -24q6 -26 8 -77q1 -37 -20 -80q-15 -31 -15 -72q3 0 7 -2q4 -3 4 -10v-21q3 -1 5 -3t2 -3v-1q-8 -82 -4 -96l-3 -3q-3 3 -8 28
q-31 -16 -100.5 -17.5t-101.5 19.5v-1q-2 -15 -10 -25zM147 464q-2 -3 -7.5 -15.5t-11 -22t-9.5 -9.5q-5 -1 -12 8q-5 7 0 23q6 17 15 29.5t15 8.5q11 -8 12 -9.5t-2 -12.5zM190 465q-10 -26 -20 -43q-21 -35 -37 -17q-5 6 4.5 30.5t20.5 39.5q9 13 16 11q1 0 5 -1.5t4.5 -2
t3.5 -1.5t3.5 -2t1 -3t0 -5t-1.5 -6zM191 457h1q5 -13 13 -27q12 -21 -13 -42q-10 -6 -17.5 -3.5t-10.5 7.5q-2 4 5 19q4 9 12.5 26.5t9.5 19.5zM97 216v-1q1 -1 3.5 -1.5t3.5 -0.5q2 13 15 13q8 0 11.5 -5t3.5 -9v-5q24 -2 71 2.5t71 1.5v1q0 1 0.5 6.5t0.5 9t-1.5 7
t-4.5 4.5q1 -3 -1 -3.5t-8 -0.5q-4 0 -30 -1t-41.5 -1h-36.5t-32 2.5t-11 7.5q0 4 8 7q-11 0 -14 -2.5t-5 -9.5q-1 -4 -3 -22z" />
    </font>
</defs>
</svg>
