<?xml version="1.0" standalone="no"?>
<!DOCTYPE svg PUBLIC "-//W3C//DTD SVG 1.1//EN" "http://www.w3.org/Graphics/SVG/1.1/DTD/svg11.dtd" >
<svg xmlns="http://www.w3.org/2000/svg" xmlns:xlink="http://www.w3.org/1999/xlink" version="1.1">
<metadata>
Created by FontForge 20150824 at Tue Apr 19 14:09:07 2016
 By Everything Fonts
Copyright 2010, 2012 Adobe Systems Incorporated. All Rights Reserved.
</metadata>
<defs>
<font id="SourceSansPro-Light" horiz-adv-x="0" >
  <font-face 
    font-family="Source Sans Pro Light"
    font-weight="300"
    font-stretch="normal"
    units-per-em="1000"
    panose-1="2 11 4 3 3 4 3 2 2 4"
    ascent="750"
    descent="-250"
    x-height="480"
    cap-height="659"
    bbox="-453 -284 1122 939"
    underline-thickness="50"
    underline-position="-100"
    unicode-range="U+0020-1F16B"
  />
<missing-glyph horiz-adv-x="632" 
d="M94 0v660h444v-660h-444zM158 39h312l-93 164l-59 105h-4l-61 -105zM314 372h4l53 92l86 155h-284l87 -155zM139 84l147 256l-147 260v-516zM491 84v516l-145 -260z" />
    <glyph glyph-name="f_f" unicode="ff" horiz-adv-x="530" 
d="M554 715l-12 -36q-27 14 -57 14q-75 0 -75 -109v-104h111v-38h-111v-442h-44v442h-223v-442h-44v442h-66v34l66 4v89q0 74 34 113t96 39q42 0 81 -18l-12 -36q-32 16 -69 16q-86 0 -86 -117v-86h223v107q0 71 30.5 107.5t87.5 36.5q35 0 70 -16z" />
    <glyph glyph-name="f_t" unicode="ft" horiz-adv-x="539" 
d="M516 42l12 -36q-50 -18 -79 -18q-65 0 -92 37.5t-27 107.5v309h-187v-442h-44v442h-66v34l66 4v107q0 71 31 107.5t88 36.5q35 0 70 -16l-12 -36q-28 14 -58 14q-75 0 -75 -109v-104h188l6 139h37v-139h140v-38h-140v-313q0 -50 18 -76t64 -26q28 0 60 15z" />
    <glyph glyph-name="f_f_t" unicode="fft" horiz-adv-x="805" 
d="M783 42l12 -36q-50 -18 -79 -18q-65 0 -92 37.5t-27 107.5v309h-187v-442h-44v442h-223v-442h-44v442h-66v34l66 4v89q0 74 34 113t96 39q42 0 81 -18l-12 -36q-32 16 -69 16q-86 0 -86 -117v-86h223v107q0 71 30.5 107.5t87.5 36.5q35 0 70 -16l-12 -36q-27 14 -57 14
q-75 0 -75 -109v-104h188l6 139h37v-139h139v-38h-139v-313q0 -50 18 -76t64 -26q28 0 60 15z" />
    <glyph glyph-name=".notdef" horiz-adv-x="632" 
d="M94 0v660h444v-660h-444zM158 39h312l-93 164l-59 105h-4l-61 -105zM314 372h4l53 92l86 155h-284l87 -155zM139 84l147 256l-147 260v-516zM491 84v516l-145 -260z" />
    <glyph glyph-name=".null" 
 />
    <glyph glyph-name="nonmarkingreturn" horiz-adv-x="333" 
 />
    <glyph glyph-name="space" unicode=" " horiz-adv-x="200" 
 />
    <glyph glyph-name="exclam" unicode="!" horiz-adv-x="259" 
d="M113 179l-6 420v71h46l-1 -71l-6 -420h-33zM130 -12q-17 0 -30 12.5t-13 32.5q0 21 13 33.5t30 12.5t29.5 -12.5t12.5 -33.5q0 -20 -12.5 -32.5t-29.5 -12.5z" />
    <glyph glyph-name="quotedbl" unicode="&#x22;" horiz-adv-x="360" 
d="M92 477l-8 147l-1 69h51v-69l-9 -147h-33zM233 477l-8 147l-1 69h51v-69l-9 -147h-33z" />
    <glyph glyph-name="numbersign" unicode="#" horiz-adv-x="479" 
d="M93 0l26 214h-83v36h87l21 170h-88v36h92l25 194h35l-25 -194h149l26 194h34l-25 -194h82v-36h-85l-21 -170h86v-36h-91l-25 -214h-35l25 214h-149l-26 -214h-35zM158 250h150l21 170h-150z" />
    <glyph glyph-name="dollar" unicode="$" horiz-adv-x="479" 
d="M402 580l-26 -28q-33 32 -60 46t-70 14q-51 0 -83.5 -32.5t-32.5 -82.5q0 -48 30 -80t72 -52t84.5 -42t72.5 -64.5t30 -105.5q0 -70 -43 -114t-111 -50v-99h-39v99q-93 7 -167 77l24 31q78 -70 161 -70q62 0 96 33.5t34 89.5q0 54 -30 91t-72 58t-84.5 42.5t-72.5 59.5
t-30 94q0 62 40 105t101 50v99h39v-99q45 -3 76 -20.5t61 -49.5z" />
    <glyph glyph-name="percent" unicode="%" horiz-adv-x="805" 
d="M181 257q-66 0 -103.5 54.5t-37.5 153.5q0 98 37.5 152t103.5 54t103.5 -54t37.5 -152q0 -99 -37.5 -153.5t-103.5 -54.5zM181 290q47 0 74.5 46.5t27.5 128.5t-27.5 127.5t-74.5 45.5t-74.5 -45.5t-27.5 -127.5t27.5 -128.5t74.5 -46.5zM624 -12q-66 0 -103.5 54.5
t-37.5 153.5q0 98 37.5 152t103.5 54t103.5 -54t37.5 -152q0 -99 -37.5 -153.5t-103.5 -54.5zM624 21q47 0 74.5 46.5t27.5 128.5t-27.5 127.5t-74.5 45.5t-74.5 -45.5t-27.5 -127.5t27.5 -128.5t74.5 -46.5zM198 -12l368 683h38l-367 -683h-39z" />
    <glyph glyph-name="ampersand" unicode="&#x26;" horiz-adv-x="575" 
d="M230 26q77 0 146 71q-119 109 -187 232q-52 -41 -80 -77.5t-28 -81.5q0 -64 43.5 -104t105.5 -40zM168 526q0 -63 37 -140q63 45 95.5 81t32.5 82q0 36 -17.5 61t-54.5 25q-42 0 -67.5 -31.5t-25.5 -77.5zM562 27l-15 -39q-65 23 -141 83q-81 -83 -180 -83
q-81 0 -135.5 49.5t-54.5 129.5q0 59 35 102.5t100 91.5q-44 91 -44 163q0 64 38 105.5t98 41.5q52 0 81 -33.5t29 -86.5q0 -30 -11.5 -57t-38.5 -54t-45 -42t-57 -44q68 -125 183 -226q68 85 104 217h43q-43 -148 -117 -242q66 -53 128 -76z" />
    <glyph glyph-name="quotesingle" unicode="'" horiz-adv-x="219" 
d="M92 477l-8 147l-1 69h51v-69l-9 -147h-33z" />
    <glyph glyph-name="parenleft" unicode="(" horiz-adv-x="279" 
d="M220 -175q-132 214 -132 453t132 453l27 -16q-120 -191 -120 -437t120 -437z" />
    <glyph glyph-name="parenright" unicode=")" horiz-adv-x="279" 
d="M59 -175l-27 16q120 191 120 437t-120 437l27 16q132 -214 132 -453t-132 -453z" />
    <glyph glyph-name="asterisk" unicode="*" horiz-adv-x="395" 
d="M132 462l-27 20l55 88l-90 36l10 30l94 -26l7 102h32l7 -100l95 24l10 -30l-90 -36l54 -88l-27 -20l-64 83z" />
    <glyph glyph-name="plus" unicode="+" horiz-adv-x="479" 
d="M219 110v201h-185v38h185v201h41v-201h185v-38h-185v-201h-41z" />
    <glyph glyph-name="comma" unicode="," horiz-adv-x="219" 
d="M62 -155l-14 30q76 40 77 121q-4 -1 -12 -1q-18 0 -30 11t-12 31q0 19 12.5 30.5t30.5 11.5q23 0 37 -19t14 -52q0 -53 -28 -95.5t-75 -67.5z" />
    <glyph glyph-name="hyphen" unicode="-" horiz-adv-x="299" 
d="M40 230v39h220v-39h-220z" />
    <glyph glyph-name="period" unicode="." horiz-adv-x="219" 
d="M110 -12q-17 0 -30 12.5t-13 32.5q0 21 13 33.5t30 12.5t29.5 -12.5t12.5 -33.5q0 -20 -12.5 -32.5t-29.5 -12.5z" />
    <glyph glyph-name="slash" unicode="/" horiz-adv-x="357" 
d="M9 -160l305 870h38l-305 -870h-38z" />
    <glyph glyph-name="zero" unicode="0" horiz-adv-x="479" 
d="M239 -12q-91 0 -141 87t-50 247q0 159 49.5 244t141.5 85t141.5 -85t49.5 -244q0 -160 -50 -247t-141 -87zM239 26q68 0 107 76t39 220q0 143 -39 217t-107 74t-107 -74t-39 -217t39 -219.5t107 -76.5z" />
    <glyph glyph-name="one" unicode="1" horiz-adv-x="479" 
d="M84 0v39h150v530h-114v30q75 13 123 40h36v-600h139v-39h-334z" />
    <glyph glyph-name="two" unicode="2" horiz-adv-x="479" 
d="M41 0v28q174 177 244.5 271t70.5 172q0 63 -35 102.5t-104 39.5q-81 0 -149 -84l-29 28q85 94 182 94q85 0 132.5 -48.5t47.5 -130.5q0 -31 -8 -61.5t-30 -68t-40.5 -64.5t-61.5 -76t-68.5 -76.5t-84.5 -90.5q88 5 107 5h218v-40h-392z" />
    <glyph glyph-name="three" unicode="3" horiz-adv-x="479" 
d="M232 -12q-117 0 -203 90l26 31q74 -82 177 -82q65 0 107 39t42 102q0 148 -223 148v39q105 0 152.5 38t47.5 101q0 54 -35 86.5t-94 32.5q-81 0 -147 -70l-26 30q80 78 173 78q77 0 126 -41t49 -113q0 -116 -122 -158v-4q63 -13 104 -57t41 -109q0 -82 -55.5 -131.5
t-139.5 -49.5z" />
    <glyph glyph-name="four" unicode="4" horiz-adv-x="479" 
d="M70 229h240v234q0 52 4 110h-4q-9 -15 -26.5 -41t-25.5 -39zM448 229v-38h-95v-191h-43v191h-294v26l297 422h40v-410h95z" />
    <glyph glyph-name="five" unicode="5" horiz-adv-x="479" 
d="M227 -12q-115 0 -201 86l25 31q76 -78 175 -78q66 0 112.5 48.5t46.5 123.5q0 77 -42 121t-114 44q-56 0 -119 -43l-31 19l23 299h295v-39h-255l-20 -231q56 34 114 34q86 0 140.5 -51t54.5 -151q0 -97 -61 -155t-143 -58z" />
    <glyph glyph-name="six" unicode="6" horiz-adv-x="479" 
d="M262 26q55 0 92 46.5t37 115.5q0 73 -34 116.5t-104 43.5q-84 0 -155 -96q6 -105 47.5 -165.5t116.5 -60.5zM422 589l-27 -30q-42 53 -108 53q-83 0 -136 -75t-54 -240q73 89 161 89q85 0 131.5 -51t46.5 -147q0 -86 -51.5 -143t-123.5 -57q-97 0 -153 79t-56 223
q0 188 66.5 274.5t168.5 86.5q80 0 135 -62z" />
    <glyph glyph-name="seven" unicode="7" horiz-adv-x="479" 
d="M188 0q7 192 51.5 328t141.5 272h-337v39h393v-26q-110 -146 -151.5 -280.5t-49.5 -332.5h-48z" />
    <glyph glyph-name="eight" unicode="8" horiz-adv-x="479" 
d="M243 -12q-88 0 -145.5 50t-57.5 126q0 59 37.5 105.5t90.5 74.5v4q-92 61 -92 147q0 68 48 112t119 44q80 0 126.5 -46.5t46.5 -120.5q0 -47 -28 -90.5t-63 -71.5v-4q52 -32 82 -68.5t30 -94.5q0 -71 -54 -119t-140 -48zM290 335q84 68 84 148q0 55 -35.5 93t-95.5 38
q-53 0 -88 -33.5t-35 -85.5q0 -32 13.5 -57.5t41.5 -45t51.5 -30.5t63.5 -27zM243 25q66 0 107.5 37.5t41.5 93.5q0 34 -14.5 60t-43.5 45.5t-56.5 32t-69.5 29.5q-7 3 -11 4q-113 -66 -113 -161q0 -60 45.5 -100.5t113.5 -40.5z" />
    <glyph glyph-name="nine" unicode="9" horiz-adv-x="479" 
d="M226 291q84 0 155 97q-6 105 -47.5 165t-117.5 60q-55 0 -92 -46.5t-37 -114.5q0 -74 34.5 -117.5t104.5 -43.5zM56 50l27 30q42 -53 109 -53q83 0 136 75t54 240q-73 -88 -162 -88q-84 0 -130.5 51t-46.5 147q0 86 51.5 142.5t123.5 56.5q97 0 152.5 -78.5t55.5 -222.5
q0 -188 -66 -275t-169 -87q-81 0 -135 62z" />
    <glyph glyph-name="colon" unicode=":" horiz-adv-x="219" 
d="M110 370q-17 0 -30 12.5t-13 32.5q0 21 13 33.5t30 12.5t29.5 -12.5t12.5 -33.5q0 -20 -12.5 -32.5t-29.5 -12.5zM110 -12q-17 0 -30 12.5t-13 32.5q0 21 13 33.5t30 12.5t29.5 -12.5t12.5 -33.5q0 -20 -12.5 -32.5t-29.5 -12.5z" />
    <glyph glyph-name="semicolon" unicode=";" horiz-adv-x="219" 
d="M110 370q-17 0 -30 12.5t-13 32.5q0 21 13 33.5t30 12.5t29.5 -12.5t12.5 -33.5q0 -20 -12.5 -32.5t-29.5 -12.5zM62 -155l-14 30q76 40 77 121q-4 -1 -12 -1q-18 0 -30 11t-12 31q0 19 12.5 30.5t30.5 11.5q23 0 37 -19t14 -52q0 -53 -28 -95.5t-75 -67.5z" />
    <glyph glyph-name="less" unicode="&#x3c;" horiz-adv-x="479" 
d="M445 146l-411 164v44l411 164v-43l-232 -90l-133 -51v-4l133 -51l232 -90v-43z" />
    <glyph glyph-name="equal" unicode="=" horiz-adv-x="479" 
d="M34 413v38h411v-38h-411zM34 209v38h411v-38h-411z" />
    <glyph glyph-name="greater" unicode="&#x3e;" horiz-adv-x="479" 
d="M34 146v43l232 90l133 51v4l-133 51l-232 90v43l411 -164v-44z" />
    <glyph glyph-name="question" unicode="?" horiz-adv-x="402" 
d="M163 179q-6 46 6.5 87t34.5 72t45 59.5t40 62t17 66.5q0 50 -29 83.5t-84 33.5q-77 0 -129 -64l-27 25q69 78 160 78q71 0 113 -43t42 -110q0 -37 -17 -73t-41 -65.5t-47 -60.5t-36 -70t-8 -81h-40zM186 -12q-17 0 -29.5 12.5t-12.5 32.5q0 21 12.5 33.5t29.5 12.5
t30 -12.5t13 -33.5q0 -20 -13 -32.5t-30 -12.5z" />
    <glyph glyph-name="at" unicode="@" horiz-adv-x="814" 
d="M388 -146q-148 0 -242 93.5t-94 254.5q0 190 116.5 310.5t280.5 120.5q144 0 229 -87t85 -230q0 -119 -57.5 -189.5t-126.5 -70.5q-41 0 -67 19t-30 57h-2q-63 -70 -122 -70q-49 0 -81.5 35.5t-32.5 100.5q0 81 52 153t134 72q53 0 83 -48h2l9 40h34l-36 -189
q-34 -135 60 -135q53 0 98 61.5t45 160.5q0 130 -75 207.5t-204 77.5q-143 0 -249.5 -110.5t-106.5 -282.5q0 -145 82.5 -230t218.5 -85q89 0 168 48l16 -30q-86 -54 -187 -54zM364 98q50 0 108 67l31 173q-32 49 -74 49q-64 0 -104.5 -58.5t-40.5 -127.5q0 -103 80 -103z
" />
    <glyph glyph-name="A" unicode="A" horiz-adv-x="526" 
d="M146 265h234l-42 123q-46 133 -73 228h-4q-27 -95 -73 -228zM470 0l-77 226h-261l-78 -226h-46l232 659h46l232 -659h-48z" />
    <glyph glyph-name="B" unicode="B" horiz-adv-x="578" 
d="M97 0v659h178q103 0 160.5 -40t57.5 -120q0 -53 -26.5 -91t-75.5 -53v-4q66 -11 104 -52t38 -107q0 -93 -65.5 -142.5t-179.5 -49.5h-191zM143 369h114q190 0 190 125q0 68 -45.5 97.5t-139.5 29.5h-119v-252zM143 38h133q101 0 156.5 38t55.5 115q0 140 -212 140h-133
v-293z" />
    <glyph glyph-name="C" unicode="C" horiz-adv-x="564" 
d="M331 -12q-123 0 -199.5 93.5t-76.5 249.5t77.5 248t203.5 92q105 0 172 -79l-27 -31q-60 68 -144 68q-109 0 -171.5 -80t-62.5 -218t62 -219.5t168 -81.5q94 0 167 81l27 -29q-83 -94 -196 -94z" />
    <glyph glyph-name="D" unicode="D" horiz-adv-x="604" 
d="M97 0v659h153q148 0 223.5 -86.5t75.5 -240.5q0 -155 -75.5 -243.5t-222.5 -88.5h-154zM143 39h102q129 0 192.5 79t63.5 214q0 134 -63.5 211t-192.5 77h-102v-581z" />
    <glyph glyph-name="E" unicode="E" horiz-adv-x="515" 
d="M97 0v659h361v-40h-315v-249h264v-40h-264v-290h325v-40h-371z" />
    <glyph glyph-name="F" unicode="F" horiz-adv-x="477" 
d="M97 0v659h359v-40h-313v-262h265v-40h-265v-317h-46z" />
    <glyph glyph-name="G" unicode="G" horiz-adv-x="605" 
d="M338 -12q-128 0 -205.5 93t-77.5 250q0 156 80 248t211 92q105 0 180 -79l-27 -31q-62 68 -152 68q-113 0 -178.5 -80t-65.5 -218t63 -219.5t175 -81.5q98 0 148 50v205h-158v39h202v-261q-70 -75 -195 -75z" />
    <glyph glyph-name="H" unicode="H" horiz-adv-x="639" 
d="M97 0v659h46v-289h353v289h46v-659h-46v330h-353v-330h-46z" />
    <glyph glyph-name="I" unicode="I" horiz-adv-x="240" 
d="M97 0v659h46v-659h-46z" />
    <glyph glyph-name="J" unicode="J" horiz-adv-x="462" 
d="M203 -12q-110 0 -162 97l35 23q45 -78 127 -78q60 0 89 37t29 117v475h46v-480q0 -86 -39.5 -138.5t-124.5 -52.5z" />
    <glyph glyph-name="K" unicode="K" horiz-adv-x="558" 
d="M97 0v659h46v-366h2l319 366h55l-210 -244l239 -415h-53l-218 380l-134 -153v-227h-46z" />
    <glyph glyph-name="L" unicode="L" horiz-adv-x="467" 
d="M97 0v659h46v-619h304v-40h-350z" />
    <glyph glyph-name="M" unicode="M" horiz-adv-x="706" 
d="M97 0v659h65l138 -387q5 -15 23.5 -66.5t28.5 -79.5h4q7 20 24 69.5t26 76.5l137 387h66v-659h-45v433q0 68 6 178h-4l-51 -147l-142 -392h-40l-143 392l-52 147h-4q6 -165 6 -178v-433h-43z" />
    <glyph glyph-name="N" unicode="N" horiz-adv-x="636" 
d="M97 0v659h48l278 -465l74 -131h4l-6 192v404h44v-659h-48l-278 465l-74 131h-4q1 -21 2.5 -58.5t2.5 -69t1 -59.5v-409h-44z" />
    <glyph glyph-name="O" unicode="O" horiz-adv-x="652" 
d="M326 -12q-120 0 -195.5 94.5t-75.5 249.5q0 154 75.5 246.5t195.5 92.5q121 0 196.5 -92.5t75.5 -246.5q0 -155 -76 -249.5t-196 -94.5zM326 30q101 0 162 82.5t61 219.5q0 136 -61 216.5t-162 80.5t-162 -80.5t-61 -216.5q0 -137 61 -219.5t162 -82.5z" />
    <glyph glyph-name="P" unicode="P" horiz-adv-x="549" 
d="M97 0v659h166q117 0 178 -43t61 -141q0 -95 -61.5 -143.5t-173.5 -48.5h-124v-283h-46zM143 322h113q102 0 150.5 36.5t48.5 116.5q0 81 -48.5 113t-154.5 32h-109v-298z" />
    <glyph glyph-name="Q" unicode="Q" horiz-adv-x="652" 
d="M103 332q0 -138 61 -221.5t162 -83.5t162 83.5t61 221.5q0 136 -61 216.5t-162 80.5t-162 -80.5t-61 -216.5zM590 -105l10 -39q-41 -12 -81 -12q-80 0 -136.5 40t-82.5 105q-109 11 -177 104t-68 239q0 154 75.5 246.5t195.5 92.5q121 0 196.5 -92.5t75.5 -246.5
q0 -147 -68 -239.5t-179 -103.5q46 -102 172 -102q33 0 67 8z" />
    <glyph glyph-name="R" unicode="R" horiz-adv-x="544" 
d="M143 341h131q181 0 181 144q0 72 -45.5 103.5t-135.5 31.5h-131v-279zM515 0h-53l-179 303h-140v-303h-46v659h189q216 0 216 -174q0 -77 -44.5 -123t-124.5 -56z" />
    <glyph glyph-name="S" unicode="S" horiz-adv-x="521" 
d="M269 -12q-134 0 -223 99l30 32q79 -89 193 -89q75 0 119.5 36.5t44.5 95.5q0 30 -8.5 52t-27.5 38t-35.5 25t-46.5 23l-100 45q-27 12 -46 23.5t-41.5 30.5t-34.5 47t-12 63q0 71 54.5 116.5t137.5 45.5q110 0 183 -79l-26 -30q-65 67 -157 67q-66 0 -106 -32t-40 -86
q0 -27 9.5 -48t30.5 -36.5t34.5 -23t39.5 -19.5l100 -44q67 -30 103 -68t36 -107q0 -77 -58 -127t-153 -50z" />
    <glyph glyph-name="T" unicode="T" horiz-adv-x="524" 
d="M239 0v619h-210v40h466v-40h-210v-619h-46z" />
    <glyph glyph-name="U" unicode="U" horiz-adv-x="634" 
d="M316 -12q-45 0 -82.5 13t-70 42t-50.5 82.5t-18 127.5v406h46v-401q0 -122 48.5 -175t126.5 -53q80 0 130 53t50 175v401h43v-406q0 -74 -18.5 -127.5t-51 -82.5t-70 -42t-83.5 -13z" />
    <glyph glyph-name="V" unicode="V" horiz-adv-x="491" 
d="M222 0l-218 659h49l122 -385q57 -183 70 -221h4q12 36 23 71.5t24 78.5t22 71l122 385h47l-216 -659h-49z" />
    <glyph glyph-name="W" unicode="W" horiz-adv-x="770" 
d="M178 0l-150 659h48l83 -388q30 -144 45 -215h4q25 112 51 215l103 388h47l103 -388q9 -36 26.5 -107.5t26.5 -107.5h4q7 36 21 107.5t22 107.5l83 388h45l-147 -659h-51l-120 452q-3 15 -16 67t-19 82h-4q-6 -28 -19 -77.5t-18 -71.5l-118 -452h-50z" />
    <glyph glyph-name="X" unicode="X" horiz-adv-x="482" 
d="M17 0l198 341l-184 318h50l108 -194l54 -90h4q37 69 49 90l108 194h47l-184 -320l198 -339h-50l-115 202q-20 37 -61 105h-4q-33 -62 -56 -105l-115 -202h-47z" />
    <glyph glyph-name="Y" unicode="Y" horiz-adv-x="447" 
d="M200 0v267l-197 392h49l100 -206q53 -111 70 -142h4q55 106 71 142l100 206h47l-198 -392v-267h-46z" />
    <glyph glyph-name="Z" unicode="Z" horiz-adv-x="538" 
d="M50 0v27l379 592h-346v40h404v-27l-380 -592h383v-40h-440z" />
    <glyph glyph-name="bracketleft" unicode="[" horiz-adv-x="279" 
d="M98 -152v860h160v-29h-125v-802h125v-29h-160z" />
    <glyph glyph-name="backslash" unicode="\" horiz-adv-x="357" 
d="M311 -160l-306 870h38l306 -870h-38z" />
    <glyph glyph-name="bracketright" unicode="]" horiz-adv-x="279" 
d="M21 -152v29h125v802h-125v29h160v-860h-160z" />
    <glyph glyph-name="asciicircum" unicode="^" horiz-adv-x="479" 
d="M66 290l150 380h46l151 -380h-43l-77 203l-52 133h-4l-51 -133l-77 -203h-43z" />
    <glyph glyph-name="underscore" unicode="_" horiz-adv-x="500" 
d="M12 -117v38h476v-38h-476z" />
    <glyph glyph-name="grave" unicode="`" horiz-adv-x="535" 
d="M282 572l-116 156h56l100 -156h-40z" />
    <glyph glyph-name="a" unicode="a" horiz-adv-x="491" 
d="M197 -12q-61 0 -100 33.5t-39 98.5q0 79 73.5 121t236.5 60q2 152 -114 152q-76 0 -153 -56l-20 33q88 62 179 62q80 0 116 -50.5t36 -134.5v-307h-38l-4 62h-3q-93 -74 -170 -74zM205 26q71 0 163 78v163q-144 -17 -204.5 -51.5t-60.5 -93.5q0 -49 28.5 -72.5
t73.5 -23.5z" />
    <glyph glyph-name="b" unicode="b" horiz-adv-x="542" 
d="M280 -12q-70 0 -144 61h-2l-5 -49h-37v719h44v-208l-2 -94q90 75 166 75q94 0 143 -65.5t49 -179.5q0 -118 -62 -188.5t-150 -70.5zM278 27q73 0 120 61.5t47 158.5q0 95 -37 150.5t-115 55.5q-69 0 -157 -79v-285q73 -62 142 -62z" />
    <glyph glyph-name="c" unicode="c" horiz-adv-x="449" 
d="M270 -12q-96 0 -157 67.5t-61 183.5t63.5 184.5t155.5 68.5q76 0 141 -59l-26 -31q-55 51 -114 51q-74 0 -124 -60t-50 -154q0 -95 48 -153.5t126 -58.5q68 0 128 55l23 -31q-72 -63 -153 -63z" />
    <glyph glyph-name="d" unicode="d" horiz-adv-x="544" 
d="M251 -12q-92 0 -145.5 65.5t-53.5 185.5q0 113 62.5 183t150.5 70q41 0 73 -14t72 -45l-2 88v198h44v-719h-38l-4 62h-3q-74 -74 -156 -74zM257 27q72 0 151 79v285q-70 62 -140 62q-72 0 -120.5 -61.5t-48.5 -152.5q0 -97 41.5 -154.5t116.5 -57.5z" />
    <glyph glyph-name="e" unicode="e" horiz-adv-x="483" 
d="M274 -12q-95 0 -158.5 68t-63.5 183q0 113 62.5 183t146.5 70q86 0 135 -58.5t49 -163.5q0 -24 -2 -36h-346q2 -92 51.5 -150t129.5 -58q69 0 129 43l18 -34q-78 -47 -151 -47zM97 270h306q0 90 -37.5 137t-103.5 47q-64 0 -111 -50t-54 -134z" />
    <glyph glyph-name="f" unicode="f" horiz-adv-x="263" 
d="M288 715l-12 -36q-28 14 -58 14q-75 0 -75 -109v-104h111v-38h-111v-442h-44v442h-66v34l66 4v107q0 71 31 107.5t88 36.5q35 0 70 -16z" />
    <glyph glyph-name="g" unicode="g" horiz-adv-x="487" 
d="M249 -231q-91 0 -144 36t-53 97q0 64 71 116v4q-42 25 -42 77q0 51 52 88v4q-60 52 -60 132q0 73 49 121t120 48q33 0 63 -12h163v-37h-112q53 -46 53 -121q0 -73 -48 -121t-119 -48q-46 0 -80 20q-39 -32 -39 -69q0 -63 92 -63h103q81 0 119.5 -26.5t38.5 -83.5
q0 -65 -63.5 -113.5t-163.5 -48.5zM242 188q51 0 87.5 38t36.5 97t-36 96t-88 37q-53 0 -89 -36.5t-36 -96.5q0 -59 36.5 -97t88.5 -38zM254 -195q78 0 127.5 37t49.5 84q0 73 -111 73h-103q-27 0 -60 8q-63 -43 -63 -101q0 -46 42.5 -73.5t117.5 -27.5z" />
    <glyph glyph-name="h" unicode="h" horiz-adv-x="528" 
d="M92 0v719h44v-208v-106q87 87 166 87q74 0 109.5 -45.5t35.5 -138.5v-308h-44v302q0 77 -26 113.5t-84 36.5q-41 0 -75.5 -21t-81.5 -69v-362h-44z" />
    <glyph glyph-name="i" unicode="i" horiz-adv-x="229" 
d="M92 0v480h44v-480h-44zM115 596q-17 0 -28.5 11t-11.5 28q0 18 11.5 29t28.5 11t28.5 -11t11.5 -29q0 -17 -11.5 -28t-28.5 -11z" />
    <glyph glyph-name="j" unicode="j" horiz-adv-x="229" 
d="M29 -229q-32 0 -62 12l11 36q30 -10 50 -10q38 0 51 26.5t13 78.5v566h45v-569q0 -140 -108 -140zM115 596q-16 0 -28 11t-12 28q0 18 12 29t28 11q17 0 29 -11t12 -29q0 -17 -12 -28t-29 -11z" />
    <glyph glyph-name="k" unicode="k" horiz-adv-x="464" 
d="M92 0v719h44v-530h2l237 291h51l-156 -190l182 -290h-49l-159 257l-108 -126v-131h-44z" />
    <glyph glyph-name="l" unicode="l" horiz-adv-x="237" 
d="M151 -12q-59 0 -59 76v655h44v-661q0 -31 21 -31q8 0 18 2l8 -36q-15 -5 -32 -5z" />
    <glyph glyph-name="m" unicode="m" horiz-adv-x="812" 
d="M92 0v480h38l4 -74h3q75 86 151 86q105 0 133 -98q90 98 163 98q144 0 144 -184v-308h-45v302q0 150 -107 150q-64 0 -144 -90v-362h-44v302q0 77 -26.5 113.5t-81.5 36.5q-64 0 -144 -90v-362h-44z" />
    <glyph glyph-name="n" unicode="n" horiz-adv-x="532" 
d="M92 0v480h38l4 -74h3q86 86 165 86q74 0 109.5 -45.5t35.5 -138.5v-308h-44v302q0 77 -26 113.5t-84 36.5q-41 0 -75.5 -21t-81.5 -69v-362h-44z" />
    <glyph glyph-name="o" unicode="o" horiz-adv-x="535" 
d="M267 -12q-90 0 -152.5 68t-62.5 183q0 116 62.5 184.5t152.5 68.5q91 0 153.5 -68.5t62.5 -184.5q0 -115 -62.5 -183t-153.5 -68zM267 27q73 0 121.5 59t48.5 153t-48.5 154t-121.5 60t-121 -59.5t-48 -154.5q0 -94 48 -153t121 -59z" />
    <glyph glyph-name="p" unicode="p" horiz-adv-x="544" 
d="M92 -217v697h38l4 -60h3q91 72 163 72q94 0 143 -65.5t49 -179.5q0 -118 -62 -188.5t-150 -70.5q-64 0 -144 59v-89v-175h-44zM278 27q73 0 120 61.5t47 158.5q0 95 -37 150.5t-115 55.5q-67 0 -157 -79v-285q76 -62 142 -62z" />
    <glyph glyph-name="q" unicode="q" horiz-adv-x="544" 
d="M408 -217v185l2 95q-79 -75 -159 -75q-92 0 -145.5 65.5t-53.5 185.5q0 113 62.5 183t150.5 70q71 0 143 -56h2l5 44h37v-697h-44zM257 27q72 0 151 79v285q-70 62 -140 62q-72 0 -120.5 -61.5t-48.5 -152.5q0 -97 41.5 -154.5t116.5 -57.5z" />
    <glyph glyph-name="r" unicode="r" horiz-adv-x="317" 
d="M92 0v480h38l4 -89h3q55 101 136 101q28 0 48 -10l-10 -40q-21 8 -44 8q-80 0 -131 -123v-327h-44z" />
    <glyph glyph-name="s" unicode="s" horiz-adv-x="405" 
d="M208 -12q-97 0 -176 66l26 33q74 -61 153 -61q54 0 84 27.5t30 67.5t-31.5 63t-85.5 43q-29 10 -45 16.5t-40 19t-36 25.5t-22 32.5t-10 43.5q0 55 41.5 91.5t113.5 36.5q77 0 137 -50l-24 -31q-57 43 -115 43q-52 0 -80 -25.5t-28 -61.5q0 -20 8.5 -35t27.5 -27
t34 -18.5t43 -16.5q83 -31 109 -51q48 -36 48 -96q0 -57 -43.5 -96t-118.5 -39z" />
    <glyph glyph-name="t" unicode="t" horiz-adv-x="312" 
d="M223 -12q-66 0 -93 37.5t-27 107.5v309h-75v34l76 4l6 139h38v-139h139v-38h-139v-313q0 -50 17.5 -76t63.5 -26q28 0 60 15l12 -36q-50 -18 -78 -18z" />
    <glyph glyph-name="u" unicode="u" horiz-adv-x="529" 
d="M230 -12q-74 0 -109.5 45.5t-35.5 138.5v308h44v-302q0 -77 26 -113.5t83 -36.5q42 0 77 23t78 75v354h44v-480h-37l-5 80h-2q-79 -92 -163 -92z" />
    <glyph glyph-name="v" unicode="v" horiz-adv-x="434" 
d="M192 0l-180 480h48l108 -301q9 -26 26 -74t22 -64h4q23 63 49 138l108 301h45l-178 -480h-52z" />
    <glyph glyph-name="w" unicode="w" horiz-adv-x="685" 
d="M166 0l-142 480h48l86 -311q22 -80 33 -128h4q5 19 10.5 40t13 47t11.5 41l87 311h53l87 -311q7 -25 19.5 -69.5t16.5 -58.5h4q5 19 16.5 61.5t17.5 66.5l85 311h45l-138 -480h-58l-84 298q-7 24 -18.5 69t-18.5 68h-4q-19 -80 -38 -139l-83 -296h-53z" />
    <glyph glyph-name="x" unicode="x" horiz-adv-x="407" 
d="M14 0l163 251l-150 229h49l78 -122q30 -48 51 -79h4q9 13 24.5 39.5t24.5 39.5l75 122h46l-149 -233l163 -247h-49l-85 131q-31 51 -57 88h-4q-11 -16 -30.5 -48t-24.5 -40l-82 -131h-47z" />
    <glyph glyph-name="y" unicode="y" horiz-adv-x="436" 
d="M73 -219q-27 0 -49 10l10 39q20 -8 39 -8q81 0 123 127l13 42l-197 489h48l116 -302q38 -101 52 -134h4q5 14 44 134l103 302h45l-190 -540q-53 -159 -161 -159z" />
    <glyph glyph-name="z" unicode="z" horiz-adv-x="404" 
d="M27 0v24l284 418h-253v38h310v-23l-283 -418h293v-39h-351z" />
    <glyph glyph-name="braceleft" unicode="{" horiz-adv-x="279" 
d="M224 -152q-58 0 -84.5 27.5t-26.5 100.5q0 38 4 104.5t4 100.5q0 81 -86 81v32q86 0 86 79q0 35 -4 102.5t-4 104.5q0 73 26.5 100.5t84.5 27.5h34v-29h-31q-44 0 -60.5 -24t-16.5 -79q0 -32 3 -93.5t3 -98.5q0 -46 -11 -70.5t-40 -33.5v-4q29 -9 40 -34t11 -70
q0 -37 -3 -98.5t-3 -93.5q0 -55 16.5 -79t60.5 -24h31v-29h-34z" />
    <glyph glyph-name="bar" unicode="|" horiz-adv-x="226" 
d="M95 -250v1000h36v-1000h-36z" />
    <glyph glyph-name="braceright" unicode="}" horiz-adv-x="279" 
d="M21 -152v29h31q44 0 60.5 24t16.5 79q0 32 -3 93.5t-3 98.5q0 88 51 104v4q-28 9 -39.5 33.5t-11.5 70.5q0 37 3 98.5t3 93.5q0 55 -16.5 79t-60.5 24h-31v29h34q58 0 84.5 -27.5t26.5 -100.5q0 -37 -4 -104.5t-4 -102.5q0 -79 86 -79v-32q-86 0 -86 -81q0 -34 4 -100.5
t4 -104.5q0 -73 -26.5 -100.5t-84.5 -27.5h-34z" />
    <glyph glyph-name="asciitilde" unicode="~" horiz-adv-x="479" 
d="M329 266q-33 0 -66 22.5t-62 45t-53 22.5q-47 0 -79 -63l-29 18q43 83 110 83q33 0 66 -22.5t62 -45t53 -22.5q47 0 79 63l28 -20q-20 -39 -49.5 -60t-59.5 -21z" />
    <glyph glyph-name="uni00A0" unicode="&#xa0;" horiz-adv-x="199" 
 />
    <glyph glyph-name="exclamdown" unicode="&#xa1;" horiz-adv-x="259" 
d="M107 -190v71l6 420h33l6 -420l1 -71h-46zM130 401q-18 0 -30.5 12.5t-12.5 34.5q0 19 13 31.5t30 12.5t29.5 -12t12.5 -32q0 -22 -12.5 -34.5t-29.5 -12.5z" />
    <glyph glyph-name="cent" unicode="&#xa2;" horiz-adv-x="479" 
d="M255 121v381q-66 -11 -107 -62.5t-41 -128.5q0 -78 40 -129t108 -61zM412 173l23 -29q-66 -61 -146 -64v-108h-34v109q-87 8 -140 69t-53 161t54.5 160.5t138.5 69.5v111h34v-109q75 -2 135 -60l-24 -28q-52 46 -111 49v-385q66 3 123 54z" />
    <glyph glyph-name="sterling" unicode="&#xa3;" horiz-adv-x="479" 
d="M133 40h295v-40h-371v27q53 30 79.5 81.5t26.5 112.5q0 31 -9 72h-100v33l66 3h24q-2 9 -8.5 29.5t-9.5 31.5t-7 28.5t-5.5 32.5t-1.5 30q0 79 45.5 124.5t124.5 45.5q88 0 144 -71l-29 -27q-50 59 -115 59q-59 0 -92 -37t-33 -94q0 -19 3.5 -40t7 -35t11 -40t10.5 -37
h165v-36h-157q8 -37 8 -72q0 -108 -72 -177v-4z" />
    <glyph glyph-name="currency" unicode="&#xa4;" horiz-adv-x="479" 
d="M57 114l-26 28l65 67q-38 51 -38 119q0 71 38 122l-65 68l26 28l66 -69q49 44 116 44t116 -44l67 69l26 -28l-66 -68q38 -51 38 -122q0 -68 -37 -119l65 -67l-26 -28l-67 68q-48 -45 -116 -45q-66 0 -116 45zM239 174q57 0 97 43.5t40 110.5q0 68 -40 112t-97 44t-97 -44
t-40 -112q0 -67 40 -110.5t97 -43.5z" />
    <glyph glyph-name="yen" unicode="&#xa5;" horiz-adv-x="479" 
d="M216 0v165h-166v34h166v71h-166v33h152l-172 336h48l94 -193q42 -88 66 -137h4q12 23 33.5 68.5t33.5 68.5l94 193h46l-174 -336h154v-33h-168v-71h168v-34h-168v-165h-45z" />
    <glyph glyph-name="brokenbar" unicode="&#xa6;" horiz-adv-x="226" 
d="M95 279v471h36v-471h-36zM95 -250v470h36v-470h-36z" />
    <glyph glyph-name="section" unicode="&#xa7;" horiz-adv-x="479" 
d="M312 181q39 18 57 40t18 60t-24 66.5t-53 42.5t-74 34t-68 35q-38 -22 -57 -45t-19 -59q0 -37 24 -64.5t53.5 -41t74 -33t68.5 -35.5zM381 628l-24 -31q-57 46 -115 46q-47 0 -70.5 -22t-23.5 -54q0 -36 29 -61.5t70 -42.5t82.5 -36.5t70.5 -55.5t29 -87q0 -46 -22 -75.5
t-65 -52.5q34 -34 34 -84q0 -53 -42 -88.5t-101 -35.5q-95 0 -161 63l30 28q57 -54 131 -54q45 0 72.5 24.5t27.5 60.5q0 37 -29 63t-70.5 43t-83.5 36.5t-71 54.5t-29 85q0 83 89 131q-33 33 -33 81q0 47 35 82t100 35q75 0 140 -53z" />
    <glyph glyph-name="dieresis" unicode="&#xa8;" horiz-adv-x="535" 
d="M188 598q-16 0 -26 10.5t-10 26.5q0 15 10 25.5t26 10.5t26.5 -10.5t10.5 -25.5q0 -16 -10.5 -26.5t-26.5 -10.5zM346 598q-16 0 -26.5 10.5t-10.5 26.5q0 15 10.5 25.5t26.5 10.5t26 -10.5t10 -25.5q0 -16 -10 -26.5t-26 -10.5z" />
    <glyph glyph-name="copyright" unicode="&#xa9;" horiz-adv-x="741" 
d="M371 -12q-133 0 -226.5 93t-93.5 241q0 147 93 238.5t227 91.5q133 0 226 -91.5t93 -238.5q0 -148 -93 -241t-226 -93zM371 19q118 0 201 85t83 218q0 132 -83 216t-201 84q-119 0 -202 -84t-83 -216q0 -133 83.5 -218t201.5 -85zM376 124q-74 0 -124.5 53.5t-50.5 144.5
q0 84 53 135.5t127 51.5q65 0 120 -55l-23 -26q-47 44 -98 44q-60 0 -98 -41.5t-38 -108.5q0 -74 36.5 -117.5t97.5 -43.5q60 0 115 50l20 -28q-33 -29 -63 -44t-74 -15z" />
    <glyph glyph-name="ordfeminine" unicode="&#xaa;" horiz-adv-x="337" 
d="M139 261q-43 0 -70 24.5t-27 66.5q0 52 49 80t157 38q-2 92 -70 92q-54 0 -107 -37l-15 27q62 43 126 43q103 0 103 -126v-200h-30l-6 39h-4q-55 -47 -106 -47zM148 293q47 0 100 49v102q-90 -9 -128.5 -31.5t-38.5 -57.5q0 -62 67 -62z" />
    <glyph glyph-name="guillemotleft" unicode="&#xab;" horiz-adv-x="399" 
d="M180 72l-137 161v38l137 161l25 -21l-123 -159l123 -161zM321 72l-137 161v38l137 161l25 -21l-123 -159l123 -161z" />
    <glyph glyph-name="logicalnot" unicode="&#xac;" horiz-adv-x="479" 
d="M404 110v201h-370v38h411v-239h-41z" />
    <glyph glyph-name="uni00AD" unicode="&#xad;" horiz-adv-x="299" 
d="M40 230v39h220v-39h-220z" />
    <glyph glyph-name="registered" unicode="&#xae;" horiz-adv-x="401" 
d="M200 324q-76 0 -129 54t-53 139q0 86 53 140.5t129 54.5q77 0 129.5 -54.5t52.5 -140.5q0 -85 -52.5 -139t-129.5 -54zM200 353q64 0 107.5 46.5t43.5 117.5t-44 119t-107 48t-107 -48t-44 -119t43.5 -117.5t107.5 -46.5zM132 418v206h69q77 0 77 -64q0 -19 -11.5 -35
t-28.5 -21l49 -86h-37l-39 76h-47v-76h-32zM164 521h29q51 0 51 37q0 38 -48 38h-32v-75z" />
    <glyph glyph-name="macron" unicode="&#xaf;" horiz-adv-x="535" 
d="M153 606v36h228v-36h-228z" />
    <glyph glyph-name="degree" unicode="&#xb0;" horiz-adv-x="311" 
d="M156 447q-47 0 -80.5 32.5t-33.5 85.5q0 54 33.5 86.5t80.5 32.5t80.5 -32.5t33.5 -86.5q0 -53 -33.5 -85.5t-80.5 -32.5zM156 479q35 0 57.5 24.5t22.5 61.5q0 38 -22.5 63t-57.5 25t-57.5 -25t-22.5 -63q0 -37 22.5 -61.5t57.5 -24.5z" />
    <glyph glyph-name="plusminus" unicode="&#xb1;" horiz-adv-x="479" 
d="M219 109v201h-185v37h185v203h41v-203h185v-37h-185v-201h-41zM34 0v37h411v-37h-411z" />
    <glyph glyph-name="two.sups" unicode="&#xb2;" horiz-adv-x="362" 
d="M56 440v25q111 103 152 153.5t41 96.5q0 43 -23.5 68t-62.5 25q-51 0 -91 -62l-25 23q19 31 51.5 52t68.5 21q56 0 88.5 -31.5t32.5 -91.5q0 -23 -8.5 -47t-17.5 -40.5t-35.5 -46.5t-40 -43.5l-53.5 -53.5l-14 -14h192v-34h-255z" />
    <glyph glyph-name="three.sups" unicode="&#xb3;" horiz-adv-x="362" 
d="M177 428q-86 0 -137 75l29 22q40 -64 109 -64q38 0 64.5 22.5t26.5 60.5t-37 59t-101 21v28q56 0 89 24.5t33 59.5q0 33 -22.5 53t-60.5 20q-47 0 -89 -52l-25 22q49 63 118 63q50 0 84 -28t34 -75q0 -69 -75 -99q38 -7 64.5 -32.5t26.5 -64.5q0 -53 -37.5 -84t-93.5 -31
z" />
    <glyph glyph-name="acute" unicode="&#xb4;" horiz-adv-x="535" 
d="M212 572l100 156h56l-116 -156h-40z" />
    <glyph glyph-name="uni00B5" unicode="&#xb5;" horiz-adv-x="543" 
d="M92 -180v660h44v-302q0 -150 106 -150q44 0 80 22t75 89v341h44q0 -47 -1 -132t-1.5 -154.5t-0.5 -129.5q0 -37 30 -37q12 0 28 6l8 -36q-20 -9 -42 -9q-35 0 -49 23.5t-14 77.5h-3q-59 -100 -151 -100q-40 0 -67.5 13t-45.5 47q0 -148 5 -229h-45z" />
    <glyph glyph-name="paragraph" unicode="&#xb6;" horiz-adv-x="515" 
d="M373 -80v739h46v-739h-46zM291 244q-117 0 -183 50t-66 157q0 108 62 158t171 50h44v-415h-28z" />
    <glyph glyph-name="periodcentered" unicode="&#xb7;" horiz-adv-x="219" 
d="M110 277q-17 0 -30 12.5t-13 32.5q0 21 13 33.5t30 12.5t29.5 -12.5t12.5 -33.5q0 -20 -12.5 -32.5t-29.5 -12.5z" />
    <glyph glyph-name="cedilla" unicode="&#xb8;" horiz-adv-x="535" 
d="M199 -208l-7 30q63 4 88 17t25 36q0 22 -18 33.5t-60 17.5l41 76h35l-30 -56q71 -18 71 -69q0 -76 -145 -85z" />
    <glyph glyph-name="one.sups" unicode="&#xb9;" horiz-adv-x="362" 
d="M176 440v324h-82v27q53 11 87 39h33v-390h-38z" />
    <glyph glyph-name="ordmasculine" unicode="&#xba;" horiz-adv-x="360" 
d="M179 261q-63 0 -104.5 45t-41.5 122t41.5 122t104.5 45t104.5 -45t41.5 -122t-41.5 -122t-104.5 -45zM179 294q48 0 77.5 37t29.5 97t-29 97t-78 37q-48 0 -77.5 -37t-29.5 -97q0 -59 29.5 -96.5t77.5 -37.5z" />
    <glyph glyph-name="guillemotright" unicode="&#xbb;" horiz-adv-x="399" 
d="M78 72l-24 19l122 161l-122 159l24 21l138 -161v-38zM219 72l-24 19l122 161l-122 159l24 21l138 -161v-38z" />
    <glyph glyph-name="onequarter" unicode="&#xbc;" horiz-adv-x="764" 
d="M193 269h-38v324h-82v27q53 11 87 39h33v-390zM545 671h38l-367 -683h-39zM496 146h129v87l4 104h-4l-56 -83zM719 146v-32h-58v-114h-36v114h-177v21l177 255h36v-244h58z" />
    <glyph glyph-name="onehalf" unicode="&#xbd;" horiz-adv-x="786" 
d="M155 269v324h-82v27q53 11 87 39h33v-390h-38zM480 0v25q111 103 152 153.5t41 96.5q0 43 -23.5 68t-62.5 25q-51 0 -91 -62l-25 23q19 31 51.5 52t68.5 21q56 0 88.5 -31.5t32.5 -91.5q0 -23 -8.5 -47t-17.5 -40.5t-35.5 -46.5t-40 -43.5l-53.5 -53.5l-14 -14h192v-34
h-255zM154 -12l368 683h38l-367 -683h-39z" />
    <glyph glyph-name="threequarters" unicode="&#xbe;" horiz-adv-x="783" 
d="M81 586l-25 22q49 63 118 63q50 0 84 -28t34 -75q0 -69 -75 -99q38 -7 64.5 -32.5t26.5 -64.5q0 -53 -37.5 -84t-93.5 -31q-86 0 -137 75l29 22q40 -64 109 -64q38 0 64.5 22.5t26.5 60.5t-37 59t-101 21v28q56 0 89 24.5t33 59.5q0 33 -22.5 53t-60.5 20q-47 0 -89 -52z
M592 671h38l-367 -683h-39zM515 146h129v87l4 104h-4l-56 -83zM738 146v-32h-58v-114h-36v114h-177v21l177 255h36v-244h58z" />
    <glyph glyph-name="questiondown" unicode="&#xbf;" horiz-adv-x="402" 
d="M206 -202q-72 0 -113.5 43t-41.5 110q0 37 17 73t40.5 66t46.5 60.5t36 69.5t8 81h41q6 -46 -6.5 -87t-35 -72t-45.5 -59.5t-40 -62t-17 -66.5q0 -50 29 -83.5t85 -33.5q75 0 128 64l28 -25q-71 -78 -160 -78zM216 401q-17 0 -29.5 12.5t-12.5 34.5q0 20 12.5 32t29.5 12
t29.5 -12t12.5 -32q0 -22 -12.5 -34.5t-29.5 -12.5z" />
    <glyph glyph-name="Agrave" unicode="&#xc0;" horiz-adv-x="526" 
d="M301 709h-42l-112 111h61zM146 265h234l-42 123q-46 133 -73 228h-4q-27 -95 -73 -228zM470 0l-77 226h-261l-78 -226h-46l232 659h46l232 -659h-48z" />
    <glyph glyph-name="Aacute" unicode="&#xc1;" horiz-adv-x="526" 
d="M379 820l-112 -111h-42l93 111h61zM146 265h234l-42 123q-46 133 -73 228h-4q-27 -95 -73 -228zM470 0l-77 226h-261l-78 -226h-46l232 659h46l232 -659h-48z" />
    <glyph glyph-name="Acircumflex" unicode="&#xc2;" horiz-adv-x="526" 
d="M261 785l-75 -76h-41l96 111h44l96 -111h-41l-75 76h-4zM146 265h234l-42 123q-46 133 -73 228h-4q-27 -95 -73 -228zM470 0l-77 226h-261l-78 -226h-46l232 659h46l232 -659h-48z" />
    <glyph glyph-name="Atilde" unicode="&#xc3;" horiz-adv-x="526" 
d="M368 808h33q-2 -37 -23 -64.5t-54 -27.5q-29 0 -67 28t-56 28q-17 0 -28.5 -15.5t-14.5 -40.5h-33q2 37 23 64.5t54 27.5q29 0 67 -28t56 -28q17 0 28.5 15.5t14.5 40.5zM146 265h234l-42 123q-46 133 -73 228h-4q-27 -95 -73 -228zM470 0l-77 226h-261l-78 -226h-46
l232 659h46l232 -659h-48z" />
    <glyph glyph-name="Adieresis" unicode="&#xc4;" horiz-adv-x="526" 
d="M342 725q-16 0 -26.5 10t-10.5 26q0 17 10.5 27t26.5 10t26 -10t10 -27q0 -16 -10 -26t-26 -10zM184 725q-16 0 -26 10t-10 26q0 17 10 27t26 10t26.5 -10t10.5 -27q0 -16 -10.5 -26t-26.5 -10zM146 265h234l-42 123q-46 133 -73 228h-4q-27 -95 -73 -228zM470 0l-77 226
h-261l-78 -226h-46l232 659h46l232 -659h-48z" />
    <glyph glyph-name="Aring" unicode="&#xc5;" horiz-adv-x="526" 
d="M263 838q-22 0 -37 -15t-15 -41q0 -27 14.5 -41.5t37.5 -14.5q21 0 36 15t15 41q0 25 -15 40.5t-36 15.5zM263 700q-36 0 -59 22.5t-23 59.5q0 36 23 59t59 23q34 0 58 -23t24 -59q0 -37 -23.5 -59.5t-58.5 -22.5zM146 265h234l-42 123q-46 133 -73 228h-4
q-27 -95 -73 -228zM470 0l-77 226h-261l-78 -226h-46l232 659h46l232 -659h-48z" />
    <glyph glyph-name="AE" unicode="&#xc6;" horiz-adv-x="809" 
d="M210 255h201v364h-4q-29 -53 -124 -231zM457 40h305v-40h-351v217h-222l-119 -217h-49l365 659h366v-40h-295v-249h245v-40h-245v-290z" />
    <glyph glyph-name="Ccedilla" unicode="&#xc7;" horiz-adv-x="564" 
d="M500 111l27 -29q-73 -82 -168 -93l-23 -43q71 -18 71 -69q0 -76 -145 -85l-7 30q63 4 88 17t25 36q0 22 -18 33.5t-60 17.5l33 62q-120 3 -194 96t-74 247q0 156 77.5 248t203.5 92q105 0 172 -79l-27 -31q-60 68 -144 68q-109 0 -171.5 -80t-62.5 -218t62 -219.5
t168 -81.5q94 0 167 81z" />
    <glyph glyph-name="Egrave" unicode="&#xc8;" horiz-adv-x="515" 
d="M97 0v659h361v-40h-315v-249h264v-40h-264v-290h325v-40h-371zM278 709l-112 111h61l93 -111h-42z" />
    <glyph glyph-name="Eacute" unicode="&#xc9;" horiz-adv-x="515" 
d="M97 0v659h361v-40h-315v-249h264v-40h-264v-290h325v-40h-371zM244 709l93 111h61l-112 -111h-42z" />
    <glyph glyph-name="Ecircumflex" unicode="&#xca;" horiz-adv-x="515" 
d="M164 709l96 111h44l96 -111h-41l-75 76h-4l-75 -76h-41zM97 0v659h361v-40h-315v-249h264v-40h-264v-290h325v-40h-371z" />
    <glyph glyph-name="Edieresis" unicode="&#xcb;" horiz-adv-x="515" 
d="M203 725q-16 0 -26 10t-10 26q0 17 10 27t26 10t26.5 -10t10.5 -27q0 -16 -10.5 -26t-26.5 -10zM361 725q-16 0 -26.5 10t-10.5 26q0 17 10.5 27t26.5 10t26 -10t10 -27q0 -16 -10 -26t-26 -10zM97 0v659h361v-40h-315v-249h264v-40h-264v-290h325v-40h-371z" />
    <glyph glyph-name="Igrave" unicode="&#xcc;" horiz-adv-x="240" 
d="M97 0v659h46v-659h-46zM116 709l-112 111h61l93 -111h-42z" />
    <glyph glyph-name="Iacute" unicode="&#xcd;" horiz-adv-x="240" 
d="M97 0v659h46v-659h-46zM82 709l93 111h61l-112 -111h-42z" />
    <glyph glyph-name="Icircumflex" unicode="&#xce;" horiz-adv-x="240" 
d="M97 0v659h46v-659h-46zM2 709l96 111h44l96 -111h-41l-75 76h-4l-75 -76h-41z" />
    <glyph glyph-name="Idieresis" unicode="&#xcf;" horiz-adv-x="240" 
d="M97 0v659h46v-659h-46zM41 725q-16 0 -26 10t-10 26q0 17 10 27t26 10t26.5 -10t10.5 -27q0 -16 -10.5 -26t-26.5 -10zM199 725q-16 0 -26.5 10t-10.5 26q0 17 10.5 27t26.5 10t26 -10t10 -27q0 -16 -10 -26t-26 -10z" />
    <glyph glyph-name="Eth" unicode="&#xd0;" horiz-adv-x="625" 
d="M164 39h102q129 0 192.5 79t63.5 214q0 134 -63.5 211t-192.5 77h-102v-255h163v-33h-163v-293zM118 659h153q148 0 223.5 -86.5t75.5 -240.5q0 -155 -75.5 -243.5t-222.5 -88.5h-154v332h-81v31l81 2v294z" />
    <glyph glyph-name="Ntilde" unicode="&#xd1;" horiz-adv-x="636" 
d="M384 716q-29 0 -67 28t-56 28q-17 0 -28.5 -15.5t-14.5 -40.5h-33q2 37 23 64.5t54 27.5q29 0 67 -28t56 -28q17 0 28.5 15.5t14.5 40.5h33q-2 -37 -23 -64.5t-54 -27.5zM97 0v659h48l278 -465l74 -131h4l-6 192v404h44v-659h-48l-278 465l-74 131h-4q1 -21 2.5 -58.5
t2.5 -69t1 -59.5v-409h-44z" />
    <glyph glyph-name="Ograve" unicode="&#xd2;" horiz-adv-x="652" 
d="M322 709l-112 111h61l93 -111h-42zM326 -12q-120 0 -195.5 94.5t-75.5 249.5q0 154 75.5 246.5t195.5 92.5q121 0 196.5 -92.5t75.5 -246.5q0 -155 -76 -249.5t-196 -94.5zM326 30q101 0 162 82.5t61 219.5q0 136 -61 216.5t-162 80.5t-162 -80.5t-61 -216.5
q0 -137 61 -219.5t162 -82.5z" />
    <glyph glyph-name="Oacute" unicode="&#xd3;" horiz-adv-x="652" 
d="M288 709l93 111h61l-112 -111h-42zM326 -12q-120 0 -195.5 94.5t-75.5 249.5q0 154 75.5 246.5t195.5 92.5q121 0 196.5 -92.5t75.5 -246.5q0 -155 -76 -249.5t-196 -94.5zM326 30q101 0 162 82.5t61 219.5q0 136 -61 216.5t-162 80.5t-162 -80.5t-61 -216.5
q0 -137 61 -219.5t162 -82.5z" />
    <glyph glyph-name="Ocircumflex" unicode="&#xd4;" horiz-adv-x="652" 
d="M208 709l96 111h44l96 -111h-41l-75 76h-4l-75 -76h-41zM326 -12q-120 0 -195.5 94.5t-75.5 249.5q0 154 75.5 246.5t195.5 92.5q121 0 196.5 -92.5t75.5 -246.5q0 -155 -76 -249.5t-196 -94.5zM326 30q101 0 162 82.5t61 219.5q0 136 -61 216.5t-162 80.5t-162 -80.5
t-61 -216.5q0 -137 61 -219.5t162 -82.5z" />
    <glyph glyph-name="Otilde" unicode="&#xd5;" horiz-adv-x="652" 
d="M326 -12q-120 0 -195.5 94.5t-75.5 249.5q0 154 75.5 246.5t195.5 92.5q121 0 196.5 -92.5t75.5 -246.5q0 -155 -76 -249.5t-196 -94.5zM326 30q101 0 162 82.5t61 219.5q0 136 -61 216.5t-162 80.5t-162 -80.5t-61 -216.5q0 -137 61 -219.5t162 -82.5zM387 716
q-29 0 -67 28t-56 28q-17 0 -28.5 -15.5t-14.5 -40.5h-33q2 37 23 64.5t54 27.5q29 0 67 -28t56 -28q17 0 28.5 15.5t14.5 40.5h33q-2 -37 -23 -64.5t-54 -27.5z" />
    <glyph glyph-name="Odieresis" unicode="&#xd6;" horiz-adv-x="652" 
d="M247 725q-16 0 -26 10t-10 26q0 17 10 27t26 10t26.5 -10t10.5 -27q0 -16 -10.5 -26t-26.5 -10zM405 725q-16 0 -26.5 10t-10.5 26q0 17 10.5 27t26.5 10t26 -10t10 -27q0 -16 -10 -26t-26 -10zM326 -12q-120 0 -195.5 94.5t-75.5 249.5q0 154 75.5 246.5t195.5 92.5
q121 0 196.5 -92.5t75.5 -246.5q0 -155 -76 -249.5t-196 -94.5zM326 30q101 0 162 82.5t61 219.5q0 136 -61 216.5t-162 80.5t-162 -80.5t-61 -216.5q0 -137 61 -219.5t162 -82.5z" />
    <glyph glyph-name="multiply" unicode="&#xd7;" horiz-adv-x="479" 
d="M78 135l-26 28l161 167l-161 167l26 28l161 -169l162 169l26 -28l-161 -167l161 -167l-26 -28l-162 168z" />
    <glyph glyph-name="Oslash" unicode="&#xd8;" horiz-adv-x="652" 
d="M501 535l-324 -434q60 -71 153 -71q101 0 162 82.5t61 219.5q0 123 -52 203zM155 132l323 433q-59 64 -148 64q-101 0 -162 -80.5t-61 -216.5q0 -121 48 -200zM595 660l-65 -86q72 -92 72 -242q0 -155 -76 -249.5t-196 -94.5q-106 0 -180 77l-66 -88l-28 22l70 94
q-67 94 -67 239q0 154 75.5 246.5t195.5 92.5q103 0 176 -70l60 81z" />
    <glyph glyph-name="Ugrave" unicode="&#xd9;" horiz-adv-x="634" 
d="M316 -12q-45 0 -82.5 13t-70 42t-50.5 82.5t-18 127.5v406h46v-401q0 -122 48.5 -175t126.5 -53q80 0 130 53t50 175v401h43v-406q0 -74 -18.5 -127.5t-51 -82.5t-70 -42t-83.5 -13zM313 709l-112 111h61l93 -111h-42z" />
    <glyph glyph-name="Uacute" unicode="&#xda;" horiz-adv-x="634" 
d="M316 -12q-45 0 -82.5 13t-70 42t-50.5 82.5t-18 127.5v406h46v-401q0 -122 48.5 -175t126.5 -53q80 0 130 53t50 175v401h43v-406q0 -74 -18.5 -127.5t-51 -82.5t-70 -42t-83.5 -13zM279 709l93 111h61l-112 -111h-42z" />
    <glyph glyph-name="Ucircumflex" unicode="&#xdb;" horiz-adv-x="634" 
d="M199 709l96 111h44l96 -111h-41l-75 76h-4l-75 -76h-41zM316 -12q-45 0 -82.5 13t-70 42t-50.5 82.5t-18 127.5v406h46v-401q0 -122 48.5 -175t126.5 -53q80 0 130 53t50 175v401h43v-406q0 -74 -18.5 -127.5t-51 -82.5t-70 -42t-83.5 -13z" />
    <glyph glyph-name="Udieresis" unicode="&#xdc;" horiz-adv-x="634" 
d="M238 725q-16 0 -26 10t-10 26q0 17 10 27t26 10t26.5 -10t10.5 -27q0 -16 -10.5 -26t-26.5 -10zM396 725q-16 0 -26.5 10t-10.5 26q0 17 10.5 27t26.5 10t26 -10t10 -27q0 -16 -10 -26t-26 -10zM316 -12q-45 0 -82.5 13t-70 42t-50.5 82.5t-18 127.5v406h46v-401
q0 -122 48.5 -175t126.5 -53q80 0 130 53t50 175v401h43v-406q0 -74 -18.5 -127.5t-51 -82.5t-70 -42t-83.5 -13z" />
    <glyph glyph-name="Yacute" unicode="&#xdd;" horiz-adv-x="447" 
d="M200 0v267l-197 392h49l100 -206q53 -111 70 -142h4q55 106 71 142l100 206h47l-198 -392v-267h-46zM185 709l93 111h61l-112 -111h-42z" />
    <glyph glyph-name="Thorn" unicode="&#xde;" horiz-adv-x="563" 
d="M97 0v659h46v-117h134q115 0 175 -43t60 -141q0 -95 -61.5 -143.5t-173.5 -48.5h-134v-166h-46zM143 205h123q102 0 150.5 36.5t48.5 116.5t-47.5 112.5t-151.5 32.5h-123v-298z" />
    <glyph glyph-name="germandbls" unicode="&#xdf;" horiz-adv-x="542" 
d="M367 -12q-73 0 -136 51l22 33q56 -46 114 -46q48 0 74.5 29t26.5 70q0 38 -21.5 64.5t-52 42t-61.5 31.5t-52.5 43t-21.5 67q0 32 15.5 62t33.5 49.5t33.5 48t15.5 58.5q0 45 -24.5 72.5t-70.5 27.5q-59 0 -92.5 -43.5t-33.5 -130.5v-517h-44v532q0 91 46.5 144t124.5 53
q64 0 101.5 -38t37.5 -96q0 -35 -15.5 -66.5t-34 -51.5t-34 -47t-15.5 -53q0 -31 21.5 -53t52.5 -37t62 -32t52.5 -49.5t21.5 -78.5q0 -60 -41.5 -99.5t-104.5 -39.5z" />
    <glyph glyph-name="agrave" unicode="&#xe0;" horiz-adv-x="491" 
d="M197 -12q-61 0 -100 33.5t-39 98.5q0 79 73.5 121t236.5 60q2 152 -114 152q-76 0 -153 -56l-20 33q88 62 179 62q80 0 116 -50.5t36 -134.5v-307h-38l-4 62h-3q-93 -74 -170 -74zM205 26q71 0 163 78v163q-144 -17 -204.5 -51.5t-60.5 -93.5q0 -49 28.5 -72.5
t73.5 -23.5zM270 572l-116 156h56l100 -156h-40z" />
    <glyph glyph-name="aacute" unicode="&#xe1;" horiz-adv-x="491" 
d="M197 -12q-61 0 -100 33.5t-39 98.5q0 79 73.5 121t236.5 60q2 152 -114 152q-76 0 -153 -56l-20 33q88 62 179 62q80 0 116 -50.5t36 -134.5v-307h-38l-4 62h-3q-93 -74 -170 -74zM205 26q71 0 163 78v163q-144 -17 -204.5 -51.5t-60.5 -93.5q0 -49 28.5 -72.5
t73.5 -23.5zM200 572l100 156h56l-116 -156h-40z" />
    <glyph glyph-name="acircumflex" unicode="&#xe2;" horiz-adv-x="491" 
d="M197 -12q-61 0 -100 33.5t-39 98.5q0 79 73.5 121t236.5 60q2 152 -114 152q-76 0 -153 -56l-20 33q88 62 179 62q80 0 116 -50.5t36 -134.5v-307h-38l-4 62h-3q-93 -74 -170 -74zM205 26q71 0 163 78v163q-144 -17 -204.5 -51.5t-60.5 -93.5q0 -49 28.5 -72.5
t73.5 -23.5zM129 572l105 156h42l105 -156h-39l-85 118h-4l-85 -118h-39z" />
    <glyph glyph-name="atilde" unicode="&#xe3;" horiz-adv-x="491" 
d="M197 -12q-61 0 -100 33.5t-39 98.5q0 79 73.5 121t236.5 60q2 152 -114 152q-76 0 -153 -56l-20 33q88 62 179 62q80 0 116 -50.5t36 -134.5v-307h-38l-4 62h-3q-93 -74 -170 -74zM205 26q71 0 163 78v163q-144 -17 -204.5 -51.5t-60.5 -93.5q0 -49 28.5 -72.5
t73.5 -23.5zM312 572q-26 0 -62.5 32t-52.5 32q-37 0 -45 -64h-34q3 41 23 70.5t57 29.5q26 0 63 -32.5t52 -32.5q37 0 45 64h34q-3 -40 -23 -69.5t-57 -29.5z" />
    <glyph glyph-name="adieresis" unicode="&#xe4;" horiz-adv-x="491" 
d="M197 -12q-61 0 -100 33.5t-39 98.5q0 79 73.5 121t236.5 60q2 152 -114 152q-76 0 -153 -56l-20 33q88 62 179 62q80 0 116 -50.5t36 -134.5v-307h-38l-4 62h-3q-93 -74 -170 -74zM205 26q71 0 163 78v163q-144 -17 -204.5 -51.5t-60.5 -93.5q0 -49 28.5 -72.5
t73.5 -23.5zM176 598q-16 0 -26 10.5t-10 26.5q0 15 10 25.5t26 10.5t26.5 -10.5t10.5 -25.5q0 -16 -10.5 -26.5t-26.5 -10.5zM334 598q-16 0 -26.5 10.5t-10.5 26.5q0 15 10.5 25.5t26.5 10.5t26 -10.5t10 -25.5q0 -16 -10 -26.5t-26 -10.5z" />
    <glyph glyph-name="aring" unicode="&#xe5;" horiz-adv-x="491" 
d="M197 -12q-61 0 -100 33.5t-39 98.5q0 79 73.5 121t236.5 60q2 152 -114 152q-76 0 -153 -56l-20 33q88 62 179 62q80 0 116 -50.5t36 -134.5v-307h-38l-4 62h-3q-93 -74 -170 -74zM205 26q71 0 163 78v163q-144 -17 -204.5 -51.5t-60.5 -93.5q0 -49 28.5 -72.5
t73.5 -23.5zM255 539q-36 0 -59 24t-23 62q0 39 23 63t59 24t59 -24t23 -63q0 -38 -23 -62t-59 -24zM255 565q22 0 37 16.5t15 43.5t-15 44t-37 17t-37 -17t-15 -44t15 -43.5t37 -16.5z" />
    <glyph glyph-name="ae" unicode="&#xe6;" horiz-adv-x="784" 
d="M205 -12q-61 0 -100.5 33.5t-39.5 97.5q0 79 73.5 121.5t231.5 60.5q2 152 -113 152q-73 0 -148 -56l-20 33q88 62 172 62q57 0 92.5 -31.5t47.5 -88.5q27 56 71 88t96 32q84 0 131 -58t47 -164q0 -24 -2 -36h-332q0 -90 49 -148.5t122 -58.5q65 0 125 43l19 -35
q-25 -15 -40.5 -23t-45 -16t-62.5 -8q-101 0 -172 99q-47 -45 -102 -72t-100 -27zM212 26q40 0 89.5 25t89.5 68q-21 43 -21 121l-1 27q-138 -17 -198 -51.5t-60 -93.5q0 -49 28 -72.5t73 -23.5zM412 268h293q0 91 -36.5 138.5t-101.5 47.5q-60 0 -104 -52t-51 -134z" />
    <glyph glyph-name="ccedilla" unicode="&#xe7;" horiz-adv-x="449" 
d="M285 -11l-23 -43q71 -18 71 -69q0 -76 -145 -85l-7 30q63 4 88 17t25 36q0 22 -18 33.5t-60 17.5l34 63q-88 7 -143 73.5t-55 176.5q0 116 63.5 184.5t155.5 68.5q76 0 141 -59l-26 -31q-55 51 -114 51q-74 0 -124 -60t-50 -154q0 -95 48 -153.5t126 -58.5q68 0 128 55
l23 -31q-67 -58 -138 -62z" />
    <glyph glyph-name="egrave" unicode="&#xe8;" horiz-adv-x="483" 
d="M276 572l-116 156h56l100 -156h-40zM274 -12q-95 0 -158.5 68t-63.5 183q0 113 62.5 183t146.5 70q86 0 135 -58.5t49 -163.5q0 -24 -2 -36h-346q2 -92 51.5 -150t129.5 -58q69 0 129 43l18 -34q-78 -47 -151 -47zM97 270h306q0 90 -37.5 137t-103.5 47q-64 0 -111 -50
t-54 -134z" />
    <glyph glyph-name="eacute" unicode="&#xe9;" horiz-adv-x="483" 
d="M206 572l100 156h56l-116 -156h-40zM274 -12q-95 0 -158.5 68t-63.5 183q0 113 62.5 183t146.5 70q86 0 135 -58.5t49 -163.5q0 -24 -2 -36h-346q2 -92 51.5 -150t129.5 -58q69 0 129 43l18 -34q-78 -47 -151 -47zM97 270h306q0 90 -37.5 137t-103.5 47q-64 0 -111 -50
t-54 -134z" />
    <glyph glyph-name="ecircumflex" unicode="&#xea;" horiz-adv-x="483" 
d="M135 572l105 156h42l105 -156h-39l-85 118h-4l-85 -118h-39zM274 -12q-95 0 -158.5 68t-63.5 183q0 113 62.5 183t146.5 70q86 0 135 -58.5t49 -163.5q0 -24 -2 -36h-346q2 -92 51.5 -150t129.5 -58q69 0 129 43l18 -34q-78 -47 -151 -47zM97 270h306q0 90 -37.5 137
t-103.5 47q-64 0 -111 -50t-54 -134z" />
    <glyph glyph-name="edieresis" unicode="&#xeb;" horiz-adv-x="483" 
d="M274 -12q-95 0 -158.5 68t-63.5 183q0 113 62.5 183t146.5 70q86 0 135 -58.5t49 -163.5q0 -24 -2 -36h-346q2 -92 51.5 -150t129.5 -58q69 0 129 43l18 -34q-78 -47 -151 -47zM97 270h306q0 90 -37.5 137t-103.5 47q-64 0 -111 -50t-54 -134zM182 598q-16 0 -26 10.5
t-10 26.5q0 15 10 25.5t26 10.5t26.5 -10.5t10.5 -25.5q0 -16 -10.5 -26.5t-26.5 -10.5zM340 598q-16 0 -26.5 10.5t-10.5 26.5q0 15 10.5 25.5t26.5 10.5t26 -10.5t10 -25.5q0 -16 -10 -26.5t-26 -10.5z" />
    <glyph glyph-name="igrave" unicode="&#xec;" horiz-adv-x="229" 
d="M129 572l-116 156h56l100 -156h-40zM92 0v480h44v-480h-44z" />
    <glyph glyph-name="iacute" unicode="&#xed;" horiz-adv-x="229" 
d="M59 572l100 156h56l-116 -156h-40zM92 0v480h44v-480h-44z" />
    <glyph glyph-name="icircumflex" unicode="&#xee;" horiz-adv-x="229" 
d="M-12 572l105 156h42l105 -156h-39l-85 118h-4l-85 -118h-39zM92 0v480h44v-480h-44z" />
    <glyph glyph-name="idieresis" unicode="&#xef;" horiz-adv-x="229" 
d="M92 0v480h44v-480h-44zM35 598q-16 0 -26 10.5t-10 26.5q0 15 10 25.5t26 10.5t26.5 -10.5t10.5 -25.5q0 -16 -10.5 -26.5t-26.5 -10.5zM193 598q-16 0 -26.5 10.5t-10.5 26.5q0 15 10.5 25.5t26.5 10.5t26 -10.5t10 -25.5q0 -16 -10 -26.5t-26 -10.5z" />
    <glyph glyph-name="eth" unicode="&#xf0;" horiz-adv-x="535" 
d="M267 27q78 0 118 62.5t40 161.5q0 32 -3 62q-62 91 -153 91q-78 0 -121.5 -53t-43.5 -132q0 -83 47.5 -137.5t115.5 -54.5zM468 676l-133 -69q135 -138 135 -355q0 -119 -56 -191.5t-147 -72.5q-84 0 -145.5 63.5t-61.5 167.5q0 99 57.5 161t149.5 62q90 0 148 -76
q-24 132 -116 222l-142 -73l-15 27l132 68q-48 41 -123 84l22 30q80 -42 138 -95l142 74z" />
    <glyph glyph-name="ntilde" unicode="&#xf1;" horiz-adv-x="532" 
d="M340 572q-26 0 -62.5 32t-52.5 32q-37 0 -45 -64h-34q3 41 23 70.5t57 29.5q26 0 63 -32.5t52 -32.5q37 0 45 64h34q-3 -40 -23 -69.5t-57 -29.5zM92 0v480h38l4 -74h3q86 86 165 86q74 0 109.5 -45.5t35.5 -138.5v-308h-44v302q0 77 -26 113.5t-84 36.5q-41 0 -75.5 -21
t-81.5 -69v-362h-44z" />
    <glyph glyph-name="ograve" unicode="&#xf2;" horiz-adv-x="535" 
d="M282 572l-116 156h56l100 -156h-40zM267 -12q-90 0 -152.5 68t-62.5 183q0 116 62.5 184.5t152.5 68.5q91 0 153.5 -68.5t62.5 -184.5q0 -115 -62.5 -183t-153.5 -68zM267 27q73 0 121.5 59t48.5 153t-48.5 154t-121.5 60t-121 -59.5t-48 -154.5q0 -94 48 -153t121 -59z
" />
    <glyph glyph-name="oacute" unicode="&#xf3;" horiz-adv-x="535" 
d="M212 572l100 156h56l-116 -156h-40zM267 -12q-90 0 -152.5 68t-62.5 183q0 116 62.5 184.5t152.5 68.5q91 0 153.5 -68.5t62.5 -184.5q0 -115 -62.5 -183t-153.5 -68zM267 27q73 0 121.5 59t48.5 153t-48.5 154t-121.5 60t-121 -59.5t-48 -154.5q0 -94 48 -153t121 -59z
" />
    <glyph glyph-name="ocircumflex" unicode="&#xf4;" horiz-adv-x="535" 
d="M141 572l105 156h42l105 -156h-39l-85 118h-4l-85 -118h-39zM267 -12q-90 0 -152.5 68t-62.5 183q0 116 62.5 184.5t152.5 68.5q91 0 153.5 -68.5t62.5 -184.5q0 -115 -62.5 -183t-153.5 -68zM267 27q73 0 121.5 59t48.5 153t-48.5 154t-121.5 60t-121 -59.5t-48 -154.5
q0 -94 48 -153t121 -59z" />
    <glyph glyph-name="otilde" unicode="&#xf5;" horiz-adv-x="535" 
d="M324 572q-26 0 -62.5 32t-52.5 32q-37 0 -45 -64h-34q3 41 23 70.5t57 29.5q26 0 63 -32.5t52 -32.5q37 0 45 64h34q-3 -40 -23 -69.5t-57 -29.5zM267 -12q-90 0 -152.5 68t-62.5 183q0 116 62.5 184.5t152.5 68.5q91 0 153.5 -68.5t62.5 -184.5q0 -115 -62.5 -183
t-153.5 -68zM267 27q73 0 121.5 59t48.5 153t-48.5 154t-121.5 60t-121 -59.5t-48 -154.5q0 -94 48 -153t121 -59z" />
    <glyph glyph-name="odieresis" unicode="&#xf6;" horiz-adv-x="535" 
d="M188 598q-16 0 -26 10.5t-10 26.5q0 15 10 25.5t26 10.5t26.5 -10.5t10.5 -25.5q0 -16 -10.5 -26.5t-26.5 -10.5zM346 598q-16 0 -26.5 10.5t-10.5 26.5q0 15 10.5 25.5t26.5 10.5t26 -10.5t10 -25.5q0 -16 -10 -26.5t-26 -10.5zM267 -12q-90 0 -152.5 68t-62.5 183
q0 116 62.5 184.5t152.5 68.5q91 0 153.5 -68.5t62.5 -184.5q0 -115 -62.5 -183t-153.5 -68zM267 27q73 0 121.5 59t48.5 153t-48.5 154t-121.5 60t-121 -59.5t-48 -154.5q0 -94 48 -153t121 -59z" />
    <glyph glyph-name="divide" unicode="&#xf7;" horiz-adv-x="479" 
d="M34 311v38h411v-38h-411zM239 109q-16 0 -27 11.5t-11 29.5q0 17 11 28t27 11q17 0 27.5 -11t10.5 -28q0 -19 -10.5 -30t-27.5 -11zM239 469q-16 0 -27 11.5t-11 29.5q0 17 11 28t27 11q17 0 27.5 -11t10.5 -28q0 -19 -10.5 -30t-27.5 -11z" />
    <glyph glyph-name="oslash" unicode="&#xf8;" horiz-adv-x="535" 
d="M402 376l-249 -300q47 -50 114 -50q74 0 122.5 59.5t48.5 152.5q0 82 -36 138zM133 103l249 300q-46 51 -115 51q-73 0 -121.5 -60t-48.5 -154q0 -81 36 -137zM489 480l-58 -69q52 -70 52 -172q0 -115 -62.5 -183t-153.5 -68q-82 0 -141 56l-54 -66l-26 21l58 70
q-52 68 -52 170q0 116 62.5 184.5t152.5 68.5q83 0 142 -56l54 65z" />
    <glyph glyph-name="ugrave" unicode="&#xf9;" horiz-adv-x="529" 
d="M280 572l-116 156h56l100 -156h-40zM230 -12q-74 0 -109.5 45.5t-35.5 138.5v308h44v-302q0 -77 26 -113.5t83 -36.5q42 0 77 23t78 75v354h44v-480h-37l-5 80h-2q-79 -92 -163 -92z" />
    <glyph glyph-name="uacute" unicode="&#xfa;" horiz-adv-x="529" 
d="M210 572l100 156h56l-116 -156h-40zM230 -12q-74 0 -109.5 45.5t-35.5 138.5v308h44v-302q0 -77 26 -113.5t83 -36.5q42 0 77 23t78 75v354h44v-480h-37l-5 80h-2q-79 -92 -163 -92z" />
    <glyph glyph-name="ucircumflex" unicode="&#xfb;" horiz-adv-x="529" 
d="M139 572l105 156h42l105 -156h-39l-85 118h-4l-85 -118h-39zM230 -12q-74 0 -109.5 45.5t-35.5 138.5v308h44v-302q0 -77 26 -113.5t83 -36.5q42 0 77 23t78 75v354h44v-480h-37l-5 80h-2q-79 -92 -163 -92z" />
    <glyph glyph-name="udieresis" unicode="&#xfc;" horiz-adv-x="529" 
d="M230 -12q-74 0 -109.5 45.5t-35.5 138.5v308h44v-302q0 -77 26 -113.5t83 -36.5q42 0 77 23t78 75v354h44v-480h-37l-5 80h-2q-79 -92 -163 -92zM186 598q-16 0 -26 10.5t-10 26.5q0 15 10 25.5t26 10.5t26.5 -10.5t10.5 -25.5q0 -16 -10.5 -26.5t-26.5 -10.5zM344 598
q-16 0 -26.5 10.5t-10.5 26.5q0 15 10.5 25.5t26.5 10.5t26 -10.5t10 -25.5q0 -16 -10 -26.5t-26 -10.5z" />
    <glyph glyph-name="yacute" unicode="&#xfd;" horiz-adv-x="436" 
d="M73 -219q-27 0 -49 10l10 39q20 -8 39 -8q81 0 123 127l13 42l-197 489h48l116 -302q38 -101 52 -134h4q5 14 44 134l103 302h45l-190 -540q-53 -159 -161 -159zM174 572l100 156h56l-116 -156h-40z" />
    <glyph glyph-name="thorn" unicode="&#xfe;" horiz-adv-x="544" 
d="M92 -217v936h44v-207v-91q92 71 163 71q95 0 144 -65t49 -180q0 -118 -62 -188.5t-150 -70.5q-66 0 -144 58v-88v-175h-44zM278 27q73 0 120 61.5t47 158.5q0 95 -37 150.5t-115 55.5q-67 0 -157 -79v-285q76 -62 142 -62z" />
    <glyph glyph-name="ydieresis" unicode="&#xff;" horiz-adv-x="436" 
d="M73 -219q-27 0 -49 10l10 39q20 -8 39 -8q81 0 123 127l13 42l-197 489h48l116 -302q38 -101 52 -134h4q5 14 44 134l103 302h45l-190 -540q-53 -159 -161 -159zM150 598q-16 0 -26 10.5t-10 26.5q0 15 10 25.5t26 10.5t26.5 -10.5t10.5 -25.5q0 -16 -10.5 -26.5
t-26.5 -10.5zM308 598q-16 0 -26.5 10.5t-10.5 26.5q0 15 10.5 25.5t26.5 10.5t26 -10.5t10 -25.5q0 -16 -10 -26.5t-26 -10.5z" />
    <glyph glyph-name="Amacron" unicode="&#x100;" horiz-adv-x="526" 
d="M377 779v-36h-228v36h228zM146 265h234l-42 123q-46 133 -73 228h-4q-27 -95 -73 -228zM470 0l-77 226h-261l-78 -226h-46l232 659h46l232 -659h-48z" />
    <glyph glyph-name="amacron" unicode="&#x101;" horiz-adv-x="491" 
d="M197 -12q-61 0 -100 33.5t-39 98.5q0 79 73.5 121t236.5 60q2 152 -114 152q-76 0 -153 -56l-20 33q88 62 179 62q80 0 116 -50.5t36 -134.5v-307h-38l-4 62h-3q-93 -74 -170 -74zM205 26q71 0 163 78v163q-144 -17 -204.5 -51.5t-60.5 -93.5q0 -49 28.5 -72.5
t73.5 -23.5zM141 606v36h228v-36h-228z" />
    <glyph glyph-name="Abreve" unicode="&#x102;" horiz-adv-x="526" 
d="M346 820h35q-5 -45 -35 -77.5t-83 -32.5t-83 32.5t-35 77.5h35q5 -34 25.5 -56t57.5 -22t57.5 22t25.5 56zM146 265h234l-42 123q-46 133 -73 228h-4q-27 -95 -73 -228zM470 0l-77 226h-261l-78 -226h-46l232 659h46l232 -659h-48z" />
    <glyph glyph-name="abreve" unicode="&#x103;" horiz-adv-x="491" 
d="M197 -12q-61 0 -100 33.5t-39 98.5q0 79 73.5 121t236.5 60q2 152 -114 152q-76 0 -153 -56l-20 33q88 62 179 62q80 0 116 -50.5t36 -134.5v-307h-38l-4 62h-3q-93 -74 -170 -74zM205 26q71 0 163 78v163q-144 -17 -204.5 -51.5t-60.5 -93.5q0 -49 28.5 -72.5
t73.5 -23.5zM255 570q-56 0 -85.5 40.5t-35.5 89.5h34q5 -38 27.5 -67t59.5 -29t59.5 29t27.5 67h34q-6 -49 -35.5 -89.5t-85.5 -40.5z" />
    <glyph glyph-name="Aogonek" unicode="&#x104;" horiz-adv-x="526" 
d="M146 265h234l-42 123q-46 133 -73 228h-4q-27 -95 -73 -228zM538 -154l16 -27q-28 -24 -65 -24q-36 0 -60 21t-24 61q0 35 21 68.5t50 54.5h-6l-77 226h-261l-78 -226h-46l232 659h46l232 -659q-31 -21 -52.5 -53.5t-21.5 -62.5q0 -25 15 -38.5t36 -13.5q25 0 43 14z" />
    <glyph glyph-name="aogonek" unicode="&#x105;" horiz-adv-x="491" 
d="M369 -203q-36 0 -59 21t-23 60q0 36 25 71t63 58l-5 55h-3q-93 -74 -170 -74q-61 0 -100 33.5t-39 97.5q0 79 73.5 121.5t236.5 60.5q2 152 -114 152q-76 0 -153 -56l-20 33q88 62 179 62q80 0 116 -50.5t36 -134.5v-307q-38 -19 -62 -51.5t-24 -64.5q0 -25 14 -38.5
t35 -13.5q23 0 43 14l16 -26q-28 -23 -65 -23zM205 26q71 0 163 78v163q-144 -17 -204.5 -51.5t-60.5 -93.5q0 -49 28.5 -72.5t73.5 -23.5z" />
    <glyph glyph-name="Cacute" unicode="&#x106;" horiz-adv-x="564" 
d="M331 -12q-123 0 -199.5 93.5t-76.5 249.5t77.5 248t203.5 92q105 0 172 -79l-27 -31q-60 68 -144 68q-109 0 -171.5 -80t-62.5 -218t62 -219.5t168 -81.5q94 0 167 81l27 -29q-83 -94 -196 -94zM285 709l93 111h61l-112 -111h-42z" />
    <glyph glyph-name="cacute" unicode="&#x107;" horiz-adv-x="449" 
d="M270 -12q-96 0 -157 67.5t-61 183.5t63.5 184.5t155.5 68.5q76 0 141 -59l-26 -31q-55 51 -114 51q-74 0 -124 -60t-50 -154q0 -95 48 -153.5t126 -58.5q68 0 128 55l23 -31q-72 -63 -153 -63zM217 572l100 156h56l-116 -156h-40z" />
    <glyph glyph-name="Ccircumflex" unicode="&#x108;" horiz-adv-x="564" 
d="M331 -12q-123 0 -199.5 93.5t-76.5 249.5t77.5 248t203.5 92q105 0 172 -79l-27 -31q-60 68 -144 68q-109 0 -171.5 -80t-62.5 -218t62 -219.5t168 -81.5q94 0 167 81l27 -29q-83 -94 -196 -94zM205 709l96 111h44l96 -111h-41l-75 76h-4l-75 -76h-41z" />
    <glyph glyph-name="ccircumflex" unicode="&#x109;" horiz-adv-x="449" 
d="M146 572l105 156h42l105 -156h-39l-85 118h-4l-85 -118h-39zM270 -12q-96 0 -157 67.5t-61 183.5t63.5 184.5t155.5 68.5q76 0 141 -59l-26 -31q-55 51 -114 51q-74 0 -124 -60t-50 -154q0 -95 48 -153.5t126 -58.5q68 0 128 55l23 -31q-72 -63 -153 -63z" />
    <glyph glyph-name="Cdotaccent" unicode="&#x10a;" horiz-adv-x="564" 
d="M331 -12q-123 0 -199.5 93.5t-76.5 249.5t77.5 248t203.5 92q105 0 172 -79l-27 -31q-60 68 -144 68q-109 0 -171.5 -80t-62.5 -218t62 -219.5t168 -81.5q94 0 167 81l27 -29q-83 -94 -196 -94zM323 721q-17 0 -28.5 11.5t-11.5 29.5q0 17 11.5 28t28.5 11t28.5 -11
t11.5 -28q0 -18 -11.5 -29.5t-28.5 -11.5z" />
    <glyph glyph-name="cdotaccent" unicode="&#x10b;" horiz-adv-x="449" 
d="M270 -12q-96 0 -157 67.5t-61 183.5t63.5 184.5t155.5 68.5q76 0 141 -59l-26 -31q-55 51 -114 51q-74 0 -124 -60t-50 -154q0 -95 48 -153.5t126 -58.5q68 0 128 55l23 -31q-72 -63 -153 -63zM272 596q-17 0 -27.5 11t-10.5 30q0 17 10.5 28t27.5 11t27.5 -11t10.5 -28
q0 -19 -10.5 -30t-27.5 -11z" />
    <glyph glyph-name="Ccaron" unicode="&#x10c;" horiz-adv-x="564" 
d="M331 -12q-123 0 -199.5 93.5t-76.5 249.5t77.5 248t203.5 92q105 0 172 -79l-27 -31q-60 68 -144 68q-109 0 -171.5 -80t-62.5 -218t62 -219.5t168 -81.5q94 0 167 81l27 -29q-83 -94 -196 -94zM301 709l-96 111h41l75 -77h4l75 77h41l-96 -111h-44z" />
    <glyph glyph-name="ccaron" unicode="&#x10d;" horiz-adv-x="449" 
d="M251 572l-105 156h39l85 -118h4l85 118h39l-105 -156h-42zM270 -12q-96 0 -157 67.5t-61 183.5t63.5 184.5t155.5 68.5q76 0 141 -59l-26 -31q-55 51 -114 51q-74 0 -124 -60t-50 -154q0 -95 48 -153.5t126 -58.5q68 0 128 55l23 -31q-72 -63 -153 -63z" />
    <glyph glyph-name="Dcaron" unicode="&#x10e;" horiz-adv-x="604" 
d="M280 709l-96 111h41l75 -77h4l75 77h41l-96 -111h-44zM97 0v659h153q148 0 223.5 -86.5t75.5 -240.5q0 -155 -75.5 -243.5t-222.5 -88.5h-154zM143 39h102q129 0 192.5 79t63.5 214q0 134 -63.5 211t-192.5 77h-102v-581z" />
    <glyph glyph-name="dcaron" unicode="&#x10f;" horiz-adv-x="549" 
d="M517 548l-3 206h38v-50l-8 -156h-27zM251 -12q-92 0 -145.5 65.5t-53.5 185.5q0 113 62.5 183t150.5 70q41 0 73 -14t72 -45l-2 88v198h44v-719h-38l-4 62h-3q-74 -74 -156 -74zM257 27q72 0 151 79v285q-70 62 -140 62q-72 0 -120.5 -61.5t-48.5 -152.5
q0 -97 41.5 -154.5t116.5 -57.5z" />
    <glyph glyph-name="Dcroat" unicode="&#x110;" horiz-adv-x="625" 
d="M164 39h102q129 0 192.5 79t63.5 214q0 134 -63.5 211t-192.5 77h-102v-255h163v-33h-163v-293zM118 659h153q148 0 223.5 -86.5t75.5 -240.5q0 -155 -75.5 -243.5t-222.5 -88.5h-154v332h-81v31l81 2v294z" />
    <glyph glyph-name="dcroat" unicode="&#x111;" horiz-adv-x="544" 
d="M408 106v251q-70 62 -140 62q-72 0 -120.5 -57t-48.5 -139q0 -90 41.5 -143t116.5 -53q72 0 151 79zM527 614v-29l-75 -4v-581h-38l-5 62h-2q-72 -74 -156 -74q-92 0 -145.5 61t-53.5 173q0 105 62.5 170.5t150.5 65.5q41 0 73 -14t72 -45l-2 88v94h-170v33h170v105h44
v-105h75z" />
    <glyph glyph-name="Emacron" unicode="&#x112;" horiz-adv-x="515" 
d="M97 0v659h361v-40h-315v-249h264v-40h-264v-290h325v-40h-371zM168 743v36h228v-36h-228z" />
    <glyph glyph-name="emacron" unicode="&#x113;" horiz-adv-x="483" 
d="M274 -12q-95 0 -158.5 68t-63.5 183q0 113 62.5 183t146.5 70q86 0 135 -58.5t49 -163.5q0 -24 -2 -36h-346q2 -92 51.5 -150t129.5 -58q69 0 129 43l18 -34q-78 -47 -151 -47zM97 270h306q0 90 -37.5 137t-103.5 47q-64 0 -111 -50t-54 -134zM147 606v36h228v-36h-228z
" />
    <glyph glyph-name="Ebreve" unicode="&#x114;" horiz-adv-x="515" 
d="M97 0v659h361v-40h-315v-249h264v-40h-264v-290h325v-40h-371zM282 710q-53 0 -83 32.5t-35 77.5h35q5 -34 25.5 -56t57.5 -22t57.5 22t25.5 56h35q-5 -45 -35 -77.5t-83 -32.5z" />
    <glyph glyph-name="ebreve" unicode="&#x115;" horiz-adv-x="483" 
d="M274 -12q-95 0 -158.5 68t-63.5 183q0 113 62.5 183t146.5 70q86 0 135 -58.5t49 -163.5q0 -24 -2 -36h-346q2 -92 51.5 -150t129.5 -58q69 0 129 43l18 -34q-78 -47 -151 -47zM97 270h306q0 90 -37.5 137t-103.5 47q-64 0 -111 -50t-54 -134zM261 570q-56 0 -85.5 40.5
t-35.5 89.5h34q5 -38 27.5 -67t59.5 -29t59.5 29t27.5 67h34q-6 -49 -35.5 -89.5t-85.5 -40.5z" />
    <glyph glyph-name="Edotaccent" unicode="&#x116;" horiz-adv-x="515" 
d="M97 0v659h361v-40h-315v-249h264v-40h-264v-290h325v-40h-371zM282 721q-17 0 -28.5 11.5t-11.5 29.5q0 17 11.5 28t28.5 11t28.5 -11t11.5 -28q0 -18 -11.5 -29.5t-28.5 -11.5z" />
    <glyph glyph-name="edotaccent" unicode="&#x117;" horiz-adv-x="483" 
d="M261 596q-17 0 -27.5 11t-10.5 30q0 17 10.5 28t27.5 11t27.5 -11t10.5 -28q0 -19 -10.5 -30t-27.5 -11zM274 -12q-95 0 -158.5 68t-63.5 183q0 113 62.5 183t146.5 70q86 0 135 -58.5t49 -163.5q0 -24 -2 -36h-346q2 -92 51.5 -150t129.5 -58q69 0 129 43l18 -34
q-78 -47 -151 -47zM97 270h306q0 90 -37.5 137t-103.5 47q-64 0 -111 -50t-54 -134z" />
    <glyph glyph-name="Eogonek" unicode="&#x118;" horiz-adv-x="515" 
d="M415 -205q-36 0 -60 21t-24 61q0 36 21 69.5t52 53.5h-307v659h361v-40h-315v-249h264v-40h-264v-290h325v-40h-3q-36 -7 -65 -40.5t-29 -75.5q0 -25 15 -38.5t35 -13.5q25 0 43 14l17 -27q-30 -24 -66 -24z" />
    <glyph glyph-name="eogonek" unicode="&#x119;" horiz-adv-x="483" 
d="M355 -203q-36 0 -58.5 21t-22.5 60q0 65 63 119q-27 -9 -63 -9q-95 0 -158.5 68t-63.5 183q0 113 62.5 183t146.5 70q86 0 135 -58.5t49 -163.5q0 -24 -2 -36h-346q2 -92 51.5 -150t129.5 -58q69 0 129 43l18 -34q-62 -45 -87.5 -80.5t-25.5 -70.5q0 -25 14 -38.5
t35 -13.5q25 0 43 14l16 -26q-27 -23 -65 -23zM97 270h306q0 90 -37.5 137t-103.5 47q-64 0 -111 -50t-54 -134z" />
    <glyph glyph-name="Ecaron" unicode="&#x11a;" horiz-adv-x="515" 
d="M260 709l-96 111h41l75 -77h4l75 77h41l-96 -111h-44zM97 0v659h361v-40h-315v-249h264v-40h-264v-290h325v-40h-371z" />
    <glyph glyph-name="ecaron" unicode="&#x11b;" horiz-adv-x="483" 
d="M240 572l-105 156h39l85 -118h4l85 118h39l-105 -156h-42zM274 -12q-95 0 -158.5 68t-63.5 183q0 113 62.5 183t146.5 70q86 0 135 -58.5t49 -163.5q0 -24 -2 -36h-346q2 -92 51.5 -150t129.5 -58q69 0 129 43l18 -34q-78 -47 -151 -47zM97 270h306q0 90 -37.5 137
t-103.5 47q-64 0 -111 -50t-54 -134z" />
    <glyph glyph-name="Gcircumflex" unicode="&#x11c;" horiz-adv-x="605" 
d="M228 709l96 111h44l96 -111h-41l-75 76h-4l-75 -76h-41zM338 -12q-128 0 -205.5 93t-77.5 250q0 156 80 248t211 92q105 0 180 -79l-27 -31q-62 68 -152 68q-113 0 -178.5 -80t-65.5 -218t63 -219.5t175 -81.5q98 0 148 50v205h-158v39h202v-261q-70 -75 -195 -75z" />
    <glyph glyph-name="gcircumflex" unicode="&#x11d;" horiz-adv-x="487" 
d="M135 572l105 156h42l105 -156h-39l-85 118h-4l-85 -118h-39zM249 -231q-91 0 -144 36t-53 97q0 64 71 116v4q-42 25 -42 77q0 51 52 88v4q-60 52 -60 132q0 73 49 121t120 48q33 0 63 -12h163v-37h-112q53 -46 53 -121q0 -73 -48 -121t-119 -48q-46 0 -80 20
q-39 -32 -39 -69q0 -63 92 -63h103q81 0 119.5 -26.5t38.5 -83.5q0 -65 -63.5 -113.5t-163.5 -48.5zM242 188q51 0 87.5 38t36.5 97t-36 96t-88 37q-53 0 -89 -36.5t-36 -96.5q0 -59 36.5 -97t88.5 -38zM254 -195q78 0 127.5 37t49.5 84q0 73 -111 73h-103q-27 0 -60 8
q-63 -43 -63 -101q0 -46 42.5 -73.5t117.5 -27.5z" />
    <glyph glyph-name="Gbreve" unicode="&#x11e;" horiz-adv-x="605" 
d="M338 -12q-128 0 -205.5 93t-77.5 250q0 156 80 248t211 92q105 0 180 -79l-27 -31q-62 68 -152 68q-113 0 -178.5 -80t-65.5 -218t63 -219.5t175 -81.5q98 0 148 50v205h-158v39h202v-261q-70 -75 -195 -75zM346 710q-53 0 -83 32.5t-35 77.5h35q5 -34 25.5 -56t57.5 -22
t57.5 22t25.5 56h35q-5 -45 -35 -77.5t-83 -32.5z" />
    <glyph glyph-name="gbreve" unicode="&#x11f;" horiz-adv-x="487" 
d="M261 570q-56 0 -85.5 40.5t-35.5 89.5h34q5 -38 27.5 -67t59.5 -29t59.5 29t27.5 67h34q-6 -49 -35.5 -89.5t-85.5 -40.5zM249 -231q-91 0 -144 36t-53 97q0 64 71 116v4q-42 25 -42 77q0 51 52 88v4q-60 52 -60 132q0 73 49 121t120 48q33 0 63 -12h163v-37h-112
q53 -46 53 -121q0 -73 -48 -121t-119 -48q-46 0 -80 20q-39 -32 -39 -69q0 -63 92 -63h103q81 0 119.5 -26.5t38.5 -83.5q0 -65 -63.5 -113.5t-163.5 -48.5zM242 188q51 0 87.5 38t36.5 97t-36 96t-88 37q-53 0 -89 -36.5t-36 -96.5q0 -59 36.5 -97t88.5 -38zM254 -195
q78 0 127.5 37t49.5 84q0 73 -111 73h-103q-27 0 -60 8q-63 -43 -63 -101q0 -46 42.5 -73.5t117.5 -27.5z" />
    <glyph glyph-name="Gdotaccent" unicode="&#x120;" horiz-adv-x="605" 
d="M346 721q-17 0 -28.5 11.5t-11.5 29.5q0 17 11.5 28t28.5 11t28.5 -11t11.5 -28q0 -18 -11.5 -29.5t-28.5 -11.5zM338 -12q-128 0 -205.5 93t-77.5 250q0 156 80 248t211 92q105 0 180 -79l-27 -31q-62 68 -152 68q-113 0 -178.5 -80t-65.5 -218t63 -219.5t175 -81.5
q98 0 148 50v205h-158v39h202v-261q-70 -75 -195 -75z" />
    <glyph glyph-name="gdotaccent" unicode="&#x121;" horiz-adv-x="487" 
d="M261 596q-17 0 -27.5 11t-10.5 30q0 17 10.5 28t27.5 11t27.5 -11t10.5 -28q0 -19 -10.5 -30t-27.5 -11zM249 -231q-91 0 -144 36t-53 97q0 64 71 116v4q-42 25 -42 77q0 51 52 88v4q-60 52 -60 132q0 73 49 121t120 48q33 0 63 -12h163v-37h-112q53 -46 53 -121
q0 -73 -48 -121t-119 -48q-46 0 -80 20q-39 -32 -39 -69q0 -63 92 -63h103q81 0 119.5 -26.5t38.5 -83.5q0 -65 -63.5 -113.5t-163.5 -48.5zM242 188q51 0 87.5 38t36.5 97t-36 96t-88 37q-53 0 -89 -36.5t-36 -96.5q0 -59 36.5 -97t88.5 -38zM254 -195q78 0 127.5 37
t49.5 84q0 73 -111 73h-103q-27 0 -60 8q-63 -43 -63 -101q0 -46 42.5 -73.5t117.5 -27.5z" />
    <glyph glyph-name="uni0122" unicode="&#x122;" horiz-adv-x="605" 
d="M263 -209l-7 30q63 4 88 16.5t25 35.5q0 41 -77 47l13 29q57 -8 80 -24.5t23 -48.5q0 -76 -145 -85zM338 -12q-128 0 -205.5 93t-77.5 250q0 156 80 248t211 92q105 0 180 -79l-27 -31q-62 68 -152 68q-113 0 -178.5 -80t-65.5 -218t63 -219.5t175 -81.5q98 0 148 50v205
h-158v39h202v-261q-70 -75 -195 -75z" />
    <glyph glyph-name="uni0123" unicode="&#x123;" horiz-adv-x="487" 
d="M296 539q-57 8 -80 24.5t-23 48.5q0 76 145 85l7 -30q-63 -4 -88 -16.5t-25 -35.5q0 -41 77 -47zM249 -231q-91 0 -144 36t-53 97q0 64 71 116v4q-42 25 -42 77q0 51 52 88v4q-60 52 -60 132q0 73 49 121t120 48q33 0 63 -12h163v-37h-112q53 -46 53 -121q0 -73 -48 -121
t-119 -48q-46 0 -80 20q-39 -32 -39 -69q0 -63 92 -63h103q81 0 119.5 -26.5t38.5 -83.5q0 -65 -63.5 -113.5t-163.5 -48.5zM242 188q51 0 87.5 38t36.5 97t-36 96t-88 37q-53 0 -89 -36.5t-36 -96.5q0 -59 36.5 -97t88.5 -38zM254 -195q78 0 127.5 37t49.5 84q0 73 -111 73
h-103q-27 0 -60 8q-63 -43 -63 -101q0 -46 42.5 -73.5t117.5 -27.5z" />
    <glyph glyph-name="Hcircumflex" unicode="&#x124;" horiz-adv-x="639" 
d="M97 0v659h46v-289h353v289h46v-659h-46v330h-353v-330h-46zM201 709l96 111h44l96 -111h-41l-75 76h-4l-75 -76h-41z" />
    <glyph glyph-name="hcircumflex" unicode="&#x125;" horiz-adv-x="528" 
d="M92 0v719h44v-208v-106q87 87 166 87q74 0 109.5 -45.5t35.5 -138.5v-308h-44v302q0 77 -26 113.5t-84 36.5q-41 0 -75.5 -21t-81.5 -69v-362h-44zM-2 748l96 111h44l96 -111h-41l-75 76h-4l-75 -76h-41z" />
    <glyph glyph-name="Hbar" unicode="&#x126;" horiz-adv-x="672" 
d="M516 370v125h-353v-125h353zM635 528v-33h-73v-495h-46v330h-353v-330h-46v495h-81v29l81 4v131h46v-131h353v131h46v-131h73z" />
    <glyph glyph-name="hbar" unicode="&#x127;" horiz-adv-x="528" 
d="M136 477v-106q87 87 166 87q74 0 109.5 -45.5t35.5 -138.5v-274h-44v268q0 77 -26 113.5t-84 36.5q-41 0 -75.5 -21t-81.5 -69v-328h-44v581h-77v29l77 4v105h44v-105h190v-33h-190v-104z" />
    <glyph glyph-name="Itilde" unicode="&#x128;" horiz-adv-x="240" 
d="M97 0v659h46v-659h-46zM181 716q-29 0 -67 28t-56 28q-17 0 -28.5 -15.5t-14.5 -40.5h-33q2 37 23 64.5t54 27.5q29 0 67 -28t56 -28q17 0 28.5 15.5t14.5 40.5h33q-2 -37 -23 -64.5t-54 -27.5z" />
    <glyph glyph-name="itilde" unicode="&#x129;" horiz-adv-x="229" 
d="M92 0v480h44v-480h-44zM171 572q-26 0 -62.5 32t-52.5 32q-37 0 -45 -64h-34q3 41 23 70.5t57 29.5q26 0 63 -32.5t52 -32.5q37 0 45 64h34q-3 -40 -23 -69.5t-57 -29.5z" />
    <glyph glyph-name="Imacron" unicode="&#x12a;" horiz-adv-x="240" 
d="M97 0v659h46v-659h-46zM6 743v36h228v-36h-228z" />
    <glyph glyph-name="imacron" unicode="&#x12b;" horiz-adv-x="229" 
d="M92 0v480h44v-480h-44zM0 606v36h228v-36h-228z" />
    <glyph glyph-name="uni012C" unicode="&#x12c;" horiz-adv-x="240" 
d="M97 0v659h46v-659h-46zM120 710q-53 0 -83 32.5t-35 77.5h35q5 -34 25.5 -56t57.5 -22t57.5 22t25.5 56h35q-5 -45 -35 -77.5t-83 -32.5z" />
    <glyph glyph-name="uni012D" unicode="&#x12d;" horiz-adv-x="229" 
d="M92 0v480h44v-480h-44zM115 570q-56 0 -85.5 40.5t-35.5 89.5h34q5 -38 27.5 -67t59.5 -29t59.5 29t27.5 67h34q-6 -49 -35.5 -89.5t-85.5 -40.5z" />
    <glyph glyph-name="Iogonek" unicode="&#x12e;" horiz-adv-x="240" 
d="M128 -205q-36 0 -60 21t-24 61q0 61 62 123h-9v659h46v-659q-60 -67 -60 -116q0 -25 15 -38.5t36 -13.5q25 0 43 14l16 -27q-28 -24 -65 -24z" />
    <glyph glyph-name="iogonek" unicode="&#x12f;" horiz-adv-x="229" 
d="M118 -203q-36 0 -58.5 21t-22.5 60q0 54 62 122h-7v480h44v-480q-61 -65 -61 -116q0 -25 14.5 -38.5t34.5 -13.5q23 0 43 14l16 -26q-27 -23 -65 -23zM113 596q-16 0 -28 11t-12 28q0 18 12 29t28 11q17 0 29 -11t12 -29q0 -17 -12 -28t-29 -11z" />
    <glyph glyph-name="Idotaccent" unicode="&#x130;" horiz-adv-x="240" 
d="M97 0v659h46v-659h-46zM120 721q-17 0 -28.5 11.5t-11.5 29.5q0 17 11.5 28t28.5 11t28.5 -11t11.5 -28q0 -18 -11.5 -29.5t-28.5 -11.5z" />
    <glyph glyph-name="dotlessi" unicode="&#x131;" horiz-adv-x="229" 
d="M92 0v480h44v-480h-44z" />
    <glyph glyph-name="uni0132" unicode="&#x132;" horiz-adv-x="481" 
d="M97 0v659h46v-659h-46zM274 -156q-35 0 -61 13l10 39q27 -9 50 -9q38 0 51.5 26.5t13.5 77.5v668h46v-674q0 -141 -110 -141z" />
    <glyph glyph-name="uni0133" unicode="&#x133;" horiz-adv-x="457" 
d="M92 0v480h44v-480h-44zM115 596q-17 0 -28.5 11t-11.5 28q0 18 11.5 29t28.5 11t28.5 -11t11.5 -29q0 -17 -11.5 -28t-28.5 -11zM258 -229q-32 0 -62 12l11 36q30 -10 50 -10q38 0 51 26.5t13 78.5v566h45v-569q0 -140 -108 -140zM344 596q-16 0 -28 11t-12 28
q0 18 12 29t28 11q17 0 29 -11t12 -29q0 -17 -12 -28t-29 -11z" />
    <glyph glyph-name="Jcircumflex" unicode="&#x134;" horiz-adv-x="462" 
d="M203 -12q-110 0 -162 97l35 23q45 -78 127 -78q60 0 89 37t29 117v475h46v-480q0 -86 -39.5 -138.5t-124.5 -52.5zM223 709l96 111h44l96 -111h-41l-75 76h-4l-75 -76h-41z" />
    <glyph glyph-name="jcircumflex" unicode="&#x135;" horiz-adv-x="229" 
d="M29 -229q-32 0 -62 12l11 36q30 -10 50 -10q38 0 51 26.5t13 78.5v566h45v-569q0 -140 -108 -140zM-11 572l105 156h42l105 -156h-39l-85 118h-4l-85 -118h-39z" />
    <glyph glyph-name="uni0136" unicode="&#x136;" horiz-adv-x="558" 
d="M97 0v659h46v-366h2l319 366h55l-210 -244l239 -415h-53l-218 380l-134 -153v-227h-46zM245 -209l-7 30q63 4 88 16.5t25 35.5q0 41 -77 47l13 29q57 -8 80 -24.5t23 -48.5q0 -76 -145 -85z" />
    <glyph glyph-name="uni0137" unicode="&#x137;" horiz-adv-x="464" 
d="M92 0v719h44v-530h2l237 291h51l-156 -190l182 -290h-49l-159 257l-108 -126v-131h-44zM180 -209l-7 30q63 4 88 16.5t25 35.5q0 41 -77 47l13 29q57 -8 80 -24.5t23 -48.5q0 -76 -145 -85z" />
    <glyph glyph-name="kgreenlandic" unicode="&#x138;" horiz-adv-x="464" 
d="M92 0v480h44v-291h3l236 291h51l-156 -190l182 -290h-49l-159 257l-108 -127v-130h-44z" />
    <glyph glyph-name="Lacute" unicode="&#x139;" horiz-adv-x="467" 
d="M84 709l93 111h61l-112 -111h-42zM97 0v659h46v-619h304v-40h-350z" />
    <glyph glyph-name="lacute" unicode="&#x13a;" horiz-adv-x="237" 
d="M69 760l93 111h61l-112 -111h-42zM151 -12q-59 0 -59 76v655h44v-661q0 -31 21 -31q8 0 18 2l8 -36q-15 -5 -32 -5z" />
    <glyph glyph-name="uni013B" unicode="&#x13b;" horiz-adv-x="467" 
d="M210 -209l-7 30q63 4 88 16.5t25 35.5q0 41 -77 47l13 29q57 -8 80 -24.5t23 -48.5q0 -76 -145 -85zM97 0v659h46v-619h304v-40h-350z" />
    <glyph glyph-name="uni013C" unicode="&#x13c;" horiz-adv-x="237" 
d="M81 -209l-7 30q63 4 88 16.5t25 35.5q0 41 -77 47l13 29q57 -8 80 -24.5t23 -48.5q0 -76 -145 -85zM151 -12q-59 0 -59 76v655h44v-661q0 -31 21 -31q8 0 18 2l8 -36q-15 -5 -32 -5z" />
    <glyph glyph-name="Lcaron" unicode="&#x13d;" horiz-adv-x="467" 
d="M322 517l-3 206h38v-50l-8 -156h-27zM97 0v659h46v-619h304v-40h-350z" />
    <glyph glyph-name="lcaron" unicode="&#x13e;" horiz-adv-x="234" 
d="M202 548l-3 206h38v-50l-8 -156h-27zM151 -12q-59 0 -59 76v655h44v-661q0 -31 21 -31q8 0 18 2l8 -36q-15 -5 -32 -5z" />
    <glyph glyph-name="Ldot" unicode="&#x13f;" horiz-adv-x="467" 
d="M97 0v659h46v-619h304v-40h-350zM358 278q-17 0 -30 12.5t-13 32.5q0 21 13 33.5t30 12.5t29.5 -12.5t12.5 -33.5q0 -20 -12.5 -32.5t-29.5 -12.5z" />
    <glyph glyph-name="ldot" unicode="&#x140;" horiz-adv-x="308" 
d="M151 -12q-59 0 -59 76v655h44v-661q0 -31 21 -31q8 0 18 2l8 -36q-15 -5 -32 -5zM268 278q-17 0 -30 12.5t-13 32.5q0 21 13 33.5t30 12.5t29.5 -12.5t12.5 -33.5q0 -20 -12.5 -32.5t-29.5 -12.5z" />
    <glyph glyph-name="Lslash" unicode="&#x141;" horiz-adv-x="468" 
d="M147 40h304v-40h-350v257l-87 -47v40l87 48v361h46v-341l194 101v-40l-194 -101v-238z" />
    <glyph glyph-name="lslash" unicode="&#x142;" horiz-adv-x="239" 
d="M211 437l-74 -49v-330q0 -31 21 -31q8 0 18 2l8 -36q-15 -5 -32 -5q-59 0 -59 76v300l-65 -43v42l65 43v313h44v-288l74 49v-43z" />
    <glyph glyph-name="Nacute" unicode="&#x143;" horiz-adv-x="636" 
d="M285 709l93 111h61l-112 -111h-42zM97 0v659h48l278 -465l74 -131h4l-6 192v404h44v-659h-48l-278 465l-74 131h-4q1 -21 2.5 -58.5t2.5 -69t1 -59.5v-409h-44z" />
    <glyph glyph-name="nacute" unicode="&#x144;" horiz-adv-x="532" 
d="M228 572l100 156h56l-116 -156h-40zM92 0v480h38l4 -74h3q86 86 165 86q74 0 109.5 -45.5t35.5 -138.5v-308h-44v302q0 77 -26 113.5t-84 36.5q-41 0 -75.5 -21t-81.5 -69v-362h-44z" />
    <glyph glyph-name="uni0145" unicode="&#x145;" horiz-adv-x="636" 
d="M242 -209l-7 30q63 4 88 16.5t25 35.5q0 41 -77 47l13 29q57 -8 80 -24.5t23 -48.5q0 -76 -145 -85zM97 0v659h48l278 -465l74 -131h4l-6 192v404h44v-659h-48l-278 465l-74 131h-4q1 -21 2.5 -58.5t2.5 -69t1 -59.5v-409h-44z" />
    <glyph glyph-name="uni0146" unicode="&#x146;" horiz-adv-x="532" 
d="M195 -209l-7 30q63 4 88 16.5t25 35.5q0 41 -77 47l13 29q57 -8 80 -24.5t23 -48.5q0 -76 -145 -85zM92 0v480h38l4 -74h3q86 86 165 86q74 0 109.5 -45.5t35.5 -138.5v-308h-44v302q0 77 -26 113.5t-84 36.5q-41 0 -75.5 -21t-81.5 -69v-362h-44z" />
    <glyph glyph-name="Ncaron" unicode="&#x147;" horiz-adv-x="636" 
d="M301 709l-96 111h41l75 -77h4l75 77h41l-96 -111h-44zM97 0v659h48l278 -465l74 -131h4l-6 192v404h44v-659h-48l-278 465l-74 131h-4q1 -21 2.5 -58.5t2.5 -69t1 -59.5v-409h-44z" />
    <glyph glyph-name="ncaron" unicode="&#x148;" horiz-adv-x="532" 
d="M262 572l-105 156h39l85 -118h4l85 118h39l-105 -156h-42zM92 0v480h38l4 -74h3q86 86 165 86q74 0 109.5 -45.5t35.5 -138.5v-308h-44v302q0 77 -26 113.5t-84 36.5q-41 0 -75.5 -21t-81.5 -69v-362h-44z" />
    <glyph glyph-name="napostrophe" unicode="&#x149;" horiz-adv-x="729" 
d="M76 477l-18 23q35 29 51 56t16 68q-2 -1 -8 -1q-16 0 -27.5 9.5t-11.5 27.5t11 29t28 11q21 0 33 -17.5t12 -49.5q0 -100 -86 -156zM323 406h3q86 86 165 86q74 0 109.5 -45.5t35.5 -138.5v-308h-44v302q0 77 -26 113.5t-84 36.5q-41 0 -75.5 -21t-81.5 -69v-362h-44v480
h38z" />
    <glyph glyph-name="uni014A" unicode="&#x14a;" horiz-adv-x="617" 
d="M403 -12q-46 0 -72 13l14 43q25 -11 54 -11q115 0 115 304q0 160 -49 226t-139 66q-44 0 -96.5 -31t-86.5 -75v-523h-46v659h46v-88q37 43 88 71.5t102 28.5q106 0 167.5 -79.5t61.5 -254.5q0 -185 -43.5 -267t-115.5 -82z" />
    <glyph glyph-name="uni014B" unicode="&#x14b;" horiz-adv-x="532" 
d="M339 -229q-31 0 -61 12l10 36q30 -10 50 -10q38 0 51.5 27t13.5 78v388q0 77 -26 113.5t-84 36.5q-41 0 -75.5 -21t-81.5 -69v-362h-44v480h38l4 -74h3q86 86 165 86q74 0 109.5 -45.5t35.5 -138.5v-397q0 -71 -26 -105.5t-82 -34.5z" />
    <glyph glyph-name="Omacron" unicode="&#x14c;" horiz-adv-x="652" 
d="M326 -12q-120 0 -195.5 94.5t-75.5 249.5q0 154 75.5 246.5t195.5 92.5q121 0 196.5 -92.5t75.5 -246.5q0 -155 -76 -249.5t-196 -94.5zM326 30q101 0 162 82.5t61 219.5q0 136 -61 216.5t-162 80.5t-162 -80.5t-61 -216.5q0 -137 61 -219.5t162 -82.5zM212 743v36h228
v-36h-228z" />
    <glyph glyph-name="omacron" unicode="&#x14d;" horiz-adv-x="535" 
d="M153 606v36h228v-36h-228zM267 -12q-90 0 -152.5 68t-62.5 183q0 116 62.5 184.5t152.5 68.5q91 0 153.5 -68.5t62.5 -184.5q0 -115 -62.5 -183t-153.5 -68zM267 27q73 0 121.5 59t48.5 153t-48.5 154t-121.5 60t-121 -59.5t-48 -154.5q0 -94 48 -153t121 -59z" />
    <glyph glyph-name="uni014E" unicode="&#x14e;" horiz-adv-x="652" 
d="M326 -12q-120 0 -195.5 94.5t-75.5 249.5q0 154 75.5 246.5t195.5 92.5q121 0 196.5 -92.5t75.5 -246.5q0 -155 -76 -249.5t-196 -94.5zM326 30q101 0 162 82.5t61 219.5q0 136 -61 216.5t-162 80.5t-162 -80.5t-61 -216.5q0 -137 61 -219.5t162 -82.5zM326 710
q-53 0 -83 32.5t-35 77.5h35q5 -34 25.5 -56t57.5 -22t57.5 22t25.5 56h35q-5 -45 -35 -77.5t-83 -32.5z" />
    <glyph glyph-name="uni014F" unicode="&#x14f;" horiz-adv-x="535" 
d="M267 570q-56 0 -85.5 40.5t-35.5 89.5h34q5 -38 27.5 -67t59.5 -29t59.5 29t27.5 67h34q-6 -49 -35.5 -89.5t-85.5 -40.5zM267 -12q-90 0 -152.5 68t-62.5 183q0 116 62.5 184.5t152.5 68.5q91 0 153.5 -68.5t62.5 -184.5q0 -115 -62.5 -183t-153.5 -68zM267 27
q73 0 121.5 59t48.5 153t-48.5 154t-121.5 60t-121 -59.5t-48 -154.5q0 -94 48 -153t121 -59z" />
    <glyph glyph-name="Ohungarumlaut" unicode="&#x150;" horiz-adv-x="652" 
d="M232 709l78 111h51l-92 -111h-37zM378 709l78 111h51l-92 -111h-37zM326 -12q-120 0 -195.5 94.5t-75.5 249.5q0 154 75.5 246.5t195.5 92.5q121 0 196.5 -92.5t75.5 -246.5q0 -155 -76 -249.5t-196 -94.5zM326 30q101 0 162 82.5t61 219.5q0 136 -61 216.5t-162 80.5
t-162 -80.5t-61 -216.5q0 -137 61 -219.5t162 -82.5z" />
    <glyph glyph-name="ohungarumlaut" unicode="&#x151;" horiz-adv-x="535" 
d="M183 570l82 158h46l-93 -158h-35zM317 570l82 158h47l-94 -158h-35zM267 -12q-90 0 -152.5 68t-62.5 183q0 116 62.5 184.5t152.5 68.5q91 0 153.5 -68.5t62.5 -184.5q0 -115 -62.5 -183t-153.5 -68zM267 27q73 0 121.5 59t48.5 153t-48.5 154t-121.5 60t-121 -59.5
t-48 -154.5q0 -94 48 -153t121 -59z" />
    <glyph glyph-name="OE" unicode="&#x152;" horiz-adv-x="833" 
d="M367 0q-152 0 -232 89t-80 243q0 153 80 240t233 87h408v-40h-295v-249h245v-40h-245v-290h305v-40h-419zM372 39h63v581h-63q-134 0 -201.5 -77t-67.5 -211t68 -213.5t201 -79.5z" />
    <glyph glyph-name="oe" unicode="&#x153;" horiz-adv-x="848" 
d="M263 -12q-88 0 -149.5 68t-61.5 183q0 116 61.5 184.5t149.5 68.5q60 0 110.5 -37t75.5 -105q26 66 74 104t105 38q85 0 134 -58.5t49 -163.5q0 -18 -3 -36h-337q0 -90 50 -148.5t123 -58.5q68 0 128 43l19 -35q-78 -47 -152 -47q-63 0 -113 38t-76 103
q-56 -141 -187 -141zM263 27q72 0 118.5 59t46.5 153q0 95 -46.5 154.5t-118.5 59.5q-71 0 -118 -60t-47 -154t47 -153t118 -59zM471 268h298q0 90 -38 138t-103 48q-61 0 -105.5 -52t-51.5 -134z" />
    <glyph glyph-name="Racute" unicode="&#x154;" horiz-adv-x="544" 
d="M392 820l-112 -111h-42l93 111h61zM143 341h131q181 0 181 144q0 72 -45.5 103.5t-135.5 31.5h-131v-279zM515 0h-53l-179 303h-140v-303h-46v659h189q216 0 216 -174q0 -77 -44.5 -123t-124.5 -56z" />
    <glyph glyph-name="racute" unicode="&#x155;" horiz-adv-x="317" 
d="M145 572l100 156h56l-116 -156h-40zM92 0v480h38l4 -89h3q55 101 136 101q28 0 48 -10l-10 -40q-21 8 -44 8q-80 0 -131 -123v-327h-44z" />
    <glyph glyph-name="uni0156" unicode="&#x156;" horiz-adv-x="544" 
d="M243 -80l13 29q57 -8 80 -24.5t23 -48.5q0 -76 -145 -85l-7 30q63 4 88 16.5t25 35.5q0 41 -77 47zM143 341h131q181 0 181 144q0 72 -45.5 103.5t-135.5 31.5h-131v-279zM333 306l182 -306h-53l-179 303h-140v-303h-46v659h189q216 0 216 -174q0 -77 -44.5 -123
t-124.5 -56z" />
    <glyph glyph-name="uni0157" unicode="&#x157;" horiz-adv-x="317" 
d="M92 0v480h38l4 -89h3q55 101 136 101q28 0 48 -10l-10 -40q-21 8 -44 8q-80 0 -131 -123v-327h-44zM35 -209l-7 30q63 4 88 16.5t25 35.5q0 41 -77 47l13 29q57 -8 80 -24.5t23 -48.5q0 -76 -145 -85z" />
    <glyph glyph-name="Rcaron" unicode="&#x158;" horiz-adv-x="544" 
d="M298 709h-44l-96 111h41l75 -77h4l75 77h41zM143 341h131q181 0 181 144q0 72 -45.5 103.5t-135.5 31.5h-131v-279zM515 0h-53l-179 303h-140v-303h-46v659h189q216 0 216 -174q0 -77 -44.5 -123t-124.5 -56z" />
    <glyph glyph-name="rcaron" unicode="&#x159;" horiz-adv-x="317" 
d="M179 572l-105 156h39l85 -118h4l85 118h39l-105 -156h-42zM92 0v480h38l4 -89h3q55 101 136 101q28 0 48 -10l-10 -40q-21 8 -44 8q-80 0 -131 -123v-327h-44z" />
    <glyph glyph-name="Sacute" unicode="&#x15a;" horiz-adv-x="521" 
d="M269 -12q-134 0 -223 99l30 32q79 -89 193 -89q75 0 119.5 36.5t44.5 95.5q0 30 -8.5 52t-27.5 38t-35.5 25t-46.5 23l-100 45q-27 12 -46 23.5t-41.5 30.5t-34.5 47t-12 63q0 71 54.5 116.5t137.5 45.5q110 0 183 -79l-26 -30q-65 67 -157 67q-66 0 -106 -32t-40 -86
q0 -27 9.5 -48t30.5 -36.5t34.5 -23t39.5 -19.5l100 -44q67 -30 103 -68t36 -107q0 -77 -58 -127t-153 -50zM234 709l93 111h61l-112 -111h-42z" />
    <glyph glyph-name="sacute" unicode="&#x15b;" horiz-adv-x="405" 
d="M208 -12q-97 0 -176 66l26 33q74 -61 153 -61q54 0 84 27.5t30 67.5t-31.5 63t-85.5 43q-29 10 -45 16.5t-40 19t-36 25.5t-22 32.5t-10 43.5q0 55 41.5 91.5t113.5 36.5q77 0 137 -50l-24 -31q-57 43 -115 43q-52 0 -80 -25.5t-28 -61.5q0 -20 8.5 -35t27.5 -27
t34 -18.5t43 -16.5q83 -31 109 -51q48 -36 48 -96q0 -57 -43.5 -96t-118.5 -39zM156 572l100 156h56l-116 -156h-40z" />
    <glyph glyph-name="Scircumflex" unicode="&#x15c;" horiz-adv-x="521" 
d="M269 -12q-134 0 -223 99l30 32q79 -89 193 -89q75 0 119.5 36.5t44.5 95.5q0 30 -8.5 52t-27.5 38t-35.5 25t-46.5 23l-100 45q-27 12 -46 23.5t-41.5 30.5t-34.5 47t-12 63q0 71 54.5 116.5t137.5 45.5q110 0 183 -79l-26 -30q-65 67 -157 67q-66 0 -106 -32t-40 -86
q0 -27 9.5 -48t30.5 -36.5t34.5 -23t39.5 -19.5l100 -44q67 -30 103 -68t36 -107q0 -77 -58 -127t-153 -50zM154 709l96 111h44l96 -111h-41l-75 76h-4l-75 -76h-41z" />
    <glyph glyph-name="scircumflex" unicode="&#x15d;" horiz-adv-x="405" 
d="M85 572l105 156h42l105 -156h-39l-85 118h-4l-85 -118h-39zM208 -12q-97 0 -176 66l26 33q74 -61 153 -61q54 0 84 27.5t30 67.5t-31.5 63t-85.5 43q-29 10 -45 16.5t-40 19t-36 25.5t-22 32.5t-10 43.5q0 55 41.5 91.5t113.5 36.5q77 0 137 -50l-24 -31q-57 43 -115 43
q-52 0 -80 -25.5t-28 -61.5q0 -20 8.5 -35t27.5 -27t34 -18.5t43 -16.5q83 -31 109 -51q48 -36 48 -96q0 -57 -43.5 -96t-118.5 -39z" />
    <glyph glyph-name="uni015E" unicode="&#x15e;" horiz-adv-x="521" 
d="M241 384l100 -44q67 -30 103 -68t36 -107q0 -73 -52 -122t-139 -54l-23 -43q71 -18 71 -69q0 -76 -145 -85l-7 30q63 4 88 17t25 36q0 22 -18 33.5t-60 17.5l34 62q-125 6 -208 99l30 32q79 -89 193 -89q75 0 119.5 36.5t44.5 95.5q0 30 -8.5 52t-27.5 38t-35.5 25
t-46.5 23l-100 45q-27 12 -46 23.5t-41.5 30.5t-34.5 47t-12 63q0 71 54.5 116.5t137.5 45.5q110 0 183 -79l-26 -30q-65 67 -157 67q-66 0 -106 -32t-40 -86q0 -27 9.5 -48t30.5 -36.5t34.5 -23t39.5 -19.5z" />
    <glyph glyph-name="uni015F" unicode="&#x15f;" horiz-adv-x="405" 
d="M347 442l-24 -31q-57 43 -115 43q-52 0 -80 -25.5t-28 -61.5q0 -20 8.5 -35t27.5 -27t34 -18.5t43 -16.5q83 -31 109 -51q48 -36 48 -96q0 -51 -36 -89t-100 -45l-23 -43q71 -18 71 -69q0 -76 -145 -85l-7 30q63 4 88 17t25 36q0 22 -18 33.5t-60 17.5l34 62
q-92 4 -167 66l26 33q74 -61 153 -61q54 0 84 27.5t30 67.5t-31.5 63t-85.5 43q-29 10 -45 16.5t-40 19t-36 25.5t-22 32.5t-10 43.5q0 55 41.5 91.5t113.5 36.5q77 0 137 -50z" />
    <glyph glyph-name="Scaron" unicode="&#x160;" horiz-adv-x="521" 
d="M269 -12q-134 0 -223 99l30 32q79 -89 193 -89q75 0 119.5 36.5t44.5 95.5q0 30 -8.5 52t-27.5 38t-35.5 25t-46.5 23l-100 45q-27 12 -46 23.5t-41.5 30.5t-34.5 47t-12 63q0 71 54.5 116.5t137.5 45.5q110 0 183 -79l-26 -30q-65 67 -157 67q-66 0 -106 -32t-40 -86
q0 -27 9.5 -48t30.5 -36.5t34.5 -23t39.5 -19.5l100 -44q67 -30 103 -68t36 -107q0 -77 -58 -127t-153 -50zM250 709l-96 111h41l75 -77h4l75 77h41l-96 -111h-44z" />
    <glyph glyph-name="scaron" unicode="&#x161;" horiz-adv-x="405" 
d="M190 572l-105 156h39l85 -118h4l85 118h39l-105 -156h-42zM208 -12q-97 0 -176 66l26 33q74 -61 153 -61q54 0 84 27.5t30 67.5t-31.5 63t-85.5 43q-29 10 -45 16.5t-40 19t-36 25.5t-22 32.5t-10 43.5q0 55 41.5 91.5t113.5 36.5q77 0 137 -50l-24 -31q-57 43 -115 43
q-52 0 -80 -25.5t-28 -61.5q0 -20 8.5 -35t27.5 -27t34 -18.5t43 -16.5q83 -31 109 -51q48 -36 48 -96q0 -57 -43.5 -96t-118.5 -39z" />
    <glyph glyph-name="uni0162" unicode="&#x162;" horiz-adv-x="524" 
d="M285 0h-4l-29 -54q71 -18 71 -69q0 -76 -145 -85l-7 30q63 4 88 17t25 36q0 22 -18 33.5t-60 17.5l40 74h-7v619h-210v40h466v-40h-210v-619z" />
    <glyph glyph-name="uni0163" unicode="&#x163;" horiz-adv-x="312" 
d="M222 -12l-23 -42q71 -18 71 -69q0 -76 -145 -85l-7 30q63 4 88 17t25 36q0 22 -18 33.5t-60 17.5l35 65q-85 18 -85 142v309h-75v34l76 4l6 139h38v-139h139v-38h-139v-313q0 -50 17.5 -76t63.5 -26q28 0 60 15l12 -36q-50 -18 -78 -18h-1z" />
    <glyph glyph-name="Tcaron" unicode="&#x164;" horiz-adv-x="524" 
d="M239 709l-96 111h41l75 -77h4l75 77h41l-96 -111h-44zM239 0v619h-210v40h466v-40h-210v-619h-46z" />
    <glyph glyph-name="tcaron" unicode="&#x165;" horiz-adv-x="312" 
d="M243 548l-3 206h38v-50l-8 -156h-27zM223 -12q-66 0 -93 37.5t-27 107.5v309h-75v34l76 4l6 139h38v-139h139v-38h-139v-313q0 -50 17.5 -76t63.5 -26q28 0 60 15l12 -36q-50 -18 -78 -18z" />
    <glyph glyph-name="uni0166" unicode="&#x166;" horiz-adv-x="524" 
d="M495 619h-210v-256h127v-33h-127v-330h-46v330h-127v31l86 2h41v256h-210v40h466v-40z" />
    <glyph glyph-name="uni0167" unicode="&#x167;" horiz-adv-x="312" 
d="M289 42l12 -36q-50 -18 -78 -18q-66 0 -93 37.5t-27 107.5v103h-75v29l75 4v173h-75v34l76 4l6 139h38v-139h139v-38h-139v-173h139v-33h-139v-107q0 -50 17.5 -76t63.5 -26q28 0 60 15z" />
    <glyph glyph-name="Utilde" unicode="&#x168;" horiz-adv-x="634" 
d="M316 -12q-45 0 -82.5 13t-70 42t-50.5 82.5t-18 127.5v406h46v-401q0 -122 48.5 -175t126.5 -53q80 0 130 53t50 175v401h43v-406q0 -74 -18.5 -127.5t-51 -82.5t-70 -42t-83.5 -13zM378 716q-29 0 -67 28t-56 28q-17 0 -28.5 -15.5t-14.5 -40.5h-33q2 37 23 64.5
t54 27.5q29 0 67 -28t56 -28q17 0 28.5 15.5t14.5 40.5h33q-2 -37 -23 -64.5t-54 -27.5z" />
    <glyph glyph-name="utilde" unicode="&#x169;" horiz-adv-x="529" 
d="M230 -12q-74 0 -109.5 45.5t-35.5 138.5v308h44v-302q0 -77 26 -113.5t83 -36.5q42 0 77 23t78 75v354h44v-480h-37l-5 80h-2q-79 -92 -163 -92zM322 572q-26 0 -62.5 32t-52.5 32q-37 0 -45 -64h-34q3 41 23 70.5t57 29.5q26 0 63 -32.5t52 -32.5q37 0 45 64h34
q-3 -40 -23 -69.5t-57 -29.5z" />
    <glyph glyph-name="Umacron" unicode="&#x16a;" horiz-adv-x="634" 
d="M316 -12q-45 0 -82.5 13t-70 42t-50.5 82.5t-18 127.5v406h46v-401q0 -122 48.5 -175t126.5 -53q80 0 130 53t50 175v401h43v-406q0 -74 -18.5 -127.5t-51 -82.5t-70 -42t-83.5 -13zM203 743v36h228v-36h-228z" />
    <glyph glyph-name="umacron" unicode="&#x16b;" horiz-adv-x="529" 
d="M230 -12q-74 0 -109.5 45.5t-35.5 138.5v308h44v-302q0 -77 26 -113.5t83 -36.5q42 0 77 23t78 75v354h44v-480h-37l-5 80h-2q-79 -92 -163 -92zM146 606v36h228v-36h-228z" />
    <glyph glyph-name="Ubreve" unicode="&#x16c;" horiz-adv-x="634" 
d="M316 -12q-45 0 -82.5 13t-70 42t-50.5 82.5t-18 127.5v406h46v-401q0 -122 48.5 -175t126.5 -53q80 0 130 53t50 175v401h43v-406q0 -74 -18.5 -127.5t-51 -82.5t-70 -42t-83.5 -13zM317 710q-53 0 -83 32.5t-35 77.5h35q5 -34 25.5 -56t57.5 -22t57.5 22t25.5 56h35
q-5 -45 -35 -77.5t-83 -32.5z" />
    <glyph glyph-name="ubreve" unicode="&#x16d;" horiz-adv-x="529" 
d="M230 -12q-74 0 -109.5 45.5t-35.5 138.5v308h44v-302q0 -77 26 -113.5t83 -36.5q42 0 77 23t78 75v354h44v-480h-37l-5 80h-2q-79 -92 -163 -92zM265 570q-56 0 -85.5 40.5t-35.5 89.5h34q5 -38 27.5 -67t59.5 -29t59.5 29t27.5 67h34q-6 -49 -35.5 -89.5t-85.5 -40.5z
" />
    <glyph glyph-name="Uring" unicode="&#x16e;" horiz-adv-x="634" 
d="M316 -12q-45 0 -82.5 13t-70 42t-50.5 82.5t-18 127.5v406h46v-401q0 -122 48.5 -175t126.5 -53q80 0 130 53t50 175v401h43v-406q0 -74 -18.5 -127.5t-51 -82.5t-70 -42t-83.5 -13zM317 700q-36 0 -59 22.5t-23 59.5q0 36 23 59t59 23q34 0 58 -23t24 -59
q0 -37 -23.5 -59.5t-58.5 -22.5zM317 726q21 0 36 15t15 41q0 25 -15 40.5t-36 15.5q-22 0 -37 -15t-15 -41q0 -27 14.5 -41.5t37.5 -14.5z" />
    <glyph glyph-name="uring" unicode="&#x16f;" horiz-adv-x="529" 
d="M230 -12q-74 0 -109.5 45.5t-35.5 138.5v308h44v-302q0 -77 26 -113.5t83 -36.5q42 0 77 23t78 75v354h44v-480h-37l-5 80h-2q-79 -92 -163 -92zM265 539q-36 0 -59 24t-23 62q0 39 23 63t59 24t59 -24t23 -63q0 -38 -23 -62t-59 -24zM265 565q22 0 37 16.5t15 43.5
t-15 44t-37 17t-37 -17t-15 -44t15 -43.5t37 -16.5z" />
    <glyph glyph-name="Uhungarumlaut" unicode="&#x170;" horiz-adv-x="634" 
d="M223 709l78 111h51l-92 -111h-37zM369 709l78 111h51l-92 -111h-37zM316 -12q-45 0 -82.5 13t-70 42t-50.5 82.5t-18 127.5v406h46v-401q0 -122 48.5 -175t126.5 -53q80 0 130 53t50 175v401h43v-406q0 -74 -18.5 -127.5t-51 -82.5t-70 -42t-83.5 -13z" />
    <glyph glyph-name="uhungarumlaut" unicode="&#x171;" horiz-adv-x="529" 
d="M181 570l82 158h46l-93 -158h-35zM315 570l82 158h47l-94 -158h-35zM230 -12q-74 0 -109.5 45.5t-35.5 138.5v308h44v-302q0 -77 26 -113.5t83 -36.5q42 0 77 23t78 75v354h44v-480h-37l-5 80h-2q-79 -92 -163 -92z" />
    <glyph glyph-name="Uogonek" unicode="&#x172;" horiz-adv-x="634" 
d="M346 -205q-37 0 -61 21t-24 61q0 8 1 16t4 15.5t5 13t7 13.5t7.5 11.5t10 11.5t9.5 10l10.5 10.5l9.5 9.5q-230 0 -230 265v406h46v-401q0 -122 48.5 -175t126.5 -53q80 0 130 53t50 175v401h43v-406q0 -62 -11.5 -107t-36 -74t-47.5 -45.5t-59 -34.5q-38 -20 -61 -50.5
t-23 -57.5q0 -25 15 -38.5t36 -13.5q23 0 43 14l16 -27q-28 -24 -65 -24z" />
    <glyph glyph-name="uogonek" unicode="&#x173;" horiz-adv-x="529" 
d="M394 -203q-36 0 -58.5 21t-22.5 60q0 65 87 129l-5 73h-2q-79 -92 -163 -92q-74 0 -109.5 45.5t-35.5 138.5v308h44v-302q0 -78 25.5 -114t83.5 -36q42 0 77 23t78 75v354h44v-480q-86 -53 -86 -116q0 -25 14.5 -38.5t34.5 -13.5q25 0 43 14l16 -26q-27 -23 -65 -23z" />
    <glyph glyph-name="Wcircumflex" unicode="&#x174;" horiz-adv-x="770" 
d="M267 709l96 111h44l96 -111h-41l-75 76h-4l-75 -76h-41zM178 0l-150 659h48l83 -388q30 -144 45 -215h4q25 112 51 215l103 388h47l103 -388q9 -36 26.5 -107.5t26.5 -107.5h4q7 36 21 107.5t22 107.5l83 388h45l-147 -659h-51l-120 452q-3 15 -16 67t-19 82h-4
q-6 -28 -19 -77.5t-18 -71.5l-118 -452h-50z" />
    <glyph glyph-name="wcircumflex" unicode="&#x175;" horiz-adv-x="685" 
d="M217 572l105 156h42l105 -156h-39l-85 118h-4l-85 -118h-39zM166 0l-142 480h48l86 -311q22 -80 33 -128h4q5 19 10.5 40t13 47t11.5 41l87 311h53l87 -311q7 -25 19.5 -69.5t16.5 -58.5h4q5 19 16.5 61.5t17.5 66.5l85 311h45l-138 -480h-58l-84 298q-7 24 -18.5 69
t-18.5 68h-4q-19 -80 -38 -139l-83 -296h-53z" />
    <glyph glyph-name="Ycircumflex" unicode="&#x176;" horiz-adv-x="447" 
d="M200 0v267l-197 392h49l100 -206q53 -111 70 -142h4q55 106 71 142l100 206h47l-198 -392v-267h-46zM105 709l96 111h44l96 -111h-41l-75 76h-4l-75 -76h-41z" />
    <glyph glyph-name="ycircumflex" unicode="&#x177;" horiz-adv-x="436" 
d="M73 -219q-27 0 -49 10l10 39q20 -8 39 -8q81 0 123 127l13 42l-197 489h48l116 -302q38 -101 52 -134h4q5 14 44 134l103 302h45l-190 -540q-53 -159 -161 -159zM103 572l105 156h42l105 -156h-39l-85 118h-4l-85 -118h-39z" />
    <glyph glyph-name="Ydieresis" unicode="&#x178;" horiz-adv-x="447" 
d="M200 0v267l-197 392h49l100 -206q53 -111 70 -142h4q55 106 71 142l100 206h47l-198 -392v-267h-46zM144 725q-16 0 -26 10t-10 26q0 17 10 27t26 10t26.5 -10t10.5 -27q0 -16 -10.5 -26t-26.5 -10zM302 725q-16 0 -26.5 10t-10.5 26q0 17 10.5 27t26.5 10t26 -10t10 -27
q0 -16 -10 -26t-26 -10z" />
    <glyph glyph-name="Zacute" unicode="&#x179;" horiz-adv-x="538" 
d="M50 0v27l379 592h-346v40h404v-27l-380 -592h383v-40h-440zM242 709l93 111h61l-112 -111h-42z" />
    <glyph glyph-name="zacute" unicode="&#x17a;" horiz-adv-x="404" 
d="M164 572l100 156h56l-116 -156h-40zM27 0v24l284 418h-253v38h310v-23l-283 -418h293v-39h-351z" />
    <glyph glyph-name="Zdotaccent" unicode="&#x17b;" horiz-adv-x="538" 
d="M50 0v27l379 592h-346v40h404v-27l-380 -592h383v-40h-440zM280 721q-17 0 -28.5 11.5t-11.5 29.5q0 17 11.5 28t28.5 11t28.5 -11t11.5 -28q0 -18 -11.5 -29.5t-28.5 -11.5z" />
    <glyph glyph-name="zdotaccent" unicode="&#x17c;" horiz-adv-x="404" 
d="M219 596q-17 0 -27.5 11t-10.5 30q0 17 10.5 28t27.5 11t27.5 -11t10.5 -28q0 -19 -10.5 -30t-27.5 -11zM27 0v24l284 418h-253v38h310v-23l-283 -418h293v-39h-351z" />
    <glyph glyph-name="Zcaron" unicode="&#x17d;" horiz-adv-x="538" 
d="M50 0v27l379 592h-346v40h404v-27l-380 -592h383v-40h-440zM258 709l-96 111h41l75 -77h4l75 77h41l-96 -111h-44z" />
    <glyph glyph-name="zcaron" unicode="&#x17e;" horiz-adv-x="404" 
d="M198 572l-105 156h39l85 -118h4l85 118h39l-105 -156h-42zM27 0v24l284 418h-253v38h310v-23l-283 -418h293v-39h-351z" />
    <glyph glyph-name="uni0180" unicode="&#x180;" horiz-adv-x="528" 
d="M136 340v-251q73 -62 142 -62q73 0 120 57t47 146q0 86 -37 137.5t-115 51.5q-69 0 -157 -79zM136 477l-2 -94q90 75 166 75q94 0 143 -61t49 -166q0 -111 -62 -177t-150 -66q-70 0 -144 61h-2l-5 -49h-37v581h-77v29l77 4v105h44v-105h190v-33h-190v-104z" />
    <glyph glyph-name="uni018F" unicode="&#x18f;" horiz-adv-x="648" 
d="M546 299h-437q3 -124 61.5 -198t151.5 -74q100 0 158.5 71.5t65.5 200.5zM155 565l-24 31q77 75 195 75q128 0 197.5 -88.5t69.5 -251.5q0 -161 -73 -252t-198 -91q-122 0 -191 93t-69 245q0 1 0.5 5t0.5 6h484q-2 141 -58.5 218t-162.5 77q-101 0 -171 -67z" />
    <glyph glyph-name="uni0192" unicode="&#x192;" horiz-adv-x="479" 
d="M443 653l-12 -36q-34 15 -62 15q-84 0 -102 -160l-7 -67h138v-37h-142l-29 -266q-10 -98 -45.5 -149t-105.5 -51q-38 0 -65 16l13 34q24 -11 52 -11q91 0 108 165l28 262h-95v33l67 4h32l7 63q23 203 146 203q33 0 74 -18z" />
    <glyph glyph-name="uni0193" unicode="&#x193;" horiz-adv-x="605" 
d="M533 324v-261q-70 -75 -195 -75q-128 0 -205.5 93t-77.5 250q0 156 80 248t211 92q64 0 119 -23q-14 28 -14 58q0 41 27 65t68 24q21 0 49 -12l-10 -36q-27 10 -37 10q-26 0 -41 -17t-15 -40q0 -37 34 -89l-27 -31q-62 49 -152 49q-113 0 -178.5 -80t-65.5 -218
t63 -219.5t175 -81.5q98 0 148 50v205h-158v39h202z" />
    <glyph glyph-name="Ohorn" unicode="&#x1a0;" horiz-adv-x="652" 
d="M330 30q101 0 162 82.5t61 219.5q0 136 -61 216.5t-162 80.5t-162 -80.5t-61 -216.5q0 -137 61 -219.5t162 -82.5zM535 781l39 19q20 -34 20 -70q0 -86 -103 -116q111 -92 111 -282q0 -155 -76 -249.5t-196 -94.5t-195.5 94.5t-75.5 249.5q0 154 75.5 246.5t195.5 92.5
q69 0 125 -32q94 16 94 88q0 30 -14 54z" />
    <glyph glyph-name="ohorn" unicode="&#x1a1;" horiz-adv-x="535" 
d="M267 27q73 0 121.5 59t48.5 153t-48.5 154t-121.5 60t-121 -59.5t-48 -154.5q0 -94 48 -153t121 -59zM443 622l38 20q19 -35 19 -70q0 -92 -104 -125q87 -70 87 -208q0 -115 -62.5 -183t-153.5 -68q-90 0 -152.5 68t-62.5 183q0 116 62.5 184.5t152.5 68.5q50 0 92 -21
q98 17 98 98q0 29 -14 53z" />
    <glyph glyph-name="Uhorn" unicode="&#x1af;" horiz-adv-x="645" 
d="M586 801l40 19q19 -35 19 -70q0 -90 -106 -117v-380q0 -74 -18.5 -127.5t-51 -82.5t-70 -42t-83.5 -13q-45 0 -82.5 13t-70 42t-50.5 82.5t-18 127.5v406h46v-401q0 -122 48.5 -175t126.5 -53q80 0 130 53t50 175v401h10q49 7 71.5 28t22.5 60q0 30 -14 54z" />
    <glyph glyph-name="uhorn" unicode="&#x1b0;" horiz-adv-x="529" 
d="M472 632l37 20q20 -34 20 -70q0 -93 -92 -125v-457h-37l-5 80h-2q-79 -92 -163 -92q-74 0 -109.5 45.5t-35.5 138.5v308h44v-302q0 -77 26 -113.5t83 -36.5q42 0 77 23t78 75v354h7q86 17 86 99q0 27 -14 53z" />
    <glyph glyph-name="uni01C2" unicode="&#x1c2;" horiz-adv-x="263" 
d="M257 332h-101v-123h101v-33h-101v-426h-36v426h-114v29l78 4h36v123h-114v29l78 4h36v385h36v-385h101v-33z" />
    <glyph glyph-name="uni01CD" unicode="&#x1cd;" horiz-adv-x="526" 
d="M285 709h-44l-96 111h41l75 -77h4l75 77h41zM146 265h234l-42 123q-46 133 -73 228h-4q-27 -95 -73 -228zM470 0l-77 226h-261l-78 -226h-46l232 659h46l232 -659h-48z" />
    <glyph glyph-name="uni01CE" unicode="&#x1ce;" horiz-adv-x="491" 
d="M197 -12q-61 0 -100 33.5t-39 98.5q0 79 73.5 121t236.5 60q2 152 -114 152q-76 0 -153 -56l-20 33q88 62 179 62q80 0 116 -50.5t36 -134.5v-307h-38l-4 62h-3q-93 -74 -170 -74zM205 26q71 0 163 78v163q-144 -17 -204.5 -51.5t-60.5 -93.5q0 -49 28.5 -72.5
t73.5 -23.5zM234 572l-105 156h39l85 -118h4l85 118h39l-105 -156h-42z" />
    <glyph glyph-name="uni01CF" unicode="&#x1cf;" horiz-adv-x="240" 
d="M97 0v659h46v-659h-46zM98 709l-96 111h41l75 -77h4l75 77h41l-96 -111h-44z" />
    <glyph glyph-name="uni01D0" unicode="&#x1d0;" horiz-adv-x="229" 
d="M93 572l-105 156h39l85 -118h4l85 118h39l-105 -156h-42zM92 0v480h44v-480h-44z" />
    <glyph glyph-name="uni01D1" unicode="&#x1d1;" horiz-adv-x="652" 
d="M304 709l-96 111h41l75 -77h4l75 77h41l-96 -111h-44zM326 -12q-120 0 -195.5 94.5t-75.5 249.5q0 154 75.5 246.5t195.5 92.5q121 0 196.5 -92.5t75.5 -246.5q0 -155 -76 -249.5t-196 -94.5zM326 30q101 0 162 82.5t61 219.5q0 136 -61 216.5t-162 80.5t-162 -80.5
t-61 -216.5q0 -137 61 -219.5t162 -82.5z" />
    <glyph glyph-name="uni01D2" unicode="&#x1d2;" horiz-adv-x="535" 
d="M246 572l-105 156h39l85 -118h4l85 118h39l-105 -156h-42zM267 -12q-90 0 -152.5 68t-62.5 183q0 116 62.5 184.5t152.5 68.5q91 0 153.5 -68.5t62.5 -184.5q0 -115 -62.5 -183t-153.5 -68zM267 27q73 0 121.5 59t48.5 153t-48.5 154t-121.5 60t-121 -59.5t-48 -154.5
q0 -94 48 -153t121 -59z" />
    <glyph glyph-name="uni01D3" unicode="&#x1d3;" horiz-adv-x="634" 
d="M295 709l-96 111h41l75 -77h4l75 77h41l-96 -111h-44zM316 -12q-45 0 -82.5 13t-70 42t-50.5 82.5t-18 127.5v406h46v-401q0 -122 48.5 -175t126.5 -53q80 0 130 53t50 175v401h43v-406q0 -74 -18.5 -127.5t-51 -82.5t-70 -42t-83.5 -13z" />
    <glyph glyph-name="uni01D4" unicode="&#x1d4;" horiz-adv-x="529" 
d="M244 572l-105 156h39l85 -118h4l85 118h39l-105 -156h-42zM230 -12q-74 0 -109.5 45.5t-35.5 138.5v308h44v-302q0 -77 26 -113.5t83 -36.5q42 0 77 23t78 75v354h44v-480h-37l-5 80h-2q-79 -92 -163 -92z" />
    <glyph glyph-name="uni01D5" unicode="&#x1d5;" horiz-adv-x="634" 
d="M238 725q-15 0 -25 9.5t-10 25.5t10 26t25 10t25.5 -10t10.5 -26t-10.5 -25.5t-25.5 -9.5zM203 854v33h228v-33h-228zM396 725q-15 0 -25.5 9.5t-10.5 25.5t10.5 26t25.5 10t25 -10t10 -26t-10 -25.5t-25 -9.5zM316 -12q-45 0 -82.5 13t-70 42t-50.5 82.5t-18 127.5v406
h46v-401q0 -122 48.5 -175t126.5 -53q80 0 130 53t50 175v401h43v-406q0 -74 -18.5 -127.5t-51 -82.5t-70 -42t-83.5 -13z" />
    <glyph glyph-name="uni01D6" unicode="&#x1d6;" horiz-adv-x="529" 
d="M230 -12q-74 0 -109.5 45.5t-35.5 138.5v308h44v-302q0 -77 26 -113.5t83 -36.5q42 0 77 23t78 75v354h44v-480h-37l-5 80h-2q-79 -92 -163 -92zM186 598q-15 0 -25 10.5t-10 25.5t10 25t25 10t25.5 -10t10.5 -25t-10.5 -25.5t-25.5 -10.5zM150 747v33h228v-33h-228z
M344 598q-15 0 -25.5 10.5t-10.5 25.5t10.5 25t25.5 10t25 -10t10 -25t-10 -25.5t-25 -10.5z" />
    <glyph glyph-name="uni01D7" unicode="&#x1d7;" horiz-adv-x="634" 
d="M238 725q-15 0 -25 9.5t-10 25.5t10 26t25 10t25.5 -10t10.5 -26t-10.5 -25.5t-25.5 -9.5zM280 829l94 106h54l-109 -106h-39zM396 725q-15 0 -25.5 9.5t-10.5 25.5t10.5 26t25.5 10t25 -10t10 -26t-10 -25.5t-25 -9.5zM316 -12q-45 0 -82.5 13t-70 42t-50.5 82.5
t-18 127.5v406h46v-401q0 -122 48.5 -175t126.5 -53q80 0 130 53t50 175v401h43v-406q0 -74 -18.5 -127.5t-51 -82.5t-70 -42t-83.5 -13z" />
    <glyph glyph-name="uni01D8" unicode="&#x1d8;" horiz-adv-x="529" 
d="M186 598q-15 0 -25 10.5t-10 25.5t10 25t25 10t25.5 -10t10.5 -25t-10.5 -25.5t-25.5 -10.5zM222 710l80 98h52l-96 -98h-36zM344 598q-15 0 -25.5 10.5t-10.5 25.5t10.5 25t25.5 10t25 -10t10 -25t-10 -25.5t-25 -10.5zM230 -12q-74 0 -109.5 45.5t-35.5 138.5v308h44
v-302q0 -77 26 -113.5t83 -36.5q42 0 77 23t78 75v354h44v-480h-37l-5 80h-2q-79 -92 -163 -92z" />
    <glyph glyph-name="uni01D9" unicode="&#x1d9;" horiz-adv-x="634" 
d="M296 829l-96 106h40l75 -72h4l75 72h40l-96 -106h-42zM238 725q-15 0 -25 9.5t-10 25.5t10 26t25 10t25.5 -10t10.5 -26t-10.5 -25.5t-25.5 -9.5zM396 725q-15 0 -25.5 9.5t-10.5 25.5t10.5 26t25.5 10t25 -10t10 -26t-10 -25.5t-25 -9.5zM316 -12q-45 0 -82.5 13t-70 42
t-50.5 82.5t-18 127.5v406h46v-401q0 -122 48.5 -175t126.5 -53q80 0 130 53t50 175v401h43v-406q0 -74 -18.5 -127.5t-51 -82.5t-70 -42t-83.5 -13z" />
    <glyph glyph-name="uni01DA" unicode="&#x1da;" horiz-adv-x="529" 
d="M245 710l-93 98h39l72 -67h4l72 67h39l-93 -98h-40zM186 598q-15 0 -25 10.5t-10 25.5t10 25t25 10t25.5 -10t10.5 -25t-10.5 -25.5t-25.5 -10.5zM344 598q-15 0 -25.5 10.5t-10.5 25.5t10.5 25t25.5 10t25 -10t10 -25t-10 -25.5t-25 -10.5zM230 -12q-74 0 -109.5 45.5
t-35.5 138.5v308h44v-302q0 -77 26 -113.5t83 -36.5q42 0 77 23t78 75v354h44v-480h-37l-5 80h-2q-79 -92 -163 -92z" />
    <glyph glyph-name="uni01DB" unicode="&#x1db;" horiz-adv-x="634" 
d="M238 725q-15 0 -25 9.5t-10 25.5t10 26t25 10t25.5 -10t10.5 -26t-10.5 -25.5t-25.5 -9.5zM315 829l-109 106h54l94 -106h-39zM396 725q-15 0 -25.5 9.5t-10.5 25.5t10.5 26t25.5 10t25 -10t10 -26t-10 -25.5t-25 -9.5zM316 -12q-45 0 -82.5 13t-70 42t-50.5 82.5
t-18 127.5v406h46v-401q0 -122 48.5 -175t126.5 -53q80 0 130 53t50 175v401h43v-406q0 -74 -18.5 -127.5t-51 -82.5t-70 -42t-83.5 -13z" />
    <glyph glyph-name="uni01DC" unicode="&#x1dc;" horiz-adv-x="529" 
d="M230 -12q-74 0 -109.5 45.5t-35.5 138.5v308h44v-302q0 -77 26 -113.5t83 -36.5q42 0 77 23t78 75v354h44v-480h-37l-5 80h-2q-79 -92 -163 -92zM186 598q-15 0 -25 10.5t-10 25.5t10 25t25 10t25.5 -10t10.5 -25t-10.5 -25.5t-25.5 -10.5zM272 710l-96 98h52l80 -98h-36
zM344 598q-15 0 -25.5 10.5t-10.5 25.5t10.5 25t25.5 10t25 -10t10 -25t-10 -25.5t-25 -10.5z" />
    <glyph glyph-name="uni01E2" unicode="&#x1e2;" horiz-adv-x="809" 
d="M694 781v-36h-228v36h228zM210 255h201v364h-4q-29 -53 -124 -231zM457 40h305v-40h-351v217h-222l-119 -217h-49l365 659h366v-40h-295v-249h245v-40h-245v-290z" />
    <glyph glyph-name="uni01E3" unicode="&#x1e3;" horiz-adv-x="784" 
d="M205 -12q-61 0 -100.5 33.5t-39.5 97.5q0 79 73.5 121.5t231.5 60.5q2 152 -113 152q-73 0 -148 -56l-20 33q88 62 172 62q57 0 92.5 -31.5t47.5 -88.5q27 56 71 88t96 32q84 0 131 -58t47 -164q0 -24 -2 -36h-332q0 -90 49 -148.5t122 -58.5q65 0 125 43l19 -35
q-25 -15 -40.5 -23t-45 -16t-62.5 -8q-101 0 -172 99q-47 -45 -102 -72t-100 -27zM212 26q40 0 89.5 25t89.5 68q-21 43 -21 121l-1 27q-138 -17 -198 -51.5t-60 -93.5q0 -49 28 -72.5t73 -23.5zM412 268h293q0 91 -36.5 138.5t-101.5 47.5q-60 0 -104 -52t-51 -134z
M300 606v36h228v-36h-228z" />
    <glyph glyph-name="Gcaron" unicode="&#x1e6;" horiz-adv-x="605" 
d="M324 709l-96 111h41l75 -77h4l75 77h41l-96 -111h-44zM338 -12q-128 0 -205.5 93t-77.5 250q0 156 80 248t211 92q105 0 180 -79l-27 -31q-62 68 -152 68q-113 0 -178.5 -80t-65.5 -218t63 -219.5t175 -81.5q98 0 148 50v205h-158v39h202v-261q-70 -75 -195 -75z" />
    <glyph glyph-name="gcaron" unicode="&#x1e7;" horiz-adv-x="487" 
d="M240 572l-105 156h39l85 -118h4l85 118h39l-105 -156h-42zM249 -231q-91 0 -144 36t-53 97q0 64 71 116v4q-42 25 -42 77q0 51 52 88v4q-60 52 -60 132q0 73 49 121t120 48q33 0 63 -12h163v-37h-112q53 -46 53 -121q0 -73 -48 -121t-119 -48q-46 0 -80 20
q-39 -32 -39 -69q0 -63 92 -63h103q81 0 119.5 -26.5t38.5 -83.5q0 -65 -63.5 -113.5t-163.5 -48.5zM242 188q51 0 87.5 38t36.5 97t-36 96t-88 37q-53 0 -89 -36.5t-36 -96.5q0 -59 36.5 -97t88.5 -38zM254 -195q78 0 127.5 37t49.5 84q0 73 -111 73h-103q-27 0 -60 8
q-63 -43 -63 -101q0 -46 42.5 -73.5t117.5 -27.5z" />
    <glyph glyph-name="uni01EA" unicode="&#x1ea;" horiz-adv-x="652" 
d="M357 -205q-36 0 -60 21t-24 61q0 63 61 111q-128 0 -203.5 94t-75.5 250q0 154 75.5 246.5t195.5 92.5q121 0 196.5 -92.5t75.5 -246.5q0 -129 -51 -211.5t-152 -128.5q-40 -18 -61 -48t-21 -60q0 -25 15 -38.5t35 -13.5q25 0 43 14l17 -27q-30 -24 -66 -24zM326 30
q101 0 162 82.5t61 219.5q0 136 -61 216.5t-162 80.5t-162 -80.5t-61 -216.5q0 -137 61 -219.5t162 -82.5z" />
    <glyph glyph-name="uni01EB" unicode="&#x1eb;" horiz-adv-x="535" 
d="M294 -203q-35 0 -58 21t-23 60q0 34 17.5 63.5t38.5 46.5q-93 2 -155 69.5t-62 181.5q0 116 62.5 184.5t152.5 68.5q91 0 153.5 -68.5t62.5 -184.5q0 -97 -40.5 -154.5t-116.5 -91.5q-33 -15 -54 -46t-21 -63q0 -25 14.5 -38.5t34.5 -13.5q25 0 43 14l16 -26
q-27 -23 -65 -23zM267 27q73 0 121.5 59t48.5 153t-48.5 154t-121.5 60t-121 -59.5t-48 -154.5q0 -94 48 -153t121 -59z" />
    <glyph glyph-name="uni01F4" unicode="&#x1f4;" horiz-adv-x="605" 
d="M307 709l93 111h61l-112 -111h-42zM338 -12q-128 0 -205.5 93t-77.5 250q0 156 80 248t211 92q105 0 180 -79l-27 -31q-62 68 -152 68q-113 0 -178.5 -80t-65.5 -218t63 -219.5t175 -81.5q98 0 148 50v205h-158v39h202v-261q-70 -75 -195 -75z" />
    <glyph glyph-name="uni01F5" unicode="&#x1f5;" horiz-adv-x="487" 
d="M206 572l100 156h56l-116 -156h-40zM249 -231q-91 0 -144 36t-53 97q0 64 71 116v4q-42 25 -42 77q0 51 52 88v4q-60 52 -60 132q0 73 49 121t120 48q33 0 63 -12h163v-37h-112q53 -46 53 -121q0 -73 -48 -121t-119 -48q-46 0 -80 20q-39 -32 -39 -69q0 -63 92 -63h103
q81 0 119.5 -26.5t38.5 -83.5q0 -65 -63.5 -113.5t-163.5 -48.5zM242 188q51 0 87.5 38t36.5 97t-36 96t-88 37q-53 0 -89 -36.5t-36 -96.5q0 -59 36.5 -97t88.5 -38zM254 -195q78 0 127.5 37t49.5 84q0 73 -111 73h-103q-27 0 -60 8q-63 -43 -63 -101q0 -46 42.5 -73.5
t117.5 -27.5z" />
    <glyph glyph-name="uni01F8" unicode="&#x1f8;" horiz-adv-x="636" 
d="M319 709l-112 111h61l93 -111h-42zM97 0v659h48l278 -465l74 -131h4l-6 192v404h44v-659h-48l-278 465l-74 131h-4q1 -21 2.5 -58.5t2.5 -69t1 -59.5v-409h-44z" />
    <glyph glyph-name="uni01F9" unicode="&#x1f9;" horiz-adv-x="532" 
d="M297 572l-116 156h56l100 -156h-40zM92 0v480h38l4 -74h3q86 86 165 86q74 0 109.5 -45.5t35.5 -138.5v-308h-44v302q0 77 -26 113.5t-84 36.5q-41 0 -75.5 -21t-81.5 -69v-362h-44z" />
    <glyph glyph-name="uni01FC" unicode="&#x1fc;" horiz-adv-x="809" 
d="M696 822l-112 -111h-42l93 111h61zM210 255h201v364h-4q-29 -53 -124 -231zM457 40h305v-40h-351v217h-222l-119 -217h-49l365 659h366v-40h-295v-249h245v-40h-245v-290z" />
    <glyph glyph-name="uni01FD" unicode="&#x1fd;" horiz-adv-x="784" 
d="M359 572l100 156h56l-116 -156h-40zM205 -12q-61 0 -100.5 33.5t-39.5 97.5q0 79 73.5 121.5t231.5 60.5q2 152 -113 152q-73 0 -148 -56l-20 33q88 62 172 62q57 0 92.5 -31.5t47.5 -88.5q27 56 71 88t96 32q84 0 131 -58t47 -164q0 -24 -2 -36h-332q0 -90 49 -148.5
t122 -58.5q65 0 125 43l19 -35q-25 -15 -40.5 -23t-45 -16t-62.5 -8q-101 0 -172 99q-47 -45 -102 -72t-100 -27zM212 26q40 0 89.5 25t89.5 68q-21 43 -21 121l-1 27q-138 -17 -198 -51.5t-60 -93.5q0 -49 28 -72.5t73 -23.5zM412 268h293q0 91 -36.5 138.5t-101.5 47.5
q-60 0 -104 -52t-51 -134z" />
    <glyph glyph-name="uni0218" unicode="&#x218;" horiz-adv-x="521" 
d="M269 -12q-134 0 -223 99l30 32q79 -89 193 -89q75 0 119.5 36.5t44.5 95.5q0 30 -8.5 52t-27.5 38t-35.5 25t-46.5 23l-100 45q-27 12 -46 23.5t-41.5 30.5t-34.5 47t-12 63q0 71 54.5 116.5t137.5 45.5q110 0 183 -79l-26 -30q-65 67 -157 67q-66 0 -106 -32t-40 -86
q0 -27 9.5 -48t30.5 -36.5t34.5 -23t39.5 -19.5l100 -44q67 -30 103 -68t36 -107q0 -77 -58 -127t-153 -50zM192 -209l-7 30q63 4 88 16.5t25 35.5q0 41 -77 47l13 29q57 -8 80 -24.5t23 -48.5q0 -76 -145 -85z" />
    <glyph glyph-name="uni0219" unicode="&#x219;" horiz-adv-x="405" 
d="M208 -12q-97 0 -176 66l26 33q74 -61 153 -61q54 0 84 27.5t30 67.5t-31.5 63t-85.5 43q-29 10 -45 16.5t-40 19t-36 25.5t-22 32.5t-10 43.5q0 55 41.5 91.5t113.5 36.5q77 0 137 -50l-24 -31q-57 43 -115 43q-52 0 -80 -25.5t-28 -61.5q0 -20 8.5 -35t27.5 -27
t34 -18.5t43 -16.5q83 -31 109 -51q48 -36 48 -96q0 -57 -43.5 -96t-118.5 -39zM140 -209l-7 30q63 4 88 16.5t25 35.5q0 41 -77 47l13 29q57 -8 80 -24.5t23 -48.5q0 -76 -145 -85z" />
    <glyph glyph-name="uni021A" unicode="&#x21a;" horiz-adv-x="524" 
d="M186 -209l-7 30q63 4 88 16.5t25 35.5q0 41 -77 47l13 29q57 -8 80 -24.5t23 -48.5q0 -76 -145 -85zM239 0v619h-210v40h466v-40h-210v-619h-46z" />
    <glyph glyph-name="uni021B" unicode="&#x21b;" horiz-adv-x="312" 
d="M123 -209l-7 30q63 4 88 16.5t25 35.5q0 41 -77 47l13 29q57 -8 80 -24.5t23 -48.5q0 -76 -145 -85zM223 -12q-66 0 -93 37.5t-27 107.5v309h-75v34l76 4l6 139h38v-139h139v-38h-139v-313q0 -50 17.5 -76t63.5 -26q28 0 60 15l12 -36q-50 -18 -78 -18z" />
    <glyph glyph-name="uni0237" unicode="&#x237;" horiz-adv-x="229" 
d="M29 -229q-32 0 -62 12l11 36q30 -10 50 -10q38 0 51 26.5t13 78.5v566h45v-569q0 -140 -108 -140z" />
    <glyph glyph-name="uni0243" unicode="&#x243;" horiz-adv-x="588" 
d="M157 37h133q101 0 156.5 39t55.5 117q0 71 -55 106.5t-157 35.5h-133v-124h166v-33h-166v-141zM157 622v-252h113q100 0 145.5 32.5t45.5 98.5q0 121 -185 121h-119zM389 357v-4q74 -11 116 -51.5t42 -108.5q0 -94 -65.5 -143.5t-179.5 -49.5h-191v178h-78v30l78 3v448
h178q102 0 159.5 -40t57.5 -120q0 -52 -30 -89.5t-87 -52.5z" />
    <glyph glyph-name="uni0250" unicode="&#x250;" horiz-adv-x="499" 
d="M266 -12q-96 0 -139 53.5t-43 141.5v297h38l5 -72h2q84 84 181 84q56 0 92 -30.5t36 -90.5q0 -83 -73.5 -128t-235.5 -64q-2 -62 30 -107t111 -45q72 0 144 56l20 -33q-83 -62 -168 -62zM129 213q144 18 204 54.5t60 99.5q0 45 -25.5 66t-66.5 21q-84 0 -172 -89v-152z
" />
    <glyph glyph-name="uni0251" unicode="&#x251;" horiz-adv-x="544" 
d="M251 -12q-92 0 -145.5 65.5t-53.5 185.5q0 113 62.5 183t151.5 70q71 0 142 -58h2l3 46h39v-480h-38l-4 62h-3q-74 -74 -156 -74zM257 27q72 0 151 79v285q-70 62 -140 62q-72 0 -120.5 -61.5t-48.5 -152.5q0 -97 41.5 -154.5t116.5 -57.5z" />
    <glyph glyph-name="uni0252" unicode="&#x252;" horiz-adv-x="544" 
d="M280 -12q-65 0 -144 58h-2l-3 -46h-39v480h38l4 -62h3q89 74 163 74q94 0 143 -65.5t49 -179.5q0 -118 -62 -188.5t-150 -70.5zM278 27q73 0 120 61.5t47 158.5q0 95 -37 150.5t-115 55.5q-67 0 -157 -79v-285q76 -62 142 -62z" />
    <glyph glyph-name="uni0253" unicode="&#x253;" horiz-adv-x="544" 
d="M280 -12q-71 0 -144 57h-2l-5 -45h-37v558q0 82 39 127.5t109 45.5q37 0 72 -16l-14 -36q-28 14 -57 14q-103 0 -105 -138l-2 -140q90 75 166 75q94 0 143 -65t49 -179q0 -117 -62 -187.5t-150 -70.5zM278 27q73 0 120 61.5t47 157.5q0 94 -37 149.5t-115 55.5
q-69 0 -157 -79v-283q73 -62 142 -62z" />
    <glyph glyph-name="uni0254" unicode="&#x254;" horiz-adv-x="449" 
d="M179 -12q-81 0 -153 63l22 31q60 -55 129 -55q77 0 125 58.5t48 153.5t-47 154.5t-117 59.5q-69 0 -123 -51l-26 31q66 59 153 59q86 0 146.5 -68t60.5 -185q0 -116 -62 -183.5t-156 -67.5z" />
    <glyph glyph-name="uni0255" unicode="&#x255;" horiz-adv-x="449" 
d="M278 26q43 0 71.5 17t28.5 44q0 21 -16 36.5t-45 15.5q-68 0 -136 -83q44 -30 97 -30zM412 433l-26 -30q-55 51 -114 51q-75 0 -125 -60.5t-50 -154.5q0 -97 56 -158q75 94 166 94q47 0 73.5 -24t26.5 -62q0 -43 -38.5 -72t-102.5 -29q-66 0 -121 35q-25 -41 -42 -90
l-38 15q22 57 50 98q-75 70 -75 193q0 116 63.5 184.5t155.5 68.5q76 0 141 -59z" />
    <glyph glyph-name="uni0256" unicode="&#x256;" horiz-adv-x="544" 
d="M505 -179q-50 0 -73.5 31t-23.5 98l2 113q-79 -75 -159 -75q-92 0 -145.5 65.5t-53.5 185.5q0 113 62.5 183t150.5 70q41 0 73 -14t72 -45l-2 88v210h44v-773q0 -98 54 -98q18 0 41 9l10 -36q-22 -12 -52 -12zM257 27q72 0 151 79v285q-70 62 -140 62q-72 0 -120.5 -61.5
t-48.5 -152.5q0 -97 41.5 -154.5t116.5 -57.5z" />
    <glyph glyph-name="uni0257" unicode="&#x257;" horiz-adv-x="544" 
d="M251 -12q-92 0 -145.5 65.5t-53.5 185.5q0 113 62.5 183t150.5 70q41 0 73 -14t72 -45l-2 163q0 137 105 137q27 0 49 -10l-10 -36q-20 8 -38 8q-62 0 -62 -104v-591h-38l-4 62h-3q-74 -74 -156 -74zM257 27q72 0 151 79v285q-70 62 -140 62q-72 0 -120.5 -61.5
t-48.5 -152.5q0 -97 41.5 -154.5t116.5 -57.5z" />
    <glyph glyph-name="uni0258" unicode="&#x258;" horiz-adv-x="483" 
d="M213 -12q-79 0 -155 47l18 34q60 -43 133 -43q82 0 128.5 57.5t48.5 150.5h-346q-2 12 -2 36q0 104 53.5 163t140.5 59t143 -68.5t56 -184.5t-61 -183.5t-157 -67.5zM79 270h307q-8 87 -48.5 135.5t-106.5 48.5q-67 0 -109.5 -47.5t-42.5 -136.5z" />
    <glyph glyph-name="uni0259" unicode="&#x259;" horiz-adv-x="483" 
d="M231 -12q-86 0 -139.5 60.5t-53.5 170.5q0 26 2 38h346q-2 87 -45.5 142t-118.5 55q-70 0 -136 -46l-18 34q74 50 159 50q91 0 147.5 -67t56.5 -184q0 -116 -56 -184.5t-144 -68.5zM230 26q67 0 108 52t48 143h-307q0 -97 41 -146t110 -49z" />
    <glyph glyph-name="uni025A" unicode="&#x25a;" horiz-adv-x="613" 
d="M385 285l-303 -119q11 -66 54 -103t106 -37q67 0 106.5 61t39.5 150q0 25 -3 48zM615 285l18 -28q-31 -24 -60 -24t-52 23t-30 71l-63 -25q5 -32 5 -63q0 -106 -52.5 -178.5t-138.5 -72.5q-87 0 -141 56.5t-63 141.5l340 135q-17 65 -58.5 99t-97.5 34q-68 0 -134 -46
l-18 34q72 50 155 50q69 0 121.5 -40t73.5 -114l74 29l30 -12q6 -53 18 -70t35 -17q21 0 38 17z" />
    <glyph glyph-name="uni025B" unicode="&#x25b;" horiz-adv-x="427" 
d="M238 -12q-81 0 -133 39.5t-52 102.5q0 49 31.5 80t77.5 43v4q-38 15 -60 44.5t-22 66.5q0 59 46.5 91.5t115.5 32.5q78 0 141 -50l-21 -32q-62 44 -121 44q-50 0 -82.5 -23t-32.5 -67q0 -42 34.5 -68t103.5 -26h47v-36h-61q-72 0 -111.5 -27t-39.5 -75t40 -77t105 -29
q73 0 139 52l22 -32q-75 -58 -167 -58z" />
    <glyph glyph-name="uni025C" unicode="&#x25c;" horiz-adv-x="444" 
d="M207 -12q-92 0 -168 58l22 32q67 -52 140 -52q65 0 105 29t40 77t-40 75t-112 27h-61v36h47q69 0 103.5 26t34.5 68q0 44 -30 67t-79 23q-63 0 -127 -44l-20 32q63 50 147 50q68 0 111.5 -32.5t43.5 -91.5q0 -37 -22 -66.5t-60 -44.5v-4q46 -12 77.5 -43t31.5 -80
q0 -63 -51.5 -102.5t-132.5 -39.5z" />
    <glyph glyph-name="uni025E" unicode="&#x25e;" horiz-adv-x="534" 
d="M252 -12q-89 0 -144 39t-55 103q0 49 31.5 80t77.5 43v4q-38 15 -60 44.5t-22 66.5q0 59 46.5 91.5t120.5 32.5q104 0 170 -66t66 -187q0 -120 -64.5 -185.5t-166.5 -65.5zM254 26q84 0 133 56.5t49 156.5t-51 157.5t-137 57.5q-55 0 -88.5 -23t-33.5 -67q0 -42 34.5 -68
t102.5 -26h25v-36h-39q-71 0 -110.5 -27t-39.5 -75q0 -49 42 -77.5t113 -28.5z" />
    <glyph glyph-name="uni025F" unicode="&#x25f;" horiz-adv-x="241" 
d="M232 269v-33h-89v-325q0 -140 -108 -140q-32 0 -62 12l11 36q30 -10 50 -10q38 0 51 26.5t13 78.5v322h-93v29l93 4v211h45v-211h89z" />
    <glyph glyph-name="uni0260" unicode="&#x260;" horiz-adv-x="545" 
d="M258 -229q-92 0 -168 52l20 35q69 -50 148 -50q73 0 111.5 41.5t38.5 115.5l1 109q-74 -74 -158 -74q-91 0 -144.5 64.5t-53.5 181.5q0 111 62 178.5t151 67.5q40 0 72 -14t72 -45l-1 46q0 67 27.5 101.5t77.5 34.5q26 0 49 -10l-10 -36q-22 8 -38 8q-63 0 -63 -104v-515
q0 -87 -51 -137t-143 -50zM258 39q73 0 150 79v273q-69 62 -140 62t-120 -59.5t-49 -147.5q0 -95 42 -151t117 -56z" />
    <glyph glyph-name="uni0261" unicode="&#x261;" horiz-adv-x="545" 
d="M258 -229q-92 0 -168 52l20 35q69 -50 148 -50q73 0 111.5 41.5t38.5 115.5l1 109q-74 -74 -158 -74q-91 0 -144.5 64.5t-53.5 181.5q0 111 62 178.5t151 67.5q71 0 140 -56h3l4 44h39v-522q0 -87 -51 -137t-143 -50zM258 39q73 0 150 79v273q-69 62 -140 62t-120 -59.5
t-49 -147.5q0 -95 42 -151t117 -56z" />
    <glyph glyph-name="uni0262" unicode="&#x262;" horiz-adv-x="486" 
d="M276 -12q-100 0 -162 68t-62 187q0 113 63.5 181t165.5 68q84 0 146 -60l-26 -30q-50 52 -118 52q-82 0 -134.5 -57.5t-52.5 -153.5q0 -101 50 -159t134 -58q66 0 110 40v139h-122v37h164v-195q-61 -59 -156 -59z" />
    <glyph glyph-name="uni0263" unicode="&#x263;" horiz-adv-x="434" 
d="M220 3h-4q-40 -82 -40 -139q0 -59 42 -59q43 0 43 59t-41 139zM422 480l-174 -446q47 -106 53 -140q3 -14 3 -27q0 -45 -22 -71.5t-64 -26.5t-63.5 26.5t-21.5 71.5q0 21 9 50.5t16 46.5t31 70l-177 446h48l108 -289q8 -24 24.5 -64.5t23.5 -60.5h4q7 19 23.5 60t25.5 65
l108 289h45z" />
    <glyph glyph-name="uni0264" unicode="&#x264;" horiz-adv-x="477" 
d="M238 -12q-79 0 -119 42t-40 117q0 103 128 226q-69 80 -127 80q-29 0 -47 -14l-17 33q29 20 69 20q72 0 153 -92q81 92 153 92q41 0 70 -20l-17 -33q-18 14 -47 14q-60 0 -127 -80q128 -126 128 -226q0 -75 -40 -117t-120 -42zM238 27q56 0 85.5 34t29.5 87
q0 93 -115 201q-114 -108 -114 -201q0 -53 29 -87t85 -34z" />
    <glyph glyph-name="uni0265" unicode="&#x265;" horiz-adv-x="532" 
d="M395 -217v187l3 113q-84 -95 -168 -95q-74 0 -109.5 45.5t-35.5 138.5v308h44v-302q0 -77 26 -113.5t83 -36.5q42 0 77.5 22.5t79.5 75.5v354h44v-697h-44z" />
    <glyph glyph-name="uni0266" unicode="&#x266;" horiz-adv-x="528" 
d="M92 0v558q0 82 39 127.5t109 45.5q37 0 72 -16l-14 -36q-28 14 -57 14q-103 0 -105 -138v-152q87 87 166 87q74 0 109.5 -45.5t35.5 -138.5v-306h-44v300q0 77 -26 113.5t-84 36.5q-41 0 -75.5 -21t-81.5 -69v-360h-44z" />
    <glyph glyph-name="uni0267" unicode="&#x267;" horiz-adv-x="528" 
d="M339 -229q-31 0 -61 12l10 36q30 -10 50 -10q38 0 51.5 27t13.5 78v386q0 77 -26 113.5t-84 36.5q-41 0 -75.5 -21t-81.5 -69v-360h-44v558q0 82 39 127.5t109 45.5q37 0 72 -16l-14 -36q-28 14 -57 14q-103 0 -105 -138v-152q87 87 166 87q74 0 109.5 -45.5t35.5 -138.5
v-395q0 -71 -26 -105.5t-82 -34.5z" />
    <glyph glyph-name="uni0268" unicode="&#x268;" horiz-adv-x="241" 
d="M121 596q-17 0 -28.5 11t-11.5 28q0 18 11.5 29t28.5 11t28.5 -11t11.5 -29q0 -17 -11.5 -28t-28.5 -11zM232 269v-33h-90v-236h-44v236h-93v29l93 4v211h44v-211h90z" />
    <glyph glyph-name="uni026A" unicode="&#x26a;" horiz-adv-x="310" 
d="M43 0v39h90v403h-90v38h224v-38h-90v-403h90v-39h-224z" />
    <glyph glyph-name="uni026C" unicode="&#x26c;" horiz-adv-x="258" 
d="M105 367h18v9q0 71 -51 71q-37 0 -37 -37q0 -19 17.5 -31t52.5 -12zM257 334h-90v-276q0 -31 21 -31q8 0 18 2l8 -36q-15 -5 -32 -5q-59 0 -59 76v270h-11q-56 0 -85.5 21.5t-29.5 56.5q0 29 19.5 48.5t50.5 19.5q36 0 56 -25v264h44v-352h90v-33z" />
    <glyph glyph-name="uni026D" unicode="&#x26d;" horiz-adv-x="237" 
d="M190 -179q-51 0 -74.5 32.5t-23.5 101.5v764h44v-761q0 -98 55 -98q17 0 40 9l10 -36q-22 -12 -51 -12z" />
    <glyph glyph-name="uni026E" unicode="&#x26e;" horiz-adv-x="540" 
d="M503 457l-212 -288q104 20 168 -34t64 -150q0 -99 -57.5 -156.5t-136.5 -57.5q-110 0 -191 75l26 31q69 -67 164 -67q62 0 105.5 48.5t43.5 123.5q0 73 -40.5 114.5t-115.5 41.5q-26 0 -66 -19l-24 31l215 292h-227h-36h-47v-442h-44v719h44v-239h47h36h284v-23z" />
    <glyph glyph-name="uni026F" unicode="&#x26f;" horiz-adv-x="812" 
d="M236 -12q-144 0 -144 184v308h44v-302q0 -77 26.5 -113.5t81.5 -36.5q64 0 144 90v362h44v-302q0 -77 26.5 -113.5t81.5 -36.5q64 0 143 90v362h45v-480h-38l-5 75h-2q-76 -87 -152 -87q-104 0 -132 98q-90 -98 -163 -98z" />
    <glyph glyph-name="uni0270" unicode="&#x270;" horiz-adv-x="812" 
d="M683 -217v185l3 110q-79 -90 -155 -90q-104 0 -132 98q-90 -98 -163 -98q-144 0 -144 184v308h44v-302q0 -77 26.5 -113.5t81.5 -36.5q64 0 144 90v362h44v-302q0 -77 26.5 -113.5t81.5 -36.5q64 0 143 90v362h45v-697h-45z" />
    <glyph glyph-name="uni0271" unicode="&#x271;" horiz-adv-x="812" 
d="M621 -229q-31 0 -61 12l11 36q27 -10 49 -10q37 0 50 26.5t13 78.5v388q0 150 -107 150q-64 0 -144 -90v-362h-44v302q0 77 -26.5 113.5t-81.5 36.5q-64 0 -144 -90v-362h-44v480h38l4 -74h3q75 86 151 86q105 0 133 -98q90 98 163 98q144 0 144 -184v-397
q0 -140 -107 -140z" />
    <glyph glyph-name="uni0272" unicode="&#x272;" horiz-adv-x="532" 
d="M39 -179q-30 0 -52 12l10 36q23 -9 41 -9q54 0 54 98v522h41l1 -74h3q86 86 165 86q74 0 109.5 -45.5t35.5 -138.5v-308h-44v302q0 77 -26 113.5t-84 36.5q-41 0 -75.5 -21t-81.5 -69v-407q0 -69 -23 -101.5t-74 -32.5z" />
    <glyph glyph-name="uni0273" unicode="&#x273;" horiz-adv-x="532" 
d="M500 -179q-51 0 -74 32.5t-23 101.5v347q0 77 -26 113.5t-84 36.5q-41 0 -75.5 -21t-81.5 -69v-362h-44v480h38l4 -74h3q86 86 165 86q74 0 109.5 -45.5t35.5 -138.5v-350q0 -98 54 -98q19 0 41 9l10 -36q-22 -12 -52 -12z" />
    <glyph glyph-name="uni0274" unicode="&#x274;" horiz-adv-x="532" 
d="M92 0v480h44l200 -313q10 -15 31 -52t31 -52h4q-5 105 -5 177v240h43v-480h-43l-201 314q-10 15 -31.5 52.5t-30.5 51.5h-4q5 -107 5 -178v-240h-43z" />
    <glyph glyph-name="uni0275" unicode="&#x275;" horiz-adv-x="535" 
d="M440 234h-345q1 -96 49 -152t123 -56q76 0 124 56t49 152zM96 270h343q-8 85 -55 134.5t-117 49.5q-69 0 -116 -49.5t-55 -134.5zM267 492q93 0 154.5 -66.5t61.5 -186.5q0 -119 -61.5 -185t-154.5 -66q-92 0 -153.5 66t-61.5 185q0 120 61.5 186.5t153.5 66.5z" />
    <glyph glyph-name="uni0276" unicode="&#x276;" horiz-adv-x="684" 
d="M285 -12q-103 0 -168 67t-65 186q0 118 64.5 184.5t168.5 66.5q52 0 95 -12h277v-37h-243v-173h202v-36h-202v-197h253v-37h-287q-43 -12 -95 -12zM288 27q33 0 80 15v397q-50 14 -80 14q-84 0 -136 -55.5t-52 -156.5q0 -102 52 -158t136 -56z" />
    <glyph glyph-name="uni0278" unicode="&#x278;" horiz-adv-x="647" 
d="M345 454v-428q85 3 144 62t59 153q0 95 -57 153t-146 60zM302 26v428q-85 -2 -144.5 -60.5t-59.5 -152.5t59.5 -153t144.5 -62zM345 719v-229q105 -2 177.5 -68.5t72.5 -180.5q0 -113 -74 -181t-176 -70v-207h-43v207q-102 2 -176 70t-74 181t74 180t176 69v229h43z" />
    <glyph glyph-name="uni0279" unicode="&#x279;" horiz-adv-x="317" 
d="M44 -12q-28 0 -48 10l10 40q23 -8 44 -8q35 0 70 30t61 94v326h44v-480h-37l-5 90h-2q-57 -102 -137 -102z" />
    <glyph glyph-name="uni027A" unicode="&#x27a;" horiz-adv-x="317" 
d="M44 -12q-28 0 -48 10l10 40q23 -8 44 -8q35 0 70 30t61 94v565h44v-719h-37l-5 90h-2q-57 -102 -137 -102z" />
    <glyph glyph-name="uni027B" unicode="&#x27b;" horiz-adv-x="317" 
d="M278 -179q-49 0 -72 31.5t-23 99.5v138h-2q-57 -102 -137 -102q-28 0 -48 10l10 40q23 -8 44 -8q35 0 70 30t61 94v326h44v-522q0 -98 54 -98q19 0 41 9l10 -36q-22 -12 -52 -12z" />
    <glyph glyph-name="uni027D" unicode="&#x27d;" horiz-adv-x="317" 
d="M190 -179q-51 0 -74.5 32.5t-23.5 101.5v525h38l4 -89h3q55 101 136 101q28 0 48 -10l-10 -40q-21 8 -44 8q-80 0 -131 -123v-369q0 -98 55 -98q17 0 40 9l10 -36q-22 -12 -51 -12z" />
    <glyph glyph-name="uni027E" unicode="&#x27e;" horiz-adv-x="306" 
d="M92 0v320q0 83 41.5 127.5t106.5 44.5q43 0 70 -14l-10 -38q-23 12 -59 12q-46 0 -75.5 -37.5t-29.5 -102.5v-312h-44z" />
    <glyph glyph-name="uni0280" unicode="&#x280;" horiz-adv-x="474" 
d="M136 246h98q65 0 101 26t36 75q0 96 -137 96h-98v-197zM432 0h-50l-134 209h-112v-209h-44v480h153q172 0 172 -132q0 -59 -34 -93t-91 -43z" />
    <glyph glyph-name="uni0281" unicode="&#x281;" horiz-adv-x="474" 
d="M338 38v200h-98q-65 0 -101 -26.5t-36 -76.5q0 -97 137 -97h98zM338 480h44v-480h-153q-172 0 -172 134q0 59 34 93.5t91 43.5l-140 209h50l134 -206h112v206z" />
    <glyph glyph-name="uni0282" unicode="&#x282;" horiz-adv-x="405" 
d="M347 442l-24 -31q-57 43 -115 43q-52 0 -80 -25.5t-28 -61.5q0 -20 8.5 -35t27.5 -27t34 -18.5t43 -16.5q83 -31 109 -51q48 -36 48 -96q0 -57 -43.5 -96t-118.5 -39q-69 0 -134 31v-57q0 -51 13.5 -78t51.5 -27q20 0 50 10l11 -36q-30 -12 -62 -12q-106 0 -106 140v86
l26 32q72 -51 153 -51q54 0 84 27.5t30 67.5t-31.5 63t-85.5 43q-29 10 -45 16.5t-40 19t-36 25.5t-22 32.5t-10 43.5q0 55 41.5 91.5t113.5 36.5q77 0 137 -50z" />
    <glyph glyph-name="uni0283" unicode="&#x283;" horiz-adv-x="229" 
d="M29 -229q-32 0 -62 12l11 36q30 -10 50 -10q38 0 51 26.5t13 78.5v679q0 140 118 140q26 0 52 -12l-11 -36q-25 10 -40 10q-43 0 -58.5 -26.5t-15.5 -78.5v-679q0 -140 -108 -140z" />
    <glyph glyph-name="uni0284" unicode="&#x284;" horiz-adv-x="241" 
d="M268 721l-11 -36q-25 10 -40 10q-43 0 -58.5 -26.5t-15.5 -78.5v-321h89v-33h-89v-325q0 -140 -108 -140q-32 0 -62 12l11 36q30 -10 50 -10q38 0 51 26.5t13 78.5v322h-93v29l93 4v324q0 140 118 140q26 0 52 -12z" />
    <glyph glyph-name="uni0288" unicode="&#x288;" horiz-adv-x="312" 
d="M223 -181q-66 0 -93 37.5t-27 107.5v478h-75v34l76 4l6 139h38v-139h139v-38h-139v-481q0 -51 17.5 -77t63.5 -26q24 0 60 15l12 -36q-56 -18 -78 -18z" />
    <glyph glyph-name="uni0289" unicode="&#x289;" horiz-adv-x="549" 
d="M407 126v133h-264v-81q0 -77 26 -113.5t83 -36.5q42 0 77 23t78 75zM540 292v-33h-89v-259h-37l-5 80h-2q-79 -92 -163 -92q-74 0 -109.5 45.5t-35.5 138.5v87h-94v29l94 4v188h44v-188h264v188h44v-188h89z" />
    <glyph glyph-name="uni028A" unicode="&#x28a;" horiz-adv-x="532" 
d="M266 -12q-97 0 -154.5 66.5t-57.5 159.5q0 137 95 226v2h-107v38h169v-29q-111 -78 -111 -228q0 -82 44.5 -139t121.5 -57t121.5 57t44.5 139q0 150 -111 228v29h168v-38h-106v-2q95 -89 95 -226q0 -93 -57.5 -159.5t-154.5 -66.5z" />
    <glyph glyph-name="uni028B" unicode="&#x28b;" horiz-adv-x="517" 
d="M255 -12q-76 0 -123 50.5t-47 155.5v286h44v-277q0 -90 35.5 -133t91.5 -43q73 0 115 70t42 176q0 181 -94 181q-17 0 -34 -8l-11 38q23 8 52 8q134 0 134 -213q0 -127 -54 -209t-151 -82z" />
    <glyph glyph-name="uni028C" unicode="&#x28c;" horiz-adv-x="434" 
d="M12 0l178 480h52l180 -480h-48l-108 301q-2 6 -48 138h-4q-15 -41 -49 -138l-108 -301h-45z" />
    <glyph glyph-name="uni028D" unicode="&#x28d;" horiz-adv-x="685" 
d="M24 0l137 480h58l85 -298q7 -24 18.5 -69.5t17.5 -67.5h4q26 101 39 139l82 296h54l142 -480h-48l-87 311q-4 15 -10.5 41t-12 47t-9.5 40h-4q-4 -14 -35 -128l-88 -311h-52l-88 311q-31 114 -35 128h-4q-4 -14 -35 -128l-84 -311h-45z" />
    <glyph glyph-name="uni028E" unicode="&#x28e;" horiz-adv-x="436" 
d="M12 0l201 573q53 158 162 158q27 0 49 -10l-10 -38q-20 8 -40 8q-80 0 -123 -127l-24 -75l197 -489h-48l-116 302q-8 21 -26 68t-26 67h-4q-8 -24 -23.5 -71t-21.5 -64l-102 -302h-45z" />
    <glyph glyph-name="uni028F" unicode="&#x28f;" horiz-adv-x="385" 
d="M171 0v173l-168 307h48l81 -155q14 -28 60 -109h4q47 86 58 109l80 155h49l-168 -307v-173h-44z" />
    <glyph glyph-name="uni0290" unicode="&#x290;" horiz-adv-x="404" 
d="M463 -131l10 -36q-22 -12 -52 -12q-51 0 -74 32.5t-23 101.5v45h-297v24l284 418h-253v38h310v-23l-283 -418h283v-21v-18v-42q0 -98 54 -98q18 0 41 9z" />
    <glyph glyph-name="uni0291" unicode="&#x291;" horiz-adv-x="418" 
d="M299 38q43 0 69 20.5t26 47.5q0 47 -47 47q-61 0 -105 -115h57zM367 457l-283 -418q41 -1 122 -1q56 149 143 149q39 0 61 -22t22 -60q0 -45 -37 -75t-106 -30h-61q-10 -33 -19 -80l-35 7q11 48 19 73h-166v24l284 418h-253v38h309v-23z" />
    <glyph glyph-name="uni0292" unicode="&#x292;" horiz-adv-x="404" 
d="M193 -229q-110 0 -191 75l26 31q69 -67 164 -67q62 0 105.5 48.5t43.5 123.5q0 73 -40.5 114.5t-115.5 41.5q-26 0 -66 -19l-24 31l215 292h-263v38h320v-23l-212 -288q104 20 168 -34t64 -150q0 -99 -57.5 -156.5t-136.5 -57.5z" />
    <glyph glyph-name="uni0294" unicode="&#x294;" horiz-adv-x="399" 
d="M156 0v328q92 50 133.5 100t41.5 120q0 66 -37.5 105t-106.5 39q-94 0 -160 -78l-26 31q78 86 186 86q84 0 137 -48.5t53 -135.5q0 -81 -44.5 -135.5t-132.5 -109.5v-302h-44z" />
    <glyph glyph-name="uni0295" unicode="&#x295;" horiz-adv-x="406" 
d="M201 0v302q-88 55 -132.5 109.5t-44.5 135.5q0 87 56 135.5t145 48.5q100 0 176 -86l-27 -31q-60 78 -149 78q-73 0 -114 -39t-41 -105q0 -70 42 -120t134 -100v-328h-45z" />
    <glyph glyph-name="uni0298" unicode="&#x298;" horiz-adv-x="507" 
d="M253 -12q-187 0 -187 375q0 176 49 272t138 96t138.5 -96t49.5 -272q0 -375 -188 -375zM253 27q67 0 105.5 81t38.5 255q0 158 -39.5 243.5t-104.5 85.5q-64 0 -103.5 -85.5t-39.5 -243.5q0 -174 38.5 -255t104.5 -81zM253 325q-15 0 -26 11t-11 27q0 17 10.5 27t26.5 10
t27 -10t11 -27q0 -16 -11.5 -27t-26.5 -11z" />
    <glyph glyph-name="uni0299" unicode="&#x299;" horiz-adv-x="497" 
d="M92 0v480h173q167 0 167 -118q0 -80 -79 -105v-3q43 -10 72 -39t29 -78q0 -68 -48.5 -102.5t-135.5 -34.5h-178zM136 270h112q139 0 139 88q0 86 -130 86h-121v-174zM136 36h125q147 0 147 103q0 46 -40 70.5t-115 24.5h-117v-198z" />
    <glyph glyph-name="uni029C" unicode="&#x29c;" horiz-adv-x="550" 
d="M92 0v480h44v-208h278v208h44v-480h-44v232h-278v-232h-44z" />
    <glyph glyph-name="uni029D" unicode="&#x29d;" horiz-adv-x="239" 
d="M125 596q-16 0 -28 11t-12 28q0 18 12 29t28 11q17 0 29 -11t12 -29q0 -17 -12 -28t-29 -11zM3 -191q62 0 86 57q-44 38 -89 38q-30 0 -45.5 -12.5t-15.5 -32.5q0 -22 18.5 -36t45.5 -14zM240 -266l-34 -18q-47 76 -85 119q-36 -64 -119 -64q-47 0 -76 26.5t-29 63.5
q0 35 27 57t76 22q50 0 99 -35q3 23 3 43v532h45v-524q0 -47 -10 -83q48 -46 103 -139z" />
    <glyph glyph-name="uni029F" unicode="&#x29f;" horiz-adv-x="399" 
d="M92 0v480h44v-441h237v-39h-281z" />
    <glyph glyph-name="uni02A1" unicode="&#x2a1;" horiz-adv-x="420" 
d="M167 0v290h-162v34l76 4h97q168 97 168 220q0 66 -38 105t-107 39q-95 0 -159 -78l-27 31q80 86 186 86q84 0 137.5 -48.5t53.5 -135.5q0 -124 -143 -219h151v-38h-189v-290h-44z" />
    <glyph glyph-name="uni02A2" unicode="&#x2a2;" horiz-adv-x="420" 
d="M209 0v290h-189v38h150q-142 95 -142 219q0 87 56 135.5t145 48.5q100 0 176 -86l-27 -31q-60 78 -149 78q-73 0 -114 -39t-41 -105q0 -123 168 -220h97l76 -4v-34h-162v-290h-44z" />
    <glyph glyph-name="h.sups" unicode="&#x2b0;" horiz-adv-x="356" 
d="M58 269v473h37v-134l-1 -70q53 57 111 57q101 0 101 -122v-204h-38v197q0 48 -15.5 71.5t-57.5 23.5q-44 0 -100 -56v-236h-37z" />
    <glyph glyph-name="j.sups" unicode="&#x2b2;" horiz-adv-x="157" 
d="M21 119q-22 0 -43 8l10 32q14 -6 29 -6q25 0 34 16t9 49v369h37v-365q0 -103 -76 -103zM80 659q-14 0 -23 9t-9 22t9 22t23 9t23 -9t9 -22t-9 -22t-23 -9z" />
    <glyph glyph-name="r.sups" unicode="&#x2b3;" horiz-adv-x="221" 
d="M58 269v318h29l7 -57h3q40 65 91 65q21 0 35 -7l-9 -35q-14 4 -29 4q-55 0 -88 -75v-213h-39z" />
    <glyph glyph-name="w.sups" unicode="&#x2b7;" horiz-adv-x="466" 
d="M109 269l-93 318h41l52 -198l23 -87h4l23 87l54 198h40l56 -198l23 -87h4l25 87l51 198h38l-92 -318h-48l-51 186l-25 92h-2l-23 -92l-53 -186h-47z" />
    <glyph glyph-name="y.sups" unicode="&#x2b8;" horiz-adv-x="299" 
d="M54 129q-20 0 -36 6l9 34q13 -6 26 -6q54 0 79 79l8 24l-132 321h39l74 -189q5 -14 17 -45.5t18 -46.5h4q5 19 17.5 53.5t13.5 38.5l62 189h38l-122 -348q-39 -110 -115 -110z" />
    <glyph glyph-name="uni02B9" unicode="&#x2b9;" horiz-adv-x="219" 
d="M82 485l23 208h43l-10 -72l-27 -136h-29z" />
    <glyph glyph-name="uni02BB" unicode="&#x2bb;" horiz-adv-x="219" 
d="M143 703l18 -23q-35 -29 -51 -56t-16 -68q2 1 8 1q16 0 28 -9.5t12 -27.5t-11 -29t-29 -11q-20 0 -32 17.5t-12 49.5q0 100 85 156z" />
    <glyph glyph-name="uni02BC" unicode="&#x2bc;" horiz-adv-x="219" 
d="M76 477l-18 23q35 29 51 56t16 68q-2 -1 -8 -1q-16 0 -27.5 9.5t-11.5 27.5t11 29t28 11q21 0 33 -17.5t12 -49.5q0 -100 -86 -156z" />
    <glyph glyph-name="uni02BE" unicode="&#x2be;" horiz-adv-x="141" 
d="M33 539v24q34 0 51 17t17 45q0 62 -68 62v25q46 1 73 -22.5t27 -64.5t-27 -64t-73 -22z" />
    <glyph glyph-name="uni02BF" unicode="&#x2bf;" horiz-adv-x="159" 
d="M124 539q-46 -2 -73 21.5t-27 64.5t27 64.5t73 22.5v-25q-68 0 -68 -62q0 -28 17 -45t51 -17v-24z" />
    <glyph glyph-name="uni02C1" unicode="&#x2c1;" horiz-adv-x="279" 
d="M135 260v197q-58 36 -87.5 72t-29.5 89q0 58 38 90.5t98 32.5q71 0 120 -57l-21 -24q-41 49 -97 49q-47 0 -73.5 -24.5t-26.5 -66.5q0 -44 27.5 -76.5t88.5 -65.5v-216h-37z" />
    <glyph glyph-name="circumflex" unicode="&#x2c6;" horiz-adv-x="535" 
d="M141 572l105 156h42l105 -156h-39l-85 118h-4l-85 -118h-39z" />
    <glyph glyph-name="caron" unicode="&#x2c7;" horiz-adv-x="535" 
d="M246 572l-105 156h39l85 -118h4l85 118h39l-105 -156h-42z" />
    <glyph glyph-name="uni02C8" unicode="&#x2c8;" horiz-adv-x="95" 
d="M32 529l-6 172h43l-6 -172h-31z" />
    <glyph glyph-name="uni02C9" unicode="&#x2c9;" horiz-adv-x="259" 
d="M15 606v36h228v-36h-228z" />
    <glyph glyph-name="uni02CA" unicode="&#x2ca;" horiz-adv-x="218" 
d="M52 572l100 156h56l-116 -156h-40z" />
    <glyph glyph-name="uni02CB" unicode="&#x2cb;" horiz-adv-x="218" 
d="M122 572l-116 156h56l100 -156h-40z" />
    <glyph glyph-name="uni02CC" unicode="&#x2cc;" horiz-adv-x="95" 
d="M26 -247l6 172h31l6 -172h-43z" />
    <glyph glyph-name="uni02D0" unicode="&#x2d0;" horiz-adv-x="219" 
d="M54 0l51 107h9l51 -107h-111zM105 342l-51 105h111l-51 -105h-9z" />
    <glyph glyph-name="uni02D1" unicode="&#x2d1;" horiz-adv-x="219" 
d="M105 251l-51 105h111l-51 -105h-9z" />
    <glyph glyph-name="breve" unicode="&#x2d8;" horiz-adv-x="535" 
d="M267 570q-56 0 -85.5 40.5t-35.5 89.5h34q5 -38 27.5 -67t59.5 -29t59.5 29t27.5 67h34q-6 -49 -35.5 -89.5t-85.5 -40.5z" />
    <glyph glyph-name="dotaccent" unicode="&#x2d9;" horiz-adv-x="535" 
d="M267 596q-17 0 -27.5 11t-10.5 30q0 17 10.5 28t27.5 11t27.5 -11t10.5 -28q0 -19 -10.5 -30t-27.5 -11z" />
    <glyph glyph-name="ring" unicode="&#x2da;" horiz-adv-x="535" 
d="M267 539q-36 0 -59 24t-23 62q0 39 23 63t59 24t59 -24t23 -63q0 -38 -23 -62t-59 -24zM267 565q22 0 37 16.5t15 43.5t-15 44t-37 17t-37 -17t-15 -44t15 -43.5t37 -16.5z" />
    <glyph glyph-name="ogonek" unicode="&#x2db;" horiz-adv-x="535" 
d="M294 -203q-36 0 -58.5 21t-22.5 60q0 69 71 126h44q-77 -56 -77 -120q0 -25 14.5 -38.5t34.5 -13.5q25 0 43 14l16 -26q-27 -23 -65 -23z" />
    <glyph glyph-name="tilde" unicode="&#x2dc;" horiz-adv-x="535" 
d="M324 572q-26 0 -62.5 32t-52.5 32q-37 0 -45 -64h-34q3 41 23 70.5t57 29.5q26 0 63 -32.5t52 -32.5q37 0 45 64h34q-3 -40 -23 -69.5t-57 -29.5z" />
    <glyph glyph-name="hungarumlaut" unicode="&#x2dd;" horiz-adv-x="535" 
d="M183 570l82 158h46l-93 -158h-35zM317 570l82 158h47l-94 -158h-35z" />
    <glyph glyph-name="uni02DE" unicode="&#x2de;" horiz-adv-x="128" 
d="M90 232q-65 0 -83 95l-93 -34v37l121 48q8 -66 21.5 -88.5t36.5 -22.5q20 0 38 16l17 -28q-27 -23 -58 -23z" />
    <glyph glyph-name="uni02E0" unicode="&#x2e0;" horiz-adv-x="297" 
d="M151 264h-3q-26 -52 -26 -89q0 -38 27 -38q28 0 28 38q0 37 -26 89zM289 578l-115 -292q38 -79 38 -109q0 -31 -16.5 -49.5t-46.5 -18.5q-29 0 -45.5 18.5t-16.5 49.5q0 6 1 12.5t3 14.5t3.5 13t6 16t7 16t8.5 18.5t9 19.5l-117 291h39l69 -184q5 -14 16 -41t16 -42h3
q4 12 15.5 39.5t16.5 43.5l69 184h37z" />
    <glyph glyph-name="l.sups" unicode="&#x2e1;" horiz-adv-x="162" 
d="M106 261q-48 0 -48 61v420h37v-425q0 -23 16 -23q8 0 14 2l7 -30q-12 -5 -26 -5z" />
    <glyph glyph-name="s.sups" unicode="&#x2e2;" horiz-adv-x="275" 
d="M144 261q-66 0 -123 44l21 27q51 -39 102 -39q32 0 51 16.5t19 41.5q0 12 -6 22t-19 18t-23.5 12.5t-28.5 11.5q-31 12 -48.5 20.5t-34.5 28.5t-17 46q0 34 27.5 59.5t74.5 25.5q54 0 99 -34l-22 -26q-40 28 -77 28q-30 0 -47 -15.5t-17 -35.5q0 -6 1 -11t4 -9.5t5.5 -8
t8.5 -7.5t8.5 -6t11 -5.5t11.5 -5t12.5 -5.5t12.5 -5q1 -1 15.5 -6.5t17.5 -6.5t15 -6.5t15 -8t12 -8.5t12 -11.5t7.5 -12.5t6 -15.5t1.5 -18.5q0 -41 -30.5 -67.5t-77.5 -26.5z" />
    <glyph glyph-name="x.sups" unicode="&#x2e3;" horiz-adv-x="283" 
d="M8 269l111 167l-101 151h43l49 -75l33 -52h4l31 52l46 75h42l-100 -155l107 -163h-43l-51 80l-37 57h-4l-38 -57l-51 -80h-41z" />
    <glyph glyph-name="uni0300" unicode="&#x300;" 
d="M15 572l-116 156h56l100 -156h-40z" />
    <glyph glyph-name="uni0301" unicode="&#x301;" 
d="M-55 572l100 156h56l-116 -156h-40z" />
    <glyph glyph-name="uni0302" unicode="&#x302;" 
d="M-126 572l105 156h42l105 -156h-39l-85 118h-4l-85 -118h-39z" />
    <glyph glyph-name="uni0303" unicode="&#x303;" 
d="M57 572q-26 0 -62.5 32t-52.5 32q-37 0 -45 -64h-34q3 41 23 70.5t57 29.5q26 0 63 -32.5t52 -32.5q37 0 45 64h34q-3 -40 -23 -69.5t-57 -29.5z" />
    <glyph glyph-name="uni0304" unicode="&#x304;" 
d="M-114 606v36h228v-36h-228z" />
    <glyph glyph-name="uni0305" unicode="&#x305;" 
d="M-114 606v36h228v-36h-228z" />
    <glyph glyph-name="uni0306" unicode="&#x306;" 
d="M0 570q-56 0 -85.5 40.5t-35.5 89.5h34q5 -38 27.5 -67t59.5 -29t59.5 29t27.5 67h34q-6 -49 -35.5 -89.5t-85.5 -40.5z" />
    <glyph glyph-name="uni0307" unicode="&#x307;" 
d="M0 596q-17 0 -27.5 11t-10.5 30q0 17 10.5 28t27.5 11t27.5 -11t10.5 -28q0 -19 -10.5 -30t-27.5 -11z" />
    <glyph glyph-name="uni0308" unicode="&#x308;" 
d="M-79 598q-16 0 -26 10.5t-10 26.5q0 15 10 25.5t26 10.5t26.5 -10.5t10.5 -25.5q0 -16 -10.5 -26.5t-26.5 -10.5zM79 598q-16 0 -26.5 10.5t-10.5 26.5q0 15 10.5 25.5t26.5 10.5t26 -10.5t10 -25.5q0 -16 -10 -26.5t-26 -10.5z" />
    <glyph glyph-name="uni0309" unicode="&#x309;" 
d="M-24 539l-8 28q63 19 63 55q0 43 -85 48l4 31q53 -2 87 -20.5t34 -53.5q0 -62 -95 -88z" />
    <glyph glyph-name="uni030A" unicode="&#x30a;" 
d="M0 539q-36 0 -59 24t-23 62q0 39 23 63t59 24t59 -24t23 -63q0 -38 -23 -62t-59 -24zM0 565q22 0 37 16.5t15 43.5t-15 44t-37 17t-37 -17t-15 -44t15 -43.5t37 -16.5z" />
    <glyph glyph-name="uni030B" unicode="&#x30b;" 
d="M-84 570l82 158h46l-93 -158h-35zM50 570l82 158h47l-94 -158h-35z" />
    <glyph glyph-name="uni030C" unicode="&#x30c;" 
d="M-21 572l-105 156h39l85 -118h4l85 118h39l-105 -156h-42z" />
    <glyph glyph-name="uni030F" unicode="&#x30f;" 
d="M49 570l-93 158h46l82 -158h-35zM-85 570l-94 158h47l82 -158h-35z" />
    <glyph glyph-name="uni0311" unicode="&#x311;" 
d="M-121 572q5 47 35 83.5t86 36.5t86 -36.5t35 -83.5h-34q-5 36 -27 61.5t-60 25.5t-60 -25.5t-27 -61.5h-34z" />
    <glyph glyph-name="uni0312" unicode="&#x312;" 
d="M27 717l15 -24q-52 -29 -54 -79q3 1 8 1q14 0 24.5 -8t10.5 -24q0 -37 -33 -37q-41 0 -41 61q0 74 70 110z" />
    <glyph glyph-name="uni0313" unicode="&#x313;" 
d="M-27 545l-15 25q51 28 53 79q-2 -1 -8 -1q-13 0 -23.5 8t-10.5 24q0 37 33 37q41 0 41 -61q0 -75 -70 -111z" />
    <glyph glyph-name="uni0318" unicode="&#x318;" 
d="M43 -61h34v-183h-34v75h-112v33h112v75z" />
    <glyph glyph-name="uni0319" unicode="&#x319;" 
d="M69 -136v-33h-112v-75h-34v183h34v-75h112z" />
    <glyph glyph-name="uni031A" unicode="&#x31a;" 
d="M70 708h7v-136h-34v103h-112v33h112h27z" />
    <glyph glyph-name="uni031B" unicode="&#x31b;" 
d="M-2 438l-6 30q47 7 70.5 30.5t23.5 57.5q0 26 -14 55l38 20q19 -43 19 -72q0 -50 -36 -81t-95 -40z" />
    <glyph glyph-name="uni031C" unicode="&#x31c;" 
d="M50 -248q-52 -1 -81 22t-29 65t29 64.5t81 21.5v-28q-75 0 -75 -58q0 -59 75 -59v-28z" />
    <glyph glyph-name="uni031D" unicode="&#x31d;" 
d="M17 -167h72v-33h-72h-34h-72v33h72v106h34v-106z" />
    <glyph glyph-name="uni031E" unicode="&#x31e;" 
d="M89 -105v-33h-72v-106h-34v106h-72v33h72h34h72z" />
    <glyph glyph-name="uni031F" unicode="&#x31f;" 
d="M89 -136v-33h-72v-75h-34v75h-72v33h72v75h34v-75h72z" />
    <glyph glyph-name="uni0320" unicode="&#x320;" 
d="M-89 -169v33h178v-33h-178z" />
    <glyph glyph-name="uni0323" unicode="&#x323;" 
d="M0 -194q-17 0 -27.5 11t-10.5 30q0 17 10.5 28t27.5 11t27.5 -11t10.5 -28q0 -19 -10.5 -30t-27.5 -11z" />
    <glyph glyph-name="uni0324" unicode="&#x324;" 
d="M-79 -191q-16 0 -26 10.5t-10 25.5q0 16 10 26.5t26 10.5t26.5 -10.5t10.5 -26.5q0 -15 -10.5 -25.5t-26.5 -10.5zM79 -191q-16 0 -26.5 10.5t-10.5 25.5q0 16 10.5 26.5t26.5 10.5t26 -10.5t10 -26.5q0 -15 -10 -25.5t-26 -10.5z" />
    <glyph glyph-name="uni0325" unicode="&#x325;" 
d="M0 -248q-36 0 -59 24t-23 63q0 38 23 62t59 24t59 -24t23 -62q0 -39 -23 -63t-59 -24zM0 -222q22 0 37 17t15 44t-15 43.5t-37 16.5t-37 -16.5t-15 -43.5t15 -44t37 -17z" />
    <glyph glyph-name="uni0326" unicode="&#x326;" 
d="M-77 -209l-7 30q63 4 88 16.5t25 35.5q0 41 -77 47l13 29q57 -8 80 -24.5t23 -48.5q0 -76 -145 -85z" />
    <glyph glyph-name="uni0327" unicode="&#x327;" 
d="M-77 -208l-7 30q63 4 88 17t25 36q0 22 -18 33.5t-60 17.5l41 76h35l-30 -56q71 -18 71 -69q0 -76 -145 -85z" />
    <glyph glyph-name="uni0328" unicode="&#x328;" 
d="M27 -203q-36 0 -58.5 21t-22.5 60q0 69 71 126h44q-77 -56 -77 -120q0 -25 14.5 -38.5t34.5 -13.5q25 0 43 14l16 -26q-27 -23 -65 -23z" />
    <glyph glyph-name="uni0329" unicode="&#x329;" 
d="M-17 -244v183h34v-183h-34z" />
    <glyph glyph-name="uni032A" unicode="&#x32a;" 
d="M107 -105h1v-108h-31v75h-154v-75h-31v108h1h30h154h30z" />
    <glyph glyph-name="uni032C" unicode="&#x32c;" 
d="M-19 -194l-95 136h37l75 -99h4l75 99h37l-95 -136h-38z" />
    <glyph glyph-name="uni032E" unicode="&#x32e;" 
d="M0 -203q-56 0 -84.5 36t-34.5 83h33q5 -36 26.5 -61t59.5 -25t59.5 25t26.5 61h33q-6 -47 -34.5 -83t-84.5 -36z" />
    <glyph glyph-name="uni032F" unicode="&#x32f;" 
d="M-119 -213q6 47 34.5 83t84.5 36t84.5 -36t34.5 -83h-33q-5 36 -26.5 61.5t-59.5 25.5t-59.5 -25.5t-26.5 -61.5h-33z" />
    <glyph glyph-name="uni0330" unicode="&#x330;" 
d="M-124 -185q3 37 19.5 63t49.5 26q26 0 61 -27.5t50 -27.5q30 0 38 55h30q-3 -37 -19.5 -63t-49.5 -26q-26 0 -60.5 27.5t-50.5 27.5q-30 0 -38 -55h-30z" />
    <glyph glyph-name="uni0331" unicode="&#x331;" 
d="M-115 -160v36h228v-36h-228z" />
    <glyph glyph-name="uni0334" unicode="&#x334;" 
d="M57 187q-26 0 -62.5 32t-52.5 32q-37 0 -45 -64h-34q3 41 23 70.5t57 29.5q26 0 63 -32.5t52 -32.5q37 0 45 64h34q-3 -40 -23 -69.5t-57 -29.5z" />
    <glyph glyph-name="uni0339" unicode="&#x339;" 
d="M-50 -248v28q75 0 75 59q0 58 -75 58v28q52 1 81 -21.5t29 -64.5t-29 -65t-81 -22z" />
    <glyph glyph-name="uni033A" unicode="&#x33a;" 
d="M77 -84h31v-108h-1h-30h-154h-30h-1v108h31v-75h154v75z" />
    <glyph glyph-name="uni033B" unicode="&#x33b;" 
d="M-108 -236v149h216v-149h-216zM-77 -204h154v86h-154v-86z" />
    <glyph glyph-name="uni033C" unicode="&#x33c;" 
d="M-134 -213q-1 117 73 117q49 0 60 -56h2q9 56 59 56q74 0 73 -117h-32q0 50 -11 69t-33 19q-41 0 -41 -73v-15h-33v15q0 73 -40 73q-23 0 -34 -19t-11 -69h-32z" />
    <glyph glyph-name="uni033D" unicode="&#x33d;" 
d="M-51 564l-24 23l51 51l-51 51l24 24l51 -51l51 51l24 -24l-51 -51l51 -51l-24 -23l-51 51z" />
    <glyph glyph-name="uni0342" unicode="&#x342;" 
d="M57 572q-26 0 -62.5 32t-52.5 32q-37 0 -45 -64h-34q3 41 23 70.5t57 29.5q26 0 63 -32.5t52 -32.5q37 0 45 64h34q-3 -40 -23 -69.5t-57 -29.5z" />
    <glyph glyph-name="uni0345" unicode="&#x345;" 
d="M38 -191q-57 0 -57 71v54h39q-2 -36 -2 -60q0 -15 7.5 -22.5t18.5 -7.5q9 0 25 4l7 -33q-20 -6 -38 -6z" />
    <glyph glyph-name="uni0361" unicode="&#x361;" 
d="M-437 559l-16 26q209 129 453 129t453 -129l-16 -26q-190 119 -437 119t-437 -119z" />
    <glyph glyph-name="uni0374" unicode="&#x374;" horiz-adv-x="219" 
d="M82 485l23 208h43l-10 -72l-27 -136h-29z" />
    <glyph glyph-name="uni0375" unicode="&#x375;" horiz-adv-x="219" 
d="M71 0l10 72l27 136h29l-23 -208h-43z" />
    <glyph glyph-name="uni037A" unicode="&#x37a;" horiz-adv-x="535" 
d="M314 -191q-57 0 -57 71v54h39q-2 -36 -2 -60q0 -15 7.5 -22.5t18.5 -7.5q9 0 25 4l7 -33q-20 -6 -38 -6z" />
    <glyph glyph-name="uni037E" unicode="&#x37e;" horiz-adv-x="219" 
d="M110 370q-17 0 -30 12.5t-13 32.5q0 21 13 33.5t30 12.5t29.5 -12.5t12.5 -33.5q0 -20 -12.5 -32.5t-29.5 -12.5zM62 -155l-14 30q76 40 77 121q-4 -1 -12 -1q-18 0 -30 11t-12 31q0 19 12.5 30.5t30.5 11.5q23 0 37 -19t14 -52q0 -53 -28 -95.5t-75 -67.5z" />
    <glyph glyph-name="tonos" unicode="&#x384;" horiz-adv-x="535" 
d="M245 562l49 185h52l-66 -185h-35z" />
    <glyph glyph-name="dieresistonos" unicode="&#x385;" 
d="M-92 602q-15 0 -24 9t-9 24t9 24t24 9q14 0 23.5 -9t9.5 -24t-9.5 -24t-23.5 -9zM92 602q-14 0 -23.5 9t-9.5 24t9.5 24t23.5 9q15 0 24 -9t9 -24t-9 -24t-24 -9zM-35 562l43 165h46l-60 -165h-29z" />
    <glyph glyph-name="Alphatonos" unicode="&#x386;" horiz-adv-x="532" 
d="M92 669l-46 -187h-33l30 187h49zM152 265h234l-42 123q-46 133 -73 228h-4q-27 -95 -73 -228zM476 0l-77 226h-261l-78 -226h-46l232 659h46l232 -659h-48z" />
    <glyph glyph-name="anoteleia" unicode="&#x387;" horiz-adv-x="219" 
d="M110 370q-17 0 -30 12.5t-13 32.5q0 21 13 33.5t30 12.5t29.5 -12.5t12.5 -33.5q0 -20 -12.5 -32.5t-29.5 -12.5z" />
    <glyph glyph-name="Epsilontonos" unicode="&#x388;" horiz-adv-x="547" 
d="M129 0v659h361v-40h-315v-249h264v-40h-264v-290h325v-40h-371zM-23 482l30 187h49l-46 -187h-33z" />
    <glyph glyph-name="Etatonos" unicode="&#x389;" horiz-adv-x="671" 
d="M-23 482l30 187h49l-46 -187h-33zM129 0v659h46v-289h353v289h46v-659h-46v330h-353v-330h-46z" />
    <glyph glyph-name="Iotatonos" unicode="&#x38a;" horiz-adv-x="272" 
d="M-23 482l30 187h49l-46 -187h-33zM129 0v659h46v-659h-46z" />
    <glyph glyph-name="Omicrontonos" unicode="&#x38c;" horiz-adv-x="672" 
d="M346 -12q-120 0 -195.5 94.5t-75.5 249.5q0 154 75.5 246.5t195.5 92.5q121 0 196.5 -92.5t75.5 -246.5q0 -155 -76 -249.5t-196 -94.5zM346 30q101 0 162 82.5t61 219.5q0 136 -61 216.5t-162 80.5t-162 -80.5t-61 -216.5q0 -137 61 -219.5t162 -82.5zM-23 482l30 187
h49l-46 -187h-33z" />
    <glyph glyph-name="Upsilontonos" unicode="&#x38e;" horiz-adv-x="539" 
d="M292 0v267l-197 392h49l100 -206q53 -111 70 -142h4q55 106 71 142l100 206h47l-198 -392v-267h-46zM-23 482l30 187h49l-46 -187h-33z" />
    <glyph glyph-name="Omegatonos" unicode="&#x38f;" horiz-adv-x="676" 
d="M-24 482l30 187h49l-46 -187h-33zM66 0v39h143v4q-131 125 -131 304q0 142 74.5 233t197.5 91q122 0 196.5 -91t74.5 -233q0 -179 -131 -304v-4h143v-39h-213v34q153 109 153 313q0 123 -60 202.5t-163 79.5t-163.5 -79.5t-60.5 -202.5q0 -204 153 -313v-34h-213z" />
    <glyph glyph-name="iotadieresistonos" unicode="&#x390;" horiz-adv-x="239" 
d="M23 602q-15 0 -24 9t-9 24t9 24t24 9q14 0 23.5 -9t9.5 -24t-9.5 -24t-23.5 -9zM80 562l43 165h46l-60 -165h-29zM207 602q-14 0 -23.5 9t-9.5 24t9.5 24t23.5 9q15 0 24 -9t9 -24t-9 -24t-24 -9zM157 -12q-65 0 -65 82v410h45q-3 -210 -3 -416q0 -37 29 -37q11 0 29 6
l7 -36q-18 -9 -42 -9z" />
    <glyph glyph-name="Alpha" unicode="&#x391;" horiz-adv-x="526" 
d="M146 265h234l-42 123q-46 133 -73 228h-4q-27 -95 -73 -228zM470 0l-77 226h-261l-78 -226h-46l232 659h46l232 -659h-48z" />
    <glyph glyph-name="Beta" unicode="&#x392;" horiz-adv-x="578" 
d="M97 0v659h178q103 0 160.5 -40t57.5 -120q0 -53 -26.5 -91t-75.5 -53v-4q66 -11 104 -52t38 -107q0 -93 -65.5 -142.5t-179.5 -49.5h-191zM143 369h114q190 0 190 125q0 68 -45.5 97.5t-139.5 29.5h-119v-252zM143 38h133q101 0 156.5 38t55.5 115q0 140 -212 140h-133
v-293z" />
    <glyph glyph-name="Gamma" unicode="&#x393;" horiz-adv-x="475" 
d="M97 0v659h359v-40h-313v-619h-46z" />
    <glyph glyph-name="uni0394" unicode="&#x394;" horiz-adv-x="557" 
d="M27 0v27l228 632h48l227 -632v-27h-503zM78 40h401l-122 346l-76 221h-4l-77 -221z" />
    <glyph glyph-name="Epsilon" unicode="&#x395;" horiz-adv-x="515" 
d="M97 0v659h361v-40h-315v-249h264v-40h-264v-290h325v-40h-371z" />
    <glyph glyph-name="Zeta" unicode="&#x396;" horiz-adv-x="538" 
d="M50 0v27l379 592h-346v40h404v-27l-380 -592h383v-40h-440z" />
    <glyph glyph-name="Eta" unicode="&#x397;" horiz-adv-x="639" 
d="M97 0v659h46v-289h353v289h46v-659h-46v330h-353v-330h-46z" />
    <glyph glyph-name="Theta" unicode="&#x398;" horiz-adv-x="652" 
d="M205 330v40h242v-40h-242zM326 -12q-120 0 -195.5 94.5t-75.5 249.5q0 154 75.5 246.5t195.5 92.5q121 0 196.5 -92.5t75.5 -246.5q0 -155 -76 -249.5t-196 -94.5zM326 30q101 0 162 82.5t61 219.5q0 136 -61 216.5t-162 80.5t-162 -80.5t-61 -216.5q0 -137 61 -219.5
t162 -82.5z" />
    <glyph glyph-name="Iota" unicode="&#x399;" horiz-adv-x="240" 
d="M97 0v659h46v-659h-46z" />
    <glyph glyph-name="Kappa" unicode="&#x39a;" horiz-adv-x="558" 
d="M97 0v659h46v-366h2l319 366h55l-210 -244l239 -415h-53l-218 380l-134 -153v-227h-46z" />
    <glyph glyph-name="Lambda" unicode="&#x39b;" horiz-adv-x="491" 
d="M4 0l216 659h49l218 -659h-49l-122 385q-49 159 -70 221h-4q-9 -27 -69 -221l-122 -385h-47z" />
    <glyph glyph-name="Mu" unicode="&#x39c;" horiz-adv-x="706" 
d="M97 0v659h65l138 -387q5 -15 23.5 -66.5t28.5 -79.5h4q7 20 24 69.5t26 76.5l137 387h66v-659h-45v433q0 68 6 178h-4l-51 -147l-142 -392h-40l-143 392l-52 147h-4q6 -165 6 -178v-433h-43z" />
    <glyph glyph-name="Nu" unicode="&#x39d;" horiz-adv-x="636" 
d="M97 0v659h48l278 -465l74 -131h4l-6 192v404h44v-659h-48l-278 465l-74 131h-4q1 -21 2.5 -58.5t2.5 -69t1 -59.5v-409h-44z" />
    <glyph glyph-name="Xi" unicode="&#x39e;" horiz-adv-x="510" 
d="M47 0v40h417v-40h-417zM125 330v40h260v-40h-260zM57 619v40h397v-40h-397z" />
    <glyph glyph-name="Omicron" unicode="&#x39f;" horiz-adv-x="652" 
d="M326 -12q-120 0 -195.5 94.5t-75.5 249.5q0 154 75.5 246.5t195.5 92.5q121 0 196.5 -92.5t75.5 -246.5q0 -155 -76 -249.5t-196 -94.5zM326 30q101 0 162 82.5t61 219.5q0 136 -61 216.5t-162 80.5t-162 -80.5t-61 -216.5q0 -137 61 -219.5t162 -82.5z" />
    <glyph glyph-name="Pi" unicode="&#x3a0;" horiz-adv-x="634" 
d="M97 0v659h440v-659h-46v619h-348v-619h-46z" />
    <glyph glyph-name="Rho" unicode="&#x3a1;" horiz-adv-x="549" 
d="M97 0v659h166q117 0 178 -43t61 -141q0 -95 -61.5 -143.5t-173.5 -48.5h-124v-283h-46zM143 322h113q102 0 150.5 36.5t48.5 116.5q0 81 -48.5 113t-154.5 32h-109v-298z" />
    <glyph glyph-name="Sigma" unicode="&#x3a3;" horiz-adv-x="531" 
d="M47 0v27l240 308l-235 297v27h410v-40h-350l223 -283l-227 -296h385v-40h-446z" />
    <glyph glyph-name="Tau" unicode="&#x3a4;" horiz-adv-x="524" 
d="M239 0v619h-210v40h466v-40h-210v-619h-46z" />
    <glyph glyph-name="Upsilon" unicode="&#x3a5;" horiz-adv-x="447" 
d="M200 0v267l-197 392h49l100 -206q53 -111 70 -142h4q55 106 71 142l100 206h47l-198 -392v-267h-46z" />
    <glyph glyph-name="Phi" unicode="&#x3a6;" horiz-adv-x="695" 
d="M369 545v-431q106 2 168.5 61.5t62.5 156.5q0 95 -62.5 153t-168.5 60zM326 114v431q-106 -2 -168.5 -60t-62.5 -153q0 -97 62.5 -156.5t168.5 -61.5zM369 681v-98q127 -2 202.5 -69.5t75.5 -181.5t-76 -183.5t-202 -72.5v-98h-43v98q-126 3 -202 72.5t-76 183.5
t75.5 181.5t202.5 69.5v98h43z" />
    <glyph glyph-name="Chi" unicode="&#x3a7;" horiz-adv-x="482" 
d="M17 0l198 341l-184 318h50l108 -194l54 -90h4q37 69 49 90l108 194h47l-184 -320l198 -339h-50l-115 202q-20 37 -61 105h-4q-33 -62 -56 -105l-115 -202h-47z" />
    <glyph glyph-name="Psi" unicode="&#x3a8;" horiz-adv-x="668" 
d="M552 659h46v-162q0 -232 -242 -237v-260h-45v260q-241 5 -241 237v162h45v-161q0 -194 196 -199v360h45v-360q196 3 196 199v161z" />
    <glyph glyph-name="uni03A9" unicode="&#x3a9;" horiz-adv-x="659" 
d="M46 0v39h143v4q-131 125 -131 304q0 142 74.5 233t197.5 91q122 0 196.5 -91t74.5 -233q0 -179 -131 -304v-4h143v-39h-213v34q153 109 153 313q0 123 -60 202.5t-163 79.5t-163.5 -79.5t-60.5 -202.5q0 -204 153 -313v-34h-213z" />
    <glyph glyph-name="Iotadieresis" unicode="&#x3aa;" horiz-adv-x="240" 
d="M97 0v659h46v-659h-46zM41 725q-16 0 -26 10t-10 26q0 17 10 27t26 10t26.5 -10t10.5 -27q0 -16 -10.5 -26t-26.5 -10zM199 725q-16 0 -26.5 10t-10.5 26q0 17 10.5 27t26.5 10t26 -10t10 -27q0 -16 -10 -26t-26 -10z" />
    <glyph glyph-name="Upsilondieresis" unicode="&#x3ab;" horiz-adv-x="447" 
d="M200 0v267l-197 392h49l100 -206q53 -111 70 -142h4q55 106 71 142l100 206h47l-198 -392v-267h-46zM144 725q-16 0 -26 10t-10 26q0 17 10 27t26 10t26.5 -10t10.5 -27q0 -16 -10.5 -26t-26.5 -10zM302 725q-16 0 -26.5 10t-10.5 26q0 17 10.5 27t26.5 10t26 -10t10 -27
q0 -16 -10 -26t-26 -10z" />
    <glyph glyph-name="alphatonos" unicode="&#x3ac;" horiz-adv-x="540" 
d="M232 -12q-82 0 -131 62t-49 178q0 121 60.5 192.5t147.5 71.5q53 0 97 -35t61 -109h3l23 132h44q-59 -306 -59 -400q0 -23 14 -38t34 -15q15 0 35 8l8 -36q-24 -11 -49 -11q-40 0 -62.5 28t-14.5 80h-3q-59 -108 -159 -108zM238 27q57 0 104.5 52.5t52.5 124.5l8 94
q-36 155 -141 155q-67 0 -115.5 -61t-48.5 -164q0 -93 37 -147t103 -54zM256 562l49 185h52l-66 -185h-35z" />
    <glyph glyph-name="epsilontonos" unicode="&#x3ad;" horiz-adv-x="435" 
d="M242 -12q-87 0 -138.5 39t-51.5 103q0 50 29.5 80.5t73.5 42.5v4q-37 14 -57.5 44t-20.5 67q0 59 48.5 91.5t121.5 32.5q79 0 149 -54l-20 -32q-63 48 -130 48q-53 0 -88 -23t-35 -67q0 -42 33 -68t102 -26q18 0 56 3v-41q-28 2 -70 2q-71 0 -109 -27t-38 -75
q0 -49 40 -77.5t110 -28.5q78 0 146 57l22 -33q-42 -34 -81 -48t-92 -14zM217 562l49 185h52l-66 -185h-35z" />
    <glyph glyph-name="etatonos" unicode="&#x3ae;" horiz-adv-x="529" 
d="M259 562l49 185h52l-66 -185h-35zM400 -180q3 242 3 482q0 77 -22 113.5t-70 36.5q-49 0 -87 -27.5t-88 -102.5v-322h-44v358q0 73 -5 122h43l4 -110h3q40 65 83.5 93.5t98.5 28.5q65 0 95 -45t30 -139v-488h-44z" />
    <glyph glyph-name="iotatonos" unicode="&#x3af;" horiz-adv-x="239" 
d="M93 562l49 185h52l-66 -185h-35zM157 -12q-65 0 -65 82v410h45q-3 -210 -3 -416q0 -37 29 -37q11 0 29 6l7 -36q-18 -9 -42 -9z" />
    <glyph glyph-name="upsilondieresistonos" unicode="&#x3b0;" horiz-adv-x="497" 
d="M242 -12q-78 0 -123.5 44t-45.5 137q0 31 2 94t2 95q0 73 -7 122h44q6 -34 6 -108q0 -32 -3 -103.5t-3 -99.5q0 -75 36.5 -108.5t93.5 -33.5q64 0 104.5 52.5t40.5 153.5q0 135 -44 247l44 12q46 -125 46 -259q0 -117 -54.5 -181t-138.5 -64zM141 602q-15 0 -24 9t-9 24
t9 24t24 9q14 0 23.5 -9t9.5 -24t-9.5 -24t-23.5 -9zM198 562l43 165h46l-60 -165h-29zM325 602q-14 0 -23.5 9t-9.5 24t9.5 24t23.5 9q15 0 24 -9t9 -24t-9 -24t-24 -9z" />
    <glyph glyph-name="alpha" unicode="&#x3b1;" horiz-adv-x="540" 
d="M232 -12q-82 0 -131 62t-49 178q0 121 60.5 192.5t147.5 71.5q53 0 97 -35t61 -109h3l23 132h44q-59 -306 -59 -400q0 -23 14 -38t34 -15q15 0 35 8l8 -36q-24 -11 -49 -11q-40 0 -62.5 28t-14.5 80h-3q-59 -108 -159 -108zM238 27q57 0 104.5 52.5t52.5 124.5l8 94
q-36 155 -141 155q-67 0 -115.5 -61t-48.5 -164q0 -93 37 -147t103 -54z" />
    <glyph glyph-name="beta" unicode="&#x3b2;" horiz-adv-x="544" 
d="M89 -180v687q0 101 46.5 162.5t134.5 61.5q68 0 115.5 -44t47.5 -123q0 -112 -105 -177v-4q80 -9 124 -61t44 -133q0 -90 -54.5 -145.5t-131.5 -55.5q-110 0 -180 78q3 -124 3 -246h-44zM305 27q62 0 103.5 45.5t41.5 118.5q0 72 -41.5 116t-120.5 44q-28 0 -56 -6l-9 38
q82 18 123.5 69t41.5 110q0 62 -33.5 96.5t-83.5 34.5q-64 0 -101 -51t-38 -149v-381q66 -85 173 -85z" />
    <glyph glyph-name="gamma" unicode="&#x3b3;" horiz-adv-x="455" 
d="M203 -180q3 46 3 112q0 130 -60.5 290.5t-135.5 255.5l43 14q56 -75 108 -198.5t69 -237.5h4q139 265 154 424h45q-18 -119 -61.5 -226t-131.5 -254q8 -73 8 -180h-45z" />
    <glyph glyph-name="delta" unicode="&#x3b4;" horiz-adv-x="522" 
d="M267 27q78 0 117.5 52t39.5 136q0 65 -31.5 111.5t-89.5 91.5q-95 -21 -147 -77t-52 -134t49 -129t114 -51zM464 692l-13 -40q-116 42 -192 42q-49 0 -74.5 -19t-25.5 -46q0 -10 2 -19.5t8 -19.5l10.5 -17.5t15.5 -18t17.5 -17t21.5 -18t22 -17t25.5 -19t26.5 -19.5
q77 -55 119 -110t42 -137q0 -104 -53.5 -166.5t-148.5 -62.5q-82 0 -145 60t-63 157q0 90 58 152t150 87q-39 28 -59.5 44t-46 40.5t-36.5 49t-11 51.5q0 43 37 72.5t110 29.5q85 0 203 -39z" />
    <glyph glyph-name="epsilon" unicode="&#x3b5;" horiz-adv-x="435" 
d="M242 -12q-87 0 -138.5 39t-51.5 103q0 50 29.5 80.5t73.5 42.5v4q-37 14 -57.5 44t-20.5 67q0 59 48.5 91.5t121.5 32.5q79 0 149 -54l-20 -32q-63 48 -130 48q-53 0 -88 -23t-35 -67q0 -42 33 -68t102 -26q18 0 56 3v-41q-28 2 -70 2q-71 0 -109 -27t-38 -75
q0 -49 40 -77.5t110 -28.5q78 0 146 57l22 -33q-42 -34 -81 -48t-92 -14z" />
    <glyph glyph-name="zeta" unicode="&#x3b6;" horiz-adv-x="399" 
d="M342 -183l-37 21q31 38 40.5 54t9.5 35q0 24 -23.5 37t-97.5 28q-86 17 -134 67.5t-48 159.5q0 116 93 253t193 212q-16 0 -117 -1t-139 -2v38h308v-38h-4q-103 -79 -195.5 -215.5t-92.5 -245.5q0 -93 42.5 -135t119.5 -56q74 -14 105.5 -33.5t31.5 -61.5q0 -45 -55 -117
z" />
    <glyph glyph-name="eta" unicode="&#x3b7;" horiz-adv-x="529" 
d="M400 -180q3 242 3 482q0 77 -22 113.5t-70 36.5q-49 0 -87 -27.5t-88 -102.5v-322h-44v358q0 73 -5 122h43l4 -110h3q40 65 83.5 93.5t98.5 28.5q65 0 95 -45t30 -139v-488h-44z" />
    <glyph glyph-name="theta" unicode="&#x3b8;" horiz-adv-x="506" 
d="M395 346h-284q4 -319 142 -319t142 319zM111 383h284q-3 150 -41.5 229.5t-100.5 79.5t-100.5 -79.5t-41.5 -229.5zM253 731q89 0 138 -96t49 -272q0 -375 -187 -375t-187 375q0 176 49 272t138 96z" />
    <glyph glyph-name="iota" unicode="&#x3b9;" horiz-adv-x="239" 
d="M157 -12q-65 0 -65 82v410h45q-3 -210 -3 -416q0 -37 29 -37q11 0 29 6l7 -36q-18 -9 -42 -9z" />
    <glyph glyph-name="kappa" unicode="&#x3ba;" horiz-adv-x="463" 
d="M466 0l-48 -7q-98 110 -185 274q-34 -45 -65 -95q-32 -48 -34 -149v-23h-42v358q0 84 -8 122h44q8 -31 8 -108v-187h4q61 111 143 197.5t153 109.5l5 -43q-83 -32 -181 -148q86 -171 206 -301z" />
    <glyph glyph-name="lambda" unicode="&#x3bb;" horiz-adv-x="461" 
d="M63 -7l-46 7l211 496l-8 25q-29 91 -57 131t-73 40q-28 0 -58 -16l-14 39q36 16 76 16q60 0 96.5 -50t72.5 -161l188 -520h-45l-156 443h-4z" />
    <glyph glyph-name="uni03BC" unicode="&#x3bc;" horiz-adv-x="543" 
d="M92 -180v660h44v-302q0 -150 106 -150q44 0 80 22t75 89v341h44q0 -47 -1 -132t-1.5 -154.5t-0.5 -129.5q0 -37 30 -37q12 0 28 6l8 -36q-20 -9 -42 -9q-35 0 -49 23.5t-14 77.5h-3q-59 -100 -151 -100q-40 0 -67.5 13t-45.5 47q0 -148 5 -229h-45z" />
    <glyph glyph-name="nu" unicode="&#x3bd;" horiz-adv-x="445" 
d="M200 0q-71 304 -190 478l43 14q54 -81 102 -205.5t74 -240.5h4q127 259 145 434h45q-31 -220 -177 -480h-46z" />
    <glyph glyph-name="xi" unicode="&#x3be;" horiz-adv-x="408" 
d="M351 -183l-37 21q31 38 40.5 54t9.5 35q0 24 -24.5 38t-96.5 27q-89 16 -140 60t-51 134q0 74 45.5 129t111.5 72v4q-108 47 -108 151q0 100 88 142q-121 -2 -154 -3v38h364v-38h-112q-56 0 -98 -37.5t-42 -101.5q0 -60 47 -100.5t99 -40.5q35 0 60 4v-43q-23 4 -63 4
q-75 0 -133.5 -48t-58.5 -129q0 -40 13.5 -69.5t39.5 -47t53.5 -27t65.5 -16.5q74 -14 105 -33.5t31 -61.5q0 -45 -55 -117z" />
    <glyph glyph-name="omicron" unicode="&#x3bf;" horiz-adv-x="524" 
d="M262 -12q-92 0 -151 67t-59 184q0 119 59 186t151 67t151 -67t59 -186q0 -117 -59 -184t-151 -67zM262 27q75 0 119.5 58t44.5 154q0 97 -44.5 155.5t-119.5 58.5t-119.5 -58.5t-44.5 -155.5q0 -96 44.5 -154t119.5 -58z" />
    <glyph glyph-name="pi" unicode="&#x3c0;" horiz-adv-x="557" 
d="M463 -12q-42 0 -61.5 22.5t-19.5 71.5q0 28 1 87.5t2.5 144.5t2.5 126h-207q0 -155 -29 -443l-46 3q34 236 34 440h-115v36l67 4h439v-40h-100q-8 -165 -8 -364q0 -49 46 -49q9 0 41 6l7 -36q-27 -9 -54 -9z" />
    <glyph glyph-name="rho" unicode="&#x3c1;" horiz-adv-x="538" 
d="M88 -180v435q0 113 57.5 175t143.5 62q96 0 146.5 -65t50.5 -180q0 -117 -59 -188t-138 -71q-93 0 -159 77q1 -37 3 -245h-45zM286 27q65 0 109.5 62t44.5 158q0 94 -37.5 150t-115.5 56q-66 0 -111 -53t-45 -155v-137q66 -81 155 -81z" />
    <glyph glyph-name="uni03C2" unicode="&#x3c2;" horiz-adv-x="423" 
d="M297 -177l-37 20q31 37 43 59t12 44q0 26 -16.5 42t-63.5 30q-31 11 -54 21.5t-49 29.5t-42 42.5t-27 60t-11 81.5q0 111 58 175t142 64q72 0 135 -59l-25 -31q-55 51 -109 51q-67 0 -111 -55.5t-44 -144.5q0 -48 13 -83t38 -56.5t49.5 -34t59.5 -23.5q56 -17 77.5 -39
t21.5 -65q0 -52 -60 -129z" />
    <glyph glyph-name="sigma" unicode="&#x3c3;" horiz-adv-x="530" 
d="M260 -12q-87 0 -147.5 66t-60.5 181q0 120 60.5 182.5t149.5 62.5h256v-41q-98 7 -161 7v-4q106 -59 106 -210q0 -113 -58 -178.5t-145 -65.5zM260 27q69 0 113.5 57t44.5 150q0 85 -42.5 146t-113.5 61t-117.5 -54t-46.5 -152q0 -93 46 -150.5t116 -57.5z" />
    <glyph glyph-name="tau" unicode="&#x3c4;" horiz-adv-x="441" 
d="M275 -12q-42 0 -59.5 22t-17.5 72v360h-172v34l67 4h322v-38h-173q-2 -124 -2 -366q0 -49 41 -49q18 0 44 8l8 -36q-29 -11 -58 -11z" />
    <glyph glyph-name="upsilon" unicode="&#x3c5;" horiz-adv-x="497" 
d="M242 -12q-78 0 -123.5 44t-45.5 137q0 31 2 94t2 95q0 73 -7 122h44q6 -34 6 -108q0 -32 -3 -103.5t-3 -99.5q0 -75 36.5 -108.5t93.5 -33.5q64 0 104.5 52.5t40.5 153.5q0 135 -44 247l44 12q46 -125 46 -259q0 -117 -54.5 -181t-138.5 -64z" />
    <glyph glyph-name="phi" unicode="&#x3c6;" horiz-adv-x="647" 
d="M345 454v-428q85 3 144 62t59 153q0 95 -57 153t-146 60zM302 26v428q-85 -2 -144.5 -60.5t-59.5 -152.5t59.5 -153t144.5 -62zM345 619v-129q105 -2 177.5 -68.5t72.5 -180.5q0 -113 -74 -181t-176 -70v-170h-43v170q-102 2 -176 70t-74 181t74 180t176 69v129h43z" />
    <glyph glyph-name="chi" unicode="&#x3c7;" horiz-adv-x="454" 
d="M53 -192l-43 12l195 342l-190 316l44 14l167 -288h4l146 276h48l-173 -317l206 -340l-42 -15l-185 316h-4z" />
    <glyph glyph-name="psi" unicode="&#x3c8;" horiz-adv-x="652" 
d="M500 480l43 12q47 -122 47 -235q0 -125 -65.5 -195t-179.5 -74v-168h-42v168q-111 1 -169.5 60t-58.5 166v144q0 73 -5 122h44q5 -43 5 -108q0 -35 -1 -92t-1 -66q0 -89 48 -137.5t138 -49.5v592h42v-592q96 3 147.5 61.5t51.5 168.5q0 109 -44 223z" />
    <glyph glyph-name="omega" unicode="&#x3c9;" horiz-adv-x="663" 
d="M206 -12q-66 0 -110 58.5t-44 168.5q0 80 25 145t72 132l38 -22q-48 -65 -70 -123.5t-22 -138.5q0 -86 32.5 -133.5t80.5 -47.5q43 0 72 32.5t29 105.5q0 81 -5 130h53q-5 -49 -5 -130q0 -74 29.5 -106t72.5 -32q50 0 80.5 47.5t30.5 141.5q0 79 -20 134t-67 122l39 20
q48 -68 71 -129.5t23 -145.5q0 -114 -41.5 -171.5t-111.5 -57.5q-41 0 -74.5 22t-50.5 63h-4q-16 -42 -49 -63.5t-74 -21.5z" />
    <glyph glyph-name="iotadieresis" unicode="&#x3ca;" horiz-adv-x="239" 
d="M157 -12q-65 0 -65 82v410h45q-3 -210 -3 -416q0 -37 29 -37q11 0 29 6l7 -36q-18 -9 -42 -9zM36 598q-16 0 -26 10.5t-10 26.5q0 15 10 25.5t26 10.5t26.5 -10.5t10.5 -25.5q0 -16 -10.5 -26.5t-26.5 -10.5zM194 598q-16 0 -26.5 10.5t-10.5 26.5q0 15 10.5 25.5
t26.5 10.5t26 -10.5t10 -25.5q0 -16 -10 -26.5t-26 -10.5z" />
    <glyph glyph-name="upsilondieresis" unicode="&#x3cb;" horiz-adv-x="497" 
d="M242 -12q-78 0 -123.5 44t-45.5 137q0 31 2 94t2 95q0 73 -7 122h44q6 -34 6 -108q0 -32 -3 -103.5t-3 -99.5q0 -75 36.5 -108.5t93.5 -33.5q64 0 104.5 52.5t40.5 153.5q0 135 -44 247l44 12q46 -125 46 -259q0 -117 -54.5 -181t-138.5 -64zM154 598q-16 0 -26 10.5
t-10 26.5q0 15 10 25.5t26 10.5t26.5 -10.5t10.5 -25.5q0 -16 -10.5 -26.5t-26.5 -10.5zM312 598q-16 0 -26.5 10.5t-10.5 26.5q0 15 10.5 25.5t26.5 10.5t26 -10.5t10 -25.5q0 -16 -10 -26.5t-26 -10.5z" />
    <glyph glyph-name="omicrontonos" unicode="&#x3cc;" horiz-adv-x="524" 
d="M240 562l49 185h52l-66 -185h-35zM262 -12q-92 0 -151 67t-59 184q0 119 59 186t151 67t151 -67t59 -186q0 -117 -59 -184t-151 -67zM262 27q75 0 119.5 58t44.5 154q0 97 -44.5 155.5t-119.5 58.5t-119.5 -58.5t-44.5 -155.5q0 -96 44.5 -154t119.5 -58z" />
    <glyph glyph-name="upsilontonos" unicode="&#x3cd;" horiz-adv-x="497" 
d="M242 -12q-78 0 -123.5 44t-45.5 137q0 31 2 94t2 95q0 73 -7 122h44q6 -34 6 -108q0 -32 -3 -103.5t-3 -99.5q0 -75 36.5 -108.5t93.5 -33.5q64 0 104.5 52.5t40.5 153.5q0 135 -44 247l44 12q46 -125 46 -259q0 -117 -54.5 -181t-138.5 -64zM211 562l49 185h52l-66 -185
h-35z" />
    <glyph glyph-name="omegatonos" unicode="&#x3ce;" horiz-adv-x="663" 
d="M310 562l49 185h52l-66 -185h-35zM206 -12q-66 0 -110 58.5t-44 168.5q0 80 25 145t72 132l38 -22q-48 -65 -70 -123.5t-22 -138.5q0 -86 32.5 -133.5t80.5 -47.5q43 0 72 32.5t29 105.5q0 81 -5 130h53q-5 -49 -5 -130q0 -74 29.5 -106t72.5 -32q50 0 80.5 47.5
t30.5 141.5q0 79 -20 134t-67 122l39 20q48 -68 71 -129.5t23 -145.5q0 -114 -41.5 -171.5t-111.5 -57.5q-41 0 -74.5 22t-50.5 63h-4q-16 -42 -49 -63.5t-74 -21.5z" />
    <glyph glyph-name="uni03D0" unicode="&#x3d0;" horiz-adv-x="547" 
d="M303 28q67 0 109 43.5t42 113.5q0 72 -41.5 119t-121.5 47q-50 0 -156 -27v-96q0 -47 12 -84t30.5 -58.5t42 -35t44 -18t39.5 -4.5zM275 689q-65 0 -102 -49.5t-37 -146.5q0 -30 -0.5 -72.5t-0.5 -58.5q255 44 255 200q0 62 -32.5 94.5t-82.5 32.5zM317 387v-4
q87 -6 134.5 -60t47.5 -139q0 -86 -56 -141t-140 -55q-37 0 -72 12t-67.5 37t-52 71t-19.5 107v292q0 101 46 161.5t135 60.5q67 0 114.5 -43t47.5 -122q0 -117 -118 -177z" />
    <glyph glyph-name="uni03D1" unicode="&#x3d1;" horiz-adv-x="506" 
d="M122 557q0 -40 12.5 -72t43 -60.5t83.5 -36.5t134 1q-6 305 -162 303q-48 0 -79.5 -36t-31.5 -99zM89 296h41q7 -23 7 -126q0 -76 32 -109.5t83 -33.5q66 0 104 72.5t39 253.5q-72 -12 -125.5 -3t-90.5 27.5t-60 49t-33 62.5t-10 67q0 79 45 127t111 48q208 0 208 -365
q0 -108 -14.5 -184t-41.5 -117t-59.5 -59t-75.5 -18q-70 0 -112 43.5t-42 134.5q0 93 -6 130z" />
    <glyph glyph-name="uni03D5" unicode="&#x3d5;" horiz-adv-x="647" 
d="M344 26q87 2 145.5 64t58.5 157q0 90 -32.5 148t-83.5 58q-89 0 -89 -143q0 -189 1 -284zM302 26v293q0 86 36 129.5t96 43.5q76 0 118.5 -65.5t42.5 -178.5q0 -116 -73.5 -186t-177.5 -72q0 -56 2 -170h-44v170q-105 2 -177.5 64.5t-72.5 178.5q0 133 109 260l36 -26
q-52 -59 -76.5 -112t-24.5 -127q0 -93 59.5 -146.5t146.5 -55.5z" />
    <glyph glyph-name="uni03D7" unicode="&#x3d7;" horiz-adv-x="463" 
d="M436 492l5 -43q-83 -32 -181 -148q86 -171 206 -301q-62 -98 -139 -186l-51 6q76 78 140 175q-96 109 -183 272q-34 -45 -65 -95q-32 -48 -34 -149v-23h-42v358q0 84 -8 122h44q8 -31 8 -108v-187h4q61 111 143 197.5t153 109.5z" />
    <glyph glyph-name="uni03D9" unicode="&#x3d9;" horiz-adv-x="524" 
d="M262 26q75 0 119.5 58t44.5 155t-44.5 155.5t-119.5 58.5t-119.5 -58.5t-44.5 -155.5t44.5 -155t119.5 -58zM243 -180v169q-85 7 -138 73.5t-53 176.5q0 119 59 186t151 67t151 -67t59 -186q0 -109 -51.5 -175t-134.5 -75q1 -35 1.5 -85.5t0.5 -83.5h-45z" />
    <glyph glyph-name="uni03DB" unicode="&#x3db;" horiz-adv-x="451" 
d="M333 -183l-37 21q31 38 40.5 54t9.5 35q0 24 -20 40.5t-80 31.5q-90 22 -142 76.5t-52 159.5q0 122 63.5 183.5t168.5 61.5h141v-41q-34 2 -140 2q-87 0 -137 -53t-50 -153q0 -89 46 -134.5t126 -64.5q64 -14 91 -37.5t27 -64.5q0 -45 -55 -117z" />
    <glyph glyph-name="uni03DD" unicode="&#x3dd;" horiz-adv-x="402" 
d="M92 -180v660h284v-38h-243l2 -252h221v-36h-220q0 -214 1 -334h-45z" />
    <glyph glyph-name="uni03E1" unicode="&#x3e1;" horiz-adv-x="476" 
d="M53 650l26 34q172 -97 269.5 -278.5t97.5 -390.5q0 -109 -17 -193l-43 6q18 81 18 187q0 77 -16 160q-206 -94 -274 -127l-19 37l284 130q-18 68 -48 133q-163 -74 -290 -134l-19 36l292 133q-94 178 -261 267z" />
    <glyph glyph-name="uni0400" unicode="&#x400;" horiz-adv-x="515" 
d="M97 0v659h361v-40h-315v-249h264v-40h-264v-290h325v-40h-371zM278 709l-112 111h61l93 -111h-42z" />
    <glyph glyph-name="uni0401" unicode="&#x401;" horiz-adv-x="515" 
d="M203 725q-16 0 -26 10t-10 26q0 17 10 27t26 10t26.5 -10t10.5 -27q0 -16 -10.5 -26t-26.5 -10zM361 725q-16 0 -26.5 10t-10.5 26q0 17 10.5 27t26.5 10t26 -10t10 -27q0 -16 -10 -26t-26 -10zM97 0v659h361v-40h-315v-249h264v-40h-264v-290h325v-40h-371z" />
    <glyph glyph-name="uni0402" unicode="&#x402;" horiz-adv-x="681" 
d="M449 -12q-29 0 -61 10l10 40q20 -9 47 -9q52 0 91.5 39t39.5 124q0 165 -189 165q-58 0 -122 -12v-345h-46v619h-190v40h479v-40h-243v-233q62 11 126 11q109 0 170.5 -50.5t61.5 -154.5q0 -56 -15.5 -97t-41.5 -63.5t-55 -33t-62 -10.5z" />
    <glyph glyph-name="uni0403" unicode="&#x403;" horiz-adv-x="485" 
d="M97 0v659h359v-40h-313v-619h-46zM249 709l93 111h61l-112 -111h-42z" />
    <glyph glyph-name="uni0404" unicode="&#x404;" horiz-adv-x="564" 
d="M500 111l27 -29q-83 -94 -196 -94q-127 0 -201.5 90.5t-74.5 252.5q0 161 75.5 250.5t204.5 89.5q54 0 99 -22.5t74 -56.5l-27 -31q-60 68 -146 68q-103 0 -164 -68t-69 -191h302v-40h-303q1 -145 62 -222.5t170 -77.5q94 0 167 81z" />
    <glyph glyph-name="uni0405" unicode="&#x405;" horiz-adv-x="521" 
d="M269 -12q-134 0 -223 99l30 32q79 -89 193 -89q75 0 119.5 36.5t44.5 95.5q0 30 -8.5 52t-27.5 38t-35.5 25t-46.5 23l-100 45q-27 12 -46 23.5t-41.5 30.5t-34.5 47t-12 63q0 71 54.5 116.5t137.5 45.5q110 0 183 -79l-26 -30q-65 67 -157 67q-66 0 -106 -32t-40 -86
q0 -27 9.5 -48t30.5 -36.5t34.5 -23t39.5 -19.5l100 -44q67 -30 103 -68t36 -107q0 -77 -58 -127t-153 -50z" />
    <glyph glyph-name="uni0406" unicode="&#x406;" horiz-adv-x="240" 
d="M97 0v659h46v-659h-46z" />
    <glyph glyph-name="uni0407" unicode="&#x407;" horiz-adv-x="240" 
d="M97 0v659h46v-659h-46zM41 725q-16 0 -26 10t-10 26q0 17 10 27t26 10t26.5 -10t10.5 -27q0 -16 -10.5 -26t-26.5 -10zM199 725q-16 0 -26.5 10t-10.5 26q0 17 10.5 27t26.5 10t26 -10t10 -27q0 -16 -10 -26t-26 -10z" />
    <glyph glyph-name="uni0408" unicode="&#x408;" horiz-adv-x="462" 
d="M203 -12q-110 0 -162 97l35 23q45 -78 127 -78q60 0 89 37t29 117v475h46v-480q0 -86 -39.5 -138.5t-124.5 -52.5z" />
    <glyph glyph-name="uni0409" unicode="&#x409;" horiz-adv-x="890" 
d="M495 39h103q100 0 149 37.5t49 116.5q0 72 -50 106t-151 34h-100v-294zM495 372h112q111 0 173 -43.5t62 -133.5q0 -96 -60 -145.5t-172 -49.5h-115h-46v619h-195q-12 -65 -35 -199.5t-36 -204.5q-25 -136 -54.5 -181.5t-80.5 -45.5q-23 0 -44 8l12 44q17 -5 28 -5
q30 0 51.5 36.5t43.5 150.5q37 200 78 437h232h46v-287z" />
    <glyph glyph-name="uni040A" unicode="&#x40a;" horiz-adv-x="927" 
d="M532 39h103q100 0 149 37.5t49 116.5q0 72 -50 106t-151 34h-100v-294zM532 372h112q111 0 172.5 -43.5t61.5 -133.5q0 -96 -59.5 -145.5t-171.5 -49.5h-115h-46v330h-343v-330h-46v659h46v-289h343v289h46v-287z" />
    <glyph glyph-name="uni040B" unicode="&#x40b;" horiz-adv-x="683" 
d="M265 619v-233q62 11 125 11q222 0 222 -197v-200h-45v200q0 83 -44.5 120t-136.5 37q-57 0 -121 -12v-345h-46v619h-190v40h190h46h243v-40h-243z" />
    <glyph glyph-name="uni040C" unicode="&#x40c;" horiz-adv-x="555" 
d="M428 821l-112 -111h-42l93 111h61zM318 352l232 -352h-52l-219 331h-136v-331h-46v659h46v-289h138l96 176q42 77 68 101t65 24q14 0 26 -5l-8 -46q-9 4 -21 4q-23 0 -41.5 -17.5t-52.5 -78.5z" />
    <glyph glyph-name="uni040D" unicode="&#x40d;" horiz-adv-x="644" 
d="M97 0v659h46v-404q0 -64 -6 -192h4l75 130l282 466h49v-659h-46v409q0 28 1 59.5t2.5 69t2.5 58.5h-4l-74 -129l-283 -467h-49zM322 710l-112 111h61l93 -111h-42z" />
    <glyph glyph-name="uni040E" unicode="&#x40e;" horiz-adv-x="491" 
d="M123 -12q-32 0 -54 9l12 43q15 -6 37 -6q38 0 60 15.5t38 51.5l17 43l-226 515h49l150 -352l47 -113h4l43 113l138 352h48l-223 -557q-22 -56 -55 -85t-85 -29zM240 710q-70 0 -101 32t-35 78h42q4 -80 94 -80t94 80h42q-4 -46 -35 -78t-101 -32z" />
    <glyph glyph-name="uni040F" unicode="&#x40f;" horiz-adv-x="634" 
d="M537 659v-659h-194l-6 -188h-39v188h-201v659h46v-619h348v619h46z" />
    <glyph glyph-name="uni0410" unicode="&#x410;" horiz-adv-x="526" 
d="M146 265h234l-42 123q-46 133 -73 228h-4q-27 -95 -73 -228zM470 0l-77 226h-261l-78 -226h-46l232 659h46l232 -659h-48z" />
    <glyph glyph-name="uni0411" unicode="&#x411;" horiz-adv-x="568" 
d="M97 0v659h383v-40h-337v-249h146q111 0 173 -43t62 -133q0 -96 -59 -145t-172 -49h-196zM143 38h138q197 0 197 154q0 73 -49.5 106.5t-151.5 33.5h-134v-294z" />
    <glyph glyph-name="uni0412" unicode="&#x412;" horiz-adv-x="578" 
d="M97 0v659h178q103 0 160.5 -40t57.5 -120q0 -53 -26.5 -91t-75.5 -53v-4q66 -11 104 -52t38 -107q0 -93 -65.5 -142.5t-179.5 -49.5h-191zM143 369h114q190 0 190 125q0 68 -45.5 97.5t-139.5 29.5h-119v-252zM143 38h133q101 0 156.5 38t55.5 115q0 140 -212 140h-133
v-293z" />
    <glyph glyph-name="uni0413" unicode="&#x413;" horiz-adv-x="485" 
d="M97 0v659h359v-40h-313v-619h-46z" />
    <glyph glyph-name="uni0414" unicode="&#x414;" horiz-adv-x="619" 
d="M121 40h349v579h-217q-10 -58 -27 -168t-30 -179q-32 -179 -75 -232zM575 40h11v-26l-7 -202h-39v188h-24h-46h-391v-188h-39l-7 202v26h16h14q50 20 91 241q29 160 62 378h300v-619h59z" />
    <glyph glyph-name="uni0415" unicode="&#x415;" horiz-adv-x="515" 
d="M97 0v659h361v-40h-315v-249h264v-40h-264v-290h325v-40h-371z" />
    <glyph glyph-name="uni0416" unicode="&#x416;" horiz-adv-x="768" 
d="M552 354l207 -354h-53l-189 331h-111v-331h-44v331h-111l-189 -331h-53l207 354l-78 174q-28 60 -48.5 78t-45.5 18q-12 0 -21 -4l-8 46q12 5 26 5q40 0 69 -25t64 -100l81 -176h107v289h44v-289h107l80 176q35 75 64.5 100t69.5 25q14 0 26 -5l-9 -46q-8 4 -21 4
q-24 0 -44.5 -18t-48.5 -78z" />
    <glyph glyph-name="uni0417" unicode="&#x417;" horiz-adv-x="548" 
d="M279 -12q-75 0 -129.5 23.5t-103.5 75.5l29 31q47 -49 93 -68.5t111 -19.5q76 0 127.5 41t51.5 112q0 74 -55 111t-156 37h-67v38h47q101 0 148.5 34t47.5 102q0 58 -42 91t-108 33q-101 0 -166 -67l-26 31q32 34 83 56t109 22q84 0 139.5 -44.5t55.5 -119.5
q0 -55 -28 -95.5t-78 -56.5v-4q63 -11 102.5 -54.5t39.5 -113.5q0 -88 -65 -141.5t-160 -53.5z" />
    <glyph glyph-name="uni0418" unicode="&#x418;" horiz-adv-x="644" 
d="M97 0v659h46v-404q0 -64 -6 -192h4l75 130l282 466h49v-659h-46v409q0 28 1 59.5t2.5 69t2.5 58.5h-4l-74 -129l-283 -467h-49z" />
    <glyph glyph-name="uni0419" unicode="&#x419;" horiz-adv-x="644" 
d="M97 0v659h46v-404q0 -64 -6 -192h4l75 130l282 466h49v-659h-46v409q0 28 1 59.5t2.5 69t2.5 58.5h-4l-74 -129l-283 -467h-49zM326 711q-70 0 -101 32t-35 78h42q4 -80 94 -80t94 80h42q-4 -46 -35 -78t-101 -32z" />
    <glyph glyph-name="uni041A" unicode="&#x41a;" horiz-adv-x="555" 
d="M318 352l232 -352h-52l-219 331h-136v-331h-46v659h46v-289h138l96 176q42 77 68 101t65 24q14 0 26 -5l-8 -46q-9 4 -21 4q-23 0 -41.5 -17.5t-52.5 -78.5z" />
    <glyph glyph-name="uni041B" unicode="&#x41b;" horiz-adv-x="614" 
d="M50 -12q-23 0 -44 8l12 44q17 -5 28 -5q30 0 51.5 36.5t43.5 150.5q37 200 78 437h298v-659h-46v619h-215q-12 -64 -35 -198t-36 -204q-25 -136 -54.5 -182.5t-80.5 -46.5z" />
    <glyph glyph-name="uni041C" unicode="&#x41c;" horiz-adv-x="706" 
d="M97 0v659h65l138 -387q5 -15 23.5 -66.5t28.5 -79.5h4q7 20 24 69.5t26 76.5l137 387h66v-659h-45v433q0 68 6 178h-4l-51 -147l-142 -392h-40l-143 392l-52 147h-4q6 -165 6 -178v-433h-43z" />
    <glyph glyph-name="uni041D" unicode="&#x41d;" horiz-adv-x="639" 
d="M97 0v659h46v-289h353v289h46v-659h-46v330h-353v-330h-46z" />
    <glyph glyph-name="uni041E" unicode="&#x41e;" horiz-adv-x="652" 
d="M326 -12q-120 0 -195.5 94.5t-75.5 249.5q0 154 75.5 246.5t195.5 92.5q121 0 196.5 -92.5t75.5 -246.5q0 -155 -76 -249.5t-196 -94.5zM326 30q101 0 162 82.5t61 219.5q0 136 -61 216.5t-162 80.5t-162 -80.5t-61 -216.5q0 -137 61 -219.5t162 -82.5z" />
    <glyph glyph-name="uni041F" unicode="&#x41f;" horiz-adv-x="634" 
d="M97 0v659h440v-659h-46v619h-348v-619h-46z" />
    <glyph glyph-name="uni0420" unicode="&#x420;" horiz-adv-x="549" 
d="M97 0v659h166q117 0 178 -43t61 -141q0 -95 -61.5 -143.5t-173.5 -48.5h-124v-283h-46zM143 322h113q102 0 150.5 36.5t48.5 116.5q0 81 -48.5 113t-154.5 32h-109v-298z" />
    <glyph glyph-name="uni0421" unicode="&#x421;" horiz-adv-x="564" 
d="M331 -12q-123 0 -199.5 93.5t-76.5 249.5t77.5 248t203.5 92q105 0 172 -79l-27 -31q-60 68 -144 68q-109 0 -171.5 -80t-62.5 -218t62 -219.5t168 -81.5q94 0 167 81l27 -29q-83 -94 -196 -94z" />
    <glyph glyph-name="uni0422" unicode="&#x422;" horiz-adv-x="524" 
d="M239 0v619h-210v40h466v-40h-210v-619h-46z" />
    <glyph glyph-name="uni0423" unicode="&#x423;" horiz-adv-x="491" 
d="M123 -12q-32 0 -54 9l12 43q15 -6 37 -6q38 0 60 15.5t38 51.5l17 43l-226 515h49l150 -352l47 -113h4l43 113l138 352h48l-223 -557q-22 -56 -55 -85t-85 -29z" />
    <glyph glyph-name="uni0424" unicode="&#x424;" horiz-adv-x="713" 
d="M377 535v-411q117 1 179.5 56.5t62.5 151.5q0 95 -62.5 148.5t-179.5 54.5zM336 124v411q-117 -1 -179.5 -54.5t-62.5 -148.5q0 -96 62.5 -151.5t179.5 -56.5zM377 671v-98q137 -1 212.5 -64.5t75.5 -176.5q0 -114 -75.5 -179.5t-212.5 -66.5v-98h-41v98
q-137 1 -212.5 66.5t-75.5 179.5q0 113 75.5 176.5t212.5 64.5v98h41z" />
    <glyph glyph-name="uni0425" unicode="&#x425;" horiz-adv-x="482" 
d="M17 0l198 341l-184 318h50l108 -194l54 -90h4q37 69 49 90l108 194h47l-184 -320l198 -339h-50l-115 202q-20 37 -61 105h-4q-33 -62 -56 -105l-115 -202h-47z" />
    <glyph glyph-name="uni0426" unicode="&#x426;" horiz-adv-x="626" 
d="M523 40h70v-26l-7 -202h-39v188h-24h-20h-406v659h46v-619h334v619h46v-619z" />
    <glyph glyph-name="uni0427" unicode="&#x427;" horiz-adv-x="579" 
d="M436 0v311q-75 -11 -132 -11q-114 0 -173.5 46.5t-59.5 152.5v160h45v-160q0 -87 48 -122.5t144 -35.5q71 0 128 11v307h46v-659h-46z" />
    <glyph glyph-name="uni0428" unicode="&#x428;" horiz-adv-x="838" 
d="M97 0v659h46v-619h253v619h46v-619h253v619h46v-659h-644z" />
    <glyph glyph-name="uni0429" unicode="&#x429;" horiz-adv-x="843" 
d="M741 40h69v-26l-7 -202h-38v188h-24h-20h-624v659h46v-619h253v619h46v-619h253v619h46v-619z" />
    <glyph glyph-name="uni042A" unicode="&#x42a;" horiz-adv-x="714" 
d="M251 0v619h-222v40h268v-287h130q111 0 175 -44t64 -133q0 -96 -59.5 -145.5t-171.5 -49.5h-184zM297 39h126q99 0 148 37.5t49 116.5q0 140 -205 140h-118v-294z" />
    <glyph glyph-name="uni042B" unicode="&#x42b;" horiz-adv-x="766" 
d="M97 0v659h46v-287h124q111 0 173 -43.5t62 -133.5q0 -96 -60 -145.5t-172 -49.5h-173zM143 39h116q197 0 197 154q0 72 -50 106t-151 34h-112v-294zM623 0v659h46v-659h-46z" />
    <glyph glyph-name="uni042C" unicode="&#x42c;" horiz-adv-x="568" 
d="M97 0v659h46v-287h142q111 0 173 -43.5t62 -133.5q0 -96 -60 -145.5t-172 -49.5h-191zM143 39h134q197 0 197 154q0 72 -50 106t-151 34h-130v-294z" />
    <glyph glyph-name="uni042D" unicode="&#x42d;" horiz-adv-x="564" 
d="M84 561l-27 31q30 33 80.5 56t106.5 23q124 0 195 -89t71 -251q0 -161 -72 -252t-193 -91t-207 94l27 29q76 -81 178 -81t161 78t60 222h-304v40h303q-7 123 -64 191t-156 68q-96 0 -159 -68z" />
    <glyph glyph-name="uni042E" unicode="&#x42e;" horiz-adv-x="883" 
d="M569 30q96 0 153.5 82.5t57.5 219.5q0 136 -57.5 216.5t-153.5 80.5q-97 0 -154.5 -80.5t-57.5 -216.5q0 -137 57.5 -219.5t154.5 -82.5zM143 370h169q9 139 79 220t178 81q116 0 187.5 -92t71.5 -247q0 -156 -71.5 -250t-187.5 -94q-115 0 -186 93.5t-72 248.5h-168
v-330h-46v659h46v-289z" />
    <glyph glyph-name="uni042F" unicode="&#x42f;" horiz-adv-x="562" 
d="M418 341v279h-130q-91 0 -136 -31.5t-45 -103.5q0 -144 181 -144h130zM276 659h188v-659h-46v303h-147l-189 -303h-54l194 307q-75 11 -119 56t-44 122q0 174 217 174z" />
    <glyph glyph-name="uni0430" unicode="&#x430;" horiz-adv-x="491" 
d="M197 -12q-61 0 -100 33.5t-39 98.5q0 79 73.5 121t236.5 60q2 152 -114 152q-76 0 -153 -56l-20 33q88 62 179 62q80 0 116 -50.5t36 -134.5v-307h-38l-4 62h-3q-93 -74 -170 -74zM205 26q71 0 163 78v163q-144 -17 -204.5 -51.5t-60.5 -93.5q0 -49 28.5 -72.5
t73.5 -23.5z" />
    <glyph glyph-name="uni0431" unicode="&#x431;" horiz-adv-x="534" 
d="M279 27q66 0 111 60t45 153q0 84 -41.5 136.5t-116.5 52.5q-93 0 -173 -103q-1 -14 -1 -45q0 -120 44.5 -187t131.5 -67zM449 730l11 -44q-33 -18 -92 -27q-37 -6 -57.5 -10t-49 -11.5t-44 -17t-35 -24t-30 -34t-21.5 -46.5t-16.5 -62.5t-8.5 -80.5q74 94 178 94
q91 0 144 -62t53 -165q0 -113 -58.5 -182.5t-143.5 -69.5q-104 0 -161.5 77t-57.5 220q0 74 7.5 131.5t19 98.5t33.5 71.5t43.5 49.5t56 33t64.5 21t75 14q55 8 90 26z" />
    <glyph glyph-name="uni0432" unicode="&#x432;" horiz-adv-x="496" 
d="M92 0v480h173q167 0 167 -118q0 -80 -79 -105v-3q43 -10 72 -39t29 -78q0 -68 -48.5 -102.5t-135.5 -34.5h-178zM136 270h112q139 0 139 88q0 86 -130 86h-121v-174zM136 36h125q147 0 147 103q0 46 -40 70.5t-115 24.5h-117v-198z" />
    <glyph glyph-name="uni0433" unicode="&#x433;" horiz-adv-x="399" 
d="M92 0v480h281v-38h-237v-442h-44z" />
    <glyph glyph-name="uni0434" unicode="&#x434;" horiz-adv-x="501" 
d="M99 39h265v403h-184l-22 -194q-19 -156 -59 -209zM408 39h66v-26l-6 -185h-38v172h-22h-44h-265h-31v-172h-39l-5 185v26h8h12q25 13 42.5 56.5t31.5 158.5l27 226h263v-441z" />
    <glyph glyph-name="uni0435" unicode="&#x435;" horiz-adv-x="483" 
d="M274 -12q-95 0 -158.5 68t-63.5 183q0 113 62.5 183t146.5 70q86 0 135 -58.5t49 -163.5q0 -24 -2 -36h-346q2 -92 51.5 -150t129.5 -58q69 0 129 43l18 -34q-78 -47 -151 -47zM97 270h306q0 90 -37.5 137t-103.5 47q-64 0 -111 -50t-54 -134z" />
    <glyph glyph-name="uni0436" unicode="&#x436;" horiz-adv-x="634" 
d="M467 256l150 -256h-49l-132 231h-99v-231h-40v231h-99l-132 -231h-49l150 257l-45 114q-18 45 -35.5 60.5t-38.5 15.5q-9 0 -15 -2l-10 43q10 4 23 4q34 0 60.5 -23t49.5 -81l47 -118h94v210h40v-210h93l48 118q23 58 49.5 81t60.5 23q12 0 22 -4l-9 -43q-6 2 -15 2
q-22 0 -39 -15.5t-35 -60.5z" />
    <glyph glyph-name="uni0437" unicode="&#x437;" horiz-adv-x="444" 
d="M221 -12q-108 0 -179 63l23 31q63 -56 153 -56q58 0 98 29.5t40 76.5q0 50 -39.5 76t-112.5 26h-60v36h47q70 0 107 25t37 69t-32 67t-84 23q-75 0 -141 -48l-23 31q75 55 165 55q69 0 114.5 -32.5t45.5 -91.5q0 -76 -82 -111v-4q46 -12 75 -42.5t29 -80.5
q0 -63 -52.5 -102.5t-128.5 -39.5z" />
    <glyph glyph-name="uni0438" unicode="&#x438;" horiz-adv-x="554" 
d="M92 0v480h44v-240q0 -21 -5 -181h4q9 15 34 52t34 52l216 317h43v-480h-44v240q0 24 5 181h-4q-10 -15 -34 -52t-34 -52l-216 -317h-43z" />
    <glyph glyph-name="uni0439" unicode="&#x439;" horiz-adv-x="554" 
d="M279 574q-64 0 -95 38.5t-34 89.5h40q2 -42 22.5 -69.5t66.5 -27.5t66.5 27.5t22.5 69.5h40q-3 -51 -34 -89.5t-95 -38.5zM92 0v480h44v-240q0 -21 -5 -181h4q9 15 34 52t34 52l216 317h43v-480h-44v240q0 24 5 181h-4q-10 -15 -34 -52t-34 -52l-216 -317h-43z" />
    <glyph glyph-name="uni043A" unicode="&#x43a;" horiz-adv-x="470" 
d="M290 253l164 -253h-50l-147 231h-121v-231h-44v480h44v-210h120l50 118q25 61 50.5 82.5t59.5 21.5q13 0 23 -4l-10 -43q-6 2 -15 2q-21 0 -38 -15t-36 -61z" />
    <glyph glyph-name="uni043B" unicode="&#x43b;" horiz-adv-x="505" 
d="M48 -12q-20 0 -35 7l10 42q12 -4 21 -4q58 0 71 120q4 36 12.5 103t15 121.5t11.5 102.5h259v-480h-44v442h-179q-27 -222 -35 -298q-19 -156 -107 -156z" />
    <glyph glyph-name="uni043C" unicode="&#x43c;" horiz-adv-x="618" 
d="M92 0v480h52l115 -261q5 -14 15 -39t18 -45.5t15 -38.5h4q45 109 50 123l113 261h52v-480h-43v272q0 46 6 140h-4q-8 -21 -24.5 -59t-18.5 -42l-112 -264h-40l-114 264q-2 4 -18.5 42t-24.5 59h-4q5 -117 5 -140v-272h-42z" />
    <glyph glyph-name="uni043D" unicode="&#x43d;" horiz-adv-x="550" 
d="M92 0v480h44v-208h278v208h44v-480h-44v232h-278v-232h-44z" />
    <glyph glyph-name="uni043E" unicode="&#x43e;" horiz-adv-x="535" 
d="M267 -12q-90 0 -152.5 68t-62.5 183q0 116 62.5 184.5t152.5 68.5q91 0 153.5 -68.5t62.5 -184.5q0 -115 -62.5 -183t-153.5 -68zM267 27q73 0 121.5 59t48.5 153t-48.5 154t-121.5 60t-121 -59.5t-48 -154.5q0 -94 48 -153t121 -59z" />
    <glyph glyph-name="uni043F" unicode="&#x43f;" horiz-adv-x="541" 
d="M92 0v480h356v-480h-44v442h-268v-442h-44z" />
    <glyph glyph-name="uni0440" unicode="&#x440;" horiz-adv-x="544" 
d="M92 -217v697h38l4 -60h3q91 72 163 72q94 0 143 -65.5t49 -179.5q0 -118 -62 -188.5t-150 -70.5q-64 0 -144 59v-89v-175h-44zM278 27q73 0 120 61.5t47 158.5q0 95 -37 150.5t-115 55.5q-67 0 -157 -79v-285q76 -62 142 -62z" />
    <glyph glyph-name="uni0441" unicode="&#x441;" horiz-adv-x="449" 
d="M270 -12q-96 0 -157 67.5t-61 183.5t63.5 184.5t155.5 68.5q76 0 141 -59l-26 -31q-55 51 -114 51q-74 0 -124 -60t-50 -154q0 -95 48 -153.5t126 -58.5q68 0 128 55l23 -31q-72 -63 -153 -63z" />
    <glyph glyph-name="uni0442" unicode="&#x442;" horiz-adv-x="441" 
d="M198 0v442h-172v38h389v-38h-172v-442h-45z" />
    <glyph glyph-name="uni0443" unicode="&#x443;" horiz-adv-x="436" 
d="M73 -219q-27 0 -49 10l10 39q20 -8 39 -8q81 0 123 127l13 42l-197 489h48l116 -302q38 -101 52 -134h4q5 14 44 134l103 302h45l-190 -540q-53 -159 -161 -159z" />
    <glyph glyph-name="uni0444" unicode="&#x444;" horiz-adv-x="708" 
d="M332 -217v173l1 73q-50 -41 -101 -41q-83 0 -131.5 65.5t-48.5 185.5q0 114 51.5 183.5t128.5 69.5q44 0 101 -39l-1 71v195h44v-195l-1 -72q53 40 107 40q85 0 129.5 -65.5t44.5 -179.5q0 -118 -52 -188.5t-128 -70.5q-47 0 -101 40l1 -72v-173h-44zM238 27q49 0 95 43
v342q-44 41 -99 41q-58 0 -96.5 -61.5t-38.5 -152.5q0 -97 36.5 -154.5t102.5 -57.5zM473 27q61 0 98.5 61t37.5 159q0 95 -32.5 150.5t-101.5 55.5q-54 0 -100 -41v-344q46 -41 98 -41z" />
    <glyph glyph-name="uni0445" unicode="&#x445;" horiz-adv-x="407" 
d="M14 0l163 251l-150 229h49l78 -122q30 -48 51 -79h4q9 13 24.5 39.5t24.5 39.5l75 122h46l-149 -233l163 -247h-49l-85 131q-31 51 -57 88h-4q-11 -16 -30.5 -48t-24.5 -40l-82 -131h-47z" />
    <glyph glyph-name="uni0446" unicode="&#x446;" horiz-adv-x="531" 
d="M441 39h66v-26l-6 -185h-38v172h-22h-20h-329v480h44v-441h261v441h44v-441z" />
    <glyph glyph-name="uni0447" unicode="&#x447;" horiz-adv-x="490" 
d="M354 0v209q-58 -12 -100 -12q-95 0 -141.5 37t-46.5 119v127h44v-127q0 -62 36 -89.5t115 -27.5q46 0 93 11v233h44v-480h-44z" />
    <glyph glyph-name="uni0448" unicode="&#x448;" horiz-adv-x="718" 
d="M92 0v480h44v-441h201v441h44v-441h201v441h44v-480h-534z" />
    <glyph glyph-name="uni0449" unicode="&#x449;" horiz-adv-x="716" 
d="M626 39h65v-26l-5 -185h-38v172h-22h-20h-514v480h44v-441h201v441h44v-441h201v441h44v-441z" />
    <glyph glyph-name="uni044A" unicode="&#x44a;" horiz-adv-x="580" 
d="M211 0v442h-185v38h229v-191h98q86 0 134 -36.5t48 -106.5q0 -72 -48 -109t-134 -37h-142zM255 38h88q75 0 111 26t36 82q0 55 -36 80t-111 25h-88v-213z" />
    <glyph glyph-name="uni044B" unicode="&#x44b;" horiz-adv-x="636" 
d="M92 0v480h44v-191h87q86 0 134.5 -36.5t48.5 -106.5q0 -72 -48.5 -109t-134.5 -37h-131zM136 38h78q75 0 110.5 26t35.5 82q0 55 -35.5 80t-110.5 25h-78v-213zM500 0v480h44v-480h-44z" />
    <glyph glyph-name="uni044C" unicode="&#x44c;" horiz-adv-x="476" 
d="M92 0v480h44v-191h113q86 0 134 -36.5t48 -106.5q0 -72 -48 -109t-134 -37h-157zM136 38h103q75 0 111 26t36 82q0 55 -36 80t-111 25h-103v-213z" />
    <glyph glyph-name="uni044D" unicode="&#x44d;" horiz-adv-x="449" 
d="M62 403l-25 30q63 59 152 59q90 0 149 -65t59 -188q0 -122 -59.5 -186.5t-156.5 -64.5q-88 0 -156 63l23 30q57 -55 131 -55q80 0 126 54t47 154h-237v36h236q-7 88 -51.5 136t-112.5 48q-70 0 -125 -51z" />
    <glyph glyph-name="uni044E" unicode="&#x44e;" horiz-adv-x="716" 
d="M462 27q70 0 113 58.5t43 153.5t-43 154.5t-113 59.5q-71 0 -115.5 -59.5t-44.5 -154.5q0 -94 44.5 -153t115.5 -59zM136 269h124q8 104 64 163.5t139 59.5q87 0 144 -68t57 -185q0 -116 -57 -183.5t-144 -67.5q-86 0 -143.5 64.5t-60.5 175.5h-123v-228h-44v480h44v-211
z" />
    <glyph glyph-name="uni044F" unicode="&#x44f;" horiz-adv-x="497" 
d="M360 246v197h-93q-147 0 -147 -96q0 -49 39 -75t108 -26h93zM256 480h148v-480h-44v209h-110h-1l-155 -209h-52l161 213q-58 10 -93.5 43.5t-35.5 91.5q0 132 182 132z" />
    <glyph glyph-name="uni0450" unicode="&#x450;" horiz-adv-x="483" 
d="M276 572l-116 156h56l100 -156h-40zM274 -12q-95 0 -158.5 68t-63.5 183q0 113 62.5 183t146.5 70q86 0 135 -58.5t49 -163.5q0 -24 -2 -36h-346q2 -92 51.5 -150t129.5 -58q69 0 129 43l18 -34q-78 -47 -151 -47zM97 270h306q0 90 -37.5 137t-103.5 47q-64 0 -111 -50
t-54 -134z" />
    <glyph glyph-name="uni0451" unicode="&#x451;" horiz-adv-x="483" 
d="M274 -12q-95 0 -158.5 68t-63.5 183q0 113 62.5 183t146.5 70q86 0 135 -58.5t49 -163.5q0 -24 -2 -36h-346q2 -92 51.5 -150t129.5 -58q69 0 129 43l18 -34q-78 -47 -151 -47zM97 270h306q0 90 -37.5 137t-103.5 47q-64 0 -111 -50t-54 -134zM182 598q-16 0 -26 10.5
t-10 26.5q0 15 10 25.5t26 10.5t26.5 -10.5t10.5 -25.5q0 -16 -10.5 -26.5t-26.5 -10.5zM340 598q-16 0 -26.5 10.5t-10.5 26.5q0 15 10.5 25.5t26.5 10.5t26 -10.5t10 -25.5q0 -16 -10 -26.5t-26 -10.5z" />
    <glyph glyph-name="uni0452" unicode="&#x452;" horiz-adv-x="533" 
d="M136 477l-2 -103q84 84 167 84q177 0 177 -292q0 -151 -23.5 -240t-62.5 -122t-101 -33q-27 0 -51 12l10 36q25 -10 41 -10q32 0 56 16.5t44 54.5t30 109t10 173q0 137 -34 196.5t-105 59.5q-40 0 -75.5 -20t-80.5 -66v-332h-44v581h-77v29l77 4v105h44v-105h190v-33
h-190v-104z" />
    <glyph glyph-name="uni0453" unicode="&#x453;" horiz-adv-x="399" 
d="M92 0v480h281v-38h-237v-442h-44zM194 574l100 156h56l-116 -156h-40z" />
    <glyph glyph-name="uni0454" unicode="&#x454;" horiz-adv-x="449" 
d="M401 82l22 -31q-72 -63 -153 -63q-98 0 -158 64.5t-60 186.5t62 187.5t157 65.5q76 0 141 -59l-25 -30q-56 51 -116 51q-70 0 -117.5 -48.5t-55.5 -135.5h258v-36h-259q1 -100 47.5 -154t127.5 -54q69 0 129 56z" />
    <glyph glyph-name="uni0455" unicode="&#x455;" horiz-adv-x="405" 
d="M208 -12q-97 0 -176 66l26 33q74 -61 153 -61q54 0 84 27.5t30 67.5t-31.5 63t-85.5 43q-29 10 -45 16.5t-40 19t-36 25.5t-22 32.5t-10 43.5q0 55 41.5 91.5t113.5 36.5q77 0 137 -50l-24 -31q-57 43 -115 43q-52 0 -80 -25.5t-28 -61.5q0 -20 8.5 -35t27.5 -27
t34 -18.5t43 -16.5q83 -31 109 -51q48 -36 48 -96q0 -57 -43.5 -96t-118.5 -39z" />
    <glyph glyph-name="uni0456" unicode="&#x456;" horiz-adv-x="229" 
d="M92 0v480h44v-480h-44zM115 596q-17 0 -28.5 11t-11.5 28q0 18 11.5 29t28.5 11t28.5 -11t11.5 -29q0 -17 -11.5 -28t-28.5 -11z" />
    <glyph glyph-name="uni0457" unicode="&#x457;" horiz-adv-x="229" 
d="M92 0v480h44v-480h-44zM35 598q-16 0 -26 10.5t-10 26.5q0 15 10 25.5t26 10.5t26.5 -10.5t10.5 -25.5q0 -16 -10.5 -26.5t-26.5 -10.5zM193 598q-16 0 -26.5 10.5t-10.5 26.5q0 15 10.5 25.5t26.5 10.5t26 -10.5t10 -25.5q0 -16 -10 -26.5t-26 -10.5z" />
    <glyph glyph-name="uni0458" unicode="&#x458;" horiz-adv-x="229" 
d="M29 -229q-32 0 -62 12l11 36q30 -10 50 -10q38 0 51 26.5t13 78.5v566h45v-569q0 -140 -108 -140zM115 596q-16 0 -28 11t-12 28q0 18 12 29t28 11q17 0 29 -11t12 -29q0 -17 -12 -28t-29 -11z" />
    <glyph glyph-name="uni0459" unicode="&#x459;" horiz-adv-x="708" 
d="M402 38h69q75 0 111 26t36 82q0 55 -36 80t-111 25h-69v-213zM402 289h79q86 0 134 -36.5t48 -106.5q0 -72 -48 -109t-134 -37h-79h-44v442h-170q-10 -195 -24 -301q-11 -77 -42.5 -115t-71.5 -38q-20 0 -35 7l10 42q12 -4 20 -4q60 0 77 120q19 125 26 327h210h44v-191z
" />
    <glyph glyph-name="uni045A" unicode="&#x45a;" horiz-adv-x="741" 
d="M435 38h69q75 0 111 26t36 82q0 55 -36 80t-111 25h-69v-213zM435 289h79q86 0 134 -36.5t48 -106.5q0 -72 -48 -109t-134 -37h-79h-44v232h-255v-232h-44v480h44v-208h255v208h44v-191z" />
    <glyph glyph-name="uni045B" unicode="&#x45b;" horiz-adv-x="528" 
d="M136 477v-106q87 87 166 87q74 0 109.5 -45.5t35.5 -138.5v-274h-44v268q0 77 -26 113.5t-84 36.5q-41 0 -75.5 -21t-81.5 -69v-328h-44v581h-77v29l77 4v105h44v-105h190v-33h-190v-104z" />
    <glyph glyph-name="uni045C" unicode="&#x45c;" horiz-adv-x="470" 
d="M367 730l-116 -156h-40l100 156h56zM290 253l164 -253h-50l-147 231h-121v-231h-44v480h44v-210h120l50 118q25 61 50.5 82.5t59.5 21.5q13 0 23 -4l-10 -43q-6 2 -15 2q-21 0 -38 -15t-36 -61z" />
    <glyph glyph-name="uni045D" unicode="&#x45d;" horiz-adv-x="554" 
d="M294 574l-116 156h56l100 -156h-40zM92 0v480h44v-240q0 -21 -5 -181h4q9 15 34 52t34 52l216 317h43v-480h-44v240q0 24 5 181h-4q-10 -15 -34 -52t-34 -52l-216 -317h-43z" />
    <glyph glyph-name="uni045E" unicode="&#x45e;" horiz-adv-x="436" 
d="M73 -219q-27 0 -49 10l10 39q20 -8 39 -8q81 0 123 127l13 42l-197 489h48l116 -302q38 -101 52 -134h4q5 14 44 134l103 302h45l-190 -540q-53 -159 -161 -159zM229 572q-64 0 -95 38.5t-34 89.5h40q2 -42 22.5 -69.5t66.5 -27.5t66.5 27.5t22.5 69.5h40
q-3 -51 -34 -89.5t-95 -38.5z" />
    <glyph glyph-name="uni045F" unicode="&#x45f;" horiz-adv-x="546" 
d="M454 480v-480h-157l-5 -172h-37l-2 172h-161v480h44v-441h274v441h44z" />
    <glyph glyph-name="uni0462" unicode="&#x462;" horiz-adv-x="608" 
d="M225 38h96q99 0 146 35.5t47 114.5q0 71 -48.5 103.5t-152.5 32.5h-88v-286zM225 362h100q235 0 235 -171q0 -191 -227 -191h-154v521h-150v39h150v143h46v-143h246v-39h-246v-159z" />
    <glyph glyph-name="uni0463" unicode="&#x463;" horiz-adv-x="561" 
d="M191 0v447h-165v39h165v133h44v-133h200v-39h-200v-158h99q86 0 134.5 -36.5t48.5 -106.5q0 -72 -48.5 -109t-134.5 -37h-143zM235 38h90q75 0 110.5 26t35.5 82q0 55 -35.5 80t-110.5 25h-90v-213z" />
    <glyph glyph-name="uni0472" unicode="&#x472;" horiz-adv-x="652" 
d="M552 331h-451q1 -144 61.5 -223t163.5 -79t164 79t62 223zM102 369h449q-7 123 -67.5 192t-157.5 69t-157 -69t-67 -192zM326 671q122 0 197 -90t75 -249q0 -160 -75 -252t-197 -92t-196.5 92t-74.5 252q0 159 74.5 249t196.5 90z" />
    <glyph glyph-name="uni0473" unicode="&#x473;" horiz-adv-x="535" 
d="M440 234h-345q1 -96 49 -152t123 -56q76 0 124 56t49 152zM96 270h343q-8 85 -55 134.5t-117 49.5q-69 0 -116 -49.5t-55 -134.5zM267 492q93 0 154.5 -66.5t61.5 -186.5q0 -119 -61.5 -185t-154.5 -66q-92 0 -153.5 66t-61.5 185q0 120 61.5 186.5t153.5 66.5z" />
    <glyph glyph-name="uni0474" unicode="&#x474;" horiz-adv-x="502" 
d="M222 0l-218 659h49l122 -385q49 -159 70 -221h4q13 41 33 111.5t32 109.5l80 278q18 64 41 91.5t63 27.5q18 0 35 -8l-12 -45q-11 6 -23 6q-21 0 -34 -18t-26 -61l-162 -545h-54z" />
    <glyph glyph-name="uni0475" unicode="&#x475;" horiz-adv-x="444" 
d="M192 0l-180 480h48l108 -301q8 -25 25.5 -72t24.5 -66h4q6 18 20.5 65.5t22.5 72.5l64 194q21 65 42.5 92t59.5 27q18 0 35 -8l-12 -43q-12 6 -23 6q-20 0 -33 -18t-28 -62l-121 -367h-57z" />
    <glyph glyph-name="uni0490" unicode="&#x490;" horiz-adv-x="485" 
d="M427 831h38l-9 -212h-71h-242v-619h-46v659h288h29z" />
    <glyph glyph-name="uni0491" unicode="&#x491;" horiz-adv-x="406" 
d="M352 652h36l-8 -210h-72h-172v-442h-44v480h216h31z" />
    <glyph glyph-name="uni0492" unicode="&#x492;" horiz-adv-x="506" 
d="M477 619h-313v-265h163v-33h-163v-321h-46v321h-81v31l81 2v305h359v-40z" />
    <glyph glyph-name="uni0493" unicode="&#x493;" horiz-adv-x="405" 
d="M380 442h-237v-185h141v-33h-141v-224h-44v224h-66v29l66 4v223h281v-38z" />
    <glyph glyph-name="uni0496" unicode="&#x496;" horiz-adv-x="813" 
d="M736 40h44v-26l-7 -202h-39v188h-25h-3l-189 331h-111v-331h-44v331h-111l-189 -331h-53l207 354l-78 174q-28 60 -48.5 78t-45.5 18q-12 0 -21 -4l-8 46q12 5 26 5q40 0 69 -25t64 -100l81 -176h107v289h44v-289h107l80 176q35 75 64.5 100t69.5 25q14 0 26 -5l-9 -46
q-8 4 -21 4q-24 0 -44.5 -18t-48.5 -78l-78 -174z" />
    <glyph glyph-name="uni0497" unicode="&#x497;" horiz-adv-x="669" 
d="M594 39h50v-26l-5 -185h-38v172h-24h-9l-132 231h-99v-231h-40v231h-99l-132 -231h-49l150 257l-45 114q-18 45 -35.5 60.5t-38.5 15.5q-9 0 -15 -2l-10 43q10 4 23 4q34 0 60.5 -23t49.5 -81l47 -118h94v210h40v-210h93l48 118q23 58 49.5 81t60.5 23q12 0 22 -4l-9 -43
q-6 2 -15 2q-22 0 -39 -15.5t-35 -60.5l-45 -115z" />
    <glyph glyph-name="uni0498" unicode="&#x498;" horiz-adv-x="548" 
d="M362 355v-4q63 -11 102.5 -54.5t39.5 -113.5q0 -83 -57.5 -135.5t-145.5 -58.5l-6 -177h-39v177q-66 3 -115.5 26.5t-94.5 71.5l29 31q47 -49 93 -68.5t111 -19.5q76 0 127.5 41t51.5 112q0 74 -55 111t-156 37h-67v38h47q101 0 148.5 34t47.5 102q0 58 -42 91t-108 33
q-101 0 -166 -67l-26 31q32 34 83 56t109 22q84 0 139.5 -44.5t55.5 -119.5q0 -55 -28 -95.5t-78 -56.5z" />
    <glyph glyph-name="uni0499" unicode="&#x499;" horiz-adv-x="444" 
d="M298 257v-4q46 -12 75 -42.5t29 -80.5q0 -58 -46 -97t-116 -44l-5 -161h-36l-2 161q-89 5 -155 62l23 31q63 -56 153 -56q58 0 98 29.5t40 76.5q0 50 -39.5 76t-112.5 26h-60v36h47q70 0 107 25t37 69t-32 67t-84 23q-75 0 -141 -48l-23 31q75 55 165 55
q69 0 114.5 -32.5t45.5 -91.5q0 -76 -82 -111z" />
    <glyph glyph-name="uni049A" unicode="&#x49a;" horiz-adv-x="605" 
d="M524 40h47v-26l-6 -202h-39v188h-25h-3l-219 331h-136v-331h-46v659h46v-289h138l96 176q42 77 68 101t65 24q14 0 26 -5l-8 -46q-9 4 -21 4q-23 0 -41.5 -17.5t-52.5 -78.5l-95 -176z" />
    <glyph glyph-name="uni049B" unicode="&#x49b;" horiz-adv-x="505" 
d="M429 39h52v-26l-5 -185h-38v172h-25h-9l-147 231h-121v-231h-44v480h44v-210h120l50 118q25 61 50.5 82.5t59.5 21.5q13 0 23 -4l-10 -43q-6 2 -15 2q-21 0 -38 -15t-36 -61l-50 -118z" />
    <glyph glyph-name="uni04A0" unicode="&#x4a0;" horiz-adv-x="697" 
d="M460 352l232 -352h-52l-219 331h-136v-331h-46v619h-210v40h210h46v-289h138l96 176q42 77 68 101t65 24q14 0 26 -5l-8 -46q-9 4 -21 4q-23 0 -41.5 -17.5t-52.5 -78.5z" />
    <glyph glyph-name="uni04A1" unicode="&#x4a1;" horiz-adv-x="589" 
d="M409 253l164 -253h-50l-147 231h-121v-231h-44v442h-185v38h185h44v-210h120l50 118q25 61 50.5 82.5t59.5 21.5q13 0 23 -4l-10 -43q-6 2 -15 2q-21 0 -38 -15t-36 -61z" />
    <glyph glyph-name="uni04A2" unicode="&#x4a2;" horiz-adv-x="644" 
d="M542 40h69v-26l-7 -202h-39v188h-23h-20h-26v330h-353v-330h-46v659h46v-289h353v289h46v-619z" />
    <glyph glyph-name="uni04A3" unicode="&#x4a3;" horiz-adv-x="548" 
d="M458 39h66v-26l-5 -185h-38v172h-23h-20h-24v232h-278v-232h-44v480h44v-208h278v208h44v-441z" />
    <glyph glyph-name="uni04AA" unicode="&#x4aa;" horiz-adv-x="564" 
d="M500 111l27 -29q-74 -85 -173 -93l-5 -177h-39v177q-115 8 -185 100.5t-70 241.5q0 156 77.5 248t203.5 92q105 0 172 -79l-27 -31q-60 68 -144 68q-109 0 -171.5 -80t-62.5 -218t62 -219.5t168 -81.5q94 0 167 81z" />
    <glyph glyph-name="uni04AB" unicode="&#x4ab;" horiz-adv-x="449" 
d="M400 82l23 -31q-64 -55 -135 -62l-5 -161h-36l-2 161q-86 9 -139.5 75.5t-53.5 174.5q0 116 63.5 184.5t155.5 68.5q76 0 141 -59l-26 -31q-55 51 -114 51q-74 0 -124 -60t-50 -154q0 -95 48 -153.5t126 -58.5q68 0 128 55z" />
    <glyph glyph-name="uni04AE" unicode="&#x4ae;" horiz-adv-x="447" 
d="M200 0v267l-197 392h49l100 -206q53 -111 70 -142h4q55 106 71 142l100 206h47l-198 -392v-267h-46z" />
    <glyph glyph-name="uni04AF" unicode="&#x4af;" horiz-adv-x="434" 
d="M197 -217v217l-185 480h48l108 -292q9 -27 27.5 -79.5t20.5 -57.5h4q35 94 49 137l108 292h45l-181 -480v-217h-44z" />
    <glyph glyph-name="uni04B0" unicode="&#x4b0;" horiz-adv-x="447" 
d="M444 659l-185 -366h126v-33h-139v-260h-46v260h-138v31l85 2h40l-184 366h49l100 -206q53 -111 70 -142h4q55 106 71 142l100 206h47z" />
    <glyph glyph-name="uni04B1" unicode="&#x4b1;" horiz-adv-x="434" 
d="M422 480l-169 -447h135v-33h-147v-217h-44v217h-151v29l78 4h60l-172 447h48l108 -292q9 -27 27.5 -79.5t20.5 -57.5h4q35 94 49 137l108 292h45z" />
    <glyph glyph-name="uni04B2" unicode="&#x4b2;" horiz-adv-x="520" 
d="M442 40h45v-26l-7 -202h-39v188h-25h-1l-115 202q-20 37 -61 105h-4q-33 -62 -56 -105l-115 -202h-47l198 341l-184 318h50l108 -194l54 -90h4q37 69 49 90l108 194h47l-184 -320z" />
    <glyph glyph-name="uni04B3" unicode="&#x4b3;" horiz-adv-x="443" 
d="M367 39h51v-26l-5 -185h-38v172h-24h-7l-85 131q-31 51 -57 88h-4q-11 -16 -30.5 -48t-24.5 -40l-82 -131h-47l163 251l-150 229h49l78 -122q30 -48 51 -79h4q9 13 24.5 39.5t24.5 39.5l75 122h46l-149 -233z" />
    <glyph glyph-name="uni04B6" unicode="&#x4b6;" horiz-adv-x="581" 
d="M477 40h69v-26l-6 -202h-39v188h-24h-20h-26v311q-75 -11 -132 -11q-114 0 -173.5 46.5t-59.5 152.5v160h45v-160q0 -87 48 -122.5t144 -35.5q71 0 128 11v307h46v-619z" />
    <glyph glyph-name="uni04B7" unicode="&#x4b7;" horiz-adv-x="488" 
d="M398 39h66v-26l-5 -185h-38v172h-23h-20h-24v209q-58 -12 -100 -12q-95 0 -141.5 37t-46.5 119v127h44v-127q0 -62 36 -89.5t115 -27.5q46 0 93 11v233h44v-441z" />
    <glyph glyph-name="uni04BA" unicode="&#x4ba;" horiz-adv-x="579" 
d="M97 0v659h46v-271q62 11 132 11q114 0 173.5 -46t59.5 -153v-200h-45v200q0 87 -48 123t-144 36q-66 0 -128 -12v-347h-46z" />
    <glyph glyph-name="uni04BB" unicode="&#x4bb;" horiz-adv-x="528" 
d="M92 0v719h44v-208v-106q87 87 166 87q74 0 109.5 -45.5t35.5 -138.5v-308h-44v302q0 77 -26 113.5t-84 36.5q-41 0 -75.5 -21t-81.5 -69v-362h-44z" />
    <glyph glyph-name="uni04C0" unicode="&#x4c0;" horiz-adv-x="240" 
d="M97 0v659h46v-659h-46z" />
    <glyph glyph-name="uni04C1" unicode="&#x4c1;" horiz-adv-x="768" 
d="M477 820h42q-4 -46 -35 -78t-101 -32t-101 32t-35 78h42q4 -80 94 -80t94 80zM552 354l207 -354h-53l-189 331h-111v-331h-44v331h-111l-189 -331h-53l207 354l-78 174q-28 60 -48.5 78t-45.5 18q-12 0 -21 -4l-8 46q12 5 26 5q40 0 69 -25t64 -100l81 -176h107v289h44
v-289h107l80 176q35 75 64.5 100t69.5 25q14 0 26 -5l-9 -46q-8 4 -21 4q-24 0 -44.5 -18t-48.5 -78z" />
    <glyph glyph-name="uni04C2" unicode="&#x4c2;" horiz-adv-x="634" 
d="M407 700h40q-3 -51 -34 -89.5t-95 -38.5t-95 38.5t-34 89.5h40q2 -42 22.5 -69.5t66.5 -27.5t66.5 27.5t22.5 69.5zM467 256l150 -256h-49l-132 231h-99v-231h-40v231h-99l-132 -231h-49l150 257l-45 114q-18 45 -35.5 60.5t-38.5 15.5q-9 0 -15 -2l-10 43q10 4 23 4
q34 0 60.5 -23t49.5 -81l47 -118h94v210h40v-210h93l48 118q23 58 49.5 81t60.5 23q12 0 22 -4l-9 -43q-6 2 -15 2q-22 0 -39 -15.5t-35 -60.5z" />
    <glyph glyph-name="uni04CF" unicode="&#x4cf;" horiz-adv-x="237" 
d="M151 -12q-59 0 -59 76v655h44v-661q0 -31 21 -31q8 0 18 2l8 -36q-15 -5 -32 -5z" />
    <glyph glyph-name="uni04D0" unicode="&#x4d0;" horiz-adv-x="526" 
d="M357 820h42q-4 -46 -35 -78t-101 -32t-101 32t-35 78h42q4 -80 94 -80t94 80zM146 265h234l-42 123q-46 133 -73 228h-4q-27 -95 -73 -228zM470 0l-77 226h-261l-78 -226h-46l232 659h46l232 -659h-48z" />
    <glyph glyph-name="uni04D1" unicode="&#x4d1;" horiz-adv-x="491" 
d="M255 572q-64 0 -95 38.5t-34 89.5h40q2 -42 22.5 -69.5t66.5 -27.5t66.5 27.5t22.5 69.5h40q-3 -51 -34 -89.5t-95 -38.5zM197 -12q-61 0 -100 33.5t-39 98.5q0 79 73.5 121t236.5 60q2 152 -114 152q-76 0 -153 -56l-20 33q88 62 179 62q80 0 116 -50.5t36 -134.5v-307
h-38l-4 62h-3q-93 -74 -170 -74zM205 26q71 0 163 78v163q-144 -17 -204.5 -51.5t-60.5 -93.5q0 -49 28.5 -72.5t73.5 -23.5z" />
    <glyph glyph-name="uni04D4" unicode="&#x4d4;" horiz-adv-x="809" 
d="M210 255h201v364h-4q-29 -53 -124 -231zM457 40h305v-40h-351v217h-222l-119 -217h-49l365 659h366v-40h-295v-249h245v-40h-245v-290z" />
    <glyph glyph-name="uni04D5" unicode="&#x4d5;" horiz-adv-x="784" 
d="M205 -12q-61 0 -100.5 33.5t-39.5 97.5q0 79 73.5 121.5t231.5 60.5q2 152 -113 152q-73 0 -148 -56l-20 33q88 62 172 62q57 0 92.5 -31.5t47.5 -88.5q27 56 71 88t96 32q84 0 131 -58t47 -164q0 -24 -2 -36h-332q0 -90 49 -148.5t122 -58.5q65 0 125 43l19 -35
q-25 -15 -40.5 -23t-45 -16t-62.5 -8q-101 0 -172 99q-47 -45 -102 -72t-100 -27zM212 26q40 0 89.5 25t89.5 68q-21 43 -21 121l-1 27q-138 -17 -198 -51.5t-60 -93.5q0 -49 28 -72.5t73 -23.5zM412 268h293q0 91 -36.5 138.5t-101.5 47.5q-60 0 -104 -52t-51 -134z" />
    <glyph glyph-name="uni04D6" unicode="&#x4d6;" horiz-adv-x="515" 
d="M97 0v659h361v-40h-315v-249h264v-40h-264v-290h325v-40h-371zM282 710q-70 0 -101 32t-35 78h42q4 -80 94 -80t94 80h42q-4 -46 -35 -78t-101 -32z" />
    <glyph glyph-name="uni04D7" unicode="&#x4d7;" horiz-adv-x="483" 
d="M274 -12q-95 0 -158.5 68t-63.5 183q0 113 62.5 183t146.5 70q86 0 135 -58.5t49 -163.5q0 -24 -2 -36h-346q2 -92 51.5 -150t129.5 -58q69 0 129 43l18 -34q-78 -47 -151 -47zM97 270h306q0 90 -37.5 137t-103.5 47q-64 0 -111 -50t-54 -134zM261 572q-64 0 -95 38.5
t-34 89.5h40q2 -42 22.5 -69.5t66.5 -27.5t66.5 27.5t22.5 69.5h40q-3 -51 -34 -89.5t-95 -38.5z" />
    <glyph glyph-name="uni04D8" unicode="&#x4d8;" horiz-adv-x="648" 
d="M546 299h-437q3 -124 61.5 -198t151.5 -74q100 0 158.5 71.5t65.5 200.5zM155 565l-24 31q77 75 195 75q128 0 197.5 -88.5t69.5 -251.5q0 -161 -73 -252t-198 -91q-122 0 -191 93t-69 245q0 1 0.5 5t0.5 6h484q-2 141 -58.5 218t-162.5 77q-101 0 -171 -67z" />
    <glyph glyph-name="uni04D9" unicode="&#x4d9;" horiz-adv-x="483" 
d="M231 -12q-86 0 -139.5 60.5t-53.5 170.5q0 26 2 38h346q-2 87 -45.5 142t-118.5 55q-70 0 -136 -46l-18 34q74 50 159 50q91 0 147.5 -67t56.5 -184q0 -116 -56 -184.5t-144 -68.5zM230 26q67 0 108 52t48 143h-307q0 -97 41 -146t110 -49z" />
    <glyph glyph-name="uni04E2" unicode="&#x4e2;" horiz-adv-x="644" 
d="M97 0v659h46v-404q0 -64 -6 -192h4l75 130l282 466h49v-659h-46v409q0 28 1 59.5t2.5 69t2.5 58.5h-4l-74 -129l-283 -467h-49zM212 744v36h228v-36h-228z" />
    <glyph glyph-name="uni04E3" unicode="&#x4e3;" horiz-adv-x="536" 
d="M83 0v480h44v-240q0 -21 -5 -181h4q9 15 33.5 52t34.5 52l216 317h43v-480h-44v240q0 24 5 181h-4q-9 -15 -34 -52t-34 -52l-216 -317h-43zM155 608v36h228v-36h-228z" />
    <glyph glyph-name="uni04E6" unicode="&#x4e6;" horiz-adv-x="652" 
d="M247 725q-16 0 -26 10t-10 26q0 17 10 27t26 10t26.5 -10t10.5 -27q0 -16 -10.5 -26t-26.5 -10zM405 725q-16 0 -26.5 10t-10.5 26q0 17 10.5 27t26.5 10t26 -10t10 -27q0 -16 -10 -26t-26 -10zM326 -12q-120 0 -195.5 94.5t-75.5 249.5q0 154 75.5 246.5t195.5 92.5
q121 0 196.5 -92.5t75.5 -246.5q0 -155 -76 -249.5t-196 -94.5zM326 30q101 0 162 82.5t61 219.5q0 136 -61 216.5t-162 80.5t-162 -80.5t-61 -216.5q0 -137 61 -219.5t162 -82.5z" />
    <glyph glyph-name="uni04E7" unicode="&#x4e7;" horiz-adv-x="535" 
d="M188 598q-16 0 -26 10.5t-10 26.5q0 15 10 25.5t26 10.5t26.5 -10.5t10.5 -25.5q0 -16 -10.5 -26.5t-26.5 -10.5zM346 598q-16 0 -26.5 10.5t-10.5 26.5q0 15 10.5 25.5t26.5 10.5t26 -10.5t10 -25.5q0 -16 -10 -26.5t-26 -10.5zM267 -12q-90 0 -152.5 68t-62.5 183
q0 116 62.5 184.5t152.5 68.5q91 0 153.5 -68.5t62.5 -184.5q0 -115 -62.5 -183t-153.5 -68zM267 27q73 0 121.5 59t48.5 153t-48.5 154t-121.5 60t-121 -59.5t-48 -154.5q0 -94 48 -153t121 -59z" />
    <glyph glyph-name="uni04E8" unicode="&#x4e8;" horiz-adv-x="652" 
d="M552 331h-451q1 -144 61.5 -223t163.5 -79t164 79t62 223zM102 369h449q-7 123 -67.5 192t-157.5 69t-157 -69t-67 -192zM326 671q122 0 197 -90t75 -249q0 -160 -75 -252t-197 -92t-196.5 92t-74.5 252q0 159 74.5 249t196.5 90z" />
    <glyph glyph-name="uni04E9" unicode="&#x4e9;" horiz-adv-x="535" 
d="M440 234h-345q1 -96 49 -152t123 -56q76 0 124 56t49 152zM96 270h343q-8 85 -55 134.5t-117 49.5q-69 0 -116 -49.5t-55 -134.5zM267 492q93 0 154.5 -66.5t61.5 -186.5q0 -119 -61.5 -185t-154.5 -66q-92 0 -153.5 66t-61.5 185q0 120 61.5 186.5t153.5 66.5z" />
    <glyph glyph-name="uni04EE" unicode="&#x4ee;" horiz-adv-x="478" 
d="M123 -12q-32 0 -54 9l12 43q15 -6 37 -6q38 0 60 15.5t38 51.5l17 43l-226 515h49l150 -352l47 -113h4l43 113l138 352h48l-223 -557q-22 -56 -55 -85t-85 -29zM119 743v36h228v-36h-228z" />
    <glyph glyph-name="uni04EF" unicode="&#x4ef;" horiz-adv-x="436" 
d="M73 -219q-27 0 -49 10l10 39q20 -8 39 -8q81 0 123 127l13 42l-197 489h48l116 -302q38 -101 52 -134h4q5 14 44 134l103 302h45l-190 -540q-53 -159 -161 -159zM115 606v36h228v-36h-228z" />
    <glyph glyph-name="uni04F2" unicode="&#x4f2;" horiz-adv-x="478" 
d="M139 709l78 111h51l-92 -111h-37zM285 709l78 111h51l-92 -111h-37zM123 -12q-32 0 -54 9l12 43q15 -6 37 -6q38 0 60 15.5t38 51.5l17 43l-226 515h49l150 -352l47 -113h4l43 113l138 352h48l-223 -557q-22 -56 -55 -85t-85 -29z" />
    <glyph glyph-name="uni04F3" unicode="&#x4f3;" horiz-adv-x="436" 
d="M73 -219q-27 0 -49 10l10 39q20 -8 39 -8q81 0 123 127l13 42l-197 489h48l116 -302q38 -101 52 -134h4q5 14 44 134l103 302h45l-190 -540q-53 -159 -161 -159zM145 570l82 158h46l-93 -158h-35zM279 570l82 158h47l-94 -158h-35z" />
    <glyph glyph-name="a.sups" unicode="&#x1d43;" horiz-adv-x="337" 
d="M139 261q-43 0 -70 24.5t-27 66.5q0 52 49 80t157 38q-2 92 -70 92q-54 0 -107 -37l-15 27q62 43 126 43q103 0 103 -126v-200h-30l-6 39h-4q-55 -47 -106 -47zM148 293q47 0 100 49v102q-90 -9 -128.5 -31.5t-38.5 -57.5q0 -62 67 -62z" />
    <glyph glyph-name="b.sups" unicode="&#x1d47;" horiz-adv-x="367" 
d="M190 261q-48 0 -95 39h-4l-4 -31h-29v473h37v-135l-2 -63q60 51 107 51q64 0 97 -43t33 -118q0 -79 -40.5 -126t-99.5 -47zM189 294q44 0 73 38.5t29 101.5q0 59 -24 93.5t-72 34.5q-46 0 -100 -51v-178q45 -39 94 -39z" />
    </font>
</defs>
</svg>
