<?xml version="1.0" standalone="no"?>
<!DOCTYPE svg PUBLIC "-//W3C//DTD SVG 1.1//EN" "http://www.w3.org/Graphics/SVG/1.1/DTD/svg11.dtd" >
<svg xmlns="http://www.w3.org/2000/svg" xmlns:xlink="http://www.w3.org/1999/xlink" version="1.1">
<metadata>
Created by FontForge 20150824 at Mon Apr 11 14:22:21 2016
 By Everything Fonts
Copyright (c) 2008-2012 by Jos Buivenga/exljbris. All rights reserved.
</metadata>
<defs>
<font id="MuseoCyrl-700Italic" horiz-adv-x="586" >
  <font-face 
    font-family="Museo Cyrl 700"
    font-weight="600"
    font-style="italic"
    font-stretch="normal"
    units-per-em="1000"
    panose-1="2 0 0 0 0 0 0 0 0 0"
    ascent="750"
    descent="-250"
    x-height="510"
    cap-height="710"
    bbox="-199 -215 1120 903"
    underline-thickness="50"
    underline-position="-150"
    slope="-11"
    unicode-range="U+0020-FB04"
  />
<missing-glyph horiz-adv-x="510" 
d="M5 0v700h500v-700h-500zM255 395l170 255h-340zM285 350l170 -255v510zM55 95l170 255l-170 255v-510zM85 50h340l-170 255z" />
    <glyph glyph-name="f_f" unicode="ff" horiz-adv-x="670" 
d="M26 0l79 409h-63l20 101h63l2 15q11 60 38.5 100.5t64.5 58t66.5 24t61.5 6.5l57 -3l-21 -104q-6 2 -29 2q-38 0 -70.5 -19.5t-41.5 -67.5l-2 -12h209l2 15q11 60 38.5 100.5t64.5 58t66.5 24t61.5 6.5l57 -3l-21 -104q-6 2 -29 2q-38 0 -70.5 -19.5t-40.5 -67.5l-2 -12
h109l-20 -101h-109l-79 -409h-127l79 409h-209l-79 -409h-126z" />
    <glyph glyph-name="fi" unicode="fi" horiz-adv-x="630" 
d="M26 0l79 409h-63l20 101h63l2 15q11 60 38.5 100.5t64.5 58t66.5 24t61.5 6.5l57 -3l-21 -104q-6 2 -29 2q-38 0 -70.5 -19.5t-41.5 -67.5l-2 -12h268q60 0 60 -48q0 -9 -4 -31l-57 -293q-2 -10 -2 -15q0 -16 18 -16h39l-20 -107h-117q-60 0 -60 49q0 8 3 23l58 299
q3 15 3 22q0 16 -18 16h-191l-79 -409h-126zM486 593l23 117h110l-23 -117h-110z" />
    <glyph glyph-name="fl" unicode="fl" horiz-adv-x="625" 
d="M26 0l79 409h-63l20 101h63l2 15q11 58 38.5 98t64.5 57.5t66.5 23.5t61.5 6h193q61 0 61 -48q0 -8 -4 -30l-96 -494l-3 -15q0 -16 18 -16h40l-20 -107h-118q-59 0 -59 49q0 6 2 22l97 496q3 15 3 22q0 16 -18 16h-89q-38 0 -70.5 -19t-41.5 -64l-2 -12h110l-20 -101
h-110l-79 -409h-126z" />
    <glyph glyph-name="f_f_i" unicode="ffi" horiz-adv-x="965" 
d="M26 0l79 409h-63l20 101h63l2 15q11 60 38.5 100.5t64.5 58t66.5 24t61.5 6.5l57 -3l-21 -104q-6 2 -29 2q-38 0 -70.5 -19.5t-41.5 -67.5l-2 -12h209l2 15q11 60 38.5 100.5t64.5 58t66.5 24t61.5 6.5l57 -3l-21 -104q-6 2 -29 2q-38 0 -70.5 -19.5t-40.5 -67.5l-2 -12
h267q60 0 60 -48q0 -9 -4 -31l-57 -293q-2 -10 -2 -15q0 -16 17 -16h40l-20 -107h-117q-60 0 -60 49q0 3 2 23l58 299q3 15 3 22q0 16 -18 16h-189l-79 -409h-127l79 409h-209l-79 -409h-126zM821 593l23 117h110l-23 -117h-110z" />
    <glyph glyph-name="f_f_l" unicode="ffl" horiz-adv-x="959" 
d="M26 0l79 409h-63l20 101h63l2 15q11 60 38.5 100.5t64.5 58t66.5 24t61.5 6.5l57 -3l-21 -104q-6 2 -29 2q-38 0 -70.5 -19.5t-41.5 -67.5l-2 -12h208l3 15q11 58 38.5 98t64.5 57.5t66.5 23.5t60.5 6h194q60 0 60 -48q0 -8 -4 -30l-96 -494q-2 -10 -2 -15q0 -16 18 -16
h40l-21 -107h-117q-60 0 -60 49q0 6 2 22l97 496q3 15 3 22q0 16 -18 16h-89q-37 0 -69.5 -19t-41.5 -64l-2 -12h110l-20 -101h-110l-79 -409h-127l79 409h-208l-79 -409h-126z" />
    <glyph glyph-name="f_j" unicode="fj" horiz-adv-x="623" 
d="M26 0l79 409h-63l20 101h63l2 15q11 60 38.5 100.5t64.5 58t66.5 24t61.5 6.5l57 -3l-21 -104q-6 2 -29 2q-38 0 -70.5 -19.5t-41.5 -67.5l-2 -12h285q61 0 61 -47q0 -5 -4 -31l-87 -448q-12 -61 -41.5 -102.5t-68.5 -59t-69 -23.5t-61 -6l-47 3l21 107q8 -2 21 -2
q102 0 122 102l71 368q3 15 3 22q0 16 -18 16h-208l-79 -409h-126zM503 593l22 117h110l-22 -117h-110z" />
    <glyph glyph-name=".notdef" horiz-adv-x="510" 
d="M5 0v700h500v-700h-500zM255 395l170 255h-340zM285 350l170 -255v510zM55 95l170 255l-170 255v-510zM85 50h340l-170 255z" />
    <glyph glyph-name=".null" horiz-adv-x="0" 
 />
    <glyph glyph-name="nonmarkingreturn" horiz-adv-x="333" 
 />
    <glyph glyph-name="space" unicode=" " horiz-adv-x="265" 
 />
    <glyph glyph-name="exclam" unicode="!" horiz-adv-x="286" 
d="M70 205l88 505h131l-109 -505h-110zM24 0l23 118h123l-23 -118h-123z" />
    <glyph glyph-name="quotedbl" unicode="&#x22;" horiz-adv-x="375" 
d="M261 514l41 209h94l-41 -209h-94zM101 514l40 209h95l-41 -209h-94z" />
    <glyph glyph-name="numbersign" unicode="#" horiz-adv-x="713" 
d="M67 0l69 187h-118l32 91h119l53 140h-118l33 92h118l74 200h102l-74 -200h136l74 200h102l-74 -200h121l-34 -92h-120l-52 -140h119l-33 -91h-119l-69 -187h-102l69 187h-137l-69 -187h-102zM271 278h137l52 140h-137z" />
    <glyph glyph-name="dollar" unicode="$" 
d="M13 96l81 89q2 -3 6.5 -8.5t20.5 -19t33.5 -24t45.5 -19t58 -8.5q56 0 90 26.5t34 67.5q0 33 -28.5 57.5t-69.5 43t-82.5 41.5t-70 64.5t-28.5 98.5q0 91 66.5 150t166.5 66l18 90h89l-19 -96q61 -12 101.5 -40.5t40.5 -71.5q0 -20 -4 -35l-10 -52h-116l4 20q3 9 3 20
q0 23 -24.5 35t-61.5 12q-57 0 -89.5 -25.5t-32.5 -63.5q0 -31 29 -54t70 -40.5t82 -39.5t70 -64t29 -101q0 -91 -63.5 -154.5t-168.5 -71.5l-17 -90h-89l18 95q-34 6 -65.5 18.5t-52 26.5t-35.5 27t-22 22z" />
    <glyph glyph-name="percent" unicode="%" horiz-adv-x="810" 
d="M238 406q-66 0 -106.5 39t-40.5 102q0 67 57 121t128 54q65 0 106 -40.5t41 -101.5q0 -68 -57 -121t-128 -53zM20 0l670 710h123l-671 -710h-122zM247 498q31 0 54.5 23t23.5 55q0 24 -15.5 39t-41.5 15q-30 0 -54.5 -24t-24.5 -55q0 -23 16 -38t42 -15zM409 128
q0 67 57 121t128 54q65 0 106 -40.5t41 -101.5q0 -68 -57 -120.5t-128 -52.5q-66 0 -106.5 39t-40.5 101zM507 133q0 -23 16 -38t42 -15q31 0 54.5 23t23.5 55q0 23 -16 38.5t-42 15.5q-29 0 -53.5 -24t-24.5 -55z" />
    <glyph glyph-name="ampersand" unicode="&#x26;" horiz-adv-x="660" 
d="M19 182q0 65 46 122t116 76v2q-3 1 -7.5 3.5t-16 12t-20.5 21.5t-16 34t-7 48q0 104 76 162.5t178 58.5q24 0 49 -4t37 -8l13 -4l-48 -98q-23 5 -48 5q-51 0 -89.5 -31t-38.5 -85q0 -76 91 -76h114l18 96h127l-19 -96h92l-21 -104h-92l-16 -88q-22 -120 -95.5 -180.5
t-187.5 -60.5q-110 0 -172.5 53.5t-62.5 140.5zM154 193q0 -41 28 -66t76 -25q61 0 101 34.5t53 99.5l15 81h-120q-61 0 -107 -32t-46 -92z" />
    <glyph glyph-name="quotesingle" unicode="'" horiz-adv-x="217" 
d="M101 514l40 209h97l-41 -209h-96z" />
    <glyph glyph-name="parenleft" unicode="(" horiz-adv-x="293" 
d="M86 -95q-54 129 -54 271q0 324 209 565h111q-209 -260 -209 -568q0 -140 46 -268h-103z" />
    <glyph glyph-name="parenright" unicode=")" horiz-adv-x="293" 
d="M-49 -95q209 262 209 568q0 140 -46 268h103q55 -130 55 -271q0 -323 -210 -565h-111z" />
    <glyph glyph-name="asterisk" unicode="*" horiz-adv-x="491" 
d="M179 321l-83 68l104 102v2l-116 29l55 106l111 -49l16 131h115l-35 -131l132 49l15 -109l-137 -34l-1 -2l64 -97l-98 -66l-50 111h-2z" />
    <glyph glyph-name="plus" unicode="+" 
d="M184 0l46 236h-217l19 99h216l47 237h103l-46 -237h215l-18 -99h-216l-46 -236h-103z" />
    <glyph glyph-name="comma" unicode="," horiz-adv-x="267" 
d="M-55 -105l112 234h121l-141 -234h-92z" />
    <glyph glyph-name="hyphen" unicode="-" horiz-adv-x="415" 
d="M44 230l21 111h301l-22 -111h-300z" />
    <glyph glyph-name="period" unicode="." horiz-adv-x="239" 
d="M3 0l24 127h122l-24 -127h-122z" />
    <glyph glyph-name="slash" unicode="/" horiz-adv-x="450" 
d="M-25 -42l406 788h117l-408 -788h-115z" />
    <glyph glyph-name="zero" unicode="0" horiz-adv-x="612" 
d="M45 228q0 58 10 121t34.5 131t60 120.5t92.5 87t127 34.5q220 0 220 -239q0 -58 -10 -121t-34.5 -131t-60 -121t-93 -87.5t-127.5 -34.5q-219 0 -219 240zM178 232q0 -129 89 -129q47 0 85 39.5t59.5 99.5t32.5 121t11 113q0 131 -90 131q-46 0 -83.5 -39t-59 -98
t-33 -121t-11.5 -117z" />
    <glyph glyph-name="one" unicode="1" horiz-adv-x="491" 
d="M-10 0l20 111h153l77 394l11 48h-2q-12 -17 -40 -40l-67 -54l-60 80l211 171h118l-117 -599h153l-22 -111h-435z" />
    <glyph glyph-name="two" unicode="2" horiz-adv-x="584" 
d="M54 0q-35 0 -48 16.5t-13 51.5q0 55 24 100.5t62 77.5t84.5 59.5t93 51.5t84.5 48t62 55t24 66q0 37 -23.5 56.5t-65.5 19.5q-41 0 -68.5 -16t-33.5 -44l-5 -27h-119l12 61q13 70 80.5 108t151.5 38q92 0 149.5 -47.5t57.5 -133.5q0 -59 -31 -109.5t-77 -84t-100.5 -65
t-100.5 -54t-77 -49t-31 -52.5q0 -10 5 -13t20 -3h201q21 0 26 22l9 43h118l-21 -108q-7 -36 -26.5 -52t-54.5 -16h-369z" />
    <glyph glyph-name="three" unicode="3" horiz-adv-x="566" 
d="M-5 81l72 89q2 -3 7 -7.5t20.5 -16t32 -20.5t42 -16t51.5 -7q64 0 109 39t45 94q0 43 -33 67.5t-86 24.5l-41 -3l-17 63l173 176q8 9 18.5 18t16.5 14l6 4v2q-24 -3 -40 -3h-122q-21 0 -26 -22l-9 -43h-115l21 108q7 36 25 52t53 16h386l-18 -91l-205 -207
q60 -13 104.5 -53t44.5 -112q0 -102 -82 -180.5t-209 -78.5q-41 0 -79 9.5t-63 23t-44.5 27.5t-28.5 24z" />
    <glyph glyph-name="four" unicode="4" horiz-adv-x="600" 
d="M-3 179l15 83l380 448h155l-81 -420h108l-21 -111h-109l-35 -179h-127l34 179h-319zM161 290h178l40 206l19 73h-2q-28 -41 -45 -61l-190 -216v-2z" />
    <glyph glyph-name="five" unicode="5" horiz-adv-x="560" 
d="M-4 81l73 85q6 -7 18 -17.5t50.5 -28t78.5 -17.5q66 0 115 41t49 102q0 49 -33.5 75.5t-89.5 26.5q-29 0 -58.5 -7.5t-44.5 -14.5l-15 -8l-70 29l85 298q10 35 27.5 50t52.5 15h255q71 0 57 -71l-20 -105h-115l8 43q5 22 -18 22h-119q-21 0 -26 -22l-29 -101l-13 -39h2
q35 15 83 15q93 0 154 -55.5t61 -145.5q0 -111 -88.5 -187t-211.5 -76q-41 0 -79 9.5t-62 23t-42.5 27.5t-26.5 24z" />
    <glyph glyph-name="six" unicode="6" horiz-adv-x="591" 
d="M39 250q0 59 17 123t52 126t82.5 112t114 80.5t141.5 30.5q41 0 78 -8t54 -16l16 -8l-50 -104q-43 21 -101 21q-81 0 -142 -56t-91 -138h2q22 23 60 36.5t78 13.5q92 0 145 -56t53 -142q0 -108 -75.5 -192.5t-195.5 -84.5q-105 0 -171.5 70t-66.5 192zM170 242
q0 -56 32.5 -97.5t82.5 -41.5q56 0 93.5 46t37.5 108q0 45 -27.5 73t-82.5 28q-56 0 -96 -33t-40 -83z" />
    <glyph glyph-name="seven" unicode="7" horiz-adv-x="542" 
d="M24 0l378 547q12 17 23 30t15 17l5 5v2q-12 -2 -41 -2h-176q-22 0 -27 -22l-8 -43h-118l21 108q7 36 25 52t53 16h439l-17 -90l-432 -620h-140z" />
    <glyph glyph-name="eight" unicode="8" horiz-adv-x="592" 
d="M19 177q0 115 153 214q-61 49 -61 119q0 83 69.5 147.5t183.5 64.5q96 0 155 -46t59 -123q0 -98 -122 -206q75 -51 75 -131q0 -91 -80 -159.5t-201 -68.5q-105 0 -168 53t-63 136zM371 394q12 10 27 26.5t33 50.5t18 65q0 35 -24 54.5t-66 19.5q-52 0 -86.5 -28
t-34.5 -70q0 -11 3.5 -21t7.5 -18t14.5 -16.5t16.5 -13.5t21 -13.5t21.5 -12t25 -12t23.5 -11.5zM152 194q0 -43 29.5 -68.5t77.5 -25.5q54 0 96.5 30.5t42.5 81.5q0 19 -8 34.5t-26 28.5t-31.5 21t-42 22t-40.5 20q-98 -72 -98 -144z" />
    <glyph glyph-name="nine" unicode="9" horiz-adv-x="590" 
d="M22 20l49 104q43 -21 98 -21q82 0 143 56t91 139h-2q-23 -23 -61 -36.5t-78 -13.5q-92 0 -144.5 56t-52.5 140q0 109 75.5 193.5t194.5 84.5q105 0 172 -70.5t67 -192.5q0 -74 -28 -154.5t-78 -152t-130 -118t-172 -46.5q-40 0 -76 8t-52 16zM306 354q56 0 96.5 32.5
t40.5 81.5q0 56 -32.5 97.5t-82.5 41.5q-56 0 -94 -46t-38 -108q0 -44 27.5 -71.5t82.5 -27.5z" />
    <glyph glyph-name="colon" unicode=":" horiz-adv-x="236" 
d="M74 383l24 127h123l-25 -127h-122zM-1 0l24 127h123l-25 -127h-122z" />
    <glyph glyph-name="semicolon" unicode=";" horiz-adv-x="279" 
d="M110 383l24 127h123l-25 -127h-122zM-41 -105l99 234h121l-128 -234h-92z" />
    <glyph glyph-name="less" unicode="&#x3c;" 
d="M30 245v82l481 214v-111l-347 -143v-2l347 -143v-111z" />
    <glyph glyph-name="equal" unicode="=" 
d="M44 339v98h488v-98h-488zM44 134v98h488v-98h-488z" />
    <glyph glyph-name="greater" unicode="&#x3e;" 
d="M69 31v111l347 143v2l-347 143v111l481 -214v-82z" />
    <glyph glyph-name="question" unicode="?" horiz-adv-x="491" 
d="M131 205l9 48q8 42 34 77.5t56.5 59.5t60 45.5t49 47.5t19.5 55q0 30 -23 49.5t-59 19.5q-27 0 -56 -10.5t-44 -20.5l-15 -11l-57 95q9 7 26 17.5t67 28.5t98 18q84 0 140.5 -45.5t56.5 -122.5q0 -49 -21.5 -89.5t-54 -68t-65 -50.5t-58.5 -49.5t-32 -54.5l-8 -39h-123z
M92 0l24 119h123l-24 -119h-123z" />
    <glyph glyph-name="at" unicode="@" horiz-adv-x="811" 
d="M32 184q0 113 61 212t166.5 158t228.5 59q117 0 175.5 -51t58.5 -132q0 -25 -5 -53l-45 -232h72l-17 -91h-264q-92 0 -143.5 47t-51.5 116q0 83 69.5 144.5t188.5 61.5h80q2 8 2 14q0 32 -38 53t-95 21q-128 0 -222 -101t-94 -226q0 -94 59 -154t165 -60l-19 -97
q-147 0 -239.5 86t-92.5 225zM396 223q0 -35 21.5 -56.5t58.5 -21.5h76l38 196h-74q-50 0 -85 -36t-35 -82z" />
    <glyph glyph-name="A" unicode="A" horiz-adv-x="676" 
d="M-43 0l22 111h18q21 0 32 22l323 577h137l99 -578q2 -13 6.5 -17t16.5 -4h19l-22 -111h-78q-35 0 -49.5 12t-19.5 46l-20 124h-239l-69 -124q-18 -34 -36 -46t-51 -12h-89zM252 290h180l-27 178l-7 106h-2q-28 -67 -49 -106z" />
    <glyph glyph-name="B" unicode="B" horiz-adv-x="621" 
d="M49 49q0 12 5 37l100 513h-65l21 111h299q89 0 141.5 -41.5t52.5 -115.5q0 -62 -35.5 -110.5t-85.5 -68.5v-2q42 -18 65.5 -55.5t23.5 -89.5q0 -79 -49.5 -135.5t-120.5 -78.5q-40 -13 -93 -13h-196q-63 0 -63 49zM250 420h116q45 0 75 31.5t30 75.5q0 33 -20 52.5
t-60 19.5h-106zM194 126q0 -15 18 -15h105q27 0 48 10q33 13 52.5 44t19.5 68q0 40 -23 61.5t-65 21.5h-119l-33 -167q-3 -13 -3 -23z" />
    <glyph glyph-name="C" unicode="C" horiz-adv-x="698" 
d="M38 299q0 109 55 206t153 157t214 60q57 0 111 -13.5t96 -47.5t42 -82q0 -8 -7 -50l-9 -45h-118l8 37q6 29 -17.5 48t-52.5 25t-58 6q-113 0 -197.5 -84.5t-84.5 -208.5q0 -89 53 -143t141 -54q127 0 219 82l56 -102q-52 -48 -130 -75t-159 -27q-135 0 -225 86t-90 225z
" />
    <glyph glyph-name="D" unicode="D" horiz-adv-x="718" 
d="M49 49q0 12 5 37l100 513h-65l21 111h277q148 0 231 -74.5t83 -215.5q0 -179 -122 -299.5t-305 -120.5h-162q-63 0 -63 49zM194 126q0 -15 18 -15h64q126 0 207.5 86t81.5 214q0 188 -194 188h-86l-88 -450q-3 -13 -3 -23z" />
    <glyph glyph-name="E" unicode="E" horiz-adv-x="583" 
d="M49 49q0 12 5 37l100 513h-65l21 111h420q65 0 65 -50q0 -9 -4 -33l-18 -93h-119l6 26q3 16 3 23q0 16 -21 16h-157l-36 -186h230l-22 -111h-230l-30 -153q-3 -13 -3 -23q0 -15 18 -15h164q21 0 26 22l9 43h118l-22 -112q-11 -64 -76 -64h-319q-63 0 -63 49z" />
    <glyph glyph-name="F" unicode="F" horiz-adv-x="526" 
d="M36 0l117 599h-65l22 111h396q65 0 65 -50q0 -9 -4 -33l-19 -93h-118l5 26q4 22 4 23q0 16 -21 16h-134l-39 -201h227l-22 -111h-226l-57 -287h-131z" />
    <glyph glyph-name="G" unicode="G" horiz-adv-x="736" 
d="M37 292q0 83 32.5 161t88.5 137.5t137 95.5t172 36q46 0 88 -9.5t69 -22.5t47.5 -26t29.5 -22l9 -10l-75 -94q-7 7 -20.5 17.5t-57.5 28t-92 17.5q-119 0 -205.5 -88t-86.5 -209q0 -93 53 -144.5t139 -51.5q51 0 99.5 19.5t71.5 38.5l23 20l9 45q0 2 1 6.5t1.5 8t0.5 5.5
q0 15 -19 15h-46l20 104h112q65 0 65 -49q0 -9 -4 -33l-56 -288h-113l8 38l7 28h-2q-28 -29 -86 -53.5t-129 -24.5q-127 0 -209 83.5t-82 220.5z" />
    <glyph glyph-name="H" unicode="H" horiz-adv-x="765" 
d="M37 0l109 559q4 22 4 24q0 16 -21 16h-40l21 111h120q64 0 64 -50q0 -17 -4 -33l-43 -218h313l47 235q7 36 25 51t51 15h133l-22 -111h-45q-20 0 -24 -22l-113 -577h-131l58 298h-313l-58 -298h-131z" />
    <glyph glyph-name="I" unicode="I" horiz-adv-x="350" 
d="M-16 0l22 111h70l95 488h-71l22 111h266l-21 -111h-71l-95 -488h71l-22 -111h-266z" />
    <glyph glyph-name="J" unicode="J" horiz-adv-x="526" 
d="M-10 163q0 21 5 53l6 35h131l-5 -29q-4 -28 -4 -37q0 -39 21 -57t54 -18q40 0 71 26t42 80l67 345q3 15 3 21q0 17 -21 17h-169l22 111h248q65 0 65 -50q0 -8 -4 -32l-83 -430q-21 -107 -90 -158.5t-155 -51.5t-145 46.5t-59 128.5z" />
    <glyph glyph-name="K" unicode="K" horiz-adv-x="637" 
d="M37 0l109 559q4 22 4 23q0 17 -21 17h-40l21 111h120q64 0 64 -50q0 -17 -4 -33l-40 -206h50q39 0 56 23l194 266h151l-217 -292q-12 -17 -25.5 -30t-20.5 -18l-7 -5v-2q18 -15 28 -48l56 -180q7 -24 37 -24h32l-22 -111h-79q-36 0 -54.5 11.5t-28.5 41.5l-71 233
q-6 24 -50 24h-51l-60 -310h-131z" />
    <glyph glyph-name="L" unicode="L" horiz-adv-x="550" 
d="M49 49q0 12 5 37l92 473q4 22 4 24q0 16 -21 16h-40l21 111h120q64 0 64 -50q0 -17 -4 -33l-93 -478q-3 -13 -3 -23q0 -15 18 -15h155q21 0 26 22l9 43h118l-22 -112q-11 -64 -76 -64h-310q-63 0 -63 49z" />
    <glyph glyph-name="M" unicode="M" horiz-adv-x="878" 
d="M-35 0l21 111h30q20 0 26 22l159 577h133l78 -340l17 -95h2q26 50 53 95l211 340h141l-63 -560q-2 -18 -2 -24q0 -15 17 -15h31l-22 -111h-104q-34 0 -49 12t-15 39q0 6 3 30l36 303l20 110h-2q-35 -72 -60 -110l-169 -262h-106l-67 262l-17 111h-2q-11 -66 -23 -111
l-86 -321q-9 -34 -26 -48.5t-49 -14.5h-116z" />
    <glyph glyph-name="N" unicode="N" horiz-adv-x="761" 
d="M-28 0l22 111h42q22 0 26 22l113 577h115l193 -399q9 -18 19 -43t16 -41l5 -16h2q5 58 13 100l65 333q7 36 25 51t51 15h133l-22 -111h-45q-20 0 -24 -22l-112 -577h-114l-196 398q-8 18 -17.5 43t-15.5 41l-5 16h-2q-6 -58 -14 -100l-65 -335q-13 -63 -76 -63h-132z" />
    <glyph glyph-name="O" unicode="O" horiz-adv-x="798" 
d="M37 300q0 112 60 209.5t159.5 155t212.5 57.5q140 0 227.5 -86t87.5 -221q0 -171 -131 -299t-302 -128q-139 0 -226.5 88t-87.5 224zM173 307q0 -88 53 -142.5t136 -54.5q109 0 197.5 89t88.5 208q0 86 -53 139.5t-136 53.5q-110 0 -198 -87t-88 -206z" />
    <glyph glyph-name="P" unicode="P" horiz-adv-x="601" 
d="M36 0l117 599h-65l22 111h315q88 0 142 -52.5t54 -141.5q0 -79 -42.5 -144t-104.5 -97q-60 -30 -122 -30h-137l-48 -245h-131zM237 357h105q60 0 102.5 41.5t42.5 105.5q0 47 -25.5 71t-70.5 24h-107z" />
    <glyph glyph-name="Q" unicode="Q" horiz-adv-x="798" 
d="M37 300q0 112 60 209.5t159.5 155t211.5 57.5q140 0 228 -86t88 -221q0 -163 -122 -288l59 -68l-88 -82l-63 77q-105 -66 -218 -66q-139 0 -227 88t-88 224zM173 307q0 -88 53 -142.5t136 -54.5q68 0 128 37l-74 88l87 80l76 -93q69 82 69 185q0 86 -53 139.5t-136 53.5
q-110 0 -198 -87t-88 -206z" />
    <glyph glyph-name="R" unicode="R" horiz-adv-x="633" 
d="M36 0l117 599h-65l22 111h310q86 0 139 -46.5t53 -130.5q0 -90 -52 -150t-111 -73v-2q15 -13 24 -37l42 -133q9 -27 36 -27h30l-22 -111h-66q-38 0 -56.5 12t-29.5 45l-58 175q-7 21 -17.5 27t-38.5 6h-74l-52 -265h-131zM241 377h104q55 0 94 39t39 97q0 86 -88 86h-106
z" />
    <glyph glyph-name="S" unicode="S" horiz-adv-x="544" 
d="M-8 96l81 89q2 -3 6.5 -8.5t20.5 -19t33.5 -24t45.5 -19t58 -8.5q56 0 89.5 26.5t33.5 67.5q0 24 -15.5 43.5t-40 33.5t-54 27.5t-59.5 31t-54.5 39t-40 55t-15.5 75.5q0 97 75.5 157t183.5 60q79 0 142 -31.5t63 -87.5q0 -13 -4 -35l-11 -52h-115l4 20q3 18 3 20
q0 23 -24.5 35t-61.5 12q-57 0 -89.5 -25.5t-32.5 -63.5q0 -27 20.5 -47.5t51.5 -33.5t67.5 -32t67.5 -39.5t51.5 -58.5t20.5 -88q0 -97 -71 -162t-187 -65q-46 0 -88 11t-69 27t-47.5 32t-29.5 27z" />
    <glyph glyph-name="T" unicode="T" horiz-adv-x="644" 
d="M199 0l117 599h-109q-21 0 -26 -22l-9 -43h-115l22 114q7 35 22.5 48.5t49.5 13.5h490q61 0 61 -50q0 -17 -4 -33l-18 -93h-115l5 26q4 20 4 23q0 16 -21 16h-106l-117 -599h-131z" />
    <glyph glyph-name="U" unicode="U" horiz-adv-x="726" 
d="M70 206q0 28 6 58l58 295q4 22 4 23q0 17 -21 17h-40l21 111h120q65 0 65 -50q0 -13 -5 -33l-72 -370q-4 -17 -4 -37q0 -53 32.5 -81.5t90.5 -28.5q68 0 116 39t61 109l76 386q7 36 24.5 51t51.5 15h132l-21 -111h-45q-20 0 -24 -22l-66 -335q-22 -114 -106 -184
t-207 -70q-115 0 -181 60t-66 158z" />
    <glyph glyph-name="V" unicode="V" horiz-adv-x="686" 
d="M214 0l-100 577q-4 22 -25 22h-20l21 111h89q33 0 47 -12.5t19 -45.5l59 -396l6 -104h2q25 62 48 104l213 396q18 34 36.5 46t53.5 12h89l-22 -111h-20q-21 0 -33 -22l-325 -577h-138z" />
    <glyph glyph-name="W" unicode="W" horiz-adv-x="992" 
d="M154 0l-35 575q-1 24 -24 24h-22l21 111h89q36 0 53.5 -12.5t18.5 -45.5l15 -423q1 -21 0 -37.5t-2 -27.5l-1 -10h2q11 34 30 75l223 479h110l29 -479l-1 -75h2q10 35 27 75l180 423q25 58 92 58h93l-22 -111h-22q-23 0 -33 -22l-260 -577h-151l-30 402v88h-2
q-14 -42 -36 -88l-193 -402h-151z" />
    <glyph glyph-name="X" unicode="X" horiz-adv-x="618" 
d="M-47 0l291 364l-93 210q-11 25 -42 25h-26l22 111h71q36 0 55.5 -11t31.5 -41l48 -115l29 -85h2q27 44 59 85l90 115q22 29 42 40.5t53 11.5h90l-21 -111h-29q-28 0 -47 -24l-179 -219l154 -356h-142l-77 183l-30 81h-2q-26 -41 -58 -81l-143 -183h-149z" />
    <glyph glyph-name="Y" unicode="Y" horiz-adv-x="618" 
d="M184 0l60 310l-116 265q-10 24 -36 24h-24l22 111h58q33 0 50.5 -10.5t31.5 -41.5l68 -156q7 -16 14 -36t10 -32l4 -12h2q28 44 56 80l122 156q23 30 44.5 41t51.5 11h83l-22 -111h-25q-24 0 -42 -22l-221 -267l-60 -310h-131z" />
    <glyph glyph-name="Z" unicode="Z" horiz-adv-x="614" 
d="M-23 0l16 83l396 452q14 16 30.5 32t26.5 24l10 8v2q-21 -2 -54 -2h-163q-22 0 -26 -22l-9 -43h-118l21 108q13 68 81 68h461l-16 -82l-400 -453q-15 -16 -31.5 -32t-25.5 -24l-10 -8v-2q21 2 54 2h186q23 0 27 22l8 43h119l-21 -108q-7 -36 -26.5 -52t-54.5 -16h-481z
" />
    <glyph glyph-name="bracketleft" unicode="[" horiz-adv-x="306" 
d="M10 -27l135 700q8 36 27 52t55 16h129l-18 -92h-67q-22 0 -26 -22l-118 -608q-4 -22 18 -22h67l-19 -92h-129q-36 0 -48.5 16t-5.5 52z" />
    <glyph glyph-name="backslash" unicode="\" horiz-adv-x="425" 
d="M222 -42l-102 788h104l102 -788h-104z" />
    <glyph glyph-name="bracketright" unicode="]" horiz-adv-x="307" 
d="M-22 -3h67q22 0 26 22l118 608q4 22 -18 22h-67l19 92h129q36 0 48.5 -16t5.5 -52l-135 -700q-8 -36 -27 -52t-55 -16h-128z" />
    <glyph glyph-name="asciicircum" unicode="^" horiz-adv-x="619" 
d="M7 245l201 465h80l201 -465h-110l-131 331l-131 -331h-110z" />
    <glyph glyph-name="underscore" unicode="_" horiz-adv-x="576" 
d="M-41 0h560l-18 -98h-560z" />
    <glyph glyph-name="grave" unicode="`" horiz-adv-x="399" 
d="M169 757l-80 136h116l53 -136h-89z" />
    <glyph glyph-name="a" unicode="a" horiz-adv-x="544" 
d="M-7 123q0 68 50 114t123 64.5t165 18.5h18l2 10q3 15 3 31q0 63 -78 63q-71 0 -76 -34l-5 -27h-119l11 54q10 55 69 80t136 25q189 0 189 -148q0 -22 -7 -57l-33 -174q-4 -16 -4 -21q0 -15 19 -15h40l-21 -107h-108q-56 0 -56 42q0 14 9 48h-2q-2 -4 -7 -11t-21 -24.5
t-35 -31t-50 -24.5t-64 -11q-64 0 -106 35.5t-42 99.5zM120 142q0 -28 17 -44t45 -16q50 0 94.5 45.5t53.5 92.5l3 13h-21q-48 0 -88.5 -7t-72 -28.5t-31.5 -55.5z" />
    <glyph glyph-name="b" unicode="b" horiz-adv-x="598" 
d="M4 0l109 565q3 21 3 22q0 15 -18 15h-40l21 108h117q61 0 61 -48q0 -8 -4 -30l-27 -138l-12 -46h2q27 33 69 53.5t86 20.5q91 0 142 -58t51 -157q0 -137 -84.5 -228t-193.5 -91q-50 0 -90.5 21t-59.5 63h-2q-1 -17 -5 -36l-6 -36h-119zM171 208q0 -50 25 -81.5t75 -31.5
q62 0 113 56.5t51 146.5q0 53 -27 84t-74 31q-64 0 -113.5 -60.5t-49.5 -144.5z" />
    <glyph glyph-name="c" unicode="c" horiz-adv-x="535" 
d="M18 218q0 123 89.5 213.5t220.5 90.5q32 0 64.5 -6t64.5 -19.5t49 -40t10 -62.5l-9 -47h-110l3 16q5 25 -19.5 38.5t-60.5 13.5q-72 0 -122.5 -56t-50.5 -129q0 -57 33.5 -94.5t100.5 -37.5q42 0 81.5 15t57.5 29l18 15l34 -98q-3 -3 -8.5 -7.5t-24.5 -17t-41 -22
t-58 -17t-74 -7.5q-118 0 -183 65t-65 165z" />
    <glyph glyph-name="d" unicode="d" horiz-adv-x="621" 
d="M19 202q0 138 83.5 229t195.5 91q47 0 87 -19.5t56 -57.5h2q1 16 4 31l17 89q3 13 3 22q0 15 -18 15h-39l21 108h117q60 0 60 -47q0 -11 -4 -31l-95 -488q-3 -12 -3 -22q0 -15 19 -15h40l-22 -107h-106q-55 0 -55 42q0 16 7 41h-2q-67 -95 -175 -95q-91 0 -142 57.5
t-51 156.5zM147 213q0 -55 27 -86.5t72 -31.5q67 0 116 62t49 140q0 51 -25 83.5t-73 32.5q-64 0 -115 -56.5t-51 -143.5z" />
    <glyph glyph-name="e" unicode="e" horiz-adv-x="545" 
d="M18 207q0 131 85 223t211 92q99 0 151 -52.5t52 -140.5q0 -20 -4.5 -44.5t-8.5 -38.5l-4 -14h-351q-3 -12 -3 -26q0 -49 34 -80t93 -31q36 0 75.5 14t61.5 28l21 14l34 -96q-10 -8 -27.5 -19t-70 -29.5t-102.5 -18.5q-116 0 -181.5 61.5t-65.5 157.5zM166 317h223
q3 13 3 23q0 39 -22 61.5t-59 22.5q-49 0 -88 -29t-57 -78z" />
    <glyph glyph-name="f" unicode="f" horiz-adv-x="335" 
d="M26 0l79 409h-63l20 101h63l2 15q11 60 38.5 100.5t64.5 58t66.5 24t61.5 6.5l57 -3l-21 -104q-6 2 -29 2q-38 0 -70.5 -19.5t-41.5 -67.5l-2 -12h110l-20 -101h-110l-79 -409h-126z" />
    <glyph glyph-name="g" unicode="g" horiz-adv-x="611" 
d="M47 -66q51 -34 133 -34q143 0 171 132l13 50h-2q-56 -72 -144 -72q-94 0 -145 58t-51 151q0 73 30.5 141t94 115t145.5 47q67 0 106 -26t46 -52h2q-1 6 1 18q10 48 66 48h120l-21 -108h-40q-21 0 -26 -20l-69 -356q-24 -120 -106.5 -178t-185.5 -58q-113 0 -193 45z
M151 229q0 -52 26 -82t76 -30q70 0 111.5 63.5t41.5 137.5q0 96 -103 96q-69 0 -110.5 -55t-41.5 -130z" />
    <glyph glyph-name="h" unicode="h" horiz-adv-x="616" 
d="M3 0l110 564q0 3 1 8t1.5 8.5t0.5 6.5q0 15 -18 15h-40l21 108h117q61 0 61 -48q0 -8 -4 -30l-33 -168l-11 -46h2q30 40 80.5 72t114.5 32q69 0 107.5 -36t38.5 -105q0 -28 -6 -61l-35 -182l-3 -15q0 -16 18 -16h40l-21 -107h-118q-60 0 -60 49q0 10 3 22l45 231
q4 17 4 39q0 65 -66 65q-63 0 -113.5 -53t-64.5 -120l-45 -233h-127z" />
    <glyph glyph-name="i" unicode="i" horiz-adv-x="289" 
d="M145 593l23 117h110l-23 -117h-110zM35 49q0 8 3 23l57 293q3 15 3 22q0 15 -18 15h-40l21 108h117q60 0 60 -48q0 -9 -4 -31l-57 -293q-2 -10 -2 -15q0 -16 18 -16h39l-20 -107h-117q-60 0 -60 49z" />
    <glyph glyph-name="j" unicode="j" horiz-adv-x="266" 
d="M146 593l22 117h110l-22 -117h-110zM25 3l71 362q3 15 3 22q0 15 -18 15h-39l20 108h117q61 0 61 -47q0 -5 -4 -31l-87 -448q-12 -61 -41.5 -102.5t-68.5 -59t-69 -23.5t-61 -6l-47 3l21 107q8 -2 21 -2q102 0 121 102z" />
    <glyph glyph-name="k" unicode="k" horiz-adv-x="539" 
d="M3 0l110 565q3 21 3 22q0 15 -18 15h-40l21 108h117q61 0 61 -48q0 -8 -4 -30l-59 -302h37q28 0 46 19l135 161h148l-167 -194q-10 -12 -22.5 -22t-19.5 -14l-7 -5v-2q13 -6 25 -39l41 -108q8 -19 40 -19h35l-21 -107h-87q-32 0 -46 8.5t-24 35.5l-57 157q-9 22 -40 22
h-37l-43 -223h-127z" />
    <glyph glyph-name="l" unicode="l" horiz-adv-x="269" 
d="M14 49q0 6 2 22l97 494q3 15 3 22q0 15 -18 15h-40l21 108h117q60 0 60 -48q0 -8 -4 -30l-96 -494q-2 -10 -2 -15q0 -16 17 -16h41l-21 -107h-117q-60 0 -60 49z" />
    <glyph glyph-name="m" unicode="m" horiz-adv-x="940" 
d="M25 0l71 368q3 8 3 18q0 16 -19 16h-39l21 108h116q56 0 56 -49q0 -10 -8 -45h2q30 41 78 73.5t111 32.5q110 0 127 -105h2q29 41 81.5 73t114.5 32q64 0 98.5 -33.5t34.5 -97.5q0 -23 -7 -63l-36 -190q-2 -10 -2 -15q0 -16 17 -16h40l-21 -107h-117q-60 0 -60 49
q0 6 2 22l46 233q5 27 5 43q0 59 -56 59q-59 0 -104.5 -55t-59.5 -127l-44 -224h-127l60 304q5 27 5 43q0 59 -56 59q-60 0 -105.5 -55.5t-59.5 -127.5l-44 -223h-126z" />
    <glyph glyph-name="n" unicode="n" horiz-adv-x="638" 
d="M25 0l71 368q3 8 3 18q0 16 -19 16h-39l21 108h116q56 0 56 -48q0 -18 -10 -52h2q30 43 81 77.5t120 34.5t108 -36t39 -105q0 -23 -7 -61l-35 -182q-2 -10 -2 -15q0 -16 18 -16h39l-20 -107h-118q-60 0 -60 49q0 10 3 22l45 231q4 26 4 39q0 65 -66 65q-63 0 -113.5 -53
t-64.5 -120l-46 -233h-126z" />
    <glyph glyph-name="o" unicode="o" horiz-adv-x="619" 
d="M17 214q0 130 97.5 219t227.5 89q108 0 176 -62.5t68 -162.5q0 -131 -98 -220t-227 -89q-107 0 -175.5 62.5t-68.5 163.5zM146 220q0 -57 34.5 -90.5t90.5 -33.5q71 0 128.5 55.5t57.5 137.5q0 56 -34.5 90.5t-89.5 34.5q-72 0 -129.5 -56.5t-57.5 -137.5z" />
    <glyph glyph-name="p" unicode="p" horiz-adv-x="620" 
d="M-14 -200l109 561q3 17 3 26q0 15 -17 15h-40l21 108h113q54 0 54 -38q0 -18 -8 -39h2q63 89 170 89q90 0 141 -58t51 -159q0 -135 -84.5 -226t-193.5 -91q-100 0 -144 75h-2q-2 -20 -7 -46l-42 -217h-126zM192 211q0 -51 25 -83.5t74 -32.5q63 0 114 56t51 144
q0 56 -26.5 87t-73.5 31q-64 0 -114 -60.5t-50 -141.5z" />
    <glyph glyph-name="q" unicode="q" horiz-adv-x="620" 
d="M19 200q0 140 84 231t199 91q107 0 146 -77h2q11 65 70 65h122l-21 -108h-40q-22 0 -26 -22l-113 -580h-127l43 220l12 45h-2q-59 -77 -155 -77q-92 0 -143 57t-51 155zM147 210q0 -53 27.5 -84t74.5 -31q65 0 114 61.5t49 142.5q0 50 -25.5 82t-74.5 32
q-62 0 -113.5 -56.5t-51.5 -146.5z" />
    <glyph glyph-name="r" unicode="r" horiz-adv-x="404" 
d="M25 0l73 380q4 22 -18 22h-39l21 108h116q58 0 58 -45q0 -32 -17 -81h2q28 56 79 94.5t108 38.5q6 0 14.5 -1t9.5 -1l-25 -125q-1 0 -5 0.5t-10.5 1t-13.5 0.5q-62 0 -117 -53t-72 -145l-37 -194h-127z" />
    <glyph glyph-name="s" unicode="s" horiz-adv-x="466" 
d="M-14 75l60 83q7 -8 19 -20t51.5 -31.5t80.5 -19.5q35 0 57 14.5t22 39.5q0 17 -13 30t-26.5 19.5t-38.5 15.5q-32 13 -52.5 23t-45.5 28.5t-37.5 45t-12.5 60.5q0 77 62 118t148 41q77 0 134.5 -31t45.5 -89l-8 -39h-109l2 16q4 20 -15 32.5t-53 12.5q-36 0 -57.5 -14.5
t-21.5 -38.5q0 -7 1.5 -12.5t5.5 -11t7 -9.5t10.5 -8t11.5 -7t13.5 -7t13.5 -5.5t15 -6t14 -5.5q31 -12 49.5 -21.5t42 -26.5t34.5 -41.5t11 -56.5q0 -74 -60 -119.5t-151 -45.5q-40 0 -76 9t-59.5 22t-41 25.5t-25.5 21.5z" />
    <glyph glyph-name="t" unicode="t" horiz-adv-x="354" 
d="M55 145q0 20 5 48l42 216h-66l20 101h69l27 139h124l-27 -139h116l-20 -101h-116l-39 -200q-3 -17 -3 -31q0 -71 82 -71l26 2l-22 -111q-16 -3 -39 -3q-28 0 -55.5 6.5t-57 21.5t-48 46.5t-18.5 75.5z" />
    <glyph glyph-name="u" unicode="u" horiz-adv-x="632" 
d="M48 128q0 28 6 62l35 182q2 10 2 15q0 15 -17 15h-40l20 108h118q60 0 60 -50q0 -5 -2 -21l-46 -232q-4 -24 -4 -38q0 -65 63 -65t113 53t63 120l46 233h127l-72 -368q-2 -12 -2 -18q0 -17 18 -17h39l-21 -107h-116q-56 0 -56 48q0 9 10 52h-2q-29 -43 -80 -77.5
t-119 -34.5q-67 0 -105 36t-38 104z" />
    <glyph glyph-name="v" unicode="v" horiz-adv-x="551" 
d="M141 0l-71 382q-4 20 -23 20h-13l21 108h68q54 0 64 -53l44 -263l5 -73h2q16 45 31 73l148 268q15 27 32.5 37.5t47.5 10.5h80l-21 -108h-13q-20 0 -31 -18l-220 -384h-151z" />
    <glyph glyph-name="w" unicode="w" horiz-adv-x="845" 
d="M120 0l-47 384q-3 18 -23 18h-16l22 108h84q55 0 59 -55l20 -280v-54h2q9 27 22 54l159 333h112l30 -333l1 -54h2q8 27 20 54l130 283q14 30 30 41t47 11h95l-21 -108h-14q-21 0 -32 -18l-196 -384h-143l-31 291l-2 55h-2q-10 -28 -23 -55l-142 -291h-143z" />
    <glyph glyph-name="x" unicode="x" horiz-adv-x="525" 
d="M-39 0l221 263l-64 121q-10 18 -36 18h-37l21 108h82q29 0 44.5 -11.5t28.5 -39.5l38 -81l11 -32h2q12 20 21 32l63 81q24 31 40 41t48 10h99l-21 -108h-37q-28 0 -42 -17l-114 -131l121 -254h-132l-68 142l-10 27h-2q-8 -14 -18 -27l-115 -142h-144z" />
    <glyph glyph-name="y" unicode="y" horiz-adv-x="555" 
d="M42 -210q-33 0 -64 13t-46 26l-14 13l52 90q36 -36 75 -36q53 0 93 66l26 41l-94 381q-3 11 -8 14.5t-16 3.5h-15l21 108h86q42 0 51 -48l50 -255l5 -68h2q16 42 30 68l136 255q26 48 78 48h91l-21 -108h-15q-22 0 -32 -18l-275 -465q-77 -129 -196 -129z" />
    <glyph glyph-name="z" unicode="z" horiz-adv-x="528" 
d="M-21 0l15 77l287 281l59 53v2q-24 -2 -43 -2h-109q-22 0 -26 -22l-8 -38h-105l18 91q13 68 81 68h374l-14 -78l-287 -281l-61 -52v-2q20 2 53 2h118q22 0 27 24l6 35h106l-18 -90q-7 -36 -26.5 -52t-54.5 -16h-392z" />
    <glyph glyph-name="braceleft" unicode="{" horiz-adv-x="344" 
d="M61 34q0 17 5 47l17 87q3 15 3 28q0 32 -17 51t-34 22l-17 3l22 111q3 0 9 1t22 7t29 16.5t26.5 31.5t18.5 50l19 95q35 177 238 159l-18 -94q-34 6 -70 -13t-46 -71l-23 -119q-5 -27 -18 -49t-28 -34t-29 -20.5t-23 -11.5l-9 -3v-2q2 -1 6.5 -3t15 -10t18.5 -18.5
t14.5 -30t6.5 -42.5q0 -14 -3 -31l-21 -107q-4 -20 -4 -29q0 -67 87 -58l-19 -94q-13 -2 -31 -2q-19 0 -40.5 5t-47.5 17.5t-42.5 41t-16.5 69.5z" />
    <glyph glyph-name="bar" unicode="|" horiz-adv-x="320" 
d="M110 -161v957h108v-957h-108z" />
    <glyph glyph-name="braceright" unicode="}" horiz-adv-x="344" 
d="M-30 -3q34 -6 70 13t46 71l25 127q5 27 18 49.5t28 35t29 21t23 11.5l9 3v2q-2 1 -6.5 3t-14.5 10t-18 18.5t-14.5 29.5t-6.5 42q0 13 3 31l19 101q3 13 3 26q0 27 -17 41.5t-34 16.5t-36 0l19 94q27 4 56 -1t57.5 -18.5t46.5 -42.5t18 -70q0 -18 -5 -46l-15 -78
q-3 -16 -3 -28q0 -32 17 -51t34 -22l17 -3l-22 -111q-3 0 -9 -1t-22 -7.5t-29 -16.5t-26.5 -31.5t-18.5 -50.5l-21 -104q-10 -52 -35.5 -87.5t-61 -50.5t-69.5 -19.5t-72 -0.5z" />
    <glyph glyph-name="asciitilde" unicode="~" horiz-adv-x="590" 
d="M44 199q0 182 153 182q34 0 62 -14t43.5 -31.5t36 -31.5t42.5 -14q32 0 47.5 25t15.5 62h100q0 -182 -153 -182q-34 0 -61.5 14t-43 31t-36.5 31t-43 14q-31 0 -46.5 -24.5t-15.5 -61.5h-101z" />
    <glyph glyph-name="uni00A0" unicode="&#xa0;" horiz-adv-x="265" 
 />
    <glyph glyph-name="exclamdown" unicode="&#xa1;" horiz-adv-x="258" 
d="M86 391l23 118h122l-23 -118h-122zM-34 -200l109 504h111l-88 -504h-132z" />
    <glyph glyph-name="cent" unicode="&#xa2;" 
d="M200 -12l17 89q-75 18 -119.5 77.5t-44.5 148.5q0 129 81.5 226t191.5 108l16 84h86l-17 -89q38 -8 67.5 -27.5t45 -41t26 -42t13.5 -33.5l3 -14l-114 -42q0 4 -1.5 9.5t-8.5 21t-17 27t-30 21t-45 9.5q-68 0 -118 -62.5t-50 -151.5q0 -55 27 -85.5t77 -30.5q25 0 48.5 9
t39 22t27.5 25.5t17 21.5l6 9l108 -46q-3 -6 -8.5 -16t-26.5 -36.5t-45.5 -47t-64.5 -39t-85 -22.5l-16 -82h-86z" />
    <glyph glyph-name="sterling" unicode="&#xa3;" 
d="M-9 0l22 111h57l39 200h-48l17 87h47l26 130q17 85 86.5 139.5t162.5 54.5q32 0 62 -8t50 -19t35.5 -22.5t22.5 -19.5l7 -8l-80 -79q-4 5 -12.5 11.5t-34.5 18t-53 11.5q-44 0 -76.5 -26t-40.5 -66l-24 -117h177l-17 -87h-176l-39 -200h168q21 0 26 22l9 43h118l-21 -108
q-7 -36 -26.5 -52t-54.5 -16h-429z" />
    <glyph glyph-name="currency" unicode="&#xa4;" horiz-adv-x="626" 
d="M61 0l31 159h-68l17 86h68l13 65h-69l20 101h68l39 197h-65l20 102h308q92 0 146 -46t54 -126q0 -103 -76.5 -166t-184.5 -63h-129l-13 -64h248l-17 -86h-248l-31 -159h-131zM272 411h101q62 0 99 35t37 87q0 35 -24.5 55t-71.5 20h-102z" />
    <glyph glyph-name="yen" unicode="&#xa5;" horiz-adv-x="626" 
d="M189 0l38 194h-160l14 76h161l8 40l-19 42h-136l16 76h85l-63 147q-10 24 -36 24h-23l21 111h59q33 0 50.5 -10.5t31.5 -41.5l68 -156q7 -16 14 -36t10 -32l4 -12h2q28 44 55 80l123 156q22 30 44 41t52 11h82l-21 -111h-25q-24 0 -42 -22l-122 -149h82l-15 -76h-131
l-35 -42l-8 -40h158l-14 -76h-159l-38 -194h-131z" />
    <glyph glyph-name="section" unicode="&#xa7;" horiz-adv-x="475" 
d="M113 138l-5 337q-5 104 54 175.5t167 71.5q31 0 59.5 -6.5t48 -16t34.5 -19.5t22 -16l7 -7l-66 -74q-39 35 -105 35q-63 0 -95 -40t-29 -104l4 -336h-96zM-11 3l66 74q39 -35 105 -35q63 0 95 39.5t29 104.5l-4 336h96l5 -337q5 -104 -54.5 -175.5t-167.5 -71.5
q-30 0 -59 6.5t-48 16t-34 19.5t-22 16z" />
    <glyph glyph-name="dieresis" unicode="&#xa8;" horiz-adv-x="509" 
d="M294 777l23 116h89l-23 -116h-89zM115 777l23 116h88l-23 -116h-88z" />
    <glyph glyph-name="copyright" unicode="&#xa9;" horiz-adv-x="815" 
d="M60 355q0 152 104.5 259t252.5 107q151 0 256 -107t105 -259t-105 -259.5t-256 -107.5q-148 0 -252.5 107.5t-104.5 259.5zM149 355q0 -120 77.5 -203t190.5 -83q115 0 193.5 83t78.5 203t-78.5 202.5t-193.5 82.5q-113 0 -190.5 -82.5t-77.5 -202.5zM235 353
q0 81 53.5 138t134.5 57q34 0 63 -11t46.5 -26t30 -30.5t17.5 -26.5l5 -11l-76 -36q-3 6 -9 16t-27.5 26t-47.5 16q-43 0 -70.5 -32.5t-27.5 -79.5q0 -49 26.5 -80.5t71.5 -31.5q26 0 47 14.5t29 28.5l8 15l76 -35q-2 -4 -5.5 -11.5t-17 -25.5t-30.5 -32t-46 -25.5
t-63 -11.5q-81 0 -134.5 57t-53.5 138z" />
    <glyph glyph-name="ordfeminine" unicode="&#xaa;" horiz-adv-x="442" 
d="M189 383q-39 0 -66 23t-27 64q0 37 22.5 63t58.5 36.5t64 14.5t56 4h14q2 18 2 25q0 36 -41 36q-35 0 -38 -16l-3 -17h-83l8 42q5 29 40 45.5t87 16.5q122 0 122 -96q0 -13 -4 -39l-19 -100q-3 -16 12 -16h22l-15 -80h-63q-45 0 -42 51h-2q-4 -6 -12 -15.5t-35 -25.5
t-58 -16zM223 454q28 0 50 22.5t28 56.5h-9q-104 0 -104 -49q0 -30 35 -30zM57 266l13 68h322l-13 -68h-322z" />
    <glyph glyph-name="guillemotleft" unicode="&#xab;" horiz-adv-x="596" 
d="M387 77l-130 206l210 205h128l-221 -211l129 -200h-116zM164 77l-130 206l192 205h126l-201 -211l129 -200h-116z" />
    <glyph glyph-name="logicalnot" unicode="&#xac;" horiz-adv-x="649" 
d="M78 339v98h488v-294h-102v196h-386z" />
    <glyph glyph-name="uni00AD" unicode="&#xad;" horiz-adv-x="415" 
d="M44 230l21 111h301l-22 -111h-300z" />
    <glyph glyph-name="registered" unicode="&#xae;" horiz-adv-x="815" 
d="M60 355q0 152 104.5 259t252.5 107q151 0 256 -107t105 -259t-105 -259.5t-256 -107.5q-148 0 -252.5 107.5t-104.5 259.5zM149 355q0 -120 77.5 -203t190.5 -83q115 0 193.5 83t78.5 203t-78.5 202.5t-193.5 82.5q-113 0 -190.5 -82.5t-77.5 -202.5zM292 174v366h152
q55 0 87.5 -31.5t32.5 -84.5q0 -39 -20.5 -64t-43.5 -31v-2q4 -4 13 -21l68 -132h-93l-62 135h-49v-135h-85zM377 369h47q25 0 39 14.5t14 40.5q0 54 -51 54h-49v-109z" />
    <glyph glyph-name="macron" unicode="&#xaf;" horiz-adv-x="467" 
d="M95 783l16 84h263l-17 -84h-262z" />
    <glyph glyph-name="degree" unicode="&#xb0;" horiz-adv-x="399" 
d="M230 408q-62 0 -104 39.5t-42 99.5q0 69 56 122.5t128 53.5q62 0 104 -40.5t42 -100.5q0 -69 -56 -121.5t-128 -52.5zM238 498q32 0 55.5 23t23.5 55q0 25 -16 40.5t-42 15.5q-32 0 -55 -24t-23 -55q0 -24 15.5 -39.5t41.5 -15.5z" />
    <glyph glyph-name="plusminus" unicode="&#xb1;" 
d="M-7 236v99h216v237h104v-237h215v-99h-215v-236h-104v236h-216zM7 -85h508v-98h-508v98z" />
    <glyph glyph-name="twosuperior" unicode="&#xb2;" horiz-adv-x="376" 
d="M70 267q-26 0 -33.5 8t-7.5 32q0 56 27 96t65.5 61.5t77 38.5t65.5 38.5t27 49.5q0 40 -46 40q-22 0 -37.5 -9t-17.5 -21l-5 -22h-85l10 50q7 40 50.5 64.5t96.5 24.5q57 0 94.5 -30t37.5 -87q0 -45 -26.5 -80t-64.5 -55.5t-75.5 -37.5t-64 -35.5t-26.5 -39.5q0 -6 11 -6
h122q9 0 11 9l6 33h85l-14 -73q-10 -49 -58 -49h-225z" />
    <glyph glyph-name="threesuperior" unicode="&#xb3;" horiz-adv-x="376" 
d="M188 261q-30 0 -57 7t-44 16.5t-29.5 19.5t-17.5 17l-6 7l59 63q4 -5 11 -12t31.5 -19t52.5 -12q33 0 57 21.5t24 51.5q0 23 -19.5 35t-47.5 12h-31l-11 42l106 105l25 22v3q-15 -4 -31 -4h-67q-9 0 -10 -9l-6 -31h-78l12 65q5 27 17.5 38t40.5 11h243l-11 -61l-124 -118
q37 -10 63.5 -38t26.5 -71q0 -62 -52 -111.5t-127 -49.5z" />
    <glyph glyph-name="acute" unicode="&#xb4;" horiz-adv-x="404" 
d="M108 757l102 136h124l-129 -136h-97z" />
    <glyph glyph-name="mu" unicode="&#xb5;" horiz-adv-x="678" 
d="M7 -200l112 575q5 27 -16 27h-40l21 108h117q60 0 60 -50q0 -5 -2 -21l-45 -232q-4 -16 -4 -38q0 -65 63 -65t112.5 53t62.5 120l46 233h127l-72 -368q-2 -12 -2 -18q0 -17 18 -17h39l-20 -107h-116q-56 0 -56 48q0 14 9 52h-2q-29 -43 -80 -77.5t-119 -34.5
q-44 0 -69 23h-2q-1 -51 -8 -85l-24 -126h-110z" />
    <glyph glyph-name="mu" unicode="&#x3bc;" horiz-adv-x="678" 
d="M7 -200l112 575q5 27 -16 27h-40l21 108h117q60 0 60 -50q0 -5 -2 -21l-45 -232q-4 -16 -4 -38q0 -65 63 -65t112.5 53t62.5 120l46 233h127l-72 -368q-2 -12 -2 -18q0 -17 18 -17h39l-20 -107h-116q-56 0 -56 48q0 14 9 52h-2q-29 -43 -80 -77.5t-119 -34.5
q-44 0 -69 23h-2q-1 -51 -8 -85l-24 -126h-110z" />
    <glyph glyph-name="paragraph" unicode="&#xb6;" horiz-adv-x="629" 
d="M207 -50l56 291q-84 0 -142 63t-51 154q7 103 90 177.5t184 74.5h315l-21 -111h-213l-126 -649h-92zM361 -50l115 594h93l-116 -594h-92z" />
    <glyph glyph-name="periodcentered" unicode="&#xb7;" horiz-adv-x="237" 
d="M44 229l24 126h122l-24 -126h-122z" />
    <glyph glyph-name="cedilla" unicode="&#xb8;" horiz-adv-x="420" 
d="M133 -85l52 110l55 -13l-1 -7l-21 -50q23 -4 41.5 -21t18.5 -45q0 -50 -37.5 -73.5t-84.5 -23.5q-16 0 -32 2t-24 4l-8 1l13 70q20 -8 42 -8q49 0 49 33q0 23 -42 23z" />
    <glyph glyph-name="onesuperior" unicode="&#xb9;" horiz-adv-x="376" 
d="M55 267l16 83h92l39 205l8 31h-2q-6 -9 -14 -15l-40 -32l-45 61l136 110h83l-69 -360h90l-16 -83h-278z" />
    <glyph glyph-name="ordmasculine" unicode="&#xba;" horiz-adv-x="466" 
d="M257 384q-67 0 -109.5 39.5t-42.5 102.5q0 81 61.5 137.5t140.5 56.5q68 0 110.5 -39.5t42.5 -102.5q0 -82 -62 -138t-141 -56zM265 464q40 0 72 31t32 77q0 31 -19.5 50t-49.5 19q-40 0 -72 -31.5t-32 -76.5q0 -31 19.5 -50t49.5 -19zM66 266l14 68h322l-13 -68h-323z
" />
    <glyph glyph-name="guillemotright" unicode="&#xbb;" horiz-adv-x="600" 
d="M240 77l202 210l-128 201h118l128 -205l-195 -206h-125zM-1 77l218 210l-128 201h118l128 -205l-209 -206h-127z" />
    <glyph glyph-name="onequarter" unicode="&#xbc;" horiz-adv-x="906" 
d="M222 0l415 710h95l-415 -710h-95zM49 267l16 83h92l39 205l8 31h-2q-6 -9 -14 -15l-40 -32l-45 61l136 110h83l-70 -360h87l-17 -83h-273zM478 108l11 56l230 280h115l-49 -255h64l-15 -81h-65l-21 -108h-96l21 108h-195zM589 188q12 1 19 1h82l24 122l8 34h-2
q-10 -15 -20 -28l-93 -110l-18 -18v-1z" />
    <glyph glyph-name="onehalf" unicode="&#xbd;" horiz-adv-x="907" 
d="M206 0l415 710h95l-414 -710h-96zM46 267l16 83h92l40 205l7 31h-2q-6 -9 -14 -15l-40 -32l-45 61l136 110h84l-70 -360h87l-16 -83h-275zM496 40q0 47 19.5 83.5t48.5 57t63 38.5t63 30.5t48.5 32t19.5 43.5q0 39 -45 39q-22 0 -38 -8.5t-18 -20.5l-4 -23h-85l9 50
q8 41 51 65.5t96 24.5q57 0 95 -30.5t38 -87.5q0 -45 -26.5 -80t-64.5 -55.5t-75.5 -37.5t-64 -35.5t-26.5 -39.5q0 -6 10 -6h122q10 0 11 10l7 32h84l-14 -73q-9 -49 -58 -49h-224q-26 0 -34 8t-8 32z" />
    <glyph glyph-name="threequarters" unicode="&#xbe;" horiz-adv-x="903" 
d="M476 108l10 56l230 280h116l-50 -255h65l-16 -81h-64l-22 -108h-96l22 108h-195zM201 261q-30 0 -57 7t-44 16.5t-29.5 19.5t-18.5 17l-5 7l59 62q2 -4 11 -12.5t32.5 -19t51.5 -10.5q33 0 57 21.5t24 51.5q0 23 -19.5 35t-47.5 12h-31l-12 42l106 105l26 22v3
q-15 -4 -31 -4h-67q-8 0 -10 -9l-6 -31h-78l12 65q5 27 17.5 38t40.5 11h243l-11 -61l-124 -118q37 -10 63.5 -38t26.5 -71q0 -62 -52 -111.5t-127 -49.5zM216 0l415 710h95l-414 -710h-96zM587 188q12 1 19 1h81l24 122l8 34h-2q-9 -15 -19 -28l-94 -110l-17 -18v-1z" />
    <glyph glyph-name="questiondown" unicode="&#xbf;" horiz-adv-x="484" 
d="M340 304l-9 -48q-8 -42 -34 -77.5t-56.5 -59.5t-60 -45.5t-49 -47.5t-19.5 -55q0 -30 23 -49.5t59 -19.5q27 0 56 10.5t44 21.5l15 10l57 -95q-9 -7 -26 -17.5t-67 -28.5t-98 -18q-84 0 -140.5 45.5t-56.5 122.5q0 49 21.5 89.5t54 68t65 50.5t58.5 49.5t32 54.5l8 39
h123zM379 509l-24 -119h-123l24 119h123z" />
    <glyph glyph-name="Agrave" unicode="&#xc0;" horiz-adv-x="676" 
d="M-43 0l22 111h18q21 0 32 22l323 577h137l99 -578q2 -13 6.5 -17t16.5 -4h19l-22 -111h-78q-35 0 -49.5 12t-19.5 46l-20 124h-239l-69 -124q-18 -34 -36 -46t-51 -12h-89zM252 290h180l-27 178l-7 106h-2q-28 -67 -49 -106zM388 757l-80 136h116l53 -136h-89z" />
    <glyph glyph-name="Aacute" unicode="&#xc1;" horiz-adv-x="676" 
d="M-43 0l22 111h18q21 0 32 22l323 577h137l99 -578q2 -13 6.5 -17t16.5 -4h19l-22 -111h-78q-35 0 -49.5 12t-19.5 46l-20 124h-239l-69 -124q-18 -34 -36 -46t-51 -12h-89zM252 290h180l-27 178l-7 106h-2q-28 -67 -49 -106zM384 757l102 136h124l-129 -136h-97z" />
    <glyph glyph-name="Acircumflex" unicode="&#xc2;" horiz-adv-x="676" 
d="M-43 0l22 111h18q21 0 32 22l323 577h137l99 -578q2 -13 6.5 -17t16.5 -4h19l-22 -111h-78q-35 0 -49.5 12t-19.5 46l-20 124h-239l-69 -124q-18 -34 -36 -46t-51 -12h-89zM252 290h180l-27 178l-7 106h-2q-28 -67 -49 -106zM284 757l118 136h109l66 -136h-93l-34 81h-2
l-66 -81h-98z" />
    <glyph glyph-name="Atilde" unicode="&#xc3;" horiz-adv-x="676" 
d="M-43 0l22 111h18q21 0 32 22l323 577h137l99 -578q2 -13 6.5 -17t16.5 -4h19l-22 -111h-78q-35 0 -49.5 12t-19.5 46l-20 124h-239l-69 -124q-18 -34 -36 -46t-51 -12h-89zM252 290h180l-27 178l-7 106h-2q-28 -67 -49 -106zM247 758q24 137 132 137q34 0 55.5 -16.5
t36.5 -32.5t33 -16q39 0 53 62h79q-24 -137 -132 -137q-34 0 -55.5 16.5t-36.5 32.5t-33 16q-20 0 -33.5 -17.5t-18.5 -44.5h-80z" />
    <glyph glyph-name="Adieresis" unicode="&#xc4;" horiz-adv-x="676" 
d="M-43 0l22 111h18q21 0 32 22l323 577h137l99 -578q2 -13 6.5 -17t16.5 -4h19l-22 -111h-78q-35 0 -49.5 12t-19.5 46l-20 124h-239l-69 -124q-18 -34 -36 -46t-51 -12h-89zM252 290h180l-27 178l-7 106h-2q-28 -67 -49 -106zM470 777l23 116h89l-23 -116h-89zM291 777
l23 116h88l-23 -116h-88z" />
    <glyph glyph-name="Aring" unicode="&#xc5;" horiz-adv-x="676" 
d="M-43 0l22 111h18q21 0 32 22l323 577h137l99 -578q2 -13 6.5 -17t16.5 -4h19l-22 -111h-78q-35 0 -49.5 12t-19.5 46l-20 124h-239l-69 -124q-18 -34 -36 -46t-51 -12h-89zM252 290h180l-27 178l-7 106h-2q-28 -67 -49 -106zM434 744q-33 0 -57 18t-24 50q0 42 31.5 66.5
t70.5 24.5q34 0 58 -18.5t24 -51.5q0 -40 -32 -64.5t-71 -24.5zM438 789q18 0 30 12t12 31q0 27 -28 27q-16 0 -28.5 -12.5t-12.5 -31.5q0 -26 27 -26z" />
    <glyph glyph-name="AE" unicode="&#xc6;" horiz-adv-x="903" 
d="M34 0h-77l21 111h17q13 0 18.5 4t13.5 18l342 577h481q64 0 64 -50q0 -17 -4 -33l-18 -93h-118l5 26q3 17 3 23q0 16 -20 16h-154l-36 -186h227l-22 -111h-227l-30 -153q-3 -14 -3 -23q0 -15 18 -15h160q22 0 27 22l8 43h119l-22 -112q-7 -34 -25 -49t-51 -15h-316
q-63 0 -63 49q0 12 5 37l42 216h-159l-139 -244q-20 -35 -36 -46.5t-51 -11.5zM324 413h116l37 186h-47z" />
    <glyph glyph-name="Ccedilla" unicode="&#xc7;" horiz-adv-x="698" 
d="M249 -85l37 80q-111 19 -179.5 101.5t-68.5 202.5q0 168 123.5 295.5t298.5 127.5q41 0 83 -8t80 -24.5t62 -45t24 -65.5q0 -14 -6 -50l-9 -45h-118l7 37q6 29 -17 48t-52 25t-58 6q-114 0 -198.5 -85t-84.5 -208q0 -89 53.5 -143t141.5 -54q127 0 219 82l56 -102
q-52 -48 -130 -75t-160 -27h-6l-13 -33q23 -4 42 -21t19 -45q0 -50 -38 -73.5t-85 -23.5q-16 0 -32 2t-24 4l-8 1l13 70q20 -8 42 -8q49 0 49 33q0 23 -42 23z" />
    <glyph glyph-name="Egrave" unicode="&#xc8;" horiz-adv-x="583" 
d="M49 49q0 12 5 37l100 513h-65l21 111h420q65 0 65 -50q0 -9 -4 -33l-18 -93h-119l6 26q3 16 3 23q0 16 -21 16h-157l-36 -186h230l-22 -111h-230l-30 -153q-3 -13 -3 -23q0 -15 18 -15h164q21 0 26 22l9 43h118l-22 -112q-11 -64 -76 -64h-319q-63 0 -63 49zM338 757
l-80 136h116l53 -136h-89z" />
    <glyph glyph-name="Eacute" unicode="&#xc9;" horiz-adv-x="583" 
d="M334 757l102 136h124l-129 -136h-97zM49 49q0 12 5 37l100 513h-65l21 111h420q65 0 65 -50q0 -9 -4 -33l-18 -93h-119l6 26q3 16 3 23q0 16 -21 16h-157l-36 -186h230l-22 -111h-230l-30 -153q-3 -13 -3 -23q0 -15 18 -15h164q21 0 26 22l9 43h118l-22 -112
q-11 -64 -76 -64h-319q-63 0 -63 49z" />
    <glyph glyph-name="Ecircumflex" unicode="&#xca;" horiz-adv-x="583" 
d="M233 757l118 136h109l66 -136h-93l-34 81h-2l-66 -81h-98zM49 49q0 12 5 37l100 513h-65l21 111h420q65 0 65 -50q0 -9 -4 -33l-18 -93h-119l6 26q3 16 3 23q0 16 -21 16h-157l-36 -186h230l-22 -111h-230l-30 -153q-3 -13 -3 -23q0 -15 18 -15h164q21 0 26 22l9 43h118
l-22 -112q-11 -64 -76 -64h-319q-63 0 -63 49z" />
    <glyph glyph-name="Edieresis" unicode="&#xcb;" horiz-adv-x="583" 
d="M420 777l23 116h89l-23 -116h-89zM241 777l23 116h88l-23 -116h-88zM49 49q0 12 5 37l100 513h-65l21 111h420q65 0 65 -50q0 -9 -4 -33l-18 -93h-119l6 26q3 16 3 23q0 16 -21 16h-157l-36 -186h230l-22 -111h-230l-30 -153q-3 -13 -3 -23q0 -15 18 -15h164q21 0 26 22
l9 43h118l-22 -112q-11 -64 -76 -64h-319q-63 0 -63 49z" />
    <glyph glyph-name="Igrave" unicode="&#xcc;" horiz-adv-x="350" 
d="M-16 0l22 111h70l95 488h-71l22 111h266l-21 -111h-71l-95 -488h71l-22 -111h-266zM219 757l-80 136h116l53 -136h-89z" />
    <glyph glyph-name="Iacute" unicode="&#xcd;" horiz-adv-x="350" 
d="M-16 0l22 111h70l95 488h-71l22 111h266l-21 -111h-71l-95 -488h71l-22 -111h-266zM215 757l102 136h124l-129 -136h-97z" />
    <glyph glyph-name="Icircumflex" unicode="&#xce;" horiz-adv-x="350" 
d="M-16 0l22 111h70l95 488h-71l22 111h266l-21 -111h-71l-95 -488h71l-22 -111h-266zM115 757l118 136h109l66 -136h-93l-34 81h-2l-66 -81h-98z" />
    <glyph glyph-name="Idieresis" unicode="&#xcf;" horiz-adv-x="350" 
d="M-16 0l22 111h70l95 488h-71l22 111h266l-21 -111h-71l-95 -488h71l-22 -111h-266zM301 777l23 116h89l-23 -116h-89zM122 777l23 116h88l-23 -116h-88z" />
    <glyph glyph-name="Eth" unicode="&#xd0;" horiz-adv-x="721" 
d="M52 49q0 12 5 37l41 215h-48l20 105h48l38 193h-65l22 111h277q148 0 231 -74.5t83 -215.5q0 -179 -122.5 -299.5t-305.5 -120.5h-162q-62 0 -62 49zM196 126q0 -15 19 -15h63q126 0 208 86t82 214q0 188 -195 188h-86l-38 -193h123l-20 -105h-123l-29 -152
q-4 -18 -4 -23z" />
    <glyph glyph-name="Ntilde" unicode="&#xd1;" horiz-adv-x="761" 
d="M-28 0l22 111h42q22 0 26 22l113 577h115l193 -399q9 -18 19 -43t16 -41l5 -16h2q5 58 13 100l65 333q7 36 25 51t51 15h133l-22 -111h-45q-20 0 -24 -22l-112 -577h-114l-196 398q-8 18 -17.5 43t-15.5 41l-5 16h-2q-6 -58 -14 -100l-65 -335q-13 -63 -76 -63h-132z
M292 758q24 137 132 137q34 0 55.5 -16.5t36.5 -32.5t33 -16q39 0 53 62h79q-24 -137 -132 -137q-34 0 -55.5 16.5t-36.5 32.5t-33 16q-20 0 -33.5 -17.5t-18.5 -44.5h-80z" />
    <glyph glyph-name="Ograve" unicode="&#xd2;" horiz-adv-x="798" 
d="M37 300q0 112 60 209.5t159.5 155t212.5 57.5q140 0 227.5 -86t87.5 -221q0 -171 -131 -299t-302 -128q-139 0 -226.5 88t-87.5 224zM173 307q0 -88 53 -142.5t136 -54.5q109 0 197.5 89t88.5 208q0 86 -53 139.5t-136 53.5q-110 0 -198 -87t-88 -206zM439 757l-80 136
h116l53 -136h-89z" />
    <glyph glyph-name="Oacute" unicode="&#xd3;" horiz-adv-x="798" 
d="M436 757l102 136h124l-129 -136h-97zM37 300q0 112 60 209.5t159.5 155t212.5 57.5q140 0 227.5 -86t87.5 -221q0 -171 -131 -299t-302 -128q-139 0 -226.5 88t-87.5 224zM173 307q0 -88 53 -142.5t136 -54.5q109 0 197.5 89t88.5 208q0 86 -53 139.5t-136 53.5
q-110 0 -198 -87t-88 -206z" />
    <glyph glyph-name="Ocircumflex" unicode="&#xd4;" horiz-adv-x="798" 
d="M335 757l118 136h109l66 -136h-93l-34 81h-2l-66 -81h-98zM37 300q0 112 60 209.5t159.5 155t212.5 57.5q140 0 227.5 -86t87.5 -221q0 -171 -131 -299t-302 -128q-139 0 -226.5 88t-87.5 224zM173 307q0 -88 53 -142.5t136 -54.5q109 0 197.5 89t88.5 208
q0 86 -53 139.5t-136 53.5q-110 0 -198 -87t-88 -206z" />
    <glyph glyph-name="Otilde" unicode="&#xd5;" horiz-adv-x="798" 
d="M37 300q0 112 60 209.5t159.5 155t212.5 57.5q140 0 227.5 -86t87.5 -221q0 -171 -131 -299t-302 -128q-139 0 -226.5 88t-87.5 224zM173 307q0 -88 53 -142.5t136 -54.5q109 0 197.5 89t88.5 208q0 86 -53 139.5t-136 53.5q-110 0 -198 -87t-88 -206zM299 758
q24 137 132 137q34 0 55.5 -16.5t36.5 -32.5t33 -16q39 0 53 62h79q-24 -137 -132 -137q-34 0 -55.5 16.5t-36.5 32.5t-33 16q-20 0 -33.5 -17.5t-18.5 -44.5h-80z" />
    <glyph glyph-name="Odieresis" unicode="&#xd6;" horiz-adv-x="798" 
d="M521 777l23 116h89l-23 -116h-89zM342 777l23 116h88l-23 -116h-88zM37 300q0 112 60 209.5t159.5 155t212.5 57.5q140 0 227.5 -86t87.5 -221q0 -171 -131 -299t-302 -128q-139 0 -226.5 88t-87.5 224zM173 307q0 -88 53 -142.5t136 -54.5q109 0 197.5 89t88.5 208
q0 86 -53 139.5t-136 53.5q-110 0 -198 -87t-88 -206z" />
    <glyph glyph-name="multiply" unicode="&#xd7;" 
d="M28 69l197 217l-197 216l69 70l195 -214l195 214l69 -70l-198 -216l198 -217l-69 -69l-195 214l-195 -214z" />
    <glyph glyph-name="Oslash" unicode="&#xd8;" horiz-adv-x="798" 
d="M56 13l62 69q-81 86 -81 218q0 112 60 209.5t159.5 155t212.5 57.5q104 0 186 -53l61 67l50 -40l-62 -68q80 -85 80 -213q0 -171 -131 -299t-302 -128q-104 0 -183 52l-62 -67zM211 184l354 387q-48 29 -106 29q-110 0 -198 -87t-88 -206q0 -72 38 -123zM257 139
q44 -29 105 -29q109 0 197.5 89t88.5 208q0 68 -37 118z" />
    <glyph glyph-name="Ugrave" unicode="&#xd9;" horiz-adv-x="726" 
d="M70 206q0 28 6 58l58 295q4 22 4 23q0 17 -21 17h-40l21 111h120q65 0 65 -50q0 -13 -5 -33l-72 -370q-4 -17 -4 -37q0 -53 32.5 -81.5t90.5 -28.5q68 0 116 39t61 109l76 386q7 36 24.5 51t51.5 15h132l-21 -111h-45q-20 0 -24 -22l-66 -335q-22 -114 -106 -184
t-207 -70q-115 0 -181 60t-66 158zM407 757l-80 136h116l53 -136h-89z" />
    <glyph glyph-name="Uacute" unicode="&#xda;" horiz-adv-x="726" 
d="M403 757l102 136h124l-129 -136h-97zM70 206q0 28 6 58l58 295q4 22 4 23q0 17 -21 17h-40l21 111h120q65 0 65 -50q0 -13 -5 -33l-72 -370q-4 -17 -4 -37q0 -53 32.5 -81.5t90.5 -28.5q68 0 116 39t61 109l76 386q7 36 24.5 51t51.5 15h132l-21 -111h-45q-20 0 -24 -22
l-66 -335q-22 -114 -106 -184t-207 -70q-115 0 -181 60t-66 158z" />
    <glyph glyph-name="Ucircumflex" unicode="&#xdb;" horiz-adv-x="726" 
d="M302 757l118 136h109l66 -136h-93l-34 81h-2l-66 -81h-98zM70 206q0 28 6 58l58 295q4 22 4 23q0 17 -21 17h-40l21 111h120q65 0 65 -50q0 -13 -5 -33l-72 -370q-4 -17 -4 -37q0 -53 32.5 -81.5t90.5 -28.5q68 0 116 39t61 109l76 386q7 36 24.5 51t51.5 15h132
l-21 -111h-45q-20 0 -24 -22l-66 -335q-22 -114 -106 -184t-207 -70q-115 0 -181 60t-66 158z" />
    <glyph glyph-name="Udieresis" unicode="&#xdc;" horiz-adv-x="726" 
d="M489 777l23 116h89l-23 -116h-89zM310 777l23 116h88l-23 -116h-88zM70 206q0 28 6 58l58 295q4 22 4 23q0 17 -21 17h-40l21 111h120q65 0 65 -50q0 -13 -5 -33l-72 -370q-4 -17 -4 -37q0 -53 32.5 -81.5t90.5 -28.5q68 0 116 39t61 109l76 386q7 36 24.5 51t51.5 15
h132l-21 -111h-45q-20 0 -24 -22l-66 -335q-22 -114 -106 -184t-207 -70q-115 0 -181 60t-66 158z" />
    <glyph glyph-name="Yacute" unicode="&#xdd;" horiz-adv-x="618" 
d="M184 0l60 310l-116 265q-10 24 -36 24h-24l22 111h58q33 0 50.5 -10.5t31.5 -41.5l68 -156q7 -16 14 -36t10 -32l4 -12h2q28 44 56 80l122 156q23 30 44.5 41t51.5 11h83l-22 -111h-25q-24 0 -42 -22l-221 -267l-60 -310h-131zM345 757l102 136h124l-129 -136h-97z" />
    <glyph glyph-name="Thorn" unicode="&#xde;" horiz-adv-x="598" 
d="M37 0l112 577q4 22 -17 22h-43l21 111h129q57 0 57 -45q0 -11 -3 -23l-9 -47h117q91 0 145 -52t54 -139q0 -117 -81 -195t-192 -78h-133l-26 -131h-131zM215 242h106q61 0 101.5 43t40.5 110q0 42 -24.5 65.5t-69.5 23.5h-107z" />
    <glyph glyph-name="germandbls" unicode="&#xdf;" horiz-adv-x="610" 
d="M-33 0l21 107h34q21 0 26 22l79 409q17 86 88.5 135t159.5 49q85 0 139 -43t54 -110q0 -40 -19.5 -72.5t-43.5 -50.5t-43.5 -39.5t-19.5 -40.5q0 -20 19 -42t42 -40.5t42 -49t19 -64.5q0 -74 -60 -125.5t-140 -51.5q-41 0 -77 6.5t-51 12.5l-15 7l21 105q45 -23 111 -23
q32 0 57.5 17t25.5 51q0 22 -19.5 46t-42.5 41.5t-42.5 44.5t-19.5 56q0 34 20 64.5t44 49t44 42t20 45.5q0 24 -18.5 40t-52.5 16q-42 0 -75.5 -23.5t-42.5 -70.5l-88 -453q-8 -35 -26.5 -51t-53.5 -16h-116z" />
    <glyph glyph-name="agrave" unicode="&#xe0;" horiz-adv-x="548" 
d="M-6 123q0 68 50 114t123 64.5t165 18.5h18l2 10q3 15 3 31q0 63 -78 63q-71 0 -76 -34l-5 -27h-119l11 54q10 55 69 80t136 25q189 0 189 -148q0 -22 -7 -57l-33 -174q-4 -16 -4 -21q0 -15 19 -15h40l-21 -107h-108q-56 0 -56 42q0 14 9 48h-2q-2 -4 -7 -11t-21 -24.5
t-35 -31t-50 -24.5t-64 -11q-64 0 -106 35.5t-42 99.5zM121 142q0 -28 17 -44t45 -16q50 0 94.5 45.5t53.5 92.5l3 13h-21q-48 0 -88.5 -7t-72 -28.5t-31.5 -55.5zM272 574l-80 136h116l53 -136h-89z" />
    <glyph glyph-name="aacute" unicode="&#xe1;" horiz-adv-x="548" 
d="M-6 123q0 68 50 114t123 64.5t165 18.5h18l2 10q3 15 3 31q0 63 -78 63q-71 0 -76 -34l-5 -27h-119l11 54q10 55 69 80t136 25q189 0 189 -148q0 -22 -7 -57l-33 -174q-4 -16 -4 -21q0 -15 19 -15h40l-21 -107h-108q-56 0 -56 42q0 14 9 48h-2q-2 -4 -7 -11t-21 -24.5
t-35 -31t-50 -24.5t-64 -11q-64 0 -106 35.5t-42 99.5zM121 142q0 -28 17 -44t45 -16q50 0 94.5 45.5t53.5 92.5l3 13h-21q-48 0 -88.5 -7t-72 -28.5t-31.5 -55.5zM269 574l102 136h124l-129 -136h-97z" />
    <glyph glyph-name="acircumflex" unicode="&#xe2;" horiz-adv-x="548" 
d="M-6 123q0 68 50 114t123 64.5t165 18.5h18l2 10q3 15 3 31q0 63 -78 63q-71 0 -76 -34l-5 -27h-119l11 54q10 55 69 80t136 25q189 0 189 -148q0 -22 -7 -57l-33 -174q-4 -16 -4 -21q0 -15 19 -15h40l-21 -107h-108q-56 0 -56 42q0 14 9 48h-2q-2 -4 -7 -11t-21 -24.5
t-35 -31t-50 -24.5t-64 -11q-64 0 -106 35.5t-42 99.5zM121 142q0 -28 17 -44t45 -16q50 0 94.5 45.5t53.5 92.5l3 13h-21q-48 0 -88.5 -7t-72 -28.5t-31.5 -55.5zM168 574l118 136h109l66 -136h-93l-34 81h-2l-66 -81h-98z" />
    <glyph glyph-name="atilde" unicode="&#xe3;" horiz-adv-x="548" 
d="M-6 123q0 68 50 114t123 64.5t165 18.5h18l2 10q3 15 3 31q0 63 -78 63q-71 0 -76 -34l-5 -27h-119l11 54q10 55 69 80t136 25q189 0 189 -148q0 -22 -7 -57l-33 -174q-4 -16 -4 -21q0 -15 19 -15h40l-21 -107h-108q-56 0 -56 42q0 14 9 48h-2q-2 -4 -7 -11t-21 -24.5
t-35 -31t-50 -24.5t-64 -11q-64 0 -106 35.5t-42 99.5zM121 142q0 -28 17 -44t45 -16q50 0 94.5 45.5t53.5 92.5l3 13h-21q-48 0 -88.5 -7t-72 -28.5t-31.5 -55.5zM132 575q24 137 132 137q27 0 46.5 -10t29 -22.5t22 -22.5t27.5 -10q39 0 53 62h79q-24 -137 -132 -137
q-27 0 -46.5 10t-29 22.5t-22 22.5t-27.5 10q-20 0 -33.5 -17.5t-18.5 -44.5h-80z" />
    <glyph glyph-name="adieresis" unicode="&#xe4;" horiz-adv-x="548" 
d="M-6 123q0 68 50 114t123 64.5t165 18.5h18l2 10q3 15 3 31q0 63 -78 63q-71 0 -76 -34l-5 -27h-119l11 54q10 55 69 80t136 25q189 0 189 -148q0 -22 -7 -57l-33 -174q-4 -16 -4 -21q0 -15 19 -15h40l-21 -107h-108q-56 0 -56 42q0 14 9 48h-2q-2 -4 -7 -11t-21 -24.5
t-35 -31t-50 -24.5t-64 -11q-64 0 -106 35.5t-42 99.5zM121 142q0 -28 17 -44t45 -16q50 0 94.5 45.5t53.5 92.5l3 13h-21q-48 0 -88.5 -7t-72 -28.5t-31.5 -55.5zM354 594l23 116h89l-23 -116h-89zM175 594l23 116h88l-23 -116h-88z" />
    <glyph glyph-name="aring" unicode="&#xe5;" horiz-adv-x="548" 
d="M-6 123q0 68 50 114t123 64.5t165 18.5h18l2 10q3 15 3 31q0 63 -78 63q-71 0 -76 -34l-5 -27h-119l11 54q10 55 69 80t136 25q189 0 189 -148q0 -22 -7 -57l-33 -174q-4 -16 -4 -21q0 -15 19 -15h40l-21 -107h-108q-56 0 -56 42q0 14 9 48h-2q-2 -4 -7 -11t-21 -24.5
t-35 -31t-50 -24.5t-64 -11q-64 0 -106 35.5t-42 99.5zM121 142q0 -28 17 -44t45 -16q50 0 94.5 45.5t53.5 92.5l3 13h-21q-48 0 -88.5 -7t-72 -28.5t-31.5 -55.5zM318 561q-33 0 -57 18t-24 50q0 42 31.5 66.5t70.5 24.5q34 0 58 -18.5t24 -51.5q0 -40 -32 -64.5t-71 -24.5
zM322 606q18 0 30 12t12 31q0 27 -28 27q-16 0 -28.5 -12.5t-12.5 -31.5q0 -26 27 -26z" />
    <glyph glyph-name="ae" unicode="&#xe6;" horiz-adv-x="848" 
d="M-5 125q0 46 22 82t55 56.5t78 33t83.5 17t78.5 4.5h35q4 18 4 37q0 69 -75 69q-71 0 -77 -34l-6 -27h-118l10 54q6 31 28 53t54 32.5t62.5 15t63.5 4.5q103 0 146 -73h2q75 73 174 73q100 0 152.5 -52.5t52.5 -141.5q0 -20 -4.5 -44t-9.5 -38l-4 -14h-348q-1 -10 -1 -21
q0 -54 33.5 -86.5t91.5 -32.5q37 0 76 14t60 28l20 14l34 -93q-10 -8 -27.5 -19t-69.5 -29.5t-102 -18.5q-76 0 -130 29.5t-80 81.5h-2q-6 -12 -18.5 -27t-36 -36t-62 -34.5t-83.5 -13.5q-67 0 -114.5 37.5t-47.5 99.5zM474 318h220q1 12 1 23q0 39 -22.5 61t-58.5 22
q-48 0 -84.5 -28t-55.5 -78zM123 140q0 -23 17 -38t49 -15q48 0 89 42t51 92l2 10h-35q-27 0 -52 -3t-55 -11.5t-48 -28t-18 -48.5z" />
    <glyph glyph-name="ccedilla" unicode="&#xe7;" horiz-adv-x="536" 
d="M151 -85l38 82q-81 19 -125.5 79t-44.5 142q0 123 89.5 213.5t220.5 90.5q32 0 64.5 -6t64.5 -19.5t49 -40t10 -62.5l-9 -47h-110l3 16q5 25 -19.5 38.5t-60.5 13.5q-72 0 -122.5 -56t-50.5 -129q0 -57 33.5 -94.5t100.5 -37.5q42 0 81.5 15t57.5 29l18 15l34 -98
q-3 -3 -8.5 -7.5t-24.5 -17t-41 -22t-58 -17t-74 -7.5q-13 0 -18 1l-13 -34q23 -4 42 -21t19 -45q0 -50 -38 -73.5t-85 -23.5q-16 0 -32 2t-24 4l-8 1l13 70q20 -8 42 -8q49 0 49 33q0 23 -42 23z" />
    <glyph glyph-name="egrave" unicode="&#xe8;" horiz-adv-x="547" 
d="M19 207q0 131 85 223t211 92q99 0 151 -52.5t52 -140.5q0 -20 -4 -44.5t-8 -38.5l-5 -14h-351q-3 -12 -3 -26q0 -49 34 -80t93 -31q36 0 75.5 14t60.5 28l22 14l34 -96q-10 -8 -27.5 -19t-70 -29.5t-102.5 -18.5q-116 0 -181.5 61.5t-65.5 157.5zM167 317h223q3 13 3 23
q0 39 -22 61.5t-59 22.5q-49 0 -88 -29t-57 -78zM293 574l-80 136h116l53 -136h-89z" />
    <glyph glyph-name="eacute" unicode="&#xe9;" horiz-adv-x="547" 
d="M289 574l102 136h124l-129 -136h-97zM19 207q0 131 85 223t211 92q99 0 151 -52.5t52 -140.5q0 -20 -4 -44.5t-8 -38.5l-5 -14h-351q-3 -12 -3 -26q0 -49 34 -80t93 -31q36 0 75.5 14t60.5 28l22 14l34 -96q-10 -8 -27.5 -19t-70 -29.5t-102.5 -18.5q-116 0 -181.5 61.5
t-65.5 157.5zM167 317h223q3 13 3 23q0 39 -22 61.5t-59 22.5q-49 0 -88 -29t-57 -78z" />
    <glyph glyph-name="ecircumflex" unicode="&#xea;" horiz-adv-x="547" 
d="M188 574l118 136h109l66 -136h-93l-34 81h-2l-66 -81h-98zM19 207q0 131 85 223t211 92q99 0 151 -52.5t52 -140.5q0 -20 -4 -44.5t-8 -38.5l-5 -14h-351q-3 -12 -3 -26q0 -49 34 -80t93 -31q36 0 75.5 14t60.5 28l22 14l34 -96q-10 -8 -27.5 -19t-70 -29.5t-102.5 -18.5
q-116 0 -181.5 61.5t-65.5 157.5zM167 317h223q3 13 3 23q0 39 -22 61.5t-59 22.5q-49 0 -88 -29t-57 -78z" />
    <glyph glyph-name="edieresis" unicode="&#xeb;" horiz-adv-x="547" 
d="M375 594l23 116h89l-23 -116h-89zM196 594l23 116h88l-23 -116h-88zM19 207q0 131 85 223t211 92q99 0 151 -52.5t52 -140.5q0 -20 -4 -44.5t-8 -38.5l-5 -14h-351q-3 -12 -3 -26q0 -49 34 -80t93 -31q36 0 75.5 14t60.5 28l22 14l34 -96q-10 -8 -27.5 -19t-70 -29.5
t-102.5 -18.5q-116 0 -181.5 61.5t-65.5 157.5zM167 317h223q3 13 3 23q0 39 -22 61.5t-59 22.5q-49 0 -88 -29t-57 -78z" />
    <glyph glyph-name="igrave" unicode="&#xec;" horiz-adv-x="289" 
d="M35 49q0 8 3 23l57 293q3 15 3 22q0 15 -18 15h-40l21 108h117q60 0 60 -48q0 -9 -4 -31l-57 -293q-2 -10 -2 -15q0 -16 18 -16h39l-20 -107h-117q-60 0 -60 49zM145 574l-80 136h116l53 -136h-89z" />
    <glyph glyph-name="iacute" unicode="&#xed;" horiz-adv-x="289" 
d="M140 574l102 136h124l-129 -136h-97zM35 49q0 8 3 23l57 293q3 15 3 22q0 15 -18 15h-40l21 108h117q60 0 60 -48q0 -9 -4 -31l-57 -293q-2 -10 -2 -15q0 -16 18 -16h39l-20 -107h-117q-60 0 -60 49z" />
    <glyph glyph-name="icircumflex" unicode="&#xee;" horiz-adv-x="289" 
d="M40 574l118 136h109l66 -136h-93l-34 81h-2l-66 -81h-98zM35 49q0 8 3 23l57 293q3 15 3 22q0 15 -18 15h-40l21 108h117q60 0 60 -48q0 -9 -4 -31l-57 -293q-2 -10 -2 -15q0 -16 18 -16h39l-20 -107h-117q-60 0 -60 49z" />
    <glyph glyph-name="idieresis" unicode="&#xef;" horiz-adv-x="289" 
d="M227 594l23 116h89l-23 -116h-89zM48 594l23 116h88l-23 -116h-88zM35 49q0 8 3 23l57 293q3 15 3 22q0 15 -18 15h-40l21 108h117q60 0 60 -48q0 -9 -4 -31l-57 -293q-2 -10 -2 -15q0 -16 18 -16h39l-20 -107h-117q-60 0 -60 49z" />
    <glyph glyph-name="eth" unicode="&#xf0;" horiz-adv-x="566" 
d="M14 195q0 105 78.5 187.5t202.5 82.5q29 0 55.5 -8.5t37.5 -16.5l12 -9h2q-16 66 -81 119l-198 -78l7 64l132 52q-59 32 -115 46l51 92q117 -30 196 -88l163 64l-5 -64l-111 -43q97 -100 97 -246q0 -44 -10 -91t-33.5 -95.5t-57.5 -87t-86 -63t-114 -24.5
q-106 0 -164.5 59t-58.5 148zM143 197q0 -45 23.5 -73.5t71.5 -28.5q70 0 116.5 59.5t46.5 124.5q0 40 -26.5 63.5t-73.5 23.5q-69 0 -113.5 -50.5t-44.5 -118.5z" />
    <glyph glyph-name="ntilde" unicode="&#xf1;" horiz-adv-x="641" 
d="M25 0l71 368q3 8 3 18q0 16 -19 16h-39l21 108h116q56 0 56 -48q0 -18 -10 -52h2q30 43 81 77.5t120 34.5t108 -36t39 -105q0 -23 -7 -61l-35 -182q-2 -10 -2 -15q0 -16 18 -16h39l-20 -107h-118q-60 0 -60 49q0 10 3 22l45 231q4 26 4 39q0 65 -66 65q-63 0 -113.5 -53
t-64.5 -120l-46 -233h-126zM197 575q24 137 132 137q27 0 46.5 -10t29 -22.5t22 -22.5t27.5 -10q39 0 53 62h79q-24 -137 -132 -137q-27 0 -46.5 10t-29 22.5t-22 22.5t-27.5 10q-20 0 -33.5 -17.5t-18.5 -44.5h-80z" />
    <glyph glyph-name="ograve" unicode="&#xf2;" horiz-adv-x="621" 
d="M18 214q0 130 97.5 219t227.5 89q108 0 176 -62.5t68 -162.5q0 -131 -98 -220t-227 -89q-107 0 -175.5 62.5t-68.5 163.5zM147 220q0 -57 34.5 -90.5t90.5 -33.5q71 0 128.5 55.5t57.5 137.5q0 56 -34.5 90.5t-89.5 34.5q-72 0 -129.5 -56.5t-57.5 -137.5zM320 574
l-80 136h116l53 -136h-89z" />
    <glyph glyph-name="oacute" unicode="&#xf3;" horiz-adv-x="621" 
d="M316 574l102 136h124l-129 -136h-97zM18 214q0 130 97.5 219t227.5 89q108 0 176 -62.5t68 -162.5q0 -131 -98 -220t-227 -89q-107 0 -175.5 62.5t-68.5 163.5zM147 220q0 -57 34.5 -90.5t90.5 -33.5q71 0 128.5 55.5t57.5 137.5q0 56 -34.5 90.5t-89.5 34.5
q-72 0 -129.5 -56.5t-57.5 -137.5z" />
    <glyph glyph-name="ocircumflex" unicode="&#xf4;" horiz-adv-x="621" 
d="M215 574l118 136h109l66 -136h-93l-34 81h-2l-66 -81h-98zM18 214q0 130 97.5 219t227.5 89q108 0 176 -62.5t68 -162.5q0 -131 -98 -220t-227 -89q-107 0 -175.5 62.5t-68.5 163.5zM147 220q0 -57 34.5 -90.5t90.5 -33.5q71 0 128.5 55.5t57.5 137.5q0 56 -34.5 90.5
t-89.5 34.5q-72 0 -129.5 -56.5t-57.5 -137.5z" />
    <glyph glyph-name="otilde" unicode="&#xf5;" horiz-adv-x="621" 
d="M18 214q0 130 97.5 219t227.5 89q108 0 176 -62.5t68 -162.5q0 -131 -98 -220t-227 -89q-107 0 -175.5 62.5t-68.5 163.5zM147 220q0 -57 34.5 -90.5t90.5 -33.5q71 0 128.5 55.5t57.5 137.5q0 56 -34.5 90.5t-89.5 34.5q-72 0 -129.5 -56.5t-57.5 -137.5zM179 575
q24 137 132 137q27 0 46.5 -10t29 -22.5t22 -22.5t27.5 -10q39 0 53 62h79q-24 -137 -132 -137q-27 0 -46.5 10t-29 22.5t-22 22.5t-27.5 10q-20 0 -33.5 -17.5t-18.5 -44.5h-80z" />
    <glyph glyph-name="odieresis" unicode="&#xf6;" horiz-adv-x="621" 
d="M402 594l23 116h89l-23 -116h-89zM223 594l23 116h88l-23 -116h-88zM18 214q0 130 97.5 219t227.5 89q108 0 176 -62.5t68 -162.5q0 -131 -98 -220t-227 -89q-107 0 -175.5 62.5t-68.5 163.5zM147 220q0 -57 34.5 -90.5t90.5 -33.5q71 0 128.5 55.5t57.5 137.5
q0 56 -34.5 90.5t-89.5 34.5q-72 0 -129.5 -56.5t-57.5 -137.5z" />
    <glyph glyph-name="divide" unicode="&#xf7;" 
d="M233 437v108h115v-108h-115zM30 236v99h521v-99h-521zM233 27v108h115v-108h-115z" />
    <glyph glyph-name="oslash" unicode="&#xf8;" horiz-adv-x="617" 
d="M27 -1l54 57q-64 66 -64 158q0 129 96 218.5t220 89.5q81 0 144 -37l57 61l46 -39l-56 -60q59 -64 59 -150q0 -130 -96 -219.5t-219 -89.5q-76 0 -138 32l-58 -61zM168 150l228 247q-31 17 -65 17q-71 0 -128 -56.5t-57 -137.5q0 -40 22 -70zM212 109q24 -13 58 -13
q71 0 128 55.5t57 137.5q0 28 -20 62z" />
    <glyph glyph-name="ugrave" unicode="&#xf9;" horiz-adv-x="632" 
d="M48 128q0 28 6 62l35 182q2 10 2 15q0 15 -17 15h-40l20 108h118q60 0 60 -50q0 -5 -2 -21l-46 -232q-4 -24 -4 -38q0 -65 63 -65t113 53t63 120l46 233h127l-72 -368q-2 -12 -2 -18q0 -17 18 -17h39l-21 -107h-116q-56 0 -56 48q0 9 10 52h-2q-29 -43 -80 -77.5
t-119 -34.5q-67 0 -105 36t-38 104zM318 574l-80 136h116l53 -136h-89z" />
    <glyph glyph-name="uacute" unicode="&#xfa;" horiz-adv-x="632" 
d="M314 574l102 136h124l-129 -136h-97zM48 128q0 28 6 62l35 182q2 10 2 15q0 15 -17 15h-40l20 108h118q60 0 60 -50q0 -5 -2 -21l-46 -232q-4 -24 -4 -38q0 -65 63 -65t113 53t63 120l46 233h127l-72 -368q-2 -12 -2 -18q0 -17 18 -17h39l-21 -107h-116q-56 0 -56 48
q0 9 10 52h-2q-29 -43 -80 -77.5t-119 -34.5q-67 0 -105 36t-38 104z" />
    <glyph glyph-name="ucircumflex" unicode="&#xfb;" horiz-adv-x="632" 
d="M213 574l118 136h109l66 -136h-93l-34 81h-2l-66 -81h-98zM48 128q0 28 6 62l35 182q2 10 2 15q0 15 -17 15h-40l20 108h118q60 0 60 -50q0 -5 -2 -21l-46 -232q-4 -24 -4 -38q0 -65 63 -65t113 53t63 120l46 233h127l-72 -368q-2 -12 -2 -18q0 -17 18 -17h39l-21 -107
h-116q-56 0 -56 48q0 9 10 52h-2q-29 -43 -80 -77.5t-119 -34.5q-67 0 -105 36t-38 104z" />
    <glyph glyph-name="udieresis" unicode="&#xfc;" horiz-adv-x="632" 
d="M400 594l23 116h89l-23 -116h-89zM221 594l23 116h88l-23 -116h-88zM48 128q0 28 6 62l35 182q2 10 2 15q0 15 -17 15h-40l20 108h118q60 0 60 -50q0 -5 -2 -21l-46 -232q-4 -24 -4 -38q0 -65 63 -65t113 53t63 120l46 233h127l-72 -368q-2 -12 -2 -18q0 -17 18 -17h39
l-21 -107h-116q-56 0 -56 48q0 9 10 52h-2q-29 -43 -80 -77.5t-119 -34.5q-67 0 -105 36t-38 104z" />
    <glyph glyph-name="yacute" unicode="&#xfd;" horiz-adv-x="555" 
d="M42 -210q-33 0 -64 13t-46 26l-14 13l52 90q36 -36 75 -36q53 0 93 66l26 41l-94 381q-3 11 -8 14.5t-16 3.5h-15l21 108h86q42 0 51 -48l50 -255l5 -68h2q16 42 30 68l136 255q26 48 78 48h91l-21 -108h-15q-22 0 -32 -18l-275 -465q-77 -129 -196 -129zM275 574
l102 136h124l-129 -136h-97z" />
    <glyph glyph-name="thorn" unicode="&#xfe;" horiz-adv-x="599" 
d="M-35 -200l149 765q3 15 3 22q0 15 -18 15h-40l21 108h117q60 0 60 -48q0 -8 -4 -30l-23 -119q-10 -46 -16 -63h2q63 72 156 72q90 0 141.5 -58t51.5 -159q0 -135 -84.5 -226t-194.5 -91q-100 0 -144 75h-2q-2 -20 -7 -46l-41 -217h-127zM172 211q0 -51 25 -83.5t74 -32.5
q62 0 113.5 56t51.5 144q0 56 -27 87t-74 31q-64 0 -113.5 -60t-49.5 -142z" />
    <glyph glyph-name="ydieresis" unicode="&#xff;" horiz-adv-x="555" 
d="M42 -210q-33 0 -64 13t-46 26l-14 13l52 90q36 -36 75 -36q53 0 93 66l26 41l-94 381q-3 11 -8 14.5t-16 3.5h-15l21 108h86q42 0 51 -48l50 -255l5 -68h2q16 42 30 68l136 255q26 48 78 48h91l-21 -108h-15q-22 0 -32 -18l-275 -465q-77 -129 -196 -129zM361 594l23 116
h89l-23 -116h-89zM182 594l23 116h88l-23 -116h-88z" />
    <glyph glyph-name="Amacron" unicode="&#x100;" horiz-adv-x="676" 
d="M-43 0l22 111h18q21 0 32 22l323 577h137l99 -578q2 -13 6.5 -17t16.5 -4h19l-22 -111h-78q-35 0 -49.5 12t-19.5 46l-20 124h-239l-69 -124q-18 -34 -36 -46t-51 -12h-89zM252 290h180l-27 178l-7 106h-2q-28 -67 -49 -106zM307 783l16 84h263l-17 -84h-262z" />
    <glyph glyph-name="amacron" unicode="&#x101;" horiz-adv-x="548" 
d="M-6 123q0 68 50 114t123 64.5t165 18.5h18l2 10q3 15 3 31q0 63 -78 63q-71 0 -76 -34l-5 -27h-119l11 54q10 55 69 80t136 25q189 0 189 -148q0 -22 -7 -57l-33 -174q-4 -16 -4 -21q0 -15 19 -15h40l-21 -107h-108q-56 0 -56 42q0 14 9 48h-2q-2 -4 -7 -11t-21 -24.5
t-35 -31t-50 -24.5t-64 -11q-64 0 -106 35.5t-42 99.5zM121 142q0 -28 17 -44t45 -16q50 0 94.5 45.5t53.5 92.5l3 13h-21q-48 0 -88.5 -7t-72 -28.5t-31.5 -55.5zM191 600l16 84h263l-17 -84h-262z" />
    <glyph glyph-name="Abreve" unicode="&#x102;" horiz-adv-x="676" 
d="M-43 0l22 111h18q21 0 32 22l323 577h137l99 -578q2 -13 6.5 -17t16.5 -4h19l-22 -111h-78q-35 0 -49.5 12t-19.5 46l-20 124h-239l-69 -124q-18 -34 -36 -46t-51 -12h-89zM252 290h180l-27 178l-7 106h-2q-28 -67 -49 -106zM441 753q-59 0 -98.5 37.5t-29.5 91.5l3 11
h81l-2 -12q-5 -25 7.5 -42t41.5 -17q59 0 73 60l3 11h82l-4 -17q-11 -58 -56 -90.5t-101 -32.5z" />
    <glyph glyph-name="abreve" unicode="&#x103;" horiz-adv-x="548" 
d="M-6 123q0 68 50 114t123 64.5t165 18.5h18l2 10q3 15 3 31q0 63 -78 63q-71 0 -76 -34l-5 -27h-119l11 54q10 55 69 80t136 25q189 0 189 -148q0 -22 -7 -57l-33 -174q-4 -16 -4 -21q0 -15 19 -15h40l-21 -107h-108q-56 0 -56 42q0 14 9 48h-2q-2 -4 -7 -11t-21 -24.5
t-35 -31t-50 -24.5t-64 -11q-64 0 -106 35.5t-42 99.5zM121 142q0 -28 17 -44t45 -16q50 0 94.5 45.5t53.5 92.5l3 13h-21q-48 0 -88.5 -7t-72 -28.5t-31.5 -55.5zM325 570q-59 0 -98.5 37.5t-29.5 91.5l3 11h81l-2 -12q-5 -25 7.5 -42t41.5 -17q59 0 73 60l3 11h82l-4 -17
q-11 -58 -56 -90.5t-101 -32.5z" />
    <glyph glyph-name="Aogonek" unicode="&#x104;" horiz-adv-x="676" 
d="M422 -119q0 66 85 120q-21 4 -31 16.5t-15 40.5l-20 124h-239l-69 -124q-18 -34 -36 -46t-51 -12h-89l22 111h18q21 0 32 22l323 577h137l99 -578q2 -13 6.5 -17t16.5 -4h19l-22 -111q-17 0 -51.5 -31.5t-34.5 -57.5q0 -32 52 -36l-38 -84q-46 5 -80 27.5t-34 62.5z
M252 290h180l-27 178l-7 106h-2q-28 -67 -49 -106z" />
    <glyph glyph-name="aogonek" unicode="&#x105;" horiz-adv-x="544" 
d="M288 -119q0 66 83 119q-60 1 -60 42q0 14 9 48h-2q-2 -4 -7 -11t-21 -24.5t-35 -31t-50 -24.5t-64 -11q-64 0 -106 35.5t-42 99.5q0 68 50 114t123 64.5t165 18.5h18l2 12q3 14 3 29q0 63 -78 63q-71 0 -76 -34l-5 -27h-119l11 54q10 55 69 80t136 25q189 0 189 -148
q0 -22 -7 -57l-33 -174q-4 -16 -4 -21q0 -15 19 -15h40l-21 -107q-17 0 -52 -31.5t-35 -57.5q0 -32 53 -36l-39 -84q-46 5 -80 27.5t-34 62.5zM120 142q0 -28 17 -44t45 -16q50 0 94.5 45.5t53.5 92.5l3 13h-21q-48 0 -88.5 -7t-72 -28.5t-31.5 -55.5z" />
    <glyph glyph-name="Cacute" unicode="&#x106;" horiz-adv-x="698" 
d="M425 757l102 136h124l-129 -136h-97zM38 299q0 109 55 206t153 157t214 60q57 0 111 -13.5t96 -47.5t42 -82q0 -8 -7 -50l-9 -45h-118l8 37q6 29 -17.5 48t-52.5 25t-58 6q-113 0 -197.5 -84.5t-84.5 -208.5q0 -89 53 -143t141 -54q127 0 219 82l56 -102
q-52 -48 -130 -75t-159 -27q-135 0 -225 86t-90 225z" />
    <glyph glyph-name="cacute" unicode="&#x107;" horiz-adv-x="537" 
d="M295 574l102 136h124l-129 -136h-97zM19 218q0 123 89.5 213.5t220.5 90.5q32 0 64.5 -6t64.5 -19.5t49 -40t10 -62.5l-9 -47h-110l3 16q5 25 -19.5 38.5t-60.5 13.5q-72 0 -122.5 -56t-50.5 -129q0 -57 33.5 -94.5t100.5 -37.5q42 0 81.5 15t57.5 29l18 15l34 -98
q-3 -3 -8.5 -7.5t-24.5 -17t-41 -22t-58 -17t-74 -7.5q-118 0 -183 65t-65 165z" />
    <glyph glyph-name="Ccircumflex" unicode="&#x108;" horiz-adv-x="698" 
d="M324 757l118 136h109l66 -136h-93l-34 81h-2l-66 -81h-98zM38 299q0 109 55 206t153 157t214 60q57 0 111 -13.5t96 -47.5t42 -82q0 -8 -7 -50l-9 -45h-118l8 37q6 29 -17.5 48t-52.5 25t-58 6q-113 0 -197.5 -84.5t-84.5 -208.5q0 -89 53 -143t141 -54q127 0 219 82
l56 -102q-52 -48 -130 -75t-159 -27q-135 0 -225 86t-90 225z" />
    <glyph glyph-name="ccircumflex" unicode="&#x109;" horiz-adv-x="537" 
d="M195 574l118 136h109l66 -136h-93l-34 81h-2l-66 -81h-98zM19 218q0 123 89.5 213.5t220.5 90.5q32 0 64.5 -6t64.5 -19.5t49 -40t10 -62.5l-9 -47h-110l3 16q5 25 -19.5 38.5t-60.5 13.5q-72 0 -122.5 -56t-50.5 -129q0 -57 33.5 -94.5t100.5 -37.5q42 0 81.5 15
t57.5 29l18 15l34 -98q-3 -3 -8.5 -7.5t-24.5 -17t-41 -22t-58 -17t-74 -7.5q-118 0 -183 65t-65 165z" />
    <glyph glyph-name="Cdotaccent" unicode="&#x10a;" horiz-adv-x="698" 
d="M38 299q0 109 55 206t153 157t214 60q57 0 111 -13.5t96 -47.5t42 -82q0 -8 -7 -50l-9 -45h-118l8 37q6 29 -17.5 48t-52.5 25t-58 6q-113 0 -197.5 -84.5t-84.5 -208.5q0 -89 53 -143t141 -54q127 0 219 82l56 -102q-52 -48 -130 -75t-159 -27q-135 0 -225 86t-90 225z
M422 777l23 116h110l-23 -116h-110z" />
    <glyph glyph-name="cdotaccent" unicode="&#x10b;" horiz-adv-x="537" 
d="M19 218q0 123 89.5 213.5t220.5 90.5q32 0 64.5 -6t64.5 -19.5t49 -40t10 -62.5l-9 -47h-110l3 16q5 25 -19.5 38.5t-60.5 13.5q-72 0 -122.5 -56t-50.5 -129q0 -57 33.5 -94.5t100.5 -37.5q42 0 81.5 15t57.5 29l18 15l34 -98q-3 -3 -8.5 -7.5t-24.5 -17t-41 -22
t-58 -17t-74 -7.5q-118 0 -183 65t-65 165zM292 594l23 116h110l-23 -116h-110z" />
    <glyph glyph-name="Ccaron" unicode="&#x10c;" horiz-adv-x="698" 
d="M421 757l-65 136h91l35 -81h2l66 81h99l-119 -136h-109zM38 299q0 109 55 206t153 157t214 60q57 0 111 -13.5t96 -47.5t42 -82q0 -8 -7 -50l-9 -45h-118l8 37q6 29 -17.5 48t-52.5 25t-58 6q-113 0 -197.5 -84.5t-84.5 -208.5q0 -89 53 -143t141 -54q127 0 219 82
l56 -102q-52 -48 -130 -75t-159 -27q-135 0 -225 86t-90 225z" />
    <glyph glyph-name="ccaron" unicode="&#x10d;" horiz-adv-x="537" 
d="M292 574l-65 136h91l35 -81h2l66 81h99l-119 -136h-109zM19 218q0 123 89.5 213.5t220.5 90.5q32 0 64.5 -6t64.5 -19.5t49 -40t10 -62.5l-9 -47h-110l3 16q5 25 -19.5 38.5t-60.5 13.5q-72 0 -122.5 -56t-50.5 -129q0 -57 33.5 -94.5t100.5 -37.5q42 0 81.5 15t57.5 29
l18 15l34 -98q-3 -3 -8.5 -7.5t-24.5 -17t-41 -22t-58 -17t-74 -7.5q-118 0 -183 65t-65 165z" />
    <glyph glyph-name="Dcaron" unicode="&#x10e;" horiz-adv-x="718" 
d="M360 757l-65 136h91l35 -81h2l66 81h99l-119 -136h-109zM49 49q0 12 5 37l100 513h-65l21 111h277q148 0 231 -74.5t83 -215.5q0 -179 -122 -299.5t-305 -120.5h-162q-63 0 -63 49zM194 126q0 -15 18 -15h64q126 0 207.5 86t81.5 214q0 188 -194 188h-86l-88 -450
q-3 -13 -3 -23z" />
    <glyph glyph-name="dcaron" unicode="&#x10f;" horiz-adv-x="621" 
d="M671 709h94q2 -7 2 -18q0 -58 -47 -127h-85q39 70 39 114q0 14 -3 31zM19 202q0 138 83.5 229t195.5 91q47 0 87 -19.5t56 -57.5h2q1 16 4 31l17 89q3 13 3 22q0 15 -18 15h-39l21 108h117q60 0 60 -47q0 -11 -4 -31l-95 -488q-3 -12 -3 -22q0 -15 19 -15h40l-22 -107
h-106q-55 0 -55 42q0 16 7 41h-2q-67 -95 -175 -95q-91 0 -142 57.5t-51 156.5zM147 213q0 -55 27 -86.5t72 -31.5q67 0 116 62t49 140q0 51 -25 83.5t-73 32.5q-64 0 -115 -56.5t-51 -143.5z" />
    <glyph glyph-name="Dcroat" unicode="&#x110;" horiz-adv-x="721" 
d="M52 49q0 12 5 37l41 215h-48l20 105h48l38 193h-65l22 111h277q148 0 231 -74.5t83 -215.5q0 -179 -122.5 -299.5t-305.5 -120.5h-162q-62 0 -62 49zM196 126q0 -15 19 -15h63q126 0 208 86t82 214q0 188 -195 188h-86l-38 -193h123l-20 -105h-123l-29 -152
q-4 -18 -4 -23z" />
    <glyph glyph-name="dcroat" unicode="&#x111;" horiz-adv-x="621" 
d="M19 203q0 138 84 228.5t196 90.5q47 0 86.5 -19.5t55.5 -57.5h2q1 16 4 31l16 83h-126l14 76h127l14 75h127l-15 -75h74l-14 -76h-74l-81 -415q-3 -12 -3 -22q0 -15 19 -15h40l-22 -107h-106q-55 0 -55 41q0 17 7 42h-2q-67 -95 -175 -95q-91 0 -142 57.5t-51 157.5z
M147 213q0 -55 27 -86.5t72 -31.5q67 0 116 62t49 140q0 51 -25 83.5t-73 32.5q-64 0 -115 -56.5t-51 -143.5z" />
    <glyph glyph-name="Emacron" unicode="&#x112;" horiz-adv-x="583" 
d="M49 49q0 12 5 37l100 513h-65l21 111h420q65 0 65 -50q0 -9 -4 -33l-18 -93h-119l6 26q3 16 3 23q0 16 -21 16h-157l-36 -186h230l-22 -111h-230l-30 -153q-3 -13 -3 -23q0 -15 18 -15h164q21 0 26 22l9 43h118l-22 -112q-11 -64 -76 -64h-319q-63 0 -63 49zM257 783
l16 84h263l-17 -84h-262z" />
    <glyph glyph-name="emacron" unicode="&#x113;" horiz-adv-x="547" 
d="M19 207q0 131 85 223t211 92q99 0 151 -52.5t52 -140.5q0 -20 -4 -44.5t-8 -38.5l-5 -14h-351q-3 -12 -3 -26q0 -49 34 -80t93 -31q36 0 75.5 14t60.5 28l22 14l34 -96q-10 -8 -27.5 -19t-70 -29.5t-102.5 -18.5q-116 0 -181.5 61.5t-65.5 157.5zM167 317h223q3 13 3 23
q0 39 -22 61.5t-59 22.5q-49 0 -88 -29t-57 -78zM212 600l16 84h263l-17 -84h-262z" />
    <glyph glyph-name="Ebreve" unicode="&#x114;" horiz-adv-x="583" 
d="M49 49q0 12 5 37l100 513h-65l21 111h420q65 0 65 -50q0 -9 -4 -33l-18 -93h-119l6 26q3 16 3 23q0 16 -21 16h-157l-36 -186h230l-22 -111h-230l-30 -153q-3 -13 -3 -23q0 -15 18 -15h164q21 0 26 22l9 43h118l-22 -112q-11 -64 -76 -64h-319q-63 0 -63 49zM390 753
q-59 0 -98.5 37.5t-29.5 91.5l3 11h81l-2 -12q-5 -25 7.5 -42t41.5 -17q59 0 73 60l3 11h82l-4 -17q-11 -58 -56 -90.5t-101 -32.5z" />
    <glyph glyph-name="ebreve" unicode="&#x115;" horiz-adv-x="547" 
d="M19 207q0 131 85 223t211 92q99 0 151 -52.5t52 -140.5q0 -20 -4 -44.5t-8 -38.5l-5 -14h-351q-3 -12 -3 -26q0 -49 34 -80t93 -31q36 0 75.5 14t60.5 28l22 14l34 -96q-10 -8 -27.5 -19t-70 -29.5t-102.5 -18.5q-116 0 -181.5 61.5t-65.5 157.5zM167 317h223q3 13 3 23
q0 39 -22 61.5t-59 22.5q-49 0 -88 -29t-57 -78zM345 570q-59 0 -98.5 37.5t-29.5 91.5l3 11h81l-2 -12q-5 -25 7.5 -42t41.5 -17q59 0 73 60l3 11h82l-4 -17q-11 -58 -56 -90.5t-101 -32.5z" />
    <glyph glyph-name="Edotaccent" unicode="&#x116;" horiz-adv-x="583" 
d="M49 49q0 12 5 37l100 513h-65l21 111h420q65 0 65 -50q0 -9 -4 -33l-18 -93h-119l6 26q3 16 3 23q0 16 -21 16h-157l-36 -186h230l-22 -111h-230l-30 -153q-3 -13 -3 -23q0 -15 18 -15h164q21 0 26 22l9 43h118l-22 -112q-11 -64 -76 -64h-319q-63 0 -63 49zM331 777
l23 116h110l-23 -116h-110z" />
    <glyph glyph-name="edotaccent" unicode="&#x117;" horiz-adv-x="547" 
d="M19 207q0 131 85 223t211 92q99 0 151 -52.5t52 -140.5q0 -20 -4 -44.5t-8 -38.5l-5 -14h-351q-3 -12 -3 -26q0 -49 34 -80t93 -31q36 0 75.5 14t60.5 28l22 14l34 -96q-10 -8 -27.5 -19t-70 -29.5t-102.5 -18.5q-116 0 -181.5 61.5t-65.5 157.5zM167 317h223q3 13 3 23
q0 39 -22 61.5t-59 22.5q-49 0 -88 -29t-57 -78zM286 594l23 116h110l-23 -116h-110z" />
    <glyph glyph-name="Eogonek" unicode="&#x118;" horiz-adv-x="583" 
d="M49 49q0 12 5 37l100 513h-65l21 111h420q65 0 65 -50q0 -9 -4 -33l-18 -93h-119l6 26q3 16 3 23q0 16 -21 16h-157l-36 -186h230l-22 -111h-230l-30 -153q-3 -13 -3 -23q0 -15 18 -15h164q21 0 26 22l9 43h118l-22 -112q-8 -44 -38 -57q-29 -15 -59.5 -42t-30.5 -54
q0 -32 53 -36l-38 -84q-47 5 -81 27.5t-34 62.5q0 64 87 119h-254q-63 0 -63 49z" />
    <glyph glyph-name="eogonek" unicode="&#x119;" horiz-adv-x="546" 
d="M19 207q0 131 84.5 223t211.5 92q99 0 150.5 -52.5t51.5 -140.5q0 -20 -4.5 -44.5t-8.5 -38.5l-5 -14h-351q-2 -10 -2 -21q0 -51 34 -83.5t94 -32.5q36 0 75.5 14t60.5 28l22 14l34 -96q-25 -20 -63 -36q-19 -11 -39 -25.5t-42 -39t-22 -43.5q0 -32 53 -36l-38 -84
q-46 5 -80.5 27.5t-34.5 62.5q0 57 69 108q-115 -1 -182.5 59.5t-67.5 158.5zM167 317h224q2 13 2 23q0 39 -22 61.5t-59 22.5q-48 0 -87 -29t-58 -78z" />
    <glyph glyph-name="Ecaron" unicode="&#x11a;" horiz-adv-x="583" 
d="M330 757l-65 136h91l35 -81h2l66 81h99l-119 -136h-109zM49 49q0 12 5 37l100 513h-65l21 111h420q65 0 65 -50q0 -9 -4 -33l-18 -93h-119l6 26q3 16 3 23q0 16 -21 16h-157l-36 -186h230l-22 -111h-230l-30 -153q-3 -13 -3 -23q0 -15 18 -15h164q21 0 26 22l9 43h118
l-22 -112q-11 -64 -76 -64h-319q-63 0 -63 49z" />
    <glyph glyph-name="ecaron" unicode="&#x11b;" horiz-adv-x="547" 
d="M285 574l-65 136h91l35 -81h2l66 81h99l-119 -136h-109zM19 207q0 131 85 223t211 92q99 0 151 -52.5t52 -140.5q0 -20 -4 -44.5t-8 -38.5l-5 -14h-351q-3 -12 -3 -26q0 -49 34 -80t93 -31q36 0 75.5 14t60.5 28l22 14l34 -96q-10 -8 -27.5 -19t-70 -29.5t-102.5 -18.5
q-116 0 -181.5 61.5t-65.5 157.5zM167 317h223q3 13 3 23q0 39 -22 61.5t-59 22.5q-49 0 -88 -29t-57 -78z" />
    <glyph glyph-name="Gcircumflex" unicode="&#x11c;" horiz-adv-x="736" 
d="M331 757l118 136h109l66 -136h-93l-34 81h-2l-66 -81h-98zM37 292q0 83 32.5 161t88.5 137.5t137 95.5t172 36q46 0 88 -9.5t69 -22.5t47.5 -26t29.5 -22l9 -10l-75 -94q-7 7 -20.5 17.5t-57.5 28t-92 17.5q-119 0 -205.5 -88t-86.5 -209q0 -93 53 -144.5t139 -51.5
q51 0 99.5 19.5t71.5 38.5l23 20l9 45q0 2 1 6.5t1.5 8t0.5 5.5q0 15 -19 15h-46l20 104h112q65 0 65 -49q0 -9 -4 -33l-56 -288h-113l8 38l7 28h-2q-28 -29 -86 -53.5t-129 -24.5q-127 0 -209 83.5t-82 220.5z" />
    <glyph glyph-name="gcircumflex" unicode="&#x11d;" horiz-adv-x="611" 
d="M200 574l118 136h109l66 -136h-93l-34 81h-2l-66 -81h-98zM47 -66q51 -34 133 -34q143 0 171 132l13 50h-2q-56 -72 -144 -72q-94 0 -145 58t-51 151q0 73 30.5 141t94 115t145.5 47q67 0 106 -26t46 -52h2q-1 6 1 18q10 48 66 48h120l-21 -108h-40q-21 0 -26 -20
l-69 -356q-24 -120 -106.5 -178t-185.5 -58q-113 0 -193 45zM151 229q0 -52 26 -82t76 -30q70 0 111.5 63.5t41.5 137.5q0 96 -103 96q-69 0 -110.5 -55t-41.5 -130z" />
    <glyph glyph-name="Gbreve" unicode="&#x11e;" horiz-adv-x="736" 
d="M37 292q0 83 32.5 161t88.5 137.5t137 95.5t172 36q46 0 88 -9.5t69 -22.5t47.5 -26t29.5 -22l9 -10l-75 -94q-7 7 -20.5 17.5t-57.5 28t-92 17.5q-119 0 -205.5 -88t-86.5 -209q0 -93 53 -144.5t139 -51.5q51 0 99.5 19.5t71.5 38.5l23 20l9 45q0 2 1 6.5t1.5 8t0.5 5.5
q0 15 -19 15h-46l20 104h112q65 0 65 -49q0 -9 -4 -33l-56 -288h-113l8 38l7 28h-2q-28 -29 -86 -53.5t-129 -24.5q-127 0 -209 83.5t-82 220.5zM488 753q-59 0 -98.5 37.5t-29.5 91.5l3 11h81l-2 -12q-5 -25 7.5 -42t41.5 -17q59 0 73 60l3 11h82l-4 -17q-11 -58 -56 -90.5
t-101 -32.5z" />
    <glyph glyph-name="gbreve" unicode="&#x11f;" horiz-adv-x="611" 
d="M47 -66q51 -34 133 -34q143 0 171 132l13 50h-2q-56 -72 -144 -72q-94 0 -145 58t-51 151q0 73 30.5 141t94 115t145.5 47q67 0 106 -26t46 -52h2q-1 6 1 18q10 48 66 48h120l-21 -108h-40q-21 0 -26 -20l-69 -356q-24 -120 -106.5 -178t-185.5 -58q-113 0 -193 45z
M151 229q0 -52 26 -82t76 -30q70 0 111.5 63.5t41.5 137.5q0 96 -103 96q-69 0 -110.5 -55t-41.5 -130zM357 570q-59 0 -98.5 37.5t-29.5 91.5l3 11h81l-2 -12q-5 -25 7.5 -42t41.5 -17q59 0 73 60l3 11h82l-4 -17q-11 -58 -56 -90.5t-101 -32.5z" />
    <glyph glyph-name="Gdotaccent" unicode="&#x120;" horiz-adv-x="736" 
d="M37 292q0 83 32.5 161t88.5 137.5t137 95.5t172 36q46 0 88 -9.5t69 -22.5t47.5 -26t29.5 -22l9 -10l-75 -94q-7 7 -20.5 17.5t-57.5 28t-92 17.5q-119 0 -205.5 -88t-86.5 -209q0 -93 53 -144.5t139 -51.5q51 0 99.5 19.5t71.5 38.5l23 20l9 45q0 2 1 6.5t1.5 8t0.5 5.5
q0 15 -19 15h-46l20 104h112q65 0 65 -49q0 -9 -4 -33l-56 -288h-113l8 38l7 28h-2q-28 -29 -86 -53.5t-129 -24.5q-127 0 -209 83.5t-82 220.5zM429 777l23 116h110l-23 -116h-110z" />
    <glyph glyph-name="gdotaccent" unicode="&#x121;" horiz-adv-x="611" 
d="M47 -66q51 -34 133 -34q143 0 171 132l13 50h-2q-56 -72 -144 -72q-94 0 -145 58t-51 151q0 73 30.5 141t94 115t145.5 47q67 0 106 -26t46 -52h2q-1 6 1 18q10 48 66 48h120l-21 -108h-40q-21 0 -26 -20l-69 -356q-24 -120 -106.5 -178t-185.5 -58q-113 0 -193 45z
M151 229q0 -52 26 -82t76 -30q70 0 111.5 63.5t41.5 137.5q0 96 -103 96q-69 0 -110.5 -55t-41.5 -130zM297 594l23 116h110l-23 -116h-110z" />
    <glyph glyph-name="Gcommaaccent" unicode="&#x122;" horiz-adv-x="736" 
d="M298 -55h94q2 -7 2 -18q0 -58 -47 -127h-85q39 70 39 114q0 14 -3 31zM37 292q0 83 32.5 161t88.5 137.5t137 95.5t172 36q46 0 88 -9.5t69 -22.5t47.5 -26t29.5 -22l9 -10l-75 -94q-7 7 -20.5 17.5t-57.5 28t-92 17.5q-119 0 -205.5 -88t-86.5 -209q0 -93 53 -144.5
t139 -51.5q51 0 99.5 19.5t71.5 38.5l23 20l9 45q0 2 1 6.5t1.5 8t0.5 5.5q0 15 -19 15h-46l20 104h112q65 0 65 -49q0 -9 -4 -33l-56 -288h-113l8 38l7 28h-2q-28 -29 -86 -53.5t-129 -24.5q-127 0 -209 83.5t-82 220.5z" />
    <glyph glyph-name="gcommaaccent" unicode="&#x123;" horiz-adv-x="611" 
d="M395 564h-94q-2 7 -2 18q0 58 47 127h85q-39 -70 -39 -114q0 -15 3 -31zM47 -66q51 -34 133 -34q143 0 171 132l13 50h-2q-56 -72 -144 -72q-94 0 -145 58t-51 151q0 73 30.5 141t94 115t145.5 47q67 0 106 -26t46 -52h2q-1 6 1 18q10 48 66 48h120l-21 -108h-40
q-21 0 -26 -20l-69 -356q-24 -120 -106.5 -178t-185.5 -58q-113 0 -193 45zM151 229q0 -52 26 -82t76 -30q70 0 111.5 63.5t41.5 137.5q0 96 -103 96q-69 0 -110.5 -55t-41.5 -130z" />
    <glyph glyph-name="Hcircumflex" unicode="&#x124;" horiz-adv-x="765" 
d="M322 757l118 136h109l66 -136h-93l-34 81h-2l-66 -81h-98zM37 0l109 559q4 22 4 24q0 16 -21 16h-40l21 111h120q64 0 64 -50q0 -17 -4 -33l-43 -218h313l47 235q7 36 25 51t51 15h133l-22 -111h-45q-20 0 -24 -22l-113 -577h-131l58 298h-313l-58 -298h-131z" />
    <glyph glyph-name="hcircumflex" unicode="&#x125;" horiz-adv-x="616" 
d="M62 758l118 136h109l66 -136h-93l-34 81h-2l-66 -81h-98zM3 0l110 564q0 3 1 8t1.5 8.5t0.5 6.5q0 15 -18 15h-40l21 108h117q61 0 61 -48q0 -8 -4 -30l-33 -168l-11 -46h2q30 40 80.5 72t114.5 32q69 0 107.5 -36t38.5 -105q0 -28 -6 -61l-35 -182l-3 -15q0 -16 18 -16
h40l-21 -107h-118q-60 0 -60 49q0 10 3 22l45 231q4 17 4 39q0 65 -66 65q-63 0 -113.5 -53t-64.5 -120l-45 -233h-127z" />
    <glyph glyph-name="Hbar" unicode="&#x126;" horiz-adv-x="768" 
d="M39 0l101 515h-66l16 83h65l22 112h131l-22 -112h314l22 112h131l-22 -112h65l-16 -83h-65l-101 -515h-131l58 298h-313l-58 -298h-131zM249 409h314l21 106h-313z" />
    <glyph glyph-name="hbar" unicode="&#x127;" horiz-adv-x="616" 
d="M3 0l109 559h-73l14 76h74l14 75h127l-15 -75h127l-14 -76h-128l-18 -95l-11 -46h2q31 41 81 72.5t114 31.5q69 0 107.5 -36t38.5 -105q0 -28 -6 -61l-35 -182l-3 -15q0 -16 18 -16h40l-21 -107h-117q-60 0 -60 49q0 6 2 22l45 231q5 22 5 39q0 65 -67 65
q-63 0 -113.5 -53t-63.5 -120l-46 -233h-127z" />
    <glyph glyph-name="Itilde" unicode="&#x128;" horiz-adv-x="350" 
d="M-16 0l22 111h70l95 488h-71l22 111h266l-21 -111h-71l-95 -488h71l-22 -111h-266zM79 758q24 137 132 137q34 0 55.5 -16.5t36.5 -32.5t33 -16q39 0 53 62h79q-24 -137 -132 -137q-34 0 -55.5 16.5t-36.5 32.5t-33 16q-20 0 -33.5 -17.5t-18.5 -44.5h-80z" />
    <glyph glyph-name="itilde" unicode="&#x129;" horiz-adv-x="289" 
d="M35 49q0 8 3 23l57 293q3 15 3 22q0 15 -18 15h-40l21 108h117q60 0 60 -48q0 -9 -4 -31l-57 -293q-2 -10 -2 -15q0 -16 18 -16h39l-20 -107h-117q-60 0 -60 49zM4 575q24 137 132 137q27 0 46.5 -10t29 -22.5t22 -22.5t27.5 -10q39 0 53 62h79q-24 -137 -132 -137
q-27 0 -46.5 10t-29 22.5t-22 22.5t-27.5 10q-20 0 -33.5 -17.5t-18.5 -44.5h-80z" />
    <glyph glyph-name="Imacron" unicode="&#x12a;" horiz-adv-x="350" 
d="M-16 0l22 111h70l95 488h-71l22 111h266l-21 -111h-71l-95 -488h71l-22 -111h-266zM138 783l16 84h263l-17 -84h-262z" />
    <glyph glyph-name="imacron" unicode="&#x12b;" horiz-adv-x="289" 
d="M35 49q0 8 3 23l57 293q3 15 3 22q0 15 -18 15h-40l21 108h117q60 0 60 -48q0 -9 -4 -31l-57 -293q-2 -10 -2 -15q0 -16 18 -16h39l-20 -107h-117q-60 0 -60 49zM64 600l16 84h263l-17 -84h-262z" />
    <glyph glyph-name="Ibreve" unicode="&#x12c;" horiz-adv-x="350" 
d="M-16 0l22 111h70l95 488h-71l22 111h266l-21 -111h-71l-95 -488h71l-22 -111h-266zM272 753q-59 0 -98.5 37.5t-29.5 91.5l3 11h81l-2 -12q-5 -25 7.5 -42t41.5 -17q59 0 73 60l3 11h82l-4 -17q-11 -58 -56 -90.5t-101 -32.5z" />
    <glyph glyph-name="ibreve" unicode="&#x12d;" horiz-adv-x="289" 
d="M35 49q0 8 3 23l57 293q3 15 3 22q0 15 -18 15h-40l21 108h117q60 0 60 -48q0 -9 -4 -31l-57 -293q-2 -10 -2 -15q0 -16 18 -16h39l-20 -107h-117q-60 0 -60 49zM197 570q-59 0 -98.5 37.5t-29.5 91.5l3 11h81l-2 -12q-5 -25 7.5 -42t41.5 -17q59 0 73 60l3 11h82l-4 -17
q-11 -58 -56 -90.5t-101 -32.5z" />
    <glyph glyph-name="Iogonek" unicode="&#x12e;" horiz-adv-x="350" 
d="M-16 0l22 111h70l95 488h-71l22 111h266l-21 -111h-71l-95 -488h71l-22 -111h-3q-19 -2 -52 -33t-33 -56q0 -32 53 -36l-38 -84q-47 5 -81 27.5t-34 62.5q0 66 83 119h-161z" />
    <glyph glyph-name="iogonek" unicode="&#x12f;" horiz-adv-x="289" 
d="M25 -119q0 66 83 119q-31 -1 -48 7t-21 17.5t-4 24.5q0 8 3 23l57 293q3 15 3 22q0 15 -18 15h-40l21 108h117q60 0 60 -48q0 -9 -4 -31l-57 -293q-2 -10 -2 -15q0 -16 18 -16h39l-20 -107q-19 -1 -53 -32t-34 -57q0 -32 53 -36l-38 -84q-47 5 -81 27.5t-34 62.5z
M145 593l23 117h110l-23 -117h-110z" />
    <glyph glyph-name="Idotaccent" unicode="&#x130;" horiz-adv-x="350" 
d="M-16 0l22 111h70l95 488h-71l22 111h266l-21 -111h-71l-95 -488h71l-22 -111h-266zM213 777l23 116h110l-23 -116h-110z" />
    <glyph glyph-name="dotlessi" unicode="&#x131;" horiz-adv-x="289" 
d="M35 49q0 8 3 23l57 293q3 15 3 22q0 15 -18 15h-40l21 108h117q60 0 60 -48q0 -9 -4 -31l-57 -293q-2 -10 -2 -15q0 -16 18 -16h39l-20 -107h-117q-60 0 -60 49z" />
    <glyph glyph-name="IJ" unicode="&#x132;" horiz-adv-x="718" 
d="M332 -4l23 117q52 0 96.5 30.5t59.5 108.5l63 325q5 22 -18 22h-104l21 111h190q36 0 49 -16.5t6 -51.5l-76 -392q-16 -79 -48 -132t-77 -78.5t-87.5 -34.5t-97.5 -9zM-16 0l23 111h70l94 488h-71l21 111h267l-21 -111h-72l-94 -488h71l-22 -111h-266z" />
    <glyph glyph-name="ij" unicode="&#x133;" horiz-adv-x="556" 
d="M145 593l23 117h110l-23 -117h-110zM35 49q0 8 3 23l57 293q3 15 3 22q0 15 -18 15h-40l21 108h117q60 0 60 -48q0 -9 -4 -31l-57 -293q-2 -10 -2 -15q0 -16 18 -16h39l-20 -107h-117q-60 0 -60 49zM435 593l22 117h110l-22 -117h-110zM314 3l71 362q3 15 3 22
q0 15 -18 15h-39l20 108h117q61 0 61 -47q0 -5 -4 -31l-87 -448q-12 -61 -41.5 -102.5t-68.5 -59t-69 -23.5t-61 -6l-47 3l21 107q8 -2 21 -2q102 0 121 102z" />
    <glyph glyph-name="Jcircumflex" unicode="&#x134;" horiz-adv-x="526" 
d="M228 757l118 136h109l66 -136h-93l-34 81h-2l-66 -81h-98zM-10 163q0 21 5 53l6 35h131l-5 -29q-4 -28 -4 -37q0 -39 21 -57t54 -18q40 0 71 26t42 80l67 345q3 15 3 21q0 17 -21 17h-169l22 111h248q65 0 65 -50q0 -8 -4 -32l-83 -430q-21 -107 -90 -158.5t-155 -51.5
t-145 46.5t-59 128.5z" />
    <glyph glyph-name="jcircumflex" unicode="&#x135;" horiz-adv-x="266" 
d="M39 573l118 137h109l66 -137h-93l-35 82h-2l-65 -82h-98zM25 3l71 362q3 15 3 22q0 15 -18 15h-39l20 108h117q61 0 61 -47q0 -5 -4 -31l-87 -448q-12 -61 -41.5 -102.5t-68.5 -59t-69 -23.5t-61 -6l-47 3l21 107q8 -2 21 -2q102 0 121 102z" />
    <glyph glyph-name="Kcommaaccent" unicode="&#x136;" horiz-adv-x="637" 
d="M214 -55h94q2 -7 2 -18q0 -58 -47 -127h-85q39 70 39 114q0 14 -3 31zM37 0l109 559q4 22 4 23q0 17 -21 17h-40l21 111h120q64 0 64 -50q0 -17 -4 -33l-40 -206h50q39 0 56 23l194 266h151l-217 -292q-12 -17 -25.5 -30t-20.5 -18l-7 -5v-2q18 -15 28 -48l56 -180
q7 -24 37 -24h32l-22 -111h-79q-36 0 -54.5 11.5t-28.5 41.5l-71 233q-6 24 -50 24h-51l-60 -310h-131z" />
    <glyph glyph-name="kcommaaccent" unicode="&#x137;" horiz-adv-x="539" 
d="M158 -55h94q2 -7 2 -18q0 -58 -47 -127h-85q39 70 39 114q0 14 -3 31zM3 0l110 565q3 21 3 22q0 15 -18 15h-40l21 108h117q61 0 61 -48q0 -8 -4 -30l-59 -302h37q28 0 46 19l135 161h148l-167 -194q-10 -12 -22.5 -22t-19.5 -14l-7 -5v-2q13 -6 25 -39l41 -108
q8 -19 40 -19h35l-21 -107h-87q-32 0 -46 8.5t-24 35.5l-57 157q-9 22 -40 22h-37l-43 -223h-127z" />
    <glyph glyph-name="kgreenlandic" unicode="&#x138;" horiz-adv-x="561" 
d="M25 0l71 365q3 21 3 22q0 15 -18 15h-40l21 108h117q61 0 61 -48q0 -8 -4 -30l-23 -121h37q29 0 46 20l151 179h148l-183 -212q-10 -12 -22.5 -22.5t-19.5 -14.5l-7 -4v-2q12 -7 25 -39l35 -90q8 -19 40 -19h34l-20 -107h-87q-32 0 -46 8.5t-24 35.5l-51 138
q-8 22 -40 22h-37l-40 -204h-127z" />
    <glyph glyph-name="Lacute" unicode="&#x139;" horiz-adv-x="550" 
d="M199 757l102 136h124l-129 -136h-97zM49 49q0 12 5 37l92 473q4 22 4 24q0 16 -21 16h-40l21 111h120q64 0 64 -50q0 -17 -4 -33l-93 -478q-3 -13 -3 -23q0 -15 18 -15h155q21 0 26 22l9 43h118l-22 -112q-11 -64 -76 -64h-310q-63 0 -63 49z" />
    <glyph glyph-name="lacute" unicode="&#x13a;" horiz-adv-x="269" 
d="M163 758l102 136h124l-129 -136h-97zM14 49q0 6 2 22l97 494q3 15 3 22q0 15 -18 15h-40l21 108h117q60 0 60 -48q0 -8 -4 -30l-96 -494q-2 -10 -2 -15q0 -16 17 -16h41l-21 -107h-117q-60 0 -60 49z" />
    <glyph glyph-name="Lcommaaccent" unicode="&#x13b;" horiz-adv-x="550" 
d="M206 -55h94q2 -7 2 -18q0 -58 -47 -127h-85q39 70 39 114q0 14 -3 31zM49 49q0 12 5 37l92 473q4 22 4 24q0 16 -21 16h-40l21 111h120q64 0 64 -50q0 -17 -4 -33l-93 -478q-3 -13 -3 -23q0 -15 18 -15h155q21 0 26 22l9 43h118l-22 -112q-11 -64 -76 -64h-310
q-63 0 -63 49z" />
    <glyph glyph-name="lcommaaccent" unicode="&#x13c;" horiz-adv-x="269" 
d="M43 -55h94q2 -7 2 -18q0 -58 -47 -127h-85q39 70 39 114q0 14 -3 31zM14 49q0 6 2 22l97 494q3 15 3 22q0 15 -18 15h-40l21 108h117q60 0 60 -48q0 -8 -4 -30l-96 -494q-2 -10 -2 -15q0 -16 17 -16h41l-21 -107h-117q-60 0 -60 49z" />
    <glyph glyph-name="Lcaron" unicode="&#x13d;" horiz-adv-x="551" 
d="M383 709h94q2 -7 2 -18q0 -58 -47 -127h-85q39 70 39 114q0 14 -3 31zM49 49q0 12 5 37l92 473q4 22 4 24q0 16 -21 16h-40l21 111h120q64 0 64 -50q0 -17 -4 -33l-93 -478q-3 -13 -3 -23q0 -15 18 -15h155q21 0 26 22l9 43h118l-22 -112q-11 -64 -76 -64h-310
q-63 0 -63 49z" />
    <glyph glyph-name="lcaron" unicode="&#x13e;" horiz-adv-x="269" 
d="M318 709h94q2 -7 2 -18q0 -58 -47 -127h-85q39 70 39 114q0 14 -3 31zM14 49q0 6 2 22l97 494q3 15 3 22q0 15 -18 15h-40l21 108h117q60 0 60 -48q0 -8 -4 -30l-96 -494q-2 -10 -2 -15q0 -16 17 -16h41l-21 -107h-117q-60 0 -60 49z" />
    <glyph glyph-name="Ldot" unicode="&#x13f;" horiz-adv-x="551" 
d="M49 49q0 12 5 37l92 473q4 22 4 24q0 16 -21 16h-40l21 111h120q64 0 64 -50q0 -17 -4 -33l-93 -478q-3 -13 -3 -23q0 -15 18 -15h155q21 0 26 22l9 43h118l-22 -112q-11 -64 -76 -64h-310q-63 0 -63 49zM330 322l24 126h122l-24 -126h-122z" />
    <glyph glyph-name="ldot" unicode="&#x140;" horiz-adv-x="395" 
d="M14 49q0 6 2 22l97 494q3 15 3 22q0 15 -18 15h-40l21 108h117q60 0 60 -48q0 -8 -4 -30l-96 -494q-2 -10 -2 -15q0 -16 17 -16h41l-21 -107h-117q-60 0 -60 49zM265 322l24 126h122l-24 -126h-122z" />
    <glyph glyph-name="Lslash" unicode="&#x141;" horiz-adv-x="552" 
d="M51 49q0 12 5 37l35 180l-69 -35l23 124l70 35l33 169q4 22 4 24q0 16 -21 16h-40l21 111h120q64 0 64 -50q0 -17 -4 -33l-31 -162l108 57l-24 -124l-109 -57l-37 -192q-3 -13 -3 -23q0 -15 18 -15h155q21 0 26 22l9 43h118l-22 -112q-6 -34 -24 -49t-52 -15h-310
q-63 0 -63 49z" />
    <glyph glyph-name="lslash" unicode="&#x142;" horiz-adv-x="282" 
d="M24 49q0 6 2 22l41 213l-71 -36l24 125l72 37l30 155q3 15 3 22q0 15 -18 15h-39l20 108h117q61 0 61 -48q0 -8 -4 -30l-30 -150l82 42l-24 -124l-82 -42l-42 -220q0 -2 -1 -5q-2 -8 -2 -10q0 -16 18 -16h40l-20 -107h-118q-59 0 -59 49z" />
    <glyph glyph-name="Nacute" unicode="&#x143;" horiz-adv-x="761" 
d="M429 757l102 136h124l-129 -136h-97zM-28 0l22 111h42q22 0 26 22l113 577h115l193 -399q9 -18 19 -43t16 -41l5 -16h2q5 58 13 100l65 333q7 36 25 51t51 15h133l-22 -111h-45q-20 0 -24 -22l-112 -577h-114l-196 398q-8 18 -17.5 43t-15.5 41l-5 16h-2q-6 -58 -14 -100
l-65 -335q-13 -63 -76 -63h-132z" />
    <glyph glyph-name="nacute" unicode="&#x144;" horiz-adv-x="641" 
d="M334 574l102 136h124l-129 -136h-97zM25 0l71 368q3 8 3 18q0 16 -19 16h-39l21 108h116q56 0 56 -48q0 -18 -10 -52h2q30 43 81 77.5t120 34.5t108 -36t39 -105q0 -23 -7 -61l-35 -182q-2 -10 -2 -15q0 -16 18 -16h39l-20 -107h-118q-60 0 -60 49q0 10 3 22l45 231
q4 26 4 39q0 65 -66 65q-63 0 -113.5 -53t-64.5 -120l-46 -233h-126z" />
    <glyph glyph-name="Ncommaaccent" unicode="&#x145;" horiz-adv-x="761" 
d="M264 -55h94q2 -7 2 -18q0 -58 -47 -127h-85q39 70 39 114q0 14 -3 31zM-28 0l22 111h42q22 0 26 22l113 577h115l193 -399q9 -18 19 -43t16 -41l5 -16h2q5 58 13 100l65 333q7 36 25 51t51 15h133l-22 -111h-45q-20 0 -24 -22l-112 -577h-114l-196 398q-8 18 -17.5 43
t-15.5 41l-5 16h-2q-6 -58 -14 -100l-65 -335q-13 -63 -76 -63h-132z" />
    <glyph glyph-name="ncommaaccent" unicode="&#x146;" horiz-adv-x="638" 
d="M208 -55h94q2 -7 2 -18q0 -58 -47 -127h-85q39 70 39 114q0 14 -3 31zM25 0l71 368q3 8 3 18q0 16 -19 16h-39l21 108h116q56 0 56 -48q0 -18 -10 -52h2q30 43 81 77.5t120 34.5t108 -36t39 -105q0 -23 -7 -61l-35 -182q-2 -10 -2 -15q0 -16 18 -16h39l-20 -107h-118
q-60 0 -60 49q0 10 3 22l45 231q4 26 4 39q0 65 -66 65q-63 0 -113.5 -53t-64.5 -120l-46 -233h-126z" />
    <glyph glyph-name="Ncaron" unicode="&#x147;" horiz-adv-x="761" 
d="M425 757l-65 136h91l35 -81h2l66 81h99l-119 -136h-109zM-28 0l22 111h42q22 0 26 22l113 577h115l193 -399q9 -18 19 -43t16 -41l5 -16h2q5 58 13 100l65 333q7 36 25 51t51 15h133l-22 -111h-45q-20 0 -24 -22l-112 -577h-114l-196 398q-8 18 -17.5 43t-15.5 41l-5 16
h-2q-6 -58 -14 -100l-65 -335q-13 -63 -76 -63h-132z" />
    <glyph glyph-name="ncaron" unicode="&#x148;" horiz-adv-x="641" 
d="M330 574l-65 136h91l35 -81h2l66 81h99l-119 -136h-109zM25 0l71 368q3 8 3 18q0 16 -19 16h-39l21 108h116q56 0 56 -48q0 -18 -10 -52h2q30 43 81 77.5t120 34.5t108 -36t39 -105q0 -23 -7 -61l-35 -182q-2 -10 -2 -15q0 -16 18 -16h39l-20 -107h-118q-60 0 -60 49
q0 10 3 22l45 231q4 26 4 39q0 65 -66 65q-63 0 -113.5 -53t-64.5 -120l-46 -233h-126z" />
    <glyph glyph-name="napostrophe" unicode="&#x149;" horiz-adv-x="641" 
d="M38 709h94q2 -7 2 -18q0 -58 -47 -127h-85q39 70 39 114q0 14 -3 31zM25 0l71 368q3 8 3 18q0 16 -19 16h-39l21 108h116q56 0 56 -48q0 -18 -10 -52h2q30 43 81 77.5t120 34.5t108 -36t39 -105q0 -23 -7 -61l-35 -182q-2 -10 -2 -15q0 -16 18 -16h39l-20 -107h-118
q-60 0 -60 49q0 10 3 22l45 231q4 26 4 39q0 65 -66 65q-63 0 -113.5 -53t-64.5 -120l-46 -233h-126z" />
    <glyph glyph-name="Eng" unicode="&#x14a;" horiz-adv-x="761" 
d="M-28 0l22 111h42q22 0 26 22l113 577h115l193 -399q9 -18 19 -43t16 -41l5 -16h2q5 58 13 100l65 333q7 36 25 51t51 15h133l-22 -111h-45q-20 0 -24 -22l-103 -527q-12 -64 -36.5 -111t-53.5 -74t-68 -43t-73.5 -21t-77.5 -5l22 117q123 0 155 111l-187 374
q-8 18 -17.5 43t-15.5 41l-5 16h-2q-6 -58 -14 -100l-65 -335q-13 -63 -76 -63h-132z" />
    <glyph glyph-name="eng" unicode="&#x14b;" horiz-adv-x="612" 
d="M25 0l71 368q3 8 3 18q0 16 -19 16h-39l21 108h116q56 0 56 -48q0 -18 -10 -52h2q30 43 81 77.5t120 34.5t108 -36t39 -105q0 -23 -7 -61l-65 -336q-9 -49 -32 -86t-48.5 -56.5t-58 -31t-55.5 -14.5t-46 -3l-47 3l21 107q8 -2 21 -2q102 0 121 102l59 299q4 26 4 39
q0 65 -66 65q-63 0 -113.5 -53t-64.5 -120l-46 -233h-126z" />
    <glyph glyph-name="Omacron" unicode="&#x14c;" horiz-adv-x="798" 
d="M358 783l16 84h263l-17 -84h-262zM37 300q0 112 60 209.5t159.5 155t212.5 57.5q140 0 227.5 -86t87.5 -221q0 -171 -131 -299t-302 -128q-139 0 -226.5 88t-87.5 224zM173 307q0 -88 53 -142.5t136 -54.5q109 0 197.5 89t88.5 208q0 86 -53 139.5t-136 53.5
q-110 0 -198 -87t-88 -206z" />
    <glyph glyph-name="omacron" unicode="&#x14d;" horiz-adv-x="621" 
d="M238 600l16 84h263l-17 -84h-262zM18 214q0 130 97.5 219t227.5 89q108 0 176 -62.5t68 -162.5q0 -131 -98 -220t-227 -89q-107 0 -175.5 62.5t-68.5 163.5zM147 220q0 -57 34.5 -90.5t90.5 -33.5q71 0 128.5 55.5t57.5 137.5q0 56 -34.5 90.5t-89.5 34.5
q-72 0 -129.5 -56.5t-57.5 -137.5z" />
    <glyph glyph-name="Obreve" unicode="&#x14e;" horiz-adv-x="798" 
d="M37 300q0 112 60 209.5t159.5 155t212.5 57.5q140 0 227.5 -86t87.5 -221q0 -171 -131 -299t-302 -128q-139 0 -226.5 88t-87.5 224zM173 307q0 -88 53 -142.5t136 -54.5q109 0 197.5 89t88.5 208q0 86 -53 139.5t-136 53.5q-110 0 -198 -87t-88 -206zM492 753
q-59 0 -98.5 37.5t-29.5 91.5l3 11h81l-2 -12q-5 -25 7.5 -42t41.5 -17q59 0 73 60l3 11h82l-4 -17q-11 -58 -56 -90.5t-101 -32.5z" />
    <glyph glyph-name="obreve" unicode="&#x14f;" horiz-adv-x="621" 
d="M18 214q0 130 97.5 219t227.5 89q108 0 176 -62.5t68 -162.5q0 -131 -98 -220t-227 -89q-107 0 -175.5 62.5t-68.5 163.5zM147 220q0 -57 34.5 -90.5t90.5 -33.5q71 0 128.5 55.5t57.5 137.5q0 56 -34.5 90.5t-89.5 34.5q-72 0 -129.5 -56.5t-57.5 -137.5zM372 570
q-59 0 -98.5 37.5t-29.5 91.5l3 11h81l-2 -12q-5 -25 7.5 -42t41.5 -17q59 0 73 60l3 11h82l-4 -17q-11 -58 -56 -90.5t-101 -32.5z" />
    <glyph glyph-name="Ohungarumlaut" unicode="&#x150;" horiz-adv-x="798" 
d="M523 757l83 136h121l-111 -136h-93zM350 757l80 136h103l-81 -136h-102zM37 300q0 112 60 209.5t159.5 155t212.5 57.5q140 0 227.5 -86t87.5 -221q0 -171 -131 -299t-302 -128q-139 0 -226.5 88t-87.5 224zM173 307q0 -88 53 -142.5t136 -54.5q109 0 197.5 89t88.5 208
q0 86 -53 139.5t-136 53.5q-110 0 -198 -87t-88 -206z" />
    <glyph glyph-name="ohungarumlaut" unicode="&#x151;" horiz-adv-x="621" 
d="M403 574l83 136h121l-111 -136h-93zM230 574l80 136h103l-81 -136h-102zM18 214q0 130 97.5 219t227.5 89q108 0 176 -62.5t68 -162.5q0 -131 -98 -220t-227 -89q-107 0 -175.5 62.5t-68.5 163.5zM147 220q0 -57 34.5 -90.5t90.5 -33.5q71 0 128.5 55.5t57.5 137.5
q0 56 -34.5 90.5t-89.5 34.5q-72 0 -129.5 -56.5t-57.5 -137.5z" />
    <glyph glyph-name="OE" unicode="&#x152;" horiz-adv-x="965" 
d="M37 298q0 112 60 209.5t157.5 154t205.5 56.5q38 0 84 -4t67 -4h301q65 0 65 -50q0 -13 -5 -33l-18 -93h-118l5 26q4 22 4 23q0 16 -21 16h-158l-36 -186h231l-22 -111h-231l-29 -153q-4 -18 -4 -23q0 -15 19 -15h164q21 0 26 22l8 43h119l-22 -112q-7 -34 -25 -49
t-51 -15h-326q-17 0 -58 -4.5t-71 -4.5q-143 0 -232 86t-89 221zM171 300q0 -89 53 -145t143 -56q18 0 36.5 1.5t27.5 3.5l9 2l95 497q-28 8 -69 8q-118 0 -206.5 -92t-88.5 -219z" />
    <glyph glyph-name="oe" unicode="&#x153;" horiz-adv-x="977" 
d="M18 214q0 130 94.5 219t221.5 89q133 0 199 -105h2q82 105 209 105q100 0 152 -52.5t52 -140.5q0 -20 -4 -44.5t-8 -38.5l-5 -15h-351q-3 -10 -3 -21q0 -51 34 -82.5t94 -31.5q36 0 75.5 14t61.5 28l21 14l34 -97q-10 -8 -27.5 -19t-69.5 -29.5t-102 -18.5
q-146 0 -205 107h-2q-43 -50 -102.5 -78.5t-121.5 -28.5q-111 0 -180 62t-69 164zM598 318h224q2 12 2 22q0 39 -22.5 61.5t-59.5 22.5q-48 0 -86.5 -28.5t-57.5 -77.5zM146 220q0 -56 34.5 -90t89.5 -34q71 0 128 55.5t57 137.5q0 56 -34.5 90.5t-88.5 34.5
q-75 0 -130.5 -56t-55.5 -138z" />
    <glyph glyph-name="Racute" unicode="&#x154;" horiz-adv-x="633" 
d="M328 757l102 136h124l-129 -136h-97zM36 0l117 599h-65l22 111h310q86 0 139 -46.5t53 -130.5q0 -90 -52 -150t-111 -73v-2q15 -13 24 -37l42 -133q9 -27 36 -27h30l-22 -111h-66q-38 0 -56.5 12t-29.5 45l-58 175q-7 21 -17.5 27t-38.5 6h-74l-52 -265h-131zM241 377
h104q55 0 94 39t39 97q0 86 -88 86h-106z" />
    <glyph glyph-name="racute" unicode="&#x155;" horiz-adv-x="404" 
d="M215 574l102 136h124l-129 -136h-97zM25 0l73 380q4 22 -18 22h-39l21 108h116q58 0 58 -45q0 -32 -17 -81h2q28 56 79 94.5t108 38.5q6 0 14.5 -1t9.5 -1l-25 -125q-1 0 -5 0.5t-10.5 1t-13.5 0.5q-62 0 -117 -53t-72 -145l-37 -194h-127z" />
    <glyph glyph-name="Rcommaaccent" unicode="&#x156;" horiz-adv-x="633" 
d="M252 -55h94q2 -7 2 -18q0 -58 -47 -127h-85q39 70 39 114q0 14 -3 31zM36 0l117 599h-65l22 111h310q86 0 139 -46.5t53 -130.5q0 -90 -52 -150t-111 -73v-2q15 -13 24 -37l42 -133q9 -27 36 -27h30l-22 -111h-66q-38 0 -56.5 12t-29.5 45l-58 175q-7 21 -17.5 27
t-38.5 6h-74l-52 -265h-131zM241 377h104q55 0 94 39t39 97q0 86 -88 86h-106z" />
    <glyph glyph-name="rcommaaccent" unicode="&#x157;" horiz-adv-x="404" 
d="M24 -55h94q2 -7 2 -18q0 -58 -47 -127h-85q39 70 39 114q0 14 -3 31zM25 0l73 380q4 22 -18 22h-39l21 108h116q58 0 58 -45q0 -32 -17 -81h2q28 56 79 94.5t108 38.5q6 0 14.5 -1t9.5 -1l-25 -125q-1 0 -5 0.5t-10.5 1t-13.5 0.5q-62 0 -117 -53t-72 -145l-37 -194h-127
z" />
    <glyph glyph-name="Rcaron" unicode="&#x158;" horiz-adv-x="633" 
d="M324 757l-65 136h91l35 -81h2l66 81h99l-119 -136h-109zM36 0l117 599h-65l22 111h310q86 0 139 -46.5t53 -130.5q0 -90 -52 -150t-111 -73v-2q15 -13 24 -37l42 -133q9 -27 36 -27h30l-22 -111h-66q-38 0 -56.5 12t-29.5 45l-58 175q-7 21 -17.5 27t-38.5 6h-74
l-52 -265h-131zM241 377h104q55 0 94 39t39 97q0 86 -88 86h-106z" />
    <glyph glyph-name="rcaron" unicode="&#x159;" horiz-adv-x="404" 
d="M211 574l-65 136h91l35 -81h2l66 81h99l-119 -136h-109zM25 0l73 380q4 22 -18 22h-39l21 108h116q58 0 58 -45q0 -32 -17 -81h2q28 56 79 94.5t108 38.5q6 0 14.5 -1t9.5 -1l-25 -125q-1 0 -5 0.5t-10.5 1t-13.5 0.5q-62 0 -117 -53t-72 -145l-37 -194h-127z" />
    <glyph glyph-name="Sacute" unicode="&#x15a;" horiz-adv-x="544" 
d="M318 757l102 136h124l-129 -136h-97zM-8 96l81 89q2 -3 6.5 -8.5t20.5 -19t33.5 -24t45.5 -19t58 -8.5q56 0 89.5 26.5t33.5 67.5q0 24 -15.5 43.5t-40 33.5t-54 27.5t-59.5 31t-54.5 39t-40 55t-15.5 75.5q0 97 75.5 157t183.5 60q79 0 142 -31.5t63 -87.5q0 -13 -4 -35
l-11 -52h-115l4 20q3 18 3 20q0 23 -24.5 35t-61.5 12q-57 0 -89.5 -25.5t-32.5 -63.5q0 -27 20.5 -47.5t51.5 -33.5t67.5 -32t67.5 -39.5t51.5 -58.5t20.5 -88q0 -97 -71 -162t-187 -65q-46 0 -88 11t-69 27t-47.5 32t-29.5 27z" />
    <glyph glyph-name="sacute" unicode="&#x15b;" horiz-adv-x="468" 
d="M239 574l102 136h124l-129 -136h-97zM-13 75l60 83q7 -8 19 -20t51.5 -31.5t80.5 -19.5q35 0 57 14.5t22 39.5q0 17 -13 30t-26.5 19.5t-38.5 15.5q-32 13 -52.5 23t-45.5 28.5t-37.5 45t-12.5 60.5q0 77 62 118t148 41q77 0 134.5 -31t45.5 -89l-8 -39h-109l2 16
q4 20 -15 32.5t-53 12.5q-36 0 -57.5 -14.5t-21.5 -38.5q0 -7 1.5 -12.5t5.5 -11t7 -9.5t10.5 -8t11.5 -7t13.5 -7t13.5 -5.5t15 -6t14 -5.5q31 -12 49.5 -21.5t42 -26.5t34.5 -41.5t11 -56.5q0 -74 -60 -119.5t-151 -45.5q-40 0 -76 9t-59.5 22t-41 25.5t-25.5 21.5z" />
    <glyph glyph-name="Scircumflex" unicode="&#x15c;" horiz-adv-x="544" 
d="M217 757l118 136h109l66 -136h-93l-34 81h-2l-66 -81h-98zM-8 96l81 89q2 -3 6.5 -8.5t20.5 -19t33.5 -24t45.5 -19t58 -8.5q56 0 89.5 26.5t33.5 67.5q0 24 -15.5 43.5t-40 33.5t-54 27.5t-59.5 31t-54.5 39t-40 55t-15.5 75.5q0 97 75.5 157t183.5 60q79 0 142 -31.5
t63 -87.5q0 -13 -4 -35l-11 -52h-115l4 20q3 18 3 20q0 23 -24.5 35t-61.5 12q-57 0 -89.5 -25.5t-32.5 -63.5q0 -27 20.5 -47.5t51.5 -33.5t67.5 -32t67.5 -39.5t51.5 -58.5t20.5 -88q0 -97 -71 -162t-187 -65q-46 0 -88 11t-69 27t-47.5 32t-29.5 27z" />
    <glyph glyph-name="scircumflex" unicode="&#x15d;" horiz-adv-x="468" 
d="M139 574l118 136h109l66 -136h-93l-34 81h-2l-66 -81h-98zM-13 75l60 83q7 -8 19 -20t51.5 -31.5t80.5 -19.5q35 0 57 14.5t22 39.5q0 17 -13 30t-26.5 19.5t-38.5 15.5q-32 13 -52.5 23t-45.5 28.5t-37.5 45t-12.5 60.5q0 77 62 118t148 41q77 0 134.5 -31t45.5 -89
l-8 -39h-109l2 16q4 20 -15 32.5t-53 12.5q-36 0 -57.5 -14.5t-21.5 -38.5q0 -7 1.5 -12.5t5.5 -11t7 -9.5t10.5 -8t11.5 -7t13.5 -7t13.5 -5.5t15 -6t14 -5.5q31 -12 49.5 -21.5t42 -26.5t34.5 -41.5t11 -56.5q0 -74 -60 -119.5t-151 -45.5q-40 0 -76 9t-59.5 22t-41 25.5
t-25.5 21.5z" />
    <glyph glyph-name="Scedilla" unicode="&#x15e;" horiz-adv-x="546" 
d="M145 -85l36 78q-56 8 -102.5 34t-65.5 47l-19 22l81 89q2 -3 6.5 -8.5t20.5 -19t33.5 -24t45.5 -19t57 -8.5q56 0 90 26.5t34 67.5q0 24 -15.5 43.5t-40 33.5t-54 27.5t-59.5 31t-54.5 39t-40 55t-15.5 75.5q0 97 75 157t183 60q79 0 142.5 -31.5t63.5 -87.5
q0 -13 -4 -35l-11 -52h-115l4 20q3 18 3 20q0 23 -24.5 35t-62.5 12q-56 0 -89 -25.5t-33 -63.5q0 -31 29 -54t70 -40.5t82 -39.5t70 -64t29 -101q0 -96 -69 -160.5t-183 -66.5l-13 -33q23 -4 42 -21t19 -45q0 -50 -38 -73.5t-85 -23.5q-16 0 -32 2t-24 4l-8 1l13 70
q20 -8 42 -8q49 0 49 33q0 23 -42 23z" />
    <glyph glyph-name="scedilla" unicode="&#x15f;" horiz-adv-x="468" 
d="M99 -85l37 79q-45 8 -82 28.5t-52 36.5l-14 16l60 83q6 -8 18.5 -20t51.5 -31.5t81 -19.5q35 0 57 14.5t22 39.5q0 17 -13 30t-26.5 19.5t-38.5 15.5q-32 12 -53 22.5t-45.5 29t-37 45t-12.5 60.5q0 77 61.5 118t147.5 41q78 0 135 -31t45 -89l-8 -39h-109l3 16
q4 20 -15 32.5t-54 12.5q-36 0 -57 -14.5t-21 -38.5q0 -7 1.5 -12.5t5.5 -10.5t7.5 -9.5t10 -8.5t11 -7t13.5 -7t13.5 -5.5t14.5 -5.5t14 -6q31 -12 49.5 -21.5t42 -26.5t35 -41.5t11.5 -56.5q0 -73 -59.5 -118.5t-151.5 -46.5l-14 -33q23 -4 42 -21t19 -45
q0 -50 -37.5 -73.5t-85.5 -23.5q-16 0 -32 2t-24 4l-8 1l14 70q19 -8 41 -8q50 0 50 33q0 23 -42 23z" />
    <glyph glyph-name="Scaron" unicode="&#x160;" horiz-adv-x="544" 
d="M314 757l-65 136h91l35 -81h2l66 81h99l-119 -136h-109zM-8 96l81 89q2 -3 6.5 -8.5t20.5 -19t33.5 -24t45.5 -19t58 -8.5q56 0 89.5 26.5t33.5 67.5q0 24 -15.5 43.5t-40 33.5t-54 27.5t-59.5 31t-54.5 39t-40 55t-15.5 75.5q0 97 75.5 157t183.5 60q79 0 142 -31.5
t63 -87.5q0 -13 -4 -35l-11 -52h-115l4 20q3 18 3 20q0 23 -24.5 35t-61.5 12q-57 0 -89.5 -25.5t-32.5 -63.5q0 -27 20.5 -47.5t51.5 -33.5t67.5 -32t67.5 -39.5t51.5 -58.5t20.5 -88q0 -97 -71 -162t-187 -65q-46 0 -88 11t-69 27t-47.5 32t-29.5 27z" />
    <glyph glyph-name="scaron" unicode="&#x161;" horiz-adv-x="468" 
d="M236 574l-65 136h91l35 -81h2l66 81h99l-119 -136h-109zM-13 75l60 83q7 -8 19 -20t51.5 -31.5t80.5 -19.5q35 0 57 14.5t22 39.5q0 17 -13 30t-26.5 19.5t-38.5 15.5q-32 13 -52.5 23t-45.5 28.5t-37.5 45t-12.5 60.5q0 77 62 118t148 41q77 0 134.5 -31t45.5 -89
l-8 -39h-109l2 16q4 20 -15 32.5t-53 12.5q-36 0 -57.5 -14.5t-21.5 -38.5q0 -7 1.5 -12.5t5.5 -11t7 -9.5t10.5 -8t11.5 -7t13.5 -7t13.5 -5.5t15 -6t14 -5.5q31 -12 49.5 -21.5t42 -26.5t34.5 -41.5t11 -56.5q0 -74 -60 -119.5t-151 -45.5q-40 0 -76 9t-59.5 22t-41 25.5
t-25.5 21.5z" />
    <glyph glyph-name="Tcommaaccent" unicode="&#x162;" horiz-adv-x="644" 
d="M199 0l117 599h-109q-21 0 -26 -22l-9 -43h-115l22 114q7 35 22.5 48.5t49.5 13.5h490q61 0 61 -50q0 -17 -4 -33l-18 -93h-115l5 26q4 20 4 23q0 16 -21 16h-106l-117 -599h-31l-19 -45q23 -4 42 -21t19 -45q0 -50 -37.5 -73.5t-85.5 -23.5q-16 0 -32 2t-24 4l-8 1
l14 70q19 -8 42 -8q49 0 49 33q0 23 -42 23l-22 -2l40 85h-36z" />
    <glyph glyph-name="tcommaaccent" unicode="&#x163;" horiz-adv-x="355" 
d="M76 -85l50 105q-71 37 -71 125q0 20 5 48l43 216h-66l19 101h70l27 139h123l-27 -139h116l-20 -101h-116l-38 -200q-4 -22 -4 -31q0 -71 82 -71l26 2l-21 -111q-17 -3 -40 -3q-24 0 -53 6l-20 -46q23 -4 42 -21t19 -45q0 -50 -37.5 -73.5t-85.5 -23.5q-16 0 -32 2t-24 4
l-8 1l14 70q19 -8 41 -8q50 0 50 33q0 23 -42 23z" />
    <glyph glyph-name="Tcaron" unicode="&#x164;" horiz-adv-x="644" 
d="M359 757l-65 136h91l35 -81h2l66 81h99l-119 -136h-109zM199 0l117 599h-109q-21 0 -26 -22l-9 -43h-115l22 114q7 35 22.5 48.5t49.5 13.5h490q61 0 61 -50q0 -17 -4 -33l-18 -93h-115l5 26q4 20 4 23q0 16 -21 16h-106l-117 -599h-131z" />
    <glyph glyph-name="tcaron" unicode="&#x165;" horiz-adv-x="354" 
d="M344 709h94q2 -7 2 -18q0 -58 -47 -127h-85q39 70 39 114q0 14 -3 31zM55 145q0 20 5 48l42 216h-66l20 101h69l27 139h124l-27 -139h116l-20 -101h-116l-39 -200q-3 -17 -3 -31q0 -71 82 -71l26 2l-22 -111q-16 -3 -39 -3q-28 0 -55.5 6.5t-57 21.5t-48 46.5t-18.5 75.5
z" />
    <glyph glyph-name="Tbar" unicode="&#x166;" horiz-adv-x="657" 
d="M204 0l57 295h-148l19 96h148l40 208h-108q-22 0 -27 -22l-8 -43h-115l22 114q7 35 22.5 48.5t49.5 13.5h490q61 0 61 -50q0 -9 -4 -33l-18 -93h-115l5 26q3 15 3 23q0 16 -21 16h-106l-41 -208h157l-19 -96h-156l-57 -295h-131z" />
    <glyph glyph-name="tbar" unicode="&#x167;" horiz-adv-x="356" 
d="M56 145q0 19 14 94h-65l16 84h65l17 86h-66l20 101h69l27 139h124l-27 -139h116l-20 -101h-116l-17 -86h116l-16 -84h-116l-9 -45q-8 -40 16.5 -63.5t65.5 -23.5l26 2l-22 -111q-16 -3 -39 -3q-28 0 -55.5 6.5t-57 21.5t-48 46.5t-18.5 75.5z" />
    <glyph glyph-name="Utilde" unicode="&#x168;" horiz-adv-x="726" 
d="M70 206q0 28 6 58l58 295q4 22 4 23q0 17 -21 17h-40l21 111h120q65 0 65 -50q0 -13 -5 -33l-72 -370q-4 -17 -4 -37q0 -53 32.5 -81.5t90.5 -28.5q68 0 116 39t61 109l76 386q7 36 24.5 51t51.5 15h132l-21 -111h-45q-20 0 -24 -22l-66 -335q-22 -114 -106 -184
t-207 -70q-115 0 -181 60t-66 158zM266 758q24 137 132 137q34 0 55.5 -16.5t36.5 -32.5t33 -16q39 0 53 62h79q-24 -137 -132 -137q-34 0 -55.5 16.5t-36.5 32.5t-33 16q-20 0 -33.5 -17.5t-18.5 -44.5h-80z" />
    <glyph glyph-name="utilde" unicode="&#x169;" horiz-adv-x="632" 
d="M48 128q0 28 6 62l35 182q2 10 2 15q0 15 -17 15h-40l20 108h118q60 0 60 -50q0 -5 -2 -21l-46 -232q-4 -24 -4 -38q0 -65 63 -65t113 53t63 120l46 233h127l-72 -368q-2 -12 -2 -18q0 -17 18 -17h39l-21 -107h-116q-56 0 -56 48q0 9 10 52h-2q-29 -43 -80 -77.5
t-119 -34.5q-67 0 -105 36t-38 104zM177 575q24 137 132 137q27 0 46.5 -10t29 -22.5t22 -22.5t27.5 -10q39 0 53 62h79q-24 -137 -132 -137q-27 0 -46.5 10t-29 22.5t-22 22.5t-27.5 10q-20 0 -33.5 -17.5t-18.5 -44.5h-80z" />
    <glyph glyph-name="Umacron" unicode="&#x16a;" horiz-adv-x="726" 
d="M70 206q0 28 6 58l58 295q4 22 4 23q0 17 -21 17h-40l21 111h120q65 0 65 -50q0 -13 -5 -33l-72 -370q-4 -17 -4 -37q0 -53 32.5 -81.5t90.5 -28.5q68 0 116 39t61 109l76 386q7 36 24.5 51t51.5 15h132l-21 -111h-45q-20 0 -24 -22l-66 -335q-22 -114 -106 -184
t-207 -70q-115 0 -181 60t-66 158zM326 783l16 84h263l-17 -84h-262z" />
    <glyph glyph-name="umacron" unicode="&#x16b;" horiz-adv-x="632" 
d="M48 128q0 28 6 62l35 182q2 10 2 15q0 15 -17 15h-40l20 108h118q60 0 60 -50q0 -5 -2 -21l-46 -232q-4 -24 -4 -38q0 -65 63 -65t113 53t63 120l46 233h127l-72 -368q-2 -12 -2 -18q0 -17 18 -17h39l-21 -107h-116q-56 0 -56 48q0 9 10 52h-2q-29 -43 -80 -77.5
t-119 -34.5q-67 0 -105 36t-38 104zM236 600l16 84h263l-17 -84h-262z" />
    <glyph glyph-name="Ubreve" unicode="&#x16c;" horiz-adv-x="726" 
d="M70 206q0 28 6 58l58 295q4 22 4 23q0 17 -21 17h-40l21 111h120q65 0 65 -50q0 -13 -5 -33l-72 -370q-4 -17 -4 -37q0 -53 32.5 -81.5t90.5 -28.5q68 0 116 39t61 109l76 386q7 36 24.5 51t51.5 15h132l-21 -111h-45q-20 0 -24 -22l-66 -335q-22 -114 -106 -184
t-207 -70q-115 0 -181 60t-66 158zM459 753q-59 0 -98.5 37.5t-29.5 91.5l3 11h81l-2 -12q-5 -25 7.5 -42t41.5 -17q59 0 73 60l3 11h82l-4 -17q-11 -58 -56 -90.5t-101 -32.5z" />
    <glyph glyph-name="ubreve" unicode="&#x16d;" horiz-adv-x="632" 
d="M48 128q0 28 6 62l35 182q2 10 2 15q0 15 -17 15h-40l20 108h118q60 0 60 -50q0 -5 -2 -21l-46 -232q-4 -24 -4 -38q0 -65 63 -65t113 53t63 120l46 233h127l-72 -368q-2 -12 -2 -18q0 -17 18 -17h39l-21 -107h-116q-56 0 -56 48q0 9 10 52h-2q-29 -43 -80 -77.5
t-119 -34.5q-67 0 -105 36t-38 104zM370 570q-59 0 -98.5 37.5t-29.5 91.5l3 11h81l-2 -12q-5 -25 7.5 -42t41.5 -17q59 0 73 60l3 11h82l-4 -17q-11 -58 -56 -90.5t-101 -32.5z" />
    <glyph glyph-name="Uring" unicode="&#x16e;" horiz-adv-x="726" 
d="M453 744q-33 0 -57 18t-24 50q0 42 31.5 66.5t70.5 24.5q34 0 58 -18.5t24 -51.5q0 -40 -32 -64.5t-71 -24.5zM457 789q18 0 30 12t12 31q0 27 -28 27q-16 0 -28.5 -12.5t-12.5 -31.5q0 -26 27 -26zM70 206q0 28 6 58l58 295q4 22 4 23q0 17 -21 17h-40l21 111h120
q65 0 65 -50q0 -13 -5 -33l-72 -370q-4 -17 -4 -37q0 -53 32.5 -81.5t90.5 -28.5q68 0 116 39t61 109l76 386q7 36 24.5 51t51.5 15h132l-21 -111h-45q-20 0 -24 -22l-66 -335q-22 -114 -106 -184t-207 -70q-115 0 -181 60t-66 158z" />
    <glyph glyph-name="uring" unicode="&#x16f;" horiz-adv-x="632" 
d="M363 561q-33 0 -57 18t-24 50q0 42 31.5 66.5t70.5 24.5q34 0 58 -18.5t24 -51.5q0 -40 -32 -64.5t-71 -24.5zM367 606q18 0 30 12t12 31q0 27 -28 27q-16 0 -28.5 -12.5t-12.5 -31.5q0 -26 27 -26zM48 128q0 28 6 62l35 182q2 10 2 15q0 15 -17 15h-40l20 108h118
q60 0 60 -50q0 -5 -2 -21l-46 -232q-4 -24 -4 -38q0 -65 63 -65t113 53t63 120l46 233h127l-72 -368q-2 -12 -2 -18q0 -17 18 -17h39l-21 -107h-116q-56 0 -56 48q0 9 10 52h-2q-29 -43 -80 -77.5t-119 -34.5q-67 0 -105 36t-38 104z" />
    <glyph glyph-name="Uhungarumlaut" unicode="&#x170;" horiz-adv-x="726" 
d="M70 206q0 28 6 58l58 295q4 22 4 23q0 17 -21 17h-40l21 111h120q65 0 65 -50q0 -13 -5 -33l-72 -370q-4 -17 -4 -37q0 -53 32.5 -81.5t90.5 -28.5q68 0 116 39t61 109l76 386q7 36 24.5 51t51.5 15h132l-21 -111h-45q-20 0 -24 -22l-66 -335q-22 -114 -106 -184
t-207 -70q-115 0 -181 60t-66 158zM491 757l83 136h121l-111 -136h-93zM318 757l80 136h103l-81 -136h-102z" />
    <glyph glyph-name="uhungarumlaut" unicode="&#x171;" horiz-adv-x="632" 
d="M48 128q0 28 6 62l35 182q2 10 2 15q0 15 -17 15h-40l20 108h118q60 0 60 -50q0 -5 -2 -21l-46 -232q-4 -24 -4 -38q0 -65 63 -65t113 53t63 120l46 233h127l-72 -368q-2 -12 -2 -18q0 -17 18 -17h39l-21 -107h-116q-56 0 -56 48q0 9 10 52h-2q-29 -43 -80 -77.5
t-119 -34.5q-67 0 -105 36t-38 104zM401 574l83 136h121l-111 -136h-93zM228 574l80 136h103l-81 -136h-102z" />
    <glyph glyph-name="Uogonek" unicode="&#x172;" horiz-adv-x="728" 
d="M71 206q0 28 6 58l58 295q4 22 4 23q0 17 -21 17h-40l21 111h120q64 0 64 -50q0 -9 -4 -33l-72 -370q-4 -17 -4 -37q0 -53 32 -81.5t90 -28.5q68 0 116.5 39t61.5 109l75 386q7 36 25 51t52 15h132l-21 -111h-45q-21 0 -25 -22l-65 -335q-17 -84 -67 -144.5t-125 -88.5
q-31 -16 -64 -43.5t-33 -54.5q0 -32 53 -36l-38 -84q-47 5 -81 27.5t-34 62.5q0 57 73 108q-112 1 -178 59.5t-66 157.5z" />
    <glyph glyph-name="uogonek" unicode="&#x173;" horiz-adv-x="632" 
d="M368 -119q0 67 83 119q-69 -3 -69 48q0 9 10 52h-2q-29 -43 -80 -77.5t-119 -34.5q-67 0 -105 36t-38 104q0 28 6 62l35 182q2 10 2 15q0 15 -17 15h-40l20 108h118q60 0 60 -50q0 -5 -2 -21l-46 -232q-4 -24 -4 -38q0 -65 63 -65t113 53t63 120l46 233h127l-72 -368
q-2 -12 -2 -18q0 -17 18 -17h39l-21 -107h-1q-19 -2 -52 -33t-33 -56q0 -32 52 -36l-38 -84q-46 5 -80 27.5t-34 62.5z" />
    <glyph glyph-name="Wcircumflex" unicode="&#x174;" horiz-adv-x="992" 
d="M438 757l118 136h109l66 -136h-93l-34 81h-2l-66 -81h-98zM154 0l-35 575q-1 24 -24 24h-22l21 111h89q36 0 53.5 -12.5t18.5 -45.5l15 -423q1 -21 0 -37.5t-2 -27.5l-1 -10h2q11 34 30 75l223 479h110l29 -479l-1 -75h2q10 35 27 75l180 423q25 58 92 58h93l-22 -111
h-22q-23 0 -33 -22l-260 -577h-151l-30 402v88h-2q-14 -42 -36 -88l-193 -402h-151z" />
    <glyph glyph-name="wcircumflex" unicode="&#x175;" horiz-adv-x="845" 
d="M322 574l118 136h109l66 -136h-93l-34 81h-2l-66 -81h-98zM120 0l-47 384q-3 18 -23 18h-16l22 108h84q55 0 59 -55l20 -280v-54h2q9 27 22 54l159 333h112l30 -333l1 -54h2q8 27 20 54l130 283q14 30 30 41t47 11h95l-21 -108h-14q-21 0 -32 -18l-196 -384h-143l-31 291
l-2 55h-2q-10 -28 -23 -55l-142 -291h-143z" />
    <glyph glyph-name="Ycircumflex" unicode="&#x176;" horiz-adv-x="618" 
d="M184 0l60 310l-116 265q-10 24 -36 24h-24l22 111h58q33 0 50.5 -10.5t31.5 -41.5l68 -156q7 -16 14 -36t10 -32l4 -12h2q28 44 56 80l122 156q23 30 44.5 41t51.5 11h83l-22 -111h-25q-24 0 -42 -22l-221 -267l-60 -310h-131zM244 757l118 136h109l66 -136h-93l-34 81
h-2l-66 -81h-98z" />
    <glyph glyph-name="ycircumflex" unicode="&#x177;" horiz-adv-x="555" 
d="M42 -210q-33 0 -64 13t-46 26l-14 13l52 90q36 -36 75 -36q53 0 93 66l26 41l-94 381q-3 11 -8 14.5t-16 3.5h-15l21 108h86q42 0 51 -48l50 -255l5 -68h2q16 42 30 68l136 255q26 48 78 48h91l-21 -108h-15q-22 0 -32 -18l-275 -465q-77 -129 -196 -129zM174 574
l118 136h109l66 -136h-93l-34 81h-2l-66 -81h-98z" />
    <glyph glyph-name="Ydieresis" unicode="&#x178;" horiz-adv-x="618" 
d="M184 0l60 310l-116 265q-10 24 -36 24h-24l22 111h58q33 0 50.5 -10.5t31.5 -41.5l68 -156q7 -16 14 -36t10 -32l4 -12h2q28 44 56 80l122 156q23 30 44.5 41t51.5 11h83l-22 -111h-25q-24 0 -42 -22l-221 -267l-60 -310h-131zM431 777l23 116h89l-23 -116h-89zM252 777
l23 116h88l-23 -116h-88z" />
    <glyph glyph-name="Zacute" unicode="&#x179;" horiz-adv-x="614" 
d="M357 757l102 136h124l-129 -136h-97zM-23 0l16 83l396 452q14 16 30.5 32t26.5 24l10 8v2q-21 -2 -54 -2h-163q-22 0 -26 -22l-9 -43h-118l21 108q13 68 81 68h461l-16 -82l-400 -453q-15 -16 -31.5 -32t-25.5 -24l-10 -8v-2q21 2 54 2h186q23 0 27 22l8 43h119l-21 -108
q-7 -36 -26.5 -52t-54.5 -16h-481z" />
    <glyph glyph-name="zacute" unicode="&#x17a;" horiz-adv-x="528" 
d="M276 574l102 136h124l-129 -136h-97zM-21 0l15 77l287 281l59 53v2q-24 -2 -43 -2h-109q-22 0 -26 -22l-8 -38h-105l18 91q13 68 81 68h374l-14 -78l-287 -281l-61 -52v-2q20 2 53 2h118q22 0 27 24l6 35h106l-18 -90q-7 -36 -26.5 -52t-54.5 -16h-392z" />
    <glyph glyph-name="Zdotaccent" unicode="&#x17b;" horiz-adv-x="614" 
d="M-23 0l16 83l396 452q14 16 30.5 32t26.5 24l10 8v2q-21 -2 -54 -2h-163q-22 0 -26 -22l-9 -43h-118l21 108q13 68 81 68h461l-16 -82l-400 -453q-15 -16 -31.5 -32t-25.5 -24l-10 -8v-2q21 2 54 2h186q23 0 27 22l8 43h119l-21 -108q-7 -36 -26.5 -52t-54.5 -16h-481z
M354 777l23 116h110l-23 -116h-110z" />
    <glyph glyph-name="zdotaccent" unicode="&#x17c;" horiz-adv-x="528" 
d="M-21 0l15 77l287 281l59 53v2q-24 -2 -43 -2h-109q-22 0 -26 -22l-8 -38h-105l18 91q13 68 81 68h374l-14 -78l-287 -281l-61 -52v-2q20 2 53 2h118q22 0 27 24l6 35h106l-18 -90q-7 -36 -26.5 -52t-54.5 -16h-392zM273 594l23 116h110l-23 -116h-110z" />
    <glyph glyph-name="Zcaron" unicode="&#x17d;" horiz-adv-x="614" 
d="M353 757l-65 136h91l35 -81h2l66 81h99l-119 -136h-109zM-23 0l16 83l396 452q14 16 30.5 32t26.5 24l10 8v2q-21 -2 -54 -2h-163q-22 0 -26 -22l-9 -43h-118l21 108q13 68 81 68h461l-16 -82l-400 -453q-15 -16 -31.5 -32t-25.5 -24l-10 -8v-2q21 2 54 2h186q23 0 27 22
l8 43h119l-21 -108q-7 -36 -26.5 -52t-54.5 -16h-481z" />
    <glyph glyph-name="zcaron" unicode="&#x17e;" horiz-adv-x="528" 
d="M272 574l-65 136h91l35 -81h2l66 81h99l-119 -136h-109zM-21 0l15 77l287 281l59 53v2q-24 -2 -43 -2h-109q-22 0 -26 -22l-8 -38h-105l18 91q13 68 81 68h374l-14 -78l-287 -281l-61 -52v-2q20 2 53 2h118q22 0 27 24l6 35h106l-18 -90q-7 -36 -26.5 -52t-54.5 -16h-392
z" />
    <glyph glyph-name="longs" unicode="&#x17f;" horiz-adv-x="284" 
d="M27 0l78 409h-63l20 101h63l5 21q9 48 31 83.5t47 55t56.5 31t55.5 15t48 3.5l49 -4l-23 -112q-12 3 -33 3q-91 0 -107 -89l-101 -517h-126z" />
    <glyph glyph-name="florin" unicode="&#x192;" 
d="M54 -56l-51 3l31 108q10 -2 25 -2q97 0 122 92l53 189h-70l20 101h79l29 101q15 55 45 93t68 55t70 23.5t66 6.5l51 -3l-31 -108q-10 2 -25 2q-97 0 -124 -92l-22 -78h101l-20 -101h-110l-59 -209q-51 -181 -248 -181z" />
    <glyph glyph-name="Scommaaccent" unicode="&#x218;" horiz-adv-x="544" 
d="M153 -55h94q2 -7 2 -18q0 -58 -47 -127h-85q39 70 39 114q0 14 -3 31zM-8 96l81 89q2 -3 6.5 -8.5t20.5 -19t33.5 -24t45.5 -19t58 -8.5q56 0 89.5 26.5t33.5 67.5q0 24 -15.5 43.5t-40 33.5t-54 27.5t-59.5 31t-54.5 39t-40 55t-15.5 75.5q0 97 75.5 157t183.5 60
q79 0 142 -31.5t63 -87.5q0 -13 -4 -35l-11 -52h-115l4 20q3 18 3 20q0 23 -24.5 35t-61.5 12q-57 0 -89.5 -25.5t-32.5 -63.5q0 -27 20.5 -47.5t51.5 -33.5t67.5 -32t67.5 -39.5t51.5 -58.5t20.5 -88q0 -97 -71 -162t-187 -65q-46 0 -88 11t-69 27t-47.5 32t-29.5 27z" />
    <glyph glyph-name="scommaaccent" unicode="&#x219;" horiz-adv-x="466" 
d="M116 -55h94q2 -7 2 -18q0 -58 -47 -127h-85q39 70 39 114q0 14 -3 31zM-14 75l60 83q7 -8 19 -20t51.5 -31.5t80.5 -19.5q35 0 57 14.5t22 39.5q0 17 -13 30t-26.5 19.5t-38.5 15.5q-32 13 -52.5 23t-45.5 28.5t-37.5 45t-12.5 60.5q0 77 62 118t148 41q77 0 134.5 -31
t45.5 -89l-8 -39h-109l2 16q4 20 -15 32.5t-53 12.5q-36 0 -57.5 -14.5t-21.5 -38.5q0 -7 1.5 -12.5t5.5 -11t7 -9.5t10.5 -8t11.5 -7t13.5 -7t13.5 -5.5t15 -6t14 -5.5q31 -12 49.5 -21.5t42 -26.5t34.5 -41.5t11 -56.5q0 -74 -60 -119.5t-151 -45.5q-40 0 -76 9t-59.5 22
t-41 25.5t-25.5 21.5z" />
    <glyph glyph-name="uni021A" unicode="&#x21a;" horiz-adv-x="644" 
d="M200 -55h94q2 -7 2 -18q0 -58 -47 -127h-85q39 70 39 114q0 14 -3 31zM199 0l117 599h-109q-21 0 -26 -22l-9 -43h-115l22 114q7 35 22.5 48.5t49.5 13.5h490q61 0 61 -50q0 -17 -4 -33l-18 -93h-115l5 26q4 20 4 23q0 16 -21 16h-106l-117 -599h-131z" />
    <glyph glyph-name="uni021B" unicode="&#x21b;" horiz-adv-x="354" 
d="M81 -55h94q2 -7 2 -18q0 -58 -47 -127h-85q39 70 39 114q0 14 -3 31zM55 145q0 20 5 48l42 216h-66l20 101h69l27 139h124l-27 -139h116l-20 -101h-116l-39 -200q-3 -17 -3 -31q0 -71 82 -71l26 2l-22 -111q-16 -3 -39 -3q-28 0 -55.5 6.5t-57 21.5t-48 46.5t-18.5 75.5z
" />
    <glyph glyph-name="circumflex" unicode="&#x2c6;" horiz-adv-x="501" 
d="M88 757l118 136h109l66 -136h-93l-34 81h-2l-66 -81h-98z" />
    <glyph glyph-name="caron" unicode="&#x2c7;" horiz-adv-x="502" 
d="M185 757l-65 136h91l35 -81h2l66 81h99l-119 -136h-109z" />
    <glyph glyph-name="breve" unicode="&#x2d8;" horiz-adv-x="518" 
d="M250 753q-59 0 -98.5 37.5t-29.5 91.5l3 11h81l-2 -12q-5 -25 7.5 -42t41.5 -17q59 0 73 60l3 11h82l-4 -17q-11 -58 -56 -90.5t-101 -32.5z" />
    <glyph glyph-name="dotaccent" unicode="&#x2d9;" horiz-adv-x="290" 
d="M78 777l23 116h110l-23 -116h-110z" />
    <glyph glyph-name="ring" unicode="&#x2da;" horiz-adv-x="384" 
d="M181 744q-33 0 -57 18t-24 50q0 42 31.5 66.5t70.5 24.5q34 0 58 -18.5t24 -51.5q0 -40 -32 -64.5t-71 -24.5zM185 789q18 0 30 12t12 31q0 27 -28 27q-16 0 -28.5 -12.5t-12.5 -31.5q0 -26 27 -26z" />
    <glyph glyph-name="ogonek" unicode="&#x2db;" horiz-adv-x="379" 
d="M109 -119q0 80 120 140h67v-21q-18 0 -52.5 -31.5t-34.5 -57.5q0 -32 52 -36l-38 -84q-46 5 -80 27.5t-34 62.5z" />
    <glyph glyph-name="tilde" unicode="&#x2dc;" horiz-adv-x="548" 
d="M82 758q24 137 132 137q34 0 55.5 -16.5t36.5 -32.5t33 -16q39 0 53 62h79q-24 -137 -132 -137q-34 0 -55.5 16.5t-36.5 32.5t-33 16q-20 0 -33.5 -17.5t-18.5 -44.5h-80z" />
    <glyph glyph-name="hungarumlaut" unicode="&#x2dd;" horiz-adv-x="556" 
d="M262 757l83 136h121l-111 -136h-93zM89 757l80 136h103l-81 -136h-102z" />
    <glyph glyph-name="uni0400" unicode="&#x400;" horiz-adv-x="583" 
d="M49 49q0 12 5 37l100 513h-65l21 111h420q65 0 65 -50q0 -9 -4 -33l-18 -93h-119l6 26q3 16 3 23q0 16 -21 16h-157l-36 -186h230l-22 -111h-230l-30 -153q-3 -13 -3 -23q0 -15 18 -15h164q21 0 26 22l9 43h118l-22 -112q-11 -64 -76 -64h-319q-63 0 -63 49zM375 757
l-80 136h116l53 -136h-89z" />
    <glyph glyph-name="uni0401" unicode="&#x401;" horiz-adv-x="583" 
d="M440 777l23 116h89l-23 -116h-89zM261 777l23 116h88l-23 -116h-88zM49 49q0 12 5 37l100 513h-65l21 111h420q65 0 65 -50q0 -9 -4 -33l-18 -93h-119l6 26q3 16 3 23q0 16 -21 16h-157l-36 -186h230l-22 -111h-230l-30 -153q-3 -13 -3 -23q0 -15 18 -15h164q21 0 26 22
l9 43h118l-22 -112q-11 -64 -76 -64h-319q-63 0 -63 49z" />
    <glyph glyph-name="uni0402" unicode="&#x402;" horiz-adv-x="764" 
d="M168 0l118 605h-89q-22 0 -26 -22l-10 -49h-105l22 112q7 35 23.5 49.5t52.5 14.5h505l-20 -105h-222l-33 -166l-7 -32h2q70 35 158 35q97 0 149.5 -53.5t52.5 -136.5q0 -105 -75.5 -184.5t-195.5 -79.5q-32 0 -52 3l21 107q1 0 12 -1t17 -1q53 0 97.5 39.5t44.5 102.5
q0 90 -105 90q-34 0 -71 -9t-56 -18l-20 -9l-57 -292h-131z" />
    <glyph glyph-name="uni0403" unicode="&#x403;" horiz-adv-x="531" 
d="M312 757l102 136h124l-129 -136h-97zM437 599h-153l-117 -599h-131l117 599h-65l22 111h416q61 0 61 -50q0 -9 -4 -33l-18 -93h-115l5 26q3 15 3 23q0 16 -21 16z" />
    <glyph glyph-name="uni0404" unicode="&#x404;" horiz-adv-x="702" 
d="M36 295q0 109 57.5 207.5t158.5 159t218 60.5q51 0 104.5 -13.5t97 -47t43.5 -79.5q0 -7 -2 -19l-14 -72h-118l4 21q4 24 4 27q0 32 -41.5 49t-92.5 17q-90 0 -162 -57.5t-103 -146.5h338l-21 -104h-335q-4 -89 48.5 -140.5t146.5 -51.5q118 0 224 87l55 -96
q-54 -48 -135.5 -78t-160.5 -30q-144 0 -229 85.5t-85 221.5z" />
    <glyph glyph-name="uni0405" unicode="&#x405;" horiz-adv-x="544" 
d="M-8 96l81 89q2 -3 6.5 -8.5t20.5 -19t33.5 -24t45.5 -19t58 -8.5q56 0 89.5 26.5t33.5 67.5q0 24 -15.5 43.5t-40 33.5t-54 27.5t-59.5 31t-54.5 39t-40 55t-15.5 75.5q0 97 75.5 157t183.5 60q79 0 142 -31.5t63 -87.5q0 -13 -4 -35l-11 -52h-115l4 20q3 18 3 20
q0 23 -24.5 35t-61.5 12q-57 0 -89.5 -25.5t-32.5 -63.5q0 -27 20.5 -47.5t51.5 -33.5t67.5 -32t67.5 -39.5t51.5 -58.5t20.5 -88q0 -97 -71 -162t-187 -65q-46 0 -88 11t-69 27t-47.5 32t-29.5 27z" />
    <glyph glyph-name="uni0406" unicode="&#x406;" horiz-adv-x="349" 
d="M-16 0l22 111h70l95 488h-71l22 111h266l-21 -111h-71l-95 -488h71l-22 -111h-266z" />
    <glyph glyph-name="uni0407" unicode="&#x407;" horiz-adv-x="348" 
d="M313 777l23 116h88l-22 -116h-89zM134 777l22 116h89l-23 -116h-88zM-16 0l21 111h70l95 488h-71l22 111h266l-21 -111h-71l-95 -488h71l-22 -111h-265z" />
    <glyph glyph-name="uni0408" unicode="&#x408;" horiz-adv-x="526" 
d="M-10 163q0 21 5 53l6 35h131l-5 -29q-4 -28 -4 -37q0 -39 21 -57t54 -18q40 0 71 26t42 80l67 345q3 15 3 21q0 17 -21 17h-169l22 111h248q65 0 65 -50q0 -8 -4 -32l-83 -430q-21 -107 -90 -158.5t-155 -51.5t-145 46.5t-59 128.5z" />
    <glyph glyph-name="uni0409" unicode="&#x409;" horiz-adv-x="953" 
d="M569 108h95q56 0 92.5 37.5t36.5 94.5q0 37 -25.5 58.5t-68.5 21.5h-111l-35 -176q0 -3 -1 -8t-1.5 -8.5t-0.5 -4.5q0 -15 19 -15zM-46 -6l23 118q80 11 132 98.5t88 278.5l22 110h-66l21 111h421q58 0 58 -45q0 -11 -3 -23l-41 -214h98q39 0 75.5 -9.5t70 -29.5
t53.5 -57t20 -86q0 -115 -80 -180.5t-201 -65.5h-183q-57 0 -57 44q0 10 3 24l96 494q4 20 4 22q0 15 -19 15h-140l-22 -110q-18 -95 -38.5 -165t-50.5 -133.5t-68.5 -104t-93 -65t-122.5 -27.5z" />
    <glyph glyph-name="uni040A" unicode="&#x40a;" horiz-adv-x="1019" 
d="M37 0l108 556q5 23 5 26q0 17 -18 17h-43l21 111h129q57 0 57 -44q0 -12 -3 -24l-43 -214h293l56 282h131l-56 -282h107q55 0 101 -17.5t78 -59.5t32 -104q0 -115 -82 -181t-205 -66h-177q-57 0 -57 47q0 7 3 21l48 252h-292l-62 -320h-131zM634 108h97q54 0 91.5 38.5
t37.5 88.5q0 39 -24 62t-70 23h-113l-32 -169q-5 -25 -5 -27q0 -16 18 -16z" />
    <glyph glyph-name="uni040B" unicode="&#x40b;" horiz-adv-x="799" 
d="M56 534l22 112q7 36 23.5 50t52.5 14h505l-20 -105h-222l-33 -170l-8 -32h2q80 41 165 41q91 0 136.5 -42.5t45.5 -115.5q0 -23 -5 -56l-16 -80q-1 -8 -2.5 -14.5t-2 -9t-0.5 -3.5q0 -12 20 -12h43l-22 -111h-128q-57 0 -57 45q0 14 2 23l27 133q5 27 5 43q0 82 -90 82
q-79 0 -145 -43l-55 -283h-131l118 605h-89q-22 0 -26 -22l-10 -49h-105z" />
    <glyph glyph-name="uni040C" unicode="&#x40c;" horiz-adv-x="637" 
d="M372 757l102 136h124l-129 -136h-97zM37 0l109 559q4 22 4 23q0 17 -21 17h-40l21 111h120q64 0 64 -50q0 -17 -4 -33l-40 -206h50q39 0 56 23l194 266h151l-217 -292q-12 -17 -25.5 -30t-20.5 -18l-7 -5v-2q18 -15 28 -48l56 -180q7 -24 37 -24h32l-22 -111h-79
q-36 0 -54.5 11.5t-28.5 41.5l-71 233q-6 24 -50 24h-51l-60 -310h-131z" />
    <glyph glyph-name="uni040D" unicode="&#x40d;" horiz-adv-x="771" 
d="M37 0l112 577q5 22 -17 22h-43l21 111h129q35 0 48 -16.5t6 -51.5l-65 -331q-3 -19 -10 -46t-12 -45l-5 -17h2q43 68 77 109l338 398h139l-113 -577q-3 -22 18 -22h43l-22 -111h-128q-35 0 -48 16t-6 52l64 332l29 110h-2q-42 -69 -76 -110l-340 -400h-139zM439 757
l-80 136h116l53 -136h-89z" />
    <glyph glyph-name="uni040E" unicode="&#x40e;" horiz-adv-x="629" 
d="M399 742q-65 0 -107 32t-42 81q0 18 5 38h99q-4 -10 -4 -25q0 -23 15 -37t41 -14q70 0 81 76h96q-11 -78 -62.5 -114.5t-121.5 -36.5zM14 42l69 93q31 -31 72 -31q28 0 46.5 15t37.5 46l-126 412q-7 22 -27 22h-23l22 111h67q35 0 49 -12t23 -46l76 -271l20 -88h2
q19 42 44 88l148 271q19 34 38 46t56 12h86l-22 -111h-19q-22 0 -35 -22l-262 -453q-79 -136 -192 -136q-41 0 -84 15.5t-66 38.5z" />
    <glyph glyph-name="uni040F" unicode="&#x40f;" horiz-adv-x="754" 
d="M51 69l94 488q5 20 5 26q0 16 -19 16h-43l22 111h129q56 0 56 -45q0 -7 -2 -23l-95 -488q-5 -23 -5 -27q0 -16 19 -16h259q21 0 26 22l99 509q13 68 81 68h128l-22 -111h-43q-21 0 -26 -22l-99 -509q-7 -36 -26 -52t-54 -16h-157l-28 -140h-115l27 140h-157q-57 0 -57 45
q0 12 3 24z" />
    <glyph glyph-name="uni0410" unicode="&#x410;" horiz-adv-x="674" 
d="M-46 0l22 111h18q21 0 32 22l323 577h137l99 -578q2 -13 6.5 -17t16.5 -4h19l-22 -111h-78q-35 0 -49.5 12t-19.5 46l-20 124h-239l-69 -124q-18 -34 -36 -46t-51 -12h-89zM249 290h180l-27 178l-7 106h-2q-28 -67 -49 -106z" />
    <glyph glyph-name="uni0411" unicode="&#x411;" horiz-adv-x="612" 
d="M48 49q0 3 1 8t2 13t2 13l101 516h-65l21 111h430q56 0 56 -48q0 -8 -2 -20l-21 -108h-118l6 31q2 10 2 16q0 18 -18 18h-160l-34 -174h103q43 0 80.5 -9t70.5 -28t52.5 -55t19.5 -84q0 -113 -84 -181t-203 -68h-185q-57 0 -57 49zM211 108h98q57 0 95 37t38 91
q0 38 -24 59.5t-67 21.5h-121l-33 -167q-5 -22 -5 -27q0 -15 19 -15z" />
    <glyph glyph-name="uni0412" unicode="&#x412;" horiz-adv-x="621" 
d="M49 49q0 12 5 37l100 513h-65l21 111h299q89 0 141.5 -41.5t52.5 -115.5q0 -62 -35.5 -110.5t-85.5 -68.5v-2q42 -18 65.5 -55.5t23.5 -89.5q0 -79 -49.5 -135.5t-120.5 -78.5q-40 -13 -93 -13h-196q-63 0 -63 49zM250 420h116q45 0 75 31.5t30 75.5q0 33 -20 52.5
t-60 19.5h-106zM194 126q0 -15 18 -15h105q27 0 48 10q33 13 52.5 44t19.5 68q0 40 -23 61.5t-65 21.5h-119l-33 -167q-3 -13 -3 -23z" />
    <glyph glyph-name="uni0413" unicode="&#x413;" horiz-adv-x="531" 
d="M437 599h-153l-117 -599h-131l117 599h-65l22 111h416q61 0 61 -50q0 -9 -4 -33l-18 -93h-115l5 26q3 15 3 23q0 16 -21 16z" />
    <glyph glyph-name="uni0414" unicode="&#x414;" horiz-adv-x="743" 
d="M-36 46q7 36 24.5 50.5t52.5 14.5h13q130 156 186 443l8 45h-64l22 111h436q33 0 47 -12t14 -36q0 -11 -4 -35l-100 -516h18q55 0 55 -41q0 -10 -6 -38l-33 -172h-118l20 103q4 20 4 22q0 15 -16 15h-429q-21 0 -26 -22l-23 -118h-118zM195 111h273l87 448q4 20 4 24
q0 16 -21 16h-165l-9 -53q-55 -285 -169 -435z" />
    <glyph glyph-name="uni0415" unicode="&#x415;" horiz-adv-x="583" 
d="M49 49q0 12 5 37l100 513h-65l21 111h420q65 0 65 -50q0 -9 -4 -33l-18 -93h-119l6 26q3 16 3 23q0 16 -21 16h-157l-36 -186h230l-22 -111h-230l-30 -153q-3 -13 -3 -23q0 -15 18 -15h164q21 0 26 22l9 43h118l-22 -112q-11 -64 -76 -64h-319q-63 0 -63 49z" />
    <glyph glyph-name="uni0416" unicode="&#x416;" horiz-adv-x="928" 
d="M-51 0l237 319q14 18 29 31.5t23 17.5l8 4v2q-21 7 -36 49l-54 153q-7 23 -45 23h-17l22 111h57q42 0 59 -10t28 -43l74 -214q6 -17 17 -21.5t34 -4.5h40l57 293h125l-57 -293h28q46 0 66 26l151 214q23 33 45.5 43t63.5 10h69l-21 -111h-14q-37 0 -54 -23l-115 -159
q-13 -19 -28 -32t-23 -17l-9 -4v-2q24 -11 38 -52l115 -310h-134l-102 287q-6 17 -17 22t-31 5h-48l-61 -314h-125l61 314h-41q-38 0 -57 -27l-210 -287h-148z" />
    <glyph glyph-name="uni0417" unicode="&#x417;" horiz-adv-x="545" 
d="M-16 87l77 86q57 -71 149 -71q62 0 106.5 34t44.5 89q0 79 -98 79h-98l21 105h81q51 0 91 33t40 83q0 84 -93 84q-40 0 -70 -18.5t-35 -44.5l-4 -26h-119l12 62q9 49 49.5 82t88.5 45.5t100 12.5q91 0 149 -45.5t58 -126.5q0 -64 -36 -113t-96 -72l-1 -2q42 -17 67 -52.5
t25 -85.5q0 -104 -84 -170.5t-196 -66.5q-68 0 -130 26t-99 73z" />
    <glyph glyph-name="uni0418" unicode="&#x418;" horiz-adv-x="771" 
d="M37 0l112 577q5 22 -17 22h-43l21 111h129q35 0 48 -16.5t6 -51.5l-65 -331q-3 -19 -10 -46t-12 -45l-5 -17h2q43 68 77 109l338 398h139l-113 -577q-3 -22 18 -22h43l-22 -111h-128q-35 0 -48 16t-6 52l64 332l29 110h-2q-42 -69 -76 -110l-340 -400h-139z" />
    <glyph glyph-name="uni0419" unicode="&#x419;" horiz-adv-x="771" 
d="M479 742q-65 0 -107 32t-42 81q0 18 5 38h99q-4 -10 -4 -25q0 -23 15 -37t41 -14q70 0 81 76h96q-11 -78 -62.5 -114.5t-121.5 -36.5zM37 0l112 577q5 22 -17 22h-43l21 111h129q35 0 48 -16.5t6 -51.5l-65 -331q-3 -19 -10 -46t-12 -45l-5 -17h2q43 68 77 109l338 398
h139l-113 -577q-3 -22 18 -22h43l-22 -111h-128q-35 0 -48 16t-6 52l64 332l29 110h-2q-42 -69 -76 -110l-340 -400h-139z" />
    <glyph glyph-name="uni041A" unicode="&#x41a;" horiz-adv-x="637" 
d="M37 0l109 559q4 22 4 23q0 17 -21 17h-40l21 111h120q64 0 64 -50q0 -17 -4 -33l-40 -206h50q39 0 56 23l194 266h151l-217 -292q-12 -17 -25.5 -30t-20.5 -18l-7 -5v-2q18 -15 28 -48l56 -180q7 -24 37 -24h32l-22 -111h-79q-36 0 -54.5 11.5t-28.5 41.5l-71 233
q-6 24 -50 24h-51l-60 -310h-131z" />
    <glyph glyph-name="uni041B" unicode="&#x41b;" horiz-adv-x="698" 
d="M-51 -8l23 118q81 11 137 107.5t95 299.5l16 82h-66l22 111h439q57 0 57 -44q0 -12 -6 -43l-91 -470q-5 -22 -5 -27q0 -15 19 -15h43l-22 -111h-128q-58 0 -58 44q0 7 7 44l91 469q4 19 4 27q0 15 -18 15h-163l-16 -83q-51 -264 -140 -392t-240 -132z" />
    <glyph glyph-name="uni041C" unicode="&#x41c;" horiz-adv-x="878" 
d="M-35 0l21 111h30q20 0 26 22l159 577h133l78 -340l17 -95h2q26 50 53 95l211 340h141l-63 -560q-2 -18 -2 -24q0 -15 17 -15h31l-22 -111h-104q-34 0 -49 12t-15 39q0 6 3 30l36 303l20 110h-2q-35 -72 -60 -110l-169 -262h-106l-67 262l-17 111h-2q-11 -66 -23 -111
l-86 -321q-9 -34 -26 -48.5t-49 -14.5h-116z" />
    <glyph glyph-name="uni041D" unicode="&#x41d;" horiz-adv-x="765" 
d="M37 0l109 559q4 22 4 24q0 16 -21 16h-40l21 111h120q64 0 64 -50q0 -17 -4 -33l-43 -218h313l47 235q7 36 25 51t51 15h133l-22 -111h-45q-20 0 -24 -22l-113 -577h-131l58 298h-313l-58 -298h-131z" />
    <glyph glyph-name="uni041E" unicode="&#x41e;" horiz-adv-x="798" 
d="M37 300q0 112 60 209.5t159.5 155t212.5 57.5q140 0 227.5 -86t87.5 -221q0 -171 -131 -299t-302 -128q-139 0 -226.5 88t-87.5 224zM173 307q0 -88 53 -142.5t136 -54.5q109 0 197.5 89t88.5 208q0 86 -53 139.5t-136 53.5q-110 0 -198 -87t-88 -206z" />
    <glyph glyph-name="uni041F" unicode="&#x41f;" horiz-adv-x="753" 
d="M36 0l117 599h-65l22 111h561q57 0 57 -45q0 -8 -7 -41l-92 -474q-4 -22 -4 -24q0 -15 19 -15h43l-22 -111h-126q-59 0 -59 43q0 17 6 41l92 475q4 20 4 24q0 16 -18 16h-280l-117 -599h-131z" />
    <glyph glyph-name="uni0420" unicode="&#x420;" horiz-adv-x="601" 
d="M36 0l117 599h-65l22 111h315q88 0 142 -52.5t54 -141.5q0 -79 -42.5 -144t-104.5 -97q-60 -30 -122 -30h-137l-48 -245h-131zM237 357h105q60 0 102.5 41.5t42.5 105.5q0 47 -25.5 71t-70.5 24h-107z" />
    <glyph glyph-name="uni0421" unicode="&#x421;" horiz-adv-x="697" 
d="M38 299q0 109 55 206t153 157t214 60q57 0 111 -13.5t96 -47.5t42 -82q0 -8 -7 -50l-9 -45h-118l8 37q6 29 -17.5 48t-52.5 25t-58 6q-113 0 -197.5 -84.5t-84.5 -208.5q0 -89 53 -143t141 -54q127 0 219 82l56 -102q-52 -48 -130 -75t-159 -27q-135 0 -225 86t-90 225z
" />
    <glyph glyph-name="uni0422" unicode="&#x422;" horiz-adv-x="644" 
d="M199 0l117 599h-109q-21 0 -26 -22l-9 -43h-115l22 114q7 35 22.5 48.5t49.5 13.5h490q61 0 61 -50q0 -17 -4 -33l-18 -93h-115l5 26q4 20 4 23q0 16 -21 16h-106l-117 -599h-131z" />
    <glyph glyph-name="uni0423" unicode="&#x423;" horiz-adv-x="629" 
d="M14 42l69 93q31 -31 72 -31q28 0 46.5 15t37.5 46l-126 412q-7 22 -27 22h-23l22 111h67q35 0 49 -12t23 -46l76 -271l20 -88h2q19 42 44 88l148 271q19 34 38 46t56 12h86l-22 -111h-19q-22 0 -35 -22l-262 -453q-79 -136 -192 -136q-41 0 -84 15.5t-66 38.5z" />
    <glyph glyph-name="uni0424" unicode="&#x424;" horiz-adv-x="830" 
d="M35 331q0 148 110 243t279 98l15 78h129l-16 -78q122 0 197.5 -68.5t75.5 -180.5q0 -148 -112.5 -246t-275.5 -99l-18 -90h-129l18 90q-122 0 -197.5 69.5t-75.5 183.5zM458 187q96 2 166 68t70 163q0 67 -43.5 106t-119.5 39zM166 335q0 -68 44 -108t119 -40l73 376
q-98 -2 -167 -66t-69 -162z" />
    <glyph glyph-name="uni0425" unicode="&#x425;" horiz-adv-x="618" 
d="M-47 0l291 364l-93 210q-11 25 -42 25h-26l22 111h71q36 0 55.5 -11t31.5 -41l48 -115l29 -85h2q27 44 59 85l90 115q22 29 42 40.5t53 11.5h90l-21 -111h-29q-28 0 -47 -24l-179 -219l154 -356h-142l-77 183l-30 81h-2q-26 -41 -58 -81l-143 -183h-149z" />
    <glyph glyph-name="uni0426" unicode="&#x426;" horiz-adv-x="770" 
d="M48 42q0 18 6 42l92 476q0 3 1 8.5t2 10t1 5.5q0 15 -19 15h-43l22 111h129q56 0 56 -45q0 -12 -6 -39l-92 -476q-4 -18 -4 -25q0 -14 19 -14h282l117 599h131l-117 -599h20q55 0 55 -41q0 -4 -6 -40l-33 -170h-116l20 102q4 14 4 24q0 14 -16 14h-448q-57 0 -57 42z" />
    <glyph glyph-name="uni0427" unicode="&#x427;" horiz-adv-x="670" 
d="M102 419q0 27 6 59l17 85q2 16 2 19q0 17 -18 17h-43l22 111h128q57 0 57 -45q0 -5 -2 -23l-27 -136q-4 -28 -4 -39q0 -86 107 -86q69 0 142 47l55 282h131l-139 -710h-131l53 272l9 33h-2q-82 -41 -174 -41q-94 0 -141.5 40t-47.5 115z" />
    <glyph glyph-name="uni0428" unicode="&#x428;" horiz-adv-x="1033" 
d="M53 81l96 492q0 2 0.5 5t0.5 4q0 17 -18 17h-43l21 111h129q57 0 57 -45q0 -7 -4 -27l-95 -492q0 -2 -1 -6.5t-2 -8t-1 -4.5q0 -16 19 -16h203l117 599h131l-117 -599h204q21 0 26 22l99 509q14 68 81 68h129l-22 -111h-43q-21 0 -26 -22l-99 -509q-7 -36 -26.5 -52
t-54.5 -16h-709q-57 0 -57 45q0 14 5 36z" />
    <glyph glyph-name="uni0429" unicode="&#x429;" horiz-adv-x="1053" 
d="M48 45q0 14 5 36l96 492q0 2 0.5 5t0.5 4q0 17 -18 17h-43l21 111h129q57 0 57 -45q0 -7 -4 -27l-95 -492q0 -2 -1 -6.5t-2 -8t-1 -4.5q0 -16 19 -16h203l117 599h131l-117 -599h226l116 599h131l-116 -599h28q29 0 42 -9.5t13 -31.5q0 -11 -4 -31l-35 -180h-115l19 98
q5 25 5 29q0 14 -16 14h-735q-57 0 -57 45z" />
    <glyph glyph-name="uni042A" unicode="&#x42a;" horiz-adv-x="750" 
d="M193 68l103 531h-91q-22 0 -27 -22l-8 -43h-115l22 112q7 35 23.5 49.5t52.5 14.5h361l-22 -111h-65l-28 -145h126q88 0 144 -48t56 -143q0 -67 -25.5 -119.5t-68.5 -83t-94.5 -45.5t-108.5 -15h-181q-57 0 -57 45q0 9 3 23zM354 111h97q58 0 98.5 40t40.5 105
q0 42 -24 64.5t-68 22.5h-120l-39 -193q-1 -5 -2 -11l-1.5 -9t-0.5 -4q0 -15 19 -15z" />
    <glyph glyph-name="uni042B" unicode="&#x42b;" horiz-adv-x="896" 
d="M626 68l125 642h131l-111 -566q-3 -14 -3 -18q0 -15 19 -15h43l-22 -111h-128q-57 0 -57 45q0 9 3 23zM50 68l95 489q5 20 5 27q0 15 -19 15h-43l22 111h128q57 0 57 -45q0 -11 -3 -23l-35 -181h112q91 0 147.5 -47t56.5 -143q0 -120 -84.5 -195.5t-211.5 -75.5h-173
q-57 0 -57 45q0 11 3 23zM211 111h90q56 0 96.5 42t40.5 109q0 43 -23.5 65.5t-66.5 22.5h-112l-39 -200l-5 -23q0 -16 19 -16z" />
    <glyph glyph-name="uni042C" unicode="&#x42c;" horiz-adv-x="597" 
d="M50 68l95 489q5 20 5 27q0 15 -19 15h-43l22 111h128q57 0 57 -45q0 -11 -3 -23l-35 -181h112q91 0 147.5 -47t56.5 -143q0 -120 -84.5 -195.5t-211.5 -75.5h-173q-57 0 -57 45q0 11 3 23zM211 111h90q56 0 96.5 42t40.5 109q0 43 -23.5 65.5t-66.5 22.5h-112l-39 -200
l-5 -23q0 -16 19 -16z" />
    <glyph glyph-name="uni042D" unicode="&#x42d;" horiz-adv-x="702" 
d="M-11 98l72 88q32 -37 86.5 -59.5t112.5 -22.5q92 0 168.5 55.5t103.5 140.5h-339l20 105h341q5 87 -44.5 143.5t-142.5 56.5q-56 0 -109 -19.5t-60 -55.5l-7 -39h-119l14 72q14 72 96.5 115.5t186.5 43.5q148 0 232.5 -89.5t84.5 -225.5q0 -174 -125 -296.5t-301 -122.5
q-79 0 -151 28t-120 82z" />
    <glyph glyph-name="uni042E" unicode="&#x42e;" horiz-adv-x="1082" 
d="M37 0l109 562q4 18 4 21q0 16 -18 16h-43l21 111h129q57 0 57 -45q0 -11 -3 -23l-46 -233h109q38 134 152.5 223.5t254.5 89.5q136 0 220.5 -86t84.5 -221q0 -113 -59 -212t-156.5 -157t-207.5 -58q-137 0 -219.5 88t-83.5 222h-116l-58 -298h-131zM477 307
q0 -88 49.5 -142.5t129.5 -54.5q106 0 191 89t85 208q0 87 -49.5 140t-129.5 53q-107 0 -191.5 -87t-84.5 -206z" />
    <glyph glyph-name="uni042F" unicode="&#x42f;" horiz-adv-x="638" 
d="M-35 0l22 111h11q37 0 55 23l93 118q10 13 21.5 23.5t18.5 14.5l6 4l1 2q-101 52 -101 161q0 110 81 181.5t190 71.5h327l-21 -111h-65l-117 -599h-131l50 256h-58q-28 0 -41.5 -7t-33.5 -33l-126 -163q-25 -32 -47.5 -42.5t-62.5 -10.5h-72zM326 367h101l46 232h-103
q-60 0 -102 -38t-42 -98q0 -46 26.5 -71t73.5 -25z" />
    <glyph glyph-name="uni0430" unicode="&#x430;" horiz-adv-x="544" 
d="M-7 123q0 68 50 114t123 64.5t165 18.5h18l2 10q3 15 3 31q0 63 -78 63q-71 0 -76 -34l-5 -27h-119l11 54q10 55 69 80t136 25q189 0 189 -148q0 -22 -7 -57l-33 -174q-4 -16 -4 -21q0 -15 19 -15h40l-21 -107h-108q-56 0 -56 42q0 14 9 48h-2q-2 -4 -7 -11t-21 -24.5
t-35 -31t-50 -24.5t-64 -11q-64 0 -106 35.5t-42 99.5zM120 142q0 -28 17 -44t45 -16q50 0 94.5 45.5t53.5 92.5l3 13h-21q-48 0 -88.5 -7t-72 -28.5t-31.5 -55.5z" />
    <glyph glyph-name="uni0431" unicode="&#x431;" horiz-adv-x="585" 
d="M31 226q0 103 42 210q30 75 78.5 120t135.5 80l106 43q39 16 51.5 25t16.5 27l5 19h121l-10 -50q-7 -35 -28.5 -60t-38 -33t-59.5 -25q-9 -4 -14 -6l-116 -46q-120 -48 -139 -137h1q63 71 162 71q94 0 145.5 -53.5t51.5 -145.5q0 -123 -87.5 -200t-208.5 -77
q-111 0 -163 67t-52 171zM156 202q0 -53 28.5 -80.5t73.5 -27.5q61 0 109.5 45.5t48.5 114.5q0 51 -29 77.5t-76 26.5q-87 0 -134 -77q-21 -35 -21 -79z" />
    <glyph glyph-name="uni0432" unicode="&#x432;" horiz-adv-x="544" 
d="M35 54l67 348h-62l21 108h290q73 0 115 -31t42 -85q0 -47 -28 -81t-65 -47v-2q33 -11 51.5 -38.5t18.5 -62.5q0 -76 -62 -119.5t-151 -43.5h-194q-45 0 -45 36q0 11 2 18zM185 86h76q45 0 71.5 23t26.5 61q0 52 -72 52h-93l-20 -101q-4 -20 -4 -23q0 -12 15 -12zM209 301
h85q38 0 61.5 22t23.5 56q0 45 -63 45h-83z" />
    <glyph glyph-name="uni0433" unicode="&#x433;" horiz-adv-x="455" 
d="M25 0l78 402h-62l21 108h349q57 0 57 -44q0 -10 -3 -23l-17 -92h-104l4 23q0 3 0.5 6t1 5t0.5 3q0 14 -19 14h-101l-79 -402h-126z" />
    <glyph glyph-name="uni0434" unicode="&#x434;" horiz-adv-x="611" 
d="M-40 37q7 35 24.5 51t50.5 16h5q83 85 125 273l5 25h-59l21 108h365q36 0 49 -16.5t6 -51.5l-66 -338h13q33 0 45 -16t5 -51l-30 -157h-115l19 98q3 22 -16 22h-320q-21 -2 -25 -22l-18 -98h-115zM170 104h189l54 276q4 22 -18 22h-106l-5 -25q-36 -185 -114 -273z" />
    <glyph glyph-name="uni0435" unicode="&#x435;" horiz-adv-x="545" 
d="M18 207q0 131 85 223t211 92q99 0 151 -52.5t52 -140.5q0 -20 -4.5 -44.5t-8.5 -38.5l-4 -14h-351q-3 -12 -3 -26q0 -49 34 -80t93 -31q36 0 75.5 14t61.5 28l21 14l34 -96q-10 -8 -27.5 -19t-70 -29.5t-102.5 -18.5q-116 0 -181.5 61.5t-65.5 157.5zM166 317h223
q3 13 3 23q0 39 -22 61.5t-59 22.5q-49 0 -88 -29t-57 -78z" />
    <glyph glyph-name="uni0436" unicode="&#x436;" horiz-adv-x="781" 
d="M-43 0l154 206q14 19 30.5 32t26.5 16l9 4l1 2q-17 7 -27 41l-24 82q-6 19 -40 19h-35l21 108h81q33 0 48 -8.5t24 -35.5l39 -130q7 -24 47 -24h25l39 198h121l-38 -198h20q35 0 52 24l90 130q19 26 39.5 35t54.5 9h84l-21 -108h-29q-33 0 -46 -19l-56 -82
q-10 -15 -23 -25.5t-20 -13.5l-8 -2v-2l2 -1q3 -1 7.5 -5t9.5 -9t11 -15t10 -22l74 -206h-130l-59 170q-12 35 -53 35h-30l-40 -205h-122l41 205h-24q-40 0 -66 -35l-126 -170h-144z" />
    <glyph glyph-name="uni0437" unicode="&#x437;" horiz-adv-x="453" 
d="M-22 63l62 78q49 -54 126 -54q44 0 73.5 22.5t29.5 62.5q0 47 -73 47h-66l16 83h49q46 0 74 21t28 60q0 47 -66 47q-28 0 -52 -11t-27 -33l-4 -21h-102l9 51q10 52 63.5 79t125.5 27q84 0 131.5 -32.5t47.5 -91.5q0 -52 -30 -87t-68 -46v-2q29 -10 48.5 -35t19.5 -64
q0 -82 -67.5 -129t-157.5 -47q-115 0 -190 75z" />
    <glyph glyph-name="uni0438" unicode="&#x438;" horiz-adv-x="635" 
d="M24 0l72 367q3 18 3 20q0 15 -18 15h-40l21 108h113q56 0 56 -44q0 -11 -3 -23l-40 -204l-14 -59h2q12 20 51 63l241 267h126l-71 -364q-4 -18 -4 -23q0 -16 18 -16h39l-21 -107h-112q-56 0 -56 44q0 7 2 23l39 203q3 18 14 59h-2q-18 -28 -51 -62l-239 -267h-126z" />
    <glyph glyph-name="uni0439" unicode="&#x439;" horiz-adv-x="635" 
d="M24 0l72 367q3 18 3 20q0 15 -18 15h-40l21 108h113q56 0 56 -44q0 -11 -3 -23l-40 -204l-14 -59h2q12 20 51 63l241 267h126l-71 -364q-4 -18 -4 -23q0 -16 18 -16h39l-21 -107h-112q-56 0 -56 44q0 7 2 23l39 203q3 18 14 59h-2q-18 -28 -51 -62l-239 -267h-126z
M384 559q-65 0 -107 32t-42 81q0 18 5 38h99q-4 -10 -4 -25q0 -23 15 -37t41 -14q70 0 81 76h96q-11 -78 -62.5 -114.5t-121.5 -36.5z" />
    <glyph glyph-name="uni043A" unicode="&#x43a;" horiz-adv-x="564" 
d="M25 0l71 366q3 18 3 21q0 15 -18 15h-39l20 108h118q60 0 60 -48q0 -8 -4 -26l-22 -118h34q32 0 48 21l141 171h145l-172 -207q-12 -14 -23.5 -24t-16.5 -13l-6 -3l-1 -2q21 -8 34 -40l38 -95q8 -19 39 -19h33l-21 -107h-91q-33 0 -46.5 8.5t-23.5 35.5l-53 148
q-8 19 -42 19h-37l-41 -211h-127z" />
    <glyph glyph-name="uni043B" unicode="&#x43b;" horiz-adv-x="569" 
d="M-42 -3l20 112q36 3 68 38q59 65 89 216l8 39h-62l20 108h359q58 0 58 -45q0 -11 -3 -23l-59 -302q-3 -12 -3 -17q0 -16 19 -16h40l-21 -107h-121q-57 0 -57 45q0 9 3 23l58 301q0 3 1 7t1.5 6.5t0.5 3.5q0 16 -18 16h-96l-8 -40q-44 -227 -148 -314q-64 -51 -149 -51z
" />
    <glyph glyph-name="uni043C" unicode="&#x43c;" horiz-adv-x="742" 
d="M-39 0l21 107h22q16 0 21 18l110 385h137l59 -265l11 -64h1q19 35 36 64l161 265h149l-39 -371q-1 -10 -1 -18q0 -14 14 -14h23l-22 -107h-94q-24 0 -34 9t-10 28q0 14 1 21l25 210l15 93h-2q-23 -44 -46 -80l-140 -217h-110l-56 217l-11 83h-2q-9 -62 -18 -96l-59 -214
q-8 -28 -22 -41t-43 -13h-97z" />
    <glyph glyph-name="uni043D" unicode="&#x43d;" horiz-adv-x="636" 
d="M25 0l70 362q5 22 5 25q0 15 -19 15h-40l21 108h121q57 0 57 -45q0 -11 -3 -23l-25 -131h217l39 199h127l-71 -362q-4 -24 -4 -26q0 -15 18 -15h40l-21 -107h-121q-57 0 -57 44q0 12 3 25l27 138h-217l-41 -207h-126z" />
    <glyph glyph-name="uni043E" unicode="&#x43e;" horiz-adv-x="619" 
d="M17 214q0 130 97.5 219t227.5 89q108 0 176 -62.5t68 -162.5q0 -131 -98 -220t-227 -89q-107 0 -175.5 62.5t-68.5 163.5zM146 220q0 -57 34.5 -90.5t90.5 -33.5q71 0 128.5 55.5t57.5 137.5q0 56 -34.5 90.5t-89.5 34.5q-72 0 -129.5 -56.5t-57.5 -137.5z" />
    <glyph glyph-name="uni043F" unicode="&#x43f;" horiz-adv-x="625" 
d="M25 0l78 402h-62l21 108h455q57 0 57 -45q0 -11 -3 -23l-57 -295q-4 -22 -4 -25q0 -15 19 -15h39l-21 -107h-121q-57 0 -57 44q0 12 3 25l59 300q0 3 1 7t1.5 6.5t0.5 3.5q0 16 -19 16h-185l-79 -402h-126z" />
    <glyph glyph-name="uni0440" unicode="&#x440;" horiz-adv-x="620" 
d="M-14 -200l109 561q3 17 3 26q0 15 -17 15h-40l21 108h113q54 0 54 -38q0 -18 -8 -39h2q63 89 170 89q90 0 141 -58t51 -159q0 -135 -84.5 -226t-193.5 -91q-100 0 -144 75h-2q-2 -20 -7 -46l-42 -217h-126zM192 211q0 -51 25 -83.5t74 -32.5q63 0 114 56t51 144
q0 56 -26.5 87t-73.5 31q-64 0 -114 -60.5t-50 -141.5z" />
    <glyph glyph-name="uni0441" unicode="&#x441;" horiz-adv-x="535" 
d="M18 218q0 123 89.5 213.5t220.5 90.5q32 0 64.5 -6t64.5 -19.5t49 -40t10 -62.5l-9 -47h-110l3 16q5 25 -19.5 38.5t-60.5 13.5q-72 0 -122.5 -56t-50.5 -129q0 -57 33.5 -94.5t100.5 -37.5q42 0 81.5 15t57.5 29l18 15l34 -98q-3 -3 -8.5 -7.5t-24.5 -17t-41 -22
t-58 -17t-74 -7.5q-118 0 -183 65t-65 165z" />
    <glyph glyph-name="uni0442" unicode="&#x442;" horiz-adv-x="549" 
d="M153 0l78 402h-68q-22 0 -27 -22l-5 -29h-104l17 92q7 36 26.5 51.5t55.5 15.5h380q57 0 57 -44q0 -11 -3 -23l-17 -92h-104l3 18q3 15 3 18q0 15 -19 15h-68l-78 -402h-127z" />
    <glyph glyph-name="uni0443" unicode="&#x443;" horiz-adv-x="554" 
d="M43 -210q-33 0 -64 13t-45 26l-15 13l52 90q36 -36 75 -36q52 0 93 66l26 41l-94 381q-3 11 -8 14.5t-16 3.5h-15l21 108h86q42 0 51 -48l50 -255l5 -68h2q16 42 30 68l136 255q26 48 78 48h91l-21 -108h-15q-22 0 -32 -18l-275 -465q-77 -129 -196 -129z" />
    <glyph glyph-name="uni0444" unicode="&#x444;" horiz-adv-x="760" 
d="M18 214q0 131 95.5 212.5t244.5 83.5l13 64q2 12 2 13q0 15 -19 15h-40l21 108h121q57 0 57 -45q0 -7 -2 -23l-26 -132q103 -2 171.5 -60t68.5 -154q0 -131 -95 -212.5t-244 -83.5l-39 -200h-126l38 200q-104 2 -172.5 60t-68.5 154zM405 102q78 2 134.5 55t56.5 133
q0 54 -35 86t-96 32zM147 220q0 -54 35 -86t97 -32l59 306q-78 -2 -134.5 -55t-56.5 -133z" />
    <glyph glyph-name="uni0445" unicode="&#x445;" horiz-adv-x="526" 
d="M-39 0l221 263l-64 121q-10 18 -36 18h-37l21 108h82q29 0 44.5 -11.5t28.5 -39.5l38 -81l11 -32h2q12 20 21 32l63 81q24 31 40 41t48 10h99l-21 -108h-37q-28 0 -42 -17l-114 -131l121 -254h-132l-68 142l-10 27h-2q-8 -14 -18 -27l-115 -142h-144z" />
    <glyph glyph-name="uni0446" unicode="&#x446;" horiz-adv-x="624" 
d="M34 43q0 9 3 23l57 297q4 17 4 23q0 16 -18 16h-40l21 108h121q57 0 57 -45q0 -11 -3 -23l-57 -295q-5 -22 -5 -27q0 -16 18 -16h179l79 406h127l-79 -406h13q53 0 53 -43q0 -11 -3 -24l-30 -157h-115l16 84q3 12 3 20q0 16 -16 16h-328q-57 0 -57 43z" />
    <glyph glyph-name="uni0447" unicode="&#x447;" horiz-adv-x="558" 
d="M32 402l21 108h115q54 0 54 -45q0 -6 -2 -24l-16 -81q-3 -15 -3 -29q0 -56 71 -56q52 0 102 32l40 203h127l-100 -510h-127l35 175l7 28h-1q-68 -31 -141 -31q-67 0 -106.5 31.5t-39.5 84.5q0 14 3 31l10 50q0 3 1 7.5t1.5 7t0.5 3.5q0 15 -19 15h-33z" />
    <glyph glyph-name="uni0448" unicode="&#x448;" horiz-adv-x="852" 
d="M34 44q0 11 3 23l56 295q1 5 2 11t2 9.5t1 4.5q0 15 -19 15h-39l21 108h120q57 0 57 -45q0 -11 -3 -23l-57 -297q-1 -5 -2 -11t-2 -9.5t-1 -5.5q0 -15 18 -15h133l79 406h126l-79 -406h136q21 0 26 22l61 316q13 68 81 68h120l-21 -108h-40q-22 0 -26 -22l-60 -313
q-14 -67 -81 -67h-556q-56 0 -56 44z" />
    <glyph glyph-name="uni0449" unicode="&#x449;" horiz-adv-x="862" 
d="M34 44q0 11 3 23l56 295q1 5 2 11t2 9.5t1 4.5q0 15 -19 15h-39l21 108h120q57 0 57 -45q0 -11 -3 -23l-57 -297q-5 -20 -5 -26q0 -15 18 -15h133l79 406h126l-79 -406h157l79 406h127l-79 -406h16q54 0 54 -42q0 -10 -3 -21l-31 -161h-115l16 83q4 20 4 23q0 14 -19 14
h-566q-56 0 -56 44z" />
    <glyph glyph-name="uni044A" unicode="&#x44a;" horiz-adv-x="629" 
d="M145 36q0 4 2 18l61 315q1 5 2 11l1.5 9t0.5 4q0 16 -19 16h-36q-20 0 -24 -22l-7 -35h-100l17 91q7 36 26.5 51.5t54.5 15.5h172q56 0 56 -44q0 -11 -2 -21l-22 -111h92q84 0 126.5 -37.5t42.5 -99.5q0 -92 -63.5 -144.5t-154.5 -52.5h-180q-46 0 -46 36zM298 87h63
q43 0 71 28.5t28 72.5q0 59 -68 59h-80l-25 -124q-1 -5 -2 -11t-1.5 -8.5t-0.5 -3.5q0 -13 15 -13z" />
    <glyph glyph-name="uni044B" unicode="&#x44b;" horiz-adv-x="772" 
d="M518 68l86 442h127l-74 -381q-5 -22 17 -22h40l-21 -107h-121q-35 0 -48 16t-6 52zM33 36q0 11 2 18l59 309q5 20 5 24q0 15 -19 15h-40l21 108h122q57 0 57 -44q0 -6 -3 -21l-22 -111h87q84 0 127 -37.5t43 -99.5q0 -92 -63.5 -144.5t-154.5 -52.5h-176q-45 0 -45 36z
M185 87h59q43 0 71 28.5t28 72.5q0 27 -17.5 43t-50.5 16h-76l-24 -124q-5 -22 -5 -23q0 -13 15 -13z" />
    <glyph glyph-name="uni044C" unicode="&#x44c;" horiz-adv-x="516" 
d="M35 54l59 309q5 20 5 24q0 15 -19 15h-40l21 108h122q57 0 57 -44q0 -6 -3 -21l-22 -111h92q84 0 126.5 -37.5t42.5 -99.5q0 -92 -63.5 -144.5t-154.5 -52.5h-180q-45 0 -45 36q0 11 2 18zM185 87h64q43 0 71 28.5t28 72.5q0 27 -17.5 43t-50.5 16h-81l-24 -124
q-5 -22 -5 -23q0 -13 15 -13z" />
    <glyph glyph-name="uni044D" unicode="&#x44d;" horiz-adv-x="535" 
d="M-21 64l53 84q25 -28 65 -44t82 -16q62 0 112.5 34.5t73.5 89.5h-217l17 84h217q0 61 -36.5 93.5t-91.5 32.5q-34 0 -64 -12t-34 -32l-4 -22h-106l9 44q10 56 69.5 89t138.5 33q110 0 174 -66t64 -165q0 -122 -92 -212.5t-224 -90.5q-58 0 -115.5 19.5t-90.5 56.5z" />
    <glyph glyph-name="uni044E" unicode="&#x44e;" horiz-adv-x="859" 
d="M24 0l71 365l2 10t1.5 8t0.5 4q0 15 -19 15h-39l21 108h121q56 0 56 -45q0 -7 -2 -23l-27 -135h79q30 95 113.5 155t185.5 60q104 0 170.5 -63t66.5 -166q0 -128 -94.5 -216.5t-221.5 -88.5q-101 0 -166 60.5t-67 161.5h-84l-41 -210h-127zM405 223q0 -59 31.5 -93
t83.5 -34q69 0 122.5 55.5t53.5 134.5q0 58 -33 93t-85 35q-69 0 -121 -55.5t-52 -135.5z" />
    <glyph glyph-name="uni044F" unicode="&#x44f;" horiz-adv-x="544" 
d="M-31 0l21 108h16q26 0 41 17l51 59q13 15 31 25l1 2q-33 11 -53.5 41.5t-20.5 74.5q0 82 59 132.5t142 50.5h309l-21 -108h-62l-78 -402h-127l34 174h-42q-15 0 -25.5 -6.5t-26.5 -24.5l-84 -99q-26 -29 -44 -36.5t-51 -7.5h-70zM259 261h70l32 165h-73
q-46 0 -75.5 -27.5t-29.5 -70.5q0 -32 20 -49.5t56 -17.5z" />
    <glyph glyph-name="uni0450" unicode="&#x450;" horiz-adv-x="547" 
d="M18 207q0 131 85 223t211 92q99 0 151 -52.5t52 -140.5q0 -20 -4.5 -44.5t-8.5 -38.5l-4 -14h-351q-3 -12 -3 -26q0 -49 34 -80t93 -31q36 0 75.5 14t61.5 28l21 14l34 -96q-10 -8 -27.5 -19t-70 -29.5t-102.5 -18.5q-116 0 -181.5 61.5t-65.5 157.5zM166 317h223
q3 13 3 23q0 39 -22 61.5t-59 22.5q-49 0 -88 -29t-57 -78zM312 574l-80 136h116l53 -136h-89z" />
    <glyph glyph-name="uni0451" unicode="&#x451;" horiz-adv-x="547" 
d="M386 594l23 116h89l-23 -116h-89zM207 594l23 116h88l-23 -116h-88zM18 207q0 131 85 223t211 92q99 0 151 -52.5t52 -140.5q0 -20 -4.5 -44.5t-8.5 -38.5l-4 -14h-351q-3 -12 -3 -26q0 -49 34 -80t93 -31q36 0 75.5 14t61.5 28l21 14l34 -96q-10 -8 -27.5 -19t-70 -29.5
t-102.5 -18.5q-116 0 -181.5 61.5t-65.5 157.5zM166 317h223q3 13 3 23q0 39 -22 61.5t-59 22.5q-49 0 -88 -29t-57 -78z" />
    <glyph glyph-name="uni0452" unicode="&#x452;" horiz-adv-x="594" 
d="M4 0l104 541h-60l17 88h61l15 81h127l-15 -81h189l-17 -88h-190l-26 -138l-13 -44h2q23 39 76.5 70.5t113.5 31.5q71 0 112 -34t41 -105q0 -22 -7 -61l-51 -266q-12 -62 -40.5 -105.5t-66.5 -63.5t-69.5 -27.5t-62.5 -7.5l-52 3l22 108q13 -2 31 -2q94 0 114 110l44 227
q5 28 5 46q0 62 -63 62q-64 0 -116 -52t-66 -124l-33 -169h-126z" />
    <glyph glyph-name="uni0453" unicode="&#x453;" horiz-adv-x="455" 
d="M232 574l102 136h124l-129 -136h-97zM25 0l78 402h-62l21 108h349q57 0 57 -44q0 -10 -3 -23l-17 -92h-104l4 23q0 3 0.5 6t1 5t0.5 3q0 14 -19 14h-101l-79 -402h-126z" />
    <glyph glyph-name="uni0454" unicode="&#x454;" horiz-adv-x="536" 
d="M18 216q0 126 92 216t232 90q62 0 119 -27.5t57 -75.5q0 -8 -1 -12l-10 -51h-105l2 14q3 11 3 15q0 18 -23 28.5t-55 10.5q-61 0 -107.5 -35t-69.5 -92h224l-15 -83h-225q1 -58 39.5 -91.5t101.5 -33.5q88 0 164 67l39 -93q-35 -32 -98 -53.5t-120 -21.5
q-114 0 -179 63.5t-65 164.5z" />
    <glyph glyph-name="uni0455" unicode="&#x455;" horiz-adv-x="466" 
d="M-14 75l60 83q7 -8 19 -20t51.5 -31.5t80.5 -19.5q35 0 57 14.5t22 39.5q0 17 -13 30t-26.5 19.5t-38.5 15.5q-32 13 -52.5 23t-45.5 28.5t-37.5 45t-12.5 60.5q0 77 62 118t148 41q77 0 134.5 -31t45.5 -89l-8 -39h-109l2 16q4 20 -15 32.5t-53 12.5q-36 0 -57.5 -14.5
t-21.5 -38.5q0 -7 1.5 -12.5t5.5 -11t7 -9.5t10.5 -8t11.5 -7t13.5 -7t13.5 -5.5t15 -6t14 -5.5q31 -12 49.5 -21.5t42 -26.5t34.5 -41.5t11 -56.5q0 -74 -60 -119.5t-151 -45.5q-40 0 -76 9t-59.5 22t-41 25.5t-25.5 21.5z" />
    <glyph glyph-name="uni0456" unicode="&#x456;" horiz-adv-x="289" 
d="M145 593l23 117h110l-23 -117h-110zM35 49q0 8 3 23l57 293q3 15 3 22q0 15 -18 15h-40l21 108h117q60 0 60 -48q0 -9 -4 -31l-57 -293q-2 -10 -2 -15q0 -16 18 -16h39l-20 -107h-117q-60 0 -60 49z" />
    <glyph glyph-name="uni0457" unicode="&#x457;" horiz-adv-x="289" 
d="M35 49q0 8 3 23l57 293q3 15 3 22q0 15 -18 15h-40l21 108h117q60 0 60 -48q0 -9 -4 -31l-57 -293q-2 -10 -2 -15q0 -16 18 -16h39l-20 -107h-117q-60 0 -60 49zM224 593l22 117h89l-23 -117h-88zM69 593l23 117h88l-22 -117h-89z" />
    <glyph glyph-name="uni0458" unicode="&#x458;" horiz-adv-x="267" 
d="M146 593l22 117h110l-22 -117h-110zM25 3l71 362q3 15 3 22q0 15 -18 15h-39l20 108h117q61 0 61 -47q0 -5 -4 -31l-87 -448q-12 -61 -41.5 -102.5t-68.5 -59t-69 -23.5t-61 -6l-47 3l21 107q8 -2 21 -2q102 0 121 102z" />
    <glyph glyph-name="uni0459" unicode="&#x459;" horiz-adv-x="769" 
d="M-46 -5l21 112q42 3 76 40q59 66 89 222l7 33h-62l21 108h334q57 0 57 -43q0 -11 -1 -15l-25 -126h92q80 0 122.5 -37.5t42.5 -99.5q0 -86 -59 -137.5t-167 -51.5h-167q-46 0 -46 37q0 5 2 17l61 313l5 25q0 16 -19 16h-71l-6 -34q-42 -216 -128 -307q-69 -72 -179 -72z
M443 87h61q45 0 73.5 25.5t28.5 64.5q0 61 -75 61h-77l-22 -113l-5 -25q0 -13 16 -13z" />
    <glyph glyph-name="uni045A" unicode="&#x45a;" horiz-adv-x="846" 
d="M25 0l70 359q5 25 5 28q0 15 -19 15h-39l21 108h121q56 0 56 -45q0 -7 -2 -23l-23 -118h209l36 186h127l-36 -185h88q83 0 125.5 -38t42.5 -100q0 -82 -62.5 -134.5t-154.5 -52.5h-175q-46 0 -46 36q0 4 2 18l34 171h-209l-44 -225h-127zM522 87h64q42 0 69.5 25.5
t27.5 66.5q0 55 -68 55h-82l-21 -111q-5 -22 -5 -24q0 -12 15 -12z" />
    <glyph glyph-name="uni045B" unicode="&#x45b;" horiz-adv-x="619" 
d="M4 0l104 541h-61l18 88h61l15 81h127l-15 -81h189l-17 -88h-190l-26 -135q-2 -10 -5 -21.5t-4 -16.5l-2 -6h2q26 41 75.5 70t108.5 29q158 0 158 -135q0 -24 -7 -62l-23 -117q-4 -22 -4 -24q0 -16 19 -16h39l-21 -107h-120q-58 0 -58 45q0 9 3 23l34 173q4 20 4 42
q0 62 -63 62q-68 0 -118 -51t-64 -125l-33 -169h-126z" />
    <glyph glyph-name="uni045C" unicode="&#x45c;" horiz-adv-x="564" 
d="M294 574l102 136h124l-129 -136h-97zM25 0l71 366q3 18 3 21q0 15 -18 15h-39l20 108h118q60 0 60 -48q0 -8 -4 -26l-22 -118h34q32 0 48 21l141 171h145l-172 -207q-12 -14 -23.5 -24t-16.5 -13l-6 -3l-1 -2q21 -8 34 -40l38 -95q8 -19 39 -19h33l-21 -107h-91
q-33 0 -46.5 8.5t-23.5 35.5l-53 148q-8 19 -42 19h-37l-41 -211h-127z" />
    <glyph glyph-name="uni045D" unicode="&#x45d;" horiz-adv-x="635" 
d="M24 0l72 367q3 18 3 20q0 15 -18 15h-40l21 108h113q56 0 56 -44q0 -11 -3 -23l-40 -204l-14 -59h2q12 20 51 63l241 267h126l-71 -364q-4 -18 -4 -23q0 -16 18 -16h39l-21 -107h-112q-56 0 -56 44q0 7 2 23l39 203q3 18 14 59h-2q-18 -28 -51 -62l-239 -267h-126z
M345 574l-80 136h116l53 -136h-89z" />
    <glyph glyph-name="uni045E" unicode="&#x45e;" horiz-adv-x="554" 
d="M43 -210q-33 0 -64 13t-45 26l-15 13l52 90q36 -36 75 -36q52 0 93 66l26 41l-94 381q-3 11 -8 14.5t-16 3.5h-15l21 108h86q42 0 51 -48l50 -255l5 -68h2q16 42 30 68l136 255q26 48 78 48h91l-21 -108h-15q-22 0 -32 -18l-275 -465q-77 -129 -196 -129zM333 559
q-65 0 -107 32t-42 81q0 18 5 38h99q-4 -10 -4 -25q0 -23 15 -37t41 -14q70 0 81 76h96q-11 -78 -62.5 -114.5t-121.5 -36.5z" />
    <glyph glyph-name="uni045F" unicode="&#x45f;" horiz-adv-x="610" 
d="M37 66l57 294q4 24 4 26q0 16 -18 16h-40l21 108h121q57 0 57 -45q0 -11 -3 -23l-57 -295q-5 -23 -5 -27q0 -16 18 -16h153q21 0 26 22l61 316q13 68 81 68h120l-21 -108h-39q-22 0 -26 -22l-61 -314q-8 -35 -26.5 -50.5t-54.5 -15.5h-101l-23 -120h-112l24 120h-102
q-57 0 -57 43q0 9 3 23z" />
    <glyph glyph-name="uni0462" unicode="&#x462;" horiz-adv-x="691" 
d="M134 68l87 449h-170l21 111h170l16 82h132l-16 -82h187l-21 -111h-188l-19 -95h112q60 0 107.5 -15.5t80 -55.5t32.5 -101q0 -110 -83 -180t-195 -70h-199q-57 0 -57 45q0 9 3 23zM295 108h98q57 0 97 35.5t40 95.5q0 37 -25.5 56t-70.5 19h-121l-34 -174q0 -2 -1 -5.5
t-1.5 -6.5t-0.5 -4q0 -16 19 -16z" />
    <glyph glyph-name="uni0463" unicode="&#x463;" horiz-adv-x="563" 
d="M80 36q0 12 2 18l78 404h-121l18 92h121l31 160h127l-31 -160h163l-18 -92h-163l-24 -121h91q84 0 128 -39.5t44 -105.5q0 -81 -64.5 -136.5t-156.5 -55.5h-180q-45 0 -45 36zM233 87h63q43 0 73 29.5t30 72.5q0 29 -18.5 45t-52.5 16h-82l-24 -124q-5 -22 -5 -26
q0 -13 16 -13z" />
    <glyph glyph-name="uni0472" unicode="&#x472;" horiz-adv-x="798" 
d="M37 300q0 112 60 209.5t159.5 155t212.5 57.5q140 0 227.5 -86t87.5 -221q0 -171 -131 -299t-302 -128q-139 0 -226.5 88t-87.5 224zM173 307q0 -88 53 -142.5t136 -54.5t159 56t108 141h-456zM459 600q-85 0 -160.5 -54.5t-107.5 -138.5h457q0 86 -53 139.5t-136 53.5z
" />
    <glyph glyph-name="uni0473" unicode="&#x473;" horiz-adv-x="619" 
d="M17 214q0 130 97.5 219t227.5 89q108 0 176 -62.5t68 -162.5q0 -131 -98 -220t-227 -89q-107 0 -175.5 62.5t-68.5 163.5zM136 220q0 -60 37.5 -97t97.5 -37q57 0 109.5 37t74.5 97h-319zM333 424q-56 0 -107.5 -36t-75.5 -93h317q-2 58 -39 93.5t-95 35.5z" />
    <glyph glyph-name="uni0474" unicode="&#x474;" horiz-adv-x="699" 
d="M213 0l-124 710h140l68 -454l6 -104h2q26 64 48 104l201 383q23 44 47 57.5t71 13.5h97l-21 -112h-24q-26 0 -37 -6.5t-24 -30.5l-312 -561h-138z" />
    <glyph glyph-name="uni0475" unicode="&#x475;" horiz-adv-x="584" 
d="M147 0l-95 510h129l52 -316l4 -73h2q17 43 32 73l118 220q29 54 61.5 75t87.5 21h79l-22 -109h-28q-28 0 -44 -10t-34 -42l-196 -349h-146z" />
    <glyph glyph-name="uni048A" unicode="&#x48a;" horiz-adv-x="811" 
d="M37 0l112 577q5 22 -17 22h-43l21 111h129q35 0 48 -16.5t6 -51.5l-65 -331q-3 -19 -10 -46t-12 -45l-5 -17h2q43 68 77 109l338 398h139l-113 -577q-3 -20 14 -22h103l-14 -70l-114 -181h-96l64 140h-46q-35 0 -48 16t-6 52l64 332l29 110h-2q-42 -69 -76 -110
l-340 -400h-139zM491 742q-65 0 -107 32t-42 81q0 18 5 38h99q-4 -10 -4 -25q0 -23 15 -37t41 -14q70 0 81 76h96q-11 -78 -62.5 -114.5t-121.5 -36.5z" />
    <glyph glyph-name="uni048B" unicode="&#x48b;" horiz-adv-x="674" 
d="M24 0l72 367q3 18 3 20q0 15 -18 15h-40l21 108h113q56 0 56 -44q0 -11 -3 -23l-40 -204l-14 -59h2q12 20 51 63l241 267h126l-71 -364q-4 -18 -4 -23q0 -16 18 -16h86l-13 -67l-100 -160h-90l54 120h-31q-56 0 -56 44q0 7 2 23l39 203q3 18 14 59h-2q-18 -28 -51 -62
l-239 -267h-126zM379 559q-65 0 -107 32t-42 81q0 18 5 38h99q-4 -10 -4 -25q0 -23 15 -37t41 -14q70 0 81 76h96q-11 -78 -62.5 -114.5t-121.5 -36.5z" />
    <glyph glyph-name="uni048C" unicode="&#x48c;" horiz-adv-x="676" 
d="M116 68l96 493h-157l18 98h157l18 91h131l-17 -91h191l-19 -98h-191l-24 -122h109q92 0 157 -47.5t65 -143.5q0 -109 -82 -178.5t-196 -69.5h-201q-57 0 -57 45q0 5 2 23zM277 108h101q57 0 97 39.5t40 98.5q0 39 -25.5 62t-69.5 23h-121l-38 -195q0 -1 -1 -4t-1.5 -5
t-0.5 -3q0 -16 19 -16z" />
    <glyph glyph-name="uni048D" unicode="&#x48d;" horiz-adv-x="563" 
d="M80 36q0 12 2 18l78 404h-121l18 92h121l31 160h127l-31 -160h163l-18 -92h-163l-24 -121h91q84 0 128 -39.5t44 -105.5q0 -81 -64.5 -136.5t-156.5 -55.5h-180q-45 0 -45 36zM233 87h63q43 0 73 29.5t30 72.5q0 29 -18.5 45t-52.5 16h-82l-24 -124q-5 -22 -5 -26
q0 -13 16 -13z" />
    <glyph glyph-name="uni048E" unicode="&#x48e;" horiz-adv-x="635" 
d="M36 0l117 599h-65l22 111h326q90 0 143.5 -53.5t53.5 -143.5q0 -122 -93 -202l57 -70l-70 -56l-64 79q-51 -19 -101 -19h-147l-48 -245h-131zM342 417l70 56l63 -80q38 43 38 111q0 45 -27 70t-77 25h-125l-50 -257h124q23 0 40 4z" />
    <glyph glyph-name="uni048F" unicode="&#x48f;" horiz-adv-x="634" 
d="M-14 -200l109 561q3 17 3 25q0 16 -17 16h-40l21 108h113q54 0 54 -37q0 -19 -8 -40h2q64 89 172 89q88 0 139 -58.5t51 -159.5q0 -136 -89 -230l56 -69l-68 -56l-57 71q-61 -32 -120 -32q-100 0 -144 75h-2q-2 -18 -7 -46l-42 -217h-126zM192 212q0 -55 26.5 -89
t77.5 -34q32 0 64 15l-59 75l68 56l58 -74q42 57 42 130q0 58 -27.5 90t-75.5 32q-70 0 -122 -60.5t-52 -140.5z" />
    <glyph glyph-name="uni0490" unicode="&#x490;" horiz-adv-x="518" 
d="M37 0l116 599h-65l22 111h333q22 0 26 22l9 45h118l-22 -111q-7 -36 -26 -52t-54 -16h-210l-116 -598h-131z" />
    <glyph glyph-name="uni0491" unicode="&#x491;" horiz-adv-x="441" 
d="M25 0l78 402h-61l20 108h279q22 0 27 22l8 43h105l-22 -106q-6 -36 -25 -51.5t-55 -15.5h-149l-79 -402h-126z" />
    <glyph glyph-name="uni0492" unicode="&#x492;" horiz-adv-x="526" 
d="M39 0l56 287h-65l18 96h65l42 216h-65l22 111h409q57 0 57 -45q0 -11 -3 -23l-21 -108h-118l5 26l4 22q0 17 -18 17h-141l-42 -216h150l-19 -96h-149l-56 -287h-131z" />
    <glyph glyph-name="uni0493" unicode="&#x493;" horiz-adv-x="459" 
d="M-1 179l17 85h60l27 138h-62l21 108h349q57 0 57 -44q0 -10 -3 -23l-17 -92h-104l4 23q0 3 0.5 6t1 5t0.5 3q0 14 -19 14h-101l-27 -138h126l-16 -85h-127l-35 -179h-126l34 179h-60z" />
    <glyph glyph-name="uni0494" unicode="&#x494;" horiz-adv-x="625" 
d="M37 0l117 605h-65l20 105h435q56 0 56 -42q0 -10 -3 -23l-19 -96h-105l5 23q0 3 1.5 8.5t1.5 8.5q0 16 -19 16h-179l-42 -212q65 24 130 24q101 0 153.5 -57t52.5 -168q0 -73 -23 -141.5t-65 -123t-108 -85t-144 -25.5l20 105q57 0 100.5 41t63.5 98t20 117t-25.5 92.5
t-88.5 32.5q-48 0 -107 -23l-55 -280h-128z" />
    <glyph glyph-name="uni0495" unicode="&#x495;" horiz-adv-x="526" 
d="M25 0l78 402h-61l20 108h370q50 0 50 -37q0 -6 -2 -22l-20 -100h-104l4 23q3 12 3 17q0 11 -15 11h-118l-31 -157q49 21 100 21q83 0 125 -46t42 -121q0 -98 -56 -178t-158 -129l-49 94q57 28 98 80t41 117q0 80 -85 80q-38 0 -78 -21l-28 -142h-126z" />
    <glyph glyph-name="uni0496" unicode="&#x496;" horiz-adv-x="966" 
d="M-51 0l237 319q14 18 29 31.5t23 17.5l8 4v2q-21 7 -36 49l-54 153q-7 23 -45 23h-17l22 111h57q42 0 59 -10t28 -43l74 -214q6 -17 17 -21.5t34 -4.5h40l57 293h125l-57 -293h28q46 0 66 26l151 214q23 33 45.5 43t63.5 10h69l-21 -111h-14q-37 0 -54 -23l-115 -159
q-13 -19 -28 -32t-23 -17l-9 -4v-2q24 -11 38 -52l74 -199h45q55 0 55 -41q0 -10 -3 -24l-36 -186h-115l19 98q5 23 5 27q0 13 -15 15h-48l-102 287q-6 17 -17 22t-31 5h-48l-61 -314h-125l61 314h-41q-38 0 -57 -27l-210 -287h-148z" />
    <glyph glyph-name="uni0497" unicode="&#x497;" horiz-adv-x="811" 
d="M-43 0l154 206q14 19 30.5 32t26.5 16l9 4l1 2q-17 7 -27 41l-24 82q-6 19 -40 19h-35l21 108h81q33 0 48 -8.5t24 -35.5l39 -130q7 -24 47 -24h25l39 198h121l-38 -198h20q35 0 52 24l90 130q19 26 39.5 35t54.5 9h84l-21 -108h-29q-33 0 -46 -19l-56 -82
q-10 -15 -23 -25.5t-20 -13.5l-8 -2v-2l2 -1q3 -1 7.5 -5t9.5 -9t11 -15t10 -22l36 -102h35q53 0 53 -43q0 -10 -3 -25l-31 -156h-115l15 77q5 25 5 28q0 13 -14 15h-37l-59 170q-12 35 -53 35h-30l-40 -205h-122l41 205h-24q-40 0 -66 -35l-126 -170h-144z" />
    <glyph glyph-name="uni0498" unicode="&#x498;" horiz-adv-x="546" 
d="M-16 87l77 86q57 -71 149 -71q62 0 106.5 34t44.5 89q0 79 -98 79h-98l21 105h81q51 0 91 33t40 83q0 84 -93 84q-40 0 -70 -18.5t-35 -44.5l-4 -26h-119l12 62q9 49 49.5 82t88.5 45.5t100 12.5q91 0 149 -45.5t58 -126.5q0 -64 -36 -113t-96 -72l-1 -2q42 -17 67 -52.5
t25 -85.5q0 -91 -66 -154.5t-162 -78.5l-25 -132h-115l26 134q-109 20 -167 93z" />
    <glyph glyph-name="uni0499" unicode="&#x499;" horiz-adv-x="456" 
d="M-21 63l62 78q49 -54 126 -54q44 0 73.5 22.5t29.5 62.5q0 47 -73 47h-66l16 83h49q46 0 74 21t28 60q0 47 -66 47q-28 0 -52 -11t-27 -33l-4 -21h-102l9 51q10 52 63.5 79t125.5 27q84 0 131.5 -32.5t47.5 -91.5q0 -52 -30 -87t-68 -46v-2q29 -10 48.5 -35t19.5 -64
q0 -69 -48.5 -113.5t-121.5 -57.5l-21 -113h-112l22 113q-77 13 -134 70z" />
    <glyph glyph-name="uni049A" unicode="&#x49a;" horiz-adv-x="667" 
d="M37 0l109 559q4 22 4 23q0 17 -21 17h-40l21 111h120q64 0 64 -50q0 -17 -4 -33l-40 -206h50q39 0 56 23l194 266h151l-217 -292q-12 -17 -25.5 -30t-20.5 -18l-7 -5v-2q18 -15 28 -48l63 -204h40q29 0 42 -9.5t13 -31.5q0 -6 -2 -24l-37 -186h-115l19 98q5 23 5 27
q0 15 -16 15h-54l-88 286q-6 24 -50 24h-51l-60 -310h-131z" />
    <glyph glyph-name="uni049B" unicode="&#x49b;" horiz-adv-x="573" 
d="M25 0l71 366q3 18 3 21q0 15 -18 15h-39l20 108h118q60 0 60 -48q0 -8 -4 -26l-22 -118h34q32 0 48 21l141 171h145l-172 -207q-12 -14 -23.5 -24t-16.5 -13l-6 -3l-1 -2q21 -8 34 -40l46 -117h22q53 0 53 -43q0 -10 -3 -25l-31 -156h-115l15 77q5 25 5 28q0 15 -15 15
h-33l-69 192q-8 19 -42 19h-37l-41 -211h-127z" />
    <glyph glyph-name="uni049C" unicode="&#x49c;" horiz-adv-x="745" 
d="M270 194l22 116h-64l-60 -310h-131l109 559q4 22 4 23q0 17 -21 17h-40l21 111h120q64 0 64 -50q0 -17 -4 -33l-40 -206h64l22 114h92l-22 -114h2q39 0 56 23l194 266h150l-217 -292q-12 -17 -25.5 -30t-20.5 -18l-7 -5v-2q18 -15 28 -48l56 -180q8 -24 38 -24h31
l-22 -111h-79q-36 0 -54.5 11.5t-27.5 41.5l-71 233q-8 24 -51 24h-2l-22 -116h-92z" />
    <glyph glyph-name="uni049D" unicode="&#x49d;" horiz-adv-x="643" 
d="M24 0l70 359q5 23 5 28q0 15 -18 15h-40l21 108h121q31 0 44.5 -8.5t13.5 -30.5q0 -14 -2 -23l-24 -123h43l17 88h88l-17 -88q25 0 40 19l129 166h148l-160 -198q-12 -15 -25 -25.5t-18 -12.5l-6 -3l-1 -2q18 -10 28 -44l31 -99q6 -19 38 -19h35l-21 -107h-91
q-34 0 -48 8t-22 36l-44 154q-6 17 -34 19l-21 -111h-88l21 111h-44l-42 -217h-127z" />
    <glyph glyph-name="uni049E" unicode="&#x49e;" horiz-adv-x="643" 
d="M67 521l18 93h69l19 96h131l-20 -96h85l-18 -93h-85l-20 -100h60q39 0 56 23l194 266h151l-217 -292q-12 -17 -25.5 -30t-20.5 -18l-7 -5v-2q18 -15 28 -48l56 -180q7 -24 37 -24h32l-22 -111h-79q-36 0 -54.5 11.5t-28.5 41.5l-71 233q-6 24 -51 24h-60l-60 -310h-131
l102 521h-68z" />
    <glyph glyph-name="uni049F" unicode="&#x49f;" horiz-adv-x="553" 
d="M42 527l17 86h74l19 97h127l-19 -97h107l-17 -86h-107l-38 -197h38q29 0 45 19l136 161h148l-168 -194q-10 -12 -22 -22t-19 -14l-7 -5l-1 -2q13 -6 25 -39l42 -108q6 -19 40 -19h34l-21 -107h-87q-32 0 -45.5 8.5t-23.5 35.5l-57 157q-9 22 -40 22h-37l-44 -223h-127
l102 527h-74z" />
    <glyph glyph-name="uni04A0" unicode="&#x4a0;" horiz-adv-x="786" 
d="M57 534l22 114q7 35 24.5 48.5t54.5 13.5h362l-22 -111h-65l-34 -178h50q39 0 56 23l194 266h150l-216 -292q-12 -17 -25.5 -30t-20.5 -18l-7 -5v-2q18 -15 28 -48l56 -180q7 -24 37 -24h31l-21 -111h-80q-35 0 -53.5 11.5t-28.5 41.5l-71 233q-6 24 -51 24h-50l-60 -310
h-131l115 599h-91q-21 0 -26 -22l-9 -43h-118z" />
    <glyph glyph-name="uni04A1" unicode="&#x4a1;" horiz-adv-x="677" 
d="M137 0l73 373q4 22 4 24q0 12 -14 12h-45q-16 0 -21 -19l-7 -38h-101l20 101q6 34 23.5 45.5t55.5 11.5h171q31 0 44.5 -8t13.5 -29q0 -14 -2 -21l-25 -134h34q31 0 47 21l142 171h145l-173 -207q-12 -14 -23.5 -24t-16.5 -13l-6 -3v-2q20 -8 33 -40l38 -95q8 -19 39 -19
h34l-22 -107h-90q-33 0 -47 8.5t-24 35.5l-52 148q-8 19 -42 19h-38l-41 -211h-127z" />
    <glyph glyph-name="uni04A2" unicode="&#x4a2;" horiz-adv-x="795" 
d="M37 0l109 559q4 22 4 24q0 16 -21 16h-40l21 111h120q64 0 64 -50q0 -17 -4 -33l-43 -218h313l47 235q7 36 25 51t51 15h133l-22 -111h-45q-20 0 -24 -22l-92 -466h40q55 0 55 -41q0 -10 -3 -24l-36 -186h-115l19 98q5 23 5 27q0 15 -17 15h-100l58 298h-313l-58 -298
h-131z" />
    <glyph glyph-name="uni04A3" unicode="&#x4a3;" horiz-adv-x="651" 
d="M368 0l41 208h-217l-41 -208h-126l69 358q5 22 5 28q0 16 -18 16h-40l21 108h121q57 0 57 -45q0 -9 -3 -23l-25 -129h217l38 197h127l-79 -406h27q53 0 53 -43q0 -11 -3 -24l-31 -157h-115l15 77q5 25 5 28q0 14 -13 15h-85z" />
    <glyph glyph-name="uni04A4" unicode="&#x4a4;" horiz-adv-x="955" 
d="M37 0l108 556q5 25 5 26q0 17 -18 17h-43l21 111h129q57 0 57 -45q0 -11 -3 -23l-46 -233h305l37 190h-65l22 111h410q56 0 56 -43q0 -11 -3 -24l-21 -109h-118l5 26q3 21 3 23q0 16 -18 16h-140l-116 -599h-131l58 298h-305l-58 -298h-131z" />
    <glyph glyph-name="uni04A5" unicode="&#x4a5;" horiz-adv-x="777" 
d="M25 0l70 362q5 20 5 25q0 15 -19 15h-39l21 108h121q56 0 56 -45q0 -7 -2 -23l-28 -144h203l21 111h-61l20 101h341q31 0 44.5 -7.5t13.5 -28.5q0 -13 -2 -21l-18 -95h-104l4 21q2 9 2 18q0 12 -13 12h-100l-80 -409h-126l37 194h-202l-38 -194h-127z" />
    <glyph glyph-name="uni04A6" unicode="&#x4a6;" horiz-adv-x="1000" 
d="M36 0l116 599h-64l22 111h508q56 0 56 -44q0 -10 -3 -24l-45 -233q60 24 129 24q100 0 152 -58t52 -172q0 -99 -38 -188t-118 -147t-185 -51l20 105q57 0 101 42.5t64 102.5t20 123t-25 96.5t-88 33.5q-44 0 -106 -24l-58 -296h-130l108 560q4 19 4 23q0 16 -19 16h-227
l-116 -599h-130z" />
    <glyph glyph-name="uni04A7" unicode="&#x4a7;" horiz-adv-x="838" 
d="M24 0l78 402h-58l21 108h543l-21 -108h-58l-23 -122q50 22 108 22q82 0 128 -52.5t46 -137.5q0 -99 -61 -189.5t-167 -130.5l-39 96q62 30 100.5 89.5t38.5 123.5q0 93 -95 93q-39 0 -80 -22l-34 -172h-127l79 402h-174l-78 -402h-127z" />
    <glyph glyph-name="uni04A8" unicode="&#x4a8;" horiz-adv-x="914" 
d="M40 302q0 146 85.5 256.5t206.5 162.5l50 -115q-86 -37 -148.5 -115.5t-62.5 -184.5q0 -86 52 -143t151 -57q39 0 81 11q-95 87 -95 230q0 145 92.5 254t226.5 109q103 0 162 -65.5t59 -168.5t-56.5 -199t-149.5 -166q23 -6 65 -6h69l-20 -105h-68q-92 0 -168 35
q-103 -47 -205 -47q-144 0 -235.5 86t-91.5 228zM490 345q0 -120 82 -179q87 50 141.5 131.5t54.5 173.5q0 57 -26 89t-73 32q-74 0 -126.5 -74t-52.5 -173z" />
    <glyph glyph-name="uni04A9" unicode="&#x4a9;" horiz-adv-x="798" 
d="M20 235q0 97 61.5 174.5t155.5 111.5l42 -102q-58 -22 -99.5 -69.5t-41.5 -111.5q0 -63 42.5 -106t117.5 -43q42 0 79 11q-80 70 -80 178q0 100 73 172t181 72q91 0 143 -53t52 -131q0 -133 -138 -237q15 -5 53 -5h74l-19 -96h-68q-86 0 -160 29q-99 -41 -193 -41
q-116 0 -195.5 67.5t-79.5 179.5zM416 281q0 -91 73 -140q62 34 100 83t38 109q0 39 -21 65t-66 26q-54 0 -89 -42t-35 -101z" />
    <glyph glyph-name="uni04AA" unicode="&#x4aa;" horiz-adv-x="698" 
d="M38 299q0 109 55 206t153 157t214 60q57 0 111 -13.5t96 -47.5t42 -82q0 -8 -7 -50l-9 -45h-118l8 37q6 29 -17.5 48t-52.5 25t-58 6q-113 0 -197.5 -84.5t-84.5 -208.5q0 -89 53 -143t141 -54q127 0 219 82l56 -102q-97 -89 -257 -101l-25 -129h-115l26 137
q-104 25 -168.5 105.5t-64.5 196.5z" />
    <glyph glyph-name="uni04AB" unicode="&#x4ab;" horiz-adv-x="536" 
d="M19 218q0 123 89.5 213.5t220.5 90.5q32 0 64.5 -6t64.5 -19.5t49 -40t10 -62.5l-9 -47h-110l3 16q5 25 -19.5 38.5t-60.5 13.5q-72 0 -122.5 -56t-50.5 -129q0 -57 33.5 -94.5t100.5 -37.5q42 0 81.5 15t57.5 29l18 15l34 -98q-7 -7 -20.5 -17.5t-60 -29.5t-98.5 -23
l-20 -109h-112l23 118q-80 20 -123 79.5t-43 140.5z" />
    <glyph glyph-name="uni04AC" unicode="&#x4ac;" horiz-adv-x="649" 
d="M199 0l117 599h-109q-21 0 -26 -22l-9 -43h-115l22 114q7 35 22.5 48.5t49.5 13.5h490q61 0 61 -50q0 -17 -4 -33l-18 -93h-115l5 26q4 20 4 23q0 16 -21 16h-106l-96 -488h40q54 0 54 -41q0 -6 -2 -24l-37 -186h-115l19 98q5 23 5 27q0 13 -14 15h-102z" />
    <glyph glyph-name="uni04AD" unicode="&#x4ad;" horiz-adv-x="552" 
d="M153 0l78 402h-68q-22 0 -27 -22l-5 -29h-104l17 92q7 36 26.5 51.5t55.5 15.5h380q57 0 57 -44q0 -11 -3 -23l-17 -92h-104l3 18q3 15 3 18q0 15 -19 15h-68l-58 -298h28q52 0 52 -43q0 -6 -2 -24l-31 -157h-115l15 77q5 25 5 28q0 14 -13 15h-86z" />
    <glyph glyph-name="uni04AE" unicode="&#x4ae;" horiz-adv-x="616" 
d="M184 0l60 310l-116 265q-10 24 -36 24h-24l22 111h58q33 0 50.5 -10.5t31.5 -41.5l68 -156q7 -16 14 -36t10 -32l4 -12h2q28 44 56 80l122 156q23 30 44.5 41t51.5 11h83l-22 -111h-25q-24 0 -42 -22l-221 -267l-60 -310h-131z" />
    <glyph glyph-name="uni04AF" unicode="&#x4af;" horiz-adv-x="550" 
d="M116 -200l42 214l-90 370q-4 18 -24 18h-11l21 108h65q30 0 44.5 -11t19.5 -37l47 -247l7 -65h2q17 35 33 65l145 247q28 48 83 48h79l-20 -108h-12q-19 0 -31 -18l-232 -370l-42 -214h-126z" />
    <glyph glyph-name="uni04B0" unicode="&#x4b0;" horiz-adv-x="616" 
d="M119 215l18 92h106l1 3l-116 265q-10 24 -36 24h-24l22 111h58q33 0 50.5 -10.5t31.5 -41.5l68 -156q7 -16 14 -36t10 -32l4 -12h2q28 44 56 80l122 156q23 30 44.5 41t51.5 11h83l-22 -111h-25q-24 0 -42 -22l-221 -267l-1 -3h122l-18 -92h-122l-41 -215h-131l41 215
h-106z" />
    <glyph glyph-name="uni04B1" unicode="&#x4b1;" horiz-adv-x="550" 
d="M34 0l17 88h89l-72 296q-4 18 -24 18h-11l21 108h65q30 0 44.5 -11t19.5 -37l47 -247l7 -65h2q17 35 33 65l145 247q28 48 83 48h79l-20 -108h-12q-19 0 -31 -18l-186 -296h84l-17 -88h-116l-39 -200h-126l39 200h-121z" />
    <glyph glyph-name="uni04B2" unicode="&#x4b2;" horiz-adv-x="651" 
d="M-47 0l291 364l-93 210q-11 25 -42 25h-26l22 111h71q36 0 55.5 -11t31.5 -41l48 -115l29 -85h2q27 44 59 85l90 115q22 29 42 40.5t53 11.5h90l-21 -111h-29q-28 0 -47 -24l-179 -219l106 -245h45q29 0 42 -9.5t13 -31.5q0 -10 -3 -24l-36 -186h-115l19 98q5 23 5 27
q0 13 -15 15h-49l-77 183l-30 81h-2q-26 -41 -58 -81l-143 -183h-149z" />
    <glyph glyph-name="uni04B3" unicode="&#x4b3;" horiz-adv-x="550" 
d="M-39 0l221 263l-64 121q-10 18 -36 18h-37l21 108h82q29 0 44.5 -11.5t28.5 -39.5l38 -81l11 -32h2q12 20 21 32l63 81q24 31 40 41t48 10h99l-21 -108h-37q-28 0 -42 -17l-114 -131l71 -150h38q53 0 53 -43q0 -10 -3 -25l-31 -156h-115l15 77q5 25 5 28q0 15 -16 15h-28
l-68 142l-10 27h-2q-8 -14 -18 -27l-115 -142h-144z" />
    <glyph glyph-name="uni04B4" unicode="&#x4b4;" horiz-adv-x="938" 
d="M194 68l103 531h-93q-21 0 -26 -22l-8 -43h-115l22 112q7 35 24 49.5t52 14.5h457q29 0 41.5 -9t12.5 -31q0 -10 -3 -24l-21 -112h-109l5 26q4 19 4 23q0 16 -19 16h-93l-88 -454q-3 -12 -3 -18q0 -16 19 -16h304l117 599h131l-117 -599h22q29 0 42 -9.5t13 -31.5
q0 -6 -2 -24l-37 -186h-115l19 99q5 22 5 25q0 16 -16 16h-473q-58 0 -58 45q0 9 3 23z" />
    <glyph glyph-name="uni04B5" unicode="&#x4b5;" horiz-adv-x="776" 
d="M142 70l66 339h-69q-17 0 -20 -19l-6 -32h-85l18 95q6 34 23.5 45.5t55.5 11.5h328q32 0 45.5 -7.5t13.5 -29.5q0 -6 -2 -20l-18 -95h-85l4 21q3 11 3 17q0 13 -14 13h-65l-51 -262q-5 -23 -5 -27q0 -16 18 -16h220l79 406h127l-79 -406h16q53 0 53 -43q0 -6 -2 -24
l-31 -157h-115l15 80q4 16 4 24q0 16 -16 16h-372q-57 0 -57 43q0 12 3 27z" />
    <glyph glyph-name="uni04B6" unicode="&#x4b6;" horiz-adv-x="713" 
d="M102 419q0 27 6 59l17 85q2 16 2 19q0 17 -18 17h-43l22 111h128q57 0 57 -45q0 -5 -2 -23l-27 -136q-4 -28 -4 -39q0 -86 107 -86q69 0 142 47l55 282h131l-118 -599h40q55 0 55 -41q0 -10 -3 -24l-36 -186h-115l19 98q5 23 5 27q0 13 -15 15h-102l53 272l9 33h-2
q-82 -41 -174 -41q-94 0 -141.5 40t-47.5 115z" />
    <glyph glyph-name="uni04B7" unicode="&#x4b7;" horiz-adv-x="598" 
d="M32 402l21 108h115q54 0 54 -45q0 -6 -2 -24l-16 -81q-3 -15 -3 -29q0 -56 71 -56q52 0 102 32l40 203h127l-80 -406h28q52 0 52 -43q0 -6 -2 -24l-31 -157h-116l15 77q5 25 5 28q0 15 -14 15h-84l35 175l7 28h-1q-68 -31 -141 -31q-67 0 -106.5 31.5t-39.5 84.5
q0 14 3 31l10 50q0 3 1 7.5t1.5 7t0.5 3.5q0 15 -19 15h-33z" />
    <glyph glyph-name="uni04B8" unicode="&#x4b8;" horiz-adv-x="696" 
d="M102 419q0 27 6 59l16 85q3 12 3 20q0 16 -18 16h-43l22 111h128q57 0 57 -45q0 -9 -3 -23l-26 -136q-4 -19 -4 -39q0 -69 73 -82l26 134h92l-26 -134q55 11 110 43l54 282h131l-138 -710h-131l53 272l8 33h-2q-48 -23 -107 -34l-20 -104h-92l19 97q-188 6 -188 155z" />
    <glyph glyph-name="uni04B9" unicode="&#x4b9;" horiz-adv-x="600" 
d="M218 93l15 79q-76 0 -120.5 31.5t-44.5 84.5q0 14 3 31l10 50q0 3 1 7.5t1.5 7t0.5 3.5q0 15 -19 15h-33l21 108h115q54 0 54 -45q0 -6 -2 -24l-16 -81q-3 -15 -3 -29q0 -44 53 -53l23 118h88l-23 -116q43 8 75 27l40 203h126l-99 -510h-127l34 175l8 28h-2
q-32 -14 -74 -23l-17 -87h-88z" />
    <glyph glyph-name="uni04BA" unicode="&#x4ba;" horiz-adv-x="674" 
d="M37 0l108 557q5 20 5 25q0 17 -18 17h-43l21 111h129q57 0 57 -45q0 -11 -3 -23l-36 -189l-8 -33h2q74 37 167 37q91 0 135.5 -43.5t44.5 -116.5q0 -31 -5 -53l-18 -92q-1 -5 -2 -11.5t-1.5 -9.5t-0.5 -4q0 -16 18 -16h43l-21 -111h-129q-57 0 -57 45q0 9 3 23l29 147
q4 21 4 44q0 81 -93 81q-81 0 -142 -40l-58 -300h-131z" />
    <glyph glyph-name="uni04BB" unicode="&#x4bb;" horiz-adv-x="616" 
d="M3 0l110 564q0 3 1 8t1.5 8.5t0.5 6.5q0 15 -18 15h-40l21 108h117q61 0 61 -48q0 -8 -4 -30l-33 -168l-11 -46h2q30 40 80.5 72t114.5 32q69 0 107.5 -36t38.5 -105q0 -28 -6 -61l-35 -182l-3 -15q0 -16 18 -16h40l-21 -107h-118q-60 0 -60 49q0 10 3 22l45 231
q4 17 4 39q0 65 -66 65q-63 0 -113.5 -53t-64.5 -120l-45 -233h-127z" />
    <glyph glyph-name="uni04BC" unicode="&#x4bc;" horiz-adv-x="866" 
d="M55 480q0 61 44 161h120q-47 -92 -47 -146q0 -60 55 -64q43 125 144 208t235 83q119 0 185 -68t66 -184q0 -62 -24 -140h-492q-10 -93 36 -158.5t147 -65.5q57 0 116 22.5t97 56.5l53 -102q-38 -33 -112.5 -64t-165.5 -31q-131 0 -211.5 70.5t-92.5 188.5q-4 33 -1 84
q-69 1 -110.5 38.5t-41.5 110.5zM362 430h365q5 27 5 45q0 59 -35.5 96t-103.5 37q-83 0 -146.5 -53t-84.5 -125z" />
    <glyph glyph-name="uni04BD" unicode="&#x4bd;" horiz-adv-x="674" 
d="M27 357q0 55 31 112h102q-34 -59 -34 -101q0 -39 40 -43q32 87 106.5 142t172.5 55q96 0 148.5 -52.5t52.5 -139.5q0 -45 -17 -99h-352q-8 -59 25.5 -97t100.5 -38q78 0 157 56l35 -97q-34 -26 -89.5 -46.5t-115.5 -20.5q-106 0 -174.5 59t-68.5 162q0 11 2 23
q-122 5 -122 125zM297 318h223q2 8 2 27q0 38 -22.5 59.5t-61.5 21.5q-46 0 -84.5 -28.5t-56.5 -79.5z" />
    <glyph glyph-name="uni04BE" unicode="&#x4be;" horiz-adv-x="866" 
d="M55 480q0 61 44 161h120q-47 -92 -47 -146q0 -60 55 -64q43 125 144 208t235 83q119 0 185 -68t66 -184q0 -62 -24 -140h-492q-10 -93 36 -158.5t147 -65.5q57 0 116 22.5t97 56.5l53 -102q-37 -32 -107.5 -62t-157.5 -33l-25 -128h-115l27 140q-89 24 -142 88.5
t-62 158.5q-4 33 -1 84q-69 1 -110.5 38.5t-41.5 110.5zM362 430h365q5 27 5 45q0 59 -35.5 96t-103.5 37q-83 0 -146.5 -53t-84.5 -125z" />
    <glyph glyph-name="uni04BF" unicode="&#x4bf;" horiz-adv-x="676" 
d="M27 357q0 55 31 112h102q-34 -59 -34 -101q0 -39 40 -43q32 87 106.5 142t172.5 55q96 0 148.5 -52.5t52.5 -139.5q0 -45 -17 -99h-352q-8 -59 25.5 -97t100.5 -38q78 0 157 56l35 -97q-30 -24 -79 -43t-103 -23l-20 -109h-112l23 120q-72 20 -114.5 74t-42.5 135
q0 11 2 23q-122 5 -122 125zM297 318h223q2 8 2 27q0 38 -22.5 59.5t-61.5 21.5q-46 0 -84.5 -28.5t-56.5 -79.5z" />
    <glyph glyph-name="uni04C0" unicode="&#x4c0;" horiz-adv-x="350" 
d="M-16 0l22 111h70l95 488h-71l22 111h266l-21 -111h-71l-95 -488h71l-22 -111h-266z" />
    <glyph glyph-name="uni04C1" unicode="&#x4c1;" horiz-adv-x="928" 
d="M-51 0l237 319q14 18 29 31.5t23 17.5l8 4v2q-21 7 -36 49l-54 153q-7 23 -45 23h-17l22 111h57q42 0 59 -10t28 -43l74 -214q6 -17 17 -21.5t34 -4.5h40l57 293h125l-57 -293h28q46 0 66 26l151 214q23 33 45.5 43t63.5 10h69l-21 -111h-14q-37 0 -54 -23l-115 -159
q-13 -19 -28 -32t-23 -17l-9 -4v-2q24 -11 38 -52l115 -310h-134l-102 287q-6 17 -17 22t-31 5h-48l-61 -314h-125l61 314h-41q-38 0 -57 -27l-210 -287h-148zM564 742q-65 0 -107 32t-42 81q0 18 5 38h99q-4 -10 -4 -25q0 -23 15 -37t41 -14q70 0 81 76h96
q-11 -78 -62.5 -114.5t-121.5 -36.5z" />
    <glyph glyph-name="uni04C2" unicode="&#x4c2;" horiz-adv-x="781" 
d="M-43 0l154 206q14 19 30.5 32t26.5 16l9 4l1 2q-17 7 -27 41l-24 82q-6 19 -40 19h-35l21 108h81q33 0 48 -8.5t24 -35.5l39 -130q7 -24 47 -24h25l39 198h121l-38 -198h20q35 0 52 24l90 130q19 26 39.5 35t54.5 9h84l-21 -108h-29q-33 0 -46 -19l-56 -82
q-10 -15 -23 -25.5t-20 -13.5l-8 -2v-2l2 -1q3 -1 7.5 -5t9.5 -9t11 -15t10 -22l74 -206h-130l-59 170q-12 35 -53 35h-30l-40 -205h-122l41 205h-24q-40 0 -66 -35l-126 -170h-144zM454 559q-65 0 -107 32t-42 81q0 18 5 38h99q-4 -10 -4 -25q0 -23 15 -37t41 -14
q70 0 81 76h96q-11 -78 -62.5 -114.5t-121.5 -36.5z" />
    <glyph glyph-name="uni04C3" unicode="&#x4c3;" horiz-adv-x="658" 
d="M37 0l111 569q2 8 2 14q0 16 -19 16h-43l22 111h128q58 0 58 -45q0 -11 -3 -23l-43 -221h49q42 0 58 23l197 266h155l-199 -261q-30 -40 -57 -54l-1 -2q51 -21 83.5 -60t44.5 -80t12 -86q0 -65 -21.5 -128.5t-60.5 -115t-101.5 -81.5t-137.5 -25l21 108q55 1 94.5 44
t55 97t15.5 109q0 65 -41 100t-120 35h-67l-61 -310h-131z" />
    <glyph glyph-name="uni04C4" unicode="&#x4c4;" horiz-adv-x="564" 
d="M25 0l70 361q4 22 4 25q0 16 -18 16h-40l21 108h121q58 0 58 -45q0 -5 -3 -20l-26 -131h30q31 0 54 29l131 167h151l-157 -193q-10 -13 -20.5 -22.5t-16.5 -12.5l-5 -3v-2q54 -19 81.5 -67t27.5 -109q0 -107 -64 -189t-141 -120l-61 94q58 28 101 84t43 127q0 51 -32 80
t-95 29h-47l-41 -206h-126z" />
    <glyph glyph-name="uni04C5" unicode="&#x4c5;" horiz-adv-x="735" 
d="M-51 -8l23 118q81 11 137 107.5t95 299.5l16 82h-66l22 111h439q57 0 57 -44q0 -12 -6 -43l-91 -470q-5 -22 -5 -27q0 -15 19 -15h97l-14 -70l-114 -181h-96l64 140h-44q-58 0 -58 44q0 7 7 44l91 469q4 19 4 27q0 15 -18 15h-163l-16 -83q-51 -264 -140 -392t-240 -132z
" />
    <glyph glyph-name="uni04C6" unicode="&#x4c6;" horiz-adv-x="602" 
d="M-42 -3l20 112q36 3 68 38q59 65 89 216l8 39h-62l20 108h359q58 0 58 -45q0 -11 -3 -23l-59 -302q-3 -12 -3 -17q0 -16 19 -16h83l-13 -67l-100 -160h-89l54 120h-37q-57 0 -57 45q0 9 3 23l58 301q0 3 1 7t1.5 6.5t0.5 3.5q0 16 -18 16h-96l-8 -40q-44 -227 -148 -314
q-64 -51 -149 -51z" />
    <glyph glyph-name="uni04C7" unicode="&#x4c7;" horiz-adv-x="773" 
d="M37 0l109 559q4 22 4 25q0 15 -19 15h-43l22 111h129q56 0 56 -45q0 -7 -2 -23l-46 -233h323l46 233q13 68 81 68h128l-22 -111h-43q-21 0 -26 -22l-98 -507q-54 -276 -283 -254l22 113q49 0 81 27.5t49 113.5l44 228h-323l-58 -298h-131z" />
    <glyph glyph-name="uni04C8" unicode="&#x4c8;" horiz-adv-x="635" 
d="M25 0l70 360q4 21 4 26q0 16 -18 16h-40l21 108h121q57 0 57 -45q0 -11 -3 -23l-25 -129h219l25 129q13 68 81 68h120l-20 -108h-40q-22 0 -26 -22l-64 -324q-14 -73 -43 -123.5t-65 -79.5t-96 -61l-57 93q58 30 89 65t45 105l29 151h-218l-40 -206h-126z" />
    <glyph glyph-name="uni04C9" unicode="&#x4c9;" horiz-adv-x="807" 
d="M37 0l109 559q4 22 4 24q0 16 -21 16h-40l21 111h120q64 0 64 -50q0 -17 -4 -33l-43 -218h313l47 235q7 36 25 51t51 15h133l-22 -111h-45q-20 0 -24 -22l-92 -466h124l-14 -70l-114 -181h-96l66 140h-118l58 298h-313l-58 -298h-131z" />
    <glyph glyph-name="uni04CA" unicode="&#x4ca;" horiz-adv-x="654" 
d="M25 0l70 362q5 22 5 25q0 15 -19 15h-40l21 108h121q57 0 57 -45q0 -11 -3 -23l-25 -131h217l39 199h127l-71 -362q-4 -24 -4 -26q0 -14 14 -15h69l-13 -67l-100 -160h-89l54 120h-19q-57 0 -57 44q0 12 3 25l27 138h-217l-41 -207h-126z" />
    <glyph glyph-name="uni04CB" unicode="&#x4cb;" horiz-adv-x="670" 
d="M102 419q0 27 6 59l17 85q2 16 2 19q0 17 -18 17h-43l22 111h128q57 0 57 -45q0 -5 -2 -23l-27 -136q-4 -28 -4 -39q0 -86 107 -86q69 0 142 47l55 282h131l-139 -710h-116q-18 -2 -21 -22l-23 -118h-115l37 186q7 36 24.5 50.5t53.5 14.5h50l32 161l9 33h-2
q-82 -41 -174 -41q-94 0 -141.5 40t-47.5 115z" />
    <glyph glyph-name="uni04CC" unicode="&#x4cc;" horiz-adv-x="557" 
d="M228 22q7 35 24.5 51t51.5 16h27l20 99l7 28h-1q-68 -31 -141 -31q-67 0 -106.5 31.5t-39.5 84.5q0 15 3 31l7 37q3 12 3 18q0 15 -19 15h-33l22 108h114q55 0 55 -45q0 -11 -3 -24l-13 -68q-3 -15 -3 -29q0 -56 71 -56q52 0 102 32l37 190h127l-99 -510h-88
q-15 -1 -18 -22l-19 -98h-115z" />
    <glyph glyph-name="uni04CD" unicode="&#x4cd;" horiz-adv-x="915" 
d="M-35 0l21 111h30q20 0 26 22l159 577h133l78 -340l17 -95h2q26 50 53 95l211 340h141l-63 -560q-2 -18 -2 -24q0 -13 14 -15h105l-14 -70l-114 -181h-96l64 140h-37q-34 0 -49 12t-15 39q0 6 3 30l36 303l20 110h-2q-35 -72 -60 -110l-169 -262h-106l-67 262l-17 111h-2
q-11 -66 -23 -111l-86 -321q-9 -34 -26 -48.5t-49 -14.5h-116z" />
    <glyph glyph-name="uni04CE" unicode="&#x4ce;" horiz-adv-x="786" 
d="M-39 0l21 107h22q16 0 21 18l110 385h137l59 -265l11 -64h1q19 35 36 64l161 265h149l-39 -371q-1 -10 -1 -18q0 -14 14 -14h90l-13 -67l-100 -160h-89l54 120h-35q-24 0 -34 9t-10 28q0 14 1 21l25 210l15 93h-2q-23 -44 -46 -80l-140 -217h-110l-56 217l-11 83h-2
q-9 -62 -18 -96l-59 -214q-8 -28 -22 -41t-43 -13h-97z" />
    <glyph glyph-name="uni04CF" unicode="&#x4cf;" horiz-adv-x="350" 
d="M-16 0l21 108h70l97 494h-71l21 108h266l-20 -108h-71l-97 -494h71l-21 -108h-266z" />
    <glyph glyph-name="uni04D0" unicode="&#x4d0;" horiz-adv-x="674" 
d="M-46 0l22 111h18q21 0 32 22l323 577h137l99 -578q2 -13 6.5 -17t16.5 -4h19l-22 -111h-78q-35 0 -49.5 12t-19.5 46l-20 124h-239l-69 -124q-18 -34 -36 -46t-51 -12h-89zM249 290h180l-27 178l-7 106h-2q-28 -67 -49 -106zM429 742q-65 0 -107 32t-42 81q0 18 5 38h99
q-4 -10 -4 -25q0 -23 15 -37t41 -14q70 0 81 76h96q-11 -78 -62.5 -114.5t-121.5 -36.5z" />
    <glyph glyph-name="uni04D1" unicode="&#x4d1;" horiz-adv-x="548" 
d="M-6 123q0 68 50 114t123 64.5t165 18.5h18l2 10q3 15 3 31q0 63 -78 63q-71 0 -76 -34l-5 -27h-119l11 54q10 55 69 80t136 25q189 0 189 -148q0 -22 -7 -57l-33 -174q-4 -16 -4 -21q0 -15 19 -15h40l-21 -107h-108q-56 0 -56 42q0 14 9 48h-2q-2 -4 -7 -11t-21 -24.5
t-35 -31t-50 -24.5t-64 -11q-64 0 -106 35.5t-42 99.5zM121 142q0 -28 17 -44t45 -16q50 0 94.5 45.5t53.5 92.5l3 13h-21q-48 0 -88.5 -7t-72 -28.5t-31.5 -55.5zM330 559q-65 0 -107 32t-42 81q0 18 5 38h99q-4 -10 -4 -25q0 -23 15 -37t41 -14q70 0 81 76h96
q-11 -78 -62.5 -114.5t-121.5 -36.5z" />
    <glyph glyph-name="uni04D2" unicode="&#x4d2;" horiz-adv-x="674" 
d="M-46 0l22 111h18q21 0 32 22l323 577h137l99 -578q2 -13 6.5 -17t16.5 -4h19l-22 -111h-78q-35 0 -49.5 12t-19.5 46l-20 124h-239l-69 -124q-18 -34 -36 -46t-51 -12h-89zM249 290h180l-27 178l-7 106h-2q-28 -67 -49 -106zM476 777l23 116h89l-23 -116h-89zM297 777
l23 116h88l-23 -116h-88z" />
    <glyph glyph-name="uni04D3" unicode="&#x4d3;" horiz-adv-x="548" 
d="M-6 123q0 68 50 114t123 64.5t165 18.5h18l2 10q3 15 3 31q0 63 -78 63q-71 0 -76 -34l-5 -27h-119l11 54q10 55 69 80t136 25q189 0 189 -148q0 -22 -7 -57l-33 -174q-4 -16 -4 -21q0 -15 19 -15h40l-21 -107h-108q-56 0 -56 42q0 14 9 48h-2q-2 -4 -7 -11t-21 -24.5
t-35 -31t-50 -24.5t-64 -11q-64 0 -106 35.5t-42 99.5zM121 142q0 -28 17 -44t45 -16q50 0 94.5 45.5t53.5 92.5l3 13h-21q-48 0 -88.5 -7t-72 -28.5t-31.5 -55.5zM362 594l23 116h89l-23 -116h-89zM183 594l23 116h88l-23 -116h-88z" />
    <glyph glyph-name="uni04D4" unicode="&#x4d4;" horiz-adv-x="903" 
d="M34 0h-77l21 111h17q13 0 18.5 4t13.5 18l342 577h481q64 0 64 -50q0 -17 -4 -33l-18 -93h-118l5 26q3 17 3 23q0 16 -20 16h-154l-36 -186h227l-22 -111h-227l-30 -153q-3 -14 -3 -23q0 -15 18 -15h160q22 0 27 22l8 43h119l-22 -112q-7 -34 -25 -49t-51 -15h-316
q-63 0 -63 49q0 12 5 37l42 216h-159l-139 -244q-20 -35 -36 -46.5t-51 -11.5zM324 413h116l37 186h-47z" />
    <glyph glyph-name="uni04D5" unicode="&#x4d5;" horiz-adv-x="848" 
d="M-5 125q0 46 22 82t55 56.5t78 33t83.5 17t78.5 4.5h35q4 18 4 37q0 69 -75 69q-71 0 -77 -34l-6 -27h-118l10 54q6 31 28 53t54 32.5t62.5 15t63.5 4.5q103 0 146 -73h2q75 73 174 73q100 0 152.5 -52.5t52.5 -141.5q0 -20 -4.5 -44t-9.5 -38l-4 -14h-348q-1 -10 -1 -21
q0 -54 33.5 -86.5t91.5 -32.5q37 0 76 14t60 28l20 14l34 -93q-10 -8 -27.5 -19t-69.5 -29.5t-102 -18.5q-76 0 -130 29.5t-80 81.5h-2q-6 -12 -18.5 -27t-36 -36t-62 -34.5t-83.5 -13.5q-67 0 -114.5 37.5t-47.5 99.5zM474 318h220q1 12 1 23q0 39 -22.5 61t-58.5 22
q-48 0 -84.5 -28t-55.5 -78zM123 140q0 -23 17 -38t49 -15q48 0 89 42t51 92l2 10h-35q-27 0 -52 -3t-55 -11.5t-48 -28t-18 -48.5z" />
    <glyph glyph-name="uni04D6" unicode="&#x4d6;" horiz-adv-x="583" 
d="M49 49q0 12 5 37l100 513h-65l21 111h420q65 0 65 -50q0 -9 -4 -33l-18 -93h-119l6 26q3 16 3 23q0 16 -21 16h-157l-36 -186h230l-22 -111h-230l-30 -153q-3 -13 -3 -23q0 -15 18 -15h164q21 0 26 22l9 43h118l-22 -112q-11 -64 -76 -64h-319q-63 0 -63 49zM402 742
q-65 0 -107 32t-42 81q0 18 5 38h99q-4 -10 -4 -25q0 -23 15 -37t41 -14q70 0 81 76h96q-11 -78 -62.5 -114.5t-121.5 -36.5z" />
    <glyph glyph-name="uni04D7" unicode="&#x4d7;" horiz-adv-x="547" 
d="M18 207q0 131 85 223t211 92q99 0 151 -52.5t52 -140.5q0 -20 -4.5 -44.5t-8.5 -38.5l-4 -14h-351q-3 -12 -3 -26q0 -49 34 -80t93 -31q36 0 75.5 14t61.5 28l21 14l34 -96q-10 -8 -27.5 -19t-70 -29.5t-102.5 -18.5q-116 0 -181.5 61.5t-65.5 157.5zM166 317h223
q3 13 3 23q0 39 -22 61.5t-59 22.5q-49 0 -88 -29t-57 -78zM342 559q-65 0 -107 32t-42 81q0 18 5 38h99q-4 -10 -4 -25q0 -23 15 -37t41 -14q70 0 81 76h96q-11 -78 -62.5 -114.5t-121.5 -36.5z" />
    <glyph glyph-name="uni04D8" unicode="&#x4d8;" horiz-adv-x="702" 
d="M32 250q0 63 26 149h493q2 20 2 28q0 81 -46.5 129t-131.5 48q-66 0 -126 -25.5t-92 -50.5l-53 100q14 12 45 30.5t100.5 41t138.5 22.5q142 0 220 -84.5t78 -219.5q0 -77 -27 -153t-75 -138t-122.5 -100.5t-162.5 -38.5q-121 0 -194 70.5t-73 191.5zM158 240
q0 -66 36.5 -102t107.5 -36q88 0 149 54.5t80 142.5h-367q-6 -26 -6 -59z" />
    <glyph glyph-name="uni04D9" unicode="&#x4d9;" horiz-adv-x="549" 
d="M15 179q0 51 21 112h350q2 5 2 21q0 49 -35.5 78t-96.5 29q-48 0 -95 -18t-65 -33l-35 94q21 16 80 38t128 22q112 0 178.5 -61.5t66.5 -166.5q0 -123 -85 -214.5t-213 -91.5q-96 0 -148.5 52.5t-52.5 138.5zM133 174q0 -42 24 -65t64 -23q50 0 93.5 32.5t60.5 86.5h-238
q-4 -16 -4 -31z" />
    <glyph glyph-name="uni04DA" unicode="&#x4da;" horiz-adv-x="703" 
d="M475 777l23 116h89l-23 -116h-89zM296 777l23 116h88l-23 -116h-88zM32 250q0 63 26 149h493q2 20 2 28q0 81 -46.5 129t-131.5 48q-66 0 -126 -25.5t-92 -50.5l-53 100q14 12 45 30.5t100.5 41t138.5 22.5q142 0 220 -84.5t78 -219.5q0 -77 -27 -153t-75 -138
t-122.5 -100.5t-162.5 -38.5q-121 0 -194 70.5t-73 191.5zM158 240q0 -66 36.5 -102t107.5 -36q88 0 149 54.5t80 142.5h-367q-6 -26 -6 -59z" />
    <glyph glyph-name="uni04DB" unicode="&#x4db;" horiz-adv-x="550" 
d="M358 594l23 116h89l-23 -116h-89zM179 594l23 116h88l-23 -116h-88zM15 179q0 51 21 112h350q2 5 2 21q0 49 -35.5 78t-96.5 29q-48 0 -95 -18t-65 -33l-35 94q21 16 80 38t128 22q112 0 178.5 -61.5t66.5 -166.5q0 -123 -85 -214.5t-213 -91.5q-96 0 -148.5 52.5
t-52.5 138.5zM133 174q0 -42 24 -65t64 -23q50 0 93.5 32.5t60.5 86.5h-238q-4 -16 -4 -31z" />
    <glyph glyph-name="uni04DC" unicode="&#x4dc;" horiz-adv-x="928" 
d="M-51 0l237 319q14 18 29 31.5t23 17.5l8 4v2q-21 7 -36 49l-54 153q-7 23 -45 23h-17l22 111h57q42 0 59 -10t28 -43l74 -214q6 -17 17 -21.5t34 -4.5h40l57 293h125l-57 -293h28q46 0 66 26l151 214q23 33 45.5 43t63.5 10h69l-21 -111h-14q-37 0 -54 -23l-115 -159
q-13 -19 -28 -32t-23 -17l-9 -4v-2q24 -11 38 -52l115 -310h-134l-102 287q-6 17 -17 22t-31 5h-48l-61 -314h-125l61 314h-41q-38 0 -57 -27l-210 -287h-148zM605 777l23 116h89l-23 -116h-89zM426 777l23 116h88l-23 -116h-88z" />
    <glyph glyph-name="uni04DD" unicode="&#x4dd;" horiz-adv-x="781" 
d="M498 594l23 116h89l-23 -116h-89zM319 594l23 116h88l-23 -116h-88zM-43 0l154 206q14 19 30.5 32t26.5 16l9 4l1 2q-17 7 -27 41l-24 82q-6 19 -40 19h-35l21 108h81q33 0 48 -8.5t24 -35.5l39 -130q7 -24 47 -24h25l39 198h121l-38 -198h20q35 0 52 24l90 130
q19 26 39.5 35t54.5 9h84l-21 -108h-29q-33 0 -46 -19l-56 -82q-10 -15 -23 -25.5t-20 -13.5l-8 -2v-2l2 -1q3 -1 7.5 -5t9.5 -9t11 -15t10 -22l74 -206h-130l-59 170q-12 35 -53 35h-30l-40 -205h-122l41 205h-24q-40 0 -66 -35l-126 -170h-144z" />
    <glyph glyph-name="uni04DE" unicode="&#x4de;" horiz-adv-x="545" 
d="M402 777l23 116h89l-23 -116h-89zM223 777l23 116h88l-23 -116h-88zM-16 87l77 86q57 -71 149 -71q62 0 106.5 34t44.5 89q0 79 -98 79h-98l21 105h81q51 0 91 33t40 83q0 84 -93 84q-40 0 -70 -18.5t-35 -44.5l-4 -26h-119l12 62q9 49 49.5 82t88.5 45.5t100 12.5
q91 0 149 -45.5t58 -126.5q0 -64 -36 -113t-96 -72l-1 -2q42 -17 67 -52.5t25 -85.5q0 -104 -84 -170.5t-196 -66.5q-68 0 -130 26t-99 73z" />
    <glyph glyph-name="uni04DF" unicode="&#x4df;" horiz-adv-x="455" 
d="M321 594l23 116h89l-23 -116h-89zM142 594l23 116h88l-23 -116h-88zM-21 63l62 78q49 -54 126 -54q44 0 73.5 22.5t29.5 62.5q0 47 -73 47h-66l16 83h49q46 0 74 21t28 60q0 47 -66 47q-28 0 -52 -11t-27 -33l-4 -21h-102l9 51q10 52 63.5 79t125.5 27q84 0 131.5 -32.5
t47.5 -91.5q0 -52 -30 -87t-68 -46v-2q29 -10 48.5 -35t19.5 -64q0 -82 -67.5 -129t-157.5 -47q-115 0 -190 75z" />
    <glyph glyph-name="uni04E0" unicode="&#x4e0;" horiz-adv-x="516" 
d="M28 142q22 -18 64 -32.5t83 -14.5q68 0 117.5 37t49.5 94q0 41 -32 59.5t-106 18.5h-87l17 87l194 176l48 36v2q-25 -3 -57 -3h-92q-21 0 -26 -22l-6 -29h-109l18 91q7 36 26.5 52t54.5 16h352l-20 -105l-195 -176l-38 -28v-2q89 -1 136.5 -48.5t47.5 -116.5
q0 -107 -86.5 -175.5t-207.5 -68.5q-108 0 -195 59z" />
    <glyph glyph-name="uni04E1" unicode="&#x4e1;" horiz-adv-x="478" 
d="M-32 -58q22 -18 64 -32.5t83 -14.5q68 0 117.5 37t49.5 94q0 41 -32 59.5t-106 18.5h-87l17 87l194 176l48 36v2q-25 -3 -57 -3h-92q-21 0 -26 -22l-6 -29h-109l18 91q7 36 26.5 52t54.5 16h352l-20 -105l-195 -176l-38 -28v-2q89 -1 136.5 -48.5t47.5 -116.5
q0 -107 -86.5 -175.5t-207.5 -68.5q-108 0 -195 59z" />
    <glyph glyph-name="uni04E2" unicode="&#x4e2;" horiz-adv-x="771" 
d="M349 785l16 84h263l-17 -84h-262zM37 0l112 577q5 22 -17 22h-43l21 111h129q35 0 48 -16.5t6 -51.5l-65 -331q-3 -19 -10 -46t-12 -45l-5 -17h2q43 68 77 109l338 398h139l-113 -577q-3 -22 18 -22h43l-22 -111h-128q-35 0 -48 16t-6 52l64 332l29 110h-2
q-42 -69 -76 -110l-340 -400h-139z" />
    <glyph glyph-name="uni04E3" unicode="&#x4e3;" horiz-adv-x="635" 
d="M24 0l72 367q3 18 3 20q0 15 -18 15h-40l21 108h113q56 0 56 -44q0 -11 -3 -23l-40 -204l-14 -59h2q12 20 51 63l241 267h126l-71 -364q-4 -18 -4 -23q0 -16 18 -16h39l-21 -107h-112q-56 0 -56 44q0 7 2 23l39 203q3 18 14 59h-2q-18 -28 -51 -62l-239 -267h-126z
M247 602l16 84h263l-17 -84h-262z" />
    <glyph glyph-name="uni04E4" unicode="&#x4e4;" horiz-adv-x="771" 
d="M525 777l23 116h89l-23 -116h-89zM346 777l23 116h88l-23 -116h-88zM37 0l112 577q5 22 -17 22h-43l21 111h129q35 0 48 -16.5t6 -51.5l-65 -331q-3 -19 -10 -46t-12 -45l-5 -17h2q43 68 77 109l338 398h139l-113 -577q-3 -22 18 -22h43l-22 -111h-128q-35 0 -48 16
t-6 52l64 332l29 110h-2q-42 -69 -76 -110l-340 -400h-139z" />
    <glyph glyph-name="uni04E5" unicode="&#x4e5;" horiz-adv-x="635" 
d="M24 0l72 367q3 18 3 20q0 15 -18 15h-40l21 108h113q56 0 56 -44q0 -11 -3 -23l-40 -204l-14 -59h2q12 20 51 63l241 267h126l-71 -364q-4 -18 -4 -23q0 -16 18 -16h39l-21 -107h-112q-56 0 -56 44q0 7 2 23l39 203q3 18 14 59h-2q-18 -28 -51 -62l-239 -267h-126z
M420 594l23 116h89l-23 -116h-89zM241 594l23 116h88l-23 -116h-88z" />
    <glyph glyph-name="uni04E6" unicode="&#x4e6;" horiz-adv-x="798" 
d="M534 777l23 116h89l-23 -116h-89zM355 777l23 116h88l-23 -116h-88zM37 300q0 112 60 209.5t159.5 155t212.5 57.5q140 0 227.5 -86t87.5 -221q0 -171 -131 -299t-302 -128q-139 0 -226.5 88t-87.5 224zM173 307q0 -88 53 -142.5t136 -54.5q109 0 197.5 89t88.5 208
q0 86 -53 139.5t-136 53.5q-110 0 -198 -87t-88 -206z" />
    <glyph glyph-name="uni04E7" unicode="&#x4e7;" horiz-adv-x="621" 
d="M412 594l23 116h89l-23 -116h-89zM233 594l23 116h88l-23 -116h-88zM18 214q0 130 97.5 219t227.5 89q108 0 176 -62.5t68 -162.5q0 -131 -98 -220t-227 -89q-107 0 -175.5 62.5t-68.5 163.5zM147 220q0 -57 34.5 -90.5t90.5 -33.5q71 0 128.5 55.5t57.5 137.5
q0 56 -34.5 90.5t-89.5 34.5q-72 0 -129.5 -56.5t-57.5 -137.5z" />
    <glyph glyph-name="uni04E8" unicode="&#x4e8;" horiz-adv-x="798" 
d="M37 300q0 112 60 209.5t159.5 155t212.5 57.5q140 0 227.5 -86t87.5 -221q0 -171 -131 -299t-302 -128q-139 0 -226.5 88t-87.5 224zM173 307q0 -88 53 -142.5t136 -54.5t159 56t108 141h-456zM459 600q-85 0 -160.5 -54.5t-107.5 -138.5h457q0 86 -53 139.5t-136 53.5z
" />
    <glyph glyph-name="uni04E9" unicode="&#x4e9;" horiz-adv-x="619" 
d="M17 214q0 130 97.5 219t227.5 89q108 0 176 -62.5t68 -162.5q0 -131 -98 -220t-227 -89q-107 0 -175.5 62.5t-68.5 163.5zM136 220q0 -60 37.5 -97t97.5 -37q57 0 109.5 37t74.5 97h-319zM333 424q-56 0 -107.5 -36t-75.5 -93h317q-2 58 -39 93.5t-95 35.5z" />
    <glyph glyph-name="uni04EA" unicode="&#x4ea;" horiz-adv-x="798" 
d="M37 300q0 112 60 209.5t159.5 155t212.5 57.5q140 0 227.5 -86t87.5 -221q0 -171 -131 -299t-302 -128q-139 0 -226.5 88t-87.5 224zM173 307q0 -88 53 -142.5t136 -54.5t159 56t108 141h-456zM459 600q-85 0 -160.5 -54.5t-107.5 -138.5h457q0 86 -53 139.5t-136 53.5z
M537 777l23 116h89l-23 -116h-89zM358 777l23 116h88l-23 -116h-88z" />
    <glyph glyph-name="uni04EB" unicode="&#x4eb;" horiz-adv-x="621" 
d="M18 214q0 130 97.5 219t227.5 89q108 0 176 -62.5t68 -162.5q0 -131 -98 -220t-227 -89q-107 0 -175.5 62.5t-68.5 163.5zM137 220q0 -60 37.5 -97t97.5 -37q57 0 109.5 37t74.5 97h-319zM334 424q-56 0 -107.5 -36t-75.5 -93h317q-2 58 -39 93.5t-95 35.5zM411 581
l23 116h89l-23 -116h-89zM232 581l23 116h88l-23 -116h-88z" />
    <glyph glyph-name="uni04EC" unicode="&#x4ec;" horiz-adv-x="702" 
d="M457 777l23 116h89l-23 -116h-89zM278 777l23 116h88l-23 -116h-88zM-11 98l72 88q32 -37 86.5 -59.5t112.5 -22.5q92 0 168.5 55.5t103.5 140.5h-339l20 105h341q5 87 -44.5 143.5t-142.5 56.5q-56 0 -109 -19.5t-60 -55.5l-7 -39h-119l14 72q14 72 96.5 115.5
t186.5 43.5q148 0 232.5 -89.5t84.5 -225.5q0 -174 -125 -296.5t-301 -122.5q-79 0 -151 28t-120 82z" />
    <glyph glyph-name="uni04ED" unicode="&#x4ed;" horiz-adv-x="536" 
d="M353 594l23 116h89l-23 -116h-89zM174 594l23 116h88l-23 -116h-88zM-21 64l53 84q25 -28 65 -44t82 -16q62 0 112.5 34.5t73.5 89.5h-217l17 84h217q0 61 -36.5 93.5t-91.5 32.5q-34 0 -64 -12t-34 -32l-4 -22h-106l9 44q10 56 69.5 89t138.5 33q110 0 174 -66t64 -165
q0 -122 -92 -212.5t-224 -90.5q-58 0 -115.5 19.5t-90.5 56.5z" />
    <glyph glyph-name="uni04EE" unicode="&#x4ee;" horiz-adv-x="629" 
d="M271 785l16 84h263l-17 -84h-262zM14 42l69 93q31 -31 72 -31q28 0 46.5 15t37.5 46l-126 412q-7 22 -27 22h-23l22 111h67q35 0 49 -12t23 -46l76 -271l20 -88h2q19 42 44 88l148 271q19 34 38 46t56 12h86l-22 -111h-19q-22 0 -35 -22l-262 -453q-79 -136 -192 -136
q-41 0 -84 15.5t-66 38.5z" />
    <glyph glyph-name="uni04EF" unicode="&#x4ef;" horiz-adv-x="554" 
d="M-81 -158l52 90q36 -36 75 -36q52 0 93 66l26 41l-94 381q-3 11 -8 14.5t-16 3.5h-15l21 108h86q42 0 51 -48l50 -255l5 -68h2q16 42 30 68l136 255q26 48 78 48h91l-21 -108h-15q-22 0 -32 -18l-275 -465q-77 -129 -196 -129q-33 0 -64 13t-45 26zM205 602l16 83h263
l-16 -83h-263z" />
    <glyph glyph-name="uni04F0" unicode="&#x4f0;" horiz-adv-x="629" 
d="M447 777l23 116h89l-23 -116h-89zM268 777l23 116h88l-23 -116h-88zM14 42l69 93q31 -31 72 -31q28 0 46.5 15t37.5 46l-126 412q-7 22 -27 22h-23l22 111h67q35 0 49 -12t23 -46l76 -271l20 -88h2q19 42 44 88l148 271q19 34 38 46t56 12h86l-22 -111h-19q-22 0 -35 -22
l-262 -453q-79 -136 -192 -136q-41 0 -84 15.5t-66 38.5z" />
    <glyph glyph-name="uni04F1" unicode="&#x4f1;" horiz-adv-x="554" 
d="M43 -210q-33 0 -64 13t-45 26l-15 13l52 90q36 -36 75 -36q52 0 93 66l26 41l-94 381q-3 11 -8 14.5t-16 3.5h-15l21 108h86q42 0 51 -48l50 -255l5 -68h2q16 42 30 68l136 255q26 48 78 48h91l-21 -108h-15q-22 0 -32 -18l-275 -465q-77 -129 -196 -129zM376 594l23 116
h89l-23 -116h-89zM197 594l23 116h88l-23 -116h-88z" />
    <glyph glyph-name="uni04F2" unicode="&#x4f2;" horiz-adv-x="629" 
d="M14 42l69 93q31 -31 72 -31q28 0 46.5 15t37.5 46l-126 412q-7 22 -27 22h-23l22 111h67q35 0 49 -12t23 -46l76 -271l20 -88h2q19 42 44 88l148 271q19 34 38 46t56 12h86l-22 -111h-19q-22 0 -35 -22l-262 -453q-79 -136 -192 -136q-41 0 -84 15.5t-66 38.5zM431 757
l83 136h121l-111 -136h-93zM258 757l80 136h103l-81 -136h-102z" />
    <glyph glyph-name="uni04F3" unicode="&#x4f3;" horiz-adv-x="554" 
d="M43 -210q-33 0 -64 13t-45 26l-15 13l52 90q36 -36 75 -36q52 0 93 66l26 41l-94 381q-3 11 -8 14.5t-16 3.5h-15l21 108h86q42 0 51 -48l50 -255l5 -68h2q16 42 30 68l136 255q26 48 78 48h91l-21 -108h-15q-22 0 -32 -18l-275 -465q-77 -129 -196 -129zM362 574l83 136
h121l-111 -136h-93zM189 574l80 136h103l-81 -136h-102z" />
    <glyph glyph-name="uni04F4" unicode="&#x4f4;" horiz-adv-x="670" 
d="M102 419q0 27 6 59l17 85q2 16 2 19q0 17 -18 17h-43l22 111h128q57 0 57 -45q0 -5 -2 -23l-27 -136q-4 -28 -4 -39q0 -86 107 -86q69 0 142 47l55 282h131l-139 -710h-131l53 272l9 33h-2q-82 -41 -174 -41q-94 0 -141.5 40t-47.5 115zM463 777l23 116h89l-23 -116h-89z
M284 777l23 116h88l-23 -116h-88z" />
    <glyph glyph-name="uni04F5" unicode="&#x4f5;" horiz-adv-x="558" 
d="M379 594l23 116h89l-23 -116h-89zM200 594l23 116h88l-23 -116h-88zM32 402l21 108h115q54 0 54 -45q0 -6 -2 -24l-16 -81q-3 -15 -3 -29q0 -56 71 -56q52 0 102 32l40 203h127l-100 -510h-127l35 175l7 28h-1q-68 -31 -141 -31q-67 0 -106.5 31.5t-39.5 84.5q0 14 3 31
l10 50q0 3 1 7.5t1.5 7t0.5 3.5q0 15 -19 15h-33z" />
    <glyph glyph-name="uni04F6" unicode="&#x4f6;" horiz-adv-x="534" 
d="M437 599h-153l-96 -488h40q29 0 42 -9.5t13 -31.5q0 -10 -3 -24l-36 -186h-115l19 98q5 23 5 27q0 13 -14 15h-103l117 599h-65l22 111h416q61 0 61 -50q0 -9 -4 -33l-18 -93h-115l5 26q3 15 3 23q0 16 -21 16z" />
    <glyph glyph-name="uni04F7" unicode="&#x4f7;" horiz-adv-x="458" 
d="M25 0l78 402h-62l21 108h349q57 0 57 -44q0 -10 -3 -23l-17 -92h-104l4 23q0 3 0.5 6t1 5t0.5 3q0 14 -19 14h-101l-59 -298h28q52 0 52 -43q0 -6 -2 -24l-31 -157h-116l15 77q5 25 5 28q0 13 -12 15h-85z" />
    <glyph glyph-name="uni04F8" unicode="&#x4f8;" horiz-adv-x="896" 
d="M581 777l23 116h89l-23 -116h-89zM402 777l23 116h88l-23 -116h-88zM626 68l125 642h131l-111 -566q-3 -14 -3 -18q0 -15 19 -15h43l-22 -111h-128q-57 0 -57 45q0 9 3 23zM50 68l95 489q5 20 5 27q0 15 -19 15h-43l22 111h128q57 0 57 -45q0 -11 -3 -23l-35 -181h112
q91 0 147.5 -47t56.5 -143q0 -120 -84.5 -195.5t-211.5 -75.5h-173q-57 0 -57 45q0 11 3 23zM211 111h90q56 0 96.5 42t40.5 109q0 43 -23.5 65.5t-66.5 22.5h-112l-39 -200l-5 -23q0 -16 19 -16z" />
    <glyph glyph-name="uni04F9" unicode="&#x4f9;" horiz-adv-x="772" 
d="M484 594l23 116h89l-23 -116h-89zM305 594l23 116h88l-23 -116h-88zM518 68l86 442h127l-74 -381q-5 -22 17 -22h40l-21 -107h-121q-35 0 -48 16t-6 52zM33 36q0 11 2 18l59 309q5 20 5 24q0 15 -19 15h-40l21 108h122q57 0 57 -44q0 -6 -3 -21l-22 -111h87
q84 0 127 -37.5t43 -99.5q0 -92 -63.5 -144.5t-154.5 -52.5h-176q-45 0 -45 36zM185 87h59q43 0 71 28.5t28 72.5q0 27 -17.5 43t-50.5 16h-76l-24 -124q-5 -22 -5 -23q0 -13 15 -13z" />
    <glyph glyph-name="uni0524" unicode="&#x524;" horiz-adv-x="784" 
d="M37 0l116 599h-65l22 111h575q56 0 56 -45q0 -7 -2 -23l-103 -531h36q29 0 42 -9.5t13 -31.5q0 -10 -3 -24l-36 -186h-115l19 98q5 22 5 27q0 15 -16 15h-98l108 557q1 4 2 10.5t2 10.5t1 5q0 16 -19 16h-293l-116 -599h-131z" />
    <glyph glyph-name="uni0525" unicode="&#x525;" horiz-adv-x="635" 
d="M24 0l78 402h-58l21 108h453q57 0 57 -45q0 -11 -3 -23l-66 -338h28q53 0 53 -42q0 -10 -3 -24l-30 -158h-116l18 91q2 12 2 13q0 16 -16 16h-82l70 360q4 20 4 25q0 17 -18 17h-187l-78 -402h-127z" />
    <glyph glyph-name="uni1E9E" unicode="&#x1e9e;" horiz-adv-x="669" 
d="M-28 0l22 111h42q21 0 26 22l68 350q20 102 95.5 164.5t179.5 62.5h266l-17 -89l-153 -181l-25 -25v-2q68 -18 110 -63.5t42 -109.5q0 -97 -77 -173t-205 -76q-36 0 -99 10l21 111q28 -7 71 -7q78 0 116.5 38.5t38.5 86.5q0 92 -165 99l15 76l135 165q6 8 13.5 15
t11.5 11l4 3v2q-16 -2 -33 -2h-88q-45 0 -80.5 -32.5t-44.5 -80.5l-82 -418q-7 -36 -26 -52t-55 -16h-127z" />
    <glyph glyph-name="endash" unicode="&#x2013;" horiz-adv-x="672" 
d="M46 236l19 99h554l-19 -99h-554z" />
    <glyph glyph-name="emdash" unicode="&#x2014;" horiz-adv-x="869" 
d="M46 236l18 99h754l-19 -99h-753z" />
    <glyph glyph-name="quoteleft" unicode="&#x2018;" horiz-adv-x="243" 
d="M84 504l117 218h86l-89 -218h-114z" />
    <glyph glyph-name="quoteright" unicode="&#x2019;" horiz-adv-x="235" 
d="M88 504l90 219h113l-116 -219h-87z" />
    <glyph glyph-name="quotesinglbase" unicode="&#x201a;" horiz-adv-x="254" 
d="M-38 -89l89 218h114l-117 -218h-86z" />
    <glyph glyph-name="quotedblleft" unicode="&#x201c;" horiz-adv-x="402" 
d="M244 504l116 218h86l-89 -218h-113zM84 504l117 218h86l-89 -218h-114z" />
    <glyph glyph-name="quotedblright" unicode="&#x201d;" horiz-adv-x="395" 
d="M248 504l89 219h114l-117 -219h-86zM88 504l90 219h113l-116 -219h-87z" />
    <glyph glyph-name="quotedblbase" unicode="&#x201e;" horiz-adv-x="414" 
d="M122 -89l89 218h113l-116 -218h-86zM-38 -89l89 218h114l-117 -218h-86z" />
    <glyph glyph-name="dagger" unicode="&#x2020;" horiz-adv-x="456" 
d="M99 -50l90 461h-125l19 99h125l38 200h122l-39 -200h127l-19 -99h-127l-90 -461h-121z" />
    <glyph glyph-name="daggerdbl" unicode="&#x2021;" horiz-adv-x="469" 
d="M105 -50l41 213h-123l18 98h124l30 150h-124l19 99h124l39 200h122l-39 -200h127l-19 -99h-127l-30 -150h127l-19 -98h-127l-41 -213h-122z" />
    <glyph glyph-name="bullet" unicode="&#x2022;" horiz-adv-x="478" 
d="M237 124q-69 0 -117.5 49t-48.5 118t48.5 118t117.5 49q70 0 118.5 -49t48.5 -118t-48.5 -118t-118.5 -49z" />
    <glyph glyph-name="ellipsis" unicode="&#x2026;" horiz-adv-x="809" 
d="M572 0l24 127h123l-24 -127h-123zM287 0l24 127h123l-24 -127h-123zM3 0l24 127h122l-24 -127h-122z" />
    </font>
</defs>
</svg>
