<?xml version="1.0" standalone="no"?>
<!DOCTYPE svg PUBLIC "-//W3C//DTD SVG 1.1//EN" "http://www.w3.org/Graphics/SVG/1.1/DTD/svg11.dtd" >
<svg>
<metadata>
Created by FontForge 20090914 at Thu Jun 25 10:43:16 2015
 By www-data
Copyright &#194;&#169; 2013, Natanael Gama (www.ndiscovered.com . info(at)ndiscovered.com), with Reserved Font Name Exo. This Font Software is licensed under the SIL Open Font License, Version 1.1.
</metadata>
<defs>
<font id="Exo2-Medium" horiz-adv-x="572" >
  <font-face 
    font-family="Exo 2 Medium"
    font-weight="500"
    font-stretch="normal"
    units-per-em="1000"
    panose-1="0 0 6 0 0 0 0 0 0 0"
    ascent="800"
    descent="-200"
    x-height="488"
    cap-height="690"
    bbox="-175 -278 1225 939"
    underline-thickness="50"
    underline-position="-50"
    unicode-range="U+0020-U+FB02"
  />
<missing-glyph horiz-adv-x="600" 
 />
    <glyph glyph-name=".notdef" horiz-adv-x="600" 
 />
    <glyph glyph-name="space" unicode=" " horiz-adv-x="222" 
 />
    <glyph glyph-name="exclam" unicode="!" horiz-adv-x="277" 
d="M187 396l-10 -183h-77l-10 183v299h97v-299zM127 124h24c13.333 0 22.666 -2.66699 27.999 -8s8 -14.333 8 -27v-53c0 -13.333 -2.66699 -22.666 -8 -27.999s-14.666 -8 -27.999 -8h-24c-13.333 0 -22.5 2.66699 -27.5 8s-7.5 14.666 -7.5 27.999v53
c0 12.667 2.66699 21.667 8 27s14.333 8 27 8z" />
    <glyph glyph-name="quotedbl" unicode="&#x22;" horiz-adv-x="358" 
d="M139 474h-66l-6 216h78zM286 474h-66l-6 216h78z" />
    <glyph glyph-name="numbersign" unicode="#" horiz-adv-x="688" 
d="M525 444l-30 -173h109l-12 -61h-108l-36 -210h-77l37 210h-175l-36 -210h-77l37 210h-116l12 61h114l31 173h-115l12 61h113l32 185h77l-32 -185h174l32 185h77l-32 -185h110l-12 -61h-109zM449 444h-175l-30 -173h174z" />
    <glyph glyph-name="dollar" unicode="$" horiz-adv-x="565" 
d="M319 390l57.001 -15.999c51.333 -14 87.5 -36.667 108.5 -68s31.5 -74 31.5 -128c0 -76.667 -17.333 -127.5 -52 -152.5s-96 -37.5 -184 -37.5l-9 -113h-51l9 114c-55.333 2.66699 -110.333 9 -165 19l7 77c85.333 -2 140.666 -3.33301 165.999 -4l18 226l-63 17
c-49.333 13.333 -84.5 35.833 -105.5 67.5s-31.5 74.5 -31.5 128.5c0 39.333 4.16699 71.166 12.5 95.499s22.833 42.833 43.5 55.5s43.667 21 69 25s59.333 6 102 6h11l7 96h50l-7 -98c56 -2 105 -8.33301 147 -19l-6 -73c-58.667 2.66699 -108 4 -148 4zM269.001 404.001
l17.001 208.999c-52 0 -86.667 -5.16699 -104 -15.5s-26 -37.166 -26 -80.499c0 -34 6.16699 -58 18.5 -72s34.166 -25 65.499 -33zM304.002 293l-17 -212c50 0 83.667 6.33301 101 19s26 39 26 79c0 35.333 -6 59.833 -18 73.5s-33.333 24.5 -64 32.5z" />
    <glyph glyph-name="percent" unicode="%" horiz-adv-x="896" 
d="M207 703c60 0 102.167 -15.5 126.5 -46.5s36.5 -83.833 36.5 -158.5c0 -74 -12.167 -126.667 -36.5 -158s-66.5 -47 -126.5 -47s-102.167 15.667 -126.5 47s-36.5 84 -36.5 158c0 74.667 12.167 127.5 36.5 158.5s66.5 46.5 126.5 46.5zM260 0h-68l441 690h68zM206 643
c-33.333 0 -56.333 -10.667 -69 -32s-19 -59 -19 -113c0 -54.667 6.33301 -92.5 19 -113.5s35.667 -31.5 69 -31.5c34 0 57.333 10.5 70 31.5s19 58.833 19 113.5s-6.33301 92.5 -19 113.5s-36 31.5 -70 31.5zM689 400c59.333 0 101.166 -15.667 125.499 -47
s36.5 -84 36.5 -158c0 -74.667 -12.167 -127.5 -36.5 -158.5s-66.166 -46.5 -125.499 -46.5c-60 0 -102.167 15.5 -126.5 46.5s-36.5 83.833 -36.5 158.5c0 74 12.167 126.667 36.5 158s66.5 47 126.5 47zM688 339c-34 0 -57.333 -10.3311 -70 -30.998
s-18.667 -58.334 -18 -113.001c-0.666992 -54.667 5.33301 -92.5 18 -113.5s36 -31.5 70 -31.5s57.333 10.5 70 31.5s19 58.833 19 113.5c0 55.333 -6.33301 93.166 -19 113.499s-36 30.5 -70 30.5z" />
    <glyph glyph-name="ampersand" unicode="&#x26;" horiz-adv-x="770" 
d="M713 75l10.999 -71c-30 -8.66699 -66.333 -13 -109 -13c-68 0 -108.333 27.333 -121 82c-29.333 -30.667 -61.5 -52.334 -96.5 -65.001s-78.5 -19 -130.5 -19c-73.333 0 -125.5 13.833 -156.5 41.5s-46.5 75.834 -46.5 144.501c0 55.333 10.5 98.333 31.5 129
s55.833 48 104.5 52v4c-41.333 4 -71 19 -89 45s-27 64.667 -27 116c0 32 3.5 58.833 10.5 80.5s16.5 39 28.5 52s29.333 23 52 30s46.834 11.667 72.501 14s58.5 3.5 98.5 3.5c62 0 115.333 -3.66699 160 -11l-12 -75c-28 2 -78.333 3 -151 3
c-62 0 -103.667 -6.83301 -125 -20.5s-32 -43.834 -32 -90.501c0 -44 9 -73.667 27 -89s51 -23 99 -23h180l8 123h81v-123h122v-76h-122v-181c0 -23.333 4.5 -39.666 13.5 -48.999s24.833 -14 47.5 -14h71zM489.999 319h-184c-51.333 0 -86.833 -8.83301 -106.5 -26.5
s-29.5 -51.167 -29.5 -100.5c0 -44.667 8.66699 -75.167 26 -91.5s49.333 -24.5 96 -24.5c83.333 0.666992 149.333 24.667 198 72v171z" />
    <glyph glyph-name="quotesingle" unicode="'" horiz-adv-x="211" 
d="M139 474h-66l-6 216h78z" />
    <glyph glyph-name="parenleft" unicode="(" horiz-adv-x="360" 
d="M319 790l12.001 -45.001c-64.667 -30.667 -111.834 -81.667 -141.501 -153s-44.5 -164.333 -44.5 -279c0 -225.333 62 -369.666 186 -432.999l-12 -45c-92 34.667 -159.667 90.5 -203 167.5s-65 180.167 -65 309.5c0 130 21.667 233.667 65 311s111 133 203 167z" />
    <glyph glyph-name="parenright" unicode=")" horiz-adv-x="360" 
d="M29 745l12.001 45.001c92.667 -34 160.667 -89.667 204 -167s65 -181 65 -311c0 -129.333 -21.667 -232.5 -65 -309.5s-111.333 -132.833 -204 -167.5l-12 45c124 63.333 186 207.666 186 432.999c0 114.667 -14.833 207.667 -44.5 279s-76.834 122.333 -141.501 153z
" />
    <glyph glyph-name="asterisk" unicode="*" horiz-adv-x="450" 
d="M244 529l102 -129l-46 -34l-76 124l-75 -123l-47 34l102 128l-8 162h58zM186 557v-25l-12 -16l-124 33l19 54zM399 548l-124 -32l-13 16v25l119 46z" />
    <glyph glyph-name="plus" unicode="+" horiz-adv-x="550" 
d="M495 263h-184v-174h-73v174h-184v72h183v175h74v-175h184v-72z" />
    <glyph glyph-name="comma" unicode="," horiz-adv-x="232" 
d="M103 124h28c12.667 0 21.5 -2.5 26.5 -7.5s7.5 -14.167 7.5 -27.5v-64c-0.666992 -59.333 -13.334 -112.333 -38.001 -159l-46 12c7.33301 37.333 11 78 11 122c-18 -0 -27 10.333 -27 31v58c0.666992 12.667 3.83398 21.667 9.50098 27s15.167 8 28.5 8z" />
    <glyph glyph-name="hyphen" unicode="-" horiz-adv-x="442" 
d="M373 216h-304v74h304v-74z" />
    <glyph glyph-name="period" unicode="." horiz-adv-x="233" 
d="M101 124h31c13.333 0 22.666 -2.5 27.999 -7.5s8 -14.167 8 -27.5v-53c0 -13.333 -2.66699 -22.666 -8 -27.999s-14.666 -8 -27.999 -8h-31c-13.333 0 -22.666 2.66699 -27.999 8s-8 14.666 -8 27.999v53c0 13.333 2.66699 22.5 8 27.5s14.666 7.5 27.999 7.5z" />
    <glyph glyph-name="slash" unicode="/" horiz-adv-x="522" 
d="M104 -67h-79l393 757h79z" />
    <glyph glyph-name="zero" unicode="0" horiz-adv-x="607" 
d="M303 703c88.667 0 151.167 -27.5 187.5 -82.5s54.5 -146.833 54.5 -275.5s-18.167 -220.5 -54.5 -275.5s-98.833 -82.5 -187.5 -82.5s-151.167 27.5 -187.5 82.5s-54.5 146.833 -54.5 275.5s18.167 220.5 54.5 275.5s98.833 82.5 187.5 82.5zM302 616
c-53.333 0 -90.5 -20.167 -111.5 -60.5s-31.5 -110.5 -31.5 -210.5s10.5 -170.167 31.5 -210.5s58.167 -60.5 111.5 -60.5c55.333 0 93.5 20 114.5 60s31.5 110.333 31.5 211s-10.5 171 -31.5 211s-59.167 60 -114.5 60z" />
    <glyph glyph-name="one" unicode="1" horiz-adv-x="402" 
d="M293 0h-100v534c0 24 1.66699 44.667 5 62l-166 -51l-12 75l173 70h100v-690z" />
    <glyph glyph-name="two" unicode="2" horiz-adv-x="563" 
d="M65 599l-6.00098 77.999c74.667 16.667 146 25 214 25c72.667 0 126.5 -10.333 161.5 -31s52.5 -60.667 52.5 -120c0 -42.667 -8.66699 -82 -26 -118s-48.666 -79 -93.999 -129l-192 -211c31.333 2.66699 68 4 110 4h226v-97h-457v63c0 18 5 32 15 42l192 217
c85.333 92 127 166.333 125 223c-0.666992 28.667 -10.5 47.334 -29.5 56.001s-49.833 13 -92.5 13c-60 0 -126.333 -5 -199 -15z" />
    <glyph glyph-name="three" unicode="3" horiz-adv-x="557" 
d="M69 607l-7 77.9961c68.667 12 134.667 18 198 18c76.667 0 131.667 -11.667 165 -35s50 -65 50 -125c0 -103.333 -33.667 -161.333 -101 -174v-4c42.667 -7.33301 72.834 -25.166 90.501 -53.499s27.167 -68.166 28.5 -119.499c1.33301 -71.333 -15 -123.333 -49 -156
s-91.333 -49 -172 -49c-63.333 0 -137 6 -221 18l6 81c78 -6.66699 141.333 -10 190 -10c54 0 92 9.33301 114 28s33 51.667 33 99c0 40.667 -9 70.834 -27 90.501s-52.333 29.5 -103 29.5h-127v78h127c47.333 0.666992 78.333 11 93 31s22 49 22 87
c-0.666992 40.667 -10 66.834 -28 78.501s-53.333 17.5 -106 17.5c-54.667 0 -113.334 -2.66699 -176.001 -8z" />
    <glyph glyph-name="four" unicode="4" horiz-adv-x="619" 
d="M577 174l-90.001 -10.001v-164h-95v164h-277c-30 0 -52.167 11.833 -66.5 35.5s-15.5 49.5 -3.5 77.5l191 413h98l-186 -406c-5.33301 -13.333 -5.66602 -23.166 -0.999023 -29.499s13 -9.5 25 -9.5h220v200l18 112h77v-312h90v-71z" />
    <glyph glyph-name="five" unicode="5" horiz-adv-x="538" 
d="M460 604l-286.001 0.000976562l-10 -172l78 -7c88.667 -7.33301 151.334 -27.5 188.001 -60.5s54.667 -85.5 54 -157.5c0 -30.667 -3 -57.834 -9 -81.501s-16.667 -46.5 -32 -68.5s-38.5 -39 -69.5 -51s-69.167 -18 -114.5 -18c-65.333 0 -135.333 8.33301 -210 25l12 81
c62.667 -11.333 120.667 -17 174 -17c59.333 0 99 10 119 30s30.667 53.333 32 100c0.666992 13.333 0.166992 25.333 -1.5 36s-3.5 20.167 -5.5 28.5s-6.16699 15.833 -12.5 22.5s-11.833 12.167 -16.5 16.5s-12.667 8.33301 -24 12s-20.833 6.5 -28.5 8.5
s-20.167 4 -37.5 6s-31.5 3.5 -42.5 4.5l-51.5 4.5l-52 5c-11.333 0.666992 -20.5 5 -27.5 13s-10.167 18 -9.5 30l16 296h371z" />
    <glyph glyph-name="six" unicode="6" horiz-adv-x="574" 
d="M477 687l-7.99902 -73.002c-30 2 -75 3 -135 3c-32 0 -57.5 -2.66699 -76.5 -8s-35.833 -16.333 -50.5 -33s-25.334 -40.167 -32.001 -70.5s-10.667 -70.5 -12 -120.5c22.667 24.667 46.834 42 72.501 52s57.5 15 95.5 15c72 0 121.667 -16.667 149 -50s41 -92 41 -176
c0 -39.333 -2.83301 -72.166 -8.5 -98.499s-16.167 -50.666 -31.5 -72.999s-37.833 -39 -67.5 -50s-67.5 -16.5 -113.5 -16.5c-50 0 -90 5.16699 -120 15.5s-53.833 29.5 -71.5 57.5s-29.5 62.667 -35.5 104s-9 97 -9 167c0 79.333 5.16699 143.666 15.5 192.999
s27.666 86.833 51.999 112.5s51.833 42.834 82.5 51.501s70.667 13 120 13c57.333 0 105 -5 143 -15zM301.001 73.998c52 0 85.833 11.668 101.5 35.001s23.5 62.333 23.5 117c0 54 -8.5 91.667 -25.5 113s-48.833 32 -95.5 32c-27.333 0 -51.5 -4.16699 -72.5 -12.5
s-44.5 -23.166 -70.5 -44.499c0 -52 1.16699 -91.333 3.5 -118s8.5 -50.334 18.5 -71.001s24 -34.334 42 -41.001s43 -10 75 -10z" />
    <glyph glyph-name="seven" unicode="7" horiz-adv-x="514" 
d="M37 690h393c21.333 0 36.333 -5.83301 45 -17.5s10 -27.5 4 -47.5l-213 -625h-100l189 552c7.33301 21.333 15 39 23 53h-337z" />
    <glyph glyph-name="eight" unicode="8" horiz-adv-x="607" 
d="M180 356l0.00195312 4.00098c-65.333 7.33301 -98 60 -98 158c0 66 15.5 113 46.5 141s89.167 42 174.5 42c86 -0.666992 144.5 -14.834 175.5 -42.501s46.5 -74.5 46.5 -140.5c0 -98 -32.667 -150.667 -98 -158v-4c41.333 -4 70.666 -21.5 87.999 -52.5
s26 -74.833 26 -131.5c0 -65.333 -16.5 -112 -49.5 -140s-95.833 -42.333 -188.5 -43c-90.667 -0.666992 -152.834 13.333 -186.501 42s-50.5 75.667 -50.5 141c0 56.667 8.5 100.5 25.5 131.5s46.5 48.5 88.5 52.5zM304.002 620.001
c-52.667 0 -87.665 -7.83301 -104.998 -23.5s-26 -45.167 -26 -88.5c0 -44 8.66699 -73.333 26 -88s52.666 -22 105.999 -22s88.166 7.16699 104.499 21.5s24.5 43.833 24.5 88.5c0 43.333 -8.5 72.833 -25.5 88.5s-51.833 23.5 -104.5 23.5zM305.004 318.001
c-58 -0.666992 -96.667 -9.16797 -116 -25.501s-29 -49.166 -29 -98.499c0 -46 9.66699 -77.333 29 -94s57.666 -25 114.999 -25c56.667 0 94.334 8.33301 113.001 25s28 48 28 94c0 50 -9.16699 83.167 -27.5 99.5s-55.833 24.5 -112.5 24.5z" />
    <glyph glyph-name="nine" unicode="9" horiz-adv-x="574" 
d="M85 3l7.99902 73.999c32 -2 80 -3 144 -3s108.333 15.833 133 47.5s38.334 93.834 41.001 186.501c-24 -26 -49 -44.167 -75 -54.5s-58 -15.5 -96 -15.5c-124.667 0 -187 75 -187 225c-0.666992 82.667 16.166 143.167 50.499 181.5s92.166 57.5 173.499 57.5
c29.333 0 54.833 -1.83301 76.5 -5.5s40.834 -9.16699 57.501 -16.5s30.5 -17.833 41.5 -31.5s20.333 -28.834 28 -45.501s13.334 -38.167 17.001 -64.5s6.33398 -53.666 8.00098 -81.999s2.5 -62.833 2.5 -103.5c0 -62 -3.33301 -114 -10 -156
s-16.334 -76.833 -29.001 -104.5s-30.334 -49.167 -53.001 -64.5s-47.667 -25.833 -75 -31.5s-61.666 -8.5 -102.999 -8.5c-60 0 -111 5 -153 15zM266.999 317.999c27.333 0 51.5 4.33105 72.5 12.998s44.833 24.334 71.5 47.001c0 34.667 -0.333008 62.167 -1 82.5
s-2.66699 40.833 -6 61.5s-7.83301 36 -13.5 46s-13.5 19.333 -23.5 28s-22.333 14.334 -37 17.001s-32.667 4 -54 4c-51.333 0 -85.666 -12.167 -102.999 -36.5s-25.666 -63.5 -24.999 -117.5c-0.666992 -49.333 7.66602 -85.833 24.999 -109.5s48.666 -35.5 93.999 -35.5z
" />
    <glyph glyph-name="colon" unicode=":" horiz-adv-x="242" 
d="M101 442h32c13.333 0 22.666 -2.5 27.999 -7.5s8 -14.167 8 -27.5v-54c0 -13.333 -2.66699 -22.5 -8 -27.5s-14.666 -7.5 -27.999 -7.5h-32c-12.667 0 -21.667 2.66699 -27 8s-8 14.333 -8 27v54c0 12.667 2.66699 21.667 8 27s14.333 8 27 8zM101 124h32
c13.333 0 22.666 -2.5 27.999 -7.5s8 -14.167 8 -27.5v-53c0 -13.333 -2.66699 -22.666 -8 -27.999s-14.666 -8 -27.999 -8h-32c-13.333 0 -22.5 2.66699 -27.5 8s-7.5 14.666 -7.5 27.999v53c0 12.667 2.66699 21.667 8 27s14.333 8 27 8z" />
    <glyph glyph-name="semicolon" unicode=";" horiz-adv-x="243" 
d="M107 442h31c13.333 0 22.666 -2.5 27.999 -7.5s8 -14.167 8 -27.5v-54c0 -13.333 -2.66699 -22.5 -8 -27.5s-14.666 -7.5 -27.999 -7.5h-31c-13.333 0 -22.666 2.5 -27.999 7.5s-8 14.167 -8 27.5v54c0 13.333 2.66699 22.5 8 27.5s14.666 7.5 27.999 7.5zM109 124
h28.0029c12.667 0 21.5 -2.5 26.5 -7.5s7.5 -14.167 7.5 -27.5v-64c-0.666992 -59.333 -13.334 -112.333 -38.001 -159l-45 12c6.66699 39.333 10 80 10 122c-18.667 -0 -27.334 10.333 -26.001 31v58c0.666992 12.667 3.66699 21.667 9 27s14.666 8 27.999 8z" />
    <glyph glyph-name="less" unicode="&#x3c;" horiz-adv-x="528" 
d="M460 432l-326 -134l326 -131v-77l-409 170v76l409 173v-77z" />
    <glyph glyph-name="equal" unicode="=" horiz-adv-x="585" 
d="M513 363h-442v72h442v-72zM513 152h-442v72h442v-72z" />
    <glyph glyph-name="greater" unicode="&#x3e;" horiz-adv-x="528" 
d="M477 336v-76l-409 -170v77l326 131l-326 134v77z" />
    <glyph glyph-name="question" unicode="?" horiz-adv-x="504" 
d="M43 621l-4.99902 69.9951c8 1.33301 20.333 3.5 37 6.5s29.334 5 38.001 6l36 4c15.333 1.66699 32 2.83398 50 3.50098s38.667 1 62 1c136 0 204 -51.667 204 -155c0 -27.333 -6 -52.666 -18 -75.999s-26.667 -43.833 -44 -61.5l-52 -54
c-17.333 -18.333 -32.5 -40.5 -45.5 -66.5s-20.167 -54.667 -21.5 -86h-82c-0.666992 34 4.16602 65.167 14.499 93.5s23.333 52 39 71s31.5 36.833 47.5 53.5s29.667 34.334 41 53.001s17.333 37.334 18 56.001c1.33301 30.667 -7.83398 53.334 -27.501 68.001
s-51.167 22 -94.5 22c-64 0 -129.667 -3 -197 -9zM231.001 123.995h24c13.333 0 22.666 -2.5 27.999 -7.5s8 -14.167 8 -27.5v-53c0 -13.333 -2.66699 -22.666 -8 -27.999s-14.666 -8 -27.999 -8h-24c-13.333 0 -22.666 2.66699 -27.999 8s-8 14.666 -8 27.999v53
c0 13.333 2.66699 22.5 8 27.5s14.666 7.5 27.999 7.5z" />
    <glyph glyph-name="at" unicode="@" horiz-adv-x="723" 
d="M354 588l145 0.00390625c50.667 0 89 -11.5 115 -34.5s39 -60.5 39 -112.5v-309h-72l-10 75c-20.667 -21.333 -48.5 -40.5 -83.5 -57.5s-71.167 -25.5 -108.5 -25.5c-40 0 -72 10.5 -96 31.5s-36 51.167 -36 90.5v50c0 33.333 9.66699 59 29 77s48 27 86 27h200v38
c0 26.667 -5.83301 45 -17.5 55s-33.167 15 -64.5 15h-125c-32.667 0 -57.334 -0.5 -74.001 -1.5s-33.5 -4.33301 -50.5 -10s-28.833 -13 -35.5 -22s-13 -23.333 -19 -43s-9.66699 -41.834 -11 -66.501s-2 -57.334 -2 -98.001c0 -32 0.333008 -58.5 1 -79.5
s2.83398 -41 6.50098 -60s7.16699 -33.667 10.5 -44s10 -20 20 -29s19.167 -15.333 27.5 -19s22 -6.83398 41 -9.50098s36.333 -4.16699 52 -4.5s38.5 -0.5 68.5 -0.5h261v-72c-103.333 -6 -190 -9 -260 -9c-51.333 -0.666992 -92.666 0.166016 -123.999 2.49902
s-60 8.16602 -86 17.499s-45.333 20.5 -58 33.5s-23.334 33 -32.001 60s-14.167 56.333 -16.5 88s-3.5 73.5 -3.5 125.5c0 50.667 1 91.334 3 122.001s6.83301 59.167 14.5 85.5s17.167 46 28.5 59s28.5 24 51.5 33s48.333 14.833 76 17.5s64.167 4 109.5 4zM562 341.004
l-166 -3.99902c-22.667 -0.666992 -38.167 -4.83398 -46.5 -12.501s-12.5 -21.167 -12.5 -40.5v-21c0 -41.333 20.333 -62 61 -62c28 0 57.167 5.5 87.5 16.5s55.833 26.167 76.5 45.5v78z" />
    <glyph glyph-name="A" unicode="A" horiz-adv-x="626" 
d="M450 208h-274.999l-64 -208h-102l216 663c5.33301 18 17.666 27 36.999 27h102c20 0 32 -9 36 -27l217 -663h-103zM424.001 295l-81 262c-2 6 -4.83301 15.333 -8.5 28s-6.5 22 -8.5 28h-27l-16 -56l-81 -262h222z" />
    <glyph glyph-name="B" unicode="B" horiz-adv-x="622" 
d="M428 360l0.000976562 -4.00195c50 -4.66699 85.5 -22.167 106.5 -52.5s31.5 -74.166 31.5 -131.499c0 -69.333 -16.5 -116.666 -49.5 -141.999s-90.5 -38 -172.5 -38c-112.667 0 -199.334 2.66699 -260.001 8v690c54 5.33301 130.667 8 230 8
c86.667 0 146.834 -12.5 180.501 -37.5s50.5 -72.5 50.5 -142.5c0 -50 -9.33301 -87.833 -28 -113.5s-48.334 -40.5 -89.001 -44.5zM182.001 395.998h140c48 0 81.167 7.5 99.5 22.5s27.5 44.167 27.5 87.5c0 42.667 -10 71.167 -30 85.5s-56.667 21.5 -110 21.5h-127v-217z
M182.001 77.998l147 -1c52.667 0 88.5 7.5 107.5 22.5s28.5 44.833 28.5 89.5c0 50 -10.167 84 -30.5 102s-57.5 27.333 -111.5 28h-141v-241z" />
    <glyph glyph-name="C" unicode="C" 
d="M527 88l9.99805 -75.998c-55.333 -16 -123.666 -24 -204.999 -24c-100.667 0 -171.334 26.667 -212.001 80s-61 145.666 -61 276.999s20.333 223.666 61 276.999s111.334 80 212.001 80c72 0 135.667 -6.66699 191 -20l-10 -77c-53.333 5.33301 -113.666 8 -180.999 8
c-63.333 0 -107.166 -19.333 -131.499 -58s-36.5 -108.667 -36.5 -210s12.167 -171.333 36.5 -210s68.166 -58 131.499 -58c84.667 0 149.667 3.66699 195 11z" />
    <glyph glyph-name="D" unicode="D" horiz-adv-x="665" 
d="M84 0v689.998c87.333 6 170.333 9 249 9c101.333 0 172.166 -25.667 212.499 -77s60.5 -143.666 60.5 -276.999s-20.167 -225.666 -60.5 -276.999s-111.166 -77 -212.499 -77c-78.667 0 -161.667 3 -249 9zM184 610.998l-0.000976562 -530.002
c42.667 -2 92.334 -3 149.001 -3c62.667 0 106.167 19.333 130.5 58s36.5 108.334 36.5 209.001s-12.167 170.334 -36.5 209.001s-67.833 58 -130.5 58c-20 0 -46.5 -0.166992 -79.5 -0.5s-56.167 -0.5 -69.5 -0.5z" />
    <glyph glyph-name="E" unicode="E" horiz-adv-x="562" 
d="M508 83l5 -77c-60.667 -5.33301 -159.334 -8 -296.001 -8c-42.667 0 -76.334 11.167 -101.001 33.5s-37.334 52.5 -38.001 90.5v446c0.666992 38 13.334 68.167 38.001 90.5s58.334 33.5 101.001 33.5c136.667 0 235.334 -2.66699 296.001 -8l-5 -78h-274
c-20 0 -34.167 -4.83301 -42.5 -14.5s-12.5 -26.167 -12.5 -49.5v-138h291v-81h-291v-176c0 -23.333 4.16699 -39.833 12.5 -49.5s22.5 -14.5 42.5 -14.5h274z" />
    <glyph glyph-name="F" unicode="F" horiz-adv-x="540" 
d="M502 606l-256 -0.000976562c-23.333 0 -39.833 -4.83301 -49.5 -14.5s-14.5 -26.167 -14.5 -49.5v-149h282v-81h-282v-312h-100v563c0 40.667 12.5 72.334 37.5 95.001s58.833 34 101.5 34c132 0 227.333 -3 286 -9z" />
    <glyph glyph-name="G" unicode="G" horiz-adv-x="629" 
d="M564 398l0.000976562 -397.999h-74l-10 70c-58 -55.333 -126.333 -83 -205 -83c-76 0 -131 29 -165 87s-51 149.333 -51 274c0 92.667 9.66699 164.5 29 215.5s49.666 87 90.999 108s99.333 31.5 174 31.5c72 0 136 -7 192 -21l-10 -76c-56 5.33301 -114.667 8 -176 8
c-31.333 0 -56.666 -1.83301 -75.999 -5.5s-37.333 -10.834 -54 -21.501s-29.167 -26.334 -37.5 -47.001s-14.833 -47 -19.5 -79s-7 -72 -7 -120c0 -99.333 10.167 -168.666 30.5 -207.999s56.166 -59 107.499 -59c48.667 0 103 20.333 163 61v263h98z" />
    <glyph glyph-name="H" unicode="H" horiz-adv-x="670" 
d="M586 690v-690h-100v325h-302v-325h-100v690h100v-279h302v279h100z" />
    <glyph glyph-name="I" unicode="I" horiz-adv-x="268" 
d="M184 0h-100v690h100v-690z" />
    <glyph glyph-name="J" unicode="J" horiz-adv-x="343" 
d="M262 690v-539.001c0 -52.667 -11.667 -92.667 -35 -120s-57 -40.666 -101 -39.999c-39.333 0 -72 4.33301 -98 13l11 72h49c49.333 0 74 23.333 74 70v544h100z" />
    <glyph glyph-name="K" unicode="K" horiz-adv-x="597" 
d="M255 319h-78c4.66699 -28 7 -51.667 7 -71v-248h-100v690h100v-212c0 -28.667 -2.33301 -54.667 -7 -78h78l203 290h109l-195 -282c-10.667 -15.333 -24.667 -31.333 -42 -48v-3c18.667 -16 34.667 -33.333 48 -52l202 -305h-111z" />
    <glyph glyph-name="L" unicode="L" horiz-adv-x="515" 
d="M182 690l0.00195312 -542c0 -23.333 4.66699 -39.833 14 -49.5s25.666 -14.5 48.999 -14.5h245l5 -77c-64.667 -6 -153.334 -9 -266.001 -9c-98 0 -147 45.333 -147 136v556h100z" />
    <glyph glyph-name="M" unicode="M" horiz-adv-x="881" 
d="M633 690l108.999 0.000976562c26 0 39.667 -13.667 41 -41l28 -649h-100l-24 607h-20l-140 -491c-6 -22.667 -20.333 -34 -43 -34h-87c-23.333 0 -38 11.333 -44 34l-141 491h-19l-23 -607h-99l26 649c1.33301 27.333 15 41 41 41h111c20.667 0 34.667 -11.333 42 -34
l117 -404c6.66699 -24 14.334 -55 23.001 -93h18c8 35.333 16 66.666 24 93.999l116 403c7.33301 22.667 22 34 44 34z" />
    <glyph glyph-name="N" unicode="N" horiz-adv-x="708" 
d="M624 690l-0.000976562 -651c0 -26 -12.333 -39 -37 -39h-95c-20 -0 -34.333 10.333 -43 31l-215 470c-24 52 -37.667 84 -41 96h-14c3.33301 -26.667 5 -58.667 5 -96v-501h-100v651c0 26 12.667 39 38 39h92c19.333 0 34 -10.333 44 -31l209 -458
c2.66699 -6 7.33398 -15.833 14.001 -29.5l18.5 -39l15.5 -34.5h15c-3.33301 40 -5 75.667 -5 107v485h99z" />
    <glyph glyph-name="O" unicode="O" horiz-adv-x="669" 
d="M334 703c102.667 0 174.334 -26 215.001 -78s61 -145.333 61 -280s-20.333 -228 -61 -280s-112.334 -78 -215.001 -78c-102 0 -173.333 26 -214 78s-61 145.333 -61 280s20.333 228 61 280s112 78 214 78zM334 614c-64.667 0 -109.167 -19.333 -133.5 -58
s-36.5 -109 -36.5 -211s12.167 -172.333 36.5 -211s68.833 -58 133.5 -58s109.334 19.333 134.001 58s37 109 37 211s-12.333 172.333 -37 211s-69.334 58 -134.001 58z" />
    <glyph glyph-name="P" unicode="P" horiz-adv-x="592" 
d="M84 0v690.001c56.667 6 136.667 9 240 9c86 0 145.167 -15.333 177.5 -46s48.5 -88 48.5 -172c0 -84.667 -15.5 -142.334 -46.5 -173.001s-86.833 -46 -167.5 -46c-50 0 -100.667 3 -152 9v-271h-100zM184 348.001h138c48.667 0.666992 82 10 100 28s27 53 27 105
s-9 87 -27 105s-51.333 27 -100 27c-66.667 0 -112.667 -0.333008 -138 -1v-264z" />
    <glyph glyph-name="Q" unicode="Q" horiz-adv-x="671" 
d="M335 703c102.667 0 174.334 -26 215.001 -78s61 -145.333 61 -280s-20.333 -228 -61 -280s-112.334 -78 -215.001 -78c-102 0 -173.5 26 -214.5 78s-61.5 145.333 -61.5 280s20.5 228 61.5 280s112.5 78 214.5 78zM335 614c-64.667 0 -109.167 -19.333 -133.5 -58
s-36.5 -109 -36.5 -211s12.167 -172.333 36.5 -211s68.833 -58 133.5 -58s109.334 19.333 134.001 58s37 109 37 211s-12.333 172.333 -37 211s-69.334 58 -134.001 58zM266 -102l26.999 61.001c79.333 -30.667 170.333 -53.334 273 -68.001l-32 -100
c-85.333 18 -174.666 53.667 -267.999 107z" />
    <glyph glyph-name="R" unicode="R" horiz-adv-x="620" 
d="M578 0l-106.999 -0.000976562l-59 215c-14.667 46 -43.667 69 -87 69l-142 1v-285h-99v690c56.667 6 137 9 241 9c83.333 0 142.166 -14.333 176.499 -43s51.5 -81 51.5 -157c0 -55.333 -9.83301 -97 -29.5 -125s-52.167 -45 -97.5 -51v-5
c44.667 -13.333 73.667 -46.666 87 -99.999zM183.001 369.999l140 -0.000976562c49.333 0.666992 83.166 9.5 101.499 26.5s27.5 49.167 27.5 96.5c0 46.667 -9.16699 78.334 -27.5 95.001s-52.166 25 -101.499 25c-68 0 -114.667 -0.333008 -140 -1v-242z" />
    <glyph glyph-name="S" unicode="S" horiz-adv-x="563" 
d="M330 285l-140 38.999c-49.333 13.333 -84.5 35.833 -105.5 67.5s-31.5 74.5 -31.5 128.5c0 39.333 4.16699 71.166 12.5 95.499s22.833 42.833 43.5 55.5s43.667 21 69 25s59.333 6 102 6c81.333 0 150.666 -7 207.999 -21l-6 -73c-96.667 3.33301 -162.667 5 -198 5
c-52 0 -86.667 -5.16699 -104 -15.5s-26 -37.166 -26 -80.499c0 -34 6.16699 -58 18.5 -72s33.833 -25 64.5 -33l137 -38c51.333 -14 87.5 -36.667 108.5 -68s31.5 -74 31.5 -128c0 -76 -17.333 -126.667 -52 -152s-95.667 -38 -183 -38
c-73.333 0 -145.666 6.66699 -216.999 20l7 74c104 -3.33301 174.667 -5 212 -5c52 0.666992 86.833 7.33398 104.5 20.001s26.5 40 26.5 82c0 35.333 -6 59.833 -18 73.5s-33.333 24.5 -64 32.5z" />
    <glyph glyph-name="T" unicode="T" horiz-adv-x="584" 
d="M561 601h-219v-601h-101v601h-217v89h537v-89z" />
    <glyph glyph-name="U" unicode="U" horiz-adv-x="666" 
d="M587 690v-424c0 -101.333 -18.833 -173.166 -56.5 -215.499s-102.167 -63.5 -193.5 -63.5c-94 0 -160.5 21.167 -199.5 63.5s-58.5 114.166 -58.5 215.499v424h100v-424c0 -70.667 11.333 -120 34 -148s62.667 -42 120 -42c56.667 0 96.5 14 119.5 42
s34.5 77.333 34.5 148v424h100z" />
    <glyph glyph-name="V" unicode="V" horiz-adv-x="612" 
d="M597 690l-203.999 -661.999c-6 -18.667 -18.667 -28 -38 -28h-98c-19.333 0 -32 9.33301 -38 28l-204 662h103l156 -537l18.999 -76h27c4 19.333 10.333 44.666 19 75.999l155 537h103z" />
    <glyph glyph-name="W" unicode="W" horiz-adv-x="951" 
d="M921 690l-131.999 -661c-6 -19.333 -19 -29 -39 -29h-111c-21.333 0 -34.333 10 -39 30l-100 507c-6.66699 34.667 -11.334 60.667 -14.001 78h-21l-15 -78l-99 -507c-1.33301 -8.66699 -5.83301 -15.834 -13.5 -21.501s-16.167 -8.5 -25.5 -8.5h-112
c-20.667 0 -33.334 9.66699 -38.001 29l-132 661h106l99 -526c2 -11.333 6 -40.666 12 -87.999h23c3.33301 28.667 8.33301 58 15 88l99 493c4.66699 22 17.334 33 38.001 33h107c9.33301 0 17.5 -3.16699 24.5 -9.5s11.5 -14.166 13.5 -23.499l98 -494
c5.33301 -26.667 10.333 -55.667 15 -87h23l6 43c2.66699 19.333 5 33.666 7 42.999l99 528h106z" />
    <glyph glyph-name="X" unicode="X" horiz-adv-x="615" 
d="M319 320h-24l-164 -320h-109l190 357l-177 333h108l151 -294h26l151 294h108l-177 -333l190 -357h-109z" />
    <glyph glyph-name="Y" unicode="Y" horiz-adv-x="574" 
d="M337 239v-238.999h-100v240l-228 450h106l139 -283c5.33301 -11.333 15.333 -38 30 -80h7c14 41.333 24 67.666 30 78.999l139 284h104z" />
    <glyph glyph-name="Z" unicode="Z" horiz-adv-x="568" 
d="M521 85v-85h-473v85l357 520h-352v85h461v-85l-356 -520h363z" />
    <glyph glyph-name="bracketleft" unicode="[" horiz-adv-x="332" 
d="M292 705h-97c-10 0 -15 -5.33301 -15 -16v-775c0 -10.667 5 -16 15 -16h97v-63h-145c-38.667 0 -58 19.333 -58 58v817c0 17.333 5.5 31.333 16.5 42s24.833 16 41.5 16h145v-63z" />
    <glyph glyph-name="backslash" unicode="\" horiz-adv-x="523" 
d="M498 -67h-80l-393 757h80z" />
    <glyph glyph-name="bracketright" unicode="]" horiz-adv-x="332" 
d="M40 768h145c16.667 0 30.5 -5.33301 41.5 -16s16.5 -24.667 16.5 -42v-817c0 -16.667 -5.5 -30.5 -16.5 -41.5s-24.833 -16.5 -41.5 -16.5h-145v63h96c10.667 0 16 5.33301 16 16v775c0 10.667 -5.33301 16 -16 16h-96v63z" />
    <glyph glyph-name="asciicircum" unicode="^" horiz-adv-x="433" 
d="M403 392l-39 -24l-143 173h-8l-144 -173l-39 24l152 213h70z" />
    <glyph glyph-name="underscore" unicode="_" horiz-adv-x="576" 
d="M507 -73h-438v73h438v-73z" />
    <glyph glyph-name="grave" unicode="`" horiz-adv-x="322" 
d="M256 580l-32 -45l-199 117l54 74z" />
    <glyph glyph-name="a" unicode="a" horiz-adv-x="551" 
d="M79 407l-9.00098 71c88 15.333 167 23 237 23c59.333 0 103 -12 131 -36s42 -65.667 42 -125v-340h-76l-11 77c-56 -57.333 -121 -86 -195 -86c-45.333 0 -81.5 12 -108.5 36s-40.5 58 -40.5 102v51c0 38.667 12 68.667 36 90s58 32 102 32h196v38
c-0.666992 30 -7.66699 50.667 -21 62s-38.666 17 -75.999 17c-36.667 0 -105.667 -4 -207 -12zM146.999 167v-26c0 -24 5.66699 -41.333 17 -52s29.333 -16 54 -16c58 0 113 22.667 165 68v88h-178c-21.333 -0.666992 -36.333 -6.16699 -45 -16.5s-13 -25.5 -13 -45.5z" />
    <glyph glyph-name="b" unicode="b" horiz-adv-x="573" 
d="M170 700l-0.000976562 -175.001c0 -44.667 -3.33301 -81.667 -10 -111c54.667 58 116 87 184 87c60.667 0 105.334 -20 134.001 -60s43 -105 43 -195c0 -87.333 -16.167 -152.166 -48.5 -194.499s-89.5 -63.5 -171.5 -63.5c-87.333 0 -163.333 11.667 -228 35v677h97z
M169.999 348.999l0.000976562 -264.999c40 -10 83 -15 129 -15c44.667 0.666992 76 14 94 40s27.333 71.667 28 137c-0.666992 65.333 -8.33398 110.166 -23.001 134.499s-44 36.5 -88 36.5c-22.667 0 -44.167 -5.33301 -64.5 -16s-45.5 -28 -75.5 -52z" />
    <glyph glyph-name="c" unicode="c" horiz-adv-x="491" 
d="M446 80l9 -65c-49.333 -18 -106 -27 -170 -27c-85.333 0 -145.5 19.167 -180.5 57.5s-52.5 104.5 -52.5 198.5s17.5 160.333 52.5 199s95.167 58 180.5 58c65.333 0 119.333 -8.33301 162 -25l-13 -62c-50 3.33301 -94 5 -132 5c-56 0 -94.833 -12.333 -116.5 -37
s-32.5 -70.667 -32.5 -138s10.833 -113.333 32.5 -138s60.5 -37 116.5 -37c54.667 0 102.667 3.66699 144 11z" />
    <glyph glyph-name="d" unicode="d" horiz-adv-x="575" 
d="M424 0l-8 67.001c-62.667 -52.667 -126.667 -79 -192 -79c-60 0 -103.5 21.5 -130.5 64.5s-40.5 107.5 -40.5 193.5c0 93.333 15 159.166 45 197.499s77 57.5 141 57.5c61.333 0 117.333 -14.667 168 -44c-2.66699 28.667 -4 60.667 -4 96v147h97v-700h-76zM403 133.001
l0.000976562 260c-60.667 16 -107.334 24 -140.001 24c-41.333 0 -70 -11.5 -86 -34.5s-24 -68.167 -24 -135.5s7.83301 -113.333 23.5 -138s42.5 -37 80.5 -37c24.667 0 46.5 4.33301 65.5 13s45.833 24.667 80.5 48z" />
    <glyph glyph-name="e" unicode="e" horiz-adv-x="539" 
d="M373 197h-219.001c4.66699 -50.667 17.834 -84.667 39.501 -102s57.167 -26 106.5 -26c43.333 0 100.333 4 171 12l9 -64c-44 -19.333 -108.333 -29 -193 -29c-85.333 0 -145.833 19.333 -181.5 58s-53.5 105 -53.5 199c0 94.667 17.5 161 52.5 199s92.833 57 173.5 57
c74.667 0 129 -13.667 163 -41s51 -68.333 51 -123c0 -93.333 -39.667 -140 -119 -140zM152.999 272l193.999 -0.000976562c32 0 48 21.667 48 65c-0.666992 30 -9.16699 51.167 -25.5 63.5s-45.166 18.5 -86.499 18.5c-48 0 -81.333 -10.167 -100 -30.5
s-28.667 -59.166 -30 -116.499z" />
    <glyph glyph-name="f" unicode="f" horiz-adv-x="385" 
d="M393 638l-99 0.000976562c-30 0 -51.167 -5.66699 -63.5 -17s-18.5 -31 -18.5 -59v-74h151v-75h-151v-413h-97v413h-88v70l88 5v85c0 47.333 11.333 83.166 34 107.499s59.667 36.5 111 36.5c62.667 0 109.667 -2.33301 141 -7z" />
    <glyph glyph-name="g" unicode="g" horiz-adv-x="561" 
d="M535 436l-68.999 -7.00098c11.333 -22.667 17 -51 17 -85c0 -55.333 -15.833 -95.166 -47.5 -119.499s-86.5 -36.5 -164.5 -36.5c-36 0 -68.333 2.66699 -97 8c-10.667 -14 -13.5 -29.333 -8.5 -46s18.167 -26.667 39.5 -30l180 -28c46 -6.66699 78.833 -21 98.5 -43
s29.5 -54 29.5 -96c0 -58 -17 -98 -51 -120s-95.667 -33 -185 -33c-90 0 -152.333 10.833 -187 32.5s-52 60.834 -52 117.501c0 27.333 6 49 18 65s32 32 60 48c-23.333 19.333 -33.833 45.166 -31.5 77.499s15.166 56.833 38.499 73.5c-42.667 22 -64 65 -64 129
c0 57.333 15.667 98 47 122s86.666 36 165.999 36c48.667 0 87.334 -4.33301 116.001 -13h152zM271.001 260.999c45.333 0 77 6.16699 95 18.5s27 33.833 27 64.5c0 31.333 -8.83301 53 -26.5 65s-49.5 18 -95.5 18c-46.667 0 -79 -6 -97 -18s-27 -33.667 -27 -65
c0 -30 9.16699 -51.333 27.5 -64s50.5 -19 96.5 -19zM335.001 20.999l-156.999 21c-30.667 -25.333 -46 -53.333 -46 -84c0 -32 9.16699 -52.667 27.5 -62s57.166 -14 116.499 -14c57.333 0 95.333 4.83301 114 14.5s28 30.167 28 61.5c0 22.667 -5 37.5 -15 44.5
s-32.667 13.167 -68 18.5z" />
    <glyph glyph-name="h" unicode="h" horiz-adv-x="583" 
d="M173 700l-0.00195312 -189.002c0 -33.333 -2.33301 -65 -7 -95c77.333 56.667 148.333 85 213 85c42.667 0 75.334 -11.5 98.001 -34.5s34 -56.5 34 -100.5v-366h-97v338c0 30.667 -4.5 51.834 -13.5 63.501s-25.167 17.5 -48.5 17.5
c-25.333 0 -51.166 -5.66699 -77.499 -17s-60.5 -29.666 -102.5 -54.999v-347h-97v700h98z" />
    <glyph glyph-name="i" unicode="i" horiz-adv-x="254" 
d="M104 696h46c18.667 0 28 -9.33301 28 -28v-56c0 -19.333 -9.33301 -29 -28 -29h-46c-18.667 0 -28 9.66699 -28 29v56c0 18.667 9.33301 28 28 28zM175 0h-96v488h96v-488z" />
    <glyph glyph-name="j" unicode="j" horiz-adv-x="256" 
d="M106 696h46c18.667 0 28 -9.33301 28 -28v-56c0 -19.333 -9.33301 -29 -28 -29h-46c-19.333 0 -29 9.66699 -29 29v56c0 18.667 9.66699 28 29 28zM177 488l0.000976562 -493c0 -40 -8.83301 -77.333 -26.5 -112s-41.834 -63 -72.501 -85l-54 42
c37.333 47.333 56 99 56 155v493h97z" />
    <glyph glyph-name="k" unicode="k" horiz-adv-x="517" 
d="M228 240l-61 0.000976562c3.33301 -28.667 5 -54 5 -76v-164h-97v700h98v-307c0 -28.667 -2 -56.334 -6 -83.001h60l147 178h112l-147 -177c-8.66699 -12 -20.667 -24 -36 -36v-2c12.667 -10 24.667 -24 36 -42l163 -231h-112z" />
    <glyph glyph-name="l" unicode="l" horiz-adv-x="302" 
d="M173 700v-559c-0.666992 -20.667 4.33301 -36.167 15 -46.5s26.667 -15.5 48 -15.5h45l11 -75c-19.333 -8.66699 -50.333 -13 -93 -13c-38 0 -68 11.167 -90 33.5s-33 53.833 -33 94.5v581h97z" />
    <glyph glyph-name="m" unicode="m" horiz-adv-x="875" 
d="M155 488l5.00098 -75c68 58.667 133.333 88 196 88c67.333 0 108.666 -28.333 123.999 -85c64.667 56.667 128.667 85 192 85c42.667 0 75.167 -11.5 97.5 -34.5s33.5 -56.5 33.5 -100.5v-366h-95v338c-0.666992 28.667 -6.33398 49.334 -17.001 62.001
s-28.667 19 -54 19c-22 0 -43 -5 -63 -15s-49.333 -29 -88 -57v-347h-93v338c0 29.333 -5.66699 50.166 -17 62.499s-29.333 18.5 -54 18.5c-21.333 0 -42.166 -5 -62.499 -15s-49.833 -28.667 -88.5 -56v-348h-96v488h80z" />
    <glyph glyph-name="n" unicode="n" horiz-adv-x="583" 
d="M157 488l6 -75.001c76.667 58.667 148.667 88 216 88c43.333 0 76.166 -11.5 98.499 -34.5s33.5 -56.5 33.5 -100.5v-366h-97v338c0 30.667 -4.5 51.834 -13.5 63.501s-25.167 17.5 -48.5 17.5c-25.333 0 -50.666 -5.66699 -75.999 -17s-60 -30 -104 -56v-346h-97v488h82
z" />
    <glyph glyph-name="o" unicode="o" horiz-adv-x="570" 
d="M285 501c84.667 0 144.667 -19.667 180 -59s53 -105.666 53 -198.999s-17.667 -159.333 -53 -198s-95.333 -58 -180 -58s-144.667 19.333 -180 58s-53 104.667 -53 198s17.667 159.666 53 198.999s95.333 59 180 59zM285 419c-50.667 0 -85.334 -12.333 -104.001 -37
s-28 -71 -28 -139c0 -67.333 9.33301 -113.333 28 -138s53.334 -37 104.001 -37s85.334 12.333 104.001 37s28 70.667 28 138c0 68 -9.33301 114.333 -28 139s-53.334 37 -104.001 37z" />
    <glyph glyph-name="p" unicode="p" horiz-adv-x="584" 
d="M155 488l7.00098 -75c25.333 26.667 56.666 48 93.999 64s73.666 24 108.999 24c110.667 0 166 -86.667 166 -260c0 -92 -15 -157.167 -45 -195.5s-77 -57.5 -141 -57.5c-65.333 0 -124 16.333 -176 49c2.66699 -28 3.33398 -61 2.00098 -99v-137h-96v687h80z
M171.001 346l0.000976562 -248c67.333 -17.333 116.666 -26 147.999 -26c42 0 71.167 11.5 87.5 34.5s24.5 68.167 24.5 135.5c0 64.667 -7.5 110 -22.5 136s-40.5 39 -76.5 39c-42 0 -95.667 -23.667 -161 -71z" />
    <glyph glyph-name="q" unicode="q" 
d="M499 -199h-96.999v160c0 42.667 2.66699 76.334 8 101.001c-60.667 -50 -124 -75 -190 -75c-56.667 0 -98.834 20.5 -126.501 61.5s-41.5 105.833 -41.5 194.5c0 87.333 16.333 152.166 49 194.499s90.667 63.5 174 63.5c85.333 0 160 -12 224 -36v-664zM403.001 133
l0.000976562 271c-41.333 11.333 -84.333 16.333 -129 15c-46 -1.33301 -77.833 -14.5 -95.5 -39.5s-26.5 -72.833 -26.5 -143.5c0 -58.667 7 -100.667 21 -126s40.667 -38 80 -38c25.333 0 48.666 4.83301 69.999 14.5s48 25.167 80 46.5z" />
    <glyph glyph-name="r" unicode="r" horiz-adv-x="404" 
d="M388 501l-11 -91h-30c-38 0 -96.333 -18.667 -175 -56v-354h-97v488h75l10 -74c72.667 58 141 87 205 87h23z" />
    <glyph glyph-name="s" unicode="s" horiz-adv-x="509" 
d="M295 192l-135.999 34.001c-40.667 10.667 -69.334 26.5 -86.001 47.5s-25 51.5 -25 91.5c0 54 14.5 90.333 43.5 109s78.833 27.667 149.5 27c78 -1.33301 147.333 -7 208 -17l-8 -70c-102 3.33301 -163.667 5 -185 5c-47.333 0 -78.166 -2.83301 -92.499 -8.5
s-21.5 -20.834 -21.5 -45.501c0 -11.333 1 -20.5 3 -27.5s7.16699 -12.833 15.5 -17.5s14.833 -7.83398 19.5 -9.50098s15 -4.83398 31 -9.50098l138 -34c41.333 -10.667 70.666 -25.834 87.999 -45.501s26 -50.167 26 -91.5c0 -57.333 -15.833 -95.166 -47.5 -113.499
s-86.5 -27.5 -164.5 -27.5c-68 0 -132.667 4.66699 -194 14l7 72c37.333 -3.33301 93 -5 167 -5c54.667 0 91.334 3.83301 110.001 11.5s28 23.834 28 48.501c0 10.667 -1.33301 19.5 -4 26.5s-8.33398 12.833 -17.001 17.5s-15.5 7.83398 -20.5 9.50098
s-15.833 4.5 -32.5 8.5z" />
    <glyph glyph-name="t" unicode="t" horiz-adv-x="388" 
d="M345 79l11 -75c-30.667 -8.66699 -69 -13 -115 -13c-41.333 0 -72.833 11.833 -94.5 35.5s-32.5 57.5 -32.5 101.5v285h-89v70l89 4v144h96v-143h151v-75h-151v-272c0 -22.667 4.83301 -38.667 14.5 -48s26.167 -14 49.5 -14h71z" />
    <glyph glyph-name="u" unicode="u" 
d="M497 488l-0.000976562 -488h-77l-7 67c-71.333 -53.333 -140.666 -80 -207.999 -80c-88.667 0 -133 45 -133 135v366h97v-338c-0.666992 -30 4.33301 -50.833 15 -62.5s29 -17.5 55 -17.5c38 0 92 21.667 162 65v353h96z" />
    <glyph glyph-name="v" unicode="v" horiz-adv-x="534" 
d="M518 488l-174 -464c-6.66699 -16 -18 -24 -34 -24h-87c-16.667 0 -27.667 8 -33 24l-174 464h103l114 -336l27 -84h13l29 84l113 336h103z" />
    <glyph glyph-name="w" unicode="w" horiz-adv-x="826" 
d="M803 488l-136.999 -461c-5.33301 -18 -17.666 -27 -36.999 -27h-87c-20 -0 -32.333 10.333 -37 31l-71 321c-1.33301 6 -2.83301 14.167 -4.5 24.5s-3.33398 19.833 -5.00098 28.5s-3.5 17 -5.5 25h-12l-16 -78l-70 -321c-4.66699 -20.667 -17.334 -31 -38.001 -31h-86
c-20 0 -32 9 -36 27l-138 461h100l94 -352c8 -33.333 13 -58.333 15 -75h13l17 75l72 322c4.66699 20 16.667 30 36 30h87c19.333 0 31.333 -10.333 36 -31l71 -321c1.33301 -6.66699 7 -31.667 17 -75h13c4.66699 30 9.66699 55 15 75l94 352h100z" />
    <glyph glyph-name="x" unicode="x" horiz-adv-x="533" 
d="M276 216h-19l-132 -216h-105l160 252l-148 236h104l120 -197h21l119 197h104l-147 -236l160 -252h-105z" />
    <glyph glyph-name="y" unicode="y" horiz-adv-x="533" 
d="M516 488l-189.001 -511c-45.333 -120 -120 -180.667 -224 -182l-10 64c38 11.333 68 27 90 47s39.667 45.333 53 76l7 18h-20c-18.667 -0 -30 8.33301 -34 25l-173 463h104l121 -355c8 -20.667 13.667 -40.667 17 -60h14c6.66699 18 13.334 38 20.001 60l120 355h104z
" />
    <glyph glyph-name="z" unicode="z" horiz-adv-x="512" 
d="M464 79v-79h-416v79l305 330h-301v79h408v-79l-304 -330h308z" />
    <glyph glyph-name="braceleft" unicode="{" horiz-adv-x="323" 
d="M281 768l0.000976562 -60.998c-33.333 0 -56.166 -6 -68.499 -18s-18.5 -33 -18.5 -63v-173c0.666992 -41.333 -5.33301 -70.833 -18 -88.5s-37.334 -29.834 -74.001 -36.501c37.333 -11.333 62.5 -25.5 75.5 -42.5s19.833 -43.167 20.5 -78.5v-231
c0 -30 6.16699 -50.833 18.5 -62.5s35.166 -17.5 68.499 -17.5v-61c-120 -10 -180 34.667 -180 134v253c0 12.667 -0.833008 22.667 -2.5 30s-5.83398 13.666 -12.501 18.999s-12.167 9 -16.5 11s-14.166 6 -29.499 12v68c26 8 42 15.5 48 22.5s9 24.833 9 53.5v196
c0 99.333 60 144 180 134z" />
    <glyph glyph-name="bar" unicode="|" horiz-adv-x="249" 
d="M159 -169h-70v950h70v-950z" />
    <glyph glyph-name="braceright" unicode="}" horiz-adv-x="324" 
d="M43 707l0.000976562 60.999c120 10 180 -34.667 180 -134v-196c0 -28.667 3 -46.5 9 -53.5s22 -14.5 48 -22.5v-68c-27.333 -10.667 -44 -19.667 -50 -27c-7.33301 -8.66699 -11 -23.667 -11 -45v-253c0 -99.333 -60 -144 -180 -134v61
c33.333 0 56.166 5.83301 68.499 17.5s18.5 32.5 18.5 62.5v231c0.666992 35.333 7.5 61.5 20.5 78.5s38.167 31.167 75.5 42.5c-36.667 6.66699 -61.334 18.834 -74.001 36.501s-18.667 47.167 -18 88.5v173c0 30 -6.16699 51 -18.5 63s-35.166 18 -68.499 18z" />
    <glyph glyph-name="asciitilde" unicode="~" horiz-adv-x="523" 
d="M124 225h-49.001c-5.33301 42 -0.5 73.833 14.5 95.5s35.833 31.834 62.5 30.501c24 -1.33301 60 -10.666 108 -27.999s80.333 -27 97 -29s28 1 34 9s9 22.333 9 43h50c4.66699 -40.667 -0.333008 -71.834 -15 -93.501s-35.667 -31.5 -63 -29.5
c-27.333 1.33301 -64.666 10.666 -111.999 27.999s-78.666 26.666 -93.999 27.999c-16.667 2 -27.834 -1.16699 -33.501 -9.5s-8.5 -23.166 -8.5 -44.499z" />
    <glyph glyph-name="uni00A0" unicode="&#xa0;" horiz-adv-x="222" 
 />
    <glyph glyph-name="exclamdown" unicode="&#xa1;" horiz-adv-x="261" 
d="M119 496h23.998c12.667 0 21.667 -2.66699 27 -8s8 -14.666 8 -27.999v-54c0 -13.333 -2.66699 -22.5 -8 -27.5s-14.333 -7.5 -27 -7.5h-24c-13.333 0 -22.666 2.66699 -27.999 8s-8 14.333 -8 27v54c0 13.333 2.83301 22.666 8.5 27.999s14.834 8 27.501 8zM178.998 100
v-294h-97v294l10 183h77z" />
    <glyph glyph-name="cent" unicode="&#xa2;" horiz-adv-x="508" 
d="M445 184l9.00098 -64.999c-46.667 -16 -99.334 -24.667 -158.001 -26l-9 -93h-49l9 94c-71.333 4.66699 -121.833 26.5 -151.5 65.5s-44.5 102.167 -44.5 189.5c0 94 17.667 160.167 53 198.5s95.666 57.5 180.999 57.5h8l8 85h50l-8 -87c40 -4.66699 74.333 -12 103 -22
l-12 -65c-28 3.33301 -61 5.66602 -99 6.99902l-30 -349c46.667 0 93.334 3.33301 140.001 10zM255.001 177.001l29.001 346c-51.333 -2 -87 -15.5 -107 -40.5s-30 -69.5 -30 -133.5c0 -58 8.16699 -99.833 24.5 -125.5s44.166 -41.167 83.499 -46.5z" />
    <glyph glyph-name="sterling" unicode="&#xa3;" horiz-adv-x="571" 
d="M521 86l0.000976562 -86h-461v86c57.333 26.667 83 87 77 181l-4 68h-78v56h75l-7 129c-2 38 0.666992 69.333 8 94s20 43.334 38 56.001s38.167 21.167 60.5 25.5s50.833 6.5 85.5 6.5c53.333 0 114.666 -3.33301 183.999 -10l-6 -80c-51.333 2 -110 3 -176 3
c-38.667 0 -65 -6.66699 -79 -20s-19.667 -39 -17 -77l7 -127h205l-3 -56h-198l4 -68c2.66699 -46 -1.5 -82.833 -12.5 -110.5s-30.5 -52.834 -58.5 -75.501c15.333 3.33301 38 5 68 5h288z" />
    <glyph glyph-name="currency" unicode="&#xa4;" horiz-adv-x="592" 
d="M485 120l-73 73.001c-33.333 -26 -72 -39 -116 -39s-83 12.667 -117 38l-71 -71l-45 45l71 71c-24 33.333 -36 71.333 -36 114c0 44.667 13 84 39 118l-71 71l42 42l70 -71c34.667 25.333 74 38 118 38c44.667 0 84 -13 118 -39l72 72l41 -42l-72 -72
c25.333 -34.667 38 -73.667 38 -117c0 -42.667 -13 -81.334 -39 -116.001l74 -73zM296 212.001c37.333 -0.666992 69.5 12.833 96.5 40.5s40.5 60.834 40.5 99.501s-13.5 71.667 -40.5 99s-59.167 41 -96.5 41c-38.667 0 -71.667 -13.667 -99 -41s-41 -60.333 -41 -99
s13.667 -71.834 41 -99.501s60.333 -41.167 99 -40.5z" />
    <glyph glyph-name="yen" unicode="&#xa5;" horiz-adv-x="621" 
d="M397 326l138 -0.000976562v-57h-169l-5 -11v-45h174v-57h-174v-156h-100v156h-170v57h170v45l-6 11h-163l-2 57h135l-192 364h104l138 -270c4.66699 -9.33301 10.667 -23.166 18 -41.499l15 -37.5h7c2 4 6.66699 15.667 14 35l17 44l138 270h104z" />
    <glyph glyph-name="brokenbar" unicode="&#xa6;" horiz-adv-x="251" 
d="M160 381h-70v400h70v-400zM160 -169h-70v400h70v-400z" />
    <glyph glyph-name="section" unicode="&#xa7;" horiz-adv-x="545" 
d="M329 319l-167.998 97c-34.667 20 -60.167 41 -76.5 63s-24.5 52.667 -24.5 92c0 52 16 87 48 105s83 27 153 27c84 -1.33301 156.667 -5.33301 218 -12l-6 -76c-58 4 -119.667 6 -185 6c-22.667 0 -40.167 -0.333008 -52.5 -1s-24.666 -2.5 -36.999 -5.5
s-21.166 -8.16699 -26.499 -15.5s-8.33301 -17.333 -9 -30c-0.666992 -21.333 4.33301 -38.333 15 -51s27 -24.667 49 -36l156 -88c47.333 -25.333 77.166 -57.833 89.499 -97.5s11.166 -86.5 -3.50098 -140.5h-70c3.33301 43.333 0.166016 77 -9.50098 101
s-29.834 44.667 -60.501 62zM76.002 383l70.002 -0.00390625c-3.33301 -44 -0.166016 -77.667 9.50098 -101s30.167 -43.666 61.5 -60.999l168 -96c34 -19.333 59.333 -40.333 76 -63s25 -54 25 -94c0 -28.667 -4.5 -52.167 -13.5 -70.5s-23.167 -31.833 -42.5 -40.5
s-39.833 -14.5 -61.5 -17.5s-49.5 -4.5 -83.5 -4.5c-85.333 1.33301 -158.333 5.33301 -219 12l8 76c62 -4 124 -6.33301 186 -7c22 0 39 0.333008 51 1s24.167 2.83398 36.5 6.50098s21.166 9.33398 26.499 17.001s8 17.834 8 30.501
c1.33301 20.667 -3.33398 37.5 -14.001 50.5s-26.334 25.5 -47.001 37.5l-157 87c-47.333 24.667 -77.333 56.667 -90 96s-12 86.333 2 141z" />
    <glyph glyph-name="dieresis" unicode="&#xa8;" horiz-adv-x="413" 
d="M103 697h32c17.333 0 26 -9 26 -27v-54c0 -18 -8.66699 -27 -26 -27h-32c-17.333 0 -26 9 -26 27v54c0 18 8.66699 27 26 27zM280 697h32c18 0 27 -9 27 -27v-54c0 -18 -9 -27 -27 -27h-32c-17.333 0 -26 9 -26 27v54c0 18 8.66699 27 26 27z" />
    <glyph glyph-name="copyright" unicode="&#xa9;" horiz-adv-x="832" 
d="M416 703c101.333 0 186.666 -33.833 255.999 -101.5s104 -153.167 104 -256.5s-34.667 -188.833 -104 -256.5s-154.666 -101.5 -255.999 -101.5s-186.666 34 -255.999 102s-104 153.333 -104 256s34.667 188 104 256s154.666 102 255.999 102zM416 652
c-85.333 0 -157.833 -29.333 -217.5 -88s-89.5 -131.667 -89.5 -219s29.833 -160.333 89.5 -219s132.167 -88 217.5 -88s157.833 29.333 217.5 88s89.5 131.667 89.5 219s-29.833 160.333 -89.5 219s-132.167 88 -217.5 88zM559 200l7 -55c-40 -10.667 -88.333 -16 -145 -16
c-71.333 0 -121.666 16.333 -150.999 49s-44 89 -44 169s14.667 136.333 44 169s79.666 49 150.999 49c52.667 0 97.667 -4.66699 135 -14l-8 -55c-38 2.66699 -80.667 4 -128 4c-45.333 0 -76.5 -11 -93.5 -33s-25.5 -62 -25.5 -120s8.5 -98 25.5 -120s48.167 -33 93.5 -33
c60 0 106.333 2 139 6z" />
    <glyph glyph-name="ordfeminine" unicode="&#xaa;" horiz-adv-x="441" 
d="M84 540l-8.00098 54.001c68.667 10 127.667 15 177 15c39.333 0 68.833 -8.5 88.5 -25.5s29.5 -45.5 29.5 -85.5v-225h-58l-9 60c-42 -44.667 -89.667 -67 -143 -67c-30 0 -54.167 7.66699 -72.5 23s-27.5 37 -27.5 65v38c0 25.333 8.33301 45.166 25 59.499
s40 21.5 70 21.5h142v25c0 33.333 -20 50 -60 50c-33.333 0 -84.666 -2.66699 -153.999 -8zM131.999 385.001v-15.001c0 -15.333 4.16699 -26.166 12.5 -32.499s21.5 -9.5 39.5 -9.5c36.667 0 74.667 15.333 114 46v58l-119 -9
c-17.333 -0.666992 -29.5 -4.16699 -36.5 -10.5s-10.5 -15.5 -10.5 -27.5z" />
    <glyph glyph-name="guillemotleft" unicode="&#xab;" horiz-adv-x="491" 
d="M254 427l-122 -176l123 -179l-51 -34l-161 202v22l160 198zM440 427l-122 -176l123 -179l-51 -34l-161 202v22l160 198z" />
    <glyph glyph-name="logicalnot" unicode="&#xac;" horiz-adv-x="590" 
d="M513 334v-202h-73v129h-369v73h442z" />
    <glyph glyph-name="softhyphen" unicode="&#xad;" horiz-adv-x="441" 
d="M373 216h-304v74h304v-74z" />
    <glyph glyph-name="registered" unicode="&#xae;" horiz-adv-x="548" 
d="M274 702c61.333 0 113.666 -21.667 156.999 -65s65 -95.666 65 -156.999c0 -62 -21.667 -114.667 -65 -158s-95.666 -65 -156.999 -65c-62 0 -114.667 21.667 -158 65s-65 96 -65 158c0 61.333 21.667 113.666 65 156.999s96 65 158 65zM274 289
c52 0 96.5 18.667 133.5 56s55.5 82.333 55.5 135s-18.5 97.5 -55.5 134.5s-81.5 55.5 -133.5 55.5s-96.5 -18.5 -133.5 -55.5s-55.5 -81.833 -55.5 -134.5s18.5 -97.667 55.5 -135s81.5 -56 133.5 -56zM328 474v-1.99902c19.333 -2.66699 32.333 -15.334 39 -38.001l29 -80
h-47l-26 78c-7.33301 17.333 -20.666 26 -39.999 26h-65v-104h-44v254c23.333 2 59.666 3 108.999 3c37.333 0 63.833 -5.33301 79.5 -16s23.5 -29.667 23.5 -57c0 -38 -19.333 -59.333 -58 -64zM218 490.001h64c22.667 0.666992 38.334 4 47.001 10s12.667 17 12 33
c0.666992 17.333 -3.33301 28.833 -12 34.5s-24.334 8.5 -47.001 8.5h-64v-86z" />
    <glyph glyph-name="macron" unicode="&#xaf;" horiz-adv-x="400" 
d="M341 606h-282v71h282v-71z" />
    <glyph glyph-name="degree" unicode="&#xb0;" horiz-adv-x="359" 
d="M180 703c35.333 0 66 -12.5 92 -37.5s39 -54.833 39 -89.5c0 -35.333 -13 -65.833 -39 -91.5s-56.667 -38.5 -92 -38.5c-36 0 -66.833 12.833 -92.5 38.5s-38.5 56.167 -38.5 91.5c0 34.667 12.833 64.5 38.5 89.5s56.5 37.5 92.5 37.5zM180 645
c-20 0 -36.667 -6.5 -50 -19.5s-20 -29.5 -20 -49.5c0 -20.667 6.66699 -37.667 20 -51s30 -20 50 -20c19.333 0 35.833 6.66699 49.5 20s20.5 30.333 20.5 51c0 20 -6.66699 36.5 -20 49.5s-30 19.5 -50 19.5z" />
    <glyph glyph-name="plusminus" unicode="&#xb1;" horiz-adv-x="586" 
d="M514 397v-72h-185v-131h-73v131h-184v72h184v131h74v-131h184zM72 137h442v-72h-442v72z" />
    <glyph glyph-name="twosuperior" unicode="&#xb2;" horiz-adv-x="434" 
d="M67 710l-4.00293 56.999c50 9.33301 97.333 14 142 14c54.667 0 93.834 -6.5 117.501 -19.5s35.5 -38.833 35.5 -77.5c0 -42 -26.667 -88.667 -80 -140l-122 -119c18.667 2.66699 41 3.33398 67 2.00098h151v-67h-315v42c0 13.333 4 24 12 32l123 119
c52.667 50.667 80 91.667 82 123c0.666992 16.667 -5.16602 27.667 -17.499 33s-31.833 8 -58.5 8c-43.333 0 -87.666 -2.33301 -132.999 -7z" />
    <glyph glyph-name="threesuperior" unicode="&#xb3;" horiz-adv-x="415" 
d="M69 716l-4.00098 54.999c49.333 7.33301 94.666 11 135.999 11c55.333 0 93.833 -7 115.5 -21s32.5 -39 32.5 -75c0 -62.667 -25.333 -97.667 -76 -105v-2c31.333 -4 53.5 -14.5 66.5 -31.5s19.833 -41.167 20.5 -72.5c1.33301 -43.333 -9.66699 -74.666 -33 -93.999
s-63 -29 -119 -29c-42 0 -92.333 3.66699 -151 11l4 56c43.333 -2.66699 86 -4 128 -4c35.333 0 59.833 5 73.5 15s20.5 28.333 20.5 55c0 19.333 -5.83301 34.5 -17.5 45.5s-33.5 16.5 -65.5 16.5h-85v57h85c16.667 0 30.334 1.66699 41.001 5s18.334 8.5 23.001 15.5
s7.66699 13.5 9 19.5s2 13.667 2 23c0 20.667 -6 34.5 -18 41.5s-34.667 10.5 -68 10.5c-48 0 -88 -1 -120 -3z" />
    <glyph glyph-name="acute" unicode="&#xb4;" horiz-adv-x="321" 
d="M285 652l-199 -117l-32 45l177 146z" />
    <glyph glyph-name="paragraph" unicode="&#xb6;" horiz-adv-x="593" 
d="M266 -210l-0.000976562 411c-81.333 7.33301 -139.833 30.333 -175.5 69s-53.5 98.667 -53.5 180c0 92 23.5 157 70.5 195s125.833 57 236.5 57c62 0 113.333 -5.66699 154 -17v-685h-72v636c-13.333 0.666992 -42.666 2 -87.999 4v-850h-72z" />
    <glyph glyph-name="periodcentered" unicode="&#xb7;" horiz-adv-x="242" 
d="M105 320h32c12.667 0 21.667 -2.66699 27 -8s8 -14.333 8 -27v-54c0 -12.667 -2.66699 -21.667 -8 -27s-14.333 -8 -27 -8h-32c-13.333 0 -22.666 2.66699 -27.999 8s-8 14.333 -8 27v54c0 12.667 2.66699 21.667 8 27s14.666 8 27.999 8z" />
    <glyph glyph-name="cedilla" unicode="&#xb8;" horiz-adv-x="236" 
d="M77 -87l10.002 44.998c44 4 74.833 1.66699 92.5 -7s26.167 -28 25.5 -58c-0.666992 -43.333 -17.334 -76.5 -50.001 -99.5s-73.667 -31.167 -123 -24.5l16 51c25.333 -0.666992 46.166 5 62.499 17s24.833 28 25.5 48c0.666992 10.667 -3 17.834 -11 21.501
s-24 5.83398 -48 6.50098z" />
    <glyph glyph-name="onesuperior" unicode="&#xb9;" horiz-adv-x="296" 
d="M222 360h-75v306c0 18 1 31.667 3 41l-109 -28l-10 53l116 42h75v-414z" />
    <glyph glyph-name="ordmasculine" unicode="&#xba;" horiz-adv-x="443" 
d="M221 609c61.333 0 104.333 -13 129 -39s37 -70.667 37 -134s-12.333 -107.666 -37 -132.999s-67.667 -38 -129 -38c-60.667 0 -103.334 12.667 -128.001 38s-37 69.666 -37 132.999s12.333 108 37 134s67.334 39 128.001 39zM221 549c-34 0 -57.334 -8 -70.001 -24
s-19.334 -45.667 -20.001 -89c0.666992 -43.333 7.33398 -72.666 20.001 -87.999s36 -23 70 -23c34.667 0 58.334 7.66699 71.001 23s19 44.666 19 87.999s-6.5 73 -19.5 89s-36.5 24 -70.5 24z" />
    <glyph glyph-name="guillemotright" unicode="&#xbb;" horiz-adv-x="491" 
d="M262 262v-22l-160 -202l-52 34l123 179l-122 176l52 33zM448 262v-22l-161 -202l-51 34l123 179l-122 176l51 33z" />
    <glyph glyph-name="onequarter" unicode="&#xbc;" horiz-adv-x="867" 
d="M150 276v305.999c0 14.667 1.33301 28.334 4 41.001l-110 -28l-9 53l115 42h75v-414h-75zM648 689.999l-441 -690h-68l441 690h68zM827 100.999l-47.9961 -6.00098v-95h-71v94h-189c-18.667 0 -32.334 6 -41.001 18s-8.33398 28.667 0.999023 50l122 252h73l-117 -240
c-2.66699 -5.33301 -2.33398 -10.166 0.999023 -14.499s8.66602 -6.5 15.999 -6.5h134v115l13 66h58v-181h48v-52z" />
    <glyph glyph-name="onehalf" unicode="&#xbd;" horiz-adv-x="890" 
d="M225 276l-75 -0.000976562v306c0 14.667 1.33301 28.334 4 41.001l-110 -28l-9 53l115 42h75v-414zM200 -0.000976562h-69l441 690h68zM535 349.999l-4.00195 57c50 9.33301 97.333 14 142 14c54 0 93 -6.5 117 -19.5s36 -38.833 36 -77.5
c0 -40.667 -26.667 -87.334 -80 -140.001l-123 -119c20 2.66699 42.333 3.33398 67 2.00098h152v-67h-315v42c0 13.333 4 24 12 32l123 119c52.667 50.667 80 91.667 82 123c0.666992 16.667 -5.16602 27.667 -17.499 33s-31.833 8 -58.5 8
c-43.333 0 -87.666 -2.33301 -132.999 -7z" />
    <glyph glyph-name="threequarters" unicode="&#xbe;" horiz-adv-x="959" 
d="M270 495l-0.00195312 -2c31.333 -4 53.5 -14.5 66.5 -31.5s19.833 -41.167 20.5 -72.5c0.666992 -43.333 -10.666 -74.666 -33.999 -93.999s-63 -29 -119 -29c-41.333 0 -91.333 3.66699 -150 11l4 56c43.333 -2.66699 86 -4 128 -4c35.333 0 59.833 5 73.5 15
s20.5 28 20.5 54c0 20 -5.83301 35.5 -17.5 46.5s-33.5 16.5 -65.5 16.5l-85 2v52l85 3c21.333 0 37.833 3.5 49.5 10.5s18.834 14.333 21.501 22s4 17.5 4 29.5c0 20.667 -6 34.667 -18 42s-34.667 11 -68 11c-48 0 -88 -1 -120 -3l-4 55c44.667 6.66699 89.667 10 135 10
c56 0 94.667 -6.83301 116 -20.5s32 -38.5 32 -74.5c0 -30.667 -5.5 -54.834 -16.5 -72.501s-30.5 -28.5 -58.5 -32.5zM748.998 690l-441 -690h-68l440 690h69zM918.998 101l-49.999 -6.00098v-95h-71v94h-187c-18.667 0 -32.334 6 -41.001 18s-8.66699 28.667 0 50l123 252
h73l-117 -240c-2.66699 -5.33301 -2.5 -10.166 0.5 -14.499s8.16699 -6.5 15.5 -6.5h133v115l13 66h58v-181h50v-52z" />
    <glyph glyph-name="questiondown" unicode="&#xbf;" horiz-adv-x="500" 
d="M249 501h24c12.667 0 21.667 -2.5 27 -7.5s8 -14.167 8 -27.5v-54c0 -13.333 -2.5 -22.666 -7.5 -27.999s-14.167 -8 -27.5 -8h-24c-13.333 0 -22.666 2.66699 -27.999 8s-8 14.666 -8 27.999v54c0 13.333 2.66699 22.5 8 27.5s14.666 7.5 27.999 7.5zM219 289
l81.0059 0.0078125c0.666992 -34 -4.16602 -65.333 -14.499 -94s-23.333 -52.5 -39 -71.5s-31.334 -36.833 -47.001 -53.5s-29.334 -34.334 -41.001 -53.001s-17.834 -37.334 -18.501 -56.001c-1.33301 -30.667 7.83398 -53.334 27.501 -68.001s51.167 -22 94.5 -22
c51.333 0 117.333 3 198 9l5 -69c-4.66699 -0.666992 -13.834 -2.33398 -27.501 -5.00098s-22.834 -4.33398 -27.501 -5.00098s-12.834 -2 -24.501 -4s-21.167 -3.16699 -28.5 -3.5s-17.333 -1 -30 -2s-25.834 -1.66699 -39.501 -2s-28.834 -0.5 -45.501 -0.5
c-136 0 -204 51.667 -204 155c0 27.333 6 52.666 18 75.999s26.5 43.833 43.5 61.5l52 54c17.667 18.333 33 40.666 46 66.999s20.167 55.166 21.5 86.499z" />
    <glyph glyph-name="Agrave" unicode="&#xc0;" horiz-adv-x="626" 
d="M333 726l-199 117l54 74l177 -146zM450 208h-274.999l-64 -208h-102l216 663c5.33301 18 17.666 27 36.999 27h102c20 0 32 -9 36 -27l217 -663h-103zM424.001 295l-81 262c-2 6 -4.83301 15.333 -8.5 28s-6.5 22 -8.5 28h-27l-16 -56l-81 -262h222z" />
    <glyph glyph-name="Aacute" unicode="&#xc1;" horiz-adv-x="626" 
d="M277 726l-33 45l177 146l55 -74zM450 208h-274.999l-64 -208h-102l216 663c5.33301 18 17.666 27 36.999 27h102c20 0 32 -9 36 -27l217 -663h-103zM424.001 295l-81 262c-2 6 -4.83301 15.333 -8.5 28s-6.5 22 -8.5 28h-27l-16 -56l-81 -262h222z" />
    <glyph glyph-name="Acircumflex" unicode="&#xc2;" horiz-adv-x="626" 
d="M179 729l-32 41l131 129h70l132 -129l-34 -41l-129 96h-8zM450 208h-274.999l-64 -208h-102l216 663c5.33301 18 17.666 27 36.999 27h102c20 0 32 -9 36 -27l217 -663h-103zM424.001 295l-81 262c-2 6 -4.83301 15.333 -8.5 28s-6.5 22 -8.5 28h-27l-16 -56l-81 -262
h222z" />
    <glyph glyph-name="Atilde" unicode="&#xc3;" horiz-adv-x="626" 
d="M197 763h-43.999c-4.66699 40 0.666016 70.5 15.999 91.5s36 30.5 62 28.5c22 -2 48.333 -11 79 -27s54.667 -25 72 -27c18 -2 30.333 0.833008 37 8.5s10 21.167 10 40.5h44c4.66699 -38.667 -0.333008 -68.5 -15 -89.5s-35.667 -30.5 -63 -28.5
c-24.667 2 -52.834 11.167 -84.501 27.5s-54.5 25.5 -68.5 27.5c-17.333 2 -29.166 -1 -35.499 -9s-9.5 -22.333 -9.5 -43zM450.001 208h-274.999l-64 -208h-102l216 663c5.33301 18 17.666 27 36.999 27h102c20 0 32 -9 36 -27l217 -663h-103zM424.002 295l-81 262
c-2 6 -4.83301 15.333 -8.5 28s-6.5 22 -8.5 28h-27l-16 -56l-81 -262h222z" />
    <glyph glyph-name="Adieresis" unicode="&#xc4;" horiz-adv-x="626" 
d="M241 765h-33c-17.333 0 -26 9 -26 27v54c0 17.333 8.66699 26 26 26h33c16.667 0 25 -8.66699 25 -26v-54c0 -18 -8.33301 -27 -25 -27zM418 765h-32c-18 0 -27 9 -27 27v54c0 17.333 9 26 27 26h32c17.333 0 26 -8.66699 26 -26v-54c0 -18 -8.66699 -27 -26 -27z
M450 208h-274.999l-64 -208h-102l216 663c5.33301 18 17.666 27 36.999 27h102c20 0 32 -9 36 -27l217 -663h-103zM424.001 295l-81 262c-2 6 -4.83301 15.333 -8.5 28s-6.5 22 -8.5 28h-27l-16 -56l-81 -262h222z" />
    <glyph glyph-name="Aring" unicode="&#xc5;" horiz-adv-x="626" 
d="M313 714c-30 0 -55.667 10.167 -77 30.5s-32 45.5 -32 75.5s10.667 55.333 32 76s47 31 77 31s55.833 -10.333 77.5 -31s32.5 -46 32.5 -76s-10.667 -55.167 -32 -75.5s-47.333 -30.5 -78 -30.5zM313 879c-16 0 -29.333 -5.33301 -40 -16s-16 -25 -16 -43
c0 -17.333 5.33301 -31.333 16 -42s24 -16 40 -16c16.667 0 30.334 5.33301 41.001 16s16 24.667 16 42s-5.33301 31.5 -16 42.5s-24.334 16.5 -41.001 16.5zM450 208h-274.999l-64 -208h-102l216 663c5.33301 18 17.666 27 36.999 27h102c20 0 32 -9 36 -27l217 -663h-103z
M424.001 295l-81 262c-2 6 -4.83301 15.333 -8.5 28s-6.5 22 -8.5 28h-27l-16 -56l-81 -262h222z" />
    <glyph glyph-name="AE" unicode="&#xc6;" horiz-adv-x="915" 
d="M861 84l4 -78c-63.333 -5.33301 -162.333 -8 -297 -8c-35.333 0 -63.833 11.667 -85.5 35s-32.5 53 -32.5 89v94h-227l-122 -216h-105l333 577c24 44 52.667 74 86 90s83.333 24 150 24c129.333 0 229.333 -2.33301 300 -7l-4 -79h-253c-19.333 0 -34.833 -6 -46.5 -18
s-17.5 -28.333 -17.5 -49v-134h278v-82h-278v-174c0 -22.667 5 -39 15 -49s26.333 -15 49 -15h253zM450 299v252.999c0 13.333 3 26.833 9 40.5s13 23.834 21 30.501h-9c-18.667 -10.667 -36.667 -31 -54 -61l-148 -263h181z" />
    <glyph glyph-name="Ccedilla" unicode="&#xc7;" 
d="M527 88l9.99805 -75.998c-55.333 -16 -123.666 -24 -204.999 -24c-100.667 0 -171.334 26.667 -212.001 80s-61 145.666 -61 276.999s20.333 223.666 61 276.999s111.334 80 212.001 80c72 0 135.667 -6.66699 191 -20l-10 -77c-53.333 5.33301 -113.666 8 -180.999 8
c-63.333 0 -107.166 -19.333 -131.499 -58s-36.5 -108.667 -36.5 -210s12.167 -171.333 36.5 -210s68.166 -58 131.499 -58c84.667 0 149.667 3.66699 195 11zM267.998 -98.998l10.0029 44.998c43.333 4 74 1.66699 92 -7s26.667 -28 26 -58
c-1.33301 -43.333 -18.333 -76.5 -51 -99.5s-73.334 -31.167 -122.001 -24.5l15 51c25.333 -0.666992 46.166 5 62.499 17s25.166 28 26.499 48c0.666992 10.667 -3 17.834 -11 21.501s-24 5.83398 -48 6.50098z" />
    <glyph glyph-name="Egrave" unicode="&#xc8;" horiz-adv-x="562" 
d="M329 746l-199 117l55 74l177 -147zM508 83l5 -77c-60.667 -5.33301 -159.334 -8 -296.001 -8c-42.667 0 -76.334 11.167 -101.001 33.5s-37.334 52.5 -38.001 90.5v446c0.666992 38 13.334 68.167 38.001 90.5s58.334 33.5 101.001 33.5
c136.667 0 235.334 -2.66699 296.001 -8l-5 -78h-274c-20 0 -34.167 -4.83301 -42.5 -14.5s-12.5 -26.167 -12.5 -49.5v-138h291v-81h-291v-176c0 -23.333 4.16699 -39.833 12.5 -49.5s22.5 -14.5 42.5 -14.5h274z" />
    <glyph glyph-name="Eacute" unicode="&#xc9;" horiz-adv-x="562" 
d="M273 746l-32 44l177 147l55 -74zM508 83l5 -77c-60.667 -5.33301 -159.334 -8 -296.001 -8c-42.667 0 -76.334 11.167 -101.001 33.5s-37.334 52.5 -38.001 90.5v446c0.666992 38 13.334 68.167 38.001 90.5s58.334 33.5 101.001 33.5
c136.667 0 235.334 -2.66699 296.001 -8l-5 -78h-274c-20 0 -34.167 -4.83301 -42.5 -14.5s-12.5 -26.167 -12.5 -49.5v-138h291v-81h-291v-176c0 -23.333 4.16699 -39.833 12.5 -49.5s22.5 -14.5 42.5 -14.5h274z" />
    <glyph glyph-name="Ecircumflex" unicode="&#xca;" horiz-adv-x="562" 
d="M176 748l-32 42l131 129h70l131 -129l-33 -42l-129 97h-8zM508 83l5 -77c-60.667 -5.33301 -159.334 -8 -296.001 -8c-42.667 0 -76.334 11.167 -101.001 33.5s-37.334 52.5 -38.001 90.5v446c0.666992 38 13.334 68.167 38.001 90.5s58.334 33.5 101.001 33.5
c136.667 0 235.334 -2.66699 296.001 -8l-5 -78h-274c-20 0 -34.167 -4.83301 -42.5 -14.5s-12.5 -26.167 -12.5 -49.5v-138h291v-81h-291v-176c0 -23.333 4.16699 -39.833 12.5 -49.5s22.5 -14.5 42.5 -14.5h274z" />
    <glyph glyph-name="Edieresis" unicode="&#xcb;" horiz-adv-x="562" 
d="M237 785h-32c-17.333 0 -26 8.66699 -26 26v55c0 17.333 8.66699 26 26 26h32c17.333 0 26 -8.66699 26 -26v-55c0 -17.333 -8.66699 -26 -26 -26zM414 785h-31c-18 0 -27 8.66699 -27 26v55c0 17.333 9 26 27 26h31c18 0 27 -8.66699 27 -26v-55
c0 -17.333 -9 -26 -27 -26zM508 83l5 -77c-60.667 -5.33301 -159.334 -8 -296.001 -8c-42.667 0 -76.334 11.167 -101.001 33.5s-37.334 52.5 -38.001 90.5v446c0.666992 38 13.334 68.167 38.001 90.5s58.334 33.5 101.001 33.5c136.667 0 235.334 -2.66699 296.001 -8
l-5 -78h-274c-20 0 -34.167 -4.83301 -42.5 -14.5s-12.5 -26.167 -12.5 -49.5v-138h291v-81h-291v-176c0 -23.333 4.16699 -39.833 12.5 -49.5s22.5 -14.5 42.5 -14.5h274z" />
    <glyph glyph-name="Igrave" unicode="&#xcc;" horiz-adv-x="268" 
d="M186 771l-32 -45l-200 117l55 74zM184 0h-100v690h100v-690z" />
    <glyph glyph-name="Iacute" unicode="&#xcd;" horiz-adv-x="268" 
d="M297 843l-199 -117l-33 45l177 146zM184 0h-100v690h100v-690z" />
    <glyph glyph-name="Icircumflex" unicode="&#xce;" horiz-adv-x="268" 
d="M301 770l-34 -41l-129 96h-8l-130 -96l-32 41l131 129h70zM184 0h-100v690h100v-690z" />
    <glyph glyph-name="Idieresis" unicode="&#xcf;" horiz-adv-x="268" 
d="M29 872h33c16.667 0 25 -8.66699 25 -26v-54c0 -18 -8.33301 -27 -25 -27h-33c-17.333 0 -26 9 -26 27v54c0 17.333 8.66699 26 26 26zM207 872h32c17.333 0 26 -8.66699 26 -26v-54c0 -18 -8.66699 -27 -26 -27h-32c-18 0 -27 9 -27 27v54c0 17.333 9 26 27 26zM184 0
h-100v690h100v-690z" />
    <glyph glyph-name="Eth" unicode="&#xd0;" horiz-adv-x="670" 
d="M89 393v297.002c87.333 6 170.333 9 249 9c100.667 0 171.167 -25.833 211.5 -77.5s60.5 -143.834 60.5 -276.501s-20.167 -224.834 -60.5 -276.501s-110.833 -77.5 -211.5 -77.5c-78.667 0 -161.667 3 -249 9v338h-67v55h67zM188 338.002l0.000976562 -257.002
c44 -2 94 -3 150 -3c62.667 0 106.167 19.333 130.5 58s36.5 108.334 36.5 209.001s-12.167 170.334 -36.5 209.001s-67.833 58 -130.5 58c-20.667 0 -47.334 -0.166992 -80.001 -0.5s-56 -0.5 -70 -0.5v-218h146v-55h-146z" />
    <glyph glyph-name="Ntilde" unicode="&#xd1;" horiz-adv-x="708" 
d="M245 763h-43.998c-4.66699 40 0.666016 70.5 15.999 91.5s36 30.5 62 28.5c22 -2 48.333 -11 79 -27s55 -25 73 -27c17.333 -2 29.333 0.833008 36 8.5s10 21.167 10 40.5h44c4.66699 -38.667 -0.333008 -68.5 -15 -89.5s-35.667 -30.5 -63 -28.5
c-24.667 2 -52.834 11.167 -84.501 27.5s-54.167 25.5 -67.5 27.5c-18 2 -30.167 -1 -36.5 -9s-9.5 -22.333 -9.5 -43zM624.002 690l-0.000976562 -651c0 -26 -12.333 -39 -37 -39h-95c-20 -0 -34.333 10.333 -43 31l-215 470c-24 52 -37.667 84 -41 96h-14
c3.33301 -26.667 5 -58.667 5 -96v-501h-100v651c0 26 12.667 39 38 39h92c19.333 0 34 -10.333 44 -31l209 -458c2.66699 -6 7.33398 -15.833 14.001 -29.5l18.5 -39l15.5 -34.5h15c-3.33301 40 -5 75.667 -5 107v485h99z" />
    <glyph glyph-name="Ograve" unicode="&#xd2;" horiz-adv-x="669" 
d="M385 771l-32 -45l-199 117l55 74zM334 703c102.667 0 174.334 -26 215.001 -78s61 -145.333 61 -280s-20.333 -228 -61 -280s-112.334 -78 -215.001 -78c-102 0 -173.333 26 -214 78s-61 145.333 -61 280s20.333 228 61 280s112 78 214 78zM334 614
c-64.667 0 -109.167 -19.333 -133.5 -58s-36.5 -109 -36.5 -211s12.167 -172.333 36.5 -211s68.833 -58 133.5 -58s109.334 19.333 134.001 58s37 109 37 211s-12.333 172.333 -37 211s-69.334 58 -134.001 58z" />
    <glyph glyph-name="Oacute" unicode="&#xd3;" horiz-adv-x="669" 
d="M496 843l-199 -117l-32 45l177 146zM334 703c102.667 0 174.334 -26 215.001 -78s61 -145.333 61 -280s-20.333 -228 -61 -280s-112.334 -78 -215.001 -78c-102 0 -173.333 26 -214 78s-61 145.333 -61 280s20.333 228 61 280s112 78 214 78zM334 614
c-64.667 0 -109.167 -19.333 -133.5 -58s-36.5 -109 -36.5 -211s12.167 -172.333 36.5 -211s68.833 -58 133.5 -58s109.334 19.333 134.001 58s37 109 37 211s-12.333 172.333 -37 211s-69.334 58 -134.001 58z" />
    <glyph glyph-name="Ocircumflex" unicode="&#xd4;" horiz-adv-x="669" 
d="M500 770l-33 -41l-130 96h-8l-129 -96l-32 41l130 129h71zM334 703c102.667 0 174.334 -26 215.001 -78s61 -145.333 61 -280s-20.333 -228 -61 -280s-112.334 -78 -215.001 -78c-102 0 -173.333 26 -214 78s-61 145.333 -61 280s20.333 228 61 280s112 78 214 78z
M334 614c-64.667 0 -109.167 -19.333 -133.5 -58s-36.5 -109 -36.5 -211s12.167 -172.333 36.5 -211s68.833 -58 133.5 -58s109.334 19.333 134.001 58s37 109 37 211s-12.333 172.333 -37 211s-69.334 58 -134.001 58z" />
    <glyph glyph-name="Otilde" unicode="&#xd5;" horiz-adv-x="669" 
d="M217 763h-43.998c-4.66699 40 0.666016 70.5 15.999 91.5s36.333 30.5 63 28.5c21.333 -2 47.333 -11 78 -27s55 -25 73 -27s30.333 0.833008 37 8.5s10 21.167 10 40.5h44c4.66699 -38.667 -0.5 -68.5 -15.5 -89.5s-36.167 -30.5 -63.5 -28.5
c-24.667 2 -52.834 11.167 -84.501 27.5s-54.167 25.5 -67.5 27.5c-18 2 -30.167 -1 -36.5 -9s-9.5 -22.333 -9.5 -43zM334.002 703c102.667 0 174.334 -26 215.001 -78s61 -145.333 61 -280s-20.333 -228 -61 -280s-112.334 -78 -215.001 -78c-102 0 -173.333 26 -214 78
s-61 145.333 -61 280s20.333 228 61 280s112 78 214 78zM334.002 614c-64.667 0 -109.167 -19.333 -133.5 -58s-36.5 -109 -36.5 -211s12.167 -172.333 36.5 -211s68.833 -58 133.5 -58s109.334 19.333 134.001 58s37 109 37 211s-12.333 172.333 -37 211
s-69.334 58 -134.001 58z" />
    <glyph glyph-name="Odieresis" unicode="&#xd6;" horiz-adv-x="669" 
d="M228 872h33c17.333 0 26 -8.66699 26 -26v-54c0 -18 -8.66699 -27 -26 -27h-33c-16.667 0 -25 9 -25 27v54c0 17.333 8.33301 26 25 26zM406 872h32c18 0 27 -8.66699 27 -26v-54c0 -18 -9 -27 -27 -27h-32c-17.333 0 -26 9 -26 27v54c0 17.333 8.66699 26 26 26z
M334 703c102.667 0 174.334 -26 215.001 -78s61 -145.333 61 -280s-20.333 -228 -61 -280s-112.334 -78 -215.001 -78c-102 0 -173.333 26 -214 78s-61 145.333 -61 280s20.333 228 61 280s112 78 214 78zM334 614c-64.667 0 -109.167 -19.333 -133.5 -58
s-36.5 -109 -36.5 -211s12.167 -172.333 36.5 -211s68.833 -58 133.5 -58s109.334 19.333 134.001 58s37 109 37 211s-12.333 172.333 -37 211s-69.334 58 -134.001 58z" />
    <glyph glyph-name="multiply" unicode="&#xd7;" horiz-adv-x="484" 
d="M42 422l357 -321l47 57l-356 321z" />
    <glyph glyph-name="Oslash" unicode="&#xd8;" horiz-adv-x="669" 
d="M543 731l-31.998 -69c35.333 -24.667 60.666 -62.167 75.999 -112.5s23 -118.5 23 -204.5c0 -134.667 -20.333 -228 -61 -280s-112.334 -78 -215.001 -78c-52.667 0 -96 6.33301 -130 19l-31 -65l-50 21l32 69c-34 24.667 -58.5 62 -73.5 112s-22.5 117.333 -22.5 202
c0 134.667 20.333 228 61 280s112 78 214 78c52 0 94.667 -5.66699 128 -17l30 65zM202.002 132l219 466c-22 10.667 -51 16 -87 16c-64.667 0 -109.167 -19.333 -133.5 -58s-36.5 -109 -36.5 -211c0 -102.667 12.667 -173.667 38 -213zM464.002 562l-219.001 -467.999
c23.333 -12 53 -18 89 -18c64.667 0 109.334 19.333 134.001 58s37 109 37 211c0 107.333 -13.667 179.666 -41 216.999z" />
    <glyph glyph-name="Ugrave" unicode="&#xd9;" horiz-adv-x="666" 
d="M386 771l-32 -45l-200 117l55 74zM587 690v-424c0 -101.333 -18.833 -173.166 -56.5 -215.499s-102.167 -63.5 -193.5 -63.5c-94 0 -160.5 21.167 -199.5 63.5s-58.5 114.166 -58.5 215.499v424h100v-424c0 -70.667 11.333 -120 34 -148s62.667 -42 120 -42
c56.667 0 96.5 14 119.5 42s34.5 77.333 34.5 148v424h100z" />
    <glyph glyph-name="Uacute" unicode="&#xda;" horiz-adv-x="666" 
d="M497 843l-199 -117l-33 45l177 146zM587 690v-424c0 -101.333 -18.833 -173.166 -56.5 -215.499s-102.167 -63.5 -193.5 -63.5c-94 0 -160.5 21.167 -199.5 63.5s-58.5 114.166 -58.5 215.499v424h100v-424c0 -70.667 11.333 -120 34 -148s62.667 -42 120 -42
c56.667 0 96.5 14 119.5 42s34.5 77.333 34.5 148v424h100z" />
    <glyph glyph-name="Ucircumflex" unicode="&#xdb;" horiz-adv-x="666" 
d="M501 770l-34 -41l-129 96h-8l-130 -96l-32 41l131 129h70zM587 690v-424c0 -101.333 -18.833 -173.166 -56.5 -215.499s-102.167 -63.5 -193.5 -63.5c-94 0 -160.5 21.167 -199.5 63.5s-58.5 114.166 -58.5 215.499v424h100v-424c0 -70.667 11.333 -120 34 -148
s62.667 -42 120 -42c56.667 0 96.5 14 119.5 42s34.5 77.333 34.5 148v424h100z" />
    <glyph glyph-name="Udieresis" unicode="&#xdc;" horiz-adv-x="666" 
d="M229 872h32c17.333 0 26 -8.66699 26 -26v-54c0 -18 -8.66699 -27 -26 -27h-32c-17.333 0 -26 9 -26 27v54c0 17.333 8.66699 26 26 26zM407 872h31c18 0 27 -8.66699 27 -26v-54c0 -18 -9 -27 -27 -27h-31c-18 0 -27 9 -27 27v54c0 17.333 9 26 27 26zM587 690v-424
c0 -101.333 -18.833 -173.166 -56.5 -215.499s-102.167 -63.5 -193.5 -63.5c-94 0 -160.5 21.167 -199.5 63.5s-58.5 114.166 -58.5 215.499v424h100v-424c0 -70.667 11.333 -120 34 -148s62.667 -42 120 -42c56.667 0 96.5 14 119.5 42s34.5 77.333 34.5 148v424h100z" />
    <glyph glyph-name="Yacute" unicode="&#xdd;" horiz-adv-x="574" 
d="M250 726l-32 45l177 146l54 -74zM337 239v-238.999h-100v240l-228 450h106l139 -283c5.33301 -11.333 15.333 -38 30 -80h7c14 41.333 24 67.666 30 78.999l139 284h104z" />
    <glyph glyph-name="Thorn" unicode="&#xde;" horiz-adv-x="594" 
d="M184 690l0.000976562 -122c25.333 1.33301 72.333 2 141 2c85.333 0 144.166 -15.5 176.499 -46.5s48.5 -89.5 48.5 -175.5c0 -85.333 -15.5 -143.333 -46.5 -174s-86.833 -46 -167.5 -46c-44 0 -94.667 2.66699 -152 8v-136h-100v561v129h100zM184.001 214h138
c49.333 0.666992 82.833 10 100.5 28s26.5 53.333 26.5 106c0 54 -9 90.167 -27 108.5s-51.333 27.5 -100 27.5c-66.667 0 -112.667 -0.333008 -138 -1v-269z" />
    <glyph glyph-name="germandbls" unicode="&#xdf;" horiz-adv-x="680" 
d="M461 305l98.999 -46.9971c31.333 -15.333 53.333 -32.333 66 -51s19 -45.334 19 -80.001c0 -54 -14 -90.5 -42 -109.5s-74 -28.5 -138 -28.5c-48 0 -101 3.66699 -159 11l6 73c40.667 -3.33301 85 -5 133 -5c41.333 0.666992 69.333 4.66699 84 12s22 24.666 22 51.999
c0 10 -1 18.167 -3 24.5s-6.66699 12.5 -14 18.5s-13.5 10.333 -18.5 13l-29.5 15l-101 48c-54 26 -81 64 -81 114c0 10 0.833008 19.333 2.5 28s5.16699 16.834 10.5 24.501l13.5 19c3.66699 5 10.167 11 19.5 18s16.166 11.833 20.499 14.5l25.5 15
c12.667 7.33301 21 12.333 25 15c23.333 15.333 39.333 28.666 48 39.999s13 26.333 13 45c0 20.667 -9.16699 35.834 -27.5 45.501s-53.833 14.5 -106.5 14.5c-54 0 -90.333 -7.33301 -109 -22s-28 -44 -28 -88v-534h-97v412h-88v76h88v57c0 72 18.167 119.667 54.5 143
s94.833 35 175.5 35c84 0 143.167 -9.83301 177.5 -29.5s51.5 -55.5 51.5 -107.5c0 -26.667 -5.66699 -49.834 -17 -69.501s-33.666 -40.167 -66.999 -61.5c-8.66699 -6 -21.167 -13.667 -37.5 -23s-27.166 -16 -32.499 -20s-10.5 -9.83301 -15.5 -17.5
s-7.5 -16.5 -7.5 -26.5c0 -14.667 4.66699 -25.834 14 -33.501s26.333 -17.5 51 -29.5z" />
    <glyph glyph-name="agrave" unicode="&#xe0;" horiz-adv-x="551" 
d="M289 547l-199 117l54 74l177 -147zM79 407l-9.00098 71c88 15.333 167 23 237 23c59.333 0 103 -12 131 -36s42 -65.667 42 -125v-340h-76l-11 77c-56 -57.333 -121 -86 -195 -86c-45.333 0 -81.5 12 -108.5 36s-40.5 58 -40.5 102v51c0 38.667 12 68.667 36 90
s58 32 102 32h196v38c-0.666992 30 -7.66699 50.667 -21 62s-38.666 17 -75.999 17c-36.667 0 -105.667 -4 -207 -12zM146.999 167v-26c0 -24 5.66699 -41.333 17 -52s29.333 -16 54 -16c58 0 113 22.667 165 68v88h-178c-21.333 -0.666992 -36.333 -6.16699 -45 -16.5
s-13 -25.5 -13 -45.5z" />
    <glyph glyph-name="aacute" unicode="&#xe1;" horiz-adv-x="551" 
d="M233 547l-32 44l177 147l54 -74zM79 407l-9.00098 71c88 15.333 167 23 237 23c59.333 0 103 -12 131 -36s42 -65.667 42 -125v-340h-76l-11 77c-56 -57.333 -121 -86 -195 -86c-45.333 0 -81.5 12 -108.5 36s-40.5 58 -40.5 102v51c0 38.667 12 68.667 36 90
s58 32 102 32h196v38c-0.666992 30 -7.66699 50.667 -21 62s-38.666 17 -75.999 17c-36.667 0 -105.667 -4 -207 -12zM146.999 167v-26c0 -24 5.66699 -41.333 17 -52s29.333 -16 54 -16c58 0 113 22.667 165 68v88h-178c-21.333 -0.666992 -36.333 -6.16699 -45 -16.5
s-13 -25.5 -13 -45.5z" />
    <glyph glyph-name="acircumflex" unicode="&#xe2;" horiz-adv-x="551" 
d="M135 549l-32 42l131 129h70l132 -129l-34 -42l-129 97h-8zM79 407l-9.00098 71c88 15.333 167 23 237 23c59.333 0 103 -12 131 -36s42 -65.667 42 -125v-340h-76l-11 77c-56 -57.333 -121 -86 -195 -86c-45.333 0 -81.5 12 -108.5 36s-40.5 58 -40.5 102v51
c0 38.667 12 68.667 36 90s58 32 102 32h196v38c-0.666992 30 -7.66699 50.667 -21 62s-38.666 17 -75.999 17c-36.667 0 -105.667 -4 -207 -12zM146.999 167v-26c0 -24 5.66699 -41.333 17 -52s29.333 -16 54 -16c58 0 113 22.667 165 68v88h-178
c-21.333 -0.666992 -36.333 -6.16699 -45 -16.5s-13 -25.5 -13 -45.5z" />
    <glyph glyph-name="atilde" unicode="&#xe3;" horiz-adv-x="551" 
d="M153 584l-43.998 0.000976562c-4.66699 39.333 0.666016 69.5 15.999 90.5s36 30.5 62 28.5c22 -2 48.333 -10.833 79 -26.5s55 -24.5 73 -26.5c17.333 -2.66699 29.333 0 36 8s10 21.333 10 40h44c4.66699 -38.667 -0.333008 -68.334 -15 -89.001s-35.667 -30 -63 -28
c-24.667 2 -52.834 11.167 -84.501 27.5s-54.167 25.5 -67.5 27.5c-18 2 -30.167 -1.16699 -36.5 -9.5s-9.5 -22.5 -9.5 -42.5zM79.002 407.001l-9.00098 71c88 15.333 167 23 237 23c59.333 0 103 -12 131 -36s42 -65.667 42 -125v-340h-76l-11 77
c-56 -57.333 -121 -86 -195 -86c-45.333 0 -81.5 12 -108.5 36s-40.5 58 -40.5 102v51c0 38.667 12 68.667 36 90s58 32 102 32h196v38c-0.666992 30 -7.66699 50.667 -21 62s-38.666 17 -75.999 17c-36.667 0 -105.667 -4 -207 -12zM147.001 167.001v-26
c0 -24 5.66699 -41.333 17 -52s29.333 -16 54 -16c58 0 113 22.667 165 68v88h-178c-21.333 -0.666992 -36.333 -6.16699 -45 -16.5s-13 -25.5 -13 -45.5z" />
    <glyph glyph-name="adieresis" unicode="&#xe4;" horiz-adv-x="551" 
d="M197 585h-33c-16.667 0 -25 9 -25 27v54c0 18 8.33301 27 25 27h33c17.333 0 26 -9 26 -27v-54c0 -18 -8.66699 -27 -26 -27zM374 585h-32c-17.333 0 -26 9 -26 27v54c0 18 8.66699 27 26 27h32c18 0 27 -9 27 -27v-54c0 -18 -9 -27 -27 -27zM79 407l-9.00098 71
c88 15.333 167 23 237 23c59.333 0 103 -12 131 -36s42 -65.667 42 -125v-340h-76l-11 77c-56 -57.333 -121 -86 -195 -86c-45.333 0 -81.5 12 -108.5 36s-40.5 58 -40.5 102v51c0 38.667 12 68.667 36 90s58 32 102 32h196v38c-0.666992 30 -7.66699 50.667 -21 62
s-38.666 17 -75.999 17c-36.667 0 -105.667 -4 -207 -12zM146.999 167v-26c0 -24 5.66699 -41.333 17 -52s29.333 -16 54 -16c58 0 113 22.667 165 68v88h-178c-21.333 -0.666992 -36.333 -6.16699 -45 -16.5s-13 -25.5 -13 -45.5z" />
    <glyph glyph-name="aring" unicode="&#xe5;" horiz-adv-x="551" 
d="M270 534c-30.667 0 -56.5 10.167 -77.5 30.5s-31.5 45.833 -31.5 76.5c0 30 10.667 55.333 32 76s47 31 77 31s55.667 -10.333 77 -31s32 -46 32 -76s-10.667 -55.333 -32 -76s-47 -31 -77 -31zM270 699c-16.667 0 -30.334 -5.16699 -41.001 -15.5s-16 -24.5 -16 -42.5
c0 -17.333 5.33301 -31.333 16 -42s24.334 -16 41.001 -16c16 0 29.333 5.33301 40 16s16 24.667 16 42s-5.33301 31.333 -16 42s-24 16 -40 16zM79 407l-9.00098 71c88 15.333 167 23 237 23c59.333 0 103 -12 131 -36s42 -65.667 42 -125v-340h-76l-11 77
c-56 -57.333 -121 -86 -195 -86c-45.333 0 -81.5 12 -108.5 36s-40.5 58 -40.5 102v51c0 38.667 12 68.667 36 90s58 32 102 32h196v38c-0.666992 30 -7.66699 50.667 -21 62s-38.666 17 -75.999 17c-36.667 0 -105.667 -4 -207 -12zM146.999 167v-26
c0 -24 5.66699 -41.333 17 -52s29.333 -16 54 -16c58 0 113 22.667 165 68v88h-178c-21.333 -0.666992 -36.333 -6.16699 -45 -16.5s-13 -25.5 -13 -45.5z" />
    <glyph glyph-name="ae" unicode="&#xe6;" horiz-adv-x="870" 
d="M699 197h-213.998c4 -50.667 16.833 -84.667 38.5 -102s57.167 -26 106.5 -26c44.667 0 101.667 4 171 12l9 -64c-43.333 -19.333 -107.333 -29 -192 -29c-56.667 0 -101.834 8.16699 -135.501 24.5s-58.834 42.5 -75.501 78.5c-21.333 -25.333 -50.333 -48.333 -87 -69
s-77.334 -31 -122.001 -31c-45.333 0 -81.5 12 -108.5 36s-40.5 58 -40.5 102v51c0 38.667 12 68.667 36 90s58 32 102 32h196v38c0 30 -6.83301 50.667 -20.5 62s-39.167 17 -76.5 17c-36.667 0 -105.667 -4 -207 -12l-9 71c88 15.333 167 23 237 23
c66.667 0 113.334 -15 140.001 -45c34.667 30 88.667 45 162 45c74 0 128 -13.667 162 -41s51 -68.333 51 -123c1.33301 -93.333 -39.667 -140 -123 -140zM483.002 272l189 -0.000976562c35.333 0 53 21.667 53 65c0 29.333 -8.33301 50.333 -25 63s-45.667 19 -87 19
c-48 0 -81.333 -10.167 -100 -30.5s-28.667 -59.166 -30 -116.499zM147.002 166.999l0.00195312 -26c0 -24 5.66699 -41.333 17 -52s29.333 -16 54 -16c25.333 0 53.666 6.16699 84.999 18.5s60.333 30.833 87 55.5c-4.66699 26.667 -7.33398 54 -8.00098 82h-177
c-21.333 -0.666992 -36.333 -6.16699 -45 -16.5s-13 -25.5 -13 -45.5z" />
    <glyph glyph-name="ccedilla" unicode="&#xe7;" horiz-adv-x="491" 
d="M446 80l9 -65c-49.333 -18 -106 -27 -170 -27c-85.333 0 -145.5 19.167 -180.5 57.5s-52.5 104.5 -52.5 198.5s17.5 160.333 52.5 199s95.167 58 180.5 58c65.333 0 119.333 -8.33301 162 -25l-13 -62c-50 3.33301 -94 5 -132 5c-56 0 -94.833 -12.333 -116.5 -37
s-32.5 -70.667 -32.5 -138s10.833 -113.333 32.5 -138s60.5 -37 116.5 -37c54.667 0 102.667 3.66699 144 11zM221 -99l10.0029 44.998c43.333 4 74 1.66699 92 -7s26.667 -28 26 -58c-1.33301 -43.333 -18.333 -76.5 -51 -99.5s-73.334 -31.167 -122.001 -24.5l15 51
c25.333 -0.666992 46.166 5 62.499 17s25.166 28 26.499 48c0.666992 10.667 -3 17.834 -11 21.501s-24 5.83398 -48 6.50098z" />
    <glyph glyph-name="egrave" unicode="&#xe8;" horiz-adv-x="539" 
d="M300 547l-199 117l54 74l177 -147zM373 197h-219.001c4.66699 -50.667 17.834 -84.667 39.501 -102s57.167 -26 106.5 -26c43.333 0 100.333 4 171 12l9 -64c-44 -19.333 -108.333 -29 -193 -29c-85.333 0 -145.833 19.333 -181.5 58s-53.5 105 -53.5 199
c0 94.667 17.5 161 52.5 199s92.833 57 173.5 57c74.667 0 129 -13.667 163 -41s51 -68.333 51 -123c0 -93.333 -39.667 -140 -119 -140zM152.999 272l193.999 -0.000976562c32 0 48 21.667 48 65c-0.666992 30 -9.16699 51.167 -25.5 63.5s-45.166 18.5 -86.499 18.5
c-48 0 -81.333 -10.167 -100 -30.5s-28.667 -59.166 -30 -116.499z" />
    <glyph glyph-name="eacute" unicode="&#xe9;" horiz-adv-x="539" 
d="M244 547l-32 44l176 147l55 -74zM373 197h-219.001c4.66699 -50.667 17.834 -84.667 39.501 -102s57.167 -26 106.5 -26c43.333 0 100.333 4 171 12l9 -64c-44 -19.333 -108.333 -29 -193 -29c-85.333 0 -145.833 19.333 -181.5 58s-53.5 105 -53.5 199
c0 94.667 17.5 161 52.5 199s92.833 57 173.5 57c74.667 0 129 -13.667 163 -41s51 -68.333 51 -123c0 -93.333 -39.667 -140 -119 -140zM152.999 272l193.999 -0.000976562c32 0 48 21.667 48 65c-0.666992 30 -9.16699 51.167 -25.5 63.5s-45.166 18.5 -86.499 18.5
c-48 0 -81.333 -10.167 -100 -30.5s-28.667 -59.166 -30 -116.499z" />
    <glyph glyph-name="ecircumflex" unicode="&#xea;" horiz-adv-x="539" 
d="M146 549l-32 42l131 129h70l132 -129l-34 -42l-129 97h-8zM373 197h-219.001c4.66699 -50.667 17.834 -84.667 39.501 -102s57.167 -26 106.5 -26c43.333 0 100.333 4 171 12l9 -64c-44 -19.333 -108.333 -29 -193 -29c-85.333 0 -145.833 19.333 -181.5 58
s-53.5 105 -53.5 199c0 94.667 17.5 161 52.5 199s92.833 57 173.5 57c74.667 0 129 -13.667 163 -41s51 -68.333 51 -123c0 -93.333 -39.667 -140 -119 -140zM152.999 272l193.999 -0.000976562c32 0 48 21.667 48 65c-0.666992 30 -9.16699 51.167 -25.5 63.5
s-45.166 18.5 -86.499 18.5c-48 0 -81.333 -10.167 -100 -30.5s-28.667 -59.166 -30 -116.499z" />
    <glyph glyph-name="edieresis" unicode="&#xeb;" horiz-adv-x="539" 
d="M208 585h-33c-16.667 0 -25 9 -25 27v54c0 18 8.33301 27 25 27h33c17.333 0 26 -9 26 -27v-54c0 -18 -8.66699 -27 -26 -27zM385 585h-32c-17.333 0 -26 9 -26 27v54c0 18 8.66699 27 26 27h32c17.333 0 26 -9 26 -27v-54c0 -18 -8.66699 -27 -26 -27zM373 197h-219.001
c4.66699 -50.667 17.834 -84.667 39.501 -102s57.167 -26 106.5 -26c43.333 0 100.333 4 171 12l9 -64c-44 -19.333 -108.333 -29 -193 -29c-85.333 0 -145.833 19.333 -181.5 58s-53.5 105 -53.5 199c0 94.667 17.5 161 52.5 199s92.833 57 173.5 57
c74.667 0 129 -13.667 163 -41s51 -68.333 51 -123c0 -93.333 -39.667 -140 -119 -140zM152.999 272l193.999 -0.000976562c32 0 48 21.667 48 65c-0.666992 30 -9.16699 51.167 -25.5 63.5s-45.166 18.5 -86.499 18.5c-48 0 -81.333 -10.167 -100 -30.5
s-28.667 -59.166 -30 -116.499z" />
    <glyph glyph-name="igrave" unicode="&#xec;" horiz-adv-x="255" 
d="M180 591l-32 -44l-200 117l55 74zM176 0h-97v488h97v-488z" />
    <glyph glyph-name="iacute" unicode="&#xed;" horiz-adv-x="255" 
d="M291 664l-199 -117l-33 44l177 147zM176 0h-97v488h97v-488z" />
    <glyph glyph-name="icircumflex" unicode="&#xee;" horiz-adv-x="255" 
d="M295 591l-34 -42l-129 97h-8l-130 -97l-32 42l131 129h70zM176 0h-97v488h97v-488z" />
    <glyph glyph-name="idieresis" unicode="&#xef;" horiz-adv-x="255" 
d="M23 693h33c16.667 0 25 -9 25 -27v-54c0 -18 -8.33301 -27 -25 -27h-33c-17.333 0 -26 9 -26 27v54c0 18 8.66699 27 26 27zM201 693h32c17.333 0 26 -9 26 -27v-54c0 -18 -8.66699 -27 -26 -27h-32c-18 0 -27 9 -27 27v54c0 18 9 27 27 27zM176 0h-97v488h97v-488z" />
    <glyph glyph-name="eth" unicode="&#xf0;" horiz-adv-x="561" 
d="M447 671l-65.002 -49.998c79.333 -70.667 119 -183.334 119 -338.001c0 -98 -16.167 -171.833 -48.5 -221.5s-91.166 -74.5 -176.499 -74.5c-76.667 0 -133 18.5 -169 55.5s-54 95.5 -54 175.5c0 77.333 15.833 135.166 47.5 173.499s84.167 57.5 157.5 57.5
c50 0 93.667 -11 131 -33c-12 66 -36.667 117 -74 153l-75 -59l-34 42l63 50c-40 19.333 -90 28 -150 26l11 70c78.667 4 147.334 -10.667 206.001 -44l76 61zM276.998 68.002c50.667 0 83.833 16.833 99.5 50.5s23.5 90.167 23.5 169.5c0 27.333 -0.666992 47.333 -2 60
c-36 12.667 -77.333 19 -124 19c-44 0 -75 -12.167 -93 -36.5s-27 -61.5 -27 -111.5c0 -55.333 9.5 -94.333 28.5 -117s50.5 -34 94.5 -34z" />
    <glyph glyph-name="ntilde" unicode="&#xf1;" horiz-adv-x="583" 
d="M182 584l-44 0.000976562c-4.66699 40 0.5 70.333 15.5 91s35.833 30 62.5 28c22 -2 48.333 -10.833 79 -26.5s54.667 -24.5 72 -26.5c18 -2.66699 30.333 0 37 8s10 21.333 10 40h44c4.66699 -38.667 -0.333008 -68.334 -15 -89.001s-35.667 -30 -63 -28
c-24.667 2 -52.834 11.167 -84.501 27.5s-54.5 25.5 -68.5 27.5c-17.333 2 -29.166 -1.16699 -35.499 -9.5s-9.5 -22.5 -9.5 -42.5zM157 488.001l6 -75.001c76.667 58.667 148.667 88 216 88c43.333 0 76.166 -11.5 98.499 -34.5s33.5 -56.5 33.5 -100.5v-366h-97v338
c0 30.667 -4.5 51.834 -13.5 63.501s-25.167 17.5 -48.5 17.5c-25.333 0 -50.666 -5.66699 -75.999 -17s-60 -30 -104 -56v-346h-97v488h82z" />
    <glyph glyph-name="ograve" unicode="&#xf2;" horiz-adv-x="570" 
d="M336 591l-32 -44l-200 117l55 74zM285 501c84.667 0 144.667 -19.667 180 -59s53 -105.666 53 -198.999s-17.667 -159.333 -53 -198s-95.333 -58 -180 -58s-144.667 19.333 -180 58s-53 104.667 -53 198s17.667 159.666 53 198.999s95.333 59 180 59zM285 419
c-50.667 0 -85.334 -12.333 -104.001 -37s-28 -71 -28 -139c0 -67.333 9.33301 -113.333 28 -138s53.334 -37 104.001 -37s85.334 12.333 104.001 37s28 70.667 28 138c0 68 -9.33301 114.333 -28 139s-53.334 37 -104.001 37z" />
    <glyph glyph-name="oacute" unicode="&#xf3;" horiz-adv-x="570" 
d="M447 664l-199 -117l-33 44l177 147zM285 501c84.667 0 144.667 -19.667 180 -59s53 -105.666 53 -198.999s-17.667 -159.333 -53 -198s-95.333 -58 -180 -58s-144.667 19.333 -180 58s-53 104.667 -53 198s17.667 159.666 53 198.999s95.333 59 180 59zM285 419
c-50.667 0 -85.334 -12.333 -104.001 -37s-28 -71 -28 -139c0 -67.333 9.33301 -113.333 28 -138s53.334 -37 104.001 -37s85.334 12.333 104.001 37s28 70.667 28 138c0 68 -9.33301 114.333 -28 139s-53.334 37 -104.001 37z" />
    <glyph glyph-name="ocircumflex" unicode="&#xf4;" horiz-adv-x="570" 
d="M451 591l-34 -42l-129 97h-8l-130 -97l-32 42l131 129h70zM285 501c84.667 0 144.667 -19.667 180 -59s53 -105.666 53 -198.999s-17.667 -159.333 -53 -198s-95.333 -58 -180 -58s-144.667 19.333 -180 58s-53 104.667 -53 198s17.667 159.666 53 198.999
s95.333 59 180 59zM285 419c-50.667 0 -85.334 -12.333 -104.001 -37s-28 -71 -28 -139c0 -67.333 9.33301 -113.333 28 -138s53.334 -37 104.001 -37s85.334 12.333 104.001 37s28 70.667 28 138c0 68 -9.33301 114.333 -28 139s-53.334 37 -104.001 37z" />
    <glyph glyph-name="otilde" unicode="&#xf5;" horiz-adv-x="570" 
d="M168 584l-44 0.000976562c-4.66699 40 0.5 70.333 15.5 91s35.833 30 62.5 28c22 -2 48.333 -10.833 79 -26.5s54.667 -24.5 72 -26.5c18 -2.66699 30.333 0 37 8s10 21.333 10 40h44c4.66699 -38.667 -0.333008 -68.334 -15 -89.001s-35.667 -30 -63 -28
c-24.667 2 -52.834 11.167 -84.501 27.5s-54.5 25.5 -68.5 27.5c-17.333 2 -29.166 -1.16699 -35.499 -9.5s-9.5 -22.5 -9.5 -42.5zM285 501.001c84.667 0 144.667 -19.667 180 -59s53 -105.666 53 -198.999s-17.667 -159.333 -53 -198s-95.333 -58 -180 -58
s-144.667 19.333 -180 58s-53 104.667 -53 198s17.667 159.666 53 198.999s95.333 59 180 59zM285 419.001c-50.667 0 -85.334 -12.333 -104.001 -37s-28 -71 -28 -139c0 -67.333 9.33301 -113.333 28 -138s53.334 -37 104.001 -37s85.334 12.333 104.001 37
s28 70.667 28 138c0 68 -9.33301 114.333 -28 139s-53.334 37 -104.001 37z" />
    <glyph glyph-name="odieresis" unicode="&#xf6;" horiz-adv-x="570" 
d="M179 693h33c16.667 0 25 -9 25 -27v-54c0 -18 -8.33301 -27 -25 -27h-33c-17.333 0 -26 9 -26 27v54c0 18 8.66699 27 26 27zM357 693h32c17.333 0 26 -9 26 -27v-54c0 -18 -8.66699 -27 -26 -27h-32c-18 0 -27 9 -27 27v54c0 18 9 27 27 27zM285 501
c84.667 0 144.667 -19.667 180 -59s53 -105.666 53 -198.999s-17.667 -159.333 -53 -198s-95.333 -58 -180 -58s-144.667 19.333 -180 58s-53 104.667 -53 198s17.667 159.666 53 198.999s95.333 59 180 59zM285 419c-50.667 0 -85.334 -12.333 -104.001 -37
s-28 -71 -28 -139c0 -67.333 9.33301 -113.333 28 -138s53.334 -37 104.001 -37s85.334 12.333 104.001 37s28 70.667 28 138c0 68 -9.33301 114.333 -28 139s-53.334 37 -104.001 37z" />
    <glyph glyph-name="divide" unicode="&#xf7;" horiz-adv-x="567" 
d="M270 529h25c13.333 0 22.5 -2.66699 27.5 -8s7.5 -14.666 7.5 -27.999v-46c0 -12.667 -2.5 -21.5 -7.5 -26.5s-14.167 -7.5 -27.5 -7.5h-25c-13.333 0 -22.5 2.33301 -27.5 7s-7.5 13.667 -7.5 27v46c0 13.333 2.5 22.666 7.5 27.999s14.167 8 27.5 8zM505 259h-443v72
h443v-72zM270 176h25c13.333 0 22.5 -2.66699 27.5 -8s7.5 -14.666 7.5 -27.999v-45c0 -13.333 -2.5 -22.5 -7.5 -27.5s-14.167 -7.5 -27.5 -7.5h-25c-13.333 0 -22.5 2.5 -27.5 7.5s-7.5 14.167 -7.5 27.5v45c0 13.333 2.5 22.666 7.5 27.999s14.167 8 27.5 8z" />
    <glyph glyph-name="oslash" unicode="&#xf8;" horiz-adv-x="570" 
d="M448 543l-30.001 -65.998c35.333 -16.667 60.833 -43.834 76.5 -81.501s23.5 -88.5 23.5 -152.5c0 -93.333 -17.667 -159.333 -53 -198s-95.333 -58 -180 -58c-34.667 0 -65 3 -91 9l-35 -74l-43 21l32 70c-33.333 16.667 -57.666 43.667 -72.999 81s-23 87 -23 149
c0 93.333 17.667 159.666 53 198.999s95.333 59 180 59c31.333 0 60.333 -2.66699 87 -8l33 71zM187.999 98.002l147.002 316.999c-12.667 2.66699 -29.334 4 -50.001 4c-50.667 0 -85.334 -12.333 -104.001 -37s-28 -71 -28 -139c0 -73.333 11.667 -121.666 35 -144.999z
M379.001 394.001l-149 -319.999c15.333 -4 33.666 -6 54.999 -6c50.667 0 85.334 12.333 104.001 37s28 70.667 28 138c0 77.333 -12.667 127.666 -38 150.999z" />
    <glyph glyph-name="ugrave" unicode="&#xf9;" 
d="M308 551l-199 117l55 74l176 -146zM497 488l-0.000976562 -488h-77l-7 67c-71.333 -53.333 -140.666 -80 -207.999 -80c-88.667 0 -133 45 -133 135v366h97v-338c-0.666992 -30 4.33301 -50.833 15 -62.5s29 -17.5 55 -17.5c38 0 92 21.667 162 65v353h96z" />
    <glyph glyph-name="uacute" unicode="&#xfa;" 
d="M252 551l-32 45l177 146l54 -74zM497 488l-0.000976562 -488h-77l-7 67c-71.333 -53.333 -140.666 -80 -207.999 -80c-88.667 0 -133 45 -133 135v366h97v-338c-0.666992 -30 4.33301 -50.833 15 -62.5s29 -17.5 55 -17.5c38 0 92 21.667 162 65v353h96z" />
    <glyph glyph-name="ucircumflex" unicode="&#xfb;" 
d="M155 554l-33 41l131 129h70l132 -129l-33 -41l-130 96h-8zM497 488l-0.000976562 -488h-77l-7 67c-71.333 -53.333 -140.666 -80 -207.999 -80c-88.667 0 -133 45 -133 135v366h97v-338c-0.666992 -30 4.33301 -50.833 15 -62.5s29 -17.5 55 -17.5c38 0 92 21.667 162 65
v353h96z" />
    <glyph glyph-name="udieresis" unicode="&#xfc;" 
d="M216 590h-33c-16.667 0 -25 9 -25 27v54c0 17.333 8.33301 26 25 26h33c17.333 0 26 -8.66699 26 -26v-54c0 -18 -8.66699 -27 -26 -27zM393 590h-32c-17.333 0 -26 9 -26 27v54c0 17.333 8.66699 26 26 26h32c18 0 27 -8.66699 27 -26v-54c0 -18 -9 -27 -27 -27z
M497 488l-0.000976562 -488h-77l-7 67c-71.333 -53.333 -140.666 -80 -207.999 -80c-88.667 0 -133 45 -133 135v366h97v-338c-0.666992 -30 4.33301 -50.833 15 -62.5s29 -17.5 55 -17.5c38 0 92 21.667 162 65v353h96z" />
    <glyph glyph-name="yacute" unicode="&#xfd;" horiz-adv-x="533" 
d="M232 547l-32 44l177 147l55 -74zM516 488l-189.001 -511c-45.333 -120 -120 -180.667 -224 -182l-10 64c38 11.333 68 27 90 47s39.667 45.333 53 76l7 18h-20c-18.667 -0 -30 8.33301 -34 25l-173 463h104l121 -355c8 -20.667 13.667 -40.667 17 -60h14
c6.66699 18 13.334 38 20.001 60l120 355h104z" />
    <glyph glyph-name="thorn" unicode="&#xfe;" horiz-adv-x="576" 
d="M172 700l0.000976562 -163c0 -45.333 -1.33301 -79.333 -4 -102c55.333 43.333 114.666 65 177.999 65s108.5 -20.5 135.5 -61.5s40.5 -107.167 40.5 -198.5c0 -93.333 -14 -158.833 -42 -196.5s-73.667 -56.5 -137 -56.5c-62 0 -120 14 -174 42c2 -20 3 -50.333 3 -91
v-137h-97v899h97zM172.001 355l0.00195312 -253.999c57.333 -22.667 103.666 -34 138.999 -34c41.333 0 70.166 12.5 86.499 37.5s24.5 70.5 24.5 136.5c0 67.333 -8.16699 113.666 -24.5 138.999s-43.833 38 -82.5 38c-38 0 -85.667 -21 -143 -63z" />
    <glyph glyph-name="ydieresis" unicode="&#xff;" horiz-adv-x="533" 
d="M196 585h-32c-17.333 0 -26 9 -26 27v54c0 18 8.66699 27 26 27h32c17.333 0 26 -9 26 -27v-54c0 -18 -8.66699 -27 -26 -27zM373 585h-31c-18 0 -27 9 -27 27v54c0 18 9 27 27 27h31c18 0 27 -9 27 -27v-54c0 -18 -9 -27 -27 -27zM516 488l-189.001 -511
c-45.333 -120 -120 -180.667 -224 -182l-10 64c38 11.333 68 27 90 47s39.667 45.333 53 76l7 18h-20c-18.667 -0 -30 8.33301 -34 25l-173 463h104l121 -355c8 -20.667 13.667 -40.667 17 -60h14c6.66699 18 13.334 38 20.001 60l120 355h104z" />
    <glyph glyph-name="Amacron" unicode="&#x100;" horiz-adv-x="626" 
d="M455 782h-283v71h283v-71zM450 208h-274.999l-64 -208h-102l216 663c5.33301 18 17.666 27 36.999 27h102c20 0 32 -9 36 -27l217 -663h-103zM424.001 295l-81 262c-2 6 -4.83301 15.333 -8.5 28s-6.5 22 -8.5 28h-27l-16 -56l-81 -262h222z" />
    <glyph glyph-name="amacron" unicode="&#x101;" horiz-adv-x="551" 
d="M411 603h-283v71h283v-71zM79 407l-9.00098 71c88 15.333 167 23 237 23c59.333 0 103 -12 131 -36s42 -65.667 42 -125v-340h-76l-11 77c-56 -57.333 -121 -86 -195 -86c-45.333 0 -81.5 12 -108.5 36s-40.5 58 -40.5 102v51c0 38.667 12 68.667 36 90s58 32 102 32h196
v38c-0.666992 30 -7.66699 50.667 -21 62s-38.666 17 -75.999 17c-36.667 0 -105.667 -4 -207 -12zM146.999 167v-26c0 -24 5.66699 -41.333 17 -52s29.333 -16 54 -16c58 0 113 22.667 165 68v88h-178c-21.333 -0.666992 -36.333 -6.16699 -45 -16.5s-13 -25.5 -13 -45.5z
" />
    <glyph glyph-name="Abreve" unicode="&#x102;" horiz-adv-x="626" 
d="M416 886l49 -8c3.33301 -39.333 -9 -71.5 -37 -96.5s-66.333 -37.5 -115 -37.5c-49.333 0 -88 12.5 -116 37.5s-40.333 57.167 -37 96.5l49 8c0 -47.333 35 -71 105 -71c32.667 0 58 6.16699 76 18.5s26.667 29.833 26 52.5zM450 208h-274.999l-64 -208h-102l216 663
c5.33301 18 17.666 27 36.999 27h102c20 0 32 -9 36 -27l217 -663h-103zM424.001 295l-81 262c-2 6 -4.83301 15.333 -8.5 28s-6.5 22 -8.5 28h-27l-16 -56l-81 -262h222z" />
    <glyph glyph-name="abreve" unicode="&#x103;" horiz-adv-x="551" 
d="M373 706l48.001 -7c3.33301 -40 -8.83398 -72.5 -36.501 -97.5s-65.834 -37.5 -114.501 -37.5c-49.333 0 -88.166 12.5 -116.499 37.5s-40.833 57.5 -37.5 97.5l49 7c0 -47.333 35 -71 105 -71c32.667 0 58 6.16699 76 18.5s27 29.833 27 52.5zM79.001 407l-9.00098 71
c88 15.333 167 23 237 23c59.333 0 103 -12 131 -36s42 -65.667 42 -125v-340h-76l-11 77c-56 -57.333 -121 -86 -195 -86c-45.333 0 -81.5 12 -108.5 36s-40.5 58 -40.5 102v51c0 38.667 12 68.667 36 90s58 32 102 32h196v38c-0.666992 30 -7.66699 50.667 -21 62
s-38.666 17 -75.999 17c-36.667 0 -105.667 -4 -207 -12zM147 167v-26c0 -24 5.66699 -41.333 17 -52s29.333 -16 54 -16c58 0 113 22.667 165 68v88h-178c-21.333 -0.666992 -36.333 -6.16699 -45 -16.5s-13 -25.5 -13 -45.5z" />
    <glyph glyph-name="Aogonek" unicode="&#x104;" horiz-adv-x="626" 
d="M621 -153l12.002 -40.0029c-43.333 -17.333 -77.833 -23.666 -103.5 -18.999s-42.834 15.834 -51.501 33.501s-8.66699 38.5 0 62.5c14.667 39.333 46 78 94 116h-58l-64 208h-275l-64 -208h-102l216 663c5.33301 18 17.666 27 36.999 27h102c20 0 32 -9 36 -27l217 -663
c-34.667 -40.667 -58.334 -77.667 -71.001 -111c-10 -23.333 -7.66699 -38.666 7 -45.999s37.334 -6 68.001 4zM424.002 294.997l-81 262c-2 6 -4.83301 15.333 -8.5 28s-6.5 22 -8.5 28h-27l-16 -56l-81 -262h222z" />
    <glyph glyph-name="aogonek" unicode="&#x105;" horiz-adv-x="551" 
d="M484 -153l12 -40.0029c-43.333 -17.333 -77.833 -23.666 -103.5 -18.999s-42.834 15.834 -51.501 33.501s-8.66699 38.5 0 62.5c14.667 39.333 46 78 94 116h-31l-11 77c-56 -57.333 -121 -86 -195 -86c-45.333 0 -81.5 12 -108.5 36s-40.5 58 -40.5 102v51
c0 38.667 12 68.667 36 90s58 32 102 32h196v38c-0.666992 30 -7.66699 50.667 -21 62s-38.666 17 -75.999 17c-36.667 0 -105.667 -4 -207 -12l-9 71c88 15.333 167 23 237 23c59.333 0 103 -12 131 -36s42 -65.667 42 -125v-340
c-34.667 -40.667 -58.334 -77.667 -71.001 -111c-10 -23.333 -7.66699 -38.666 7 -45.999s37.334 -6 68.001 4zM147 166.997v-26c0 -24 5.66699 -41.333 17 -52s29.333 -16 54 -16c58 0 113 22.667 165 68v88h-178c-21.333 -0.666992 -36.333 -6.16699 -45 -16.5
s-13 -25.5 -13 -45.5z" />
    <glyph glyph-name="Cacute" unicode="&#x106;" 
d="M483 843l-199 -117l-33 45l177 146zM527 88l9.99805 -75.998c-55.333 -16 -123.666 -24 -204.999 -24c-100.667 0 -171.334 26.667 -212.001 80s-61 145.666 -61 276.999s20.333 223.666 61 276.999s111.334 80 212.001 80c72 0 135.667 -6.66699 191 -20l-10 -77
c-53.333 5.33301 -113.666 8 -180.999 8c-63.333 0 -107.166 -19.333 -131.499 -58s-36.5 -108.667 -36.5 -210s12.167 -171.333 36.5 -210s68.166 -58 131.499 -58c84.667 0 149.667 3.66699 195 11z" />
    <glyph glyph-name="cacute" unicode="&#x107;" horiz-adv-x="491" 
d="M429 664l-199 -117l-32 44l177 147zM446 80l9 -65c-49.333 -18 -106 -27 -170 -27c-85.333 0 -145.5 19.167 -180.5 57.5s-52.5 104.5 -52.5 198.5s17.5 160.333 52.5 199s95.167 58 180.5 58c65.333 0 119.333 -8.33301 162 -25l-13 -62c-50 3.33301 -94 5 -132 5
c-56 0 -94.833 -12.333 -116.5 -37s-32.5 -70.667 -32.5 -138s10.833 -113.333 32.5 -138s60.5 -37 116.5 -37c54.667 0 102.667 3.66699 144 11z" />
    <glyph glyph-name="Cdotaccent" unicode="&#x10a;" 
d="M305 869h31c18.667 0 28 -9.66699 28 -29v-56c0 -18.667 -9.33301 -28 -28 -28h-31c-19.333 0 -29 9.33301 -29 28v56c0 19.333 9.66699 29 29 29zM527 88l9.99805 -75.998c-55.333 -16 -123.666 -24 -204.999 -24c-100.667 0 -171.334 26.667 -212.001 80
s-61 145.666 -61 276.999s20.333 223.666 61 276.999s111.334 80 212.001 80c72 0 135.667 -6.66699 191 -20l-10 -77c-53.333 5.33301 -113.666 8 -180.999 8c-63.333 0 -107.166 -19.333 -131.499 -58s-36.5 -108.667 -36.5 -210s12.167 -171.333 36.5 -210
s68.166 -58 131.499 -58c84.667 0 149.667 3.66699 195 11z" />
    <glyph glyph-name="cdotaccent" unicode="&#x10b;" horiz-adv-x="491" 
d="M251 689h31c19.333 0 29 -9.33301 29 -28v-56c0 -19.333 -9.66699 -29 -29 -29h-31c-18.667 0 -28 9.66699 -28 29v56c0 18.667 9.33301 28 28 28zM446 80l9 -65c-49.333 -18 -106 -27 -170 -27c-85.333 0 -145.5 19.167 -180.5 57.5s-52.5 104.5 -52.5 198.5
s17.5 160.333 52.5 199s95.167 58 180.5 58c65.333 0 119.333 -8.33301 162 -25l-13 -62c-50 3.33301 -94 5 -132 5c-56 0 -94.833 -12.333 -116.5 -37s-32.5 -70.667 -32.5 -138s10.833 -113.333 32.5 -138s60.5 -37 116.5 -37c54.667 0 102.667 3.66699 144 11z" />
    <glyph glyph-name="Ccaron" unicode="&#x10c;" 
d="M488 872l-145 -129h-44l-144 129l32 41l130 -84h8l129 84zM527 88l9.99805 -75.998c-55.333 -16 -123.666 -24 -204.999 -24c-100.667 0 -171.334 26.667 -212.001 80s-61 145.666 -61 276.999s20.333 223.666 61 276.999s111.334 80 212.001 80
c72 0 135.667 -6.66699 191 -20l-10 -77c-53.333 5.33301 -113.666 8 -180.999 8c-63.333 0 -107.166 -19.333 -131.499 -58s-36.5 -108.667 -36.5 -210s12.167 -171.333 36.5 -210s68.166 -58 131.499 -58c84.667 0 149.667 3.66699 195 11z" />
    <glyph glyph-name="ccaron" unicode="&#x10d;" horiz-adv-x="491" 
d="M435 692l-145 -129h-44l-144 129l32 42l130 -85h8l129 85zM446 80l9 -65c-49.333 -18 -106 -27 -170 -27c-85.333 0 -145.5 19.167 -180.5 57.5s-52.5 104.5 -52.5 198.5s17.5 160.333 52.5 199s95.167 58 180.5 58c65.333 0 119.333 -8.33301 162 -25l-13 -62
c-50 3.33301 -94 5 -132 5c-56 0 -94.833 -12.333 -116.5 -37s-32.5 -70.667 -32.5 -138s10.833 -113.333 32.5 -138s60.5 -37 116.5 -37c54.667 0 102.667 3.66699 144 11z" />
    <glyph glyph-name="Dcaron" unicode="&#x10e;" horiz-adv-x="665" 
d="M296 743l-144 129l32 41l130 -84h8l129 84l34 -41l-145 -129h-44zM84 0v689.998c87.333 6 170.333 9 249 9c101.333 0 172.166 -25.667 212.499 -77s60.5 -143.666 60.5 -276.999s-20.167 -225.666 -60.5 -276.999s-111.166 -77 -212.499 -77
c-78.667 0 -161.667 3 -249 9zM184 610.998l-0.000976562 -530.002c42.667 -2 92.334 -3 149.001 -3c62.667 0 106.167 19.333 130.5 58s36.5 108.334 36.5 209.001s-12.167 170.334 -36.5 209.001s-67.833 58 -130.5 58c-20 0 -46.5 -0.166992 -79.5 -0.5
s-56.167 -0.5 -69.5 -0.5z" />
    <glyph glyph-name="dcaron" unicode="&#x10f;" horiz-adv-x="575" 
d="M642 675v-49.002c-0.666992 -45.333 -12 -86.666 -34 -123.999l-42 10c6.66699 30.667 10 62 10 94c-7.33301 0 -13.333 2.33301 -18 7s-6.66699 10.334 -6 17.001v45c0.666992 18.667 11.667 28 33 28h26c12 0 20.167 -2 24.5 -6s6.5 -11.333 6.5 -22zM500 699.998
v-699.999h-76l-8 67c-62.667 -52.667 -126.667 -79 -192 -79c-60 0 -103.5 21.5 -130.5 64.5s-40.5 107.5 -40.5 193.5c0 93.333 15 159.166 45 197.499s77 57.5 141 57.5c61.333 0 117.333 -14.667 168 -44c-2.66699 28.667 -4 60.667 -4 96v147h97zM403 132.999
l0.000976562 260c-60.667 16 -107.334 24 -140.001 24c-41.333 0 -70 -11.5 -86 -34.5s-24 -68.167 -24 -135.5s7.83301 -113.333 23.5 -138s42.5 -37 80.5 -37c24.667 0 46.5 4.33301 65.5 13s45.833 24.667 80.5 48z" />
    <glyph glyph-name="Dcroat" unicode="&#x110;" horiz-adv-x="670" 
d="M89 393v297.002c87.333 6 170.333 9 249 9c100.667 0 171.167 -25.833 211.5 -77.5s60.5 -143.834 60.5 -276.501s-20.167 -224.834 -60.5 -276.501s-110.833 -77.5 -211.5 -77.5c-78.667 0 -161.667 3 -249 9v338h-67v55h67zM188 338.002l0.000976562 -257.002
c44 -2 94 -3 150 -3c62.667 0 106.167 19.333 130.5 58s36.5 108.334 36.5 209.001s-12.167 170.334 -36.5 209.001s-67.833 58 -130.5 58c-20.667 0 -47.334 -0.166992 -80.001 -0.5s-56 -0.5 -70 -0.5v-218h146v-55h-146z" />
    <glyph glyph-name="dcroat" unicode="&#x111;" horiz-adv-x="570" 
d="M566 570l-66 0.000976562v-570h-76l-8 67c-62.667 -52.667 -126.667 -79 -192 -79c-60 0 -103.5 21.5 -130.5 64.5s-40.5 107.5 -40.5 193.5c0 93.333 15 159.166 45 197.499s77 57.5 141 57.5c61.333 0 117.333 -14.667 168 -44c-2.66699 28.667 -4 60.667 -4 96v17
h-149v55h149v75h97v-75h66v-55zM403 133.001l0.000976562 260c-60.667 16 -107.334 24 -140.001 24c-41.333 0 -70 -11.5 -86 -34.5s-24 -68.167 -24 -135.5s7.83301 -113.333 23.5 -138s42.5 -37 80.5 -37c24.667 0 46.5 4.33301 65.5 13s45.833 24.667 80.5 48z" />
    <glyph glyph-name="Emacron" unicode="&#x112;" horiz-adv-x="562" 
d="M451 802h-282v71h282v-71zM508 83l5 -77c-60.667 -5.33301 -159.334 -8 -296.001 -8c-42.667 0 -76.334 11.167 -101.001 33.5s-37.334 52.5 -38.001 90.5v446c0.666992 38 13.334 68.167 38.001 90.5s58.334 33.5 101.001 33.5c136.667 0 235.334 -2.66699 296.001 -8
l-5 -78h-274c-20 0 -34.167 -4.83301 -42.5 -14.5s-12.5 -26.167 -12.5 -49.5v-138h291v-81h-291v-176c0 -23.333 4.16699 -39.833 12.5 -49.5s22.5 -14.5 42.5 -14.5h274z" />
    <glyph glyph-name="emacron" unicode="&#x113;" horiz-adv-x="539" 
d="M422 603h-283v71h283v-71zM373 197h-219.001c4.66699 -50.667 17.834 -84.667 39.501 -102s57.167 -26 106.5 -26c43.333 0 100.333 4 171 12l9 -64c-44 -19.333 -108.333 -29 -193 -29c-85.333 0 -145.833 19.333 -181.5 58s-53.5 105 -53.5 199
c0 94.667 17.5 161 52.5 199s92.833 57 173.5 57c74.667 0 129 -13.667 163 -41s51 -68.333 51 -123c0 -93.333 -39.667 -140 -119 -140zM152.999 272l193.999 -0.000976562c32 0 48 21.667 48 65c-0.666992 30 -9.16699 51.167 -25.5 63.5s-45.166 18.5 -86.499 18.5
c-48 0 -81.333 -10.167 -100 -30.5s-28.667 -59.166 -30 -116.499z" />
    <glyph glyph-name="Edotaccent" unicode="&#x116;" horiz-adv-x="562" 
d="M325 775h-30c-19.333 0 -29 9.66699 -29 29v56c0 18.667 9.66699 28 29 28h30c19.333 0 29 -9.33301 29 -28v-56c0 -19.333 -9.66699 -29 -29 -29zM508 83l5 -77c-60.667 -5.33301 -159.334 -8 -296.001 -8c-42.667 0 -76.334 11.167 -101.001 33.5
s-37.334 52.5 -38.001 90.5v446c0.666992 38 13.334 68.167 38.001 90.5s58.334 33.5 101.001 33.5c136.667 0 235.334 -2.66699 296.001 -8l-5 -78h-274c-20 0 -34.167 -4.83301 -42.5 -14.5s-12.5 -26.167 -12.5 -49.5v-138h291v-81h-291v-176
c0 -23.333 4.16699 -39.833 12.5 -49.5s22.5 -14.5 42.5 -14.5h274z" />
    <glyph glyph-name="edotaccent" unicode="&#x117;" horiz-adv-x="539" 
d="M296 576h-31c-19.333 0 -29 9.66699 -29 29v56c0 18.667 9.66699 28 29 28h31c18.667 0 28 -9.33301 28 -28v-56c0 -19.333 -9.33301 -29 -28 -29zM373 197h-219.001c4.66699 -50.667 17.834 -84.667 39.501 -102s57.167 -26 106.5 -26c43.333 0 100.333 4 171 12l9 -64
c-44 -19.333 -108.333 -29 -193 -29c-85.333 0 -145.833 19.333 -181.5 58s-53.5 105 -53.5 199c0 94.667 17.5 161 52.5 199s92.833 57 173.5 57c74.667 0 129 -13.667 163 -41s51 -68.333 51 -123c0 -93.333 -39.667 -140 -119 -140zM152.999 272l193.999 -0.000976562
c32 0 48 21.667 48 65c-0.666992 30 -9.16699 51.167 -25.5 63.5s-45.166 18.5 -86.499 18.5c-48 0 -81.333 -10.167 -100 -30.5s-28.667 -59.166 -30 -116.499z" />
    <glyph glyph-name="Eogonek" unicode="&#x118;" horiz-adv-x="562" 
d="M517 -148l10.999 -39c-64 -23.333 -109.167 -26 -135.5 -8s-32.5 46.333 -18.5 85c13.333 38 43.333 75.333 90 112c-52.667 -2.66699 -135 -4 -247 -4c-42.667 0 -76.334 11.167 -101.001 33.5s-37.334 52.5 -38.001 90.5v446c0.666992 38 13.334 68.167 38.001 90.5
s58.334 33.5 101.001 33.5c136.667 0 235.334 -2.66699 296.001 -8l-5 -78h-274c-20 0 -34.167 -4.83301 -42.5 -14.5s-12.5 -26.167 -12.5 -49.5v-138h291v-81h-291v-176c0 -23.333 4.16699 -39.833 12.5 -49.5s22.5 -14.5 42.5 -14.5h274l5 -77
c-34.667 -42 -58.334 -79 -71.001 -111c-10 -23.333 -7.66699 -38.833 7 -46.5s37.334 -6.5 68.001 3.5z" />
    <glyph glyph-name="eogonek" unicode="&#x119;" horiz-adv-x="539" 
d="M484 -136l10.999 -40.001c-63.333 -22.667 -108.333 -25 -135 -7s-33 46 -19 84c12 34 36 66.667 72 98c-39.333 -7.33301 -81.333 -11 -126 -11c-85.333 0 -145.833 19.333 -181.5 58s-53.5 105 -53.5 199c0 94.667 17.5 161 52.5 199s92.833 57 173.5 57
c74.667 0 129 -13.667 163 -41s51 -68.333 51 -123c0 -93.333 -39.667 -140 -119 -140h-219c4.66699 -50.667 17.834 -84.667 39.501 -102s57.167 -26 106.5 -26c43.333 0 100.333 4 171 12l9 -64c-34.667 -40.667 -58.334 -77.667 -71.001 -111
c-10 -23.333 -7.66699 -38.666 7 -45.999s37.334 -6 68.001 4zM152.999 271.999l193.999 -0.000976562c32 0 48 21.667 48 65c-0.666992 30 -9.16699 51.167 -25.5 63.5s-45.166 18.5 -86.499 18.5c-48 0 -81.333 -10.167 -100 -30.5s-28.667 -59.166 -30 -116.499z" />
    <glyph glyph-name="Ecaron" unicode="&#x11a;" horiz-adv-x="562" 
d="M289 762l-144 130l32 41l130 -84h8l129 84l34 -41l-145 -130h-44zM508 83l5 -77c-60.667 -5.33301 -159.334 -8 -296.001 -8c-42.667 0 -76.334 11.167 -101.001 33.5s-37.334 52.5 -38.001 90.5v446c0.666992 38 13.334 68.167 38.001 90.5s58.334 33.5 101.001 33.5
c136.667 0 235.334 -2.66699 296.001 -8l-5 -78h-274c-20 0 -34.167 -4.83301 -42.5 -14.5s-12.5 -26.167 -12.5 -49.5v-138h291v-81h-291v-176c0 -23.333 4.16699 -39.833 12.5 -49.5s22.5 -14.5 42.5 -14.5h274z" />
    <glyph glyph-name="ecaron" unicode="&#x11b;" horiz-adv-x="539" 
d="M259 563l-144 129l32 42l130 -85h8l129 85l34 -42l-145 -129h-44zM373 197h-219.001c4.66699 -50.667 17.834 -84.667 39.501 -102s57.167 -26 106.5 -26c43.333 0 100.333 4 171 12l9 -64c-44 -19.333 -108.333 -29 -193 -29c-85.333 0 -145.833 19.333 -181.5 58
s-53.5 105 -53.5 199c0 94.667 17.5 161 52.5 199s92.833 57 173.5 57c74.667 0 129 -13.667 163 -41s51 -68.333 51 -123c0 -93.333 -39.667 -140 -119 -140zM152.999 272l193.999 -0.000976562c32 0 48 21.667 48 65c-0.666992 30 -9.16699 51.167 -25.5 63.5
s-45.166 18.5 -86.499 18.5c-48 0 -81.333 -10.167 -100 -30.5s-28.667 -59.166 -30 -116.499z" />
    <glyph glyph-name="Gbreve" unicode="&#x11e;" horiz-adv-x="629" 
d="M431 886l49 -8c3.33301 -39.333 -9 -71.5 -37 -96.5s-66.333 -37.5 -115 -37.5c-49.333 0 -88 12.5 -116 37.5s-40.333 57.167 -37 96.5l49 8c0 -47.333 35 -71 105 -71c32.667 0 58 6.16699 76 18.5s26.667 29.833 26 52.5zM564 398l0.000976562 -397.999h-74l-10 70
c-58 -55.333 -126.333 -83 -205 -83c-76 0 -131 29 -165 87s-51 149.333 -51 274c0 92.667 9.66699 164.5 29 215.5s49.666 87 90.999 108s99.333 31.5 174 31.5c72 0 136 -7 192 -21l-10 -76c-56 5.33301 -114.667 8 -176 8c-31.333 0 -56.666 -1.83301 -75.999 -5.5
s-37.333 -10.834 -54 -21.501s-29.167 -26.334 -37.5 -47.001s-14.833 -47 -19.5 -79s-7 -72 -7 -120c0 -99.333 10.167 -168.666 30.5 -207.999s56.166 -59 107.499 -59c48.667 0 103 20.333 163 61v263h98z" />
    <glyph glyph-name="gbreve" unicode="&#x11f;" horiz-adv-x="561" 
d="M376 706l48.001 -7c3.33301 -40 -8.83398 -72.5 -36.501 -97.5s-65.834 -37.5 -114.501 -37.5c-49.333 0 -88.166 12.5 -116.499 37.5s-40.833 57.5 -37.5 97.5l49 7c0 -47.333 35 -71 105 -71c32.667 0 58 6.16699 76 18.5s27 29.833 27 52.5zM535.001 436
l-68.999 -7.00098c11.333 -22.667 17 -51 17 -85c0 -55.333 -15.833 -95.166 -47.5 -119.499s-86.5 -36.5 -164.5 -36.5c-36 0 -68.333 2.66699 -97 8c-10.667 -14 -13.5 -29.333 -8.5 -46s18.167 -26.667 39.5 -30l180 -28c46 -6.66699 78.833 -21 98.5 -43
s29.5 -54 29.5 -96c0 -58 -17 -98 -51 -120s-95.667 -33 -185 -33c-90 0 -152.333 10.833 -187 32.5s-52 60.834 -52 117.501c0 27.333 6 49 18 65s32 32 60 48c-23.333 19.333 -33.833 45.166 -31.5 77.499s15.166 56.833 38.499 73.5c-42.667 22 -64 65 -64 129
c0 57.333 15.667 98 47 122s86.666 36 165.999 36c48.667 0 87.334 -4.33301 116.001 -13h152zM271.002 260.999c45.333 0 77 6.16699 95 18.5s27 33.833 27 64.5c0 31.333 -8.83301 53 -26.5 65s-49.5 18 -95.5 18c-46.667 0 -79 -6 -97 -18s-27 -33.667 -27 -65
c0 -30 9.16699 -51.333 27.5 -64s50.5 -19 96.5 -19zM335.002 20.999l-156.999 21c-30.667 -25.333 -46 -53.333 -46 -84c0 -32 9.16699 -52.667 27.5 -62s57.166 -14 116.499 -14c57.333 0 95.333 4.83301 114 14.5s28 30.167 28 61.5c0 22.667 -5 37.5 -15 44.5
s-32.667 13.167 -68 18.5z" />
    <glyph glyph-name="Gdotaccent" unicode="&#x120;" horiz-adv-x="629" 
d="M344 756h-31c-19.333 0 -29 9.33301 -29 28v56c0 19.333 9.66699 29 29 29h31c18.667 0 28 -9.66699 28 -29v-56c0 -18.667 -9.33301 -28 -28 -28zM564 398l0.000976562 -397.999h-74l-10 70c-58 -55.333 -126.333 -83 -205 -83c-76 0 -131 29 -165 87
s-51 149.333 -51 274c0 92.667 9.66699 164.5 29 215.5s49.666 87 90.999 108s99.333 31.5 174 31.5c72 0 136 -7 192 -21l-10 -76c-56 5.33301 -114.667 8 -176 8c-31.333 0 -56.666 -1.83301 -75.999 -5.5s-37.333 -10.834 -54 -21.501s-29.167 -26.334 -37.5 -47.001
s-14.833 -47 -19.5 -79s-7 -72 -7 -120c0 -99.333 10.167 -168.666 30.5 -207.999s56.166 -59 107.499 -59c48.667 0 103 20.333 163 61v263h98z" />
    <glyph glyph-name="gdotaccent" unicode="&#x121;" horiz-adv-x="561" 
d="M288 576h-31c-18.667 0 -28 9.66699 -28 29v56c0 18.667 9.33301 28 28 28h31c19.333 0 29 -9.33301 29 -28v-56c0 -19.333 -9.66699 -29 -29 -29zM535 436l-68.999 -7.00098c11.333 -22.667 17 -51 17 -85c0 -55.333 -15.833 -95.166 -47.5 -119.499
s-86.5 -36.5 -164.5 -36.5c-36 0 -68.333 2.66699 -97 8c-10.667 -14 -13.5 -29.333 -8.5 -46s18.167 -26.667 39.5 -30l180 -28c46 -6.66699 78.833 -21 98.5 -43s29.5 -54 29.5 -96c0 -58 -17 -98 -51 -120s-95.667 -33 -185 -33c-90 0 -152.333 10.833 -187 32.5
s-52 60.834 -52 117.501c0 27.333 6 49 18 65s32 32 60 48c-23.333 19.333 -33.833 45.166 -31.5 77.499s15.166 56.833 38.499 73.5c-42.667 22 -64 65 -64 129c0 57.333 15.667 98 47 122s86.666 36 165.999 36c48.667 0 87.334 -4.33301 116.001 -13h152z
M271.001 260.999c45.333 0 77 6.16699 95 18.5s27 33.833 27 64.5c0 31.333 -8.83301 53 -26.5 65s-49.5 18 -95.5 18c-46.667 0 -79 -6 -97 -18s-27 -33.667 -27 -65c0 -30 9.16699 -51.333 27.5 -64s50.5 -19 96.5 -19zM335.001 20.999l-156.999 21
c-30.667 -25.333 -46 -53.333 -46 -84c0 -32 9.16699 -52.667 27.5 -62s57.166 -14 116.499 -14c57.333 0 95.333 4.83301 114 14.5s28 30.167 28 61.5c0 22.667 -5 37.5 -15 44.5s-32.667 13.167 -68 18.5z" />
    <glyph glyph-name="Gcommaaccent" unicode="&#x122;" horiz-adv-x="629" 
d="M564 398l0.000976562 -397.999h-74l-10 70c-58 -55.333 -126.333 -83 -205 -83c-76 0 -131 29 -165 87s-51 149.333 -51 274c0 92.667 9.66699 164.5 29 215.5s49.666 87 90.999 108s99.333 31.5 174 31.5c72 0 136 -7 192 -21l-10 -76c-56 5.33301 -114.667 8 -176 8
c-31.333 0 -56.666 -1.83301 -75.999 -5.5s-37.333 -10.834 -54 -21.501s-29.167 -26.334 -37.5 -47.001s-14.833 -47 -19.5 -79s-7 -72 -7 -120c0 -99.333 10.167 -168.666 30.5 -207.999s56.166 -59 107.499 -59c48.667 0 103 20.333 163 61v263h98zM313.001 -57.999
l25.999 0.000976562c12 0 20.167 -2.16699 24.5 -6.5s6.5 -12.166 6.5 -23.499v-54c-0.666992 -50 -12 -95 -34 -135l-42 11c6.66699 33.333 10 67.666 10 102.999c-7.33301 0 -13.333 2.33301 -18 7s-6.66699 11 -6 19v49c0.666992 11.333 3.33398 19.166 8.00098 23.499
s13 6.5 25 6.5z" />
    <glyph glyph-name="gcommaaccent" unicode="&#x123;" horiz-adv-x="561" 
d="M298 556l-25.001 0.000976562c-12 0 -20.333 2.16699 -25 6.5s-7 12.166 -7 23.499v54c0.666992 48.667 12.334 93.667 35.001 135l42 -11c-6.66699 -32.667 -10 -67 -10 -103c16 0 24 -8.66699 24 -26v-49c-0.666992 -20 -12 -30 -34 -30zM534.999 436.001
l-68.999 -7.00098c11.333 -22.667 17 -51 17 -85c0 -55.333 -15.833 -95.166 -47.5 -119.499s-86.5 -36.5 -164.5 -36.5c-36 0 -68.333 2.66699 -97 8c-10.667 -14 -13.5 -29.333 -8.5 -46s18.167 -26.667 39.5 -30l180 -28c46 -6.66699 78.833 -21 98.5 -43
s29.5 -54 29.5 -96c0 -58 -17 -98 -51 -120s-95.667 -33 -185 -33c-90 0 -152.333 10.833 -187 32.5s-52 60.834 -52 117.501c0 27.333 6 49 18 65s32 32 60 48c-23.333 19.333 -33.833 45.166 -31.5 77.499s15.166 56.833 38.499 73.5c-42.667 22 -64 65 -64 129
c0 57.333 15.667 98 47 122s86.666 36 165.999 36c48.667 0 87.334 -4.33301 116.001 -13h152zM271 261c45.333 0 77 6.16699 95 18.5s27 33.833 27 64.5c0 31.333 -8.83301 53 -26.5 65s-49.5 18 -95.5 18c-46.667 0 -79 -6 -97 -18s-27 -33.667 -27 -65
c0 -30 9.16699 -51.333 27.5 -64s50.5 -19 96.5 -19zM335 21l-156.999 21c-30.667 -25.333 -46 -53.333 -46 -84c0 -32 9.16699 -52.667 27.5 -62s57.166 -14 116.499 -14c57.333 0 95.333 4.83301 114 14.5s28 30.167 28 61.5c0 22.667 -5 37.5 -15 44.5
s-32.667 13.167 -68 18.5z" />
    <glyph glyph-name="Hbar" unicode="&#x126;" horiz-adv-x="678" 
d="M658 518h-68v-518h-100v325h-302v-325h-100v518h-69v52h69v120h100v-120h302v120h100v-120h68v-52zM490 518h-302v-107h302v107z" />
    <glyph glyph-name="hbar" unicode="&#x127;" horiz-adv-x="587" 
d="M177 570l-0.00195312 -59.002c0 -33.333 -2.33301 -65 -7 -95c77.333 56.667 148.333 85 213 85c42.667 0 75.334 -11.5 98.001 -34.5s34 -56.5 34 -100.5v-366h-97v338c0 30.667 -4.5 51.834 -13.5 63.501s-25.167 17.5 -48.5 17.5
c-25.333 0 -51.166 -5.66699 -77.499 -17s-60.5 -29.666 -102.5 -54.999v-347h-97v570h-74v55h74v75h97v-75h142v-55h-141z" />
    <glyph glyph-name="Imacron" unicode="&#x12a;" horiz-adv-x="268" 
d="M275 782h-282v71h282v-71zM184 0h-100v690h100v-690z" />
    <glyph glyph-name="imacron" unicode="&#x12b;" horiz-adv-x="255" 
d="M269 603h-282v71h282v-71zM176 0h-97v488h97v-488z" />
    <glyph glyph-name="Iogonek" unicode="&#x12e;" horiz-adv-x="268" 
d="M176 -153l11.999 -39.999c-25.333 -10 -48.166 -16.333 -68.499 -19s-36.666 -1.66699 -48.999 3s-22.666 11.5 -30.999 20.5s-12.333 19.833 -12 32.5s2.5 26 6.5 40c13.333 39.333 44.666 78 93.999 116h-44v690h100v-690h-12
c-34.667 -40.667 -58.334 -77.667 -71.001 -111c-10 -22.667 -7.5 -37.834 7.5 -45.501s37.5 -6.5 67.5 3.5z" />
    <glyph glyph-name="iogonek" unicode="&#x12f;" horiz-adv-x="255" 
d="M144 576h-31c-19.333 0 -29 9.66699 -29 29v56c0 18.667 9.66699 28 29 28h31c18.667 0 28 -9.33301 28 -28v-56c0 -19.333 -9.33301 -29 -28 -29zM172 -153l11.998 -39.999c-25.333 -10 -48.166 -16.333 -68.499 -19s-36.666 -1.66699 -48.999 3
s-22.666 11.5 -30.999 20.5s-12.333 19.833 -12 32.5s2.5 26 6.5 40c13.333 39.333 44.333 78 93 116h-44v488h97v-488h-8c-34.667 -40.667 -58.334 -77.667 -71.001 -111c-10 -22.667 -7.5 -37.834 7.5 -45.501s37.5 -6.5 67.5 3.5z" />
    <glyph glyph-name="Idotaccent" unicode="&#x130;" horiz-adv-x="268" 
d="M119 869h31c18.667 0 28 -9.66699 28 -29v-56c0 -18.667 -9.33301 -28 -28 -28h-31c-19.333 0 -29 9.33301 -29 28v56c0 19.333 9.66699 29 29 29zM184 0h-100v690h100v-690z" />
    <glyph glyph-name="dotlessi" unicode="&#x131;" horiz-adv-x="255" 
d="M176 0h-97v488h97v-488z" />
    <glyph glyph-name="IJ" unicode="&#x132;" horiz-adv-x="611" 
d="M184 0h-100v690h100v-690zM530 690l0.000976562 -539c0 -52 -11.667 -91.833 -35 -119.5s-57 -41.167 -101 -40.5c-40.667 0 -73.334 4.33301 -98.001 13l11 72h48c50 0 75 23.333 75 70v544h100z" />
    <glyph glyph-name="ij" unicode="&#x133;" horiz-adv-x="510" 
d="M104 696h46c18.667 0 28 -9.33301 28 -28v-56c0 -19.333 -9.33301 -29 -28 -29h-46c-18.667 0 -28 9.66699 -28 29v56c0 18.667 9.33301 28 28 28zM360 696h46c18.667 0 28 -9.33301 28 -28v-56c0 -19.333 -9.33301 -29 -28 -29h-46c-19.333 0 -29 9.66699 -29 29v56
c0 18.667 9.66699 28 29 28zM175 0h-96v488h96v-488zM431 488l0.000976562 -493c0 -40 -8.83301 -77.333 -26.5 -112s-41.834 -63 -72.501 -85l-54 42c37.333 47.333 56 99 56 155v493h97z" />
    <glyph glyph-name="Kcommaaccent" unicode="&#x136;" horiz-adv-x="597" 
d="M580 0h-111l-214 319h-78c4.66699 -28 7 -51.667 7 -71v-248h-100v690h100v-212c0 -28.667 -2.33301 -54.667 -7 -78h78l203 290h109l-195 -282c-10.667 -15.333 -24.667 -31.333 -42 -48v-3c18.667 -16 34.667 -33.333 48 -52zM304 -58l26.001 0.000976562
c12 0 20.167 -2.16699 24.5 -6.5s6.5 -12.166 6.5 -23.499v-54c-0.666992 -50 -12 -95 -34 -135l-42 11c6.66699 33.333 10 67.666 10 102.999c-16.667 0 -25 8.66699 -25 26v49c0.666992 11.333 3.66699 19.166 9 23.499s13.666 6.5 24.999 6.5z" />
    <glyph glyph-name="kcommaaccent" unicode="&#x137;" horiz-adv-x="517" 
d="M502 0l-112 0.000976562l-162 240h-61c3.33301 -28.667 5 -54 5 -76v-164h-97v700h98v-307c0 -28.667 -2 -56.334 -6 -83.001h60l147 178h112l-147 -177c-8.66699 -12 -20.667 -24 -36 -36v-2c12.667 -10 24.667 -24 36 -42zM267 -57.999h26.001
c11.333 0 19.333 -2.16699 24 -6.5s7 -12.166 7 -23.499v-54c-0.666992 -50 -12 -95 -34 -135l-42 11c6.66699 38.667 10 73 10 103c-16.667 0 -25 8.66699 -25 26v49c0.666992 11.333 3.66699 19.166 9 23.499s13.666 6.5 24.999 6.5z" />
    <glyph glyph-name="Lacute" unicode="&#x139;" horiz-adv-x="515" 
d="M296 843l-199 -117l-32 45l177 146zM182 690l0.00195312 -542c0 -23.333 4.66699 -39.833 14 -49.5s25.666 -14.5 48.999 -14.5h245l5 -77c-64.667 -6 -153.334 -9 -266.001 -9c-98 0 -147 45.333 -147 136v556h100z" />
    <glyph glyph-name="lacute" unicode="&#x13a;" horiz-adv-x="302" 
d="M290 864l-199 -116l-33 44l177 147zM173 700v-559c-0.666992 -20.667 4.33301 -36.167 15 -46.5s26.667 -15.5 48 -15.5h45l11 -75c-19.333 -8.66699 -50.333 -13 -93 -13c-38 0 -68 11.167 -90 33.5s-33 53.833 -33 94.5v581h97z" />
    <glyph glyph-name="Lcommaaccent" unicode="&#x13b;" horiz-adv-x="515" 
d="M182 690l0.00195312 -542c0 -23.333 4.66699 -39.833 14 -49.5s25.666 -14.5 48.999 -14.5h245l5 -77c-64.667 -6 -153.334 -9 -266.001 -9c-98 0 -147 45.333 -147 136v556h100zM283.002 -59l25.001 -0.000976562c12 0 20.333 -2.16699 25 -6.5s7 -12.166 7 -23.499v-54
c-0.666992 -48.667 -12.334 -93.667 -35.001 -135l-42 11c6.66699 32.667 10 67 10 103c-16 0 -24 8.66699 -24 26v49c0.666992 20 12 30 34 30z" />
    <glyph glyph-name="lcommaaccent" unicode="&#x13c;" horiz-adv-x="302" 
d="M173 700v-559c-0.666992 -20.667 4.33301 -36.167 15 -46.5s26.667 -15.5 48 -15.5h45l11 -75c-19.333 -8.66699 -50.333 -13 -93 -13c-38 0 -68 11.167 -90 33.5s-33 53.833 -33 94.5v581h97zM162 -59l25.001 -0.000976562c12 0 20.333 -2.16699 25 -6.5
s7 -12.166 7 -23.499v-54c-0.666992 -48.667 -12.334 -93.667 -35.001 -135l-42 11c6.66699 32.667 10 67 10 103c-16 0 -24 8.66699 -24 26v49c0.666992 20 12 30 34 30z" />
    <glyph glyph-name="Lcaron" unicode="&#x13d;" horiz-adv-x="515" 
d="M326 691l26.001 -0.000976562c12 0 20.333 -2.16699 25 -6.5s7 -12.166 7 -23.499v-54c-0.666992 -48.667 -12.334 -93.667 -35.001 -135l-42 11c6.66699 32.667 10 67 10 103c-7.33301 0 -13.333 2.33301 -18 7s-6.66699 11 -6 19v49c0.666992 20 11.667 30 33 30z
M182.001 689.999l0.00195312 -542c0 -23.333 4.66699 -39.833 14 -49.5s25.666 -14.5 48.999 -14.5h245l5 -77c-64.667 -6 -153.334 -9 -266.001 -9c-98 0 -147 45.333 -147 136v556h100z" />
    <glyph glyph-name="lcaron" unicode="&#x13e;" horiz-adv-x="302" 
d="M259 703h25.001c12 0 20.333 -2 25 -6s7 -11.333 7 -22v-49c-0.666992 -44 -12.334 -85.333 -35.001 -124l-42 10c6.66699 30.667 10 62 10 94c-16 0 -24 8 -24 24v45c0.666992 18.667 12 28 34 28zM173.001 700v-559c-0.666992 -20.667 4.33301 -36.167 15 -46.5
s26.667 -15.5 48 -15.5h45l11 -75c-19.333 -8.66699 -50.333 -13 -93 -13c-38 0 -68 11.167 -90 33.5s-33 53.833 -33 94.5v581h97z" />
    <glyph glyph-name="Ldot" unicode="&#x13f;" horiz-adv-x="515" 
d="M182 690l0.00195312 -542c0 -23.333 4.66699 -39.833 14 -49.5s25.666 -14.5 48.999 -14.5h245l5 -77c-64.667 -6 -153.334 -9 -266.001 -9c-98 0 -147 45.333 -147 136v556h100zM409.002 340h-31c-19.333 0 -29 9.33301 -29 28v56c0 19.333 9.66699 29 29 29h31
c18.667 0 28 -9.66699 28 -29v-56c0 -18.667 -9.33301 -28 -28 -28z" />
    <glyph glyph-name="ldot" unicode="&#x140;" horiz-adv-x="327" 
d="M173 700v-559c-0.666992 -20.667 4.33301 -36.167 15 -46.5s26.667 -15.5 48 -15.5h45l11 -75c-19.333 -8.66699 -50.333 -13 -93 -13c-38 0 -68 11.167 -90 33.5s-33 53.833 -33 94.5v581h97zM301 333h-31c-19.333 0 -29 9.66699 -29 29v56c0 18.667 9.66699 28 29 28
h31c18.667 0 28 -9.33301 28 -28v-56c0 -19.333 -9.33301 -29 -28 -29z" />
    <glyph glyph-name="Lslash" unicode="&#x141;" horiz-adv-x="521" 
d="M497 84l4 -77c-64.667 -6 -153 -9 -265 -9c-98.667 0 -148 45.333 -148 136v197l-69 -29v61l69 29v298h100v-257l114 47v-61l-114 -47v-224c0 -23.333 4.83301 -39.833 14.5 -49.5s26.167 -14.5 49.5 -14.5h245z" />
    <glyph glyph-name="lslash" unicode="&#x142;" horiz-adv-x="332" 
d="M302 79l11.999 -75c-19.333 -8.66699 -50.666 -13 -93.999 -13c-38 0 -68 11.167 -90 33.5s-33 53.833 -33 94.5v210l-78 -33v62l78 33v309h97v-269l106 44v-62l-107 -44v-228c0 -41.333 21.333 -62 64 -62h45z" />
    <glyph glyph-name="Nacute" unicode="&#x143;" horiz-adv-x="708" 
d="M524 843l-199 -117l-32 45l176 146zM624 690l-0.000976562 -651c0 -26 -12.333 -39 -37 -39h-95c-20 -0 -34.333 10.333 -43 31l-215 470c-24 52 -37.667 84 -41 96h-14c3.33301 -26.667 5 -58.667 5 -96v-501h-100v651c0 26 12.667 39 38 39h92
c19.333 0 34 -10.333 44 -31l209 -458c2.66699 -6 7.33398 -15.833 14.001 -29.5l18.5 -39l15.5 -34.5h15c-3.33301 40 -5 75.667 -5 107v485h99z" />
    <glyph glyph-name="nacute" unicode="&#x144;" horiz-adv-x="583" 
d="M262 547l-33 44l177 147l55 -74zM157 488l6 -75.001c76.667 58.667 148.667 88 216 88c43.333 0 76.166 -11.5 98.499 -34.5s33.5 -56.5 33.5 -100.5v-366h-97v338c0 30.667 -4.5 51.834 -13.5 63.501s-25.167 17.5 -48.5 17.5c-25.333 0 -50.666 -5.66699 -75.999 -17
s-60 -30 -104 -56v-346h-97v488h82z" />
    <glyph glyph-name="Ncommaaccent" unicode="&#x145;" horiz-adv-x="708" 
d="M624 690l-0.000976562 -651c0 -26 -12.333 -39 -37 -39h-95c-20 -0 -34.333 10.333 -43 31l-215 470c-24 52 -37.667 84 -41 96h-14c3.33301 -26.667 5 -58.667 5 -96v-501h-100v651c0 26 12.667 39 38 39h92c19.333 0 34 -10.333 44 -31l209 -458
c2.66699 -6 7.33398 -15.833 14.001 -29.5l18.5 -39l15.5 -34.5h15c-3.33301 40 -5 75.667 -5 107v485h99zM328.999 -58l26.001 0.000976562c12 0 20.167 -2.16699 24.5 -6.5s6.5 -12.166 6.5 -23.499v-54c-0.666992 -50 -12 -95 -34 -135l-42 11
c6.66699 33.333 10 67.666 10 102.999c-16.667 0 -25 8.66699 -25 26v49c0.666992 11.333 3.66699 19.166 9 23.499s13.666 6.5 24.999 6.5z" />
    <glyph glyph-name="ncommaaccent" unicode="&#x146;" horiz-adv-x="583" 
d="M157 488l6 -75.001c76.667 58.667 148.667 88 216 88c43.333 0 76.166 -11.5 98.499 -34.5s33.5 -56.5 33.5 -100.5v-366h-97v338c0 30.667 -4.5 51.834 -13.5 63.501s-25.167 17.5 -48.5 17.5c-25.333 0 -50.666 -5.66699 -75.999 -17s-60 -30 -104 -56v-346h-97v488h82
zM279 -58.001h25.001c12 0 20.333 -2.16699 25 -6.5s7 -12.166 7 -23.499v-54c-0.666992 -48.667 -12.334 -93.667 -35.001 -135l-42 11c6.66699 33.333 10 67.666 10 102.999c-16 0 -24 8.66699 -24 26v49c0.666992 20 12 30 34 30z" />
    <glyph glyph-name="Ncaron" unicode="&#x147;" horiz-adv-x="708" 
d="M529 872l-145 -129h-44l-144 129l32 41l130 -84h8l129 84zM624 690l-0.000976562 -651c0 -26 -12.333 -39 -37 -39h-95c-20 -0 -34.333 10.333 -43 31l-215 470c-24 52 -37.667 84 -41 96h-14c3.33301 -26.667 5 -58.667 5 -96v-501h-100v651c0 26 12.667 39 38 39h92
c19.333 0 34 -10.333 44 -31l209 -458c2.66699 -6 7.33398 -15.833 14.001 -29.5l18.5 -39l15.5 -34.5h15c-3.33301 40 -5 75.667 -5 107v485h99z" />
    <glyph glyph-name="ncaron" unicode="&#x148;" horiz-adv-x="583" 
d="M277 563l-144 129l32 42l130 -85h8l129 85l34 -42l-145 -129h-44zM157 488l6 -75.001c76.667 58.667 148.667 88 216 88c43.333 0 76.166 -11.5 98.499 -34.5s33.5 -56.5 33.5 -100.5v-366h-97v338c0 30.667 -4.5 51.834 -13.5 63.501s-25.167 17.5 -48.5 17.5
c-25.333 0 -50.666 -5.66699 -75.999 -17s-60 -30 -104 -56v-346h-97v488h82z" />
    <glyph glyph-name="Eng" unicode="&#x14a;" horiz-adv-x="708" 
d="M624 690l-0.000976562 -765c0 -44.667 -12.333 -79.334 -37 -104.001s-58 -36.667 -100 -36c-35.333 0 -66.333 4.66699 -93 14l11 63h47c52 0 78 23.667 78 71v67h-35c-9.33301 0 -19 9.33301 -29 28l-233 455c-12.667 24 -26.667 56 -42 96h-12
c3.33301 -21.333 5 -53.666 5 -96.999v-482h-100v651c0 26 12.667 39 38 39h73c18.667 0 33.334 -10.333 44.001 -31l227 -440c13.333 -25.333 29.333 -60 48 -104h15c-3.33301 38.667 -5 73.667 -5 105v470h100z" />
    <glyph glyph-name="eng" unicode="&#x14b;" horiz-adv-x="583" 
d="M150 488l9.00098 -79.002c76.667 61.333 149.667 92 219 92c88.667 0 133 -45 133 -135v-430c0 -45.333 -10.833 -80.166 -32.5 -104.499s-52.834 -36.166 -93.501 -35.499c-33.333 0 -64 4.66699 -92 14l11 62h42c45.333 0 68 24 68 72v394
c0 27.333 -4.66699 46.5 -14 57.5s-26.333 16.5 -51 16.5c-41.333 0 -100.333 -22 -177 -66v-346h-97v488h75z" />
    <glyph glyph-name="Omacron" unicode="&#x14c;" horiz-adv-x="669" 
d="M475 782h-283v71h283v-71zM334 703c102.667 0 174.334 -26 215.001 -78s61 -145.333 61 -280s-20.333 -228 -61 -280s-112.334 -78 -215.001 -78c-102 0 -173.333 26 -214 78s-61 145.333 -61 280s20.333 228 61 280s112 78 214 78zM334 614
c-64.667 0 -109.167 -19.333 -133.5 -58s-36.5 -109 -36.5 -211s12.167 -172.333 36.5 -211s68.833 -58 133.5 -58s109.334 19.333 134.001 58s37 109 37 211s-12.333 172.333 -37 211s-69.334 58 -134.001 58z" />
    <glyph glyph-name="omacron" unicode="&#x14d;" horiz-adv-x="570" 
d="M426 603h-283v71h283v-71zM285 501c84.667 0 144.667 -19.667 180 -59s53 -105.666 53 -198.999s-17.667 -159.333 -53 -198s-95.333 -58 -180 -58s-144.667 19.333 -180 58s-53 104.667 -53 198s17.667 159.666 53 198.999s95.333 59 180 59zM285 419
c-50.667 0 -85.334 -12.333 -104.001 -37s-28 -71 -28 -139c0 -67.333 9.33301 -113.333 28 -138s53.334 -37 104.001 -37s85.334 12.333 104.001 37s28 70.667 28 138c0 68 -9.33301 114.333 -28 139s-53.334 37 -104.001 37z" />
    <glyph glyph-name="Ohungarumlaut" unicode="&#x150;" horiz-adv-x="669" 
d="M375 881l-138 -161l-42 32l110 177zM544 881l-138 -161l-41 32l109 177zM334 703c102.667 0 174.334 -26 215.001 -78s61 -145.333 61 -280s-20.333 -228 -61 -280s-112.334 -78 -215.001 -78c-102 0 -173.333 26 -214 78s-61 145.333 -61 280s20.333 228 61 280
s112 78 214 78zM334 614c-64.667 0 -109.167 -19.333 -133.5 -58s-36.5 -109 -36.5 -211s12.167 -172.333 36.5 -211s68.833 -58 133.5 -58s109.334 19.333 134.001 58s37 109 37 211s-12.333 172.333 -37 211s-69.334 58 -134.001 58z" />
    <glyph glyph-name="ohungarumlaut" unicode="&#x151;" horiz-adv-x="570" 
d="M326 701l-138 -160l-42 31l110 177zM494 701l-137 -160l-42 31l110 177zM285 501c84.667 0 144.667 -19.667 180 -59s53 -105.666 53 -198.999s-17.667 -159.333 -53 -198s-95.333 -58 -180 -58s-144.667 19.333 -180 58s-53 104.667 -53 198s17.667 159.666 53 198.999
s95.333 59 180 59zM285 419c-50.667 0 -85.334 -12.333 -104.001 -37s-28 -71 -28 -139c0 -67.333 9.33301 -113.333 28 -138s53.334 -37 104.001 -37s85.334 12.333 104.001 37s28 70.667 28 138c0 68 -9.33301 114.333 -28 139s-53.334 37 -104.001 37z" />
    <glyph glyph-name="OE" unicode="&#x152;" horiz-adv-x="918" 
d="M864 83l3.99805 -77c-61.333 -5.33301 -161.666 -8 -300.999 -8c-26 0 -49 7.33301 -69 22c-48 -22 -102.667 -33 -164 -33c-102 0 -173.333 26 -214 78s-61 145.333 -61 280s20.333 228 61 280s112 78 214 78c60.667 0 117.334 -10.333 170.001 -31
c20.667 13.333 44.667 20 72 20c134.667 0 232 -2.66699 292 -8l-4 -78h-254c-23.333 0 -39.833 -4.83301 -49.5 -14.5s-14.5 -26.167 -14.5 -49.5v-138h279v-82h-279v-175c0 -23.333 4.83301 -39.833 14.5 -49.5s26.167 -14.5 49.5 -14.5h254zM444.998 134
l-0.000976562 422c0 13.333 2.33301 28 7 44c-39.333 9.33301 -78.666 14 -117.999 14c-64.667 0 -109.167 -19.167 -133.5 -57.5s-36.5 -108.833 -36.5 -211.5c0 -102 12.167 -172.333 36.5 -211s68.833 -58 133.5 -58c44 0 83 4.66699 117 14c-4 14 -6 28.667 -6 44z" />
    <glyph glyph-name="oe" unicode="&#x153;" horiz-adv-x="905" 
d="M704 202l-184.999 0.000976562c4 -53.333 16.667 -88.833 38 -106.5s57.666 -26.5 108.999 -26.5c43.333 0 99.666 4 168.999 12l10 -64c-44 -19.333 -108.333 -29 -193 -29c-87.333 0 -148.666 20 -183.999 60c-34.667 -40.667 -95.667 -61 -183 -61
c-84.667 0 -144.667 19.333 -180 58s-53 104.667 -53 198s17.667 159.666 53 198.999s95.333 59 180 59c85.333 0 145.666 -19.667 180.999 -59c33.333 39.333 90.333 59 171 59c146.667 0 220 -51 220 -153c0.666992 -55.333 -10.666 -93.5 -33.999 -114.5
s-63 -31.5 -119 -31.5zM285.001 68.001c47.333 0 80.667 10.833 100 32.5s30 61.5 32 119.5l-1 28c0 10.667 0.333008 18.667 1 24c-2.66699 56 -13.667 94.5 -33 115.5s-52.333 31.5 -99 31.5c-50.667 0 -85.334 -12.333 -104.001 -37s-28 -71 -28 -139
c0 -67.333 9.33301 -113.333 28 -138s53.334 -37 104.001 -37zM517.002 273.001h181c24 0 40.667 5.66699 50 17s13.333 31 12 59c-2 24 -12.5 41.667 -31.5 53s-48.5 17 -88.5 17c-44 0 -75 -10.5 -93 -31.5s-28 -59.167 -30 -114.5z" />
    <glyph glyph-name="Racute" unicode="&#x154;" horiz-adv-x="620" 
d="M266 726l-32 45l177 146l55 -74zM578 0l-106.999 -0.000976562l-59 215c-14.667 46 -43.667 69 -87 69l-142 1v-285h-99v690c56.667 6 137 9 241 9c83.333 0 142.166 -14.333 176.499 -43s51.5 -81 51.5 -157c0 -55.333 -9.83301 -97 -29.5 -125s-52.167 -45 -97.5 -51
v-5c44.667 -13.333 73.667 -46.666 87 -99.999zM183.001 369.999l140 -0.000976562c49.333 0.666992 83.166 9.5 101.499 26.5s27.5 49.167 27.5 96.5c0 46.667 -9.16699 78.334 -27.5 95.001s-52.166 25 -101.499 25c-68 0 -114.667 -0.333008 -140 -1v-242z" />
    <glyph glyph-name="racute" unicode="&#x155;" horiz-adv-x="404" 
d="M192 547l-32 44l177 147l54 -74zM150 488l10 -74c72.667 58 141 87 205 87h23l-11 -91h-30c-38 0 -96.333 -18.667 -175 -56v-354h-97v488h75z" />
    <glyph glyph-name="Rcommaaccent" unicode="&#x156;" horiz-adv-x="620" 
d="M578 0l-106.999 -0.000976562l-59 215c-14.667 46 -43.667 69 -87 69l-142 1v-285h-99v690c56.667 6 137 9 241 9c83.333 0 142.166 -14.333 176.499 -43s51.5 -81 51.5 -157c0 -55.333 -9.83301 -97 -29.5 -125s-52.167 -45 -97.5 -51v-5
c44.667 -13.333 73.667 -46.666 87 -99.999zM183.001 369.999l140 -0.000976562c49.333 0.666992 83.166 9.5 101.499 26.5s27.5 49.167 27.5 96.5c0 46.667 -9.16699 78.334 -27.5 95.001s-52.166 25 -101.499 25c-68 0 -114.667 -0.333008 -140 -1v-242zM316.001 -58.002
h25.002c12 0 20.333 -2.16699 25 -6.5s7 -12.166 7 -23.499v-54c-0.666992 -48.667 -12.334 -93.667 -35.001 -135l-41 11c6.66699 38.667 10 73 10 103c-16.667 0 -25 8.66699 -25 26v49c0.666992 11.333 3.66699 19.166 9 23.499s13.666 6.5 24.999 6.5z" />
    <glyph glyph-name="rcommaaccent" unicode="&#x157;" horiz-adv-x="404" 
d="M388 501l-11 -91h-30c-38 0 -96.333 -18.667 -175 -56v-354h-97v488h75l10 -74c72.667 58 141 87 205 87h23zM103 -58l25.001 -0.000976562c12 0 20.333 -2.16699 25 -6.5s7 -12.166 7 -23.499v-54c-0.666992 -48.667 -12.334 -93.667 -35.001 -135l-41 11
c6 34.667 9 69 9 103c-16 0 -24 8.66699 -24 26v49c0.666992 20 12 30 34 30z" />
    <glyph glyph-name="Rcaron" unicode="&#x158;" horiz-adv-x="620" 
d="M282 743l-144 129l32 41l130 -84h8l129 84l34 -41l-145 -129h-44zM578 0l-106.999 -0.000976562l-59 215c-14.667 46 -43.667 69 -87 69l-142 1v-285h-99v690c56.667 6 137 9 241 9c83.333 0 142.166 -14.333 176.499 -43s51.5 -81 51.5 -157
c0 -55.333 -9.83301 -97 -29.5 -125s-52.167 -45 -97.5 -51v-5c44.667 -13.333 73.667 -46.666 87 -99.999zM183.001 369.999l140 -0.000976562c49.333 0.666992 83.166 9.5 101.499 26.5s27.5 49.167 27.5 96.5c0 46.667 -9.16699 78.334 -27.5 95.001
s-52.166 25 -101.499 25c-68 0 -114.667 -0.333008 -140 -1v-242z" />
    <glyph glyph-name="rcaron" unicode="&#x159;" horiz-adv-x="404" 
d="M208 563l-144 129l32 42l130 -85h8l129 85l34 -42l-145 -129h-44zM150 488l10 -74c72.667 58 141 87 205 87h23l-11 -91h-30c-38 0 -96.333 -18.667 -175 -56v-354h-97v488h75z" />
    <glyph glyph-name="Sacute" unicode="&#x15a;" horiz-adv-x="563" 
d="M441 843l-199 -117l-33 45l177 146zM330 285l-140 38.999c-49.333 13.333 -84.5 35.833 -105.5 67.5s-31.5 74.5 -31.5 128.5c0 39.333 4.16699 71.166 12.5 95.499s22.833 42.833 43.5 55.5s43.667 21 69 25s59.333 6 102 6c81.333 0 150.666 -7 207.999 -21l-6 -73
c-96.667 3.33301 -162.667 5 -198 5c-52 0 -86.667 -5.16699 -104 -15.5s-26 -37.166 -26 -80.499c0 -34 6.16699 -58 18.5 -72s33.833 -25 64.5 -33l137 -38c51.333 -14 87.5 -36.667 108.5 -68s31.5 -74 31.5 -128c0 -76 -17.333 -126.667 -52 -152s-95.667 -38 -183 -38
c-73.333 0 -145.666 6.66699 -216.999 20l7 74c104 -3.33301 174.667 -5 212 -5c52 0.666992 86.833 7.33398 104.5 20.001s26.5 40 26.5 82c0 35.333 -6 59.833 -18 73.5s-33.333 24.5 -64 32.5z" />
    <glyph glyph-name="sacute" unicode="&#x15b;" horiz-adv-x="509" 
d="M422 664l-200 -117l-32 44l177 147zM295 192l-135.999 34.001c-40.667 10.667 -69.334 26.5 -86.001 47.5s-25 51.5 -25 91.5c0 54 14.5 90.333 43.5 109s78.833 27.667 149.5 27c78 -1.33301 147.333 -7 208 -17l-8 -70c-102 3.33301 -163.667 5 -185 5
c-47.333 0 -78.166 -2.83301 -92.499 -8.5s-21.5 -20.834 -21.5 -45.501c0 -11.333 1 -20.5 3 -27.5s7.16699 -12.833 15.5 -17.5s14.833 -7.83398 19.5 -9.50098s15 -4.83398 31 -9.50098l138 -34c41.333 -10.667 70.666 -25.834 87.999 -45.501s26 -50.167 26 -91.5
c0 -57.333 -15.833 -95.166 -47.5 -113.499s-86.5 -27.5 -164.5 -27.5c-68 0 -132.667 4.66699 -194 14l7 72c37.333 -3.33301 93 -5 167 -5c54.667 0 91.334 3.83301 110.001 11.5s28 23.834 28 48.501c0 10.667 -1.33301 19.5 -4 26.5s-8.33398 12.833 -17.001 17.5
s-15.5 7.83398 -20.5 9.50098s-15.833 4.5 -32.5 8.5z" />
    <glyph glyph-name="Scedilla" unicode="&#x15e;" horiz-adv-x="563" 
d="M330 285l-140 38.999c-49.333 13.333 -84.5 35.833 -105.5 67.5s-31.5 74.5 -31.5 128.5c0 39.333 4.16699 71.166 12.5 95.499s22.833 42.833 43.5 55.5s43.667 21 69 25s59.333 6 102 6c81.333 0 150.666 -7 207.999 -21l-6 -73c-96.667 3.33301 -162.667 5 -198 5
c-52 0 -86.667 -5.16699 -104 -15.5s-26 -37.166 -26 -80.499c0 -34 6.16699 -58 18.5 -72s33.833 -25 64.5 -33l137 -38c51.333 -14 87.5 -36.667 108.5 -68s31.5 -74 31.5 -128c0 -76 -17.333 -126.667 -52 -152s-95.667 -38 -183 -38
c-73.333 0 -145.666 6.66699 -216.999 20l7 74c104 -3.33301 174.667 -5 212 -5c52 0.666992 86.833 7.33398 104.5 20.001s26.5 40 26.5 82c0 35.333 -6 59.833 -18 73.5s-33.333 24.5 -64 32.5zM228 -99.001l10.001 45c44 4 74.833 1.66699 92.5 -7s26.167 -28 25.5 -58
c-0.666992 -43.333 -17.334 -76.5 -50.001 -99.5s-73.667 -31.167 -123 -24.5l16 51c25.333 -0.666992 46 5 62 17s24.667 28 26 48c0.666992 11.333 -3 18.833 -11 22.5s-24 5.5 -48 5.5z" />
    <glyph glyph-name="scedilla" unicode="&#x15f;" horiz-adv-x="509" 
d="M295 192l-135.999 34.001c-40.667 10.667 -69.334 26.5 -86.001 47.5s-25 51.5 -25 91.5c0 54 14.5 90.333 43.5 109s78.833 27.667 149.5 27c78 -1.33301 147.333 -7 208 -17l-8 -70c-102 3.33301 -163.667 5 -185 5c-47.333 0 -78.166 -2.83301 -92.499 -8.5
s-21.5 -20.834 -21.5 -45.501c0 -11.333 1 -20.5 3 -27.5s7.16699 -12.833 15.5 -17.5s14.833 -7.83398 19.5 -9.50098s15 -4.83398 31 -9.50098l138 -34c41.333 -10.667 70.666 -25.834 87.999 -45.501s26 -50.167 26 -91.5c0 -57.333 -15.833 -95.166 -47.5 -113.499
s-86.5 -27.5 -164.5 -27.5c-68 0 -132.667 4.66699 -194 14l7 72c37.333 -3.33301 93 -5 167 -5c54.667 0 91.334 3.83301 110.001 11.5s28 23.834 28 48.501c0 10.667 -1.33301 19.5 -4 26.5s-8.33398 12.833 -17.001 17.5s-15.5 7.83398 -20.5 9.50098
s-15.833 4.5 -32.5 8.5zM193.001 -97.999l10.002 44.998c44 4 74.833 1.66699 92.5 -7s26.167 -28 25.5 -58c-0.666992 -43.333 -17.334 -76.5 -50.001 -99.5s-73.667 -31.167 -123 -24.5l16 51c25.333 -0.666992 46.166 5 62.499 17s24.833 28 25.5 48
c0.666992 10.667 -3 17.834 -11 21.501s-24 5.83398 -48 6.50098z" />
    <glyph glyph-name="Scaron" unicode="&#x160;" horiz-adv-x="563" 
d="M446 872l-145 -129h-44l-144 129l32 41l130 -84h8l129 84zM330 285l-140 38.999c-49.333 13.333 -84.5 35.833 -105.5 67.5s-31.5 74.5 -31.5 128.5c0 39.333 4.16699 71.166 12.5 95.499s22.833 42.833 43.5 55.5s43.667 21 69 25s59.333 6 102 6
c81.333 0 150.666 -7 207.999 -21l-6 -73c-96.667 3.33301 -162.667 5 -198 5c-52 0 -86.667 -5.16699 -104 -15.5s-26 -37.166 -26 -80.499c0 -34 6.16699 -58 18.5 -72s33.833 -25 64.5 -33l137 -38c51.333 -14 87.5 -36.667 108.5 -68s31.5 -74 31.5 -128
c0 -76 -17.333 -126.667 -52 -152s-95.667 -38 -183 -38c-73.333 0 -145.666 6.66699 -216.999 20l7 74c104 -3.33301 174.667 -5 212 -5c52 0.666992 86.833 7.33398 104.5 20.001s26.5 40 26.5 82c0 35.333 -6 59.833 -18 73.5s-33.333 24.5 -64 32.5z" />
    <glyph glyph-name="scaron" unicode="&#x161;" horiz-adv-x="509" 
d="M427 692l-145 -129h-44l-144 129l32 42l130 -85h8l129 85zM295 192l-135.999 34.001c-40.667 10.667 -69.334 26.5 -86.001 47.5s-25 51.5 -25 91.5c0 54 14.5 90.333 43.5 109s78.833 27.667 149.5 27c78 -1.33301 147.333 -7 208 -17l-8 -70
c-102 3.33301 -163.667 5 -185 5c-47.333 0 -78.166 -2.83301 -92.499 -8.5s-21.5 -20.834 -21.5 -45.501c0 -11.333 1 -20.5 3 -27.5s7.16699 -12.833 15.5 -17.5s14.833 -7.83398 19.5 -9.50098s15 -4.83398 31 -9.50098l138 -34
c41.333 -10.667 70.666 -25.834 87.999 -45.501s26 -50.167 26 -91.5c0 -57.333 -15.833 -95.166 -47.5 -113.499s-86.5 -27.5 -164.5 -27.5c-68 0 -132.667 4.66699 -194 14l7 72c37.333 -3.33301 93 -5 167 -5c54.667 0 91.334 3.83301 110.001 11.5s28 23.834 28 48.501
c0 10.667 -1.33301 19.5 -4 26.5s-8.33398 12.833 -17.001 17.5s-15.5 7.83398 -20.5 9.50098s-15.833 4.5 -32.5 8.5z" />
    <glyph glyph-name="Tcedilla" unicode="&#x162;" horiz-adv-x="584" 
d="M561 690v-89h-219v-601h-101v601h-217v89h537zM233 -87l10.0029 44.998c43.333 4 74 1.66699 92 -7s26.667 -28 26 -58c-1.33301 -43.333 -18.333 -76.5 -51 -99.5s-73.334 -31.167 -122.001 -24.5l15 51c25.333 -0.666992 46.166 5 62.499 17s25.166 28 26.499 48
c0 10.667 -3.83301 17.834 -11.5 21.501s-23.5 5.83398 -47.5 6.50098z" />
    <glyph glyph-name="tcedilla" unicode="&#x163;" horiz-adv-x="388" 
d="M345 79l11 -75c-30.667 -8.66699 -69 -13 -115 -13c-41.333 0 -72.833 11.833 -94.5 35.5s-32.5 57.5 -32.5 101.5v285h-89v70l89 4v144h96v-143h151v-75h-151v-272c0 -22.667 4.83301 -38.667 14.5 -48s26.167 -14 49.5 -14h71zM162 -97l10.0029 45
c43.333 4.66699 74 2.5 92 -6.5s26.667 -28.5 26 -58.5c-1.33301 -43.333 -18.333 -76.333 -51 -99s-73.334 -31 -122.001 -25l15 51c25.333 -0.666992 46.166 5.16602 62.499 17.499s25.166 28.5 26.499 48.5c0.666992 10.667 -3 17.834 -11 21.501s-24 5.5 -48 5.5z" />
    <glyph glyph-name="Tcaron" unicode="&#x164;" horiz-adv-x="584" 
d="M271 743l-144 129l32 41l130 -84h8l129 84l33 -41l-144 -129h-44zM561 601h-219v-601h-101v601h-217v89h537v-89z" />
    <glyph glyph-name="tcaron" unicode="&#x165;" horiz-adv-x="388" 
d="M327 556l-41.999 10.999c6.66699 32.667 10 67 10 103c-16 0 -24 8.66699 -24 26v49c0.666992 20 12 30 34 30h25c12 0 20.333 -2.16699 25 -6.5s7 -12.166 7 -23.499v-54c-0.666992 -48.667 -12.334 -93.667 -35.001 -135zM210.001 412.999v-272
c0 -22.667 4.83301 -38.667 14.5 -48s26.167 -14 49.5 -14h71l11 -75c-30.667 -8.66699 -69 -13 -115 -13c-41.333 0 -72.833 11.833 -94.5 35.5s-32.5 57.5 -32.5 101.5v285h-89v70l89 4v144h96v-143h151v-75h-151z" />
    <glyph glyph-name="Tbar" unicode="&#x166;" horiz-adv-x="584" 
d="M342 601v-181h138v-55h-138v-365h-101v365h-138v55h138v181h-217v89h537v-89h-219z" />
    <glyph glyph-name="tbar" unicode="&#x167;" horiz-adv-x="388" 
d="M345 79l11 -75c-30.667 -8.66699 -69 -13 -115 -13c-41.333 0 -72.833 11.833 -94.5 35.5s-32.5 57.5 -32.5 101.5v141h-64v53h64v91h-89v70l89 4v144h96v-143h151v-75h-151v-91h126v-53h-126v-128c0 -22.667 4.83301 -38.667 14.5 -48s26.167 -14 49.5 -14h71z" />
    <glyph glyph-name="Umacron" unicode="&#x16a;" horiz-adv-x="666" 
d="M475 782h-282v71h282v-71zM587 690v-424c0 -101.333 -18.833 -173.166 -56.5 -215.499s-102.167 -63.5 -193.5 -63.5c-94 0 -160.5 21.167 -199.5 63.5s-58.5 114.166 -58.5 215.499v424h100v-424c0 -70.667 11.333 -120 34 -148s62.667 -42 120 -42
c56.667 0 96.5 14 119.5 42s34.5 77.333 34.5 148v424h100z" />
    <glyph glyph-name="umacron" unicode="&#x16b;" 
d="M430 607h-283v71h283v-71zM497 488l-0.000976562 -488h-77l-7 67c-71.333 -53.333 -140.666 -80 -207.999 -80c-88.667 0 -133 45 -133 135v366h97v-338c-0.666992 -30 4.33301 -50.833 15 -62.5s29 -17.5 55 -17.5c38 0 92 21.667 162 65v353h96z" />
    <glyph glyph-name="Uring" unicode="&#x16e;" horiz-adv-x="666" 
d="M334 927c30 0 55.667 -10.333 77 -31s32 -46 32 -76s-10.667 -55.167 -32 -75.5s-47 -30.5 -77 -30.5c-30.667 0 -56.5 10.167 -77.5 30.5s-31.5 45.5 -31.5 75.5s10.667 55.333 32 76s47 31 77 31zM334 879c-16 0 -29.334 -5.33301 -40.001 -16s-16 -25 -16 -43
c0 -17.333 5.33301 -31.333 16 -42s24 -16 40 -16c16.667 0 30.334 5.33301 41.001 16s16 24.667 16 42s-5.5 31.5 -16.5 42.5s-24.5 16.5 -40.5 16.5zM586.999 690v-424c0 -101.333 -18.833 -173.166 -56.5 -215.499s-102.167 -63.5 -193.5 -63.5
c-94 0 -160.5 21.167 -199.5 63.5s-58.5 114.166 -58.5 215.499v424h100v-424c0 -70.667 11.333 -120 34 -148s62.667 -42 120 -42c56.667 0 96.5 14 119.5 42s34.5 77.333 34.5 148v424h100z" />
    <glyph glyph-name="uring" unicode="&#x16f;" 
d="M289 539c-30.667 0 -56.5 10.167 -77.5 30.5s-31.5 45.5 -31.5 75.5s10.667 55.333 32 76s47 31 77 31s55.667 -10.333 77 -31s32 -46 32 -76s-10.667 -55.167 -32 -75.5s-47 -30.5 -77 -30.5zM289 704c-16.667 0 -30.334 -5.33301 -41.001 -16s-16 -25 -16 -43
c0 -17.333 5.33301 -31.333 16 -42s24.334 -16 41.001 -16c16 0 29.5 5.33301 40.5 16s16.5 24.667 16.5 42s-5.5 31.5 -16.5 42.5s-24.5 16.5 -40.5 16.5zM497 488l-0.000976562 -488h-77l-7 67c-71.333 -53.333 -140.666 -80 -207.999 -80c-88.667 0 -133 45 -133 135v366
h97v-338c-0.666992 -30 4.33301 -50.833 15 -62.5s29 -17.5 55 -17.5c38 0 92 21.667 162 65v353h96z" />
    <glyph glyph-name="Uhungarumlaut" unicode="&#x170;" horiz-adv-x="666" 
d="M376 881l-138 -161l-42 32l110 177zM544 881l-138 -161l-41 32l109 177zM587 690v-424c0 -101.333 -18.833 -173.166 -56.5 -215.499s-102.167 -63.5 -193.5 -63.5c-94 0 -160.5 21.167 -199.5 63.5s-58.5 114.166 -58.5 215.499v424h100v-424
c0 -70.667 11.333 -120 34 -148s62.667 -42 120 -42c56.667 0 96.5 14 119.5 42s34.5 77.333 34.5 148v424h100z" />
    <glyph glyph-name="uhungarumlaut" unicode="&#x171;" 
d="M192 545l-42 32l110 177l70 -48zM320 577l109 177l70 -48l-138 -161zM401 488h95.999v-488h-77l-7 67c-71.333 -53.333 -140.666 -80 -207.999 -80c-88.667 0 -133 45 -133 135v366h97v-338c-0.666992 -30 4.33301 -50.833 15 -62.5s29 -17.5 55 -17.5
c38 0 92 21.667 162 65v353z" />
    <glyph glyph-name="Uogonek" unicode="&#x172;" horiz-adv-x="666" 
d="M587 690l-0.00195312 -424.001c0 -94.667 -16.333 -163.5 -49 -206.5s-88 -66.833 -166 -71.5c-32.667 -37.333 -55.667 -73.333 -69 -108c-10 -23.333 -7.66699 -38.666 7 -45.999s37.334 -6 68.001 4l11 -40c-31.333 -12.667 -58.833 -19.334 -82.5 -20.001
s-41.167 3.5 -52.5 12.5s-19.333 20.833 -24 35.5s-3 31 5 49c13.333 38.667 43.333 76 90 112c-89.333 2 -152.666 24.333 -189.999 67s-56 113.334 -56 212.001v424h100v-424c0 -70.667 11.333 -120 34 -148s62.667 -42 120 -42c56.667 0 96.5 14 119.5 42
s34.5 77.333 34.5 148v424h100z" />
    <glyph glyph-name="uogonek" unicode="&#x173;" 
d="M504 -153l10.9971 -40c-31.333 -12.667 -58.833 -19.334 -82.5 -20.001s-41.167 3.5 -52.5 12.5s-19.333 20.833 -24 35.5s-3 31 5 49c12.667 38 44 76.667 94 116h-35l-7 67c-71.333 -53.333 -140.666 -80 -207.999 -80c-88.667 0 -133 45 -133 135v366h97v-338
c-0.666992 -30 4.33301 -50.833 15 -62.5s29 -17.5 55 -17.5c38 0 92 21.667 162 65v353h96v-488h3c-34 -40.667 -58 -77.667 -72 -111c-9.33301 -23.333 -6.66602 -38.666 8.00098 -45.999s37.334 -6 68.001 4z" />
    <glyph glyph-name="Wcircumflex" unicode="&#x174;" horiz-adv-x="951" 
d="M643 769l-34 -41l-129 97h-8l-130 -97l-32 41l131 130h70zM921 690l-131.999 -661c-6 -19.333 -19 -29 -39 -29h-111c-21.333 0 -34.333 10 -39 30l-100 507c-6.66699 34.667 -11.334 60.667 -14.001 78h-21l-15 -78l-99 -507
c-1.33301 -8.66699 -5.83301 -15.834 -13.5 -21.501s-16.167 -8.5 -25.5 -8.5h-112c-20.667 0 -33.334 9.66699 -38.001 29l-132 661h106l99 -526c2 -11.333 6 -40.666 12 -87.999h23c3.33301 28.667 8.33301 58 15 88l99 493c4.66699 22 17.334 33 38.001 33h107
c9.33301 0 17.5 -3.16699 24.5 -9.5s11.5 -14.166 13.5 -23.499l98 -494c5.33301 -26.667 10.333 -55.667 15 -87h23l6 43c2.66699 19.333 5 33.666 7 42.999l99 528h106z" />
    <glyph glyph-name="wcircumflex" unicode="&#x175;" horiz-adv-x="826" 
d="M580 591l-33 -42l-129 97h-8l-130 -97l-32 42l130 129h71zM803 488l-136.999 -461c-5.33301 -18 -17.666 -27 -36.999 -27h-87c-20 -0 -32.333 10.333 -37 31l-71 321c-1.33301 6 -2.83301 14.167 -4.5 24.5s-3.33398 19.833 -5.00098 28.5s-3.5 17 -5.5 25h-12l-16 -78
l-70 -321c-4.66699 -20.667 -17.334 -31 -38.001 -31h-86c-20 0 -32 9 -36 27l-138 461h100l94 -352c8 -33.333 13 -58.333 15 -75h13l17 75l72 322c4.66699 20 16.667 30 36 30h87c19.333 0 31.333 -10.333 36 -31l71 -321c1.33301 -6.66699 7 -31.667 17 -75h13
c4.66699 30 9.66699 55 15 75l94 352h100z" />
    <glyph glyph-name="Ycircumflex" unicode="&#x176;" horiz-adv-x="574" 
d="M152 729l-32 41l131 129h70l132 -129l-34 -41l-129 96h-8zM337 239v-238.999h-100v240l-228 450h106l139 -283c5.33301 -11.333 15.333 -38 30 -80h7c14 41.333 24 67.666 30 78.999l139 284h104z" />
    <glyph glyph-name="ycircumflex" unicode="&#x177;" horiz-adv-x="533" 
d="M135 549l-32 42l131 129h70l131 -129l-33 -42l-129 97h-8zM516 488l-189.001 -511c-45.333 -120 -120 -180.667 -224 -182l-10 64c38 11.333 68 27 90 47s39.667 45.333 53 76l7 18h-20c-18.667 -0 -30 8.33301 -34 25l-173 463h104l121 -355
c8 -20.667 13.667 -40.667 17 -60h14c6.66699 18 13.334 38 20.001 60l120 355h104z" />
    <glyph glyph-name="Ydieresis" unicode="&#x178;" horiz-adv-x="574" 
d="M214 765h-33c-16.667 0 -25 9 -25 27v54c0 17.333 8.33301 26 25 26h33c17.333 0 26 -8.66699 26 -26v-54c0 -18 -8.66699 -27 -26 -27zM391 765h-32c-17.333 0 -26 9 -26 27v54c0 17.333 8.66699 26 26 26h32c18 0 27 -8.66699 27 -26v-54c0 -18 -9 -27 -27 -27z
M337 239v-238.999h-100v240l-228 450h106l139 -283c5.33301 -11.333 15.333 -38 30 -80h7c14 41.333 24 67.666 30 78.999l139 284h104z" />
    <glyph glyph-name="Zacute" unicode="&#x179;" horiz-adv-x="568" 
d="M250 726l-32 45l177 146l54 -74zM521 85v-85h-473v85l357 520h-352v85h461v-85l-356 -520h363z" />
    <glyph glyph-name="zacute" unicode="&#x17a;" horiz-adv-x="512" 
d="M220 547l-32 44l177 147l54 -74zM464 79v-79h-416v79l305 330h-301v79h408v-79l-304 -330h308z" />
    <glyph glyph-name="Zdotaccent" unicode="&#x17b;" horiz-adv-x="568" 
d="M302 756h-31c-18.667 0 -28 9.33301 -28 28v56c0 19.333 9.33301 29 28 29h31c19.333 0 29 -9.66699 29 -29v-56c0 -18.667 -9.66699 -28 -29 -28zM521 85v-85h-473v85l357 520h-352v85h461v-85l-356 -520h363z" />
    <glyph glyph-name="zdotaccent" unicode="&#x17c;" horiz-adv-x="512" 
d="M272 576h-31c-18.667 0 -28 9.66699 -28 29v56c0 18.667 9.33301 28 28 28h31c19.333 0 29 -9.33301 29 -28v-56c0 -19.333 -9.66699 -29 -29 -29zM464 79v-79h-416v79l305 330h-301v79h408v-79l-304 -330h308z" />
    <glyph glyph-name="Zcaron" unicode="&#x17d;" horiz-adv-x="568" 
d="M266 743l-144 129l32 41l130 -84h8l129 84l34 -41l-145 -129h-44zM521 85v-85h-473v85l357 520h-352v85h461v-85l-356 -520h363z" />
    <glyph glyph-name="zcaron" unicode="&#x17e;" horiz-adv-x="512" 
d="M235 563l-144 129l33 42l129 -85h8l130 85l33 -42l-144 -129h-45zM464 79v-79h-416v79l305 330h-301v79h408v-79l-304 -330h308z" />
    <glyph glyph-name="florin" unicode="&#x192;" horiz-adv-x="449" 
d="M423 620h-71.002c-29.333 0 -50.166 -5 -62.499 -15s-19.833 -30 -22.5 -60l-13 -144h138l-7 -76h-138l-31 -330c-4 -47.333 -18 -83.166 -42 -107.499s-60.667 -36.5 -110 -36.5c-44 0 -79.667 2.33301 -107 7l12 73h67c28 0 48.167 5.66699 60.5 17
s20.166 30.666 23.499 57.999l30 319h-99l5 72l101 3l14 156c8.66699 96.667 61.334 145 158.001 145c46.667 0 82.334 -2.66699 107.001 -8z" />
    <glyph glyph-name="Scommaaccent" unicode="&#x218;" horiz-adv-x="563" 
d="M330 285l-140 38.999c-49.333 13.333 -84.5 35.833 -105.5 67.5s-31.5 74.5 -31.5 128.5c0 39.333 4.16699 71.166 12.5 95.499s22.833 42.833 43.5 55.5s43.667 21 69 25s59.333 6 102 6c81.333 0 150.666 -7 207.999 -21l-6 -73c-96.667 3.33301 -162.667 5 -198 5
c-52 0 -86.667 -5.16699 -104 -15.5s-26 -37.166 -26 -80.499c0 -34 6.16699 -58 18.5 -72s33.833 -25 64.5 -33l137 -38c51.333 -14 87.5 -36.667 108.5 -68s31.5 -74 31.5 -128c0 -76 -17.333 -126.667 -52 -152s-95.667 -38 -183 -38
c-73.333 0 -145.666 6.66699 -216.999 20l7 74c104 -3.33301 174.667 -5 212 -5c52 0.666992 86.833 7.33398 104.5 20.001s26.5 40 26.5 82c0 35.333 -6 59.833 -18 73.5s-33.333 24.5 -64 32.5zM272 -58.001h26.001c11.333 0 19.333 -2.16699 24 -6.5s7 -12.166 7 -23.499
v-54c-0.666992 -50 -12 -95 -34 -135l-42 11c6.66699 38.667 10 73 10 103c-16.667 0 -25 8.66699 -25 26v49c0.666992 11.333 3.66699 19.166 9 23.499s13.666 6.5 24.999 6.5z" />
    <glyph glyph-name="scommaaccent" unicode="&#x219;" horiz-adv-x="509" 
d="M295 192l-135.999 34.001c-40.667 10.667 -69.334 26.5 -86.001 47.5s-25 51.5 -25 91.5c0 54 14.5 90.333 43.5 109s78.833 27.667 149.5 27c78 -1.33301 147.333 -7 208 -17l-8 -70c-102 3.33301 -163.667 5 -185 5c-47.333 0 -78.166 -2.83301 -92.499 -8.5
s-21.5 -20.834 -21.5 -45.501c0 -11.333 1 -20.5 3 -27.5s7.16699 -12.833 15.5 -17.5s14.833 -7.83398 19.5 -9.50098s15 -4.83398 31 -9.50098l138 -34c41.333 -10.667 70.666 -25.834 87.999 -45.501s26 -50.167 26 -91.5c0 -57.333 -15.833 -95.166 -47.5 -113.499
s-86.5 -27.5 -164.5 -27.5c-68 0 -132.667 4.66699 -194 14l7 72c37.333 -3.33301 93 -5 167 -5c54.667 0 91.334 3.83301 110.001 11.5s28 23.834 28 48.501c0 10.667 -1.33301 19.5 -4 26.5s-8.33398 12.833 -17.001 17.5s-15.5 7.83398 -20.5 9.50098
s-15.833 4.5 -32.5 8.5zM248.001 -57.999h26.002c11.333 0 19.333 -2.16699 24 -6.5s7 -12.166 7 -23.499v-54c-0.666992 -50.667 -12.334 -95.667 -35.001 -135l-41 11c6.66699 38.667 10 73 10 103c-16.667 0 -25 8.66699 -25 26v49
c0.666992 11.333 3.66699 19.166 9 23.499s13.666 6.5 24.999 6.5z" />
    <glyph glyph-name="uni021A" unicode="&#x21a;" horiz-adv-x="584" 
d="M561 601h-219v-601h-101v601h-217v89h537v-89zM268 -58h25.002c12 0 20.333 -2.16699 25 -6.5s7 -12.166 7 -23.499v-54c-0.666992 -48.667 -12.334 -93.667 -35.001 -135l-41 11c6.66699 38.667 10 73 10 103c-16.667 0 -25 8.66699 -25 26v49
c0.666992 11.333 3.66699 19.166 9 23.499s13.666 6.5 24.999 6.5z" />
    <glyph glyph-name="uni021B" unicode="&#x21b;" horiz-adv-x="388" 
d="M345 79l11 -75c-30.667 -8.66699 -69 -13 -115 -13c-41.333 0 -72.833 11.833 -94.5 35.5s-32.5 57.5 -32.5 101.5v285h-89v70l89 4v144h96v-143h151v-75h-151v-272c0 -22.667 4.83301 -38.667 14.5 -48s26.167 -14 49.5 -14h71zM217 -58h26.002
c11.333 0 19.333 -2.16699 24 -6.5s7 -12.166 7 -23.499v-54c-0.666992 -50.667 -12.334 -95.667 -35.001 -135l-41 11c6.66699 38.667 10 73 10 103c-16.667 0 -25 8.66699 -25 26v49c0.666992 11.333 3.66699 19.166 9 23.499s13.666 6.5 24.999 6.5z" />
    <glyph glyph-name="circumflex" unicode="&#x2c6;" horiz-adv-x="425" 
d="M380 585l-33 -41l-130 96h-8l-129 -96l-32 41l130 129h71z" />
    <glyph glyph-name="caron" unicode="&#x2c7;" horiz-adv-x="425" 
d="M380 687l-145 -129h-44l-144 129l33 41l129 -84h8l130 84z" />
    <glyph glyph-name="breve" unicode="&#x2d8;" horiz-adv-x="378" 
d="M293 698l49.001 -7c3.33301 -40 -8.83398 -72.5 -36.501 -97.5s-66.167 -37.5 -115.5 -37.5s-88 12.5 -116 37.5s-40.333 57.5 -37 97.5l49 7c-0.666992 -22.667 8 -40.167 26 -52.5s44 -18.5 78 -18.5c33.333 0 59 6.16699 77 18.5s26.667 29.833 26 52.5z" />
    <glyph glyph-name="dotaccent" unicode="&#x2d9;" horiz-adv-x="224" 
d="M96 687h31c19.333 0 29 -9.33301 29 -28v-56c0 -19.333 -9.66699 -29 -29 -29h-31c-18.667 0 -28 9.66699 -28 29v56c0 18.667 9.33301 28 28 28z" />
    <glyph glyph-name="ring" unicode="&#x2da;" horiz-adv-x="302" 
d="M151 743c30 0 55.667 -10.333 77 -31s32 -46 32 -76s-10.667 -55.167 -32 -75.5s-47 -30.5 -77 -30.5c-30.667 0 -56.5 10.167 -77.5 30.5s-31.5 45.5 -31.5 75.5s10.667 55.333 32 76s47 31 77 31zM151 695c-16 0 -29.333 -5.33301 -40 -16s-16 -25 -16 -43
c0 -17.333 5.33301 -31.166 16 -41.499s24 -15.5 40 -15.5c16.667 0 30.334 5.16699 41.001 15.5s16 24.166 16 41.499s-5.33301 31.5 -16 42.5s-24.334 16.5 -41.001 16.5z" />
    <glyph glyph-name="ogonek" unicode="&#x2db;" horiz-adv-x="252" 
d="M143 2l41.998 -1.99805c-34.667 -40.667 -58.334 -77.667 -71.001 -111c-10 -22.667 -7.5 -37.834 7.5 -45.501s37.5 -6.5 67.5 3.5l12 -40c-25.333 -10 -48.166 -16.333 -68.499 -19s-36.666 -1.66699 -48.999 3s-22.666 11.5 -30.999 20.5s-12.333 19.833 -12 32.5
s2.5 26 6.5 40c13.333 39.333 45.333 78.666 96 117.999z" />
    <glyph glyph-name="tilde" unicode="&#x2dc;" horiz-adv-x="424" 
d="M96 582l-44 0.000976562c-4.66699 40 0.5 70.5 15.5 91.5s35.833 30.5 62.5 28.5c21.333 -2 47.333 -10.833 78 -26.5s55 -24.5 73 -26.5c18 -2.66699 30.333 -0.166992 37 7.5s10 21.167 10 40.5h44c4.66699 -38.667 -0.333008 -68.334 -15 -89.001s-35.667 -30 -63 -28
c-24.667 2 -52.834 11.167 -84.501 27.5s-54.5 25.5 -68.5 27.5c-17.333 2 -29.166 -1.16699 -35.499 -9.5s-9.5 -22.833 -9.5 -43.5z" />
    <glyph glyph-name="hungarumlaut" unicode="&#x2dd;" horiz-adv-x="463" 
d="M234 690l-137 -161l-43 32l111 177zM403 690l-138 -161l-41 32l109 177z" />
    <glyph glyph-name="Delta" unicode="&#x394;" horiz-adv-x="629" 
d="M606 40v-40h-583v40l241 650h101zM488 81l-151.001 431.999c-1.33301 2.66699 -8.66602 29.334 -21.999 80.001c-2.66699 -8.66699 -6.5 -22 -11.5 -40l-11.5 -41l-153 -431h349z" />
    <glyph glyph-name="Omega" unicode="&#x3a9;" horiz-adv-x="719" 
d="M52 88l98 0.000976562c23.333 0 45.333 -2.66699 66 -8c-51.333 38 -87.833 79.333 -109.5 124s-32.167 101.667 -31.5 171c0 111.333 22.333 193.833 67 247.5s117.334 80.5 218.001 80.5c100 0 172.333 -27 217 -81s67 -136.667 67 -248
c0 -70.667 -10.833 -127.834 -32.5 -171.501s-58.167 -84.5 -109.5 -122.5c21.333 5.33301 43.333 8 66 8h99v-88h-256v84c48 34 81.333 71.833 100 113.5s28.334 96.5 29.001 164.5c-0.666992 90.667 -14.834 155.5 -42.501 194.5s-73.834 58.5 -138.501 58.5
c-66 0 -112.5 -19.5 -139.5 -58.5s-40.5 -104.5 -40.5 -196.5c0 -70 9.5 -124.5 28.5 -163.5s52.167 -76.5 99.5 -112.5v-84h-255v88z" />
    <glyph glyph-name="mu" unicode="&#x3bc;" horiz-adv-x="598" 
d="M436 0l-9.00098 72.999c-67.333 -57.333 -130.666 -86 -189.999 -86c-27.333 0 -52.333 5.33301 -75 16c4 -21.333 6 -42.666 6 -63.999v-138h-85v338v349h97v-338c0 -47.333 26.333 -71 79 -71c41.333 0 93 18 155 54v355h97v-488h-75z" />
    <glyph glyph-name="pi" unicode="&#x3c0;" horiz-adv-x="643" 
d="M617 410h-91v-410h-97v410h-215v-410h-96v410h-91v78h590v-78z" />
    <glyph glyph-name="uni0401" unicode="&#x401;" horiz-adv-x="561" 
d="M236 785h-32c-17.333 0 -26 8.66699 -26 26v55c0 17.333 8.66699 26 26 26h32c17.333 0 26 -8.66699 26 -26v-55c0 -17.333 -8.66699 -26 -26 -26zM413 785h-31c-18 0 -27 8.66699 -27 26v55c0 17.333 9 26 27 26h31c18 0 27 -8.66699 27 -26v-55
c0 -17.333 -9 -26 -27 -26zM508 83l4 -77c-60.667 -5.33301 -159.334 -8 -296.001 -8c-42.667 0 -76.334 11.167 -101.001 33.5s-37 52.5 -37 90.5v446c0 38 12.333 68.167 37 90.5s58.334 33.5 101.001 33.5c136.667 0 235.334 -2.66699 296.001 -8l-4 -78h-275
c-20 0 -34.167 -4.83301 -42.5 -14.5s-12.5 -26.167 -12.5 -49.5v-138h291v-81h-291v-176c0 -23.333 4.16699 -39.833 12.5 -49.5s22.5 -14.5 42.5 -14.5h275z" />
    <glyph glyph-name="uni0402" unicode="&#x402;" horiz-adv-x="753" 
d="M342 601v-211c60.667 36 126.334 54 197.001 54c54 0 96.333 -14.833 127 -44.5s46 -84.834 46 -165.501c0 -88 -22.167 -150.667 -66.5 -188s-107.833 -54.333 -190.5 -51l-9 73c59.333 4 101.833 16.833 127.5 38.5s38.5 60.834 38.5 117.501
c0 56 -7.83301 92.333 -23.5 109s-43.167 25 -82.5 25c-50.667 0 -105.334 -15.667 -164.001 -47v-311h-101v601h-217v89h537v-89h-219z" />
    <glyph glyph-name="uni0403" unicode="&#x403;" horiz-adv-x="518" 
d="M457 843l-199 -117l-33 45l177 146zM82 0v556c0 40 12.167 72.667 36.5 98s55.5 38 93.5 38c132 0 227.667 -3 287 -9l-4 -77h-249c-23.333 0 -39.833 -5 -49.5 -15s-14.5 -28 -14.5 -54v-537h-100z" />
    <glyph glyph-name="uni0404" unicode="&#x404;" horiz-adv-x="578" 
d="M528 88l10 -75.998c-53.333 -16 -120 -24 -200 -24c-102.667 0 -174.834 26.667 -216.501 80s-62.5 145.666 -62.5 276.999s20.833 223.666 62.5 276.999s113.834 80 216.501 80c74 0 138.667 -6.66699 194 -20l-11 -78c-53.333 5.33301 -114.333 8 -183 8
c-60 0 -103.167 -15.333 -129.5 -46s-41.5 -84.667 -45.5 -162h291v-78h-292c0.666992 -93.333 14 -158 40 -194s71.333 -54 136 -54c80 0 143.333 3.33301 190 10z" />
    <glyph glyph-name="uni0405" unicode="&#x405;" horiz-adv-x="563" 
d="M330 285l-140 38.999c-49.333 13.333 -84.5 35.833 -105.5 67.5s-31.5 74.5 -31.5 128.5c0 39.333 4.16699 71.166 12.5 95.499s22.833 42.833 43.5 55.5s43.667 21 69 25s59.333 6 102 6c81.333 0 150.666 -7 207.999 -21l-6 -73c-96.667 3.33301 -162.667 5 -198 5
c-52 0 -86.667 -5.16699 -104 -15.5s-26 -37.166 -26 -80.499c0 -34 6.16699 -58 18.5 -72s33.833 -25 64.5 -33l137 -38c51.333 -14 87.5 -36.667 108.5 -68s31.5 -74 31.5 -128c0 -76 -17.333 -126.667 -52 -152s-95.667 -38 -183 -38
c-73.333 0 -145.666 6.66699 -216.999 20l7 74c104 -3.33301 174.667 -5 212 -5c52 0.666992 86.833 7.33398 104.5 20.001s26.5 40 26.5 82c0 35.333 -6 59.833 -18 73.5s-33.333 24.5 -64 32.5z" />
    <glyph glyph-name="uni0406" unicode="&#x406;" horiz-adv-x="268" 
d="M184 0h-100v690h100v-690z" />
    <glyph glyph-name="uni0407" unicode="&#x407;" horiz-adv-x="268" 
d="M29 872h32c17.333 0 26 -9 26 -27v-54c0 -18 -8.66699 -27 -26 -27h-32c-17.333 0 -26 9 -26 27v54c0 18 8.66699 27 26 27zM207 872h31c18 0 27 -9 27 -27v-54c0 -18 -9 -27 -27 -27h-31c-18 0 -27 9 -27 27v54c0 18 9 27 27 27zM184 0h-100v690h100v-690z" />
    <glyph glyph-name="uni0408" unicode="&#x408;" horiz-adv-x="343" 
d="M262 690v-539.001c0 -52.667 -11.667 -92.667 -35 -120s-57 -40.666 -101 -39.999c-39.333 0 -72 4.33301 -98 13l11 72h49c49.333 0 74 23.333 74 70v544h100z" />
    <glyph glyph-name="uni0409" unicode="&#x409;" horiz-adv-x="971" 
d="M562 417l134.999 0.000976562c86 0 145.833 -15.667 179.5 -47s50.5 -86.666 50.5 -165.999c0 -81.333 -16 -137 -48 -167s-87.667 -45 -167 -45c-106.667 0 -189.667 2.66699 -249 8l1 5v604h-123c-37.333 0 -58 -22.667 -62 -68
c-12 -130 -21.833 -219.833 -29.5 -269.5s-20.5 -95.834 -38.5 -138.501c-20 -46 -43.833 -79.333 -71.5 -100s-64.5 -32.334 -110.5 -35.001l-8 69c38.667 14 70.667 45.333 96 94c4.66699 9.33301 8.83398 19 12.501 29l10 28c3 8.66699 6 19.667 9 33l7 32
c1.66699 8 3.5 20.333 5.5 37l4.5 38c1 8.66699 2.5 23.5 4.5 44.5s3.33301 36 4 45l4 52.5c2 26 3.33301 44.667 4 56c6 89.333 56 134 150 134h230v-273zM561.999 80.001l135 -1c52 0 86.5 8.33301 103.5 25s25.5 50.334 25.5 101.001c0 49.333 -8.5 83.166 -25.5 101.499
s-51.5 27.5 -103.5 27.5h-135v-254z" />
    <glyph glyph-name="uni040A" unicode="&#x40a;" horiz-adv-x="978" 
d="M569 416l133.999 0.000976562c86.667 0 146.834 -15.5 180.501 -46.5s50.5 -86.833 50.5 -167.5s-16 -135.834 -48 -165.501s-87.667 -44.5 -167 -44.5c-107.333 0 -190.333 2.66699 -249 8v334h-286v-334h-100v690h100v-274h286v274h99v-274zM568.999 80.001l134 -1
c52.667 0 87.5 8.33301 104.5 25s25.5 50 25.5 100c0 49.333 -8.5 83.333 -25.5 102s-51.833 28 -104.5 28h-134v-254z" />
    <glyph glyph-name="uni040B" unicode="&#x40b;" horiz-adv-x="773" 
d="M342 601l0.000976562 -211.999c73.333 36.667 145.666 55 216.999 55c55.333 0 96 -12.833 122 -38.5s39 -65.5 39 -119.5v-286h-100v266c0 33.333 -7 56.666 -21 69.999s-38.667 20 -74 20c-58.667 0 -119.667 -15.667 -183 -47v-309h-101v601h-217v89h537v-89h-219z
" />
    <glyph glyph-name="uni040C" unicode="&#x40c;" horiz-adv-x="605" 
d="M270 726l-33 45l177 146l55 -74zM335 362v-3.99902c13.333 -1.33301 25.666 -4 36.999 -8s21.5 -8 30.5 -12s18.167 -11 27.5 -21l23 -25c6 -6.66699 13.167 -18 21.5 -34l19.5 -37.5c4.66699 -9 11.167 -24.667 19.5 -47l18.5 -50.5l21 -59l23 -64h-105
c-40.667 115.333 -67 185.666 -79 210.999c-27.333 55.333 -59.666 89 -96.999 101c-14.667 4.66699 -31 7 -49 7h-69c4.66699 -28 7 -51.667 7 -71v-248h-100v690h100v-212c0 -22.667 -2.33301 -48.667 -7 -78h69c22 0 41.833 4.5 59.5 13.5s33 21.333 46 37
s25.333 35.5 37 59.5s22.5 49.667 32.5 77l33 93c1.33301 4.66699 2.33301 8 3 10h101c-38 -111.333 -64.667 -182 -80 -212c-31.333 -62.667 -71 -100 -119 -112c-7.33301 -2 -15.333 -3.33301 -24 -4z" />
    <glyph glyph-name="uni040D" unicode="&#x40d;" horiz-adv-x="694" 
d="M401 771l-32 -45l-199 117l55 74zM610 0l-97 0.000976562v487c0 33.333 2 60.666 6 81.999h-6c-9.33301 -24.667 -21.333 -50.667 -36 -78l-290 -491h-103v690h96v-482c0 -28 -2 -56.333 -6 -85h5c11.333 27.333 24.333 53.333 39 78l288 489h104v-690z" />
    <glyph glyph-name="uni040E" unicode="&#x40e;" horiz-adv-x="567" 
d="M387 886l49 -8c3.33301 -39.333 -9 -71.5 -37 -96.5s-66.333 -37.5 -115 -37.5c-49.333 0 -88 12.5 -116 37.5s-40.333 57.167 -37 96.5l48 8c0 -22.667 9 -40.167 27 -52.5s44 -18.5 78 -18.5c32.667 0 58 6.16699 76 18.5s27 29.833 27 52.5zM558 690
l-183.002 -519.001c-20.667 -56 -42.667 -98.833 -66 -128.5s-54.666 -46.167 -93.999 -49.5c-41.333 -3.33301 -84.666 1.66699 -129.999 15l11 73c21.333 -1.33301 38 -2.16602 50 -2.49902s24 -0.5 36 -0.5s21.333 1.66699 28 5l19 9.5c6 3 11.333 8.83301 16 17.5l13 25
c4 8 9 20 15 36l12 29h-37c-20 0 -35.5 3.83301 -46.5 11.5s-19.833 20.5 -26.5 38.5l-156 440h102l134 -391c4.66699 -10 11.667 -15 21 -15h38l142 406h102z" />
    <glyph glyph-name="uni040F" unicode="&#x40f;" horiz-adv-x="676" 
d="M592 690v-690h-212l-5 -151h-68l-6 151h-217v690h100v-609h307v609h101z" />
    <glyph glyph-name="uni0410" unicode="&#x410;" horiz-adv-x="626" 
d="M450 208h-274.999l-64 -208h-102l216 663c5.33301 18 17.666 27 36.999 27h102c20 0 32 -9 36 -27l217 -663h-103zM424.001 295l-81 262c-2 6 -4.83301 15.333 -8.5 28s-6.5 22 -8.5 28h-27l-16 -56l-81 -262h222z" />
    <glyph glyph-name="uni0411" unicode="&#x411;" horiz-adv-x="600" 
d="M184 397l137.002 0.000976562c86.667 0 146.834 -15 180.501 -45s50.5 -83.333 50.5 -160c0 -36.667 -3.66699 -67.334 -11 -92.001s-16.833 -44.167 -28.5 -58.5s-28.834 -25.333 -51.501 -33s-45.334 -12.5 -68.001 -14.5s-52.667 -3 -90 -3c-78 0 -150.333 3 -217 9
h-2v690c85.333 4.66699 157.666 7 216.999 7s130 -2.33301 212 -7l-8 -84h-321v-209zM184.002 78.001l137 -1.00098c53.333 0 88.333 7.83301 105 23.5s25 47.834 25 96.501c0 47.333 -8.5 79.5 -25.5 96.5s-51.833 25.5 -104.5 25.5h-137v-241z" />
    <glyph glyph-name="uni0412" unicode="&#x412;" horiz-adv-x="622" 
d="M428 360l0.000976562 -4.00195c50 -4.66699 85.5 -22.167 106.5 -52.5s31.5 -74.166 31.5 -131.499c0 -69.333 -16.5 -116.666 -49.5 -141.999s-90.5 -38 -172.5 -38c-112.667 0 -199.334 2.66699 -260.001 8v690c54 5.33301 130.667 8 230 8
c86.667 0 146.834 -12.5 180.501 -37.5s50.5 -72.5 50.5 -142.5c0 -50 -9.33301 -87.833 -28 -113.5s-48.334 -40.5 -89.001 -44.5zM182.001 395.998h140c48 0 81.167 7.5 99.5 22.5s27.5 44.167 27.5 87.5c0 42.667 -10 71.167 -30 85.5s-56.667 21.5 -110 21.5h-127v-217z
M182.001 77.998l147 -1c52.667 0 88.5 7.5 107.5 22.5s28.5 44.833 28.5 89.5c0 50 -10.167 84 -30.5 102s-57.5 27.333 -111.5 28h-141v-241z" />
    <glyph glyph-name="uni0413" unicode="&#x413;" horiz-adv-x="518" 
d="M82 0v556c0 40 12.167 72.667 36.5 98s55.5 38 93.5 38c132 0 227.667 -3 287 -9l-4 -77h-249c-23.333 0 -39.833 -5 -49.5 -15s-14.5 -28 -14.5 -54v-537h-100z" />
    <glyph glyph-name="uni0414" unicode="&#x414;" horiz-adv-x="700" 
d="M669 81l0.000976562 -232h-68l-9 151h-492l-9 -151h-69v232h68c53.333 116.667 86 275 98 475c1.33301 41.333 15.166 74 41.499 98s61.833 36 106.5 36h248v-609h85zM484.001 81v528h-130c-24 0 -41.167 -5 -51.5 -15s-16.5 -27.667 -18.5 -53
c-7.33301 -103.333 -18 -190.5 -32 -261.5s-36 -137.167 -66 -198.5h298z" />
    <glyph glyph-name="uni0415" unicode="&#x415;" horiz-adv-x="561" 
d="M508 83l4 -77c-60.667 -5.33301 -159.334 -8 -296.001 -8c-42.667 0 -76.334 11.167 -101.001 33.5s-37 52.5 -37 90.5v446c0 38 12.333 68.167 37 90.5s58.334 33.5 101.001 33.5c136.667 0 235.334 -2.66699 296.001 -8l-4 -78h-275
c-20 0 -34.167 -4.83301 -42.5 -14.5s-12.5 -26.167 -12.5 -49.5v-138h291v-81h-291v-176c0 -23.333 4.16699 -39.833 12.5 -49.5s22.5 -14.5 42.5 -14.5h275z" />
    <glyph glyph-name="uni0416" unicode="&#x416;" horiz-adv-x="914" 
d="M644 362l0.00488281 -4.00195c20 -2 38 -6.16699 54 -12.5s31.167 -17.333 45.5 -33s26 -29.667 35 -42s19.833 -33.833 32.5 -64.5s22.167 -55.167 28.5 -73.5l32.5 -94.5c6 -16.667 10.333 -29.334 13 -38.001h-106c-42.667 118 -70 189.667 -82 215
c-27.333 54.667 -59 87.667 -95 99c-12 3.33301 -25.333 5 -40 5h-62c4 -24 6 -47.667 6 -71v-248h-95v248c0 19.333 2.33301 43 7 71h-67c-32.667 0 -61 -12 -85 -36s-42 -49.5 -54 -76.5s-31.667 -78.833 -59 -155.5l-19 -51h-105
c3.33301 8.66699 7.66602 21.334 12.999 38.001l28 81.5c6 17 14.333 39.167 25 66.5s19.667 47.166 27 59.499s16.5 26.833 27.5 43.5s22 28.667 33 36s23.833 14.166 38.5 20.499s30.667 10.5 48 12.5v4c-22.667 2.66699 -42.834 8.83398 -60.501 18.501
s-33.334 23.334 -47.001 41.001s-25.834 37.334 -36.501 59.001s-21.667 48.167 -33 79.5l-33 93c-5.33301 16 -9.33301 28.333 -12 37h102c38 -106 65.333 -174 82 -204c32 -57.333 71.333 -86 118 -86h68c-4 25.333 -6 51.333 -6 78v212h95v-212
c0 -31.333 -1.66699 -57.333 -5 -78h62c30.667 0 58.167 13 82.5 39s42.5 52.833 54.5 80.5s30.333 75.5 55 143.5c4.66699 12 8 21 10 27h102c-38 -111.333 -65 -182.666 -81 -213.999c-32.667 -62.667 -73.334 -99.667 -122.001 -111c-6 -1.33301 -12.667 -2.33301 -20 -3
z" />
    <glyph glyph-name="uni0417" unicode="&#x417;" horiz-adv-x="551" 
d="M60 605l-8.00098 76.998c59.333 10.667 124 16 194 16c86 0 145.5 -12.5 178.5 -37.5s49.5 -72.5 49.5 -142.5c0 -50 -9.16699 -87.833 -27.5 -113.5s-47.833 -40.5 -88.5 -44.5v-4c49.333 -4.66699 84.333 -22.167 105 -52.5s31 -74.166 31 -131.499
c0 -69.333 -16.333 -116.666 -49 -141.999s-89 -38 -169 -38c-94.667 0 -175 8 -241 24l9 72c74.667 -9.33301 146.334 -14 215.001 -14c50.667 0 85.5 7.66699 104.5 23s28.5 46 28.5 92c0 50 -10.167 84 -30.5 102s-56.833 27 -109.5 27h-118v79h118
c46 0 77.833 7.5 95.5 22.5s26.5 43.833 26.5 86.5c0 44 -9.5 73.5 -28.5 88.5s-54.167 22.5 -105.5 22.5c-44.667 0 -104.667 -4 -180 -12z" />
    <glyph glyph-name="uni0418" unicode="&#x418;" horiz-adv-x="694" 
d="M610 0l-97 0.000976562v487c0 33.333 2 60.666 6 81.999h-6c-9.33301 -24.667 -21.333 -50.667 -36 -78l-290 -491h-103v690h96v-482c0 -28 -2 -56.333 -6 -85h5c11.333 27.333 24.333 53.333 39 78l288 489h104v-690z" />
    <glyph glyph-name="uni0419" unicode="&#x419;" horiz-adv-x="694" 
d="M429 884h72.001c3.33301 -40 -8.83398 -73.333 -36.501 -100s-65.834 -40 -114.501 -40c-49.333 0 -88.166 13.333 -116.499 40s-40.833 60 -37.5 100h73c0 -28.667 7 -50.5 21 -65.5s34 -22.5 60 -22.5c52.667 0 79 29.333 79 88zM610.001 0l-97 0.000976562v487
c0 33.333 2 60.666 6 81.999h-6c-9.33301 -24.667 -21.333 -50.667 -36 -78l-290 -491h-103v690h96v-482c0 -28 -2 -56.333 -6 -85h5c11.333 27.333 24.333 53.333 39 78l288 489h104v-690z" />
    <glyph glyph-name="uni041A" unicode="&#x41a;" horiz-adv-x="605" 
d="M335 362v-3.99902c13.333 -1.33301 25.666 -4 36.999 -8s21.5 -8 30.5 -12s18.167 -11 27.5 -21l23 -25c6 -6.66699 13.167 -18 21.5 -34l19.5 -37.5c4.66699 -9 11.167 -24.667 19.5 -47l18.5 -50.5l21 -59l23 -64h-105c-40.667 115.333 -67 185.666 -79 210.999
c-27.333 55.333 -59.666 89 -96.999 101c-14.667 4.66699 -31 7 -49 7h-69c4.66699 -28 7 -51.667 7 -71v-248h-100v690h100v-212c0 -22.667 -2.33301 -48.667 -7 -78h69c22 0 41.833 4.5 59.5 13.5s33 21.333 46 37s25.333 35.5 37 59.5s22.5 49.667 32.5 77l33 93
c1.33301 4.66699 2.33301 8 3 10h101c-38 -111.333 -64.667 -182 -80 -212c-31.333 -62.667 -71 -100 -119 -112c-7.33301 -2 -15.333 -3.33301 -24 -4z" />
    <glyph glyph-name="uni041B" unicode="&#x41b;" horiz-adv-x="655" 
d="M571 690v-689.999h-101v609h-127c-43.333 0 -67 -22.667 -71 -68c-11.333 -128.667 -21 -218.5 -29 -269.5s-21.333 -97.167 -40 -138.5c-40 -92 -101.667 -137 -185 -135l-8 78c46.667 12.667 79.667 40.667 99 84c17.333 41.333 30 87.666 38 138.999s17 138 27 260
c8 87.333 55.667 131 143 131h254z" />
    <glyph glyph-name="uni041C" unicode="&#x41c;" horiz-adv-x="881" 
d="M633 690l108.999 0.000976562c26 0 39.667 -13.667 41 -41l28 -649h-100l-24 607h-20l-140 -491c-6 -22.667 -20.333 -34 -43 -34h-87c-23.333 0 -38 11.333 -44 34l-141 491h-19l-23 -607h-99l26 649c1.33301 27.333 15 41 41 41h111c20.667 0 34.667 -11.333 42 -34
l117 -404c6.66699 -24 14.334 -55 23.001 -93h18c8 35.333 16 66.666 24 93.999l116 403c7.33301 22.667 22 34 44 34z" />
    <glyph glyph-name="uni041D" unicode="&#x41d;" horiz-adv-x="670" 
d="M586 690v-690h-101v325h-301v-325h-100v690h100v-279h301v279h101z" />
    <glyph glyph-name="uni041E" unicode="&#x41e;" horiz-adv-x="669" 
d="M334 703c102.667 0 174.334 -26 215.001 -78s61 -145.333 61 -280s-20.333 -228 -61 -280s-112.334 -78 -215.001 -78c-102 0 -173.333 26 -214 78s-61 145.333 -61 280s20.333 228 61 280s112 78 214 78zM334 614c-64.667 0 -109.167 -19.333 -133.5 -58
s-36.5 -109 -36.5 -211s12.167 -172.333 36.5 -211s68.833 -58 133.5 -58s109.334 19.333 134.001 58s37 109 37 211s-12.333 172.333 -37 211s-69.334 58 -134.001 58z" />
    <glyph glyph-name="uni041F" unicode="&#x41f;" horiz-adv-x="671" 
d="M587 690v-690h-100v609h-303v-609h-100v690h503z" />
    <glyph glyph-name="uni0420" unicode="&#x420;" horiz-adv-x="592" 
d="M84 0l0.000976562 690.001c56.667 6 137 9 241 9c85.333 0 144.166 -15.333 176.499 -46s48.5 -88 48.5 -172c0 -84.667 -15.5 -142.334 -46.5 -173.001s-86.833 -46 -167.5 -46c-50 0 -100.333 3 -151 9v-271h-101zM185.001 348.001h137.001
c48.667 0.666992 82 10 100 28s27 53 27 105s-9 87 -27 105s-51.333 27 -100 27c-66.667 0 -112.334 -0.333008 -137.001 -1v-264z" />
    <glyph glyph-name="uni0421" unicode="&#x421;" 
d="M527 88l9.99805 -75.998c-55.333 -16 -123.666 -24 -204.999 -24c-100.667 0 -171.334 26.667 -212.001 80s-61 145.666 -61 276.999s20.333 223.666 61 276.999s111.334 80 212.001 80c72 0 135.667 -6.66699 191 -20l-10 -77c-53.333 5.33301 -113.666 8 -180.999 8
c-63.333 0 -107.166 -19.333 -131.499 -58s-36.5 -108.667 -36.5 -210s12.167 -171.333 36.5 -210s68.166 -58 131.499 -58c84.667 0 149.667 3.66699 195 11z" />
    <glyph glyph-name="uni0422" unicode="&#x422;" horiz-adv-x="584" 
d="M561 601h-219v-601h-101v601h-217v89h537v-89z" />
    <glyph glyph-name="uni0423" unicode="&#x423;" horiz-adv-x="567" 
d="M558 690l-183.002 -519.001c-20.667 -56 -42.667 -98.833 -66 -128.5s-54.666 -46.167 -93.999 -49.5c-41.333 -3.33301 -84.666 1.66699 -129.999 15l11 73c21.333 -1.33301 38 -2.16602 50 -2.49902s24 -0.5 36 -0.5s21.333 1.66699 28 5l19 9.5
c6 3 11.333 8.83301 16 17.5l13 25c4 8 9 20 15 36l12 29h-37c-20 0 -35.5 3.83301 -46.5 11.5s-19.833 20.5 -26.5 38.5l-156 440h102l134 -391c4.66699 -10 11.667 -15 21 -15h38l142 406h102z" />
    <glyph glyph-name="uni0424" unicode="&#x424;" horiz-adv-x="822" 
d="M461 744v-95.998c116 -4.66699 197.333 -28.834 244 -72.501s70.334 -118.167 71.001 -223.5c-0.666992 -103.333 -24.334 -176.5 -71.001 -219.5s-128 -66.833 -244 -71.5v-96h-100v96c-116 4 -197.5 27.667 -244.5 71s-70.5 116.666 -70.5 219.999
c0 105.333 23.5 180 70.5 224s128.5 68 244.5 72v96h100zM365 144.002v420.999c-82.667 -3.33301 -139.334 -20.166 -170.001 -50.499s-46 -84.5 -46 -162.5c0 -76 15.333 -128.833 46 -158.5s87.334 -46.167 170.001 -49.5zM457 565.001v-420.999
c82 4 138.333 20.833 169 50.5s46.334 82.167 47.001 157.5c-0.666992 78 -16.334 132.167 -47.001 162.5s-87 47.166 -169 50.499z" />
    <glyph glyph-name="uni0425" unicode="&#x425;" horiz-adv-x="616" 
d="M319 320h-24l-164 -320h-108l189 357l-176 333h107l151 -294h27l150 294h109l-177 -333l190 -357h-109z" />
    <glyph glyph-name="uni0426" unicode="&#x426;" horiz-adv-x="695" 
d="M663 81v-232h-68l-9 151h-502v690h100v-609h294v609h101v-609h84z" />
    <glyph glyph-name="uni0427" unicode="&#x427;" horiz-adv-x="629" 
d="M546 690l0.000976562 -690h-100v308c-75.333 -40 -152.333 -60 -231 -60c-53.333 0 -92.833 13 -118.5 39s-38.5 65.667 -38.5 119v284h100v-264c-0.666992 -31.333 6.16602 -54 20.499 -68s38.5 -21 72.5 -21c60.667 0 125.667 16 195 48v305h100z" />
    <glyph glyph-name="uni0428" unicode="&#x428;" horiz-adv-x="935" 
d="M851 690v-690h-767v690h98v-609h237v609h97v-609h237v609h98z" />
    <glyph glyph-name="uni0429" unicode="&#x429;" horiz-adv-x="960" 
d="M929 -151h-68l-9 151h-768v690h98v-609h234v609h97v-609h234v609h98v-609h84v-232z" />
    <glyph glyph-name="uni042A" unicode="&#x42a;" horiz-adv-x="748" 
d="M340 417l133.999 0.000976562c86.667 0 146.667 -15.667 180 -47s50 -87.333 50 -168s-16 -135.834 -48 -165.501s-87.667 -44.5 -167 -44.5c-107.333 0 -190.666 2.66699 -249.999 8v601h-216v89h317v-273zM339.999 80.001l134 -1c52 0 86.5 8.33301 103.5 25
s25.5 50 25.5 100c0 49.333 -8.5 83.333 -25.5 102s-51.5 28 -103.5 28h-134v-254z" />
    <glyph glyph-name="uni042B" unicode="&#x42b;" horiz-adv-x="853" 
d="M184 417l135.998 0.000976562c86.667 0 146.834 -15.667 180.501 -47s50.5 -87.333 50.5 -168s-16 -135.834 -48 -165.501s-87.667 -44.5 -167 -44.5c-107.333 0 -190.666 2.66699 -249.999 8h-2v690h100v-273zM769.998 690.001v-690h-100v690h100zM183.998 80.001
l136 -1c52.667 0 87.5 8.33301 104.5 25s25.5 50 25.5 100c0 49.333 -8.5 83.333 -25.5 102s-51.833 28 -104.5 28h-136v-254z" />
    <glyph glyph-name="uni042C" unicode="&#x42c;" horiz-adv-x="595" 
d="M184 417l135.998 0.000976562c86.667 0 146.834 -15.667 180.501 -47s50.5 -87.333 50.5 -168s-16 -135.834 -48 -165.501s-87.667 -44.5 -167 -44.5c-107.333 0 -190.666 2.66699 -249.999 8h-2v690h100v-273zM183.998 80.001l136 -1c52.667 0 87.5 8.33301 104.5 25
s25.5 50 25.5 100c0 49.333 -8.5 83.333 -25.5 102s-51.833 28 -104.5 28h-136v-254z" />
    <glyph glyph-name="uni042D" unicode="&#x42d;" horiz-adv-x="578" 
d="M56 604l-10 77.998c55.333 13.333 119.666 20 192.999 20c103.333 0 175.833 -26.667 217.5 -80s62.5 -145.666 62.5 -276.999s-20.833 -223.666 -62.5 -276.999s-114.167 -80 -217.5 -80c-79.333 0 -145.666 8 -198.999 24l10 76c46.667 -6.66699 110 -10 190 -10
c64.667 0 110 18 136 54s39.333 100.667 40 194h-292v78h290c-4 77.333 -19 131.333 -45 162s-69 46 -129 46c-68.667 0 -130 -2.66699 -184 -8z" />
    <glyph glyph-name="uni042E" unicode="&#x42e;" horiz-adv-x="933" 
d="M185 399h151c4.66699 113.333 26.5 192.333 65.5 237s104.167 67 195.5 67c102.667 0 174.5 -26 215.5 -78s61.5 -145.333 61.5 -280s-20.5 -228 -61.5 -280s-112.833 -78 -215.5 -78c-94 0 -160.5 24.167 -199.5 72.5s-59.5 134.5 -61.5 258.5h-151v-318h-100v690h100
v-291zM597 76c64.667 0 109.167 19.333 133.5 58s36.833 109 37.5 211c-0.666992 102 -13.167 172.333 -37.5 211s-68.833 58 -133.5 58c-62 0 -104.667 -19.333 -128 -58s-35 -109 -35 -211s11.667 -172.333 35 -211s66 -58 128 -58z" />
    <glyph glyph-name="uni042F" unicode="&#x42f;" horiz-adv-x="615" 
d="M199 309l-0.999023 4.99902c-46 6.66699 -79.167 24.834 -99.5 54.501s-30.166 72.5 -29.499 128.5c0 72.667 17.167 124.5 51.5 155.5s91.166 46.5 170.499 46.5c104 0 184 -3 240 -9v-690h-100v277l-139 -1c-45.333 0 -74.333 -23 -87 -69l-58 -207h-106l61 211
c15.333 53.333 47.666 86 96.999 98zM431.001 361.999l0.00195312 249.999c-24.667 0.666992 -70.667 1 -138 1c-46.667 0 -78.834 -8.5 -96.501 -25.5s-26.834 -49.167 -27.501 -96.5c0 -45.333 9.16699 -78.166 27.5 -98.499s49.833 -30.5 94.5 -30.5h140z" />
    <glyph glyph-name="uni0430" unicode="&#x430;" horiz-adv-x="555" 
d="M81 407l-9.00195 71.001c86.667 15.333 165.667 23 237 23c59.333 0 103 -12 131 -36s42 -65.667 42 -125v-340h-77l-10 77c-56 -57.333 -121 -86 -195 -86c-45.333 0 -81.666 12.167 -108.999 36.5s-41 58.166 -41 101.499v51c0 38.667 12.167 68.667 36.5 90
s58.5 32 102.5 32h196v38c-0.666992 30 -7.66699 50.667 -21 62s-38.666 17 -75.999 17c-38 0 -107 -4 -207 -12zM147.998 167.001l0.000976562 -25.999c0 -24 5.66699 -41.333 17 -52s29.666 -16 54.999 -16c58 0 113 22.667 165 68v88h-178
c-21.333 -0.666992 -36.5 -6.33398 -45.5 -17.001s-13.5 -25.667 -13.5 -45z" />
    <glyph glyph-name="uni0431" unicode="&#x431;" horiz-adv-x="577" 
d="M476 738l23.0068 -76.0029c-24.667 -15.333 -48.334 -26.5 -71.001 -33.5s-48.334 -12.667 -77.001 -17s-51.667 -8.83301 -69 -13.5c-74.667 -21.333 -118.667 -72 -132 -152c-4.66699 -25.333 -8 -49.333 -10 -72h2c9.33301 19.333 19.666 35.333 30.999 48
s30.166 24.334 56.499 35.001s58.833 16 97.5 16c71.333 0 121.666 -18 150.999 -54s44 -96 44 -180s-16.333 -146.833 -49 -188.5s-92 -62.5 -178 -62.5c-41.333 0 -76.333 5.33301 -105 16s-51 24.167 -67 40.5s-28.167 39 -36.5 68s-13.5 56.333 -15.5 82
s-3 58.834 -3 99.501c0 57.333 2.16699 104.5 6.5 141.5s12.666 72.333 24.999 106s30.833 60.834 55.5 81.501s56.334 37 95.001 49c19.333 6 43.666 11.333 72.999 16s56.166 10.5 80.499 17.5s48.5 17.833 72.5 32.5zM302.007 390.997
c-53.333 0 -88.999 -11.8311 -106.999 -35.498s-27 -62.834 -27 -117.501c0 -64 9.33301 -108.167 28 -132.5s51.667 -36.5 99 -36.5s80.166 12.167 98.499 36.5s27.5 68.166 27.5 131.499c0 60 -8.33301 100.667 -25 122s-48 32 -94 32z" />
    <glyph glyph-name="uni0432" unicode="&#x432;" horiz-adv-x="555" 
d="M381 252l0.000976562 -3c44 -3.33301 75.333 -15.5 94 -36.5s28 -51.5 28 -91.5c0 -49.333 -14.667 -83 -44 -101s-80 -27 -152 -27c-97.333 0 -174.333 2 -231 6v488c50.667 4 118.667 6 204 6c77.333 0 131 -9 161 -27s45 -52.333 45 -103
c0 -34.667 -8.33301 -61.167 -25 -79.5s-43.334 -28.833 -80.001 -31.5zM167.001 286h120c40 0 67.833 4.66699 83.5 14s23.5 27.333 23.5 54c0 25.333 -8.66699 42.333 -26 51s-48.333 13 -93 13h-108v-132zM167.001 70l125.001 -1.00098
c43.333 0 73.166 4.83301 89.499 14.5s24.5 28.834 24.5 57.501s-8.83301 48.5 -26.5 59.5s-48.5 16.5 -92.5 16.5h-120v-147z" />
    <glyph glyph-name="uni0433" unicode="&#x433;" horiz-adv-x="467" 
d="M74 0v383c0 72 37 108 111 108c120.667 0 207.667 -3 261 -9l-3 -68h-217c-19.333 0 -33.5 -4.5 -42.5 -13.5s-13.5 -23.5 -13.5 -43.5v-357h-96z" />
    <glyph glyph-name="uni0434" unicode="&#x434;" horiz-adv-x="594" 
d="M560 78l0.000976562 -222h-64l-8 144h-388l-8 -144h-64v222h59c38 81.333 61 179.333 69 294c5.33301 77.333 48.666 116 129.999 116h204v-410h70zM398.001 413h-96c-36 0 -55.667 -19 -59 -57c-8 -114 -31.333 -206.667 -70 -278h225v335z" />
    <glyph glyph-name="uni0435" unicode="&#x435;" horiz-adv-x="543" 
d="M375 197h-219.001c4.66699 -50.667 17.834 -84.667 39.501 -102s57.167 -26 106.5 -26c43.333 0 100.333 4 171 12l9 -64c-44 -19.333 -108.333 -29 -193 -29c-85.333 0 -146 19.5 -182 58.5s-54 105.167 -54 198.5c0 94.667 17.667 161 53 199s93.333 57 174 57
c74 0 128 -13.667 162 -41s51.333 -68.333 52 -123c0 -93.333 -39.667 -140 -119 -140zM153.999 272l194.998 -0.000976562c32.667 0 48.334 21.667 47.001 65c0 30 -8.16699 51.167 -24.5 63.5s-45.166 18.5 -86.499 18.5c-48.667 0 -82.167 -10.167 -100.5 -30.5
s-28.5 -59.166 -30.5 -116.499z" />
    <glyph glyph-name="uni0436" unicode="&#x436;" horiz-adv-x="795" 
d="M572 256l-0.00878906 -3.00098c18 -2 33.5 -5.16699 46.5 -9.5s25.333 -12.166 37 -23.499s21.167 -21.666 28.5 -30.999s16 -25.666 26 -48.999s18 -43.333 24 -60l29 -80h-99c-34.667 90.667 -59 146.667 -73 168c-21.333 32 -50.333 48.333 -87 49h-67
c3.33301 -18 5 -33.333 5 -46v-171h-86v171c0 12.667 1.66699 28 5 46h-71c-34.667 -0.666992 -60.834 -13.834 -78.501 -39.501s-42.5 -78.834 -74.5 -159.501c-3.33301 -8 -5.66602 -14 -6.99902 -18h-98c9.33301 28 16.5 48.5 21.5 61.5l19 50
c7.66699 20.333 13.834 34.833 18.501 43.5s11 19.5 19 32.5s15.333 22.167 22 27.5s14.834 11.166 24.501 17.499s19.834 11 30.501 14s22.667 5.16699 36 6.5v3c-14 1.33301 -26.833 4.5 -38.5 9.5s-21.667 9.66699 -30 14s-17.166 13.166 -26.499 26.499l-21 30
c-4.66699 6.66699 -11.5 21.167 -20.5 43.5s-15.167 38.333 -18.5 48s-10.666 29.834 -21.999 60.501h97c11.333 -31.333 20.333 -55.166 27 -71.499s14.834 -34.166 24.501 -53.499s18.834 -33.333 27.501 -42s19.167 -16 31.5 -22s25.833 -9 40.5 -9h67
c-3.33301 20 -5 38.667 -5 56v142h86v-142c0 -22.667 -1.66699 -41.334 -5 -56.001h63c35.333 0 62.333 14 81 42s42 80 70 156h98c-11.333 -30.667 -18.666 -50.834 -21.999 -60.501s-9.5 -25.667 -18.5 -48s-15.833 -36.833 -20.5 -43.5l-21 -30
c-9.33301 -13.333 -18.166 -22.166 -26.499 -26.499s-18.333 -9 -30 -14s-24.5 -8.16699 -38.5 -9.5z" />
    <glyph glyph-name="uni0437" unicode="&#x437;" horiz-adv-x="501" 
d="M61 407l-8.00098 72.999c42 11.333 93.333 17 154 17c84 0 142.167 -8.83301 174.5 -26.5s48.5 -52.5 48.5 -104.5c0 -36.667 -7.66699 -64 -23 -82s-41.666 -28.667 -78.999 -32v-3c42.667 -3.33301 73.334 -15.166 92.001 -35.499s28 -51.166 28 -92.499
c0 -51.333 -15.833 -85.833 -47.5 -103.5s-86.5 -26.5 -164.5 -26.5c-80.667 0 -147 5.33301 -199 16l7 73c64 -5.33301 125.667 -8 185 -8c46.667 0 78.167 4.66699 94.5 14s24.5 27.666 24.5 54.999c0 28 -8.5 47 -25.5 57s-47.833 15 -92.5 15h-121v71h120
c41.333 0 69.166 4.83301 83.499 14.5s21.5 28.167 21.5 55.5c0 24.667 -8.66699 41 -26 49s-50.333 12 -99 12c-58 0 -107.333 -2.66699 -148 -8z" />
    <glyph glyph-name="uni0438" unicode="&#x438;" horiz-adv-x="588" 
d="M511 0h-86.999v309c0 8.66699 0.5 20.834 1.5 36.501s1.5 26.167 1.5 31.5h-2c-6.66699 -18 -18.334 -38 -35.001 -60l-235 -317h-78v488h86v-310c0 -20 -1 -42 -3 -66h3c12.667 25.333 24 44.666 34 57.999l236 318h78v-488z" />
    <glyph glyph-name="uni0439" unicode="&#x439;" horiz-adv-x="588" 
d="M370 704h72.999c3.33301 -40 -9 -73.333 -37 -100s-66 -40 -114 -40c-49.333 0 -88.166 13.333 -116.499 40s-40.833 60 -37.5 100h73c0 -58 27 -87 81 -87c52 0 78 29 78 87zM510.999 0h-86.999v309c0 8.66699 0.5 20.834 1.5 36.501s1.5 26.167 1.5 31.5h-2
c-6.66699 -18 -18.334 -38 -35.001 -60l-235 -317h-78v488h86v-310c0 -20 -1 -42 -3 -66h3c12.667 25.333 24 44.666 34 57.999l236 318h78v-488z" />
    <glyph glyph-name="uni043A" unicode="&#x43a;" horiz-adv-x="540" 
d="M311 255l-0.00292969 -1.99902c16 -2 30.167 -5.16699 42.5 -9.5s23.333 -9 33 -14s19.167 -13.667 28.5 -26s17.166 -23.333 23.499 -33s13.833 -25 22.5 -46s15.834 -39.167 21.501 -54.5l25.5 -70h-101l-27.5 71.5c-5.66699 14.333 -13.167 32 -22.5 53
s-17.333 35.5 -24 43.5s-15.167 16.667 -25.5 26s-21.166 15.333 -32.499 18s-24.666 4 -39.999 4h-67c3.33301 -16.667 5 -31.667 5 -45v-171h-96v488h96v-141c0 -17.333 -1.66699 -36 -5 -56h61c42.667 0 74.334 14.167 95.001 42.5s44 79.833 70 154.5h100l-23 -61.5
c-4 -11 -10.5 -27.167 -19.5 -48.5s-16.167 -35.666 -21.5 -42.999l-21.5 -30c-9 -12.667 -17.833 -21.334 -26.5 -26.001s-19 -9.33398 -31 -14.001s-25.333 -8 -40 -10z" />
    <glyph glyph-name="uni043B" unicode="&#x43b;" horiz-adv-x="567" 
d="M490 488v-487.999h-97v413h-98c-20 0 -34.167 -4.33301 -42.5 -13s-14.166 -24.334 -17.499 -47.001c-16 -124 -31 -206.333 -45 -247c-24 -76 -77.667 -113 -161 -111l-10 74c26 6 44.833 13.5 56.5 22.5s21.167 22.833 28.5 41.5
c15.333 40.667 28.666 119.667 39.999 237c4.66699 40 17.5 69.667 38.5 89s52.5 29 94.5 29h213z" />
    <glyph glyph-name="uni043C" unicode="&#x43c;" horiz-adv-x="753" 
d="M532 488l99.001 -0.000976562c24 0 36 -12 36 -36l20 -452h-90l-18 415h-16l-114 -329c-6 -20.667 -18.333 -31 -37 -31h-73c-18 0 -30.667 10.333 -38 31l-113 329h-16l-17 -415h-89l19 452c0 24 12.333 36 37 36h98c18.667 0 31 -10.333 37 -31l92 -269
c7.33301 -21.333 13.666 -44.666 18.999 -69.999h15l8.5 32.5c4.33301 16.333 7.83301 28.833 10.5 37.5l92 269c7.33301 20.667 20 31 38 31z" />
    <glyph glyph-name="uni043D" unicode="&#x43d;" horiz-adv-x="585" 
d="M509 488v-488h-96v222h-241v-222h-95v488h95v-192h241v192h96z" />
    <glyph glyph-name="uni043E" unicode="&#x43e;" horiz-adv-x="573" 
d="M287 501c84.667 0 144.665 -19.667 179.998 -59s53 -105.666 53 -198.999s-17.667 -159.333 -53 -198s-95.333 -58 -180 -58c-85.333 0 -145.666 19.5 -180.999 58.5s-53 104.833 -53 197.5c0 93.333 17.833 159.666 53.5 198.999s95.834 59 180.501 59zM286.998 419
c-50.667 0 -85.333 -12.333 -104 -37s-28 -71 -28 -139c0 -67.333 9.33301 -113.333 28 -138s53.334 -37 104.001 -37c50 0 84.5 12.333 103.5 37s28.5 70.667 28.5 138c0 68 -9.33301 114.333 -28 139s-53.334 37 -104.001 37z" />
    <glyph glyph-name="uni043F" unicode="&#x43f;" horiz-adv-x="577" 
d="M500 488v-488h-94v410h-235v-410h-94v488h423z" />
    <glyph glyph-name="uni0440" unicode="&#x440;" horiz-adv-x="587" 
d="M157 488l7 -75c25.333 26.667 56.5 48 93.5 64s73.167 24 108.5 24c58 0 100.333 -21.833 127 -65.5s40 -108.5 40 -194.5c0 -92 -15 -157.167 -45 -195.5s-77.333 -57.5 -142 -57.5c-65.333 0 -124 16.333 -176 49c2.66699 -33.333 3.66699 -66.333 3 -99v-137h-96v687
h80zM173 346v-248c66 -17.333 115.333 -26 148 -26c42 0 71.167 11.5 87.5 34.5s24.5 68.167 24.5 135.5c0 64.667 -7.5 110 -22.5 136s-40.833 39 -77.5 39c-24 0 -48 -5.5 -72 -16.5s-53.333 -29.167 -88 -54.5z" />
    <glyph glyph-name="uni0441" unicode="&#x441;" horiz-adv-x="495" 
d="M447 80l10 -65c-50 -18 -107 -27 -171 -27c-85.333 0 -145.5 19.167 -180.5 57.5s-52.5 104.5 -52.5 198.5s17.667 160.333 53 199s95.666 58 180.999 58c64.667 0 118.334 -8.33301 161.001 -25l-12 -62c-50 3.33301 -94.333 5 -133 5c-56 0 -94.667 -12.333 -116 -37
s-32 -70.667 -32 -138s10.667 -113.333 32 -138s60 -37 116 -37c54.667 0 102.667 3.66699 144 11z" />
    <glyph glyph-name="uni0442" unicode="&#x442;" horiz-adv-x="494" 
d="M469 409h-173v-409h-97v409h-173v79h443v-79z" />
    <glyph glyph-name="uni0443" unicode="&#x443;" horiz-adv-x="536" 
d="M518 488l-189.999 -511c-24 -68 -54.667 -116.333 -92 -145c-44.667 -33.333 -108.334 -44 -191.001 -32l9 68c52 -4 91 2.66699 117 20c25.333 18 47.666 49.333 66.999 94l7 18h-21c-17.333 -0 -28.666 8.33301 -33.999 25l-172 463h103l121 -355
c9.33301 -24.667 15.333 -44.667 18 -60h14c1.33301 4.66699 3.5 11.334 6.5 20.001s5.5 16.167 7.5 22.5s4 12.166 6 17.499l120 355h104z" />
    <glyph glyph-name="uni0444" unicode="&#x444;" horiz-adv-x="723" 
d="M406 700v-200c96 -4.66699 164.167 -26.834 204.5 -66.501s60.5 -103.167 60.5 -190.5c0 -86.667 -20.333 -149.5 -61 -188.5s-108.667 -60.833 -204 -65.5v-188h-89v188c-95.333 4.66699 -163.333 26.5 -204 65.5s-61 101.833 -61 188.5
c0 87.333 20.167 150.833 60.5 190.5s108.5 61.834 204.5 66.501v200h89zM320 70l-0.00195312 347.998c-65.333 -3.33301 -110.666 -17.833 -135.999 -43.5s-38 -69.5 -38 -131.5c0 -61.333 12.833 -104.666 38.5 -129.999s70.834 -39.666 135.501 -42.999zM402.998 417.998
l-0.00195312 -347.998c64.667 3.33301 109.834 17.666 135.501 42.999s38.5 68.666 38.5 129.999c0 62 -12.667 105.833 -38 131.5s-70.666 40.167 -135.999 43.5z" />
    <glyph glyph-name="uni0445" unicode="&#x445;" horiz-adv-x="536" 
d="M277 216h-18l-132 -216h-105l159 252l-147 236h104l119 -197h22l119 197h104l-147 -236l159 -252h-105z" />
    <glyph glyph-name="uni0446" unicode="&#x446;" horiz-adv-x="599" 
d="M564 -144h-64l-9 144h-414v488h95v-410h227v410h96v-410h69v-222z" />
    <glyph glyph-name="uni0447" unicode="&#x447;" horiz-adv-x="537" 
d="M459 488l-0.00195312 -488h-96v199c-64 -22 -125.333 -33 -184 -33c-84 0 -126 36 -126 108v214h95v-181c0 -22.667 4.83301 -38.667 14.5 -48s25.834 -14 48.501 -14c50.667 0 101.334 10 152.001 30v213h96z" />
    <glyph glyph-name="uni0448" unicode="&#x448;" horiz-adv-x="811" 
d="M734 488v-488h-657v488h93v-410h191v410h87v-410h192v410h94z" />
    <glyph glyph-name="uni0449" unicode="&#x449;" horiz-adv-x="839" 
d="M804 -144h-64l-9 144h-654v488h93v-410h192v410h86v-410h193v410h93v-410h70v-222z" />
    <glyph glyph-name="uni044A" unicode="&#x44a;" horiz-adv-x="634" 
d="M288 304l104.999 -0.000976562c76 0 128.333 -11.167 157 -33.5s43 -63.166 43 -122.499c0 -58.667 -14.167 -99 -42.5 -121s-76.166 -33 -143.499 -33c-90 0 -161 2 -213 6v412h-169v76h263v-184zM287.999 70.999l105 -1.00098c38.667 0 65.167 5.5 79.5 16.5
s21.5 32.833 21.5 65.5c0 30.667 -7 51.834 -21 63.501s-40.667 17.5 -80 17.5h-105v-162z" />
    <glyph glyph-name="uni044B" unicode="&#x44b;" horiz-adv-x="731" 
d="M170 304l107 -0.000976562c75.333 0 127 -11.167 155 -33.5s42 -63.166 42 -122.499c0 -58.667 -13.667 -99 -41 -121s-74 -33 -140 -33c-90.667 0 -162 2 -214 6h-2v488h93v-184zM654 487.999v-488h-97v488h97zM170 70.999l107.001 -1.00098c38 0 64 5.5 78 16.5
s21 32.833 21 65.5c0 30.667 -6.83301 51.834 -20.5 63.501s-39.834 17.5 -78.501 17.5h-107v-162z" />
    <glyph glyph-name="uni044C" unicode="&#x44c;" horiz-adv-x="518" 
d="M170 304l107 -0.000976562c76 0 128.333 -11.167 157 -33.5s43 -63.166 43 -122.499c0 -58.667 -13.833 -99 -41.5 -121s-75.167 -33 -142.5 -33c-90.667 0 -162 2 -214 6h-2v488h93v-184zM170 70.999l107 -1.00098c39.333 0 66.166 5.5 80.499 16.5
s21.5 32.833 21.5 65.5c0 30.667 -7.16699 51.834 -21.5 63.501s-41.166 17.5 -80.499 17.5h-107v-162z" />
    <glyph glyph-name="uni044D" unicode="&#x44d;" horiz-adv-x="511" 
d="M55 409l-10 67.001c43.333 12.667 99.666 19 168.999 19c90 0 153 -18.667 189 -56s54 -103.333 54 -198c0 -92.667 -18 -157.834 -54 -195.501s-99 -56.5 -189 -56.5c-69.333 0 -127.333 7 -174 21l9 68c48.667 -4 103.667 -6 165 -6c52 0 88.5 9.83301 109.5 29.5
s32.833 56.5 35.5 110.5h-247v73h246c-4 49.333 -16.667 83.333 -38 102s-56.666 27.667 -105.999 27c-62.667 0 -115.667 -1.66699 -159 -5z" />
    <glyph glyph-name="uni044E" unicode="&#x44e;" horiz-adv-x="801" 
d="M173 289h119c4 80 22.5 135.333 55.5 166s88.167 46 165.5 46c87.333 0 148.166 -18.167 182.499 -54.5s51.5 -103.5 51.5 -201.5c0 -96.667 -17.167 -163.167 -51.5 -199.5s-95.166 -54.5 -182.499 -54.5c-79.333 0 -135.5 16 -168.5 48s-50.833 90.333 -53.5 175h-118
v-214h-96v488h96v-199zM511 72c51.333 0 86.666 12.3311 105.999 36.998s29.333 70 30 136c-0.666992 66.667 -10.667 112.334 -30 137.001s-54.666 37 -105.999 37c-49.333 0 -83 -12.167 -101 -36.5s-27 -70.166 -27 -137.499c0 -66 9 -111.333 27 -136
s51.667 -37 101 -37z" />
    <glyph glyph-name="uni044F" unicode="&#x44f;" horiz-adv-x="547" 
d="M175 209l0.00195312 4c-38.667 6 -66.5 20 -83.5 42s-25.5 53 -25.5 93c0 50 13.667 86.833 41 110.5s75.666 35.5 144.999 35.5c98 0 171 -2.33301 219 -7v-487h-95v178h-126c-42.667 0 -68.334 -15.667 -77.001 -47l-36 -131h-100l44 147c10 35.333 41.333 56 94 62z
M376.002 250l-0.000976562 166h-122c-38.667 0 -64 -5.5 -76 -16.5s-18 -32.833 -18 -65.5c0 -32 6.33301 -54 19 -66s38.334 -18 77.001 -18h120z" />
    <glyph glyph-name="uni0451" unicode="&#x451;" horiz-adv-x="543" 
d="M210 586h-33c-17.333 0 -26 8.66699 -26 26v54c0 18 8.66699 27 26 27h33c16.667 0 25 -9 25 -27v-54c0 -17.333 -8.33301 -26 -25 -26zM387 586h-32c-18 0 -27 8.66699 -27 26v54c0 18 9 27 27 27h32c17.333 0 26 -9 26 -27v-54c0 -17.333 -8.66699 -26 -26 -26z
M375 197h-219.001c4.66699 -50.667 17.834 -84.667 39.501 -102s57.167 -26 106.5 -26c43.333 0 100.333 4 171 12l9 -64c-44 -19.333 -108.333 -29 -193 -29c-85.333 0 -146 19.5 -182 58.5s-54 105.167 -54 198.5c0 94.667 17.667 161 53 199s93.333 57 174 57
c74 0 128 -13.667 162 -41s51.333 -68.333 52 -123c0 -93.333 -39.667 -140 -119 -140zM153.999 272l194.998 -0.000976562c32.667 0 48.334 21.667 47.001 65c0 30 -8.16699 51.167 -24.5 63.5s-45.166 18.5 -86.499 18.5c-48.667 0 -82.167 -10.167 -100.5 -30.5
s-28.5 -59.166 -30.5 -116.499z" />
    <glyph glyph-name="uni0452" unicode="&#x452;" horiz-adv-x="589" 
d="M197 491v-76c0 -28.667 -1.66699 -57 -5 -85c71.333 49.333 141.333 74 210 74c89.333 0 134 -44.667 134 -134v-270h-97v242c0 28 -5.83301 47.667 -17.5 59s-32.167 17 -61.5 17c-41.333 0 -96 -19.667 -164 -59v-259h-96v491h-74v55h74v154h97v-154h180v-55h-180z" />
    <glyph glyph-name="uni0453" unicode="&#x453;" horiz-adv-x="467" 
d="M432 664l-199 -117l-33 44l177 147zM74 0v383c0 72 37 108 111 108c120.667 0 207.667 -3 261 -9l-3 -68h-217c-19.333 0 -33.5 -4.5 -42.5 -13.5s-13.5 -23.5 -13.5 -43.5v-357h-96z" />
    <glyph glyph-name="uni0454" unicode="&#x454;" horiz-adv-x="511" 
d="M462 78l9 -68.001c-46.667 -14 -104.667 -21 -174 -21c-90 0 -153 18.833 -189 56.5s-54 102.834 -54 195.501c0 94.667 18 160.667 54 198s99 56 189 56c69.333 0 125.666 -6.33301 168.999 -19l-10 -67c-43.333 3.33301 -96.333 5 -159 5
c-49.333 0.666992 -84.666 -8.33301 -105.999 -27s-34 -52.667 -38 -102h247v-73h-248c2.66699 -54 14.5 -90.833 35.5 -110.5s57.5 -29.5 109.5 -29.5c61.333 0 116.333 2 165 6z" />
    <glyph glyph-name="uni0455" unicode="&#x455;" horiz-adv-x="513" 
d="M297 192l-136.002 34c-40.667 10.667 -69.334 26.5 -86.001 47.5s-25 51.5 -25 91.5c0 54 14.333 90.333 43 109s78.334 27.667 149.001 27c78 -1.33301 147.333 -7 208 -17l-7 -70c-103.333 3.33301 -165.333 5 -186 5c-47.333 0 -78.166 -2.83301 -92.499 -8.5
s-21.5 -20.834 -21.5 -45.501c0 -11.333 1 -20.5 3 -27.5s7.16699 -12.833 15.5 -17.5s14.833 -7.83398 19.5 -9.50098s15.334 -4.83398 32.001 -9.50098l138 -34c40.667 -10.667 69.834 -26 87.501 -46s26.5 -50.333 26.5 -91c0 -57.333 -15.833 -95.166 -47.5 -113.499
s-86.5 -27.5 -164.5 -27.5c-68 0 -132.667 4.66699 -194 14l7 72c36.667 -3.33301 92 -5 166 -5c54.667 0 91.5 3.83301 110.5 11.5s28.5 23.834 28.5 48.501c0 10.667 -1.33301 19.5 -4 26.5s-8.33398 12.833 -17.001 17.5s-15.5 7.83398 -20.5 9.50098
s-15.833 4.5 -32.5 8.5z" />
    <glyph glyph-name="uni0456" unicode="&#x456;" horiz-adv-x="257" 
d="M106 696h46c18.667 0 28 -9.33301 28 -28v-56c0 -19.333 -9.33301 -29 -28 -29h-46c-19.333 0 -29 9.66699 -29 29v56c0 18.667 9.66699 28 29 28zM177 0h-96v488h96v-488z" />
    <glyph glyph-name="uni0457" unicode="&#x457;" horiz-adv-x="257" 
d="M24 693h32c17.333 0 26 -9 26 -27v-54c0 -17.333 -8.66699 -26 -26 -26h-32c-17.333 0 -26 8.66699 -26 26v54c0 18 8.66699 27 26 27zM202 693h31c18 0 27 -9 27 -27v-54c0 -17.333 -9 -26 -27 -26h-31c-18 0 -27 8.66699 -27 26v54c0 18 9 27 27 27zM177 0h-96v488h96
v-488z" />
    <glyph glyph-name="uni0458" unicode="&#x458;" horiz-adv-x="258" 
d="M107 696h45c19.333 0 29 -9.33301 29 -28v-56c0 -19.333 -9.66699 -29 -29 -29h-45c-19.333 0 -29 9.66699 -29 29v56c0 18.667 9.66699 28 29 28zM178 488l0.000976562 -493c0 -40 -8.83301 -77.333 -26.5 -112s-41.834 -63 -72.501 -85l-53 42
c36.667 46 55 97.667 55 155v493h97z" />
    <glyph glyph-name="uni0459" unicode="&#x459;" horiz-adv-x="809" 
d="M466 305h103.999c75.333 0 127.166 -11.167 155.499 -33.5s42.5 -63.166 42.5 -122.499c0 -60 -14.167 -100.833 -42.5 -122.5s-76.5 -32.5 -144.5 -32.5c-86 0 -155 2 -207 6v415h-73c-18.667 0 -32.167 -3.33301 -40.5 -10s-13.5 -18.667 -15.5 -36
c-14 -130.667 -30.667 -220.334 -50 -269.001c-14 -36.667 -35.333 -63.5 -64 -80.5s-60.667 -24.5 -96 -22.5l-8 66c38.667 12.667 65.334 33.334 80.001 62.001c12.667 25.333 21.834 54.166 27.501 86.499s13.167 90.833 22.5 175.5c7.33301 67.333 46.333 101 117 101
h192v-183zM465.999 70h100c40 0 67.333 5.33301 82 16s22 33 22 67c0 31.333 -7 52.833 -21 64.5s-40.333 17.5 -79 17.5h-104v-165z" />
    <glyph glyph-name="uni045A" unicode="&#x45a;" horiz-adv-x="815" 
d="M471 304h105.001c76 0 128 -11 156 -33s42 -62.667 42 -122s-13.833 -100 -41.5 -122s-74.834 -33 -141.501 -33c-88.667 0 -159 2 -211 6v234h-214v-234h-89v488h89v-184h214v184h91v-184zM471.001 70l105 -0.000976562c38 0 64.167 5.5 78.5 16.5
s21.5 33.167 21.5 66.5c0 30.667 -6.83301 51.834 -20.5 63.501s-40.167 17.5 -79.5 17.5h-105v-164z" />
    <glyph glyph-name="uni045B" unicode="&#x45b;" horiz-adv-x="589" 
d="M197 491l0.000976562 -76c0 -28.667 -1.66699 -57 -5 -85c71.333 49.333 141.333 74 210 74c88 0 132.667 -44.667 134 -134v-275c0 -40 -8.83301 -77.333 -26.5 -112s-41.834 -63 -72.501 -85l-54 42c37.333 44.667 56 96 56 154v248c0 28 -5.83301 47.667 -17.5 59
s-32.167 17 -61.5 17c-41.333 0 -96 -19.667 -164 -59v-259h-96v491h-74v55h74v154h97v-154h180v-55h-180z" />
    <glyph glyph-name="uni045C" unicode="&#x45c;" horiz-adv-x="540" 
d="M243 547l-32 44l177 147l55 -74zM311 255l-0.00292969 -1.99902c16 -2 30.167 -5.16699 42.5 -9.5s23.333 -9 33 -14s19.167 -13.667 28.5 -26s17.166 -23.333 23.499 -33s13.833 -25 22.5 -46s15.834 -39.167 21.501 -54.5l25.5 -70h-101l-27.5 71.5
c-5.66699 14.333 -13.167 32 -22.5 53s-17.333 35.5 -24 43.5s-15.167 16.667 -25.5 26s-21.166 15.333 -32.499 18s-24.666 4 -39.999 4h-67c3.33301 -16.667 5 -31.667 5 -45v-171h-96v488h96v-141c0 -17.333 -1.66699 -36 -5 -56h61c42.667 0 74.334 14.167 95.001 42.5
s44 79.833 70 154.5h100l-23 -61.5c-4 -11 -10.5 -27.167 -19.5 -48.5s-16.167 -35.666 -21.5 -42.999l-21.5 -30c-9 -12.667 -17.833 -21.334 -26.5 -26.001s-19 -9.33398 -31 -14.001s-25.333 -8 -40 -10z" />
    <glyph glyph-name="uni045D" unicode="&#x45d;" horiz-adv-x="588" 
d="M343 591l-32 -44l-199 117l54 74zM511 0h-86.999v309c0 8.66699 0.5 20.834 1.5 36.501s1.5 26.167 1.5 31.5h-2c-6.66699 -18 -18.334 -38 -35.001 -60l-235 -317h-78v488h86v-310c0 -20 -1 -42 -3 -66h3c12.667 25.333 24 44.666 34 57.999l236 318h78v-488z" />
    <glyph glyph-name="uni045E" unicode="&#x45e;" horiz-adv-x="536" 
d="M346 705h72.999c3.33301 -40 -9 -73.5 -37 -100.5s-66 -40.5 -114 -40.5c-49.333 0 -88.166 13.5 -116.499 40.5s-40.833 60.5 -37.5 100.5h73c0 -58.667 27 -88 81 -88c52 0 78 29.333 78 88zM517.999 488l-189.999 -511c-24 -68 -54.667 -116.333 -92 -145
c-44.667 -33.333 -108.334 -44 -191.001 -32l9 68c52 -4 91 2.66699 117 20c25.333 18 47.666 49.333 66.999 94l7 18h-21c-17.333 -0 -28.666 8.33301 -33.999 25l-172 463h103l121 -355c9.33301 -24.667 15.333 -44.667 18 -60h14c1.33301 4.66699 3.5 11.334 6.5 20.001
s5.5 16.167 7.5 22.5s4 12.166 6 17.499l120 355h104z" />
    <glyph glyph-name="uni045F" unicode="&#x45f;" horiz-adv-x="582" 
d="M506 488v-488h-175l-8 -165h-65l-8 165h-173v488h97v-410h235v410h97z" />
    <glyph glyph-name="uni0490" unicode="&#x490;" horiz-adv-x="525" 
d="M505 675l-4 -69h-255c-23.333 0 -39.833 -5 -49.5 -15s-14.5 -28 -14.5 -54v-537h-100v556c0 40 12.167 72.667 36.5 98s55.5 38 93.5 38c98 0 170.333 -2.33301 217 -7l11 157h65v-167z" />
    <glyph glyph-name="uni0491" unicode="&#x491;" horiz-adv-x="469" 
d="M448 634l-0.000976562 -152l-4 -68h-218c-36.667 0 -55 -19 -55 -57v-357h-96v383c0 72 37 108 111 108c84.667 0 147.334 -1 188.001 -3l10 146h64z" />
    <glyph glyph-name="uni04B0" unicode="&#x4b0;" horiz-adv-x="585" 
d="M490 219h-147v-219h-100v219h-147v59h128l-209 412h107l138 -283c5.33301 -11.333 15.333 -38 30 -80h8c10 32.667 20 59 30 79l138 284h104l-207 -412h127v-59z" />
    <glyph glyph-name="uni04B1" unicode="&#x4b1;" horiz-adv-x="588" 
d="M363 78h129v-61h-148v-216h-99v216h-149v61h129l-209 410h106l138 -280c9.33301 -20 19.333 -46.333 30 -79h8c10.667 32.667 20.667 59 30 79l138 280h106z" />
    <glyph glyph-name="uni04B6" unicode="&#x4b6;" horiz-adv-x="659" 
d="M629 69v-220h-68l-10 151h-104v303c-76 -36.667 -152 -55 -228 -55c-54.667 0 -95.167 13 -121.5 39s-39.5 65.667 -39.5 119v284h101v-264c-1.33301 -32 5.5 -55.167 20.5 -69.5s39.833 -21.5 74.5 -21.5c60 0 124.333 16 193 48v307h100v-621h82z" />
    <glyph glyph-name="uni04B7" unicode="&#x4b7;" horiz-adv-x="564" 
d="M529 78l-0.00195312 -222h-64l-9 144h-93v199c-64 -22 -125.333 -33 -184 -33c-84 0 -126 36 -126 108v214h95v-181c0 -22.667 4.83301 -38.667 14.5 -48s25.834 -14 48.501 -14c50.667 0 101.334 10 152.001 30v213h96v-410h70z" />
    <glyph glyph-name="uni04BA" unicode="&#x4ba;" horiz-adv-x="630" 
d="M184 690v-303c73.333 36.667 149 55 227 55c54.667 0 95.167 -13 121.5 -39s39.5 -65.667 39.5 -119v-284h-100v264c0.666992 32 -6.5 55.167 -21.5 69.5s-39.833 21.5 -74.5 21.5c-63.333 0 -127.333 -16 -192 -48v-307h-100v690h100z" />
    <glyph glyph-name="uni04C0" unicode="&#x4c0;" horiz-adv-x="269" 
d="M185 0h-100v690h100v-690z" />
    <glyph glyph-name="Wgrave" unicode="&#x1e80;" horiz-adv-x="951" 
d="M528 770l-32 -45l-199 117l54 75zM921 690l-131.999 -661c-6 -19.333 -19 -29 -39 -29h-111c-21.333 0 -34.333 10 -39 30l-100 507c-6.66699 34.667 -11.334 60.667 -14.001 78h-21l-15 -78l-99 -507c-1.33301 -8.66699 -5.83301 -15.834 -13.5 -21.501
s-16.167 -8.5 -25.5 -8.5h-112c-20.667 0 -33.334 9.66699 -38.001 29l-132 661h106l99 -526c2 -11.333 6 -40.666 12 -87.999h23c3.33301 28.667 8.33301 58 15 88l99 493c4.66699 22 17.334 33 38.001 33h107c9.33301 0 17.5 -3.16699 24.5 -9.5
s11.5 -14.166 13.5 -23.499l98 -494c5.33301 -26.667 10.333 -55.667 15 -87h23l6 43c2.66699 19.333 5 33.666 7 42.999l99 528h106z" />
    <glyph glyph-name="wgrave" unicode="&#x1e81;" horiz-adv-x="826" 
d="M466 591l-33 -44l-199 117l55 74zM803 488l-136.999 -461c-5.33301 -18 -17.666 -27 -36.999 -27h-87c-20 -0 -32.333 10.333 -37 31l-71 321c-1.33301 6 -2.83301 14.167 -4.5 24.5s-3.33398 19.833 -5.00098 28.5s-3.5 17 -5.5 25h-12l-16 -78l-70 -321
c-4.66699 -20.667 -17.334 -31 -38.001 -31h-86c-20 0 -32 9 -36 27l-138 461h100l94 -352c8 -33.333 13 -58.333 15 -75h13l17 75l72 322c4.66699 20 16.667 30 36 30h87c19.333 0 31.333 -10.333 36 -31l71 -321c1.33301 -6.66699 7 -31.667 17 -75h13
c4.66699 30 9.66699 55 15 75l94 352h100z" />
    <glyph glyph-name="Wacute" unicode="&#x1e82;" horiz-adv-x="951" 
d="M639 842l-199 -117l-32 45l176 147zM921 690l-131.999 -661c-6 -19.333 -19 -29 -39 -29h-111c-21.333 0 -34.333 10 -39 30l-100 507c-6.66699 34.667 -11.334 60.667 -14.001 78h-21l-15 -78l-99 -507c-1.33301 -8.66699 -5.83301 -15.834 -13.5 -21.501
s-16.167 -8.5 -25.5 -8.5h-112c-20.667 0 -33.334 9.66699 -38.001 29l-132 661h106l99 -526c2 -11.333 6 -40.666 12 -87.999h23c3.33301 28.667 8.33301 58 15 88l99 493c4.66699 22 17.334 33 38.001 33h107c9.33301 0 17.5 -3.16699 24.5 -9.5
s11.5 -14.166 13.5 -23.499l98 -494c5.33301 -26.667 10.333 -55.667 15 -87h23l6 43c2.66699 19.333 5 33.666 7 42.999l99 528h106z" />
    <glyph glyph-name="wacute" unicode="&#x1e83;" horiz-adv-x="826" 
d="M576 664l-199 -117l-32 44l177 147zM803 488l-136.999 -461c-5.33301 -18 -17.666 -27 -36.999 -27h-87c-20 -0 -32.333 10.333 -37 31l-71 321c-1.33301 6 -2.83301 14.167 -4.5 24.5s-3.33398 19.833 -5.00098 28.5s-3.5 17 -5.5 25h-12l-16 -78l-70 -321
c-4.66699 -20.667 -17.334 -31 -38.001 -31h-86c-20 0 -32 9 -36 27l-138 461h100l94 -352c8 -33.333 13 -58.333 15 -75h13l17 75l72 322c4.66699 20 16.667 30 36 30h87c19.333 0 31.333 -10.333 36 -31l71 -321c1.33301 -6.66699 7 -31.667 17 -75h13
c4.66699 30 9.66699 55 15 75l94 352h100z" />
    <glyph glyph-name="Wdieresis" unicode="&#x1e84;" horiz-adv-x="951" 
d="M371 872h33c16.667 0 25 -9 25 -27v-54c0 -18 -8.33301 -27 -25 -27h-33c-16.667 0 -25 9 -25 27v54c0 18 8.33301 27 25 27zM549 872h32c17.333 0 26 -9 26 -27v-54c0 -18 -8.66699 -27 -26 -27h-32c-17.333 0 -26 9 -26 27v54c0 18 8.66699 27 26 27zM921 690
l-131.999 -661c-6 -19.333 -19 -29 -39 -29h-111c-21.333 0 -34.333 10 -39 30l-100 507c-6.66699 34.667 -11.334 60.667 -14.001 78h-21l-15 -78l-99 -507c-1.33301 -8.66699 -5.83301 -15.834 -13.5 -21.501s-16.167 -8.5 -25.5 -8.5h-112
c-20.667 0 -33.334 9.66699 -38.001 29l-132 661h106l99 -526c2 -11.333 6 -40.666 12 -87.999h23c3.33301 28.667 8.33301 58 15 88l99 493c4.66699 22 17.334 33 38.001 33h107c9.33301 0 17.5 -3.16699 24.5 -9.5s11.5 -14.166 13.5 -23.499l98 -494
c5.33301 -26.667 10.333 -55.667 15 -87h23l6 43c2.66699 19.333 5 33.666 7 42.999l99 528h106z" />
    <glyph glyph-name="wdieresis" unicode="&#x1e85;" horiz-adv-x="826" 
d="M309 693h32c17.333 0 26 -9 26 -27v-54c0 -18 -8.66699 -27 -26 -27h-32c-17.333 0 -26 9 -26 27v54c0 18 8.66699 27 26 27zM486 693h32c18 0 27 -9 27 -27v-54c0 -18 -9 -27 -27 -27h-32c-17.333 0 -26 9 -26 27v54c0 18 8.66699 27 26 27zM803 488l-136.999 -461
c-5.33301 -18 -17.666 -27 -36.999 -27h-87c-20 -0 -32.333 10.333 -37 31l-71 321c-1.33301 6 -2.83301 14.167 -4.5 24.5s-3.33398 19.833 -5.00098 28.5s-3.5 17 -5.5 25h-12l-16 -78l-70 -321c-4.66699 -20.667 -17.334 -31 -38.001 -31h-86c-20 0 -32 9 -36 27
l-138 461h100l94 -352c8 -33.333 13 -58.333 15 -75h13l17 75l72 322c4.66699 20 16.667 30 36 30h87c19.333 0 31.333 -10.333 36 -31l71 -321c1.33301 -6.66699 7 -31.667 17 -75h13c4.66699 30 9.66699 55 15 75l94 352h100z" />
    <glyph glyph-name="Ygrave" unicode="&#x1ef2;" horiz-adv-x="574" 
d="M306 726l-199 117l55 74l176 -146zM337 239v-238.999h-100v240l-228 450h106l139 -283c5.33301 -11.333 15.333 -38 30 -80h7c14 41.333 24 67.666 30 78.999l139 284h104z" />
    <glyph glyph-name="ygrave" unicode="&#x1ef3;" horiz-adv-x="533" 
d="M288 547l-199 117l55 74l177 -147zM516 488l-189.001 -511c-45.333 -120 -120 -180.667 -224 -182l-10 64c38 11.333 68 27 90 47s39.667 45.333 53 76l7 18h-20c-18.667 -0 -30 8.33301 -34 25l-173 463h104l121 -355c8 -20.667 13.667 -40.667 17 -60h14
c6.66699 18 13.334 38 20.001 60l120 355h104z" />
    <glyph glyph-name="endash" unicode="&#x2013;" horiz-adv-x="586" 
d="M517 216h-448v74h448v-74z" />
    <glyph glyph-name="emdash" unicode="&#x2014;" horiz-adv-x="889" 
d="M819 216h-750v74h750v-74z" />
    <glyph glyph-name="quoteleft" unicode="&#x2018;" horiz-adv-x="221" 
d="M124 491l-28.0029 -0.000976562c-12.667 0 -21.5 2.33301 -26.5 7s-7.5 13.334 -7.5 26.001v58c0.666992 55.333 13.334 104.333 38.001 147l45 -12c-6.66699 -35.333 -10 -72.666 -10 -111.999c18.667 0 27.334 -9.33301 26.001 -28v-53
c-0.666992 -12.667 -3.66699 -21.334 -9 -26.001s-14.666 -7 -27.999 -7z" />
    <glyph glyph-name="quoteright" unicode="&#x2019;" horiz-adv-x="218" 
d="M95 722h27.999c13.333 0 22.5 -2.33301 27.5 -7s7.5 -13 7.5 -25v-59c-0.666992 -52.667 -13.334 -101.667 -38.001 -147l-46 12c7.33301 34.667 11 72 11 112c-18 0 -27 9.33301 -27 28v54c0.666992 12 3.83398 20.333 9.50098 25s14.834 7 27.501 7z" />
    <glyph glyph-name="quotesinglbase" unicode="&#x201a;" horiz-adv-x="232" 
d="M103 115h28.001c13.333 0 22.5 -2.33301 27.5 -7s7.5 -13 7.5 -25v-59c-0.666992 -53.333 -13.334 -102.333 -38.001 -147l-46 12c7.33301 40 11 77.333 11 112c-18 0 -27 9.33301 -27 28v54c0.666992 21.333 13 32 37 32z" />
    <glyph glyph-name="quotedblleft" unicode="&#x201c;" horiz-adv-x="381" 
d="M124 491l-28.0029 -0.000976562c-12.667 0 -21.5 2.33301 -26.5 7s-7.5 13.334 -7.5 26.001v58c0.666992 55.333 13.334 104.333 38.001 147l45 -12c-6.66699 -35.333 -10 -72.666 -10 -111.999c18.667 0 27.334 -9.33301 26.001 -28v-53
c-0.666992 -12.667 -3.66699 -21.334 -9 -26.001s-14.666 -7 -27.999 -7zM283.997 490.999h-28.0029c-12.667 0 -21.5 2.33301 -26.5 7s-7.5 13.334 -7.5 26.001v58c0.666992 53.333 13.334 102.333 38.001 147l46 -12c-7.33301 -34 -11 -71.333 -11 -112
c18.667 0 27.334 -9.33301 26.001 -28v-53c-0.666992 -12.667 -3.66699 -21.334 -9 -26.001s-14.666 -7 -27.999 -7z" />
    <glyph glyph-name="quotedblright" unicode="&#x201d;" horiz-adv-x="378" 
d="M95 722h27.999c13.333 0 22.5 -2.33301 27.5 -7s7.5 -13 7.5 -25v-59c-0.666992 -52.667 -13.334 -101.667 -38.001 -147l-46 12c7.33301 34.667 11 72 11 112c-18 0 -27 9.33301 -27 28v54c0.666992 12 3.83398 20.333 9.50098 25s14.834 7 27.501 7zM254.999 722
h28.999c12.667 0 21.5 -2.33301 26.5 -7s7.5 -13 7.5 -25v-59c-0.666992 -52.667 -13.334 -101.667 -38.001 -147l-46 12c7.33301 34.667 11 72 11 112c-18 0 -27 9.33301 -27 28v54c0.666992 12 3.83398 20.333 9.50098 25s14.834 7 27.501 7z" />
    <glyph glyph-name="quotedblbase" unicode="&#x201e;" horiz-adv-x="392" 
d="M103 115h27.999c13.333 0 22.5 -2.33301 27.5 -7s7.5 -13 7.5 -25v-59c-0.666992 -53.333 -13.334 -102.333 -38.001 -147l-46 12c7.33301 40 11 77.333 11 112c-18 0 -27 9.33301 -27 28v54c0.666992 12 3.83398 20.333 9.50098 25s14.834 7 27.501 7zM262.999 115
h27.999c13.333 0 22.5 -2.33301 27.5 -7s7.5 -13 7.5 -25v-59c-0.666992 -53.333 -13.334 -102.333 -38.001 -147l-46 12c7.33301 40 11 77.333 11 112c-18 0 -27 9.33301 -27 28v54c0.666992 12 3.83398 20.333 9.50098 25s14.834 7 27.501 7z" />
    <glyph glyph-name="dagger" unicode="&#x2020;" horiz-adv-x="457" 
d="M268 -110h-79v594l-4 207h88l-5 -207v-594zM40 404v84h130v-73zM417 488v-84l-130 11v73h130z" />
    <glyph glyph-name="daggerdbl" unicode="&#x2021;" horiz-adv-x="495" 
d="M287 486v-393l4 -203h-87l4 203v393l-4 205h87zM189 415l-130 -11v84h130v-73zM436 404l-130 11v73h130v-84zM189 166v-73h-130v84zM436 93h-130v73l130 11v-84z" />
    <glyph glyph-name="bullet" unicode="&#x2022;" horiz-adv-x="365" 
d="M178 362h13c32 0 54.333 -6.33301 67 -19s19 -35 19 -67v-13c0 -34 -6.33301 -57.5 -19 -70.5s-35 -19.5 -67 -19.5h-13c-34 0 -57.5 6.5 -70.5 19.5s-19.5 36.5 -19.5 70.5v13c0 32 6.5 54.333 19.5 67s36.5 19 70.5 19z" />
    <glyph glyph-name="ellipsis" unicode="&#x2026;" horiz-adv-x="860" 
d="M97 124h32c12.667 0 21.667 -2.66699 27 -8s8 -14.333 8 -27v-53c0 -13.333 -2.5 -22.666 -7.5 -27.999s-14.167 -8 -27.5 -8h-32c-13.333 0 -22.5 2.66699 -27.5 8s-7.5 14.666 -7.5 27.999v53c0 12.667 2.66699 21.667 8 27s14.333 8 27 8zM410 124h32
c13.333 0 22.666 -2.5 27.999 -7.5s8 -14.167 8 -27.5v-53c0 -13.333 -2.66699 -22.666 -8 -27.999s-14.666 -8 -27.999 -8h-32c-13.333 0 -22.5 2.66699 -27.5 8s-7.5 14.666 -7.5 27.999v53c0 12.667 2.5 21.667 7.5 27s14.167 8 27.5 8zM724 124h32
c13.333 0 22.5 -2.66699 27.5 -8s7.5 -14.333 7.5 -27v-53c0 -13.333 -2.5 -22.666 -7.5 -27.999s-14.167 -8 -27.5 -8h-32c-13.333 0 -22.666 2.66699 -27.999 8s-8 14.666 -8 27.999v53c0 12.667 2.66699 21.667 8 27s14.666 8 27.999 8z" />
    </font>
</defs>
</svg>
