<?xml version="1.0" standalone="no"?>
<!DOCTYPE svg PUBLIC "-//W3C//DTD SVG 1.1//EN" "http://www.w3.org/Graphics/SVG/1.1/DTD/svg11.dtd" >
<svg xmlns="http://www.w3.org/2000/svg" xmlns:xlink="http://www.w3.org/1999/xlink" version="1.1">
<metadata>
Created by FontForge 20150824 at Mon Apr 11 14:21:22 2016
 By Everything Fonts
Copyright (c) 2008-2012 by Jos Buivenga/exljbris. All rights reserved.
</metadata>
<defs>
<font id="MuseoCyrl-100" horiz-adv-x="560" >
  <font-face 
    font-family="Museo Cyrl 100"
    font-weight="250"
    font-stretch="normal"
    units-per-em="1000"
    panose-1="2 0 0 0 0 0 0 0 0 0"
    ascent="750"
    descent="-250"
    x-height="500"
    cap-height="700"
    bbox="-100 -237 1088 874"
    underline-thickness="50"
    underline-position="-150"
    unicode-range="U+0020-FB04"
  />
<missing-glyph horiz-adv-x="510" 
d="M5 0v700h500v-700h-500zM255 395l170 255h-340zM285 350l170 -255v510zM55 95l170 255l-170 255v-510zM85 50h340l-170 255z" />
    <glyph glyph-name="f_f" unicode="ff" horiz-adv-x="562" 
d="M90 0v462h-63v38h63v20q0 58 17 98t44.5 57t50 23.5t46.5 6.5l26 -2v-39q-9 2 -23 2q-19 0 -36 -5t-37.5 -18.5t-33 -45t-12.5 -76.5v-21h235v20q0 58 17 98t44.5 57t50 23.5t46.5 6.5l26 -2v-39q-9 2 -23 2q-19 0 -36 -5t-37.5 -18.5t-33 -45t-12.5 -76.5v-21h137v-38
h-137v-462h-42v462h-235v-462h-42z" />
    <glyph glyph-name="fi" unicode="fi" horiz-adv-x="502" 
d="M90 0v462h-63v38h63v20q0 58 17 98t44.5 57t50 23.5t46.5 6.5l26 -2v-39q-9 2 -23 2q-19 0 -36 -5t-37.5 -18.5t-33 -45t-12.5 -76.5v-21h224q31 0 44.5 -13.5t13.5 -44.5v-382q0 -22 22 -22h43v-38h-49q-31 0 -44.5 13.5t-13.5 44.5v382q0 22 -22 22h-218v-462h-42z
M366 627v73h46v-73h-46z" />
    <glyph glyph-name="fl" unicode="fl" horiz-adv-x="498" 
d="M90 0v462h-63v38h63v20q0 47 12 82t29 53t40.5 29t40.5 13.5t36 2.5h102q31 0 44.5 -13.5t13.5 -44.5v-582q0 -22 22 -22h43v-38h-49q-31 0 -44.5 13.5t-13.5 44.5v582q0 22 -22 22h-93q-119 0 -119 -141v-21h137v-38h-137v-462h-42z" />
    <glyph glyph-name="f_f_i" unicode="ffi" horiz-adv-x="779" 
d="M90 0v462h-63v38h63v20q0 58 17 98t44.5 57t50 23.5t46.5 6.5l26 -2v-39q-9 2 -23 2q-19 0 -36 -5t-37.5 -18.5t-33 -45t-12.5 -76.5v-21h235v20q0 58 17 98t44.5 57t50 23.5t46.5 6.5l26 -2v-39q-9 2 -23 2q-19 0 -36 -5t-37.5 -18.5t-33 -45t-12.5 -76.5v-21h224
q31 0 44.5 -13.5t13.5 -44.5v-382q0 -22 22 -22h43v-38h-49q-31 0 -44.5 13.5t-13.5 44.5v382q0 22 -22 22h-218v-462h-42v462h-235v-462h-42zM643 627v73h46v-73h-46z" />
    <glyph glyph-name="f_f_l" unicode="ffl" horiz-adv-x="775" 
d="M90 0v462h-63v38h63v23q0 57 16 96t42.5 56t49.5 23.5t47 6.5l29 -2v-39q-11 2 -26 2q-19 0 -36 -5t-36.5 -18.5t-31.5 -44t-12 -74.5v-24h235v20q0 47 12 82t29 53t40.5 29t40.5 13.5t36 2.5h102q31 0 44.5 -13.5t13.5 -44.5v-582q0 -22 22 -22h43v-38h-49
q-31 0 -44.5 13.5t-13.5 44.5v582q0 22 -22 22h-93q-119 0 -119 -141v-21h137v-38h-137v-462h-42v462h-235v-462h-42z" />
    <glyph glyph-name="f_j" unicode="fj" horiz-adv-x="514" 
d="M90 0v462h-63v38h63v20q0 58 17 98t44.5 57t50 23.5t46.5 6.5l26 -2v-39q-9 2 -23 2q-19 0 -36 -5t-37.5 -18.5t-33 -45t-12.5 -76.5v-21h249q31 0 44.5 -13.5t13.5 -44.5v-462q0 -58 -17 -98t-44.5 -57.5t-50.5 -23.5t-47 -6l-25 2v39q9 -2 22 -2q19 0 36.5 5t38 18.5
t33 45t12.5 76.5v461q0 22 -22 22h-243v-462h-42zM392 627v73h46v-73h-46z" />
    <glyph glyph-name=".notdef" horiz-adv-x="510" 
d="M5 0v700h500v-700h-500zM255 395l170 255h-340zM285 350l170 -255v510zM55 95l170 255l-170 255v-510zM85 50h340l-170 255z" />
    <glyph glyph-name=".null" horiz-adv-x="0" 
 />
    <glyph glyph-name="nonmarkingreturn" horiz-adv-x="333" 
 />
    <glyph glyph-name="space" unicode=" " horiz-adv-x="275" 
 />
    <glyph glyph-name="exclam" unicode="!" horiz-adv-x="241" 
d="M99 175v525h43v-525h-43zM93 0v59h57v-59h-57z" />
    <glyph glyph-name="quotedbl" unicode="&#x22;" horiz-adv-x="285" 
d="M173 558v151h43v-151h-43zM69 558v151h43v-151h-43z" />
    <glyph glyph-name="numbersign" unicode="#" horiz-adv-x="707" 
d="M156 0l35 199h-152l7 40h152l39 221h-152l7 40h152l35 200h43l-35 -200h189l35 200h43l-35 -200h149l-7 -40h-149l-39 -221h149l-7 -40h-149l-35 -199h-43l35 199h-189l-35 -199h-43zM241 239h189l39 221h-189z" />
    <glyph glyph-name="dollar" unicode="$" 
d="M66 115l35 27q2 -5 7 -12.5t21.5 -26.5t36.5 -34t52 -27t68 -12q71 0 113.5 41.5t42.5 101.5q0 54 -36.5 91.5t-88 61t-103.5 48t-88.5 67.5t-36.5 104q0 63 47.5 109.5t127.5 55.5v95h43v-93q61 -4 112 -31t51 -81v-44h-43v34q0 34 -38.5 57t-93.5 23q-75 0 -118 -36
t-43 -88q0 -51 36.5 -87t88 -58.5t103.5 -47.5t88.5 -69.5t36.5 -108.5q0 -72 -49.5 -125.5t-130.5 -60.5v-93h-43v93q-38 3 -72.5 17.5t-56.5 32.5t-38.5 35t-23.5 29z" />
    <glyph glyph-name="percent" unicode="%" horiz-adv-x="667" 
d="M175 451q-54 0 -92 38t-38 92t38 92.5t92 38.5t92.5 -38.5t38.5 -92.5t-38.5 -92t-92.5 -38zM43 0l531 700h52l-531 -700h-52zM175 491q37 0 62.5 26t25.5 64t-25.5 64.5t-62.5 26.5t-62 -26.5t-25 -64.5t25 -64t62 -26zM361 118q0 54 38 92.5t92 38.5t92.5 -38.5
t38.5 -92.5t-38.5 -92t-92.5 -38t-92 38t-38 92zM404 118q0 -38 25 -64t62 -26t62.5 26t25.5 64t-25.5 64.5t-62.5 26.5t-62 -26.5t-25 -64.5z" />
    <glyph glyph-name="ampersand" unicode="&#x26;" horiz-adv-x="624" 
d="M51 191q0 65 35 118t97 70v2q-4 1 -11 4t-24.5 14.5t-30.5 27.5t-24 45.5t-11 65.5q0 77 54.5 125.5t149.5 48.5q13 0 31.5 -2.5t30.5 -5.5l12 -2l-14 -38q-37 8 -63 8q-67 0 -111.5 -36.5t-44.5 -96.5q0 -23 6 -44t22 -44.5t52.5 -38t90.5 -14.5h163v102h43v-102h97v-40
h-97v-112q0 -129 -59.5 -193.5t-163.5 -64.5q-101 0 -165.5 57.5t-64.5 145.5zM96 193q0 -70 50 -116.5t135 -46.5q180 0 180 216v112h-161q-101 0 -152.5 -44.5t-51.5 -120.5z" />
    <glyph glyph-name="quotesingle" unicode="'" horiz-adv-x="181" 
d="M69 558v151h43v-151h-43z" />
    <glyph glyph-name="parenleft" unicode="(" horiz-adv-x="234" 
d="M159 -95q-112 196 -112 430q0 218 104 390h44q-107 -180 -107 -387q0 -232 115 -433h-44z" />
    <glyph glyph-name="parenright" unicode=")" horiz-adv-x="234" 
d="M31 -95q115 201 115 433q0 207 -107 387h44q104 -172 104 -390q0 -234 -112 -430h-44z" />
    <glyph glyph-name="asterisk" unicode="*" horiz-adv-x="471" 
d="M141 344l-36 25l99 130v2l-156 47l13 42l155 -54l-5 164h47l-5 -164l156 53l14 -41l-157 -47v-2l98 -130l-35 -26l-93 134h-2z" />
    <glyph glyph-name="plus" unicode="+" 
d="M22 263v40h237v263h43v-263h236v-40h-236v-263h-43v263h-237z" />
    <glyph glyph-name="comma" unicode="," horiz-adv-x="223" 
d="M37 -94l53 155h52l-64 -155h-41z" />
    <glyph glyph-name="hyphen" unicode="-" horiz-adv-x="404" 
d="M64 263v40h276v-40h-276z" />
    <glyph glyph-name="period" unicode="." horiz-adv-x="185" 
d="M64 0v59h57v-59h-57z" />
    <glyph glyph-name="slash" unicode="/" horiz-adv-x="382" 
d="M43 -42l253 782h44l-253 -782h-44z" />
    <glyph glyph-name="zero" unicode="0" horiz-adv-x="588" 
d="M294 -12q-236 0 -236 362t236 362t236 -362t-236 -362zM294 30q54 0 92.5 24t59.5 69t30 100t9 127q0 320 -191 320t-191 -320q0 -72 9 -127t30 -100t59.5 -69t92.5 -24z" />
    <glyph glyph-name="one" unicode="1" horiz-adv-x="412" 
d="M41 0v40h159v570l1 35h-2q-7 -13 -37 -43l-83 -83l-30 29l151 152h43v-660h155v-40h-357z" />
    <glyph glyph-name="two" unicode="2" horiz-adv-x="546" 
d="M40 58q0 53 21 96t55 72t75 53.5t81.5 48t74.5 48.5t55 62t21 82q0 65 -44 107.5t-118 42.5q-57 0 -98 -25t-41 -60v-34h-43v44q0 40 33.5 68t73 38.5t76.5 10.5q98 0 152 -56t54 -136q0 -50 -21 -91.5t-55 -69.5t-75 -53t-82.5 -49t-75.5 -50t-55 -63t-21 -82
q0 -22 22 -22h332q22 0 22 22v49h42v-53q0 -31 -13.5 -44.5t-44.5 -13.5h-345q-31 0 -44.5 13.5t-13.5 44.5z" />
    <glyph glyph-name="three" unicode="3" horiz-adv-x="533" 
d="M39 85l32 32q3 -4 8.5 -9.5t24.5 -20.5t39.5 -26.5t52 -21t63.5 -9.5q70 0 122.5 48.5t52.5 123.5q0 78 -55.5 122.5t-131.5 44.5h-48l-12 30l196 229l31 32v2q-19 -2 -54 -2h-224q-22 0 -22 -22v-49h-42v53q0 31 13.5 44.5t44.5 13.5h344v-30l-226 -261q36 0 72.5 -9.5
t74 -31.5t61 -65t23.5 -101q0 -89 -65.5 -151.5t-156.5 -62.5q-37 0 -73.5 10t-61.5 24.5t-44.5 28.5t-29.5 24z" />
    <glyph glyph-name="four" unicode="4" horiz-adv-x="565" 
d="M21 200v30l363 470h40v-460h113v-40h-113v-200h-43v200h-360zM77 237q28 3 56 3h248v328l3 63h-2q-17 -25 -35 -48l-233 -301l-37 -43v-2z" />
    <glyph glyph-name="five" unicode="5" horiz-adv-x="523" 
d="M44 89l35 27l6 -9t18.5 -21t31.5 -26t45.5 -20.5t60.5 -9.5q82 0 138 52.5t56 130.5q0 79 -56 132t-138 53q-36 0 -70 -10.5t-50 -21.5l-16 -10l-32 11l32 275q4 32 16 45t42 13h218q30 0 43.5 -13.5t13.5 -44.5v-53h-42v49q0 22 -22 22h-204q-19 0 -22 -22l-22 -187
l-7 -43h2q49 32 120 32q100 0 169.5 -66t69.5 -161q0 -94 -70 -159.5t-169 -65.5q-38 0 -72.5 10.5t-56 25t-38 29.5t-23.5 25z" />
    <glyph glyph-name="six" unicode="6" horiz-adv-x="555" 
d="M297 -12q-113 0 -179 91t-66 226q0 69 17.5 138t51.5 130.5t94.5 100t137.5 38.5q32 0 62.5 -7t44.5 -14l15 -7l-21 -39q-43 25 -103 25q-47 0 -88 -19t-69.5 -51t-50 -75t-33 -90t-14.5 -96h2q27 48 81 74t118 26q94 0 154.5 -60t60.5 -158q0 -109 -62 -171t-153 -62z
M101 258q0 -79 56 -153.5t139 -74.5q79 0 125 53t46 138q0 81 -47.5 128.5t-124.5 47.5q-78 0 -136 -44.5t-58 -94.5z" />
    <glyph glyph-name="seven" unicode="7" horiz-adv-x="498" 
d="M91 0l312 595l37 65v2q-20 -2 -55 -2h-289q-22 0 -22 -22v-49h-42v53q0 31 13.5 44.5t44.5 13.5h403v-30l-352 -670h-50z" />
    <glyph glyph-name="eight" unicode="8" horiz-adv-x="564" 
d="M51 195q0 36 13.5 68.5t33 54t39 37.5t33.5 23l13 7v2l-11 5.5t-25 16.5t-32 28.5t-25 41.5t-11 55q0 74 55.5 126t150.5 52q96 0 152 -50.5t56 -131.5q0 -31 -10.5 -61t-25.5 -50.5t-29.5 -36.5t-25.5 -24l-10 -8v-2q58 -28 88.5 -64.5t30.5 -96.5q0 -82 -67 -140.5
t-161 -58.5t-163 55.5t-69 151.5zM277 391q54 -21 69 -21q24 0 63 52t39 108q0 64 -45.5 102t-117.5 38q-74 0 -117.5 -38.5t-43.5 -97.5q0 -31 11 -53.5t36 -39.5t46 -26.5t60 -23.5zM96 195q0 -74 56 -119.5t131 -45.5q71 0 127 44.5t56 111.5q0 56 -36.5 87t-111.5 60
q-75 30 -90 30q-30 0 -81 -51.5t-51 -116.5z" />
    <glyph glyph-name="nine" unicode="9" horiz-adv-x="555" 
d="M80 16l21 39q43 -25 103 -25q59 0 107 29t78.5 77t48 106t21.5 120h-2q-27 -48 -81 -74.5t-118 -26.5q-94 0 -154.5 60t-60.5 158q0 109 62 171t153 62q113 0 179 -91t66 -226q0 -69 -17.5 -138t-51.5 -130.5t-94.5 -100t-137.5 -38.5q-32 0 -62.5 7t-45.5 14zM260 303
q78 0 136 44.5t58 94.5q0 79 -56 153.5t-139 74.5q-79 0 -125 -53t-46 -138q0 -81 47.5 -128.5t124.5 -47.5z" />
    <glyph glyph-name="colon" unicode=":" horiz-adv-x="185" 
d="M64 441v59h57v-59h-57zM64 0v59h57v-59h-57z" />
    <glyph glyph-name="semicolon" unicode=";" horiz-adv-x="252" 
d="M112 441v59h57v-59h-57zM67 -94l45 155h52l-56 -155h-41z" />
    <glyph glyph-name="less" unicode="&#x3c;" 
d="M47 265v36l439 197v-48l-377 -166v-2l377 -166v-48z" />
    <glyph glyph-name="equal" unicode="=" 
d="M52 343v40h456v-40h-456zM52 183v40h456v-40h-456z" />
    <glyph glyph-name="greater" unicode="&#x3e;" 
d="M73 68v48l377 166v2l-377 166v48l439 -197v-36z" />
    <glyph glyph-name="question" unicode="?" horiz-adv-x="430" 
d="M158 175v44q0 45 18.5 82.5t45 63.5t52.5 50.5t44.5 56.5t18.5 69q0 55 -41 92t-105 37q-32 0 -64 -10.5t-47 -21.5l-16 -10l-23 34q7 6 19 14t51 22t79 14q85 0 138.5 -49t53.5 -123q0 -46 -18.5 -82.5t-45 -61.5t-53.5 -49t-45.5 -56.5t-18.5 -71.5v-44h-43zM151 0v59
h57v-59h-57z" />
    <glyph glyph-name="at" unicode="@" horiz-adv-x="738" 
d="M51 243q0 151 102 258t244 107q120 0 176 -51t56 -126v-344h70v-40h-265q-80 0 -136.5 57t-56.5 137q0 81 56.5 138.5t136.5 57.5h150q-3 57 -46 94t-135 37q-129 0 -218 -94.5t-89 -230.5t88.5 -229.5t218.5 -93.5v-42q-146 0 -249 106.5t-103 258.5zM286 241
q0 -64 44.5 -109t108.5 -45h145v310h-143q-65 0 -110 -46t-45 -110z" />
    <glyph glyph-name="A" unicode="A" horiz-adv-x="647" 
d="M12 0v40h11q30 0 38 22l239 638h47l239 -638q8 -22 38 -22h11v-40h-12q-38 0 -53.5 11t-28.5 47l-69 184h-297l-69 -184q-13 -36 -28.5 -47t-53.5 -11h-12zM190 282h268l-107 284l-27 84h-2q-15 -54 -26 -84z" />
    <glyph glyph-name="B" unicode="B" horiz-adv-x="589" 
d="M106 58v602h-65v40h295q78 0 127.5 -48t49.5 -127q0 -109 -91 -153v-2q53 -15 86 -63t33 -114q0 -87 -55 -140t-140 -53h-182q-31 0 -44.5 13.5t-13.5 44.5zM149 388h186q59 0 96 37.5t37 99.5t-36.5 98.5t-97.5 36.5h-185v-272zM149 62q0 -22 22 -22h171q71 0 112.5 41
t41.5 112q0 70 -43.5 112.5t-111.5 42.5h-192v-286z" />
    <glyph glyph-name="C" unicode="C" horiz-adv-x="689" 
d="M42 355q0 152 98 254.5t244 102.5q56 0 113.5 -14.5t102 -48.5t44.5 -81v-50h-43v40q0 50 -70 81t-146 31q-127 0 -212.5 -90t-85.5 -225q0 -137 86 -231t215 -94q42 0 82 10.5t67 25t47.5 29t30.5 25.5l10 10l27 -31q-4 -5 -11.5 -12t-32.5 -26.5t-53.5 -34t-73.5 -26.5
t-93 -12q-149 0 -247.5 106.5t-98.5 260.5z" />
    <glyph glyph-name="D" unicode="D" horiz-adv-x="714" 
d="M106 58v602h-65v40h280q158 0 253.5 -93t95.5 -257q0 -165 -95 -257.5t-254 -92.5h-157q-31 0 -44.5 13.5t-13.5 44.5zM149 62q0 -22 22 -22h143q142 0 226.5 81t84.5 229q0 147 -84.5 228.5t-226.5 81.5h-165v-598z" />
    <glyph glyph-name="E" unicode="E" horiz-adv-x="550" 
d="M106 58v602h-65v40h390q31 0 44.5 -13.5t13.5 -44.5v-53h-42v49q0 22 -22 22h-276v-287h279v-40h-279v-271q0 -22 22 -22h284q22 0 22 22v49h42v-53q0 -31 -13.5 -44.5t-44.5 -13.5h-297q-31 0 -44.5 13.5t-13.5 44.5z" />
    <glyph glyph-name="F" unicode="F" horiz-adv-x="488" 
d="M106 0v660h-65v40h360q31 0 44.5 -13.5t13.5 -44.5v-53h-42v49q0 22 -22 22h-246v-292h268v-40h-268v-328h-43z" />
    <glyph glyph-name="G" unicode="G" horiz-adv-x="713" 
d="M42 350q0 152 100 257t246 105q70 0 130 -21t85 -42l25 -21l-26 -34q-3 3 -9.5 8t-27.5 18.5t-44 23.5t-59 18t-74 8q-129 0 -215 -92t-86 -228q0 -137 84.5 -228.5t213.5 -91.5q42 0 82 12t67.5 28.5t49 33.5t31.5 29l10 12v102q0 22 -22 22h-43v40h50q31 0 44.5 -13.5
t13.5 -44.5v-251h-43v61l1 30h-2q-3 -4 -10 -11t-29.5 -25t-48.5 -31.5t-67 -24.5t-84 -11q-146 0 -244.5 104.5t-98.5 257.5z" />
    <glyph glyph-name="H" unicode="H" horiz-adv-x="742" 
d="M106 0v638q0 22 -22 22h-43v40h50q31 0 44.5 -13.5t13.5 -44.5v-271h444v271q0 31 13.5 44.5t44.5 13.5h50v-40h-43q-22 0 -22 -22v-638h-43v331h-444v-331h-43z" />
    <glyph glyph-name="I" unicode="I" horiz-adv-x="259" 
d="M44 0v40h64v620h-64v40h171v-40h-64v-620h64v-40h-171z" />
    <glyph glyph-name="J" unicode="J" horiz-adv-x="481" 
d="M23 191v22h43v-22q0 -84 42 -122.5t102 -38.5t102 38.5t42 122.5v447q0 22 -22 22h-175v40h182q31 0 44.5 -13.5t13.5 -44.5v-451q0 -104 -54.5 -153.5t-132.5 -49.5t-132.5 49.5t-54.5 153.5z" />
    <glyph glyph-name="K" unicode="K" horiz-adv-x="566" 
d="M106 0v638q0 22 -22 22h-43v40h50q31 0 44.5 -13.5t13.5 -44.5v-254h99q44 0 60 25l182 287h52l-191 -296q-7 -11 -15 -19.5t-12 -11.5l-4 -3v-2q14 -5 29 -35l136 -270q7 -15 18 -19t33 -4h20v-40h-20q-45 0 -62 9t-34 44l-133 268q-13 27 -65 27h-93v-348h-43z" />
    <glyph glyph-name="L" unicode="L" horiz-adv-x="517" 
d="M106 58v580q0 22 -22 22h-43v40h50q31 0 44.5 -13.5t13.5 -44.5v-580q0 -22 22 -22h268q22 0 22 22v49h42v-53q0 -31 -13.5 -44.5t-44.5 -13.5h-281q-31 0 -44.5 13.5t-13.5 44.5z" />
    <glyph glyph-name="M" unicode="M" horiz-adv-x="833" 
d="M23 0v40h40q21 0 22 22l51 638h42l204 -440l34 -79h2q18 45 34 79l204 440h42l51 -638q1 -22 22 -22h40v-40h-47q-30 0 -43 13.5t-15 44.5l-38 476l-3 93h-2q-20 -59 -36 -93l-188 -399h-44l-187 399l-37 95h-2q0 -61 -3 -95l-38 -476q-2 -31 -15 -44.5t-43 -13.5h-47z
" />
    <glyph glyph-name="N" unicode="N" horiz-adv-x="748" 
d="M41 0v40h43q22 0 22 22v638h40l399 -549l57 -88h2q-5 53 -5 88v491q0 31 13.5 44.5t44.5 13.5h50v-40h-43q-22 0 -22 -22v-638h-40l-399 549l-57 88h-2q5 -53 5 -88v-491q0 -31 -13.5 -44.5t-44.5 -13.5h-50z" />
    <glyph glyph-name="O" unicode="O" horiz-adv-x="790" 
d="M41 355q0 150 103.5 253.5t250.5 103.5t250.5 -103.5t103.5 -253.5q0 -154 -103.5 -260.5t-250.5 -106.5t-250.5 106.5t-103.5 260.5zM86 355q0 -137 90 -231t219 -94t219 94t90 231q0 133 -90 224t-219 91t-219 -91t-90 -224z" />
    <glyph glyph-name="P" unicode="P" horiz-adv-x="562" 
d="M106 0v660h-65v40h285q93 0 153 -55.5t60 -148.5q0 -94 -60 -150t-153 -56h-177v-290h-43zM149 330h175q78 0 124 44t46 122t-46 121t-124 43h-175v-330z" />
    <glyph glyph-name="Q" unicode="Q" horiz-adv-x="790" 
d="M41 354q0 151 102.5 254.5t249.5 103.5q149 0 252.5 -103.5t103.5 -254.5q0 -146 -92 -249l90 -93l-28 -27l-89 92q-98 -89 -237 -89q-146 0 -249 107t-103 259zM86 354q0 -136 89 -230t218 -94q56 0 108 19t76 39l24 19l-90 93l28 27l89 -92q76 92 76 219
q0 135 -89.5 225.5t-221.5 90.5q-130 0 -218.5 -90.5t-88.5 -225.5z" />
    <glyph glyph-name="R" unicode="R" horiz-adv-x="599" 
d="M106 0v660h-65v40h290q85 0 139 -53.5t54 -140.5q0 -74 -39.5 -124t-104.5 -64v-2q11 -7 20 -24l114 -229q7 -15 18 -19t33 -4h14v-40h-14q-45 0 -62 9t-34 44l-105 211q-15 30 -29 38t-44 8h-142v-310h-43zM149 350h180q69 0 109.5 42.5t40.5 113.5t-40.5 112.5
t-109.5 41.5h-180v-310z" />
    <glyph glyph-name="S" unicode="S" horiz-adv-x="497" 
d="M34 83l29 33q3 -3 8.5 -9t24 -21t38.5 -26t52 -20.5t64 -9.5q66 0 111 40.5t45 102.5q0 54 -36.5 91.5t-88 61t-103.5 47.5t-88.5 66t-36.5 102q0 70 56.5 120.5t148.5 50.5q26 0 54.5 -5.5t58.5 -17.5t49 -35t19 -54v-44h-43v34q0 34 -40.5 57t-96.5 23
q-74 0 -117.5 -37.5t-43.5 -90.5q0 -50 36.5 -85t88 -57t103.5 -47t88.5 -69.5t36.5 -108.5q0 -78 -56 -132.5t-147 -54.5q-39 0 -75 10t-60 23.5t-43 27.5t-28 24z" />
    <glyph glyph-name="T" unicode="T" horiz-adv-x="603" 
d="M280 0v660h-202q-22 0 -22 -22v-49h-42v57q0 31 11.5 42.5t42.5 11.5h467q31 0 42.5 -11.5t11.5 -42.5v-57h-42v49q0 22 -22 22h-202v-660h-43z" />
    <glyph glyph-name="U" unicode="U" horiz-adv-x="695" 
d="M96 235v403q0 22 -22 22h-43v40h50q31 0 44.5 -13.5t13.5 -44.5v-404q0 -95 56.5 -151.5t151.5 -56.5t152 57t57 153v402q0 31 13.5 44.5t44.5 13.5h50v-40h-43q-22 0 -22 -22v-403q0 -111 -69.5 -179t-181.5 -68t-182 68t-70 179z" />
    <glyph glyph-name="V" unicode="V" horiz-adv-x="637" 
d="M295 0l-239 638q-8 22 -38 22h-6v40h7q38 0 53.5 -11t28.5 -47l189 -508l27 -84h2q15 51 27 84l190 508q14 37 29 47.5t53 10.5h7v-40h-6q-30 0 -38 -22l-239 -638h-47z" />
    <glyph glyph-name="W" unicode="W" horiz-adv-x="923" 
d="M232 0l-168 638q-6 22 -39 22h-8v40h7q40 0 57.5 -11t26.5 -47l132 -512l17 -75h2q10 40 20 75l167 566h51l149 -566l17 -75h2q8 41 17 75l133 512q9 36 26.5 47t57.5 11h7v-40h-8q-33 0 -39 -22l-168 -638h-53l-141 528l-25 111h-2q-15 -65 -28 -110l-157 -529h-53z" />
    <glyph glyph-name="X" unicode="X" horiz-adv-x="551" 
d="M19 0l226 370l-160 263q-17 27 -54 27h-17v40h17q39 0 58.5 -11t41.5 -47l99 -165l46 -78h2q21 44 42 78l100 165q22 36 41.5 47t58.5 11h17v-40h-17q-37 0 -54 -27l-161 -263l227 -370h-51l-162 266l-45 75h-2q-21 -41 -42 -76l-160 -265h-51z" />
    <glyph glyph-name="Y" unicode="Y" horiz-adv-x="586" 
d="M272 0v304l-198 329q-15 27 -49 27h-13v40h9q38 0 56 -10.5t41 -47.5l131 -218l43 -79h2q22 45 43 79l131 218q23 37 41 47.5t56 10.5h9v-40h-13q-34 0 -49 -27l-197 -329v-304h-43z" />
    <glyph glyph-name="Z" unicode="Z" horiz-adv-x="577" 
d="M29 0v34l402 562l51 64v2q-16 -2 -51 -2h-327q-22 0 -22 -22v-49h-42v53q0 31 13.5 44.5t44.5 13.5h436v-34l-402 -562l-51 -64v-2q16 2 51 2h351q22 0 22 22v49h42v-53q0 -31 -13.5 -44.5t-44.5 -13.5h-460z" />
    <glyph glyph-name="bracketleft" unicode="[" horiz-adv-x="241" 
d="M88 -37v704q0 31 13.5 44.5t44.5 13.5h50v-40h-43q-22 0 -22 -22v-696q0 -22 22 -22h43v-40h-50q-31 0 -44.5 13.5t-13.5 44.5z" />
    <glyph glyph-name="backslash" unicode="\" horiz-adv-x="382" 
d="M295 -42l-253 782h44l253 -782h-44z" />
    <glyph glyph-name="bracketright" unicode="]" horiz-adv-x="241" 
d="M45 -55h43q22 0 22 22v696q0 22 -22 22h-43v40h50q31 0 44.5 -13.5t13.5 -44.5v-704q0 -31 -13.5 -44.5t-44.5 -13.5h-50v40z" />
    <glyph glyph-name="asciicircum" unicode="^" horiz-adv-x="600" 
d="M77 252l197 448h32l197 -448h-46l-167 388l-167 -388h-46z" />
    <glyph glyph-name="underscore" unicode="_" horiz-adv-x="536" 
d="M20 0h496v-40h-496v40z" />
    <glyph glyph-name="grave" unicode="`" horiz-adv-x="343" 
d="M181 750l-79 111h56l67 -111h-44z" />
    <glyph glyph-name="a" unicode="a" horiz-adv-x="500" 
d="M34 133q0 35 13 63t32 45.5t49.5 30.5t55.5 19t60 9.5t54 4t46 0.5h33v7q0 89 -33 125t-112 36q-35 0 -73 -11t-38 -38v-34h-42v46q0 27 31.5 45.5t64 24.5t58.5 6q106 0 146 -49.5t40 -139.5v-263q0 -22 22 -22h43v-38h-49q-31 0 -44.5 14t-13.5 47l2 45h-2
q1 0 -4.5 -12t-18.5 -29.5t-32 -35t-50.5 -29.5t-67.5 -12q-68 0 -119 37.5t-51 107.5zM78 136q0 -43 34 -76t94 -33q77 0 124 65.5t47 146.5v27h-32q-31 0 -50.5 -0.5t-56 -4t-60 -12t-49 -22t-38.5 -37t-13 -54.5z" />
    <glyph glyph-name="b" unicode="b" horiz-adv-x="557" 
d="M78 0v640q0 22 -22 22h-43v38h49q31 0 44.5 -13.5t13.5 -44.5v-197l-2 -41h2q2 4 5.5 11.5t18 26t33 33t51 26t71.5 11.5q99 0 157.5 -72t58.5 -190t-62.5 -190t-161.5 -72q-35 0 -65.5 11t-49 27t-32 32t-18.5 27l-6 11h-2q2 -18 2 -44v-52h-42zM119 249
q0 -90 45.5 -155.5t128.5 -65.5q76 0 127 60t51 162q0 100 -48.5 160.5t-125.5 60.5q-76 0 -127 -55.5t-51 -166.5z" />
    <glyph glyph-name="c" unicode="c" horiz-adv-x="519" 
d="M40 249q0 116 75.5 189.5t182.5 73.5q23 0 50.5 -5t57 -16t49 -33t19.5 -50v-38h-42v29q0 33 -45 52.5t-89 19.5q-90 0 -152 -61.5t-62 -160.5q0 -98 62 -159t152 -61q49 0 90.5 18t59.5 36l17 18l22 -35q-3 -3 -8 -8.5t-23 -19t-38 -23.5t-52.5 -18.5t-67.5 -8.5
q-109 0 -183.5 72.5t-74.5 188.5z" />
    <glyph glyph-name="d" unicode="d" horiz-adv-x="569" 
d="M42 250q0 118 62.5 190t161.5 72q35 0 65.5 -11t49 -27t32 -32t19.5 -27l5 -11h2q-2 18 -2 41v195q0 22 -22 22h-43v38h49q31 0 44.5 -13.5t13.5 -44.5v-582q0 -22 22 -22h43v-38h-49q-31 0 -44.5 13.5t-13.5 44.5l2 38h-2q-2 -4 -5.5 -11.5t-18 -26t-33 -33t-51 -26
t-71.5 -11.5q-99 0 -157.5 72t-58.5 190zM86 250q0 -100 48.5 -160.5t125.5 -60.5q76 0 127 55.5t51 166.5q0 90 -45.5 155.5t-128.5 65.5q-76 0 -127 -60t-51 -162z" />
    <glyph glyph-name="e" unicode="e" horiz-adv-x="527" 
d="M41 249q0 122 71 192.5t172 70.5q97 0 150.5 -65.5t53.5 -162.5l-2 -27h-401q0 -105 61.5 -166.5t152.5 -61.5q43 0 81.5 15.5t55.5 31.5l18 16l23 -35q-8 -8 -22.5 -19.5t-61 -30.5t-94.5 -19q-109 0 -183.5 72.5t-74.5 188.5zM88 296h356q-4 87 -49 132t-112 45
q-73 0 -127.5 -46.5t-67.5 -130.5z" />
    <glyph glyph-name="f" unicode="f" horiz-adv-x="285" 
d="M90 0v462h-63v38h63v20q0 58 17 98t44.5 57t50 23.5t46.5 6.5l26 -2v-39q-9 2 -23 2q-19 0 -36 -5t-37.5 -18.5t-33 -45t-12.5 -76.5v-21h137v-38h-137v-462h-42z" />
    <glyph glyph-name="g" unicode="g" horiz-adv-x="563" 
d="M107 -134q62 -35 134 -35q85 0 137.5 42.5t52.5 129.5v53l2 41h-2q-48 -97 -166 -97q-98 0 -160 71t-62 187q0 117 58.5 185.5t156.5 68.5q40 0 72 -9.5t50 -23t30 -27.5t16 -24l4 -9h2q-1 11 -1 23q0 31 13.5 44.5t44.5 13.5h49v-38h-43q-22 0 -22 -22v-437
q0 -108 -65.5 -160.5t-163.5 -52.5q-81 0 -157 39zM268 41q73 0 118.5 51.5t45.5 165.5q0 213 -174 213q-81 0 -126 -56t-45 -157q0 -100 50 -158.5t131 -58.5z" />
    <glyph glyph-name="h" unicode="h" horiz-adv-x="580" 
d="M78 0v640q0 22 -22 22h-43v38h49q31 0 44.5 -13t13.5 -42v-228l-2 -41h2q17 47 72 91.5t138 44.5q92 0 128.5 -49.5t36.5 -145.5v-257q0 -22 22 -22h43v-38h-49q-31 0 -44.5 13.5t-13.5 44.5v244q0 30 -2 51.5t-9 45t-20 38.5t-36.5 24.5t-55.5 9.5q-70 0 -126.5 -44.5
t-75.5 -114.5q-8 -28 -8 -68v-244h-42z" />
    <glyph glyph-name="i" unicode="i" horiz-adv-x="218" 
d="M82 627v73h46v-73h-46zM88 58v382q0 22 -22 22h-43v38h49q31 0 44.5 -13.5t13.5 -44.5v-382q0 -22 22 -22h43v-38h-49q-31 0 -44.5 13.5t-13.5 44.5z" />
    <glyph glyph-name="j" unicode="j" horiz-adv-x="206" 
d="M84 627v73h46v-73h-46zM89 -21v461q0 22 -22 22h-43v38h49q31 0 44.5 -13.5t13.5 -44.5v-462q0 -58 -17 -98t-44.5 -57.5t-50.5 -23.5t-47 -6l-25 2v39q9 -2 22 -2q19 0 36.5 5t38 18.5t33 45t12.5 76.5z" />
    <glyph glyph-name="k" unicode="k" horiz-adv-x="465" 
d="M78 0v640q0 22 -22 22h-43v38h49q31 0 44.5 -13.5t13.5 -44.5v-340h58q39 0 61 26l141 172h56l-152 -181q-12 -13 -21.5 -21.5t-12.5 -10.5l-4 -2v-2q14 -6 30 -35l105 -187q8 -14 17.5 -18.5t30.5 -4.5h24v-38h-26q-40 0 -56 9.5t-35 43.5l-106 189q-13 23 -56 23h-54
v-265h-42z" />
    <glyph glyph-name="l" unicode="l" horiz-adv-x="212" 
d="M80 58v582q0 22 -22 22h-43v38h49q31 0 44.5 -13.5t13.5 -44.5v-582q0 -22 22 -22h43v-38h-49q-31 0 -44.5 13.5t-13.5 44.5z" />
    <glyph glyph-name="m" unicode="m" horiz-adv-x="924" 
d="M90 0v440q0 22 -22 22h-43v38h49q31 0 44.5 -13t13.5 -42v-28l-2 -41h2q19 56 75 96t115 40q74 0 112 -34t46 -102h2q22 58 74.5 97t115.5 39q92 0 129.5 -49.5t37.5 -145.5v-257q0 -22 22 -22h43v-38h-49q-31 0 -44.5 13.5t-13.5 44.5v244q0 82 -26 126.5t-99 44.5
q-60 0 -109.5 -45t-66.5 -107q-10 -33 -10 -77v-244h-42v302q0 30 -2 51.5t-9.5 45.5t-20 39t-35.5 25t-55 10q-64 0 -114 -47.5t-68 -113.5q-8 -28 -8 -68v-244h-42z" />
    <glyph glyph-name="n" unicode="n" horiz-adv-x="592" 
d="M90 0v440q0 22 -22 22h-43v38h49q31 0 44.5 -13t13.5 -42v-28l-2 -41h2q17 47 72 91.5t138 44.5q92 0 128.5 -49.5t36.5 -145.5v-257q0 -22 22 -22h43v-38h-49q-31 0 -44.5 13.5t-13.5 44.5v244q0 30 -2 51.5t-9 45t-20 38.5t-36.5 24.5t-55.5 9.5q-70 0 -126.5 -44.5
t-75.5 -114.5q-8 -28 -8 -68v-244h-42z" />
    <glyph glyph-name="o" unicode="o" horiz-adv-x="598" 
d="M40 253q0 109 75.5 184t183.5 75t183.5 -75t75.5 -184q0 -111 -75.5 -188t-183.5 -77t-183.5 77t-75.5 188zM84 253q0 -95 62.5 -159.5t152.5 -64.5t152.5 64.5t62.5 159.5q0 92 -62.5 155t-152.5 63t-152.5 -63t-62.5 -155z" />
    <glyph glyph-name="p" unicode="p" horiz-adv-x="569" 
d="M90 -200v640q0 22 -22 22h-43v38h49q31 0 44.5 -13t13.5 -42l-1 -40h2q2 4 5.5 11.5t17.5 26t32 32.5t51 25.5t72 11.5q99 0 157.5 -72t58.5 -190t-62 -190t-160 -72q-37 0 -68.5 11t-50 27t-31.5 32t-18 27l-5 11h-2q2 -18 2 -44v-252h-42zM131 249q0 -90 46.5 -155.5
t127.5 -65.5q76 0 127 60t51 162q0 100 -48.5 160.5t-125.5 60.5q-76 0 -127 -55.5t-51 -166.5z" />
    <glyph glyph-name="q" unicode="q" horiz-adv-x="569" 
d="M42 250q0 118 62.5 190t161.5 72q35 0 65.5 -11t49 -27t31.5 -31.5t18 -26.5l6 -11h2q-1 17 -1 40q0 55 57 55h50v-38h-43q-22 0 -22 -22v-640h-42v252l2 44h-2q-2 -4 -5.5 -11.5t-18 -26t-33 -33t-51 -26t-71.5 -11.5q-99 0 -157.5 72t-58.5 190zM86 250
q0 -100 48.5 -160.5t125.5 -60.5q76 0 127 55.5t51 166.5q0 90 -45.5 155.5t-128.5 65.5q-76 0 -127 -60t-51 -162z" />
    <glyph glyph-name="r" unicode="r" horiz-adv-x="327" 
d="M90 0v440q0 22 -22 22h-43v38h49q31 0 44.5 -13t13.5 -42v-35l-2 -41h2q20 61 60.5 98t97.5 37l29 -3v-42q-12 2 -23 2q-55 0 -93 -39.5t-56 -100.5q-15 -48 -15 -105v-216h-42z" />
    <glyph glyph-name="s" unicode="s" horiz-adv-x="420" 
d="M31 74l30 31q2 -3 6 -8t18.5 -18.5t31 -23.5t43.5 -18t56 -8q51 0 87 25t36 69q0 34 -29.5 59t-72 41t-85 34t-72 49.5t-29.5 75.5q0 63 47 96.5t124 33.5q19 0 41 -4.5t45.5 -13t39 -26.5t15.5 -41v-38h-42v24q0 28 -32 43t-65 15q-62 0 -95.5 -22t-33.5 -64
q0 -35 29.5 -60t72 -41t85 -33.5t72 -49.5t29.5 -78q0 -59 -48 -97t-120 -38q-35 0 -67 9t-52.5 21.5t-36 25t-21.5 21.5z" />
    <glyph glyph-name="t" unicode="t" horiz-adv-x="276" 
d="M85 181v281h-66v38h66v139h42v-139h131v-38h-131v-278q0 -46 12.5 -78t32.5 -46.5t37.5 -19.5t36.5 -5l23 2v-39q-10 -2 -25 -2q-19 0 -37 3t-41 14.5t-40 30.5t-29 54.5t-12 82.5z" />
    <glyph glyph-name="u" unicode="u" horiz-adv-x="587" 
d="M85 183v257q0 22 -22 22h-43v38h49q31 0 44.5 -13t13.5 -42v-247q0 -30 2 -51.5t9 -45t20 -38.5t36.5 -24.5t55.5 -9.5q90 0 147.5 67.5t57.5 159.5v244h42v-440q0 -22 22 -22h43v-38h-49q-31 0 -44.5 13t-13.5 42v28l2 41h-2q-17 -47 -70.5 -91.5t-134.5 -44.5
q-89 0 -127 48t-38 147z" />
    <glyph glyph-name="v" unicode="v" horiz-adv-x="504" 
d="M232 0l-172 438q-9 24 -38 24h-8v38h7q38 0 53 -10.5t29 -47.5l131 -334l17 -54h2q8 30 17 54l131 334q14 37 29 47.5t53 10.5h7v-38h-8q-29 0 -38 -24l-172 -438h-40z" />
    <glyph glyph-name="w" unicode="w" horiz-adv-x="843" 
d="M220 0l-154 438q-9 24 -38 24h-13v38h12q38 0 53.5 -10.5t28.5 -47.5l116 -334l17 -54h2q9 30 17 54l137 390h47l137 -390l17 -54h2q8 29 17 54l116 334q13 37 28.5 47.5t53.5 10.5h12v-38h-13q-29 0 -38 -24l-154 -438h-45l-139 388l-17 54h-2q-8 -30 -17 -54l-138 -388
h-45z" />
    <glyph glyph-name="x" unicode="x" horiz-adv-x="466" 
d="M24 0l180 264l-120 176q-16 22 -50 22h-14v38h14q41 0 57.5 -10t41.5 -48l82 -124l17 -29h2q9 16 17 29l82 124q25 38 41.5 48t57.5 10h14v-38h-14q-34 0 -50 -21l-120 -177l180 -264h-52l-138 207l-18 29h-2q-8 -14 -18 -29l-138 -207h-52z" />
    <glyph glyph-name="y" unicode="y" horiz-adv-x="523" 
d="M106 -210q-29 0 -54 12t-36 24l-10 11l25 32q1 -3 10 -11.5t27.5 -18t37.5 -9.5q60 0 98 90l36 83l-181 435q-10 24 -38 24h-8v38h7q37 0 52 -10.5t30 -47.5l142 -341l17 -47h2q7 23 17 47l141 341q15 37 30 47.5t52 10.5h7v-38h-8q-28 0 -38 -24l-231 -555
q-39 -93 -127 -93z" />
    <glyph glyph-name="z" unicode="z" horiz-adv-x="491" 
d="M39 0v34l303 381l39 46v2q-18 -2 -51 -2h-225q-22 0 -22 -22v-43h-41v46q0 31 13.5 44.5t44.5 13.5h338v-34l-304 -381l-40 -46v-2q19 2 52 2h250q22 0 22 22v43h41v-46q0 -31 -13.5 -44.5t-44.5 -13.5h-362z" />
    <glyph glyph-name="braceleft" unicode="{" horiz-adv-x="282" 
d="M111 88v94q0 30 -9 53.5t-21 35t-24.5 19t-21.5 9.5l-9 2v40q3 0 9 1.5t20.5 9.5t26 19.5t20.5 35t9 53.5v81q0 59 16 99.5t41 56.5t43 21.5t36 5.5h9v-39h-6q-13 0 -25.5 -4t-30.5 -17t-29 -44.5t-11 -77.5v-93q0 -27 -8 -50t-19.5 -36.5t-23.5 -23.5t-20 -13l-8 -4v-2
q3 -1 8.5 -3.5t19 -12.5t24 -22.5t19 -36.5t8.5 -52v-106q0 -46 11 -77.5t29 -44.5t30.5 -17t25.5 -4h6v-39q-3 -1 -9 -1q-13 0 -26.5 2.5t-34.5 13.5t-36.5 29t-27 54.5t-11.5 84.5z" />
    <glyph glyph-name="bar" unicode="|" horiz-adv-x="217" 
d="M87 -155v940h43v-940h-43z" />
    <glyph glyph-name="braceright" unicode="}" horiz-adv-x="282" 
d="M26 -56h6q13 0 25.5 4t30.5 17t29 44.5t11 77.5v106q0 45 20 76.5t40 40.5l19 10v2q-3 1 -8.5 3.5t-19 13t-24 23.5t-19 36.5t-8.5 50.5v93q0 46 -11 77.5t-29 44.5t-30.5 17t-25.5 4h-6v39h9q18 0 36 -5.5t43 -21.5t41 -56.5t16 -99.5v-81q0 -30 9 -53.5t21 -35
t24.5 -19t21.5 -9.5l9 -2v-40q-3 0 -9 -1.5t-20.5 -9.5t-26 -19.5t-20.5 -35t-9 -53.5v-94q0 -48 -11.5 -84.5t-27 -54.5t-36.5 -29t-34.5 -13.5t-26.5 -2.5l-9 1v39z" />
    <glyph glyph-name="asciitilde" unicode="~" horiz-adv-x="565" 
d="M65 213q0 74 31.5 109t83.5 35q31 0 55.5 -11.5t40 -27.5t30 -32t35 -27.5t45.5 -11.5q31 0 49 21t22 41.5t4 43.5h40q0 -74 -31.5 -109t-83.5 -35q-31 0 -55.5 11.5t-40 27.5t-30 32t-35 27.5t-45.5 11.5q-31 0 -49 -21t-22 -41.5t-4 -43.5h-40z" />
    <glyph glyph-name="uni00A0" unicode="&#xa0;" horiz-adv-x="275" 
 />
    <glyph glyph-name="exclamdown" unicode="&#xa1;" horiz-adv-x="214" 
d="M78 441v59h57v-59h-57zM86 -200v525h43v-525h-43z" />
    <glyph glyph-name="cent" unicode="&#xa2;" 
d="M271 -40v111q-97 9 -148 86.5t-51 192.5t51 192.5t148 86.5v111h43v-111q115 -11 175 -142l-41 -16q-52 116 -153 116q-89 0 -133.5 -66t-44.5 -171t44.5 -171t133.5 -66q101 0 153 116l41 -16q-60 -132 -175 -142v-111h-43z" />
    <glyph glyph-name="sterling" unicode="&#xa3;" 
d="M46 0v40h65v293h-45v40h45v162q0 75 56 126t141 51q40 0 76.5 -13t53.5 -25l17 -13l-29 -33q-6 5 -16 12t-41 18.5t-62 11.5q-72 0 -112.5 -40t-40.5 -99v-158h198v-40h-198v-293h305q22 0 22 22v49h42v-53q0 -31 -13.5 -44.5t-44.5 -13.5h-419z" />
    <glyph glyph-name="currency" unicode="&#xa4;" horiz-adv-x="600" 
d="M141 0v190h-74v40h74v80h-74v40h74v310h-65v40h262q93 0 153 -52.5t60 -141.5t-60 -142.5t-153 -53.5h-154v-80h255v-40h-255v-190h-43zM184 350h152q78 0 124 41.5t46 114.5t-46 113.5t-124 40.5h-152v-310z" />
    <glyph glyph-name="yen" unicode="&#xa5;" horiz-adv-x="600" 
d="M117 222v40h162v42l-29 48h-138v40h113v2l-148 244q-13 22 -51 22h-7v40h5q39 0 59 -11t42 -47l131 -218l43 -78h2q22 44 43 78l131 218q22 36 42 47t59 11h5v-40h-8q-38 0 -51 -22l-147 -244v-2h108v-40h-133l-28 -48v-42h161v-40h-161v-222h-43v222h-162z" />
    <glyph glyph-name="section" unicode="&#xa7;" horiz-adv-x="370" 
d="M133 62l-67 474q-2 16 -2 25q0 65 44.5 108t113.5 43q24 0 47 -8t35 -16l11 -9l-26 -32q-29 24 -68 24q-48 0 -80.5 -31t-32.5 -82q0 -7 2 -21l65 -475h-42zM54 -29l26 32q29 -24 68 -24q48 0 80 31t32 82q0 14 -1 21l-65 475h42l67 -474q2 -18 2 -25q0 -65 -45 -108
t-113 -43q-24 0 -47 8t-34 16z" />
    <glyph glyph-name="dieresis" unicode="&#xa8;" horiz-adv-x="486" 
d="M307 788v73h46v-73h-46zM170 788v73h46v-73h-46z" />
    <glyph glyph-name="copyright" unicode="&#xa9;" horiz-adv-x="806" 
d="M49 350q0 151 103 256.5t249 105.5q149 0 252.5 -105.5t103.5 -256.5q0 -152 -103.5 -257t-252.5 -105q-147 0 -249.5 105t-102.5 257zM94 350q0 -136 88.5 -228t218.5 -92q132 0 221.5 92t89.5 228q0 135 -89.5 227.5t-221.5 92.5q-130 0 -218.5 -92.5t-88.5 -227.5z
M198 349q0 85 57 148t158 63q29 0 56.5 -9t46 -22t33 -26t21.5 -22l6 -9l-33 -29q-5 8 -15.5 20.5t-44 33t-69.5 20.5q-81 0 -126 -49.5t-45 -117.5t45 -117.5t126 -49.5q37 0 69 18.5t46 36.5l14 19l33 -29q-2 -4 -7 -9.5t-21 -21t-33.5 -27t-45 -21t-56.5 -9.5
q-101 0 -158 62t-57 147z" />
    <glyph glyph-name="ordfeminine" unicode="&#xaa;" horiz-adv-x="434" 
d="M186 382q-46 0 -78.5 24.5t-32.5 68.5q0 111 195 111h13q-1 48 -19.5 67.5t-61.5 19.5q-60 0 -60 -22v-27h-39v37q0 26 34.5 37.5t65.5 11.5q68 0 93.5 -31t25.5 -89v-157q0 -8 7 -8h31v-37h-38q-38 0 -38 41v13h-2q-1 -2 -3 -6.5t-10.5 -14.5t-18 -18t-27 -14.5
t-37.5 -6.5zM186 419q45 0 71 38.5t26 91.5h-13q-28 0 -46.5 -1.5t-47.5 -7.5t-44.5 -22t-15.5 -41q0 -23 18.5 -40.5t51.5 -17.5zM72 263v37h294v-37h-294z" />
    <glyph glyph-name="guillemotleft" unicode="&#xab;" horiz-adv-x="479" 
d="M209 282l164 206h53l-164 -206l164 -205h-53zM213 77l-164 205l164 206h53l-164 -206l164 -205h-53z" />
    <glyph glyph-name="logicalnot" unicode="&#xac;" horiz-adv-x="604" 
d="M78 343v40h456v-219h-42v179h-414z" />
    <glyph glyph-name="uni00AD" unicode="&#xad;" horiz-adv-x="404" 
d="M64 263v40h276v-40h-276z" />
    <glyph glyph-name="registered" unicode="&#xae;" horiz-adv-x="806" 
d="M49 350q0 151 103 256.5t249 105.5q149 0 252.5 -105.5t103.5 -256.5q0 -152 -103.5 -257t-252.5 -105q-147 0 -249.5 105t-102.5 257zM94 350q0 -136 88.5 -228t218.5 -92q132 0 221.5 92t89.5 228q0 135 -89.5 227.5t-221.5 92.5q-130 0 -218.5 -92.5t-88.5 -227.5z
M285 150v360h-37v40h170q51 0 83.5 -32t32.5 -84q0 -42 -22 -70.5t-55 -36.5v-2q10 -4 19 -21l51 -103q6 -13 29 -13h10v-38h-21q-25 0 -36 5t-21 25l-57 113q-8 15 -15.5 19.5t-21.5 4.5h-65v-167h-44zM329 355h84q35 0 55.5 21t20.5 58q0 36 -20.5 56t-55.5 20h-84v-155z
" />
    <glyph glyph-name="macron" unicode="&#xaf;" horiz-adv-x="459" 
d="M116 786v40h239v-40h-239z" />
    <glyph glyph-name="degree" unicode="&#xb0;" horiz-adv-x="355" 
d="M177 449q-54 0 -92 38t-38 92t38 92.5t92 38.5t92.5 -38.5t38.5 -92.5t-38.5 -92t-92.5 -38zM177 489q37 0 62.5 26t25.5 64t-25.5 64.5t-62.5 26.5t-62 -26.5t-25 -64.5t25 -64t62 -26z" />
    <glyph glyph-name="plusminus" unicode="&#xb1;" 
d="M22 263v40h237v263h43v-263h236v-40h-236v-263h-43v263h-237zM42 -113h476v-40h-476v40z" />
    <glyph glyph-name="twosuperior" unicode="&#xb2;" horiz-adv-x="376" 
d="M82 264q-42 0 -42 42q0 31 10 55.5t31.5 44.5t38 31t47.5 28q26 15 39.5 23.5t31.5 24t25.5 33t7.5 39.5q0 36 -24.5 60t-66.5 24q-31 0 -54 -13.5t-23 -31.5v-27h-39v33q0 38 38.5 58t77.5 20q63 0 97.5 -35.5t34.5 -87.5q0 -29 -9.5 -52t-32 -42.5t-37.5 -29.5t-47 -28
q-27 -16 -40.5 -25t-32 -25t-26.5 -34t-8 -40q0 -7 7 -7h200q6 0 6 7v36h39v-39q0 -42 -42 -42h-207z" />
    <glyph glyph-name="threesuperior" unicode="&#xb3;" horiz-adv-x="376" 
d="M186 256q-37 0 -72 16t-52 32l-17 17l29 29q5 -6 14.5 -15t39 -24.5t59.5 -15.5q39 0 69 27.5t30 70.5t-31.5 68.5t-74.5 25.5h-34l-9 26l106 125l25 25v2q-18 -3 -38 -3h-112q-11 0 -11 -11v-30h-39v32q0 27 10 37t37 10h209v-27l-129 -150q47 0 89.5 -33.5t42.5 -96.5
q0 -57 -41.5 -97t-99.5 -40z" />
    <glyph glyph-name="acute" unicode="&#xb4;" horiz-adv-x="357" 
d="M111 750l67 111h56l-79 -111h-44z" />
    <glyph glyph-name="mu" unicode="&#xb5;" horiz-adv-x="623" 
d="M110 -200v640q0 22 -22 22h-43v38h49q31 0 44.5 -13t13.5 -42v-247q0 -30 2 -51.5t9 -45t20 -38.5t36.5 -24.5t55.5 -9.5q90 0 147.5 67.5t57.5 159.5v244h42v-440q0 -22 22 -22h43v-38h-49q-31 0 -44.5 13t-13.5 42v28l2 41h-2q-2 -6 -6.5 -15t-21.5 -32.5t-38.5 -41.5
t-58.5 -32.5t-80 -14.5q-27 0 -50.5 5.5t-37 13t-23 14.5t-12.5 13l-4 5h-2q6 -51 6 -72v-167h-42z" />
    <glyph glyph-name="mu" unicode="&#x3bc;" horiz-adv-x="623" 
d="M110 -200v640q0 22 -22 22h-43v38h49q31 0 44.5 -13t13.5 -42v-247q0 -30 2 -51.5t9 -45t20 -38.5t36.5 -24.5t55.5 -9.5q90 0 147.5 67.5t57.5 159.5v244h42v-440q0 -22 22 -22h43v-38h-49q-31 0 -44.5 13t-13.5 42v28l2 41h-2q-2 -6 -6.5 -15t-21.5 -32.5t-38.5 -41.5
t-58.5 -32.5t-80 -14.5q-27 0 -50.5 5.5t-37 13t-23 14.5t-12.5 13l-4 5h-2q6 -51 6 -72v-167h-42z" />
    <glyph glyph-name="paragraph" unicode="&#xb6;" horiz-adv-x="535" 
d="M277 -50v291q-98 0 -169 67t-71 163t70.5 162.5t168.5 66.5h210v-40h-167v-710h-42zM381 -50v647h42v-647h-42z" />
    <glyph glyph-name="periodcentered" unicode="&#xb7;" horiz-adv-x="185" 
d="M64 257v59h57v-59h-57z" />
    <glyph glyph-name="cedilla" unicode="&#xb8;" horiz-adv-x="410" 
d="M132 -93l24 111l32 -5v-8l-12 -65q31 -5 50 -23t19 -45q0 -39 -26 -57.5t-65 -18.5l-44 4v38q18 -5 41 -5q54 0 54 37q0 38 -61 38z" />
    <glyph glyph-name="onesuperior" unicode="&#xb9;" horiz-adv-x="376" 
d="M83 264v38h95v307l1 35h-2q-6 -11 -14 -19l-51 -50l-27 27l97 98h36v-398h94v-38h-229z" />
    <glyph glyph-name="ordmasculine" unicode="&#xba;" horiz-adv-x="465" 
d="M232 383q-68 0 -115.5 48t-47.5 118q0 68 47.5 115t115.5 47t115.5 -47t47.5 -115q0 -70 -47.5 -118t-115.5 -48zM232 420q52 0 88 37t36 92q0 54 -36 89.5t-88 35.5t-88 -35.5t-36 -89.5q0 -55 36 -92t88 -37zM87 263v37h294v-37h-294z" />
    <glyph glyph-name="guillemotright" unicode="&#xbb;" horiz-adv-x="479" 
d="M213 77l164 205l-164 206h53l164 -206l-164 -205h-53zM53 77l164 205l-164 206h53l164 -206l-164 -205h-53z" />
    <glyph glyph-name="onequarter" unicode="&#xbc;" horiz-adv-x="814" 
d="M229 0l306 700h46l-305 -700h-47zM53 264v38h95v307l1 35h-2q-6 -11 -14 -19l-51 -50l-27 27l97 98h36v-398h94v-38h-229zM452 121v28l222 287h35v-277h68v-38h-68v-121h-39v121h-218zM506 158q15 1 22 1h142v168l1 41h-2q-7 -13 -17 -26l-131 -168l-15 -15v-1z" />
    <glyph glyph-name="onehalf" unicode="&#xbd;" horiz-adv-x="799" 
d="M215 0l306 700h46l-305 -700h-47zM49 264v38h95v307l1 35h-2q-6 -11 -14 -19l-51 -50l-27 27l97 98h36v-398h94v-38h-229zM468 42q0 31 10 55.5t31.5 44.5t38 31t47.5 28q26 15 39.5 23.5t31.5 24t25.5 33t7.5 39.5q0 36 -24.5 60t-66.5 24q-31 0 -54 -13.5t-23 -31.5
v-27h-39v33q0 38 38.5 58t77.5 20q63 0 97.5 -35.5t34.5 -87.5q0 -29 -9.5 -52t-32 -42.5t-37.5 -29.5t-47 -28q-27 -16 -40.5 -25t-32 -25t-26.5 -34t-8 -40q0 -7 7 -7h200q6 0 6 7v36h39v-39q0 -42 -42 -42h-207q-42 0 -42 42z" />
    <glyph glyph-name="threequarters" unicode="&#xbe;" horiz-adv-x="819" 
d="M234 0l306 700h46l-305 -700h-47zM184 256q-37 0 -72 16t-52 32l-17 17l29 29q5 -6 14.5 -15t39 -24.5t59.5 -15.5q39 0 69 27.5t30 70.5t-31.5 68.5t-74.5 25.5h-34l-9 26l106 125l25 25v2q-18 -3 -38 -3h-112q-11 0 -11 -11v-30h-39v32q0 27 10 37t37 10h209v-27
l-129 -150q47 0 89.5 -33.5t42.5 -96.5q0 -57 -41.5 -97t-99.5 -40zM457 121v28l222 287h35v-277h68v-38h-68v-121h-39v121h-218zM511 158q15 1 22 1h142v168l1 41h-2q-7 -13 -17 -26l-131 -168l-15 -15v-1z" />
    <glyph glyph-name="questiondown" unicode="&#xbf;" horiz-adv-x="424" 
d="M219 441v59h57v-59h-57zM45 -38q0 46 18.5 82.5t45 61.5t53.5 49t45.5 56.5t18.5 71.5v42h43v-42q0 -45 -18.5 -82.5t-44.5 -63.5t-52.5 -50.5t-45 -56.5t-18.5 -69q0 -55 41 -92t105 -37q32 0 64 10.5t48 21.5l15 10l23 -34q-7 -6 -19 -14t-51 -22t-79 -14
q-85 0 -138.5 49t-53.5 123z" />
    <glyph glyph-name="Agrave" unicode="&#xc0;" horiz-adv-x="647" 
d="M12 0v40h11q30 0 38 22l239 638h47l239 -638q8 -22 38 -22h11v-40h-12q-38 0 -53.5 11t-28.5 47l-69 184h-297l-69 -184q-13 -36 -28.5 -47t-53.5 -11h-12zM190 282h268l-107 284l-27 84h-2q-15 -54 -26 -84zM302 750l-79 111h56l67 -111h-44z" />
    <glyph glyph-name="Aacute" unicode="&#xc1;" horiz-adv-x="647" 
d="M12 0v40h11q30 0 38 22l239 638h47l239 -638q8 -22 38 -22h11v-40h-12q-38 0 -53.5 11t-28.5 47l-69 184h-297l-69 -184q-13 -36 -28.5 -47t-53.5 -11h-12zM190 282h268l-107 284l-27 84h-2q-15 -54 -26 -84zM302 750l67 111h56l-79 -111h-44z" />
    <glyph glyph-name="Acircumflex" unicode="&#xc2;" horiz-adv-x="647" 
d="M12 0v40h11q30 0 38 22l239 638h47l239 -638q8 -22 38 -22h11v-40h-12q-38 0 -53.5 11t-28.5 47l-69 184h-297l-69 -184q-13 -36 -28.5 -47t-53.5 -11h-12zM190 282h268l-107 284l-27 84h-2q-15 -54 -26 -84zM218 750l80 111h52l80 -111h-49l-56 80h-2l-56 -80h-49z" />
    <glyph glyph-name="Atilde" unicode="&#xc3;" horiz-adv-x="647" 
d="M12 0v40h11q30 0 38 22l239 638h47l239 -638q8 -22 38 -22h11v-40h-12q-38 0 -53.5 11t-28.5 47l-69 184h-297l-69 -184q-13 -36 -28.5 -47t-53.5 -11h-12zM190 282h268l-107 284l-27 84h-2q-15 -54 -26 -84zM177 753q0 108 83 108q23 0 41.5 -11.5t29 -25.5t25.5 -25.5
t30 -11.5q40 0 40 71h40q0 -108 -83 -108q-23 0 -41.5 11.5t-29 25.5t-25.5 25.5t-30 11.5q-40 0 -40 -71h-40z" />
    <glyph glyph-name="Adieresis" unicode="&#xc4;" horiz-adv-x="647" 
d="M12 0v40h11q30 0 38 22l239 638h47l239 -638q8 -22 38 -22h11v-40h-12q-38 0 -53.5 11t-28.5 47l-69 184h-297l-69 -184q-13 -36 -28.5 -47t-53.5 -11h-12zM190 282h268l-107 284l-27 84h-2q-15 -54 -26 -84zM370 788v73h46v-73h-46zM233 788v73h46v-73h-46z" />
    <glyph glyph-name="Aring" unicode="&#xc5;" horiz-adv-x="647" 
d="M12 0v40h11q30 0 38 22l239 638h47l239 -638q8 -22 38 -22h11v-40h-12q-38 0 -53.5 11t-28.5 47l-69 184h-297l-69 -184q-13 -36 -28.5 -47t-53.5 -11h-12zM190 282h268l-107 284l-27 84h-2q-15 -54 -26 -84zM324 740q-28 0 -47.5 19t-19.5 48t19.5 48t47.5 19t47.5 -19
t19.5 -48t-19.5 -48t-47.5 -19zM324 775q14 0 23 9t9 23q0 15 -9 24t-23 9t-23 -9t-9 -24q0 -14 9 -23t23 -9z" />
    <glyph glyph-name="AE" unicode="&#xc6;" horiz-adv-x="795" 
d="M10 0v40h6q30 0 38 22l239 638h383q31 0 44.5 -13.5t13.5 -44.5v-53h-42v49q0 22 -22 22h-266v-287h269v-40h-269v-271q0 -14 6.5 -18t23.5 -4h266q22 0 22 22v49h42v-53q0 -31 -13.5 -44.5t-44.5 -13.5h-275q-40 0 -55 11t-15 47v275h-159l-103 -275q-13 -36 -28.5 -47
t-53.5 -11h-7zM217 373h144v287h-37z" />
    <glyph glyph-name="Ccedilla" unicode="&#xc7;" horiz-adv-x="690" 
d="M337 -93l18 82q-137 12 -224.5 116t-87.5 250q0 152 98 254.5t244 102.5q56 0 113.5 -14.5t102 -49t44.5 -80.5v-50h-43v40q0 50 -70 81t-146 31q-127 0 -212.5 -90t-85.5 -225q0 -137 84.5 -231t213.5 -94q42 0 82 10.5t67.5 25t49 29t31.5 25.5l10 10l27 -31
q-4 -4 -11 -11.5t-32.5 -26.5t-53.5 -33.5t-73 -26.5t-93 -13l-9 -48q31 -5 50 -23t19 -45q0 -39 -26 -57.5t-65 -18.5l-44 4v38q18 -5 41 -5q54 0 54 37q0 38 -61 38z" />
    <glyph glyph-name="Egrave" unicode="&#xc8;" horiz-adv-x="550" 
d="M106 58v602h-65v40h390q31 0 44.5 -13.5t13.5 -44.5v-53h-42v49q0 22 -22 22h-276v-287h279v-40h-279v-271q0 -22 22 -22h284q22 0 22 22v49h42v-53q0 -31 -13.5 -44.5t-44.5 -13.5h-297q-31 0 -44.5 13.5t-13.5 44.5zM267 750l-79 111h56l67 -111h-44z" />
    <glyph glyph-name="Eacute" unicode="&#xc9;" horiz-adv-x="550" 
d="M106 58v602h-65v40h390q31 0 44.5 -13.5t13.5 -44.5v-53h-42v49q0 22 -22 22h-276v-287h279v-40h-279v-271q0 -22 22 -22h284q22 0 22 22v49h42v-53q0 -31 -13.5 -44.5t-44.5 -13.5h-297q-31 0 -44.5 13.5t-13.5 44.5zM267 750l67 111h56l-79 -111h-44z" />
    <glyph glyph-name="Ecircumflex" unicode="&#xca;" horiz-adv-x="550" 
d="M106 58v602h-65v40h390q31 0 44.5 -13.5t13.5 -44.5v-53h-42v49q0 22 -22 22h-276v-287h279v-40h-279v-271q0 -22 22 -22h284q22 0 22 22v49h42v-53q0 -31 -13.5 -44.5t-44.5 -13.5h-297q-31 0 -44.5 13.5t-13.5 44.5zM183 750l80 111h52l80 -111h-49l-56 80h-2l-56 -80
h-49z" />
    <glyph glyph-name="Edieresis" unicode="&#xcb;" horiz-adv-x="550" 
d="M106 58v602h-65v40h390q31 0 44.5 -13.5t13.5 -44.5v-53h-42v49q0 22 -22 22h-276v-287h279v-40h-279v-271q0 -22 22 -22h284q22 0 22 22v49h42v-53q0 -31 -13.5 -44.5t-44.5 -13.5h-297q-31 0 -44.5 13.5t-13.5 44.5zM335 788v73h46v-73h-46zM198 788v73h46v-73h-46z
" />
    <glyph glyph-name="Igrave" unicode="&#xcc;" horiz-adv-x="259" 
d="M44 0v40h64v620h-64v40h171v-40h-64v-620h64v-40h-171zM107 750l-79 111h56l67 -111h-44z" />
    <glyph glyph-name="Iacute" unicode="&#xcd;" horiz-adv-x="259" 
d="M44 0v40h64v620h-64v40h171v-40h-64v-620h64v-40h-171zM107 750l67 111h56l-79 -111h-44z" />
    <glyph glyph-name="Icircumflex" unicode="&#xce;" horiz-adv-x="259" 
d="M44 0v40h64v620h-64v40h171v-40h-64v-620h64v-40h-171zM23 750l80 111h52l80 -111h-49l-56 80h-2l-56 -80h-49z" />
    <glyph glyph-name="Idieresis" unicode="&#xcf;" horiz-adv-x="259" 
d="M44 0v40h64v620h-64v40h171v-40h-64v-620h64v-40h-171zM175 788v73h46v-73h-46zM38 788v73h46v-73h-46z" />
    <glyph glyph-name="Eth" unicode="&#xd0;" horiz-adv-x="716" 
d="M108 58v275h-50v40h50v287h-65v40h280q158 0 253.5 -93t95.5 -257q0 -165 -95 -257.5t-254 -92.5h-157q-31 0 -44.5 13.5t-13.5 44.5zM151 62q0 -22 22 -22h143q142 0 226.5 81t84.5 229q0 147 -84.5 228.5t-226.5 81.5h-165v-287h183v-40h-183v-271z" />
    <glyph glyph-name="Ntilde" unicode="&#xd1;" horiz-adv-x="748" 
d="M41 0v40h43q22 0 22 22v638h40l399 -549l57 -88h2q-5 53 -5 88v491q0 31 13.5 44.5t44.5 13.5h50v-40h-43q-22 0 -22 -22v-638h-40l-399 549l-57 88h-2q5 -53 5 -88v-491q0 -31 -13.5 -44.5t-44.5 -13.5h-50zM239 753q0 108 83 108q23 0 41.5 -11.5t29 -25.5t25.5 -25.5
t30 -11.5q40 0 40 71h40q0 -108 -83 -108q-23 0 -41.5 11.5t-29 25.5t-25.5 25.5t-30 11.5q-40 0 -40 -71h-40z" />
    <glyph glyph-name="Ograve" unicode="&#xd2;" horiz-adv-x="790" 
d="M41 355q0 150 103.5 253.5t250.5 103.5t250.5 -103.5t103.5 -253.5q0 -154 -103.5 -260.5t-250.5 -106.5t-250.5 106.5t-103.5 260.5zM86 355q0 -137 90 -231t219 -94t219 94t90 231q0 133 -90 224t-219 91t-219 -91t-90 -224zM370 750l-79 111h56l67 -111h-44z" />
    <glyph glyph-name="Oacute" unicode="&#xd3;" horiz-adv-x="790" 
d="M41 355q0 150 103.5 253.5t250.5 103.5t250.5 -103.5t103.5 -253.5q0 -154 -103.5 -260.5t-250.5 -106.5t-250.5 106.5t-103.5 260.5zM86 355q0 -137 90 -231t219 -94t219 94t90 231q0 133 -90 224t-219 91t-219 -91t-90 -224zM370 750l67 111h56l-79 -111h-44z" />
    <glyph glyph-name="Ocircumflex" unicode="&#xd4;" horiz-adv-x="790" 
d="M41 355q0 150 103.5 253.5t250.5 103.5t250.5 -103.5t103.5 -253.5q0 -154 -103.5 -260.5t-250.5 -106.5t-250.5 106.5t-103.5 260.5zM86 355q0 -137 90 -231t219 -94t219 94t90 231q0 133 -90 224t-219 91t-219 -91t-90 -224zM286 750l80 111h52l80 -111h-49l-56 80h-2
l-56 -80h-49z" />
    <glyph glyph-name="Otilde" unicode="&#xd5;" horiz-adv-x="790" 
d="M41 355q0 150 103.5 253.5t250.5 103.5t250.5 -103.5t103.5 -253.5q0 -154 -103.5 -260.5t-250.5 -106.5t-250.5 106.5t-103.5 260.5zM86 355q0 -137 90 -231t219 -94t219 94t90 231q0 133 -90 224t-219 91t-219 -91t-90 -224zM245 753q0 108 83 108q23 0 41.5 -11.5
t29 -25.5t25.5 -25.5t30 -11.5q40 0 40 71h40q0 -108 -83 -108q-23 0 -41.5 11.5t-29 25.5t-25.5 25.5t-30 11.5q-40 0 -40 -71h-40z" />
    <glyph glyph-name="Odieresis" unicode="&#xd6;" horiz-adv-x="790" 
d="M41 355q0 150 103.5 253.5t250.5 103.5t250.5 -103.5t103.5 -253.5q0 -154 -103.5 -260.5t-250.5 -106.5t-250.5 106.5t-103.5 260.5zM86 355q0 -137 90 -231t219 -94t219 94t90 231q0 133 -90 224t-219 91t-219 -91t-90 -224zM438 788v73h46v-73h-46zM301 788v73h46v-73
h-46z" />
    <glyph glyph-name="multiply" unicode="&#xd7;" 
d="M29 28l224 255l-224 255l28 28l223 -253l223 253l28 -28l-225 -255l225 -255l-28 -28l-223 253l-223 -253z" />
    <glyph glyph-name="Oslash" unicode="&#xd8;" horiz-adv-x="790" 
d="M117 1l51 71q-60 51 -93.5 124.5t-33.5 158.5q0 150 103.5 253.5t250.5 103.5q102 0 190 -56l49 68l34 -25l-48 -68q60 -50 94.5 -121.5t34.5 -154.5q0 -154 -103.5 -260.5t-250.5 -106.5q-108 0 -193 59l-50 -70zM193 107l368 515q-77 48 -166 48q-129 0 -219 -91
t-90 -224q0 -152 107 -248zM226 81q78 -51 169 -51q129 0 219 94t90 231q0 147 -110 241z" />
    <glyph glyph-name="Ugrave" unicode="&#xd9;" horiz-adv-x="695" 
d="M96 235v403q0 22 -22 22h-43v40h50q31 0 44.5 -13.5t13.5 -44.5v-404q0 -95 56.5 -151.5t151.5 -56.5t152 57t57 153v402q0 31 13.5 44.5t44.5 13.5h50v-40h-43q-22 0 -22 -22v-403q0 -111 -69.5 -179t-181.5 -68t-182 68t-70 179zM317 750l-79 111h56l67 -111h-44z" />
    <glyph glyph-name="Uacute" unicode="&#xda;" horiz-adv-x="695" 
d="M96 235v403q0 22 -22 22h-43v40h50q31 0 44.5 -13.5t13.5 -44.5v-404q0 -95 56.5 -151.5t151.5 -56.5t152 57t57 153v402q0 31 13.5 44.5t44.5 13.5h50v-40h-43q-22 0 -22 -22v-403q0 -111 -69.5 -179t-181.5 -68t-182 68t-70 179zM327 750l67 111h56l-79 -111h-44z" />
    <glyph glyph-name="Ucircumflex" unicode="&#xdb;" horiz-adv-x="695" 
d="M96 235v403q0 22 -22 22h-43v40h50q31 0 44.5 -13.5t13.5 -44.5v-404q0 -95 56.5 -151.5t151.5 -56.5t152 57t57 153v402q0 31 13.5 44.5t44.5 13.5h50v-40h-43q-22 0 -22 -22v-403q0 -111 -69.5 -179t-181.5 -68t-182 68t-70 179zM243 750l80 111h52l80 -111h-49l-56 80
h-2l-56 -80h-49z" />
    <glyph glyph-name="Udieresis" unicode="&#xdc;" horiz-adv-x="695" 
d="M96 235v403q0 22 -22 22h-43v40h50q31 0 44.5 -13.5t13.5 -44.5v-404q0 -95 56.5 -151.5t151.5 -56.5t152 57t57 153v402q0 31 13.5 44.5t44.5 13.5h50v-40h-43q-22 0 -22 -22v-403q0 -111 -69.5 -179t-181.5 -68t-182 68t-70 179zM395 788v73h46v-73h-46zM258 788v73h46
v-73h-46z" />
    <glyph glyph-name="Yacute" unicode="&#xdd;" horiz-adv-x="586" 
d="M272 0v304l-198 329q-15 27 -49 27h-13v40h9q38 0 56 -10.5t41 -47.5l131 -218l43 -79h2q22 45 43 79l131 218q23 37 41 47.5t56 10.5h9v-40h-13q-34 0 -49 -27l-197 -329v-304h-43zM272 750l67 111h56l-79 -111h-44z" />
    <glyph glyph-name="Thorn" unicode="&#xde;" horiz-adv-x="565" 
d="M106 0v638q0 22 -22 22h-43v40h50q31 0 44.5 -13.5t13.5 -44.5v-72h177q93 0 153 -55.5t60 -148.5q0 -94 -60 -150t-155 -56h-175v-160h-43zM149 200h175q78 0 124 44t46 122t-46 121t-124 43h-175v-330z" />
    <glyph glyph-name="germandbls" unicode="&#xdf;" horiz-adv-x="552" 
d="M25 0v38h43q22 0 22 22v472q0 83 56.5 131.5t131.5 48.5q74 0 117.5 -41.5t43.5 -96.5q0 -35 -19 -65.5t-41.5 -48.5t-41.5 -40t-19 -42q0 -21 21.5 -43t52.5 -42.5t62.5 -43.5t53 -55.5t21.5 -70.5q0 -65 -45 -100t-109 -35q-43 0 -83 16.5t-58 32.5l-18 16l24 33
q7 -6 18.5 -15.5t47.5 -25.5t70 -16q47 0 78 23.5t31 70.5q0 31 -21.5 58t-52.5 48t-62.5 42t-53 48t-21.5 57q0 29 19 55.5t41.5 44t41.5 44t19 54.5q0 38 -31.5 67.5t-87.5 29.5q-57 0 -100.5 -38.5t-43.5 -103.5v-471q0 -31 -13.5 -44.5t-44.5 -13.5h-49z" />
    <glyph glyph-name="agrave" unicode="&#xe0;" horiz-adv-x="500" 
d="M34 133q0 35 13 63t32 45.5t49.5 30.5t55.5 19t60 9.5t54 4t46 0.5h33v7q0 89 -33 125t-112 36q-35 0 -73 -11t-38 -38v-34h-42v46q0 27 31.5 45.5t64 24.5t58.5 6q106 0 146 -49.5t40 -139.5v-263q0 -22 22 -22h43v-38h-49q-31 0 -44.5 14t-13.5 47l2 45h-2
q1 0 -4.5 -12t-18.5 -29.5t-32 -35t-50.5 -29.5t-67.5 -12q-68 0 -119 37.5t-51 107.5zM78 136q0 -43 34 -76t94 -33q77 0 124 65.5t47 146.5v27h-32q-31 0 -50.5 -0.5t-56 -4t-60 -12t-49 -22t-38.5 -37t-13 -54.5zM224 589l-79 111h56l67 -111h-44z" />
    <glyph glyph-name="aacute" unicode="&#xe1;" horiz-adv-x="500" 
d="M34 133q0 35 13 63t32 45.5t49.5 30.5t55.5 19t60 9.5t54 4t46 0.5h33v7q0 89 -33 125t-112 36q-35 0 -73 -11t-38 -38v-34h-42v46q0 27 31.5 45.5t64 24.5t58.5 6q106 0 146 -49.5t40 -139.5v-263q0 -22 22 -22h43v-38h-49q-31 0 -44.5 14t-13.5 47l2 45h-2
q1 0 -4.5 -12t-18.5 -29.5t-32 -35t-50.5 -29.5t-67.5 -12q-68 0 -119 37.5t-51 107.5zM78 136q0 -43 34 -76t94 -33q77 0 124 65.5t47 146.5v27h-32q-31 0 -50.5 -0.5t-56 -4t-60 -12t-49 -22t-38.5 -37t-13 -54.5zM224 589l67 111h56l-79 -111h-44z" />
    <glyph glyph-name="acircumflex" unicode="&#xe2;" horiz-adv-x="500" 
d="M34 133q0 35 13 63t32 45.5t49.5 30.5t55.5 19t60 9.5t54 4t46 0.5h33v7q0 89 -33 125t-112 36q-35 0 -73 -11t-38 -38v-34h-42v46q0 27 31.5 45.5t64 24.5t58.5 6q106 0 146 -49.5t40 -139.5v-263q0 -22 22 -22h43v-38h-49q-31 0 -44.5 14t-13.5 47l2 45h-2
q1 0 -4.5 -12t-18.5 -29.5t-32 -35t-50.5 -29.5t-67.5 -12q-68 0 -119 37.5t-51 107.5zM78 136q0 -43 34 -76t94 -33q77 0 124 65.5t47 146.5v27h-32q-31 0 -50.5 -0.5t-56 -4t-60 -12t-49 -22t-38.5 -37t-13 -54.5zM140 589l80 111h52l80 -111h-49l-56 80h-2l-56 -80h-49z
" />
    <glyph glyph-name="atilde" unicode="&#xe3;" horiz-adv-x="500" 
d="M34 133q0 35 13 63t32 45.5t49.5 30.5t55.5 19t60 9.5t54 4t46 0.5h33v7q0 89 -33 125t-112 36q-35 0 -73 -11t-38 -38v-34h-42v46q0 27 31.5 45.5t64 24.5t58.5 6q106 0 146 -49.5t40 -139.5v-263q0 -22 22 -22h43v-38h-49q-31 0 -44.5 14t-13.5 47l2 45h-2
q1 0 -4.5 -12t-18.5 -29.5t-32 -35t-50.5 -29.5t-67.5 -12q-68 0 -119 37.5t-51 107.5zM78 136q0 -43 34 -76t94 -33q77 0 124 65.5t47 146.5v27h-32q-31 0 -50.5 -0.5t-56 -4t-60 -12t-49 -22t-38.5 -37t-13 -54.5zM99 592q0 108 83 108q23 0 41.5 -11.5t29 -25.5
t25.5 -25.5t30 -11.5q40 0 40 71h40q0 -108 -83 -108q-23 0 -41.5 11.5t-29 25.5t-25.5 25.5t-30 11.5q-40 0 -40 -71h-40z" />
    <glyph glyph-name="adieresis" unicode="&#xe4;" horiz-adv-x="500" 
d="M34 133q0 35 13 63t32 45.5t49.5 30.5t55.5 19t60 9.5t54 4t46 0.5h33v7q0 89 -33 125t-112 36q-35 0 -73 -11t-38 -38v-34h-42v46q0 27 31.5 45.5t64 24.5t58.5 6q106 0 146 -49.5t40 -139.5v-263q0 -22 22 -22h43v-38h-49q-31 0 -44.5 14t-13.5 47l2 45h-2
q1 0 -4.5 -12t-18.5 -29.5t-32 -35t-50.5 -29.5t-67.5 -12q-68 0 -119 37.5t-51 107.5zM78 136q0 -43 34 -76t94 -33q77 0 124 65.5t47 146.5v27h-32q-31 0 -50.5 -0.5t-56 -4t-60 -12t-49 -22t-38.5 -37t-13 -54.5zM292 627v73h46v-73h-46zM155 627v73h46v-73h-46z" />
    <glyph glyph-name="aring" unicode="&#xe5;" horiz-adv-x="500" 
d="M34 133q0 35 13 63t32 45.5t49.5 30.5t55.5 19t60 9.5t54 4t46 0.5h33v7q0 89 -33 125t-112 36q-35 0 -73 -11t-38 -38v-34h-42v46q0 27 31.5 45.5t64 24.5t58.5 6q106 0 146 -49.5t40 -139.5v-263q0 -22 22 -22h43v-38h-49q-31 0 -44.5 14t-13.5 47l2 45h-2
q1 0 -4.5 -12t-18.5 -29.5t-32 -35t-50.5 -29.5t-67.5 -12q-68 0 -119 37.5t-51 107.5zM78 136q0 -43 34 -76t94 -33q77 0 124 65.5t47 146.5v27h-32q-31 0 -50.5 -0.5t-56 -4t-60 -12t-49 -22t-38.5 -37t-13 -54.5zM246 579q-28 0 -47.5 19.5t-19.5 47.5t19.5 47.5
t47.5 19.5t47.5 -19.5t19.5 -47.5t-19.5 -47.5t-47.5 -19.5zM246 614q14 0 23 9t9 23q0 15 -9 24t-23 9t-23 -9t-9 -24q0 -14 9 -23t23 -9z" />
    <glyph glyph-name="ae" unicode="&#xe6;" horiz-adv-x="851" 
d="M35 133q0 34 11 61t27.5 44t43.5 29.5t50.5 18.5t58.5 9.5t56.5 4t54.5 0.5h40v12q0 89 -33 125t-111 36q-36 0 -73.5 -11t-37.5 -38v-34h-42v46q0 35 49 55.5t105 20.5q82 0 122.5 -30t53.5 -87h2q62 117 198 117q96 0 149 -64t53 -159l-2 -28h-391q0 -110 56.5 -171
t147.5 -61q43 0 81.5 15.5t55.5 31.5l18 16l23 -35q-8 -8 -22.5 -19.5t-61 -30.5t-94.5 -19q-78 0 -138 40.5t-87 112.5h-2q-3 -15 -13.5 -36t-31 -49.5t-58.5 -48t-86 -19.5q-73 0 -122.5 38t-49.5 107zM423 300h345q-4 86 -50 129t-111 43q-72 0 -122 -44t-62 -128z
M79 136q0 -45 34 -77t94 -32q77 0 123.5 65.5t46.5 146.5v22h-69q-34 0 -59.5 -1.5t-60 -8.5t-56 -19.5t-37.5 -37t-16 -58.5z" />
    <glyph glyph-name="ccedilla" unicode="&#xe7;" horiz-adv-x="520" 
d="M41 249q0 116 75.5 189.5t182.5 73.5q23 0 50.5 -5t57 -16t49 -33t19.5 -50v-38h-42v29q0 33 -45 52.5t-89 19.5q-90 0 -152 -61.5t-62 -160.5q0 -98 62 -159t152 -61q49 0 90.5 18t58.5 36l18 18l22 -35q-3 -3 -8 -8.5t-23 -19t-38.5 -23.5t-54 -18.5t-69.5 -8.5l-9 -48
q31 -5 50 -23t19 -45q0 -39 -26 -57.5t-65 -18.5l-44 4v38q18 -5 41 -5q54 0 54 37q0 38 -61 38l-12 -1l18 84q-95 12 -157 82.5t-62 175.5z" />
    <glyph glyph-name="egrave" unicode="&#xe8;" horiz-adv-x="527" 
d="M41 249q0 122 71 192.5t172 70.5q97 0 150.5 -65.5t53.5 -162.5l-2 -27h-401q0 -105 61.5 -166.5t152.5 -61.5q43 0 81.5 15.5t55.5 31.5l18 16l23 -35q-8 -8 -22.5 -19.5t-61 -30.5t-94.5 -19q-109 0 -183.5 72.5t-74.5 188.5zM88 296h356q-4 87 -49 132t-112 45
q-73 0 -127.5 -46.5t-67.5 -130.5zM280 554l-79 111h56l67 -111h-44z" />
    <glyph glyph-name="eacute" unicode="&#xe9;" horiz-adv-x="527" 
d="M41 249q0 122 71 192.5t172 70.5q97 0 150.5 -65.5t53.5 -162.5l-2 -27h-401q0 -105 61.5 -166.5t152.5 -61.5q43 0 81.5 15.5t55.5 31.5l18 16l23 -35q-8 -8 -22.5 -19.5t-61 -30.5t-94.5 -19q-109 0 -183.5 72.5t-74.5 188.5zM88 296h356q-4 87 -49 132t-112 45
q-73 0 -127.5 -46.5t-67.5 -130.5zM260 589l67 111h56l-79 -111h-44z" />
    <glyph glyph-name="ecircumflex" unicode="&#xea;" horiz-adv-x="527" 
d="M41 249q0 122 71 192.5t172 70.5q97 0 150.5 -65.5t53.5 -162.5l-2 -27h-401q0 -105 61.5 -166.5t152.5 -61.5q43 0 81.5 15.5t55.5 31.5l18 16l23 -35q-8 -8 -22.5 -19.5t-61 -30.5t-94.5 -19q-109 0 -183.5 72.5t-74.5 188.5zM88 296h356q-4 87 -49 132t-112 45
q-73 0 -127.5 -46.5t-67.5 -130.5zM176 589l80 111h52l80 -111h-49l-56 80h-2l-56 -80h-49z" />
    <glyph glyph-name="edieresis" unicode="&#xeb;" horiz-adv-x="527" 
d="M41 249q0 122 71 192.5t172 70.5q97 0 150.5 -65.5t53.5 -162.5l-2 -27h-401q0 -105 61.5 -166.5t152.5 -61.5q43 0 81.5 15.5t55.5 31.5l18 16l23 -35q-8 -8 -22.5 -19.5t-61 -30.5t-94.5 -19q-109 0 -183.5 72.5t-74.5 188.5zM88 296h356q-4 87 -49 132t-112 45
q-73 0 -127.5 -46.5t-67.5 -130.5zM328 627v73h46v-73h-46zM191 627v73h46v-73h-46z" />
    <glyph glyph-name="igrave" unicode="&#xec;" horiz-adv-x="218" 
d="M80 589l-79 111h56l67 -111h-44zM88 58v382q0 22 -22 22h-43v38h49q31 0 44.5 -13.5t13.5 -44.5v-382q0 -22 22 -22h43v-38h-49q-31 0 -44.5 13.5t-13.5 44.5z" />
    <glyph glyph-name="iacute" unicode="&#xed;" horiz-adv-x="218" 
d="M80 589l67 111h56l-79 -111h-44zM88 58v382q0 22 -22 22h-43v38h49q31 0 44.5 -13.5t13.5 -44.5v-382q0 -22 22 -22h43v-38h-49q-31 0 -44.5 13.5t-13.5 44.5z" />
    <glyph glyph-name="icircumflex" unicode="&#xee;" horiz-adv-x="218" 
d="M-4 589l80 111h52l80 -111h-49l-56 80h-2l-56 -80h-49zM88 58v382q0 22 -22 22h-43v38h49q31 0 44.5 -13.5t13.5 -44.5v-382q0 -22 22 -22h43v-38h-49q-31 0 -44.5 13.5t-13.5 44.5z" />
    <glyph glyph-name="idieresis" unicode="&#xef;" horiz-adv-x="218" 
d="M133 627v73h46v-73h-46zM21 627v73h46v-73h-46zM88 58v382q0 22 -22 22h-43v38h49q31 0 44.5 -13.5t13.5 -44.5v-382q0 -22 22 -22h43v-38h-49q-31 0 -44.5 13.5t-13.5 44.5z" />
    <glyph glyph-name="eth" unicode="&#xf0;" horiz-adv-x="554" 
d="M42 230q0 97 63.5 167.5t177.5 70.5q49 0 89.5 -16.5t56.5 -33.5l16 -16h2q-36 113 -137 183l-172 -80l-17 37l146 68q-66 35 -153 57l12 38q114 -29 188 -74l123 58l17 -37l-101 -47q156 -119 156 -335q0 -52 -14.5 -100.5t-43 -90t-76.5 -66.5t-108 -25
q-103 0 -164 72.5t-61 169.5zM86 230q0 -81 50 -141.5t133 -60.5q65 0 111 37.5t65.5 89t19.5 108.5q0 72 -50.5 118.5t-132.5 46.5q-94 0 -145 -58.5t-51 -139.5z" />
    <glyph glyph-name="ntilde" unicode="&#xf1;" horiz-adv-x="592" 
d="M90 0v440q0 22 -22 22h-43v38h49q31 0 44.5 -13t13.5 -42v-28l-2 -41h2q17 47 72 91.5t138 44.5q92 0 128.5 -49.5t36.5 -145.5v-257q0 -22 22 -22h43v-38h-49q-31 0 -44.5 13.5t-13.5 44.5v244q0 30 -2 51.5t-9 45t-20 38.5t-36.5 24.5t-55.5 9.5q-70 0 -126.5 -44.5
t-75.5 -114.5q-8 -28 -8 -68v-244h-42zM165 592q0 108 83 108q23 0 41.5 -11.5t29 -25.5t25.5 -25.5t30 -11.5q40 0 40 71h40q0 -108 -83 -108q-23 0 -41.5 11.5t-29 25.5t-25.5 25.5t-30 11.5q-40 0 -40 -71h-40z" />
    <glyph glyph-name="ograve" unicode="&#xf2;" horiz-adv-x="598" 
d="M40 253q0 109 75.5 184t183.5 75t183.5 -75t75.5 -184q0 -111 -75.5 -188t-183.5 -77t-183.5 77t-75.5 188zM84 253q0 -95 62.5 -159.5t152.5 -64.5t152.5 64.5t62.5 159.5q0 92 -62.5 155t-152.5 63t-152.5 -63t-62.5 -155zM277 589l-79 111h56l67 -111h-44z" />
    <glyph glyph-name="oacute" unicode="&#xf3;" horiz-adv-x="598" 
d="M40 253q0 109 75.5 184t183.5 75t183.5 -75t75.5 -184q0 -111 -75.5 -188t-183.5 -77t-183.5 77t-75.5 188zM84 253q0 -95 62.5 -159.5t152.5 -64.5t152.5 64.5t62.5 159.5q0 92 -62.5 155t-152.5 63t-152.5 -63t-62.5 -155zM277 589l67 111h56l-79 -111h-44z" />
    <glyph glyph-name="ocircumflex" unicode="&#xf4;" horiz-adv-x="598" 
d="M40 253q0 109 75.5 184t183.5 75t183.5 -75t75.5 -184q0 -111 -75.5 -188t-183.5 -77t-183.5 77t-75.5 188zM84 253q0 -95 62.5 -159.5t152.5 -64.5t152.5 64.5t62.5 159.5q0 92 -62.5 155t-152.5 63t-152.5 -63t-62.5 -155zM193 589l80 111h52l80 -111h-49l-56 80h-2
l-56 -80h-49z" />
    <glyph glyph-name="otilde" unicode="&#xf5;" horiz-adv-x="598" 
d="M40 253q0 109 75.5 184t183.5 75t183.5 -75t75.5 -184q0 -111 -75.5 -188t-183.5 -77t-183.5 77t-75.5 188zM84 253q0 -95 62.5 -159.5t152.5 -64.5t152.5 64.5t62.5 159.5q0 92 -62.5 155t-152.5 63t-152.5 -63t-62.5 -155zM152 592q0 108 83 108q23 0 41.5 -11.5
t29 -25.5t25.5 -25.5t30 -11.5q40 0 40 71h40q0 -108 -83 -108q-23 0 -41.5 11.5t-29 25.5t-25.5 25.5t-30 11.5q-40 0 -40 -71h-40z" />
    <glyph glyph-name="odieresis" unicode="&#xf6;" horiz-adv-x="598" 
d="M40 253q0 109 75.5 184t183.5 75t183.5 -75t75.5 -184q0 -111 -75.5 -188t-183.5 -77t-183.5 77t-75.5 188zM84 253q0 -95 62.5 -159.5t152.5 -64.5t152.5 64.5t62.5 159.5q0 92 -62.5 155t-152.5 63t-152.5 -63t-62.5 -155zM345 627v73h46v-73h-46zM208 627v73h46v-73
h-46z" />
    <glyph glyph-name="divide" unicode="&#xf7;" 
d="M250 431v59h57v-59h-57zM41 263v40h476v-40h-476zM250 76v59h57v-59h-57z" />
    <glyph glyph-name="oslash" unicode="&#xf8;" horiz-adv-x="598" 
d="M98 -3l36 51q-94 78 -94 205q0 109 75.5 184t183.5 75q76 0 138 -39l38 53l34 -26l-38 -53q87 -77 87 -194q0 -111 -75.5 -188t-183.5 -77q-72 0 -130 35l-37 -52zM158 82l255 357q-53 32 -114 32q-90 0 -152.5 -63t-62.5 -155q0 -104 74 -171zM193 57q48 -28 106 -28
q90 0 152.5 64.5t62.5 159.5q0 96 -68 159z" />
    <glyph glyph-name="ugrave" unicode="&#xf9;" horiz-adv-x="587" 
d="M85 183v257q0 22 -22 22h-43v38h49q31 0 44.5 -13t13.5 -42v-247q0 -30 2 -51.5t9 -45t20 -38.5t36.5 -24.5t55.5 -9.5q90 0 147.5 67.5t57.5 159.5v244h42v-440q0 -22 22 -22h43v-38h-49q-31 0 -44.5 13t-13.5 42v28l2 41h-2q-17 -47 -70.5 -91.5t-134.5 -44.5
q-89 0 -127 48t-38 147zM263 589l-79 111h56l67 -111h-44z" />
    <glyph glyph-name="uacute" unicode="&#xfa;" horiz-adv-x="587" 
d="M85 183v257q0 22 -22 22h-43v38h49q31 0 44.5 -13t13.5 -42v-247q0 -30 2 -51.5t9 -45t20 -38.5t36.5 -24.5t55.5 -9.5q90 0 147.5 67.5t57.5 159.5v244h42v-440q0 -22 22 -22h43v-38h-49q-31 0 -44.5 13t-13.5 42v28l2 41h-2q-17 -47 -70.5 -91.5t-134.5 -44.5
q-89 0 -127 48t-38 147zM263 589l67 111h56l-79 -111h-44z" />
    <glyph glyph-name="ucircumflex" unicode="&#xfb;" horiz-adv-x="587" 
d="M85 183v257q0 22 -22 22h-43v38h49q31 0 44.5 -13t13.5 -42v-247q0 -30 2 -51.5t9 -45t20 -38.5t36.5 -24.5t55.5 -9.5q90 0 147.5 67.5t57.5 159.5v244h42v-440q0 -22 22 -22h43v-38h-49q-31 0 -44.5 13t-13.5 42v28l2 41h-2q-17 -47 -70.5 -91.5t-134.5 -44.5
q-89 0 -127 48t-38 147zM179 589l80 111h52l80 -111h-49l-56 80h-2l-56 -80h-49z" />
    <glyph glyph-name="udieresis" unicode="&#xfc;" horiz-adv-x="587" 
d="M85 183v257q0 22 -22 22h-43v38h49q31 0 44.5 -13t13.5 -42v-247q0 -30 2 -51.5t9 -45t20 -38.5t36.5 -24.5t55.5 -9.5q90 0 147.5 67.5t57.5 159.5v244h42v-440q0 -22 22 -22h43v-38h-49q-31 0 -44.5 13t-13.5 42v28l2 41h-2q-17 -47 -70.5 -91.5t-134.5 -44.5
q-89 0 -127 48t-38 147zM331 627v73h46v-73h-46zM194 627v73h46v-73h-46z" />
    <glyph glyph-name="yacute" unicode="&#xfd;" horiz-adv-x="523" 
d="M31 -131q0 -2 9 -10.5t28 -18.5t38 -10q60 0 98 90l36 83l-181 435q-10 24 -38 24h-8v38h7q37 0 52 -10.5t30 -47.5l142 -341l17 -47h2q7 23 17 47l141 341q15 37 30 47.5t52 10.5h7v-38h-8q-28 0 -38 -24l-231 -555q-39 -93 -127 -93q-29 0 -54 12t-36 24l-10 11z
M236 589l67 111h56l-79 -111h-44z" />
    <glyph glyph-name="thorn" unicode="&#xfe;" horiz-adv-x="559" 
d="M80 -200v840q0 22 -22 22h-43v38h49q31 0 44.5 -13.5t13.5 -44.5v-194l-2 -44h2q47 108 177 108q101 0 159.5 -72t58.5 -190t-58.5 -190t-159.5 -72q-38 0 -70 11t-51 26t-32.5 30.5t-18.5 26.5l-5 11h-2q2 -18 2 -44v-249h-42zM121 250q0 -113 51.5 -167t126.5 -54
q78 0 126 60t48 161t-48 161t-126 60t-128 -54t-50 -167z" />
    <glyph glyph-name="ydieresis" unicode="&#xff;" horiz-adv-x="523" 
d="M31 -131q0 -2 9 -10.5t28 -18.5t38 -10q60 0 98 90l36 83l-181 435q-10 24 -38 24h-8v38h7q37 0 52 -10.5t30 -47.5l142 -341l17 -47h2q7 23 17 47l141 341q15 37 30 47.5t52 10.5h7v-38h-8q-28 0 -38 -24l-231 -555q-39 -93 -127 -93q-29 0 -54 12t-36 24l-10 11z
M304 627v73h46v-73h-46zM167 627v73h46v-73h-46z" />
    <glyph glyph-name="Amacron" unicode="&#x100;" horiz-adv-x="647" 
d="M12 0v40h11q30 0 38 22l239 638h47l239 -638q8 -22 38 -22h11v-40h-12q-38 0 -53.5 11t-28.5 47l-69 184h-297l-69 -184q-13 -36 -28.5 -47t-53.5 -11h-12zM190 282h268l-107 284l-27 84h-2q-15 -54 -26 -84zM205 786v40h239v-40h-239z" />
    <glyph glyph-name="amacron" unicode="&#x101;" horiz-adv-x="500" 
d="M34 133q0 35 13 63t32 45.5t49.5 30.5t55.5 19t60 9.5t54 4t46 0.5h33v7q0 89 -33 125t-112 36q-35 0 -73 -11t-38 -38v-34h-42v46q0 27 31.5 45.5t64 24.5t58.5 6q106 0 146 -49.5t40 -139.5v-263q0 -22 22 -22h43v-38h-49q-31 0 -44.5 14t-13.5 47l2 45h-2
q1 0 -4.5 -12t-18.5 -29.5t-32 -35t-50.5 -29.5t-67.5 -12q-68 0 -119 37.5t-51 107.5zM78 136q0 -43 34 -76t94 -33q77 0 124 65.5t47 146.5v27h-32q-31 0 -50.5 -0.5t-56 -4t-60 -12t-49 -22t-38.5 -37t-13 -54.5zM127 625v40h239v-40h-239z" />
    <glyph glyph-name="Abreve" unicode="&#x102;" horiz-adv-x="647" 
d="M12 0v40h11q30 0 38 22l239 638h47l239 -638q8 -22 38 -22h11v-40h-12q-38 0 -53.5 11t-28.5 47l-69 184h-297l-69 -184q-13 -36 -28.5 -47t-53.5 -11h-12zM190 282h268l-107 284l-27 84h-2q-15 -54 -26 -84zM324 747q-41 0 -71 25.5t-30 72.5v16h40v-14q0 -31 17 -46.5
t44 -15.5q26 0 43.5 15.5t17.5 47.5v13h40v-16q0 -47 -30 -72.5t-71 -25.5z" />
    <glyph glyph-name="abreve" unicode="&#x103;" horiz-adv-x="500" 
d="M34 133q0 35 13 63t32 45.5t49.5 30.5t55.5 19t60 9.5t54 4t46 0.5h33v7q0 89 -33 125t-112 36q-35 0 -73 -11t-38 -38v-34h-42v46q0 27 31.5 45.5t64 24.5t58.5 6q106 0 146 -49.5t40 -139.5v-263q0 -22 22 -22h43v-38h-49q-31 0 -44.5 14t-13.5 47l2 45h-2
q1 0 -4.5 -12t-18.5 -29.5t-32 -35t-50.5 -29.5t-67.5 -12q-68 0 -119 37.5t-51 107.5zM78 136q0 -43 34 -76t94 -33q77 0 124 65.5t47 146.5v27h-32q-31 0 -50.5 -0.5t-56 -4t-60 -12t-49 -22t-38.5 -37t-13 -54.5zM246 586q-41 0 -71 25.5t-30 72.5v16h40v-14
q0 -31 17 -46.5t44 -15.5q26 0 43.5 15.5t17.5 47.5v13h40v-16q0 -47 -30 -72.5t-71 -25.5z" />
    <glyph glyph-name="Aogonek" unicode="&#x104;" horiz-adv-x="647" 
d="M12 0v40h11q30 0 38 22l239 638h47l239 -638q8 -22 38 -22h11v-40q-80 -59 -80 -109q0 -22 17 -36t34 -17l17 -3l-9 -39q-4 0 -11 1t-25 6.5t-32 14.5t-25 27t-11 42q0 65 71 116v2q-14 5 -22 16.5t-18 36.5l-69 184h-297l-69 -184q-13 -36 -28.5 -47t-53.5 -11h-12z
M190 282h268l-107 284l-27 84h-2q-15 -54 -26 -84z" />
    <glyph glyph-name="aogonek" unicode="&#x105;" horiz-adv-x="500" 
d="M34 133q0 35 13 63t32 45.5t49.5 30.5t55.5 19t60 9.5t54 4t46 0.5h33v7q0 88 -33.5 124.5t-111.5 36.5q-34 0 -72.5 -11t-38.5 -38v-34h-42v46q0 27 31.5 45.5t64 24.5t58.5 6q106 0 146 -49.5t40 -139.5v-263q0 -22 22 -22h43v-38q-80 -59 -80 -109q0 -22 17 -36
t34 -17l17 -3l-9 -39q-4 0 -11 1t-25 6.5t-32 14.5t-25 27t-11 42q0 64 66 111v2h-4q-44 0 -44 58v7l2 41h-2q-22 -51 -64.5 -84.5t-106.5 -33.5q-70 0 -121 38t-51 107zM78 136q0 -43 34 -76t94 -33q77 0 124 65.5t47 146.5v27h-32q-31 0 -50.5 -0.5t-56 -4t-60 -12
t-49 -22t-38.5 -37t-13 -54.5z" />
    <glyph glyph-name="Cacute" unicode="&#x106;" horiz-adv-x="689" 
d="M42 355q0 152 98 254.5t244 102.5q56 0 113.5 -14.5t102 -48.5t44.5 -81v-50h-43v40q0 50 -70 81t-146 31q-127 0 -212.5 -90t-85.5 -225q0 -137 86 -231t215 -94q42 0 82 10.5t67 25t47.5 29t30.5 25.5l10 10l27 -31q-4 -5 -11.5 -12t-32.5 -26.5t-53.5 -34t-73.5 -26.5
t-93 -12q-149 0 -247.5 106.5t-98.5 260.5zM360 750l67 111h56l-79 -111h-44z" />
    <glyph glyph-name="cacute" unicode="&#x107;" horiz-adv-x="519" 
d="M40 249q0 116 75.5 189.5t182.5 73.5q23 0 50.5 -5t57 -16t49 -33t19.5 -50v-38h-42v29q0 33 -45 52.5t-89 19.5q-90 0 -152 -61.5t-62 -160.5q0 -98 62 -159t152 -61q49 0 90.5 18t59.5 36l17 18l22 -35q-3 -3 -8 -8.5t-23 -19t-38 -23.5t-52.5 -18.5t-67.5 -8.5
q-109 0 -183.5 72.5t-74.5 188.5zM265 589l67 111h56l-79 -111h-44z" />
    <glyph glyph-name="Ccircumflex" unicode="&#x108;" horiz-adv-x="689" 
d="M42 355q0 152 98 254.5t244 102.5q56 0 113.5 -14.5t102 -48.5t44.5 -81v-50h-43v40q0 50 -70 81t-146 31q-127 0 -212.5 -90t-85.5 -225q0 -137 86 -231t215 -94q42 0 82 10.5t67 25t47.5 29t30.5 25.5l10 10l27 -31q-4 -5 -11.5 -12t-32.5 -26.5t-53.5 -34t-73.5 -26.5
t-93 -12q-149 0 -247.5 106.5t-98.5 260.5zM276 750l80 111h52l80 -111h-49l-56 80h-2l-56 -80h-49z" />
    <glyph glyph-name="ccircumflex" unicode="&#x109;" horiz-adv-x="519" 
d="M40 249q0 116 75.5 189.5t182.5 73.5q23 0 50.5 -5t57 -16t49 -33t19.5 -50v-38h-42v29q0 33 -45 52.5t-89 19.5q-90 0 -152 -61.5t-62 -160.5q0 -98 62 -159t152 -61q49 0 90.5 18t59.5 36l17 18l22 -35q-3 -3 -8 -8.5t-23 -19t-38 -23.5t-52.5 -18.5t-67.5 -8.5
q-109 0 -183.5 72.5t-74.5 188.5zM181 589l80 111h52l80 -111h-49l-56 80h-2l-56 -80h-49z" />
    <glyph glyph-name="Cdotaccent" unicode="&#x10a;" horiz-adv-x="689" 
d="M42 355q0 152 98 254.5t244 102.5q56 0 113.5 -14.5t102 -48.5t44.5 -81v-50h-43v40q0 50 -70 81t-146 31q-127 0 -212.5 -90t-85.5 -225q0 -137 86 -231t215 -94q42 0 82 10.5t67 25t47.5 29t30.5 25.5l10 10l27 -31q-4 -5 -11.5 -12t-32.5 -26.5t-53.5 -34t-73.5 -26.5
t-93 -12q-149 0 -247.5 106.5t-98.5 260.5zM359 788v73h46v-73h-46z" />
    <glyph glyph-name="cdotaccent" unicode="&#x10b;" horiz-adv-x="519" 
d="M40 249q0 116 75.5 189.5t182.5 73.5q23 0 50.5 -5t57 -16t49 -33t19.5 -50v-38h-42v29q0 33 -45 52.5t-89 19.5q-90 0 -152 -61.5t-62 -160.5q0 -98 62 -159t152 -61q49 0 90.5 18t59.5 36l17 18l22 -35q-3 -3 -8 -8.5t-23 -19t-38 -23.5t-52.5 -18.5t-67.5 -8.5
q-109 0 -183.5 72.5t-74.5 188.5zM264 627v73h46v-73h-46z" />
    <glyph glyph-name="Ccaron" unicode="&#x10c;" horiz-adv-x="689" 
d="M42 355q0 152 98 254.5t244 102.5q56 0 113.5 -14.5t102 -48.5t44.5 -81v-50h-43v40q0 50 -70 81t-146 31q-127 0 -212.5 -90t-85.5 -225q0 -137 86 -231t215 -94q42 0 82 10.5t67 25t47.5 29t30.5 25.5l10 10l27 -31q-4 -5 -11.5 -12t-32.5 -26.5t-53.5 -34t-73.5 -26.5
t-93 -12q-149 0 -247.5 106.5t-98.5 260.5zM356 750l-80 111h49l56 -80h2l56 80h49l-80 -111h-52z" />
    <glyph glyph-name="ccaron" unicode="&#x10d;" horiz-adv-x="519" 
d="M40 249q0 116 75.5 189.5t182.5 73.5q23 0 50.5 -5t57 -16t49 -33t19.5 -50v-38h-42v29q0 33 -45 52.5t-89 19.5q-90 0 -152 -61.5t-62 -160.5q0 -98 62 -159t152 -61q49 0 90.5 18t59.5 36l17 18l22 -35q-3 -3 -8 -8.5t-23 -19t-38 -23.5t-52.5 -18.5t-67.5 -8.5
q-109 0 -183.5 72.5t-74.5 188.5zM261 589l-80 111h49l56 -80h2l56 80h49l-80 -111h-52z" />
    <glyph glyph-name="Dcaron" unicode="&#x10e;" horiz-adv-x="714" 
d="M106 58v602h-65v40h280q158 0 253.5 -93t95.5 -257q0 -165 -95 -257.5t-254 -92.5h-157q-31 0 -44.5 13.5t-13.5 44.5zM149 62q0 -22 22 -22h143q142 0 226.5 81t84.5 229q0 147 -84.5 228.5t-226.5 81.5h-165v-598zM326 750l-80 111h49l56 -80h2l56 80h49l-80 -111h-52z
" />
    <glyph glyph-name="dcaron" unicode="&#x10f;" horiz-adv-x="569" 
d="M42 250q0 118 62.5 190t161.5 72q35 0 65.5 -11t49 -27t32 -32t19.5 -27l5 -11h2q-2 18 -2 41v195q0 22 -22 22h-43v38h49q31 0 44.5 -13.5t13.5 -44.5v-582q0 -22 22 -22h43v-38h-49q-31 0 -44.5 13.5t-13.5 44.5l2 38h-2q-2 -4 -5.5 -11.5t-18 -26t-33 -33t-51 -26
t-71.5 -11.5q-99 0 -157.5 72t-58.5 190zM86 250q0 -100 48.5 -160.5t125.5 -60.5q76 0 127 55.5t51 166.5q0 90 -45.5 155.5t-128.5 65.5q-76 0 -127 -60t-51 -162zM547 700h48q6 -25 6 -47q0 -37 -22 -87h-39q18 47 18 78q0 27 -11 56z" />
    <glyph glyph-name="Dcroat" unicode="&#x110;" horiz-adv-x="716" 
d="M108 58v275h-50v40h50v287h-65v40h280q158 0 253.5 -93t95.5 -257q0 -165 -95 -257.5t-254 -92.5h-157q-31 0 -44.5 13.5t-13.5 44.5zM151 62q0 -22 22 -22h143q142 0 226.5 81t84.5 229q0 147 -84.5 228.5t-226.5 81.5h-165v-287h183v-40h-183v-271z" />
    <glyph glyph-name="dcroat" unicode="&#x111;" horiz-adv-x="569" 
d="M42 250q0 118 62.5 190t161.5 72q35 0 65.5 -11t49 -27t32 -32t19.5 -27l5 -11h2q-2 18 -2 41v124h-133v40h133v91h42v-91h83v-40h-83v-509q0 -22 22 -22h43v-38h-49q-31 0 -44.5 13.5t-13.5 44.5l2 38h-2q-2 -4 -5.5 -11.5t-18 -26t-33 -33t-51 -26t-71.5 -11.5
q-99 0 -157.5 72t-58.5 190zM86 250q0 -100 48.5 -160.5t125.5 -60.5q76 0 127 55.5t51 166.5q0 90 -45.5 155.5t-128.5 65.5q-76 0 -127 -60t-51 -162z" />
    <glyph glyph-name="Emacron" unicode="&#x112;" horiz-adv-x="550" 
d="M106 58v602h-65v40h390q31 0 44.5 -13.5t13.5 -44.5v-53h-42v49q0 22 -22 22h-276v-287h279v-40h-279v-271q0 -22 22 -22h284q22 0 22 22v49h42v-53q0 -31 -13.5 -44.5t-44.5 -13.5h-297q-31 0 -44.5 13.5t-13.5 44.5zM170 786v40h239v-40h-239z" />
    <glyph glyph-name="emacron" unicode="&#x113;" horiz-adv-x="527" 
d="M41 249q0 122 71 192.5t172 70.5q97 0 150.5 -65.5t53.5 -162.5l-2 -27h-401q0 -105 61.5 -166.5t152.5 -61.5q43 0 81.5 15.5t55.5 31.5l18 16l23 -35q-8 -8 -22.5 -19.5t-61 -30.5t-94.5 -19q-109 0 -183.5 72.5t-74.5 188.5zM88 296h356q-4 87 -49 132t-112 45
q-73 0 -127.5 -46.5t-67.5 -130.5zM163 625v40h239v-40h-239z" />
    <glyph glyph-name="Ebreve" unicode="&#x114;" horiz-adv-x="550" 
d="M106 58v602h-65v40h390q31 0 44.5 -13.5t13.5 -44.5v-53h-42v49q0 22 -22 22h-276v-287h279v-40h-279v-271q0 -22 22 -22h284q22 0 22 22v49h42v-53q0 -31 -13.5 -44.5t-44.5 -13.5h-297q-31 0 -44.5 13.5t-13.5 44.5zM289 747q-41 0 -71 25.5t-30 72.5v16h40v-14
q0 -31 17 -46.5t44 -15.5q26 0 43.5 15.5t17.5 47.5v13h40v-16q0 -47 -30 -72.5t-71 -25.5z" />
    <glyph glyph-name="ebreve" unicode="&#x115;" horiz-adv-x="527" 
d="M41 249q0 122 71 192.5t172 70.5q97 0 150.5 -65.5t53.5 -162.5l-2 -27h-401q0 -105 61.5 -166.5t152.5 -61.5q43 0 81.5 15.5t55.5 31.5l18 16l23 -35q-8 -8 -22.5 -19.5t-61 -30.5t-94.5 -19q-109 0 -183.5 72.5t-74.5 188.5zM88 296h356q-4 87 -49 132t-112 45
q-73 0 -127.5 -46.5t-67.5 -130.5zM282 586q-41 0 -71 25.5t-30 72.5v16h40v-14q0 -31 17 -46.5t44 -15.5q26 0 43.5 15.5t17.5 47.5v13h40v-16q0 -47 -30 -72.5t-71 -25.5z" />
    <glyph glyph-name="Edotaccent" unicode="&#x116;" horiz-adv-x="550" 
d="M106 58v602h-65v40h390q31 0 44.5 -13.5t13.5 -44.5v-53h-42v49q0 22 -22 22h-276v-287h279v-40h-279v-271q0 -22 22 -22h284q22 0 22 22v49h42v-53q0 -31 -13.5 -44.5t-44.5 -13.5h-297q-31 0 -44.5 13.5t-13.5 44.5zM266 788v73h46v-73h-46z" />
    <glyph glyph-name="edotaccent" unicode="&#x117;" horiz-adv-x="527" 
d="M41 249q0 122 71 192.5t172 70.5q97 0 150.5 -65.5t53.5 -162.5l-2 -27h-401q0 -105 61.5 -166.5t152.5 -61.5q43 0 81.5 15.5t55.5 31.5l18 16l23 -35q-8 -8 -22.5 -19.5t-61 -30.5t-94.5 -19q-109 0 -183.5 72.5t-74.5 188.5zM88 296h356q-4 87 -49 132t-112 45
q-73 0 -127.5 -46.5t-67.5 -130.5zM259 627v73h46v-73h-46z" />
    <glyph glyph-name="Eogonek" unicode="&#x118;" horiz-adv-x="550" 
d="M106 58v602h-65v40h390q31 0 44.5 -13.5t13.5 -44.5v-53h-42v49q0 22 -22 22h-276v-287h279v-40h-279v-271q0 -22 22 -22h284q22 0 22 22v49h42v-53q0 -32 -18 -48q-2 -2 -21.5 -17t-27 -22.5t-21 -22t-19 -28.5t-5.5 -29q0 -22 17 -36t34 -17l17 -3l-9 -39q-4 0 -11 1
t-25 6.5t-32 14.5t-25 27t-11 42q0 62 65 111v2h-263q-31 0 -44.5 13.5t-13.5 44.5z" />
    <glyph glyph-name="eogonek" unicode="&#x119;" horiz-adv-x="528" 
d="M41 249q0 122 71 192.5t172 70.5q97 0 150.5 -65.5t53.5 -162.5l-2 -27h-401q0 -105 61.5 -166.5t152.5 -61.5q43 0 81.5 15.5t55.5 31.5l18 16l23 -35q-11 -10 -56 -41.5t-71.5 -61.5t-26.5 -63q0 -22 17 -36t34 -17l17 -3l-9 -39q-4 0 -11 1t-25 6.5t-32 14.5t-25 27
t-11 42q0 51 53 102v2q-15 -3 -32 -3q-109 0 -183.5 72.5t-74.5 188.5zM88 296h356q-4 87 -49 132t-112 45q-73 0 -127.5 -46.5t-67.5 -130.5z" />
    <glyph glyph-name="Ecaron" unicode="&#x11a;" horiz-adv-x="550" 
d="M106 58v602h-65v40h390q31 0 44.5 -13.5t13.5 -44.5v-53h-42v49q0 22 -22 22h-276v-287h279v-40h-279v-271q0 -22 22 -22h284q22 0 22 22v49h42v-53q0 -31 -13.5 -44.5t-44.5 -13.5h-297q-31 0 -44.5 13.5t-13.5 44.5zM263 750l-80 111h49l56 -80h2l56 80h49l-80 -111
h-52z" />
    <glyph glyph-name="ecaron" unicode="&#x11b;" horiz-adv-x="527" 
d="M41 249q0 122 71 192.5t172 70.5q97 0 150.5 -65.5t53.5 -162.5l-2 -27h-401q0 -105 61.5 -166.5t152.5 -61.5q43 0 81.5 15.5t55.5 31.5l18 16l23 -35q-8 -8 -22.5 -19.5t-61 -30.5t-94.5 -19q-109 0 -183.5 72.5t-74.5 188.5zM88 296h356q-4 87 -49 132t-112 45
q-73 0 -127.5 -46.5t-67.5 -130.5zM256 589l-80 111h49l56 -80h2l56 80h49l-80 -111h-52z" />
    <glyph glyph-name="Gcircumflex" unicode="&#x11c;" horiz-adv-x="713" 
d="M42 350q0 152 100 257t246 105q70 0 130 -21t85 -42l25 -21l-26 -34q-3 3 -9.5 8t-27.5 18.5t-44 23.5t-59 18t-74 8q-129 0 -215 -92t-86 -228q0 -137 84.5 -228.5t213.5 -91.5q42 0 82 12t67.5 28.5t49 33.5t31.5 29l10 12v102q0 22 -22 22h-43v40h50q31 0 44.5 -13.5
t13.5 -44.5v-251h-43v61l1 30h-2q-3 -4 -10 -11t-29.5 -25t-48.5 -31.5t-67 -24.5t-84 -11q-146 0 -244.5 104.5t-98.5 257.5zM280 750l80 111h52l80 -111h-49l-56 80h-2l-56 -80h-49z" />
    <glyph glyph-name="gcircumflex" unicode="&#x11d;" horiz-adv-x="562" 
d="M106 -134q62 -35 134 -35q85 0 137.5 42.5t52.5 129.5v53l2 41h-2q-48 -97 -166 -97q-98 0 -160 71t-62 187q0 117 58.5 185.5t156.5 68.5q40 0 72 -9.5t50 -23t30 -27.5t16 -24l4 -9h2q-1 11 -1 23q0 31 13.5 44.5t44.5 13.5h49v-38h-43q-22 0 -22 -22v-437
q0 -108 -65.5 -160.5t-163.5 -52.5q-81 0 -157 39zM267 41q73 0 118.5 51.5t45.5 165.5q0 213 -174 213q-81 0 -126 -56t-45 -157q0 -100 50 -158.5t131 -58.5zM169 589l80 111h52l80 -111h-49l-56 80h-2l-56 -80h-49z" />
    <glyph glyph-name="Gbreve" unicode="&#x11e;" horiz-adv-x="713" 
d="M42 350q0 152 100 257t246 105q70 0 130 -21t85 -42l25 -21l-26 -34q-3 3 -9.5 8t-27.5 18.5t-44 23.5t-59 18t-74 8q-129 0 -215 -92t-86 -228q0 -137 84.5 -228.5t213.5 -91.5q42 0 82 12t67.5 28.5t49 33.5t31.5 29l10 12v102q0 22 -22 22h-43v40h50q31 0 44.5 -13.5
t13.5 -44.5v-251h-43v61l1 30h-2q-3 -4 -10 -11t-29.5 -25t-48.5 -31.5t-67 -24.5t-84 -11q-146 0 -244.5 104.5t-98.5 257.5zM386 747q-41 0 -71 25.5t-30 72.5v16h40v-14q0 -31 17 -46.5t44 -15.5q26 0 43.5 15.5t17.5 47.5v13h40v-16q0 -47 -30 -72.5t-71 -25.5z" />
    <glyph glyph-name="gbreve" unicode="&#x11f;" horiz-adv-x="562" 
d="M106 -134q62 -35 134 -35q85 0 137.5 42.5t52.5 129.5v53l2 41h-2q-48 -97 -166 -97q-98 0 -160 71t-62 187q0 117 58.5 185.5t156.5 68.5q40 0 72 -9.5t50 -23t30 -27.5t16 -24l4 -9h2q-1 11 -1 23q0 31 13.5 44.5t44.5 13.5h49v-38h-43q-22 0 -22 -22v-437
q0 -108 -65.5 -160.5t-163.5 -52.5q-81 0 -157 39zM267 41q73 0 118.5 51.5t45.5 165.5q0 213 -174 213q-81 0 -126 -56t-45 -157q0 -100 50 -158.5t131 -58.5zM275 586q-41 0 -71 25.5t-30 72.5v16h40v-14q0 -31 17 -46.5t44 -15.5q26 0 43.5 15.5t17.5 47.5v13h40v-16
q0 -47 -30 -72.5t-71 -25.5z" />
    <glyph glyph-name="Gdotaccent" unicode="&#x120;" horiz-adv-x="713" 
d="M42 350q0 152 100 257t246 105q70 0 130 -21t85 -42l25 -21l-26 -34q-3 3 -9.5 8t-27.5 18.5t-44 23.5t-59 18t-74 8q-129 0 -215 -92t-86 -228q0 -137 84.5 -228.5t213.5 -91.5q42 0 82 12t67.5 28.5t49 33.5t31.5 29l10 12v102q0 22 -22 22h-43v40h50q31 0 44.5 -13.5
t13.5 -44.5v-251h-43v61l1 30h-2q-3 -4 -10 -11t-29.5 -25t-48.5 -31.5t-67 -24.5t-84 -11q-146 0 -244.5 104.5t-98.5 257.5zM363 788v73h46v-73h-46z" />
    <glyph glyph-name="gdotaccent" unicode="&#x121;" horiz-adv-x="562" 
d="M106 -134q62 -35 134 -35q85 0 137.5 42.5t52.5 129.5v53l2 41h-2q-48 -97 -166 -97q-98 0 -160 71t-62 187q0 117 58.5 185.5t156.5 68.5q40 0 72 -9.5t50 -23t30 -27.5t16 -24l4 -9h2q-1 11 -1 23q0 31 13.5 44.5t44.5 13.5h49v-38h-43q-22 0 -22 -22v-437
q0 -108 -65.5 -160.5t-163.5 -52.5q-81 0 -157 39zM267 41q73 0 118.5 51.5t45.5 165.5q0 213 -174 213q-81 0 -126 -56t-45 -157q0 -100 50 -158.5t131 -58.5zM252 627v73h46v-73h-46z" />
    <glyph glyph-name="Gcommaaccent" unicode="&#x122;" horiz-adv-x="713" 
d="M42 350q0 152 100 257t246 105q70 0 130 -21t85 -42l25 -21l-26 -34q-3 3 -9.5 8t-27.5 18.5t-44 23.5t-59 18t-74 8q-129 0 -215 -92t-86 -228q0 -137 84.5 -228.5t213.5 -91.5q42 0 82 12t67.5 28.5t49 33.5t31.5 29l10 12v102q0 22 -22 22h-43v40h50q31 0 44.5 -13.5
t13.5 -44.5v-251h-43v61l1 30h-2q-3 -4 -10 -11t-29.5 -25t-48.5 -31.5t-67 -24.5t-84 -11q-146 0 -244.5 104.5t-98.5 257.5zM351 -66h48q6 -25 6 -47q0 -37 -22 -87h-39q18 47 18 78q0 27 -11 56z" />
    <glyph glyph-name="gcommaaccent" unicode="&#x123;" horiz-adv-x="562" 
d="M106 -134q62 -35 134 -35q85 0 137.5 42.5t52.5 129.5v53l2 41h-2q-48 -97 -166 -97q-98 0 -160 71t-62 187q0 117 58.5 185.5t156.5 68.5q40 0 72 -9.5t50 -23t30 -27.5t16 -24l4 -9h2q-1 11 -1 23q0 31 13.5 44.5t44.5 13.5h49v-38h-43q-22 0 -22 -22v-437
q0 -108 -65.5 -160.5t-163.5 -52.5q-81 0 -157 39zM267 41q73 0 118.5 51.5t45.5 165.5q0 213 -174 213q-81 0 -126 -56t-45 -157q0 -100 50 -158.5t131 -58.5zM292 566h-48q-6 26 -6 47q0 37 22 87h39q-18 -47 -18 -78q0 -27 11 -56z" />
    <glyph glyph-name="Hcircumflex" unicode="&#x124;" horiz-adv-x="742" 
d="M106 0v638q0 22 -22 22h-43v40h50q31 0 44.5 -13.5t13.5 -44.5v-271h444v271q0 31 13.5 44.5t44.5 13.5h50v-40h-43q-22 0 -22 -22v-638h-43v331h-444v-331h-43zM265 750l80 111h52l80 -111h-49l-56 80h-2l-56 -80h-49z" />
    <glyph glyph-name="hcircumflex" unicode="&#x125;" horiz-adv-x="580" 
d="M78 0v640q0 22 -22 22h-43v38h49q31 0 44.5 -13t13.5 -42v-228l-2 -41h2q17 47 72 91.5t138 44.5q92 0 128.5 -49.5t36.5 -145.5v-257q0 -22 22 -22h43v-38h-49q-31 0 -44.5 13.5t-13.5 44.5v244q0 30 -2 51.5t-9 45t-20 38.5t-36.5 24.5t-55.5 9.5q-70 0 -126.5 -44.5
t-75.5 -114.5q-8 -28 -8 -68v-244h-42zM-5 750l80 111h52l80 -111h-49l-56 80h-2l-56 -80h-49z" />
    <glyph glyph-name="Hbar" unicode="&#x126;" horiz-adv-x="746" 
d="M108 0v511h-65v40h65v149h43v-149h444v149h43v-149h65v-40h-65v-511h-43v331h-444v-331h-43zM151 371h444v140h-444v-140z" />
    <glyph glyph-name="hbar" unicode="&#x127;" horiz-adv-x="580" 
d="M78 0v569h-81v40h81v91h42v-91h133v-40h-133v-152l-2 -41h2q17 47 72 91.5t138 44.5q92 0 128.5 -49.5t36.5 -145.5v-257q0 -22 22 -22h43v-38h-49q-31 0 -44.5 13.5t-13.5 44.5v244q0 38 -4 63.5t-15.5 52t-37.5 40t-66 13.5q-89 0 -149.5 -65.5t-60.5 -161.5v-244h-42z
" />
    <glyph glyph-name="Itilde" unicode="&#x128;" horiz-adv-x="259" 
d="M44 0v40h64v620h-64v40h171v-40h-64v-620h64v-40h-171zM-18 753q0 108 83 108q23 0 41.5 -11.5t29 -25.5t25.5 -25.5t30 -11.5q40 0 40 71h40q0 -108 -83 -108q-23 0 -41.5 11.5t-29 25.5t-25.5 25.5t-30 11.5q-40 0 -40 -71h-40z" />
    <glyph glyph-name="itilde" unicode="&#x129;" horiz-adv-x="218" 
d="M-22 592q0 108 74 108q24 0 41.5 -18.5t30.5 -37t25 -18.5q34 0 34 71h38q0 -108 -74 -108q-24 0 -41.5 18.5t-30.5 37t-25 18.5q-34 0 -34 -71h-38zM88 58v382q0 22 -22 22h-43v38h49q31 0 44.5 -13.5t13.5 -44.5v-382q0 -22 22 -22h43v-38h-49q-31 0 -44.5 13.5
t-13.5 44.5z" />
    <glyph glyph-name="Imacron" unicode="&#x12a;" horiz-adv-x="259" 
d="M44 0v40h64v620h-64v40h171v-40h-64v-620h64v-40h-171zM10 786v40h239v-40h-239z" />
    <glyph glyph-name="imacron" unicode="&#x12b;" horiz-adv-x="218" 
d="M3 625v40h199v-40h-199zM88 58v382q0 22 -22 22h-43v38h49q31 0 44.5 -13.5t13.5 -44.5v-382q0 -22 22 -22h43v-38h-49q-31 0 -44.5 13.5t-13.5 44.5z" />
    <glyph glyph-name="Ibreve" unicode="&#x12c;" horiz-adv-x="259" 
d="M44 0v40h64v620h-64v40h171v-40h-64v-620h64v-40h-171zM129 747q-41 0 -71 25.5t-30 72.5v16h40v-14q0 -31 17 -46.5t44 -15.5q26 0 43.5 15.5t17.5 47.5v13h40v-16q0 -47 -30 -72.5t-71 -25.5z" />
    <glyph glyph-name="ibreve" unicode="&#x12d;" horiz-adv-x="218" 
d="M102 586q-41 0 -71 25.5t-30 72.5v16h40v-14q0 -31 17 -46.5t44 -15.5q26 0 43.5 15.5t17.5 47.5v13h40v-16q0 -47 -30 -72.5t-71 -25.5zM88 58v382q0 22 -22 22h-43v38h49q31 0 44.5 -13.5t13.5 -44.5v-382q0 -22 22 -22h43v-38h-49q-31 0 -44.5 13.5t-13.5 44.5z" />
    <glyph glyph-name="Iogonek" unicode="&#x12e;" horiz-adv-x="259" 
d="M44 0v40h64v620h-64v40h171v-40h-64v-620h64v-40q-80 -59 -80 -109q0 -22 17 -36t34 -17l17 -3l-9 -39q-4 0 -11 1t-25 6.5t-32 14.5t-25 27t-11 42q0 62 65 111v2h-111z" />
    <glyph glyph-name="iogonek" unicode="&#x12f;" horiz-adv-x="218" 
d="M82 627v73h46v-73h-46zM88 86v354q0 22 -22 22h-43v38h49q31 0 44.5 -13.5t13.5 -44.5v-382q0 -22 22 -22h43v-38q-80 -59 -80 -109q0 -22 17 -36t34 -17l17 -3l-9 -39q-4 0 -11 1t-25 6.5t-32 14.5t-25 27t-11 42q0 62 65 111v2h-2q-28 0 -36.5 21t-8.5 65z" />
    <glyph glyph-name="Idotaccent" unicode="&#x130;" horiz-adv-x="259" 
d="M44 0v40h64v620h-64v40h171v-40h-64v-620h64v-40h-171zM106 788v73h46v-73h-46z" />
    <glyph glyph-name="dotlessi" unicode="&#x131;" horiz-adv-x="219" 
d="M88 58v382q0 22 -22 22h-43v38h49q31 0 44.5 -13.5t13.5 -44.5v-382q0 -22 22 -22h43v-38h-49q-31 0 -44.5 13.5t-13.5 44.5z" />
    <glyph glyph-name="IJ" unicode="&#x132;" horiz-adv-x="596" 
d="M315 -5v42q23 0 42.5 3.5t41 15t36.5 30.5t24.5 53t9.5 79v420q0 22 -22 22h-125v40h132q31 0 44.5 -13.5t13.5 -44.5v-424q0 -223 -197 -223zM44 0v40h64v620h-64v40h171v-40h-64v-620h64v-40h-171z" />
    <glyph glyph-name="ij" unicode="&#x133;" horiz-adv-x="424" 
d="M82 627v73h46v-73h-46zM88 58v382q0 22 -22 22h-43v38h49q31 0 44.5 -13.5t13.5 -44.5v-382q0 -22 22 -22h43v-38h-49q-31 0 -44.5 13.5t-13.5 44.5zM302 627v73h46v-73h-46zM307 -21v461q0 22 -22 22h-43v38h49q31 0 44.5 -13.5t13.5 -44.5v-462q0 -58 -17 -98
t-44.5 -57.5t-50.5 -23.5t-47 -6l-25 2v39q9 -2 22 -2q19 0 36.5 5t38 18.5t33 45t12.5 76.5z" />
    <glyph glyph-name="Jcircumflex" unicode="&#x134;" horiz-adv-x="481" 
d="M23 191v22h43v-22q0 -84 42 -122.5t102 -38.5t102 38.5t42 122.5v447q0 22 -22 22h-175v40h182q31 0 44.5 -13.5t13.5 -44.5v-451q0 -104 -54.5 -153.5t-132.5 -49.5t-132.5 49.5t-54.5 153.5zM163 750l80 111h52l80 -111h-49l-56 80h-2l-56 -80h-49z" />
    <glyph glyph-name="jcircumflex" unicode="&#x135;" horiz-adv-x="207" 
d="M-19 589l80 111h52l80 -111h-49l-57 81l-57 -81h-49zM89 -21v461q0 22 -22 22h-43v38h49q31 0 44.5 -13.5t13.5 -44.5v-462q0 -58 -17 -98t-44.5 -57.5t-50.5 -23.5t-47 -6l-25 2v39q9 -2 22 -2q19 0 36.5 5t38 18.5t33 45t12.5 76.5z" />
    <glyph glyph-name="Kcommaaccent" unicode="&#x136;" horiz-adv-x="566" 
d="M106 0v638q0 22 -22 22h-43v40h50q31 0 44.5 -13.5t13.5 -44.5v-254h99q44 0 60 25l182 287h52l-191 -296q-7 -11 -15 -19.5t-12 -11.5l-4 -3v-2q14 -5 29 -35l136 -270q7 -15 18 -19t33 -4h20v-40h-20q-45 0 -62 9t-34 44l-133 268q-13 27 -65 27h-93v-348h-43zM271 -66
h48q6 -25 6 -47q0 -37 -22 -87h-39q18 47 18 78q0 27 -11 56z" />
    <glyph glyph-name="kcommaaccent" unicode="&#x137;" horiz-adv-x="465" 
d="M78 0v640q0 22 -22 22h-43v38h49q31 0 44.5 -13.5t13.5 -44.5v-340h58q39 0 61 26l141 172h56l-152 -181q-12 -13 -21.5 -21.5t-12.5 -10.5l-4 -2v-2q14 -6 30 -35l105 -187q8 -14 17.5 -18.5t30.5 -4.5h24v-38h-26q-40 0 -56 9.5t-35 43.5l-106 189q-13 23 -56 23h-54
v-265h-42zM215 -66h48q6 -26 6 -47q0 -37 -22 -87h-39q18 47 18 78q0 27 -11 56z" />
    <glyph glyph-name="kgreenlandic" unicode="&#x138;" horiz-adv-x="476" 
d="M90 0v440q0 22 -22 22h-43v38h49q31 0 44.5 -13.5t13.5 -44.5v-165h58q41 0 61 26l151 197h56l-162 -206q-11 -14 -20 -22.5t-12 -9.5l-3 -2v-2q10 -5 27 -35l92 -162q8 -14 17.5 -18.5t30.5 -4.5h29v-38h-31q-40 0 -56 9.5t-35 43.5l-93 164q-13 23 -56 23h-54v-240h-42
z" />
    <glyph glyph-name="Lacute" unicode="&#x139;" horiz-adv-x="517" 
d="M106 58v580q0 22 -22 22h-43v40h50q31 0 44.5 -13.5t13.5 -44.5v-580q0 -22 22 -22h268q22 0 22 22v49h42v-53q0 -31 -13.5 -44.5t-44.5 -13.5h-281q-31 0 -44.5 13.5t-13.5 44.5zM105 750l67 111h56l-79 -111h-44z" />
    <glyph glyph-name="lacute" unicode="&#x13a;" horiz-adv-x="212" 
d="M80 58v582q0 22 -22 22h-43v38h49q31 0 44.5 -13.5t13.5 -44.5v-582q0 -22 22 -22h43v-38h-49q-31 0 -44.5 13.5t-13.5 44.5zM71 750l67 111h56l-79 -111h-44z" />
    <glyph glyph-name="Lcommaaccent" unicode="&#x13b;" horiz-adv-x="517" 
d="M106 58v580q0 22 -22 22h-43v40h50q31 0 44.5 -13.5t13.5 -44.5v-580q0 -22 22 -22h268q22 0 22 22v49h42v-53q0 -31 -13.5 -44.5t-44.5 -13.5h-281q-31 0 -44.5 13.5t-13.5 44.5zM278 -66h48q6 -25 6 -47q0 -37 -22 -87h-39q18 47 18 78q0 27 -11 56z" />
    <glyph glyph-name="lcommaaccent" unicode="&#x13c;" horiz-adv-x="212" 
d="M80 58v582q0 22 -22 22h-43v38h49q31 0 44.5 -13.5t13.5 -44.5v-582q0 -22 22 -22h43v-38h-49q-31 0 -44.5 13.5t-13.5 44.5zM92 -66h48q6 -26 6 -47q0 -37 -22 -87h-39q18 47 18 78q0 27 -11 56z" />
    <glyph glyph-name="Lcaron" unicode="&#x13d;" horiz-adv-x="517" 
d="M106 58v580q0 22 -22 22h-43v40h50q31 0 44.5 -13.5t13.5 -44.5v-580q0 -22 22 -22h268q22 0 22 22v49h42v-53q0 -31 -13.5 -44.5t-44.5 -13.5h-281q-31 0 -44.5 13.5t-13.5 44.5zM246 700h48q6 -25 6 -47q0 -37 -22 -87h-39q18 47 18 78q0 27 -11 56z" />
    <glyph glyph-name="lcaron" unicode="&#x13e;" horiz-adv-x="212" 
d="M80 58v582q0 22 -22 22h-43v38h49q31 0 44.5 -13.5t13.5 -44.5v-582q0 -22 22 -22h43v-38h-49q-31 0 -44.5 13.5t-13.5 44.5zM188 700h48q6 -25 6 -47q0 -37 -22 -87h-39q18 47 18 78q0 27 -11 56z" />
    <glyph glyph-name="Ldot" unicode="&#x13f;" horiz-adv-x="517" 
d="M106 58v580q0 22 -22 22h-43v40h50q31 0 44.5 -13.5t13.5 -44.5v-580q0 -22 22 -22h268q22 0 22 22v49h42v-53q0 -31 -13.5 -44.5t-44.5 -13.5h-281q-31 0 -44.5 13.5t-13.5 44.5zM284 336v59h57v-59h-57z" />
    <glyph glyph-name="ldot" unicode="&#x140;" horiz-adv-x="233" 
d="M80 58v582q0 22 -22 22h-43v38h49q31 0 44.5 -13.5t13.5 -44.5v-582q0 -22 22 -22h43v-38h-49q-31 0 -44.5 13.5t-13.5 44.5zM189 336v59h57v-59h-57z" />
    <glyph glyph-name="Lslash" unicode="&#x141;" horiz-adv-x="521" 
d="M110 58v312l-65 -37v47l65 37v221q0 22 -22 22h-43v40h50q31 0 44.5 -13.5t13.5 -44.5v-200l115 67v-48l-115 -66v-333q0 -22 22 -22h268q22 0 22 22v49h42v-53q0 -31 -13.5 -44.5t-44.5 -13.5h-281q-31 0 -44.5 13.5t-13.5 44.5z" />
    <glyph glyph-name="lslash" unicode="&#x142;" horiz-adv-x="226" 
d="M92 58v328l-93 -53v47l93 54v206q0 22 -22 22h-43v38h49q31 0 44.5 -13.5t13.5 -44.5v-184l88 51v-48l-88 -51v-350q0 -22 22 -22h43v-38h-49q-31 0 -44.5 13.5t-13.5 44.5z" />
    <glyph glyph-name="Nacute" unicode="&#x143;" horiz-adv-x="748" 
d="M41 0v40h43q22 0 22 22v638h40l399 -549l57 -88h2q-5 53 -5 88v491q0 31 13.5 44.5t44.5 13.5h50v-40h-43q-22 0 -22 -22v-638h-40l-399 549l-57 88h-2q5 -53 5 -88v-491q0 -31 -13.5 -44.5t-44.5 -13.5h-50zM364 750l67 111h56l-79 -111h-44z" />
    <glyph glyph-name="nacute" unicode="&#x144;" horiz-adv-x="592" 
d="M90 0v440q0 22 -22 22h-43v38h49q31 0 44.5 -13t13.5 -42v-28l-2 -41h2q17 47 72 91.5t138 44.5q92 0 128.5 -49.5t36.5 -145.5v-257q0 -22 22 -22h43v-38h-49q-31 0 -44.5 13.5t-13.5 44.5v244q0 30 -2 51.5t-9 45t-20 38.5t-36.5 24.5t-55.5 9.5q-70 0 -126.5 -44.5
t-75.5 -114.5q-8 -28 -8 -68v-244h-42zM290 589l67 111h56l-79 -111h-44z" />
    <glyph glyph-name="Ncommaaccent" unicode="&#x145;" horiz-adv-x="748" 
d="M41 0v40h43q22 0 22 22v638h40l399 -549l57 -88h2q-5 53 -5 88v491q0 31 13.5 44.5t44.5 13.5h50v-40h-43q-22 0 -22 -22v-638h-40l-399 549l-57 88h-2q5 -53 5 -88v-491q0 -31 -13.5 -44.5t-44.5 -13.5h-50zM343 -66h48q6 -25 6 -47q0 -37 -22 -87h-39q18 47 18 78
q0 27 -11 56z" />
    <glyph glyph-name="ncommaaccent" unicode="&#x146;" horiz-adv-x="592" 
d="M90 0v440q0 22 -22 22h-43v38h49q31 0 44.5 -13t13.5 -42v-28l-2 -41h2q17 47 72 91.5t138 44.5q92 0 128.5 -49.5t36.5 -145.5v-257q0 -22 22 -22h43v-38h-49q-31 0 -44.5 13.5t-13.5 44.5v244q0 30 -2 51.5t-9 45t-20 38.5t-36.5 24.5t-55.5 9.5q-70 0 -126.5 -44.5
t-75.5 -114.5q-8 -28 -8 -68v-244h-42zM291 -66h48q6 -25 6 -47q0 -37 -22 -87h-39q18 47 18 78q0 27 -11 56z" />
    <glyph glyph-name="Ncaron" unicode="&#x147;" horiz-adv-x="748" 
d="M41 0v40h43q22 0 22 22v638h40l399 -549l57 -88h2q-5 53 -5 88v491q0 31 13.5 44.5t44.5 13.5h50v-40h-43q-22 0 -22 -22v-638h-40l-399 549l-57 88h-2q5 -53 5 -88v-491q0 -31 -13.5 -44.5t-44.5 -13.5h-50zM360 750l-80 111h49l56 -80h2l56 80h49l-80 -111h-52z" />
    <glyph glyph-name="ncaron" unicode="&#x148;" horiz-adv-x="592" 
d="M90 0v440q0 22 -22 22h-43v38h49q31 0 44.5 -13t13.5 -42v-28l-2 -41h2q17 47 72 91.5t138 44.5q92 0 128.5 -49.5t36.5 -145.5v-257q0 -22 22 -22h43v-38h-49q-31 0 -44.5 13.5t-13.5 44.5v244q0 30 -2 51.5t-9 45t-20 38.5t-36.5 24.5t-55.5 9.5q-70 0 -126.5 -44.5
t-75.5 -114.5q-8 -28 -8 -68v-244h-42zM286 589l-80 111h49l56 -80h2l56 80h49l-80 -111h-52z" />
    <glyph glyph-name="napostrophe" unicode="&#x149;" horiz-adv-x="592" 
d="M90 0v440q0 22 -22 22h-43v38h49q31 0 44.5 -13t13.5 -42v-28l-2 -41h2q17 47 72 91.5t138 44.5q92 0 128.5 -49.5t36.5 -145.5v-257q0 -22 22 -22h43v-38h-49q-31 0 -44.5 13.5t-13.5 44.5v244q0 30 -2 51.5t-9 45t-20 38.5t-36.5 24.5t-55.5 9.5q-70 0 -126.5 -44.5
t-75.5 -114.5q-8 -28 -8 -68v-244h-42zM-17 700h48q6 -25 6 -47q0 -37 -22 -87h-39q18 47 18 78q0 27 -11 56z" />
    <glyph glyph-name="Eng" unicode="&#x14a;" horiz-adv-x="748" 
d="M41 0v40h43q22 0 22 22v638h40l399 -549l57 -88h2q-5 53 -5 88v491q0 31 13.5 44.5t44.5 13.5h50v-40h-43q-22 0 -22 -22v-640q0 -104 -54.5 -153.5t-132.5 -49.5v42q60 0 102 38.5t42 122.5v6l-396 545l-57 88h-2q5 -53 5 -88v-491q0 -31 -13.5 -44.5t-44.5 -13.5h-50z
" />
    <glyph glyph-name="eng" unicode="&#x14b;" horiz-adv-x="576" 
d="M90 0v440q0 22 -22 22h-43v38h49q31 0 44.5 -13t13.5 -42v-28l-2 -41h2q17 47 72 91.5t138 44.5q92 0 128.5 -49.5t36.5 -145.5v-342q0 -58 -17 -98t-44.5 -57.5t-50.5 -23.5t-47 -6l-25 2v39q9 -2 22 -2q19 0 36.5 5t38 18.5t33 45t12.5 76.5v328q0 30 -2 51.5t-9 45
t-20 38.5t-36.5 24.5t-55.5 9.5q-70 0 -126.5 -44.5t-75.5 -114.5q-8 -28 -8 -68v-244h-42z" />
    <glyph glyph-name="Omacron" unicode="&#x14c;" horiz-adv-x="790" 
d="M41 355q0 150 103.5 253.5t250.5 103.5t250.5 -103.5t103.5 -253.5q0 -154 -103.5 -260.5t-250.5 -106.5t-250.5 106.5t-103.5 260.5zM86 355q0 -137 90 -231t219 -94t219 94t90 231q0 133 -90 224t-219 91t-219 -91t-90 -224zM273 786v40h239v-40h-239z" />
    <glyph glyph-name="omacron" unicode="&#x14d;" horiz-adv-x="598" 
d="M40 253q0 109 75.5 184t183.5 75t183.5 -75t75.5 -184q0 -111 -75.5 -188t-183.5 -77t-183.5 77t-75.5 188zM84 253q0 -95 62.5 -159.5t152.5 -64.5t152.5 64.5t62.5 159.5q0 92 -62.5 155t-152.5 63t-152.5 -63t-62.5 -155zM180 625v40h239v-40h-239z" />
    <glyph glyph-name="Obreve" unicode="&#x14e;" horiz-adv-x="790" 
d="M41 355q0 150 103.5 253.5t250.5 103.5t250.5 -103.5t103.5 -253.5q0 -154 -103.5 -260.5t-250.5 -106.5t-250.5 106.5t-103.5 260.5zM86 355q0 -137 90 -231t219 -94t219 94t90 231q0 133 -90 224t-219 91t-219 -91t-90 -224zM392 747q-41 0 -71 25.5t-30 72.5v16h40
v-14q0 -31 17 -46.5t44 -15.5q26 0 43.5 15.5t17.5 47.5v13h40v-16q0 -47 -30 -72.5t-71 -25.5z" />
    <glyph glyph-name="obreve" unicode="&#x14f;" horiz-adv-x="598" 
d="M40 253q0 109 75.5 184t183.5 75t183.5 -75t75.5 -184q0 -111 -75.5 -188t-183.5 -77t-183.5 77t-75.5 188zM84 253q0 -95 62.5 -159.5t152.5 -64.5t152.5 64.5t62.5 159.5q0 92 -62.5 155t-152.5 63t-152.5 -63t-62.5 -155zM299 586q-41 0 -71 25.5t-30 72.5v16h40v-14
q0 -31 17 -46.5t44 -15.5q26 0 43.5 15.5t17.5 47.5v13h40v-16q0 -47 -30 -72.5t-71 -25.5z" />
    <glyph glyph-name="Ohungarumlaut" unicode="&#x150;" horiz-adv-x="790" 
d="M41 355q0 150 103.5 253.5t250.5 103.5t250.5 -103.5t103.5 -253.5q0 -154 -103.5 -260.5t-250.5 -106.5t-250.5 106.5t-103.5 260.5zM86 355q0 -137 90 -231t219 -94t219 94t90 231q0 133 -90 224t-219 91t-219 -91t-90 -224zM428 750l67 111h56l-79 -111h-44zM312 750
l63 111h49l-64 -111h-48z" />
    <glyph glyph-name="ohungarumlaut" unicode="&#x151;" horiz-adv-x="598" 
d="M40 253q0 109 75.5 184t183.5 75t183.5 -75t75.5 -184q0 -111 -75.5 -188t-183.5 -77t-183.5 77t-75.5 188zM84 253q0 -95 62.5 -159.5t152.5 -64.5t152.5 64.5t62.5 159.5q0 92 -62.5 155t-152.5 63t-152.5 -63t-62.5 -155zM335 589l67 111h56l-79 -111h-44zM219 589
l63 111h49l-64 -111h-48z" />
    <glyph glyph-name="OE" unicode="&#x152;" horiz-adv-x="898" 
d="M42 350q0 153 93.5 256.5t238.5 103.5q20 0 72.5 -5t68.5 -5h264q31 0 44.5 -13.5t13.5 -44.5v-53h-42v49q0 22 -22 22h-266v-287h269v-40h-269v-293h296q22 0 22 22v49h42v-53q0 -58 -52 -58h-299q-16 0 -69 -5t-73 -5q-145 0 -238.5 103t-93.5 257zM87 350
q0 -138 79.5 -228t207.5 -90q53 0 90 8v620q-37 8 -90 8q-128 0 -207.5 -90.5t-79.5 -227.5z" />
    <glyph glyph-name="oe" unicode="&#x153;" horiz-adv-x="999" 
d="M40 249q0 116 75.5 189.5t182.5 73.5q77 0 140 -40t94 -109h2q29 71 88.5 110t133.5 39q97 0 150.5 -65.5t53.5 -162.5l-2 -27h-401q3 -108 64 -168t150 -60q43 0 81.5 15.5t55.5 31.5l18 16l23 -35q-8 -8 -22.5 -19.5t-61 -30.5t-94.5 -19q-79 0 -142.5 40t-93.5 110h-2
q-31 -70 -94 -110t-141 -40q-108 0 -183 72.5t-75 188.5zM560 296h356q-4 87 -49 132t-112 45q-73 0 -127.5 -46.5t-67.5 -130.5zM84 249q0 -98 62 -159t152 -61t152.5 62t62.5 163q0 96 -63 156.5t-152 60.5q-90 0 -152 -62t-62 -160z" />
    <glyph glyph-name="Racute" unicode="&#x154;" horiz-adv-x="599" 
d="M106 0v660h-65v40h290q85 0 139 -53.5t54 -140.5q0 -74 -39.5 -124t-104.5 -64v-2q11 -7 20 -24l114 -229q7 -15 18 -19t33 -4h14v-40h-14q-45 0 -62 9t-34 44l-105 211q-15 30 -29 38t-44 8h-142v-310h-43zM149 350h180q69 0 109.5 42.5t40.5 113.5t-40.5 112.5
t-109.5 41.5h-180v-310zM253 750l67 111h56l-79 -111h-44z" />
    <glyph glyph-name="racute" unicode="&#x155;" horiz-adv-x="327" 
d="M90 0v440q0 22 -22 22h-43v38h49q31 0 44.5 -13t13.5 -42v-35l-2 -41h2q20 61 60.5 98t97.5 37l29 -3v-42q-12 2 -23 2q-55 0 -93 -39.5t-56 -100.5q-15 -48 -15 -105v-216h-42zM152 589l67 111h56l-79 -111h-44z" />
    <glyph glyph-name="Rcommaaccent" unicode="&#x156;" horiz-adv-x="599" 
d="M106 0v660h-65v40h290q85 0 139 -53.5t54 -140.5q0 -74 -39.5 -124t-104.5 -64v-2q11 -7 20 -24l114 -229q7 -15 18 -19t33 -4h14v-40h-14q-45 0 -62 9t-34 44l-105 211q-15 30 -29 38t-44 8h-142v-310h-43zM149 350h180q69 0 109.5 42.5t40.5 113.5t-40.5 112.5
t-109.5 41.5h-180v-310zM292 -66h48q6 -25 6 -47q0 -37 -22 -87h-39q18 47 18 78q0 27 -11 56z" />
    <glyph glyph-name="rcommaaccent" unicode="&#x157;" horiz-adv-x="327" 
d="M90 0v440q0 22 -22 22h-43v38h49q31 0 44.5 -13t13.5 -42v-35l-2 -41h2q20 61 60.5 98t97.5 37l29 -3v-42q-12 2 -23 2q-55 0 -93 -39.5t-56 -100.5q-15 -48 -15 -105v-216h-42zM89 -66h48q6 -26 6 -47q0 -37 -22 -87h-39q18 47 18 78q0 27 -11 56z" />
    <glyph glyph-name="Rcaron" unicode="&#x158;" horiz-adv-x="599" 
d="M106 0v660h-65v40h290q85 0 139 -53.5t54 -140.5q0 -74 -39.5 -124t-104.5 -64v-2q11 -7 20 -24l114 -229q7 -15 18 -19t33 -4h14v-40h-14q-45 0 -62 9t-34 44l-105 211q-15 30 -29 38t-44 8h-142v-310h-43zM149 350h180q69 0 109.5 42.5t40.5 113.5t-40.5 112.5
t-109.5 41.5h-180v-310zM249 750l-80 111h49l56 -80h2l56 80h49l-80 -111h-52z" />
    <glyph glyph-name="rcaron" unicode="&#x159;" horiz-adv-x="327" 
d="M90 0v440q0 22 -22 22h-43v38h49q31 0 44.5 -13t13.5 -42v-35l-2 -41h2q20 61 60.5 98t97.5 37l29 -3v-42q-12 2 -23 2q-55 0 -93 -39.5t-56 -100.5q-15 -48 -15 -105v-216h-42zM148 589l-80 111h49l56 -80h2l56 80h49l-80 -111h-52z" />
    <glyph glyph-name="Sacute" unicode="&#x15a;" horiz-adv-x="497" 
d="M34 83l29 33q3 -3 8.5 -9t24 -21t38.5 -26t52 -20.5t64 -9.5q66 0 111 40.5t45 102.5q0 54 -36.5 91.5t-88 61t-103.5 47.5t-88.5 66t-36.5 102q0 70 56.5 120.5t148.5 50.5q26 0 54.5 -5.5t58.5 -17.5t49 -35t19 -54v-44h-43v34q0 34 -40.5 57t-96.5 23
q-74 0 -117.5 -37.5t-43.5 -90.5q0 -50 36.5 -85t88 -57t103.5 -47t88.5 -69.5t36.5 -108.5q0 -78 -56 -132.5t-147 -54.5q-39 0 -75 10t-60 23.5t-43 27.5t-28 24zM231 750l67 111h56l-79 -111h-44z" />
    <glyph glyph-name="sacute" unicode="&#x15b;" horiz-adv-x="420" 
d="M31 74l30 31q2 -3 6 -8t18.5 -18.5t31 -23.5t43.5 -18t56 -8q51 0 87 25t36 69q0 34 -29.5 59t-72 41t-85 34t-72 49.5t-29.5 75.5q0 63 47 96.5t124 33.5q19 0 41 -4.5t45.5 -13t39 -26.5t15.5 -41v-38h-42v24q0 28 -32 43t-65 15q-62 0 -95.5 -22t-33.5 -64
q0 -35 29.5 -60t72 -41t85 -33.5t72 -49.5t29.5 -78q0 -59 -48 -97t-120 -38q-35 0 -67 9t-52.5 21.5t-36 25t-21.5 21.5zM192 589l67 111h56l-79 -111h-44z" />
    <glyph glyph-name="Scircumflex" unicode="&#x15c;" horiz-adv-x="497" 
d="M34 83l29 33q3 -3 8.5 -9t24 -21t38.5 -26t52 -20.5t64 -9.5q66 0 111 40.5t45 102.5q0 54 -36.5 91.5t-88 61t-103.5 47.5t-88.5 66t-36.5 102q0 70 56.5 120.5t148.5 50.5q26 0 54.5 -5.5t58.5 -17.5t49 -35t19 -54v-44h-43v34q0 34 -40.5 57t-96.5 23
q-74 0 -117.5 -37.5t-43.5 -90.5q0 -50 36.5 -85t88 -57t103.5 -47t88.5 -69.5t36.5 -108.5q0 -78 -56 -132.5t-147 -54.5q-39 0 -75 10t-60 23.5t-43 27.5t-28 24zM147 750l80 111h52l80 -111h-49l-56 80h-2l-56 -80h-49z" />
    <glyph glyph-name="scircumflex" unicode="&#x15d;" horiz-adv-x="420" 
d="M31 74l30 31q2 -3 6 -8t18.5 -18.5t31 -23.5t43.5 -18t56 -8q51 0 87 25t36 69q0 34 -29.5 59t-72 41t-85 34t-72 49.5t-29.5 75.5q0 63 47 96.5t124 33.5q19 0 41 -4.5t45.5 -13t39 -26.5t15.5 -41v-38h-42v24q0 28 -32 43t-65 15q-62 0 -95.5 -22t-33.5 -64
q0 -35 29.5 -60t72 -41t85 -33.5t72 -49.5t29.5 -78q0 -59 -48 -97t-120 -38q-35 0 -67 9t-52.5 21.5t-36 25t-21.5 21.5zM108 589l80 111h52l80 -111h-49l-56 80h-2l-56 -80h-49z" />
    <glyph glyph-name="Scedilla" unicode="&#x15e;" horiz-adv-x="498" 
d="M35 83l29 33q3 -3 8.5 -9t24 -21t38.5 -26t52 -20.5t64 -9.5q66 0 111 40.5t45 102.5q0 54 -36.5 91.5t-88.5 61t-103.5 47.5t-88 66t-36.5 102q0 70 56.5 120.5t148.5 50.5q26 0 54.5 -5.5t58.5 -17.5t49 -35t19 -54v-44h-43v34q0 34 -40.5 57t-96.5 23
q-74 0 -117.5 -37.5t-43.5 -90.5q0 -50 36.5 -85t88.5 -57t103.5 -47t88 -69.5t36.5 -108.5q0 -76 -52.5 -129.5t-138.5 -57.5l-9 -48q31 -5 50 -23t19 -45q0 -39 -26 -57.5t-65 -18.5l-44 4v38q18 -5 41 -5q54 0 54 37q0 38 -61 38l-12 -1l17 82q-34 3 -66.5 13.5t-54 24
t-38 26.5t-24.5 21z" />
    <glyph glyph-name="scedilla" unicode="&#x15f;" horiz-adv-x="421" 
d="M31 74l30 31q2 -3 6 -8t18.5 -18.5t31 -23.5t43.5 -18t56 -8q51 0 87 25t36 69q0 34 -29.5 59t-72 41t-85 34t-72 49.5t-29.5 75.5q0 63 47 96.5t124 33.5q19 0 41 -4.5t45.5 -13t39 -26.5t15.5 -41v-38h-42v24q0 28 -32 43t-65 15q-62 0 -95.5 -22t-33.5 -64
q0 -35 29.5 -60t72 -41t85 -33.5t72 -49.5t29.5 -78q0 -58 -46 -95.5t-116 -39.5l-9 -48q31 -5 50 -23t19 -45q0 -39 -26 -57.5t-65 -18.5l-44 4v38q18 -5 41 -5q54 0 54 37q0 38 -61 38l-12 -1l18 83q-30 3 -56.5 13t-44 21.5t-30.5 23t-19 18.5z" />
    <glyph glyph-name="Scaron" unicode="&#x160;" horiz-adv-x="497" 
d="M34 83l29 33q3 -3 8.5 -9t24 -21t38.5 -26t52 -20.5t64 -9.5q66 0 111 40.5t45 102.5q0 54 -36.5 91.5t-88 61t-103.5 47.5t-88.5 66t-36.5 102q0 70 56.5 120.5t148.5 50.5q26 0 54.5 -5.5t58.5 -17.5t49 -35t19 -54v-44h-43v34q0 34 -40.5 57t-96.5 23
q-74 0 -117.5 -37.5t-43.5 -90.5q0 -50 36.5 -85t88 -57t103.5 -47t88.5 -69.5t36.5 -108.5q0 -78 -56 -132.5t-147 -54.5q-39 0 -75 10t-60 23.5t-43 27.5t-28 24zM227 750l-80 111h49l56 -80h2l56 80h49l-80 -111h-52z" />
    <glyph glyph-name="scaron" unicode="&#x161;" horiz-adv-x="420" 
d="M31 74l30 31q2 -3 6 -8t18.5 -18.5t31 -23.5t43.5 -18t56 -8q51 0 87 25t36 69q0 34 -29.5 59t-72 41t-85 34t-72 49.5t-29.5 75.5q0 63 47 96.5t124 33.5q19 0 41 -4.5t45.5 -13t39 -26.5t15.5 -41v-38h-42v24q0 28 -32 43t-65 15q-62 0 -95.5 -22t-33.5 -64
q0 -35 29.5 -60t72 -41t85 -33.5t72 -49.5t29.5 -78q0 -59 -48 -97t-120 -38q-35 0 -67 9t-52.5 21.5t-36 25t-21.5 21.5zM188 589l-80 111h49l56 -80h2l56 80h49l-80 -111h-52z" />
    <glyph glyph-name="Tcommaaccent" unicode="&#x162;" horiz-adv-x="603" 
d="M280 0v660h-202q-22 0 -22 -22v-49h-42v57q0 31 11.5 42.5t42.5 11.5h467q31 0 42.5 -11.5t11.5 -42.5v-57h-42v49q0 22 -22 22h-202v-660h-4l-11 -60q31 -5 50 -23t19 -45q0 -39 -26 -57.5t-65 -18.5l-44 4v38q18 -5 41 -5q54 0 54 37q0 38 -61 38l-12 -1l20 93h-4z" />
    <glyph glyph-name="tcommaaccent" unicode="&#x163;" horiz-adv-x="276" 
d="M85 181v281h-66v38h66v139h42v-139h131v-38h-131v-278q0 -46 12.5 -78t32.5 -46.5t37.5 -19.5t36.5 -5l23 2v-39q-10 -2 -25 -2q-24 0 -45 5l-11 -61q31 -5 50 -23t19 -45q0 -39 -26 -57.5t-65 -18.5l-44 4v38q18 -5 41 -5q54 0 54 37q0 38 -61 38l-12 -1l23 106
q-82 40 -82 168z" />
    <glyph glyph-name="Tcaron" unicode="&#x164;" horiz-adv-x="603" 
d="M280 0v660h-202q-22 0 -22 -22v-49h-42v57q0 31 11.5 42.5t42.5 11.5h467q31 0 42.5 -11.5t11.5 -42.5v-57h-42v49q0 22 -22 22h-202v-660h-43zM277 750l-80 111h49l56 -80h2l56 80h49l-80 -111h-52z" />
    <glyph glyph-name="tcaron" unicode="&#x165;" horiz-adv-x="276" 
d="M85 181v281h-66v38h66v139h42v-139h131v-38h-131v-278q0 -46 12.5 -78t32.5 -46.5t37.5 -19.5t36.5 -5l23 2v-39q-10 -2 -25 -2q-19 0 -37 3t-41 14.5t-40 30.5t-29 54.5t-12 82.5zM200 700h48q6 -25 6 -47q0 -37 -22 -87h-39q18 47 18 78q0 27 -11 56z" />
    <glyph glyph-name="Tbar" unicode="&#x166;" horiz-adv-x="618" 
d="M287 0v337h-166v40h166v283h-202q-22 0 -22 -22v-49h-42v57q0 31 11.5 42.5t42.5 11.5h467q31 0 42.5 -11.5t11.5 -42.5v-57h-42v49q0 22 -22 22h-202v-283h170v-40h-170v-337h-43z" />
    <glyph glyph-name="tbar" unicode="&#x167;" horiz-adv-x="280" 
d="M85 181v114h-66v40h66v127h-66v38h66v139h42v-139h131v-38h-131v-127h131v-40h-131v-111q0 -46 12.5 -78t32.5 -46t37.5 -19.5t36.5 -5.5l23 2v-39q-10 -2 -25 -2q-19 0 -37 3t-41 14.5t-40 30.5t-29 54.5t-12 82.5z" />
    <glyph glyph-name="Utilde" unicode="&#x168;" horiz-adv-x="695" 
d="M96 235v403q0 22 -22 22h-43v40h50q31 0 44.5 -13.5t13.5 -44.5v-404q0 -95 56.5 -151.5t151.5 -56.5t152 57t57 153v402q0 31 13.5 44.5t44.5 13.5h50v-40h-43q-22 0 -22 -22v-403q0 -111 -69.5 -179t-181.5 -68t-182 68t-70 179zM202 753q0 108 83 108q23 0 41.5 -11.5
t29 -25.5t25.5 -25.5t30 -11.5q40 0 40 71h40q0 -108 -83 -108q-23 0 -41.5 11.5t-29 25.5t-25.5 25.5t-30 11.5q-40 0 -40 -71h-40z" />
    <glyph glyph-name="utilde" unicode="&#x169;" horiz-adv-x="587" 
d="M85 183v257q0 22 -22 22h-43v38h49q31 0 44.5 -13t13.5 -42v-247q0 -30 2 -51.5t9 -45t20 -38.5t36.5 -24.5t55.5 -9.5q90 0 147.5 67.5t57.5 159.5v244h42v-440q0 -22 22 -22h43v-38h-49q-31 0 -44.5 13t-13.5 42v28l2 41h-2q-17 -47 -70.5 -91.5t-134.5 -44.5
q-89 0 -127 48t-38 147zM138 592q0 108 83 108q23 0 41.5 -11.5t29 -25.5t25.5 -25.5t30 -11.5q40 0 40 71h40q0 -108 -83 -108q-23 0 -41.5 11.5t-29 25.5t-25.5 25.5t-30 11.5q-40 0 -40 -71h-40z" />
    <glyph glyph-name="Umacron" unicode="&#x16a;" horiz-adv-x="695" 
d="M96 235v403q0 22 -22 22h-43v40h50q31 0 44.5 -13.5t13.5 -44.5v-404q0 -95 56.5 -151.5t151.5 -56.5t152 57t57 153v402q0 31 13.5 44.5t44.5 13.5h50v-40h-43q-22 0 -22 -22v-403q0 -111 -69.5 -179t-181.5 -68t-182 68t-70 179zM230 786v40h239v-40h-239z" />
    <glyph glyph-name="umacron" unicode="&#x16b;" horiz-adv-x="587" 
d="M85 183v257q0 22 -22 22h-43v38h49q31 0 44.5 -13t13.5 -42v-247q0 -30 2 -51.5t9 -45t20 -38.5t36.5 -24.5t55.5 -9.5q90 0 147.5 67.5t57.5 159.5v244h42v-440q0 -22 22 -22h43v-38h-49q-31 0 -44.5 13t-13.5 42v28l2 41h-2q-17 -47 -70.5 -91.5t-134.5 -44.5
q-89 0 -127 48t-38 147zM166 625v40h239v-40h-239z" />
    <glyph glyph-name="Ubreve" unicode="&#x16c;" horiz-adv-x="695" 
d="M96 235v403q0 22 -22 22h-43v40h50q31 0 44.5 -13.5t13.5 -44.5v-404q0 -95 56.5 -151.5t151.5 -56.5t152 57t57 153v402q0 31 13.5 44.5t44.5 13.5h50v-40h-43q-22 0 -22 -22v-403q0 -111 -69.5 -179t-181.5 -68t-182 68t-70 179zM349 747q-41 0 -71 25.5t-30 72.5v16
h40v-14q0 -31 17 -46.5t44 -15.5q26 0 43.5 15.5t17.5 47.5v13h40v-16q0 -47 -30 -72.5t-71 -25.5z" />
    <glyph glyph-name="ubreve" unicode="&#x16d;" horiz-adv-x="587" 
d="M85 183v257q0 22 -22 22h-43v38h49q31 0 44.5 -13t13.5 -42v-247q0 -30 2 -51.5t9 -45t20 -38.5t36.5 -24.5t55.5 -9.5q90 0 147.5 67.5t57.5 159.5v244h42v-440q0 -22 22 -22h43v-38h-49q-31 0 -44.5 13t-13.5 42v28l2 41h-2q-17 -47 -70.5 -91.5t-134.5 -44.5
q-89 0 -127 48t-38 147zM285 586q-41 0 -71 25.5t-30 72.5v16h40v-14q0 -31 17 -46.5t44 -15.5q26 0 43.5 15.5t17.5 47.5v13h40v-16q0 -47 -30 -72.5t-71 -25.5z" />
    <glyph glyph-name="Uring" unicode="&#x16e;" horiz-adv-x="695" 
d="M96 235v403q0 22 -22 22h-43v40h50q31 0 44.5 -13.5t13.5 -44.5v-404q0 -95 56.5 -151.5t151.5 -56.5t152 57t57 153v402q0 31 13.5 44.5t44.5 13.5h50v-40h-43q-22 0 -22 -22v-403q0 -111 -69.5 -179t-181.5 -68t-182 68t-70 179zM349 740q-29 0 -48 19t-19 48t19 48
t48 19t48 -19t19 -48t-19 -48t-48 -19zM349 775q14 0 23 9t9 23q0 15 -9 24t-23 9t-23 -9t-9 -24q0 -14 9 -23t23 -9z" />
    <glyph glyph-name="uring" unicode="&#x16f;" horiz-adv-x="587" 
d="M85 183v257q0 22 -22 22h-43v38h49q31 0 44.5 -13t13.5 -42v-247q0 -30 2 -51.5t9 -45t20 -38.5t36.5 -24.5t55.5 -9.5q90 0 147.5 67.5t57.5 159.5v244h42v-440q0 -22 22 -22h43v-38h-49q-31 0 -44.5 13t-13.5 42v28l2 41h-2q-17 -47 -70.5 -91.5t-134.5 -44.5
q-89 0 -127 48t-38 147zM285 579q-29 0 -48 19.5t-19 47.5t19 47.5t48 19.5t48 -19.5t19 -47.5t-19 -47.5t-48 -19.5zM285 614q14 0 23 9t9 23q0 15 -9 24t-23 9t-23 -9t-9 -24q0 -14 9 -23t23 -9z" />
    <glyph glyph-name="Uhungarumlaut" unicode="&#x170;" horiz-adv-x="695" 
d="M96 235v403q0 22 -22 22h-43v40h50q31 0 44.5 -13.5t13.5 -44.5v-404q0 -95 56.5 -151.5t151.5 -56.5t152 57t57 153v402q0 31 13.5 44.5t44.5 13.5h50v-40h-43q-22 0 -22 -22v-403q0 -111 -69.5 -179t-181.5 -68t-182 68t-70 179zM385 750l67 111h56l-79 -111h-44z
M269 750l63 111h49l-64 -111h-48z" />
    <glyph glyph-name="uhungarumlaut" unicode="&#x171;" horiz-adv-x="587" 
d="M85 183v257q0 22 -22 22h-43v38h49q31 0 44.5 -13t13.5 -42v-247q0 -30 2 -51.5t9 -45t20 -38.5t36.5 -24.5t55.5 -9.5q90 0 147.5 67.5t57.5 159.5v244h42v-440q0 -22 22 -22h43v-38h-49q-31 0 -44.5 13t-13.5 42v28l2 41h-2q-17 -47 -70.5 -91.5t-134.5 -44.5
q-89 0 -127 48t-38 147zM321 589l67 111h56l-79 -111h-44zM205 589l63 111h49l-64 -111h-48z" />
    <glyph glyph-name="Uogonek" unicode="&#x172;" horiz-adv-x="698" 
d="M96 235v403q0 22 -22 22h-43v40h50q31 0 44.5 -13.5t13.5 -44.5v-404q0 -95 56.5 -151.5t151.5 -56.5t152 57t57 153v402q0 31 13.5 44.5t44.5 13.5h50v-40h-43q-22 0 -22 -22v-410q0 -140 -133 -216q-104 -59 -104 -121q0 -22 17 -36t34 -17l17 -3l-9 -39q-4 0 -11 1
t-25 6.5t-32 14.5t-25 27t-11 42q0 52 50 100v2q-10 -1 -19 -1q-112 0 -182 68t-70 179z" />
    <glyph glyph-name="uogonek" unicode="&#x173;" horiz-adv-x="587" 
d="M85 183v257q0 22 -22 22h-43v38h49q21 0 33 -4.5t17.5 -18t6.5 -26.5t1 -41v-212q0 -30 2 -51.5t9 -45t20 -38.5t36.5 -24.5t55.5 -9.5q90 0 147.5 67.5t57.5 159.5v244h42v-440q0 -22 22 -22h43v-38q-80 -59 -80 -109q0 -22 17 -36t34 -17l17 -3l-9 -39q-4 0 -11 1
t-25 6.5t-32 14.5t-25 27t-11 42q0 34 20.5 64t46.5 48v2h-3q-46 0 -46 54v27l2 41h-2q-2 -5 -6.5 -14.5t-21.5 -32.5t-38.5 -41t-58.5 -32.5t-80 -14.5q-89 0 -127 48t-38 147z" />
    <glyph glyph-name="Wcircumflex" unicode="&#x174;" horiz-adv-x="923" 
d="M232 0l-168 638q-6 22 -39 22h-8v40h7q40 0 57.5 -11t26.5 -47l132 -512l17 -75h2q10 40 20 75l167 566h51l149 -566l17 -75h2q8 41 17 75l133 512q9 36 26.5 47t57.5 11h7v-40h-8q-33 0 -39 -22l-168 -638h-53l-141 528l-25 111h-2q-15 -65 -28 -110l-157 -529h-53z
M365 750l80 111h52l80 -111h-49l-56 80h-2l-56 -80h-49z" />
    <glyph glyph-name="wcircumflex" unicode="&#x175;" horiz-adv-x="843" 
d="M220 0l-154 438q-9 24 -38 24h-13v38h12q38 0 53.5 -10.5t28.5 -47.5l116 -334l17 -54h2q9 30 17 54l137 390h47l137 -390l17 -54h2q8 29 17 54l116 334q13 37 28.5 47.5t53.5 10.5h12v-38h-13q-29 0 -38 -24l-154 -438h-45l-139 388l-17 54h-2q-8 -30 -17 -54l-138 -388
h-45zM315 589l80 111h52l80 -111h-49l-56 80h-2l-56 -80h-49z" />
    <glyph glyph-name="Ycircumflex" unicode="&#x176;" horiz-adv-x="586" 
d="M272 0v304l-198 329q-15 27 -49 27h-13v40h9q38 0 56 -10.5t41 -47.5l131 -218l43 -79h2q22 45 43 79l131 218q23 37 41 47.5t56 10.5h9v-40h-13q-34 0 -49 -27l-197 -329v-304h-43zM188 750l80 111h52l80 -111h-49l-56 80h-2l-56 -80h-49z" />
    <glyph glyph-name="ycircumflex" unicode="&#x177;" horiz-adv-x="523" 
d="M31 -131q0 -2 9 -10.5t28 -18.5t38 -10q60 0 98 90l36 83l-181 435q-10 24 -38 24h-8v38h7q37 0 52 -10.5t30 -47.5l142 -341l17 -47h2q7 23 17 47l141 341q15 37 30 47.5t52 10.5h7v-38h-8q-28 0 -38 -24l-231 -555q-39 -93 -127 -93q-29 0 -54 12t-36 24l-10 11z
M152 589l80 111h52l80 -111h-49l-56 80h-2l-56 -80h-49z" />
    <glyph glyph-name="Ydieresis" unicode="&#x178;" horiz-adv-x="586" 
d="M272 0v304l-198 329q-15 27 -49 27h-13v40h9q38 0 56 -10.5t41 -47.5l131 -218l43 -79h2q22 45 43 79l131 218q23 37 41 47.5t56 10.5h9v-40h-13q-34 0 -49 -27l-197 -329v-304h-43zM340 788v73h46v-73h-46zM203 788v73h46v-73h-46z" />
    <glyph glyph-name="Zacute" unicode="&#x179;" horiz-adv-x="577" 
d="M29 0v34l402 562l51 64v2q-16 -2 -51 -2h-327q-22 0 -22 -22v-49h-42v53q0 31 13.5 44.5t44.5 13.5h436v-34l-402 -562l-51 -64v-2q16 2 51 2h351q22 0 22 22v49h42v-53q0 -31 -13.5 -44.5t-44.5 -13.5h-460zM276 750l67 111h56l-79 -111h-44z" />
    <glyph glyph-name="zacute" unicode="&#x17a;" horiz-adv-x="491" 
d="M39 0v34l303 381l39 46v2q-18 -2 -51 -2h-225q-22 0 -22 -22v-43h-41v46q0 31 13.5 44.5t44.5 13.5h338v-34l-304 -381l-40 -46v-2q19 2 52 2h250q22 0 22 22v43h41v-46q0 -31 -13.5 -44.5t-44.5 -13.5h-362zM228 589l67 111h56l-79 -111h-44z" />
    <glyph glyph-name="Zdotaccent" unicode="&#x17b;" horiz-adv-x="577" 
d="M29 0v34l402 562l51 64v2q-16 -2 -51 -2h-327q-22 0 -22 -22v-49h-42v53q0 31 13.5 44.5t44.5 13.5h436v-34l-402 -562l-51 -64v-2q16 2 51 2h351q22 0 22 22v49h42v-53q0 -31 -13.5 -44.5t-44.5 -13.5h-460zM275 788v73h46v-73h-46z" />
    <glyph glyph-name="zdotaccent" unicode="&#x17c;" horiz-adv-x="491" 
d="M39 0v34l303 381l39 46v2q-18 -2 -51 -2h-225q-22 0 -22 -22v-43h-41v46q0 31 13.5 44.5t44.5 13.5h338v-34l-304 -381l-40 -46v-2q19 2 52 2h250q22 0 22 22v43h41v-46q0 -31 -13.5 -44.5t-44.5 -13.5h-362zM227 627v73h46v-73h-46z" />
    <glyph glyph-name="Zcaron" unicode="&#x17d;" horiz-adv-x="577" 
d="M29 0v34l402 562l51 64v2q-16 -2 -51 -2h-327q-22 0 -22 -22v-49h-42v53q0 31 13.5 44.5t44.5 13.5h436v-34l-402 -562l-51 -64v-2q16 2 51 2h351q22 0 22 22v49h42v-53q0 -31 -13.5 -44.5t-44.5 -13.5h-460zM272 750l-80 111h49l56 -80h2l56 80h49l-80 -111h-52z" />
    <glyph glyph-name="zcaron" unicode="&#x17e;" horiz-adv-x="491" 
d="M39 0v34l303 381l39 46v2q-18 -2 -51 -2h-225q-22 0 -22 -22v-43h-41v46q0 31 13.5 44.5t44.5 13.5h338v-34l-304 -381l-40 -46v-2q19 2 52 2h250q22 0 22 22v43h41v-46q0 -31 -13.5 -44.5t-44.5 -13.5h-362zM224 589l-80 111h49l56 -80h2l56 80h49l-80 -111h-52z" />
    <glyph glyph-name="longs" unicode="&#x17f;" horiz-adv-x="224" 
d="M90 0v462h-63v38h63v20q0 58 17 98t44.5 57t50 23.5t46.5 6.5l26 -2v-39q-9 2 -23 2q-19 0 -36 -5t-37.5 -18.5t-33 -45t-12.5 -76.5v-521h-42z" />
    <glyph glyph-name="florin" unicode="&#x192;" 
d="M86 -15q9 -2 22 -2q19 0 36.5 5t39 18.5t36.5 45t19 76.5l22 250h-84v38h88l9 104q4 47 19 82.5t33.5 54.5t43 30.5t42.5 14.5t36 3l26 -2l-4 -39q-9 2 -23 2q-19 0 -36.5 -5t-39 -18.5t-36.5 -45t-19 -76.5l-10 -105h113v-38h-116l-22 -249q-5 -58 -25.5 -98
t-49.5 -57.5t-52 -23.5t-47 -6l-25 2z" />
    <glyph glyph-name="Scommaaccent" unicode="&#x218;" horiz-adv-x="497" 
d="M34 83l29 33q3 -3 8.5 -9t24 -21t38.5 -26t52 -20.5t64 -9.5q66 0 111 40.5t45 102.5q0 54 -36.5 91.5t-88 61t-103.5 47.5t-88.5 66t-36.5 102q0 70 56.5 120.5t148.5 50.5q26 0 54.5 -5.5t58.5 -17.5t49 -35t19 -54v-44h-43v34q0 34 -40.5 57t-96.5 23
q-74 0 -117.5 -37.5t-43.5 -90.5q0 -50 36.5 -85t88 -57t103.5 -47t88.5 -69.5t36.5 -108.5q0 -78 -56 -132.5t-147 -54.5q-39 0 -75 10t-60 23.5t-43 27.5t-28 24zM224 -66h48q6 -25 6 -47q0 -37 -22 -87h-39q18 47 18 78q0 27 -11 56z" />
    <glyph glyph-name="scommaaccent" unicode="&#x219;" horiz-adv-x="420" 
d="M31 74l30 31q2 -3 6 -8t18.5 -18.5t31 -23.5t43.5 -18t56 -8q51 0 87 25t36 69q0 34 -29.5 59t-72 41t-85 34t-72 49.5t-29.5 75.5q0 63 47 96.5t124 33.5q19 0 41 -4.5t45.5 -13t39 -26.5t15.5 -41v-38h-42v24q0 28 -32 43t-65 15q-62 0 -95.5 -22t-33.5 -64
q0 -35 29.5 -60t72 -41t85 -33.5t72 -49.5t29.5 -78q0 -59 -48 -97t-120 -38q-35 0 -67 9t-52.5 21.5t-36 25t-21.5 21.5zM189 -66h48q6 -26 6 -47q0 -37 -22 -87h-39q18 47 18 78q0 27 -11 56z" />
    <glyph glyph-name="uni021A" unicode="&#x21a;" horiz-adv-x="603" 
d="M280 0v660h-202q-22 0 -22 -22v-49h-42v57q0 31 11.5 42.5t42.5 11.5h467q31 0 42.5 -11.5t11.5 -42.5v-57h-42v49q0 22 -22 22h-202v-660h-43zM278 -66h48q6 -25 6 -47q0 -37 -22 -87h-39q18 47 18 78q0 27 -11 56z" />
    <glyph glyph-name="uni021B" unicode="&#x21b;" horiz-adv-x="276" 
d="M85 181v281h-66v38h66v139h42v-139h131v-38h-131v-278q0 -46 12.5 -78t32.5 -46.5t37.5 -19.5t36.5 -5l23 2v-39q-10 -2 -25 -2q-19 0 -37 3t-41 14.5t-40 30.5t-29 54.5t-12 82.5zM150 -66h48q6 -26 6 -47q0 -37 -22 -87h-39q18 47 18 78q0 27 -11 56z" />
    <glyph glyph-name="circumflex" unicode="&#x2c6;" horiz-adv-x="456" 
d="M122 750l80 111h52l80 -111h-49l-56 80h-2l-56 -80h-49z" />
    <glyph glyph-name="caron" unicode="&#x2c7;" horiz-adv-x="461" 
d="M202 750l-80 111h49l56 -80h2l56 80h49l-80 -111h-52z" />
    <glyph glyph-name="breve" unicode="&#x2d8;" horiz-adv-x="471" 
d="M223 747q-41 0 -71 25.5t-30 72.5v16h40v-14q0 -31 17 -46.5t44 -15.5q26 0 43.5 15.5t17.5 47.5v13h40v-16q0 -47 -30 -72.5t-71 -25.5z" />
    <glyph glyph-name="dotaccent" unicode="&#x2d9;" horiz-adv-x="193" 
d="M73 788v73h46v-73h-46z" />
    <glyph glyph-name="ring" unicode="&#x2da;" horiz-adv-x="372" 
d="M186 740q-28 0 -47.5 19t-19.5 48t19.5 48t47.5 19t47.5 -19t19.5 -48t-19.5 -48t-47.5 -19zM186 775q14 0 23 9t9 23q0 15 -9 24t-23 9t-23 -9t-9 -24q0 -14 9 -23t23 -9z" />
    <glyph glyph-name="ogonek" unicode="&#x2db;" horiz-adv-x="327" 
d="M102 -113q0 22 10 44t24 37.5t28 27.5t24 18l10 6l39 -13q-10 -7 -25 -18t-40 -41.5t-25 -56.5q0 -22 17 -36t34 -17l17 -3l-9 -39q-4 0 -11 1t-25 6.5t-32 14.5t-25 27t-11 42z" />
    <glyph glyph-name="tilde" unicode="&#x2dc;" horiz-adv-x="467" 
d="M86 753q0 108 83 108q23 0 41.5 -11.5t29 -25.5t25.5 -25.5t30 -11.5q40 0 40 71h40q0 -108 -83 -108q-23 0 -41.5 11.5t-29 25.5t-25.5 25.5t-30 11.5q-40 0 -40 -71h-40z" />
    <glyph glyph-name="hungarumlaut" unicode="&#x2dd;" horiz-adv-x="498" 
d="M226 750l67 111h56l-79 -111h-44zM110 750l63 111h49l-64 -111h-48z" />
    <glyph glyph-name="uni0400" unicode="&#x400;" horiz-adv-x="550" 
d="M106 58v602h-65v40h390q31 0 44.5 -13.5t13.5 -44.5v-53h-42v49q0 22 -22 22h-276v-287h279v-40h-279v-271q0 -22 22 -22h284q22 0 22 22v49h42v-53q0 -31 -13.5 -44.5t-44.5 -13.5h-297q-31 0 -44.5 13.5t-13.5 44.5zM287 750l-79 111h56l67 -111h-44z" />
    <glyph glyph-name="uni0401" unicode="&#x401;" horiz-adv-x="550" 
d="M106 58v602h-65v40h390q31 0 44.5 -13.5t13.5 -44.5v-53h-42v49q0 22 -22 22h-276v-287h279v-40h-279v-271q0 -22 22 -22h284q22 0 22 22v49h42v-53q0 -31 -13.5 -44.5t-44.5 -13.5h-297q-31 0 -44.5 13.5t-13.5 44.5zM348 788v73h46v-73h-46zM211 788v73h46v-73h-46z
" />
    <glyph glyph-name="uni0402" unicode="&#x402;" horiz-adv-x="713" 
d="M234 0v660h-154q-22 0 -22 -22v-49h-42v57q0 31 11.5 42.5t42.5 11.5h448v-40h-241v-259l-1 -30h2q96 46 188 46q107 0 164 -57t57 -151q0 -113 -63.5 -167t-154.5 -54l-47 2v39q28 -2 44 -2q75 0 126.5 43t51.5 139q0 76 -44 121.5t-134 45.5q-47 0 -94 -13t-71 -25
l-24 -13v-325h-43z" />
    <glyph glyph-name="uni0403" unicode="&#x403;" horiz-adv-x="482" 
d="M106 0v660h-65v40h370q31 0 44.5 -13.5t13.5 -44.5v-53h-42v49q0 22 -22 22h-256v-660h-43zM248 750l67 111h56l-79 -111h-44z" />
    <glyph glyph-name="uni0404" unicode="&#x404;" horiz-adv-x="688" 
d="M88 331q8 -129 92.5 -215t207.5 -86q42 0 82 10.5t67 25t47.5 29t30.5 25.5l10 10l27 -31q-4 -5 -11.5 -12t-32.5 -26.5t-53.5 -34t-73.5 -26.5t-93 -12q-149 0 -247.5 106.5t-98.5 260.5q0 152 98 254.5t244 102.5q56 0 113.5 -14.5t102 -48.5t44.5 -81v-50h-43v40
q0 50 -70 81t-146 31q-123 0 -208 -85t-90 -214h422v-40h-421z" />
    <glyph glyph-name="uni0405" unicode="&#x405;" horiz-adv-x="497" 
d="M34 83l29 33q3 -3 8.5 -9t24 -21t38.5 -26t52 -20.5t64 -9.5q66 0 111 40.5t45 102.5q0 54 -36.5 91.5t-88 61t-103.5 47.5t-88.5 66t-36.5 102q0 70 56.5 120.5t148.5 50.5q26 0 54.5 -5.5t58.5 -17.5t49 -35t19 -54v-44h-43v34q0 34 -40.5 57t-96.5 23
q-74 0 -117.5 -37.5t-43.5 -90.5q0 -50 36.5 -85t88 -57t103.5 -47t88.5 -69.5t36.5 -108.5q0 -78 -56 -132.5t-147 -54.5q-39 0 -75 10t-60 23.5t-43 27.5t-28 24z" />
    <glyph glyph-name="uni0406" unicode="&#x406;" horiz-adv-x="255" 
d="M42 0v40h64v620h-64v40h171v-40h-64v-620h64v-40h-171z" />
    <glyph glyph-name="uni0407" unicode="&#x407;" horiz-adv-x="255" 
d="M173 788v73h46v-73h-46zM36 788v73h46v-73h-46zM42 0v40h64v620h-64v40h171v-40h-64v-620h64v-40h-171z" />
    <glyph glyph-name="uni0408" unicode="&#x408;" horiz-adv-x="481" 
d="M23 191v22h43v-22q0 -84 42 -122.5t102 -38.5t102 38.5t42 122.5v447q0 22 -22 22h-175v40h182q31 0 44.5 -13.5t13.5 -44.5v-451q0 -104 -54.5 -153.5t-132.5 -49.5t-132.5 49.5t-54.5 153.5z" />
    <glyph glyph-name="uni0409" unicode="&#x409;" horiz-adv-x="897" 
d="M10 -8v42q52 7 87.5 49t53.5 119.5t25 167.5t7 216v74h-66v40h336q31 0 44.5 -13.5t13.5 -44.5v-250h150q96 0 153.5 -50.5t57.5 -141.5q0 -92 -58 -146t-153 -54h-135q-31 0 -44.5 13.5t-13.5 44.5v580q0 22 -22 22h-221v-74q0 -90 -3 -157.5t-10.5 -137.5t-23 -119
t-38.5 -90t-58 -63t-82 -27zM511 62q0 -22 22 -22h126q79 0 123.5 42t44.5 118q0 75 -44 113.5t-124 38.5h-148v-290z" />
    <glyph glyph-name="uni040A" unicode="&#x40a;" horiz-adv-x="974" 
d="M106 0v638q0 22 -22 22h-43v40h50q31 0 44.5 -13.5t13.5 -44.5v-252h394v310h43v-310h155q94 0 151 -49.5t57 -138.5q0 -94 -57.5 -148t-150.5 -54h-140q-31 0 -44.5 13.5t-13.5 44.5v292h-394v-350h-43zM586 62q0 -22 22 -22h131q77 0 121 42t44 120q0 72 -43.5 110
t-121.5 38h-153v-288z" />
    <glyph glyph-name="uni040B" unicode="&#x40b;" horiz-adv-x="739" 
d="M234 0v660h-154q-22 0 -22 -22v-49h-42v57q0 31 11.5 42.5t42.5 11.5h448v-40h-241v-264l-2 -33h2q92 54 201 54q189 0 189 -193v-162q0 -22 22 -22h43v-40h-50q-31 0 -44.5 13.5t-13.5 44.5v159q0 80 -35 119.5t-111 39.5q-59 0 -114.5 -19.5t-86.5 -41.5v-315h-43z" />
    <glyph glyph-name="uni040C" unicode="&#x40c;" horiz-adv-x="566" 
d="M263 750l67 111h56l-79 -111h-44zM106 0v638q0 22 -22 22h-43v40h50q31 0 44.5 -13.5t13.5 -44.5v-254h99q44 0 60 25l182 287h52l-191 -296q-7 -11 -15 -19.5t-12 -11.5l-4 -3v-2q14 -5 29 -35l136 -270q7 -15 18 -19t33 -4h20v-40h-20q-45 0 -62 9t-34 44l-133 268
q-13 27 -65 27h-93v-348h-43z" />
    <glyph glyph-name="uni040D" unicode="&#x40d;" horiz-adv-x="748" 
d="M106 0v638q0 22 -22 22h-43v40h50q31 0 44.5 -13.5t13.5 -44.5v-491l-5 -88h2q38 59 61 91l395 546h40v-638q0 -22 22 -22h43v-40h-50q-31 0 -44.5 13.5t-13.5 44.5v491l5 88h-2q-35 -56 -58 -88l-398 -549h-40zM359 750l-79 111h56l67 -111h-44z" />
    <glyph glyph-name="uni040E" unicode="&#x40e;" horiz-adv-x="593" 
d="M99 27l23 34q38 -33 80 -33q37 0 57.5 25.5t41.5 82.5l-239 502q-10 22 -35 22h-17v40h18q32 0 47 -11.5t32 -46.5l175 -368l40 -90h2q12 35 32 90l135 368q13 37 28.5 47.5t53.5 10.5h10v-40h-9q-30 0 -38 -21l-208 -545q-40 -106 -126 -106q-27 0 -52.5 9.5t-37.5 19.5
zM296 734q-48 0 -83 29.5t-35 79.5v18h42v-15q0 -34 22 -53t54 -19q31 0 54 19.5t23 53.5v14h41v-18q0 -50 -35 -79.5t-83 -29.5z" />
    <glyph glyph-name="uni040F" unicode="&#x40f;" horiz-adv-x="715" 
d="M106 58v580q0 22 -22 22h-43v40h50q31 0 44.5 -13.5t13.5 -44.5v-580q0 -22 22 -22h373q22 0 22 22v580q0 31 13.5 44.5t44.5 13.5h50v-40h-43q-22 0 -22 -22v-580q0 -31 -13.5 -44.5t-44.5 -13.5h-172v-140h-43v140h-172q-31 0 -44.5 13.5t-13.5 44.5z" />
    <glyph glyph-name="uni0410" unicode="&#x410;" horiz-adv-x="647" 
d="M12 0v40h11q30 0 38 22l239 638h47l239 -638q8 -22 38 -22h11v-40h-12q-38 0 -53.5 11t-28.5 47l-69 184h-297l-69 -184q-13 -36 -28.5 -47t-53.5 -11h-12zM190 282h268l-107 284l-27 84h-2q-15 -54 -26 -84z" />
    <glyph glyph-name="uni0411" unicode="&#x411;" horiz-adv-x="564" 
d="M106 58v602h-65v40h382q31 0 44.5 -13.5t13.5 -44.5v-53h-42v49q0 22 -22 22h-268v-260h167q93 0 153 -54t60 -145t-60 -146t-153 -55h-152q-31 0 -44.5 13.5t-13.5 44.5zM149 62q0 -22 21 -22h144q78 0 124 42.5t46 118.5q0 75 -46 117t-124 42h-165v-298z" />
    <glyph glyph-name="uni0412" unicode="&#x412;" horiz-adv-x="589" 
d="M106 58v602h-65v40h295q78 0 127.5 -48t49.5 -127q0 -109 -91 -153v-2q53 -15 86 -63t33 -114q0 -87 -55 -140t-140 -53h-182q-31 0 -44.5 13.5t-13.5 44.5zM149 388h186q59 0 96 37.5t37 99.5t-36.5 98.5t-97.5 36.5h-185v-272zM149 62q0 -22 22 -22h171q71 0 112.5 41
t41.5 112q0 70 -43.5 112.5t-111.5 42.5h-192v-286z" />
    <glyph glyph-name="uni0413" unicode="&#x413;" horiz-adv-x="482" 
d="M106 0v660h-65v40h370q31 0 44.5 -13.5t13.5 -44.5v-53h-42v49q0 22 -22 22h-256v-660h-43z" />
    <glyph glyph-name="uni0414" unicode="&#x414;" horiz-adv-x="688" 
d="M10 -18q0 31 13.5 44.5t44.5 13.5h21q41 52 67.5 117.5t38 141t15 135t3.5 137.5v89h-62v40h366q31 0 44.5 -13.5t13.5 -44.5v-602h29q31 0 44.5 -13.5t13.5 -44.5v-122h-42v118q0 22 -22 22h-525q-20 0 -20 -22v-118h-43v122zM138 40h394v598q0 22 -22 22h-255v-88
q0 -168 -24 -302.5t-93 -229.5z" />
    <glyph glyph-name="uni0415" unicode="&#x415;" horiz-adv-x="550" 
d="M106 58v602h-65v40h390q31 0 44.5 -13.5t13.5 -44.5v-53h-42v49q0 22 -22 22h-276v-287h279v-40h-279v-271q0 -22 22 -22h284q22 0 22 22v49h42v-53q0 -31 -13.5 -44.5t-44.5 -13.5h-297q-31 0 -44.5 13.5t-13.5 44.5z" />
    <glyph glyph-name="uni0416" unicode="&#x416;" horiz-adv-x="813" 
d="M11 0l210 332q7 11 16 19.5t15 11.5l5 3v2q-13 8 -29 36l-134 233q-9 14 -19.5 18.5t-32.5 4.5h-20v40h19q43 0 57.5 -9t34.5 -44l132 -227q19 -32 69 -32h51v312h43v-312h51q50 0 69 32l132 227q20 35 34.5 44t57.5 9h19v-40h-20q-22 0 -32.5 -4.5t-19.5 -18.5
l-134 -233q-7 -12 -14.5 -21t-10.5 -12l-4 -3v-2q20 -9 36 -34l210 -332h-52l-197 314q-22 34 -66 34h-59v-348h-43v348h-59q-44 0 -66 -34l-197 -314h-52z" />
    <glyph glyph-name="uni0417" unicode="&#x417;" horiz-adv-x="504" 
d="M24 74l29 34q29 -34 77 -56t99 -22q80 0 132.5 45t52.5 119q0 70 -47.5 110.5t-118.5 40.5h-89v40h71q65 0 112 40.5t47 104.5q0 61 -38.5 100.5t-116.5 39.5q-57 0 -98.5 -23t-41.5 -57v-34h-43v44q0 31 19 54t49 35t59 17.5t56 5.5q97 0 148.5 -49t51.5 -130
q0 -61 -31.5 -100.5t-77.5 -59.5v-2q61 -15 97.5 -61.5t36.5 -115.5q0 -92 -65.5 -149t-165.5 -57q-58 0 -114.5 23t-89.5 63z" />
    <glyph glyph-name="uni0418" unicode="&#x418;" horiz-adv-x="748" 
d="M106 0v638q0 22 -22 22h-43v40h50q31 0 44.5 -13.5t13.5 -44.5v-491l-5 -88h2q38 59 61 91l395 546h40v-638q0 -22 22 -22h43v-40h-50q-31 0 -44.5 13.5t-13.5 44.5v491l5 88h-2q-35 -56 -58 -88l-398 -549h-40z" />
    <glyph glyph-name="uni0419" unicode="&#x419;" horiz-adv-x="748" 
d="M361 735q-48 0 -83 29.5t-35 79.5v18h42v-15q0 -34 22 -53t54 -19q31 0 54 19.5t23 53.5v14h41v-18q0 -50 -35 -79.5t-83 -29.5zM106 0v638q0 22 -22 22h-43v40h50q31 0 44.5 -13.5t13.5 -44.5v-491l-5 -88h2q38 59 61 91l395 546h40v-638q0 -22 22 -22h43v-40h-50
q-31 0 -44.5 13.5t-13.5 44.5v491l5 88h-2q-35 -56 -58 -88l-398 -549h-40z" />
    <glyph glyph-name="uni041A" unicode="&#x41a;" horiz-adv-x="566" 
d="M106 0v638q0 22 -22 22h-43v40h50q31 0 44.5 -13.5t13.5 -44.5v-254h99q44 0 60 25l182 287h52l-191 -296q-7 -11 -15 -19.5t-12 -11.5l-4 -3v-2q14 -5 29 -35l136 -270q7 -15 18 -19t33 -4h20v-40h-20q-45 0 -62 9t-34 44l-133 268q-13 27 -65 27h-93v-348h-43z" />
    <glyph glyph-name="uni041B" unicode="&#x41b;" horiz-adv-x="652" 
d="M10 -3v42q52 7 87.5 48.5t54 118t25.5 166t7 214.5v74h-66v40h370q31 0 44.5 -13.5t13.5 -44.5v-580q0 -22 22 -22h43v-40h-50q-31 0 -44.5 13.5t-13.5 44.5v580q0 22 -22 22h-255v-74q0 -90 -3 -157.5t-11 -136.5t-23 -117.5t-38.5 -88.5t-58.5 -62t-82 -27z" />
    <glyph glyph-name="uni041C" unicode="&#x41c;" horiz-adv-x="833" 
d="M23 0v40h40q21 0 22 22l51 638h42l204 -440l34 -79h2q18 45 34 79l204 440h42l51 -638q1 -22 22 -22h40v-40h-47q-30 0 -43 13.5t-15 44.5l-38 476l-3 93h-2q-20 -59 -36 -93l-188 -399h-44l-187 399l-37 95h-2q0 -61 -3 -95l-38 -476q-2 -31 -15 -44.5t-43 -13.5h-47z
" />
    <glyph glyph-name="uni041D" unicode="&#x41d;" horiz-adv-x="742" 
d="M106 0v638q0 22 -22 22h-43v40h50q31 0 44.5 -13.5t13.5 -44.5v-271h444v271q0 31 13.5 44.5t44.5 13.5h50v-40h-43q-22 0 -22 -22v-638h-43v331h-444v-331h-43z" />
    <glyph glyph-name="uni041E" unicode="&#x41e;" horiz-adv-x="790" 
d="M41 355q0 150 103.5 253.5t250.5 103.5t250.5 -103.5t103.5 -253.5q0 -154 -103.5 -260.5t-250.5 -106.5t-250.5 106.5t-103.5 260.5zM86 355q0 -137 90 -231t219 -94t219 94t90 231q0 133 -90 224t-219 91t-219 -91t-90 -224z" />
    <glyph glyph-name="uni041F" unicode="&#x41f;" horiz-adv-x="731" 
d="M105 0v660h-64v40h526q31 0 44.5 -13.5t13.5 -44.5v-580q0 -22 22 -22h43v-40h-50q-31 0 -44.5 13.5t-13.5 44.5v580q0 22 -22 22h-412v-660h-43z" />
    <glyph glyph-name="uni0420" unicode="&#x420;" horiz-adv-x="562" 
d="M106 0v660h-65v40h285q93 0 153 -55.5t60 -148.5q0 -94 -60 -150t-153 -56h-177v-290h-43zM149 330h175q78 0 124 44t46 122t-46 121t-124 43h-175v-330z" />
    <glyph glyph-name="uni0421" unicode="&#x421;" horiz-adv-x="689" 
d="M42 355q0 152 98 254.5t244 102.5q56 0 113.5 -14.5t102 -48.5t44.5 -81v-50h-43v40q0 50 -70 81t-146 31q-127 0 -212.5 -90t-85.5 -225q0 -137 86 -231t215 -94q42 0 82 10.5t67 25t47.5 29t30.5 25.5l10 10l27 -31q-4 -5 -11.5 -12t-32.5 -26.5t-53.5 -34t-73.5 -26.5
t-93 -12q-149 0 -247.5 106.5t-98.5 260.5z" />
    <glyph glyph-name="uni0422" unicode="&#x422;" horiz-adv-x="603" 
d="M280 0v660h-202q-22 0 -22 -22v-49h-42v57q0 31 11.5 42.5t42.5 11.5h467q31 0 42.5 -11.5t11.5 -42.5v-57h-42v49q0 22 -22 22h-202v-660h-43z" />
    <glyph glyph-name="uni0423" unicode="&#x423;" horiz-adv-x="593" 
d="M99 27l23 34q38 -33 80 -33q37 0 57.5 25.5t41.5 82.5l-239 502q-10 22 -35 22h-17v40h18q32 0 47 -11.5t32 -46.5l175 -368l40 -90h2q12 35 32 90l135 368q13 37 28.5 47.5t53.5 10.5h10v-40h-9q-30 0 -38 -21l-208 -545q-40 -106 -126 -106q-27 0 -52.5 9.5t-37.5 19.5
z" />
    <glyph glyph-name="uni0424" unicode="&#x424;" horiz-adv-x="791" 
d="M40 371q0 136 91.5 214t242.5 78v87h43v-87q151 0 242.5 -78.5t91.5 -213.5q0 -136 -91.5 -214t-242.5 -78v-91h-43v91q-151 0 -242.5 78t-91.5 214zM417 117q135 0 212 66.5t77 187.5t-77 187.5t-212 66.5v-508zM85 371q0 -121 77 -187.5t212 -66.5v508
q-135 0 -212 -66.5t-77 -187.5z" />
    <glyph glyph-name="uni0425" unicode="&#x425;" horiz-adv-x="551" 
d="M19 0l226 370l-160 263q-17 27 -54 27h-17v40h17q39 0 58.5 -11t41.5 -47l99 -165l46 -78h2q21 44 42 78l100 165q22 36 41.5 47t58.5 11h17v-40h-17q-37 0 -54 -27l-161 -263l227 -370h-51l-162 266l-45 75h-2q-21 -41 -42 -76l-160 -265h-51z" />
    <glyph glyph-name="uni0426" unicode="&#x426;" horiz-adv-x="719" 
d="M106 58v580q0 22 -22 22h-43v40h50q31 0 44.5 -13.5t13.5 -44.5v-580q0 -22 22 -22h395v660h43v-660h20q31 0 44.5 -13.5t13.5 -44.5v-122h-42v118q0 22 -22 22h-459q-31 0 -44.5 13.5t-13.5 44.5z" />
    <glyph glyph-name="uni0427" unicode="&#x427;" horiz-adv-x="608" 
d="M287 283q-206 0 -206 193v162q0 22 -22 22h-43v40h50q31 0 44.5 -13.5t13.5 -44.5v-159q0 -80 38.5 -119.5t124.5 -39.5q51 0 102 18.5t82 40.5v317h43v-700h-43v305l2 33h-2q-94 -55 -184 -55z" />
    <glyph glyph-name="uni0428" unicode="&#x428;" horiz-adv-x="982" 
d="M106 58v580q0 22 -22 22h-43v40h50q31 0 44.5 -13.5t13.5 -44.5v-580q0 -22 22 -22h298v660h43v-660h299q22 0 22 22v580q0 31 13.5 44.5t44.5 13.5h50v-40h-43q-22 0 -22 -22v-580q0 -31 -13.5 -44.5t-44.5 -13.5h-654q-31 0 -44.5 13.5t-13.5 44.5z" />
    <glyph glyph-name="uni0429" unicode="&#x429;" horiz-adv-x="988" 
d="M106 58v580q0 22 -22 22h-43v40h50q31 0 44.5 -13.5t13.5 -44.5v-580q0 -22 22 -22h298v660h43v-660h320v660h43v-660h27q31 0 44.5 -13.5t13.5 -44.5v-122h-42v118q0 22 -22 22h-732q-31 0 -44.5 13.5t-13.5 44.5z" />
    <glyph glyph-name="uni042A" unicode="&#x42a;" horiz-adv-x="692" 
d="M250 58v602h-171q-22 0 -22 -22v-49h-42v57q0 31 11.5 42.5t42.5 11.5h289v-40h-65v-258h160q96 0 154.5 -53t58.5 -147t-59 -148t-154 -54h-145q-31 0 -44.5 13.5t-13.5 44.5zM293 62q0 -22 22 -22h136q80 0 125 42t45 120t-45 119t-125 41h-158v-300z" />
    <glyph glyph-name="uni042B" unicode="&#x42b;" horiz-adv-x="784" 
d="M635 58v642h43v-638q0 -22 22 -22h43v-40h-50q-31 0 -44.5 13.5t-13.5 44.5zM106 58v580q0 22 -22 22h-43v40h50q31 0 44.5 -13.5t13.5 -44.5v-240h160q95 0 153.5 -54t58.5 -146q0 -94 -58.5 -148t-153.5 -54h-145q-31 0 -44.5 13.5t-13.5 44.5zM149 62q0 -22 22 -22
h136q80 0 124.5 42t44.5 120q0 76 -45 118t-124 42h-158v-300z" />
    <glyph glyph-name="uni042C" unicode="&#x42c;" horiz-adv-x="546" 
d="M106 58v580q0 22 -22 22h-43v40h50q31 0 44.5 -13.5t13.5 -44.5v-240h159q96 0 154.5 -53t58.5 -147t-59 -148t-154 -54h-144q-31 0 -44.5 13.5t-13.5 44.5zM149 62q0 -22 22 -22h135q80 0 125 42t45 120t-45 119t-125 41h-157v-300z" />
    <glyph glyph-name="uni042D" unicode="&#x42d;" horiz-adv-x="689" 
d="M37 94l27 30q37 -41 103 -67.5t135 -26.5q122 0 206.5 86t92.5 215h-421v40h422q-6 130 -91.5 214.5t-209.5 84.5q-47 0 -95.5 -12.5t-84.5 -39t-36 -60.5v-40h-43v50q0 47 44.5 81t102 48.5t113.5 14.5q148 0 246.5 -102t98.5 -255q0 -154 -98.5 -260.5t-246.5 -106.5
q-73 0 -144.5 27.5t-120.5 78.5z" />
    <glyph glyph-name="uni042E" unicode="&#x42e;" horiz-adv-x="1016" 
d="M106 0v638q0 22 -22 22h-43v40h50q31 0 44.5 -13.5t13.5 -44.5v-271h138q6 144 106 242.5t238 98.5q143 0 243.5 -103.5t100.5 -253.5q0 -154 -101 -260.5t-243 -106.5q-137 0 -236 98.5t-107 244.5h-139v-331h-43zM332 355q0 -137 87.5 -231t211.5 -94t211.5 94
t87.5 231q0 133 -87.5 224t-211.5 91t-211.5 -91t-87.5 -224z" />
    <glyph glyph-name="uni042F" unicode="&#x42f;" horiz-adv-x="597" 
d="M18 0v40h14q22 0 33.5 4.5t19.5 18.5l127 214q5 8 10.5 15t8.5 10l3 2v2q-15 1 -38.5 10.5t-53 30t-49.5 60.5t-20 93q0 91 59 145.5t153 54.5h271v-40h-65v-660h-43v298h-129q-30 0 -43 -8t-30 -38l-118 -198q-20 -35 -36.5 -44.5t-59.5 -9.5h-14zM284 338h164v322h-163
q-77 0 -122 -42.5t-45 -117.5q0 -74 47.5 -118t118.5 -44z" />
    <glyph glyph-name="uni0430" unicode="&#x430;" horiz-adv-x="500" 
d="M34 133q0 35 13 63t32 45.5t49.5 30.5t55.5 19t60 9.5t54 4t46 0.5h33v7q0 89 -33 125t-112 36q-35 0 -73 -11t-38 -38v-34h-42v46q0 27 31.5 45.5t64 24.5t58.5 6q106 0 146 -49.5t40 -139.5v-263q0 -22 22 -22h43v-38h-49q-31 0 -44.5 14t-13.5 47l2 45h-2
q1 0 -4.5 -12t-18.5 -29.5t-32 -35t-50.5 -29.5t-67.5 -12q-68 0 -119 37.5t-51 107.5zM78 136q0 -43 34 -76t94 -33q77 0 124 65.5t47 146.5v27h-32q-31 0 -50.5 -0.5t-56 -4t-60 -12t-49 -22t-38.5 -37t-13 -54.5z" />
    <glyph glyph-name="uni0431" unicode="&#x431;" horiz-adv-x="547" 
d="M282 -12q-114 0 -170 80t-56 211q0 63 5 105t20 86.5t48 77t84 54.5l133 59q37 16 48 26.5t11 30.5v32h42v-31q0 -37 -17 -55t-62 -38l-139 -62q-42 -19 -70 -45.5t-41 -60.5t-17.5 -61.5t-6.5 -66.5h1q58 122 197 122q92 0 151 -62t59 -169q0 -103 -61.5 -168
t-158.5 -65zM106 223q0 -90 50.5 -142.5t125.5 -52.5t125.5 52t50.5 140t-49.5 140t-121.5 52q-80 0 -130.5 -54.5t-50.5 -134.5z" />
    <glyph glyph-name="uni0432" unicode="&#x432;" horiz-adv-x="477" 
d="M88 57v405h-65v38h222q77 0 120.5 -32.5t43.5 -94.5q0 -82 -80 -110v-2q49 -9 78 -43t29 -80q0 -62 -47 -100t-131 -38h-113q-31 0 -44 13.5t-13 43.5zM130 278h117q117 0 117 95q0 89 -121 89h-113v-184zM130 61q0 -22 21 -22h103q138 0 138 99q0 49 -36 75t-103 26
h-123v-178z" />
    <glyph glyph-name="uni0433" unicode="&#x433;" horiz-adv-x="412" 
d="M90 0v462h-65v38h311q31 0 44.5 -12t13.5 -42v-50h-38v44q0 22 -22 22h-202v-462h-42z" />
    <glyph glyph-name="uni0434" unicode="&#x434;" horiz-adv-x="550" 
d="M10 -17q0 29 13.5 42t44.5 13h7q104 122 104 391v33h-65v38h283q31 0 44.5 -13.5t13.5 -44.5v-404h22q31 0 44.5 -13t13.5 -42v-103h-42v98q0 22 -22 22h-397q-22 0 -22 -22v-98h-42v103zM126 38h287v402q0 22 -22 22h-170v-33q0 -264 -95 -391z" />
    <glyph glyph-name="uni0435" unicode="&#x435;" horiz-adv-x="527" 
d="M41 249q0 122 71 192.5t172 70.5q97 0 150.5 -65.5t53.5 -162.5q0 -9 -2 -27h-401q0 -105 61.5 -166.5t152.5 -61.5q92 0 155 63l23 -35q-33 -31 -81.5 -50t-96.5 -19q-109 0 -183.5 72.5t-74.5 188.5zM88 296h356q-4 87 -49 132t-112 45q-73 0 -127.5 -46.5
t-67.5 -130.5z" />
    <glyph glyph-name="uni0436" unicode="&#x436;" horiz-adv-x="684" 
d="M20 0l133 212q12 18 26 29t23 13l8 1v2q-26 8 -41 38l-72 144q-7 14 -17.5 18.5t-32.5 4.5h-17v38h17q41 0 58.5 -9.5t34.5 -43.5l66 -134q20 -39 70 -39h46v226h42v-226h44q50 0 70 39l66 134q17 34 34.5 43.5t58.5 9.5h17v-38h-17q-22 0 -32.5 -4.5t-17.5 -18.5
l-72 -144q-7 -13 -17 -22.5t-17 -12.5l-7 -3v-2q31 -2 57 -43l134 -212h-52l-116 187q-18 29 -39.5 38.5t-52.5 9.5h-41v-235h-42v235h-43q-31 0 -52.5 -9.5t-39.5 -38.5l-115 -187h-52z" />
    <glyph glyph-name="uni0437" unicode="&#x437;" horiz-adv-x="416" 
d="M28 60l27 32q56 -63 138 -63q55 0 95.5 28t40.5 82q0 49 -36 75t-103 26h-60v39h54q60 0 93 24.5t33 71.5q0 48 -32 72t-84 24q-39 0 -71 -15t-32 -43v-24h-42v38q0 41 45 63t104 22q70 0 113.5 -34t43.5 -99q0 -86 -81 -115v-2q46 -10 72.5 -41t26.5 -81q0 -72 -53 -112
t-127 -40q-95 0 -165 72z" />
    <glyph glyph-name="uni0438" unicode="&#x438;" horiz-adv-x="590" 
d="M89 0v440q0 22 -21 22h-42v38h48q30 0 43.5 -13t13.5 -43v-300l-5 -85h2q38 55 61 85l273 356h39v-440q0 -22 21 -22h42v-38h-48q-30 0 -43.5 13.5t-13.5 43.5v300l5 85h-2q-37 -55 -60 -85l-274 -357h-39z" />
    <glyph glyph-name="uni0439" unicode="&#x439;" horiz-adv-x="590" 
d="M293 574q-48 0 -83 29.5t-35 79.5v18h42v-15q0 -34 22 -53t54 -19q31 0 54 19.5t23 53.5v14h41v-18q0 -50 -35 -79.5t-83 -29.5zM89 0v440q0 22 -21 22h-42v38h48q30 0 43.5 -13t13.5 -43v-300l-5 -85h2q38 55 61 85l273 356h39v-440q0 -22 21 -22h42v-38h-48
q-30 0 -43.5 13.5t-13.5 43.5v300l5 85h-2q-37 -55 -60 -85l-274 -357h-39z" />
    <glyph glyph-name="uni043A" unicode="&#x43a;" horiz-adv-x="477" 
d="M90 0v440q0 22 -22 22h-43v38h49q31 0 44.5 -13.5t13.5 -44.5v-155h58q41 0 61 27l143 186h53l-151 -196q-11 -14 -20.5 -22.5t-13.5 -9.5l-4 -2v-2q13 -7 30 -35l105 -172q8 -14 17.5 -18.5t30.5 -4.5h24v-38h-26q-40 0 -56 9.5t-35 43.5l-106 173q-15 23 -56 23h-54
v-249h-42z" />
    <glyph glyph-name="uni043B" unicode="&#x43b;" horiz-adv-x="501" 
d="M10 -4v39q35 0 61.5 31t41.5 75.5t24 101.5t12 100t3 80v39h-65v38h267q31 0 44.5 -13.5t13.5 -44.5v-382q0 -22 22 -22h43v-38h-49q-31 0 -44.5 13.5t-13.5 44.5v382q0 22 -22 22h-154v-39q0 -24 -1 -49.5t-5 -70t-11 -83t-21 -81.5t-33 -73t-48 -50t-65 -20z" />
    <glyph glyph-name="uni043C" unicode="&#x43c;" horiz-adv-x="699" 
d="M19 0v38h32q19 0 21 21l35 441h40l170 -337l32 -65h2q16 32 32 65l169 337h40l35 -441q1 -21 21 -21h32v-38h-38q-31 0 -41.5 13.5t-13.5 42.5l-24 287l-2 88h-2q-9 -29 -31 -74l-155 -302h-46l-156 302q-9 18 -16.5 37t-10.5 29l-4 10h-2q0 -66 -2 -90l-24 -287
q-3 -29 -13.5 -42.5t-41.5 -13.5h-38z" />
    <glyph glyph-name="uni043D" unicode="&#x43d;" horiz-adv-x="591" 
d="M90 0v440q0 22 -22 22h-43v38h49q31 0 44.5 -13.5t13.5 -44.5v-165h327v223h42v-440q0 -22 22 -22h43v-38h-49q-31 0 -44.5 13.5t-13.5 44.5v180h-327v-238h-42z" />
    <glyph glyph-name="uni043E" unicode="&#x43e;" horiz-adv-x="598" 
d="M40 253q0 109 75.5 184t183.5 75t183.5 -75t75.5 -184q0 -111 -75.5 -188t-183.5 -77t-183.5 77t-75.5 188zM84 253q0 -95 62.5 -159.5t152.5 -64.5t152.5 64.5t62.5 159.5q0 92 -62.5 155t-152.5 63t-152.5 -63t-62.5 -155z" />
    <glyph glyph-name="uni043F" unicode="&#x43f;" horiz-adv-x="575" 
d="M90 0v462h-65v38h403q31 0 44.5 -13.5t13.5 -44.5v-382q0 -22 22 -22h43v-38h-49q-31 0 -44.5 13.5t-13.5 44.5v382q0 22 -22 22h-290v-462h-42z" />
    <glyph glyph-name="uni0440" unicode="&#x440;" horiz-adv-x="569" 
d="M90 -200v640q0 22 -22 22h-43v38h49q31 0 44.5 -13t13.5 -42l-1 -40h2q2 4 5.5 11.5t17.5 26t32 32.5t51 25.5t72 11.5q99 0 157.5 -72t58.5 -190t-62 -190t-160 -72q-37 0 -68.5 11t-50 27t-31.5 32t-18 27l-5 11h-2q2 -18 2 -44v-252h-42zM131 249q0 -90 46.5 -155.5
t127.5 -65.5q76 0 127 60t51 162q0 100 -48.5 160.5t-125.5 60.5q-76 0 -127 -55.5t-51 -166.5z" />
    <glyph glyph-name="uni0441" unicode="&#x441;" horiz-adv-x="519" 
d="M40 249q0 116 75.5 189.5t182.5 73.5q23 0 50.5 -5t57 -16t49 -33t19.5 -50v-38h-42v29q0 33 -45 52.5t-89 19.5q-90 0 -152 -61.5t-62 -160.5q0 -98 62 -159t152 -61q49 0 90.5 18t59.5 36l17 18l22 -35q-3 -3 -8 -8.5t-23 -19t-38 -23.5t-52.5 -18.5t-67.5 -8.5
q-109 0 -183.5 72.5t-74.5 188.5z" />
    <glyph glyph-name="uni0442" unicode="&#x442;" horiz-adv-x="498" 
d="M228 0v461h-150q-22 0 -22 -22v-43h-38v49q0 30 13.5 42.5t44.5 12.5h346q31 0 44.5 -12.5t13.5 -42.5v-49h-38v43q0 22 -22 22h-150v-461h-42z" />
    <glyph glyph-name="uni0443" unicode="&#x443;" horiz-adv-x="523" 
d="M106 -210q-29 0 -54 12t-36 24l-10 11l25 32q1 -3 10 -11.5t27.5 -18t37.5 -9.5q60 0 98 90l36 83l-181 435q-10 24 -38 24h-8v38h7q37 0 52 -10.5t30 -47.5l142 -341l17 -47h2q7 23 17 47l141 341q15 37 30 47.5t52 10.5h7v-38h-8q-28 0 -38 -24l-231 -555
q-39 -93 -127 -93z" />
    <glyph glyph-name="uni0444" unicode="&#x444;" horiz-adv-x="688" 
d="M41 253q0 110 76.5 178.5t205.5 68.5v140q0 22 -22 22h-43v38h49q31 0 44.5 -13.5t13.5 -44.5v-142q129 0 205.5 -68.5t76.5 -178.5q0 -112 -76.5 -182.5t-205.5 -70.5v-200h-42v200q-129 0 -205.5 70.5t-76.5 182.5zM365 40q111 0 174.5 58.5t63.5 154.5q0 93 -63.5 150
t-174.5 56v-419zM85 253q0 -96 63.5 -154.5t174.5 -58.5v419q-111 1 -174.5 -56t-63.5 -150z" />
    <glyph glyph-name="uni0445" unicode="&#x445;" horiz-adv-x="466" 
d="M24 0l180 264l-120 176q-16 22 -50 22h-14v38h14q41 0 57.5 -10t41.5 -48l82 -124l17 -29h2q9 16 17 29l82 124q25 38 41.5 48t57.5 10h14v-38h-14q-34 0 -50 -21l-120 -177l180 -264h-52l-138 207l-18 29h-2q-8 -14 -18 -29l-138 -207h-52z" />
    <glyph glyph-name="uni0446" unicode="&#x446;" horiz-adv-x="572" 
d="M89 57v383q0 22 -22 22h-43v38h49q31 0 44.5 -13.5t13.5 -44.5v-381q0 -22 21 -22h283v461h42v-462h22q31 0 44.5 -13t13.5 -42v-103h-42v98q0 22 -22 22h-347q-31 0 -44 13.5t-13 43.5z" />
    <glyph glyph-name="uni0447" unicode="&#x447;" horiz-adv-x="505" 
d="M244 190q-85 0 -122.5 40t-37.5 115v95q0 22 -22 22h-43v38h49q31 0 44.5 -13.5t13.5 -44.5v-97q0 -50 24.5 -82t93.5 -32q76 0 142 45v224h42v-500h-42v198l2 37h-2q-27 -20 -68.5 -32.5t-73.5 -12.5z" />
    <glyph glyph-name="uni0448" unicode="&#x448;" horiz-adv-x="784" 
d="M89 57v383q0 22 -22 22h-43v38h49q31 0 44.5 -13.5t13.5 -44.5v-381q0 -22 21 -22h219v461h42v-461h219q21 0 21 22v381q0 31 13.5 44.5t44.5 13.5h49v-38h-43q-22 0 -22 -22v-383q0 -30 -13 -43.5t-44 -13.5h-492q-31 0 -44 13.5t-13 43.5z" />
    <glyph glyph-name="uni0449" unicode="&#x449;" horiz-adv-x="791" 
d="M89 57v383q0 22 -22 22h-43v38h49q31 0 44.5 -13.5t13.5 -44.5v-381q0 -22 21 -22h219v461h42v-461h240v461h42v-462h30q31 0 44.5 -13t13.5 -42v-103h-42v98q0 22 -22 22h-573q-31 0 -44 13.5t-13 43.5z" />
    <glyph glyph-name="uni044A" unicode="&#x44a;" horiz-adv-x="540" 
d="M187 57v383q0 22 -22 22h-87q-22 0 -22 -22v-43h-38v49q0 30 13.5 42t44.5 12h95q31 0 44.5 -13.5t13.5 -44.5v-143h116q75 0 122 -40t47 -111q0 -64 -45.5 -106t-123.5 -42h-101q-31 0 -44 13.5t-13 43.5zM229 61q0 -23 21 -23h95q59 0 92 30t33 80q0 52 -32.5 82.5
t-92.5 30.5h-116v-200z" />
    <glyph glyph-name="uni044B" unicode="&#x44b;" horiz-adv-x="638" 
d="M506 58v442h42v-440q0 -22 22 -22h43v-38h-49q-31 0 -44.5 13.5t-13.5 44.5zM89 57v383q0 22 -22 22h-43v38h49q31 0 44.5 -13.5t13.5 -44.5v-144h116q75 0 120.5 -39.5t45.5 -110.5q0 -65 -44 -106.5t-122 -41.5h-101q-31 0 -44 13.5t-13 43.5zM131 61q0 -23 21 -23h95
q59 0 90.5 30t31.5 80q0 52 -31 82t-91 30h-116v-199z" />
    <glyph glyph-name="uni044C" unicode="&#x44c;" horiz-adv-x="441" 
d="M89 57v383q0 22 -22 22h-43v38h49q31 0 44.5 -13.5t13.5 -44.5v-144h120q73 0 118 -39.5t45 -110.5q0 -64 -43.5 -106t-119.5 -42h-105q-31 0 -44 13.5t-13 43.5zM131 61q0 -23 21 -23h99q57 0 88 30t31 80q0 52 -30.5 82t-88.5 30h-120v-199z" />
    <glyph glyph-name="uni044D" unicode="&#x44d;" horiz-adv-x="520" 
d="M33 66l22 35q62 -72 169 -72q84 0 144 55.5t67 145.5h-275v39h275q-7 87 -68.5 144.5t-136.5 57.5q-49 0 -97.5 -20t-48.5 -52v-29h-42v38q0 41 53.5 72.5t134.5 31.5q99 0 174.5 -74t75.5 -189q0 -116 -74.5 -188.5t-182.5 -72.5q-118 0 -190 78z" />
    <glyph glyph-name="uni044E" unicode="&#x44e;" horiz-adv-x="777" 
d="M90 0v440q0 22 -22 22h-43v38h49q31 0 44.5 -13.5t13.5 -44.5v-173h107q6 103 78 173t171 70q103 0 176 -75t73 -184q0 -111 -73 -188t-176 -77q-98 0 -169 69.5t-79 172.5h-108v-230h-42zM283 253q0 -95 60 -159.5t145 -64.5t145 64.5t60 159.5q0 92 -60 155t-145 63
t-145 -63t-60 -155z" />
    <glyph glyph-name="uni044F" unicode="&#x44f;" horiz-adv-x="490" 
d="M19 0v39h14q23 0 34 4.5t21 18.5l81 116q13 19 25 29v2q-57 8 -91 46t-34 97q0 67 46 107.5t118 40.5h232v-38h-65v-462h-42v202h-82q-29 0 -39.5 -6t-29.5 -34l-76 -110q-23 -33 -40 -42.5t-58 -9.5h-14zM241 240h117v222h-125q-57 0 -88.5 -30t-31.5 -80
q0 -51 35 -81.5t93 -30.5z" />
    <glyph glyph-name="uni0450" unicode="&#x450;" horiz-adv-x="527" 
d="M41 249q0 122 71 192.5t172 70.5q97 0 150.5 -65.5t53.5 -162.5l-2 -27h-401q0 -105 61.5 -166.5t152.5 -61.5q43 0 81.5 15.5t55.5 31.5l18 16l23 -35q-8 -8 -22.5 -19.5t-61 -30.5t-94.5 -19q-109 0 -183.5 72.5t-74.5 188.5zM88 296h356q-4 87 -49 132t-112 45
q-73 0 -127.5 -46.5t-67.5 -130.5zM274 589l-79 111h56l67 -111h-44z" />
    <glyph glyph-name="uni0451" unicode="&#x451;" horiz-adv-x="527" 
d="M41 249q0 122 71 192.5t172 70.5q97 0 150.5 -65.5t53.5 -162.5l-2 -27h-401q0 -105 61.5 -166.5t152.5 -61.5q43 0 81.5 15.5t55.5 31.5l18 16l23 -35q-8 -8 -22.5 -19.5t-61 -30.5t-94.5 -19q-109 0 -183.5 72.5t-74.5 188.5zM88 296h356q-4 87 -49 132t-112 45
q-73 0 -127.5 -46.5t-67.5 -130.5zM323 627v73h46v-73h-46zM186 627v73h46v-73h-46z" />
    <glyph glyph-name="uni0452" unicode="&#x452;" horiz-adv-x="566" 
d="M78 0v576h-66v38h66v86h42v-86h238v-38h-238v-211l-2 -41h2q8 22 20 42t33.5 43t57 37t79.5 14q94 0 139.5 -51.5t45.5 -143.5v-291q0 -58 -17 -98t-44.5 -57.5t-50.5 -23.5t-47 -6l-25 2v39q9 -2 22 -2q19 0 36.5 5t38 18.5t33 45t12.5 76.5v277q0 169 -143 169
q-68 0 -115.5 -43.5t-66.5 -115.5q-8 -28 -8 -68v-192h-42z" />
    <glyph glyph-name="uni0453" unicode="&#x453;" horiz-adv-x="412" 
d="M90 0v462h-65v38h311q31 0 44.5 -12t13.5 -42v-50h-38v44q0 22 -22 22h-202v-462h-42zM193 589l67 111h56l-79 -111h-44z" />
    <glyph glyph-name="uni0454" unicode="&#x454;" horiz-adv-x="518" 
d="M40 249q0 116 75.5 189.5t182.5 73.5q23 0 50.5 -5t57 -16t49 -33t19.5 -50v-38h-42v29q0 33 -45 52.5t-89 19.5q-85 0 -145.5 -54.5t-67.5 -142.5h275v-39h-276q7 -92 67.5 -149t146.5 -57q49 0 90.5 18t59.5 36l17 18l22 -35q-3 -3 -8 -8.5t-23 -19t-38 -23.5
t-52.5 -18.5t-67.5 -8.5q-109 0 -183.5 72.5t-74.5 188.5z" />
    <glyph glyph-name="uni0455" unicode="&#x455;" horiz-adv-x="420" 
d="M31 74l30 31q2 -3 6 -8t18.5 -18.5t31 -23.5t43.5 -18t56 -8q51 0 87 25t36 69q0 34 -29.5 59t-72 41t-85 34t-72 49.5t-29.5 75.5q0 63 47 96.5t124 33.5q19 0 41 -4.5t45.5 -13t39 -26.5t15.5 -41v-38h-42v24q0 28 -32 43t-65 15q-62 0 -95.5 -22t-33.5 -64
q0 -35 29.5 -60t72 -41t85 -33.5t72 -49.5t29.5 -78q0 -59 -48 -97t-120 -38q-35 0 -67 9t-52.5 21.5t-36 25t-21.5 21.5z" />
    <glyph glyph-name="uni0456" unicode="&#x456;" horiz-adv-x="218" 
d="M82 627v73h46v-73h-46zM88 58v382q0 22 -22 22h-43v38h49q31 0 44.5 -13.5t13.5 -44.5v-382q0 -22 22 -22h43v-38h-49q-31 0 -44.5 13.5t-13.5 44.5z" />
    <glyph glyph-name="uni0457" unicode="&#x457;" horiz-adv-x="218" 
d="M133 627v73h46v-73h-46zM21 627v73h46v-73h-46zM88 58v382q0 22 -22 22h-43v38h49q31 0 44.5 -13.5t13.5 -44.5v-382q0 -22 22 -22h43v-38h-49q-31 0 -44.5 13.5t-13.5 44.5z" />
    <glyph glyph-name="uni0458" unicode="&#x458;" horiz-adv-x="206" 
d="M84 627v73h46v-73h-46zM89 -21v461q0 22 -22 22h-43v38h49q31 0 44.5 -13.5t13.5 -44.5v-462q0 -58 -17 -98t-44.5 -57.5t-50.5 -23.5t-47 -6l-25 2v39q9 -2 22 -2q19 0 36.5 5t38 18.5t33 45t12.5 76.5z" />
    <glyph glyph-name="uni0459" unicode="&#x459;" horiz-adv-x="695" 
d="M10 -4v39q35 0 61.5 31t41.5 75.5t24 101.5t12 100t3 80v39h-65v38h235q31 0 44.5 -13.5t13.5 -44.5v-139h115q77 0 125.5 -39.5t48.5 -110.5q0 -66 -47 -109.5t-127 -43.5h-100q-31 0 -44 13.5t-13 43.5v383q0 22 -22 22h-122v-39q0 -24 -1 -49.5t-5 -70t-11 -83
t-21 -81.5t-33 -73t-48 -50t-65 -20zM380 61q0 -22 21 -22h94q61 0 95.5 31t34.5 83t-33.5 81.5t-96.5 29.5h-115v-203z" />
    <glyph glyph-name="uni045A" unicode="&#x45a;" horiz-adv-x="770" 
d="M90 0v440q0 22 -22 22h-43v38h49q31 0 44.5 -13.5t13.5 -44.5v-146h287v204h42v-203h109q78 0 126 -37.5t48 -106.5q0 -66 -47 -109.5t-127 -43.5h-94q-31 0 -44 13.5t-13 43.5v201h-287v-258h-42zM461 61q0 -22 21 -22h88q61 0 95.5 31t34.5 83q0 49 -33.5 77t-96.5 28
h-109v-197z" />
    <glyph glyph-name="uni045B" unicode="&#x45b;" horiz-adv-x="580" 
d="M78 0v576h-66v38h66v86h42v-86h238v-38h-238v-209l-2 -41h2q17 47 72 91.5t138 44.5q92 0 128.5 -49.5t36.5 -145.5v-207q0 -22 22 -22h43v-38h-49q-31 0 -44.5 13.5t-13.5 44.5v194q0 30 -2 51.5t-9 45t-20 38.5t-36.5 24.5t-55.5 9.5q-70 0 -126.5 -44.5t-75.5 -114.5
q-8 -28 -8 -68v-194h-42z" />
    <glyph glyph-name="uni045C" unicode="&#x45c;" horiz-adv-x="477" 
d="M90 0v440q0 22 -22 22h-43v38h49q31 0 44.5 -13.5t13.5 -44.5v-155h58q41 0 61 27l143 186h53l-151 -196q-11 -14 -20.5 -22.5t-13.5 -9.5l-4 -2v-2q13 -7 30 -35l105 -172q8 -14 17.5 -18.5t30.5 -4.5h24v-38h-26q-40 0 -56 9.5t-35 43.5l-106 173q-15 23 -56 23h-54
v-249h-42zM216 589l67 111h56l-79 -111h-44z" />
    <glyph glyph-name="uni045D" unicode="&#x45d;" horiz-adv-x="590" 
d="M301 589l-79 111h56l67 -111h-44zM89 0v440q0 22 -21 22h-42v38h48q30 0 43.5 -13t13.5 -43v-300l-5 -85h2q38 55 61 85l273 356h39v-440q0 -22 21 -22h42v-38h-48q-30 0 -43.5 13.5t-13.5 43.5v300l5 85h-2q-37 -55 -60 -85l-274 -357h-39z" />
    <glyph glyph-name="uni045E" unicode="&#x45e;" horiz-adv-x="523" 
d="M106 -210q-29 0 -54 12t-36 24l-10 11l25 32q1 -3 10 -11.5t27.5 -18t37.5 -9.5q60 0 98 90l36 83l-181 435q-10 24 -38 24h-8v38h7q37 0 52 -10.5t30 -47.5l142 -341l17 -47h2q7 23 17 47l141 341q15 37 30 47.5t52 10.5h7v-38h-8q-28 0 -38 -24l-231 -555
q-39 -93 -127 -93zM263 574q-48 0 -83 29.5t-35 79.5v18h42v-15q0 -34 22 -53t54 -19q31 0 54 19.5t23 53.5v14h41v-18q0 -50 -35 -79.5t-83 -29.5z" />
    <glyph glyph-name="uni045F" unicode="&#x45f;" horiz-adv-x="554" 
d="M89 57v383q0 22 -22 22h-43v38h49q31 0 44.5 -13.5t13.5 -44.5v-381q0 -22 21 -22h250q21 0 21 22v381q0 31 13.5 44.5t44.5 13.5h49v-38h-43q-22 0 -22 -22v-383q0 -30 -13 -43.5t-44 -13.5h-110v-120h-42v120h-110q-31 0 -44 13.5t-13 43.5z" />
    <glyph glyph-name="uni0462" unicode="&#x462;" horiz-adv-x="649" 
d="M201 58v483h-189v40h189v119h43v-119h204v-40h-204v-141h173q91 0 149.5 -50.5t58.5 -140.5q0 -95 -59.5 -152t-148.5 -57h-158q-31 0 -44.5 13.5t-13.5 44.5zM244 62q0 -22 22 -22h149q75 0 120 44.5t45 124.5q0 74 -45 112.5t-120 38.5h-171v-298z" />
    <glyph glyph-name="uni0463" unicode="&#x463;" horiz-adv-x="485" 
d="M130 57v405h-120v38h120v200h42v-200h169v-38h-169v-160h118q75 0 122 -39.5t47 -110.5q0 -65 -45.5 -108.5t-123.5 -43.5h-103q-31 0 -44 13.5t-13 43.5zM172 61q0 -23 21 -23h97q58 0 91.5 32t33.5 82q0 52 -32.5 82t-92.5 30h-118v-203z" />
    <glyph glyph-name="uni0472" unicode="&#x472;" horiz-adv-x="790" 
d="M41 355q0 151 102 254t252 103t252 -103t102 -254q0 -155 -102 -261t-252 -106t-252 106t-102 261zM395 29q127 0 214 87.5t94 218.5h-617q7 -131 94.5 -218.5t214.5 -87.5zM395 671q-127 0 -214 -84t-95 -212h617q-7 127 -94 211.5t-214 84.5z" />
    <glyph glyph-name="uni0473" unicode="&#x473;" horiz-adv-x="596" 
d="M39 253q0 109 75.5 184t183.5 75t183.5 -75t75.5 -184q0 -111 -75.5 -188t-183.5 -77t-183.5 77t-75.5 188zM298 29q84 0 145.5 58.5t68.5 145.5h-429q7 -88 68.5 -146t146.5 -58zM298 471q-85 0 -146.5 -57t-68.5 -142h429q-7 85 -68 142t-146 57z" />
    <glyph glyph-name="uni0474" unicode="&#x474;" horiz-adv-x="674" 
d="M283 0l-262 700h47l210 -566l27 -84h2q16 51 27 84l163 471q23 64 49.5 79.5t93.5 15.5h24v-41h-21q-53 0 -71 -11t-33 -55l-209 -593h-47z" />
    <glyph glyph-name="uni0475" unicode="&#x475;" horiz-adv-x="516" 
d="M216 0l-197 500h45l154 -392l17 -54h2q9 30 17 54l107 305q17 49 44 68t79 19h21v-41h-21q-37 0 -54 -11.5t-31 -49.5l-143 -398h-40z" />
    <glyph glyph-name="uni048A" unicode="&#x48a;" horiz-adv-x="757" 
d="M106 0v638q0 22 -22 22h-43v40h50q31 0 44.5 -13.5t13.5 -44.5v-491l-5 -88h2q38 59 61 91l395 546h40v-638q0 -22 22 -22h68v-33l-60 -147h-40l49 140h-24q-31 0 -44.5 13.5t-13.5 44.5v491l5 88h-2q-35 -56 -58 -88l-398 -549h-40zM376 734q-48 0 -83 29.5t-35 79.5v18
h42v-15q0 -34 22 -53t54 -19q31 0 54 19.5t23 53.5v14h41v-18q0 -50 -35 -79.5t-83 -29.5z" />
    <glyph glyph-name="uni048B" unicode="&#x48b;" horiz-adv-x="591" 
d="M89 0v440q0 22 -21 22h-42v38h48q30 0 43.5 -13t13.5 -43v-300l-5 -85h2q38 55 61 85l273 356h39v-440q0 -22 21 -22h47v-31l-51 -127h-38l41 120h-5q-30 0 -43.5 13.5t-13.5 43.5v300l5 85h-2q-37 -55 -60 -85l-274 -357h-39zM299 573q-48 0 -83 29.5t-35 79.5v18h42
v-15q0 -34 22 -53t54 -19q31 0 54 19.5t23 53.5v14h41v-18q0 -50 -35 -79.5t-83 -29.5z" />
    <glyph glyph-name="uni048C" unicode="&#x48c;" horiz-adv-x="630" 
d="M174 58v528h-160v40h160v124h43v-124h168v-40h-168v-174h170q97 0 158.5 -54t61.5 -149q0 -96 -59 -152.5t-154 -56.5h-162q-31 0 -44.5 13.5t-13.5 44.5zM217 62q0 -22 22 -22h153q79 0 124.5 44.5t45.5 124.5q0 79 -48 121t-129 42h-168v-310z" />
    <glyph glyph-name="uni048D" unicode="&#x48d;" horiz-adv-x="485" 
d="M131 57l-1 405h-120v38h120v200h42v-200h169v-38h-169l1 -160h117q75 0 122 -39.5t47 -110.5q0 -65 -45.5 -108.5t-123.5 -43.5h-102q-31 0 -44 13.5t-13 43.5zM173 61q0 -23 21 -23h96q58 0 91.5 32t33.5 82q0 52 -32.5 82t-92.5 30h-117v-203z" />
    <glyph glyph-name="uni048E" unicode="&#x48e;" horiz-adv-x="582" 
d="M106 0v660h-65v40h285q93 0 153 -55.5t60 -148.5q0 -104 -71 -160l65 -94l-32 -23l-67 96q-48 -25 -108 -25h-177v-290h-43zM343 448l32 23l69 -101q50 45 50 126q0 78 -46 121t-124 43h-175v-330h175q50 0 87 18z" />
    <glyph glyph-name="uni048F" unicode="&#x48f;" horiz-adv-x="583" 
d="M90 -200v640q0 22 -22 22h-43v38h49q31 0 44.5 -13t13.5 -42l-1 -40h2q2 4 5.5 11.5t17.5 26t32 32.5t51 25.5t72 11.5q99 0 157.5 -72t58.5 -190q0 -120 -64 -192l57 -68l-30 -26l-56 67q-54 -43 -129 -43q-37 0 -68.5 11t-50 27t-31.5 32t-18 27l-5 11h-2q2 -18 2 -44
v-252h-42zM335 150l30 26l70 -84q48 63 48 158q0 100 -48.5 160.5t-125.5 60.5q-76 0 -127 -55.5t-51 -166.5q0 -90 46.5 -155.5t127.5 -65.5q58 0 102 35z" />
    <glyph glyph-name="uni0490" unicode="&#x490;" horiz-adv-x="475" 
d="M106 0v660h-65v40h355q22 0 22 22v58h42v-62q0 -31 -13.5 -44.5t-44.5 -13.5h-253v-660h-43z" />
    <glyph glyph-name="uni0491" unicode="&#x491;" horiz-adv-x="376" 
d="M90 0v462h-64v38h276q22 0 22 22v48h40v-54q0 -30 -13.5 -42t-44.5 -12h-174v-462h-42z" />
    <glyph glyph-name="uni0492" unicode="&#x492;" horiz-adv-x="490" 
d="M110 0v328h-65v40h65v292h-65v40h370q31 0 44.5 -13.5t13.5 -44.5v-53h-42v49q0 22 -22 22h-256v-292h163v-40h-163v-328h-43z" />
    <glyph glyph-name="uni0493" unicode="&#x493;" horiz-adv-x="413" 
d="M26 231v38h64v193h-65v38h311q31 0 44.5 -12t13.5 -42v-50h-38v44q0 22 -22 22h-202v-193h134v-38h-134v-231h-42v231h-64z" />
    <glyph glyph-name="uni0494" unicode="&#x494;" horiz-adv-x="568" 
d="M106 0v660h-65v40h370q31 0 44.5 -13.5t13.5 -44.5v-53h-42v49q0 22 -22 22h-256v-282q23 13 68 26t84 13q37 0 65.5 -5t60.5 -22t53 -46t35 -81.5t14 -123.5q0 -160 -64 -234.5t-164 -74.5v39q36 0 66.5 12.5t58.5 40.5t44 83.5t16 133.5q0 131 -45.5 184.5t-139.5 53.5
q-74 0 -152 -39v-338h-43z" />
    <glyph glyph-name="uni0495" unicode="&#x495;" horiz-adv-x="471" 
d="M90 0v462h-64v38h310q31 0 44.5 -12t13.5 -42v-50h-38v44q0 22 -22 22h-202v-215q64 33 125 33q51 0 88 -19t55 -51t26 -66.5t8 -73.5q0 -180 -136 -275l-23 34q117 78 117 241q0 75 -31.5 122t-103.5 47q-68 0 -125 -35v-204h-42z" />
    <glyph glyph-name="uni0496" unicode="&#x496;" horiz-adv-x="844" 
d="M11 0l210 332q7 11 16 19.5t15 11.5l5 3v2q-13 8 -29 36l-134 233q-9 14 -19.5 18.5t-32.5 4.5h-20v40h19q43 0 57.5 -9t34.5 -44l132 -227q19 -32 69 -32h51v312h43v-312h51q50 0 69 32l132 227q20 35 34.5 44t57.5 9h19v-40h-20q-22 0 -32.5 -4.5t-19.5 -18.5
l-134 -233q-7 -12 -14.5 -21t-10.5 -12l-4 -3v-2q20 -9 36 -34l184 -292h23q31 0 44.5 -13.5t13.5 -44.5v-122h-42v118q0 20 -19 22h-46l-197 314q-22 34 -66 34h-59v-348h-43v348h-59q-44 0 -66 -34l-197 -314h-52z" />
    <glyph glyph-name="uni0497" unicode="&#x497;" horiz-adv-x="704" 
d="M20 0l133 212q12 18 26 29t23 13l8 1v2q-26 8 -41 38l-72 144q-7 14 -17.5 18.5t-32.5 4.5h-17v38h17q41 0 58.5 -9.5t34.5 -43.5l66 -134q20 -39 70 -39h46v226h42v-226h44q50 0 70 39l66 134q17 34 34.5 43.5t58.5 9.5h17v-38h-17q-22 0 -32.5 -4.5t-17.5 -18.5
l-72 -144q-7 -13 -17 -22.5t-17 -12.5l-7 -3v-2q31 -2 57 -43l110 -174h2q31 0 44.5 -13t13.5 -42v-103h-42v98q0 22 -19 22h-27l-116 187q-18 29 -39.5 38.5t-52.5 9.5h-41v-235h-42v235h-43q-31 0 -52.5 -9.5t-39.5 -38.5l-115 -187h-52z" />
    <glyph glyph-name="uni0498" unicode="&#x498;" horiz-adv-x="505" 
d="M24 74l29 34q29 -34 77 -56t99 -22q80 0 132.5 45t52.5 119q0 70 -47.5 110.5t-118.5 40.5h-89v40h71q65 0 112 40.5t47 104.5q0 61 -38.5 100.5t-116.5 39.5q-57 0 -98.5 -23t-41.5 -57v-34h-43v44q0 31 19 54t49 35t59 17.5t56 5.5q97 0 148.5 -49t51.5 -130
q0 -61 -31.5 -100.5t-77.5 -59.5v-2q61 -15 97.5 -61.5t36.5 -115.5q0 -86 -57.5 -141.5t-147.5 -63.5v-129h-42v129q-55 3 -106 25.5t-82 59.5z" />
    <glyph glyph-name="uni0499" unicode="&#x499;" horiz-adv-x="416" 
d="M28 60l27 32q56 -63 138 -63q55 0 95.5 28t40.5 82q0 49 -36 75t-103 26h-60v39h54q60 0 93 24.5t33 71.5q0 48 -32 72t-84 24q-39 0 -71 -15t-32 -43v-24h-42v38q0 41 45 63t104 22q70 0 113.5 -34t43.5 -99q0 -86 -81 -115v-2q46 -10 72.5 -41t26.5 -81
q0 -64 -42.5 -103t-106.5 -47v-110h-42v108q-91 5 -154 72z" />
    <glyph glyph-name="uni049A" unicode="&#x49a;" horiz-adv-x="568" 
d="M106 0v638q0 22 -22 22h-43v40h50q31 0 44.5 -13.5t13.5 -44.5v-254h99q44 0 60 25l182 287h52l-191 -296q-7 -11 -15 -19.5t-12 -11.5l-4 -3v-2q14 -5 29 -35l146 -293h20q31 0 44.5 -13.5t13.5 -44.5v-122h-42v118q0 22 -22 22h-45l-157 321q-13 27 -65 27h-93v-348
h-43z" />
    <glyph glyph-name="uni049B" unicode="&#x49b;" horiz-adv-x="472" 
d="M90 0v440q0 22 -22 22h-43v38h49q31 0 44.5 -13.5t13.5 -44.5v-155h58q41 0 61 27l143 186h53l-151 -196q-11 -14 -20.5 -22.5t-13.5 -9.5l-4 -2v-2q13 -7 30 -35l119 -195h13q48 0 48 -55v-103h-42v98q0 22 -16 22h-29l-139 226q-15 23 -56 23h-54v-249h-42z" />
    <glyph glyph-name="uni049C" unicode="&#x49c;" horiz-adv-x="616" 
d="M237 218v130h-88v-348h-43v638q0 22 -22 22h-43v40h50q31 0 44.5 -13.5t13.5 -44.5v-254h88v130h41v-130h20q44 0 60 25l182 287h52l-191 -296q-7 -11 -15 -19.5t-12 -11.5l-4 -3v-2q14 -5 29 -35l136 -270q7 -15 18 -19t33 -4h20v-40h-20q-45 0 -62 9t-34 44l-133 268
q-13 27 -65 27h-14v-130h-41z" />
    <glyph glyph-name="uni049D" unicode="&#x49d;" horiz-adv-x="512" 
d="M201 129v120h-69v-249h-42v440q0 22 -22 22h-43v38h49q31 0 44.5 -13.5t13.5 -44.5v-155h69v101h39v-101h1q40 0 60 27l134 186h52l-144 -196q-11 -14 -20 -22.5t-13 -9.5l-3 -2v-2q13 -7 30 -35l89 -172q8 -14 17.5 -18.5t30.5 -4.5h24v-38h-26q-40 0 -56 9.5t-35 43.5
l-90 173q-13 21 -51 23v-120h-39z" />
    <glyph glyph-name="uni049E" unicode="&#x49e;" horiz-adv-x="581" 
d="M15 533v40h106v127h43v-127h112v-40h-112v-145h99q44 0 60 25l182 287h52l-191 -296q-7 -11 -15 -19.5t-12 -11.5l-4 -3v-2q14 -5 29 -35l136 -270q7 -15 18 -19t33 -4h20v-40h-20q-45 0 -62 9t-34 44l-133 268q-13 27 -65 27h-93v-348h-43v533h-106z" />
    <glyph glyph-name="uni049F" unicode="&#x49f;" horiz-adv-x="471" 
d="M22 530v38h62v132h42v-132h137v-38h-137v-228h58q39 0 61 26l141 172h56l-152 -181q-12 -13 -21.5 -21.5t-12.5 -10.5l-4 -2v-2q14 -6 30 -35l105 -187q8 -14 17.5 -18.5t30.5 -4.5h24v-38h-26q-40 0 -56 9.5t-35 43.5l-106 189q-13 23 -56 23h-54v-265h-42v530h-62z" />
    <glyph glyph-name="uni04A0" unicode="&#x4a0;" horiz-adv-x="702" 
d="M249 0v660h-171q-22 0 -22 -22v-49h-42v57q0 31 11.5 42.5t42.5 11.5h289v-40h-65v-272h92q44 0 60 25l182 287h52l-191 -296q-7 -11 -15 -19.5t-12 -11.5l-4 -3v-2q14 -5 29 -35l136 -270q7 -15 18 -19t33 -4h20v-40h-20q-45 0 -62 9t-34 44l-133 268q-13 27 -65 27h-86
v-348h-43z" />
    <glyph glyph-name="uni04A1" unicode="&#x4a1;" horiz-adv-x="568" 
d="M188 0v440q0 22 -22 22h-88q-22 0 -22 -22v-43h-38v49q0 30 13.5 42t44.5 12h96q31 0 44.5 -13.5t13.5 -44.5v-155h51q40 0 60 27l142 186h56l-152 -196q-11 -14 -20.5 -22.5t-13.5 -9.5l-4 -2v-2q13 -7 30 -35l105 -172q8 -14 17.5 -18.5t30.5 -4.5h24v-38h-26
q-40 0 -56 9.5t-35 43.5l-106 173q-15 23 -56 23h-47v-249h-42z" />
    <glyph glyph-name="uni04A2" unicode="&#x4a2;" horiz-adv-x="758" 
d="M106 0v638q0 22 -22 22h-43v40h50q31 0 44.5 -13.5t13.5 -44.5v-271h444v271q0 31 13.5 44.5t44.5 13.5h50v-40h-43q-22 0 -22 -22v-598h28q31 0 44.5 -13.5t13.5 -44.5v-122h-42v118q0 22 -22 22h-65v331h-444v-331h-43z" />
    <glyph glyph-name="uni04A3" unicode="&#x4a3;" horiz-adv-x="592" 
d="M459 0v238h-327v-238h-42v440q0 22 -22 22h-43v38h49q31 0 44.5 -13.5t13.5 -44.5v-165h327v223h42v-462h19q30 0 43 -13t13 -42v-103h-42v98q0 22 -17 22h-58z" />
    <glyph glyph-name="uni04A4" unicode="&#x4a4;" horiz-adv-x="918" 
d="M106 0v638q0 22 -22 22h-43v40h50q31 0 44.5 -13.5t13.5 -44.5v-271h394v289h-65v40h373q31 0 42.5 -11.5t11.5 -42.5v-57h-42v49q0 22 -22 22h-255v-660h-43v331h-394v-331h-43z" />
    <glyph glyph-name="uni04A5" unicode="&#x4a5;" horiz-adv-x="721" 
d="M90 0v440q0 22 -22 22h-43v38h49q31 0 44.5 -13.5t13.5 -44.5v-170h287v190h-64v38h290q31 0 44.5 -12t13.5 -42v-50h-38v44q0 22 -22 22h-182v-462h-42v233h-287v-233h-42z" />
    <glyph glyph-name="uni04A6" unicode="&#x4a6;" horiz-adv-x="976" 
d="M107 0v660h-66v40h465q31 0 44.5 -13.5t13.5 -44.5v-254q23 13 67.5 26t83.5 13q37 0 65.5 -5t60.5 -23t53 -48t35 -84t14 -128q0 -160 -64 -234.5t-164 -74.5v39q36 0 66.5 12.5t58.5 40.5t44 83.5t16 133.5q0 136 -45.5 192t-139.5 56q-67 0 -151 -39v-348h-43v638
q0 22 -22 22h-349v-660h-43z" />
    <glyph glyph-name="uni04A7" unicode="&#x4a7;" horiz-adv-x="769" 
d="M88 0v462h-54v38h449v-38h-54v-195q64 33 125 33q44 0 77.5 -13.5t54 -35t33.5 -51t17.5 -58.5t4.5 -62q0 -186 -136 -285l-23 34q117 82 117 251q0 79 -33.5 129t-111.5 50q-68 0 -125 -35v-224h-42v462h-257v-462h-42z" />
    <glyph glyph-name="uni04A8" unicode="&#x4a8;" horiz-adv-x="896" 
d="M43 358q0 77 25 141.5t66 107.5t89.5 69.5t99.5 35.5v-41q-96 -23 -165.5 -103.5t-69.5 -209.5q0 -141 79 -234.5t214 -93.5q78 0 160 33q-91 54 -141.5 143t-50.5 199q0 75 24 134.5t62.5 93t81.5 50.5t85 17q103 0 174 -73.5t71 -221.5q0 -103 -58 -192.5t-153 -147.5
q75 -25 162 -25h39v-40h-39q-118 0 -208 39q-104 -51 -208 -51q-153 0 -246 101.5t-93 268.5zM394 405q0 -103 50.5 -188t143.5 -132q94 52 154 137t60 183q0 132 -58.5 193t-141.5 61q-27 0 -54.5 -9t-55.5 -29t-49.5 -48.5t-35 -72t-13.5 -95.5z" />
    <glyph glyph-name="uni04A9" unicode="&#x4a9;" horiz-adv-x="734" 
d="M41 255q0 101 56.5 167.5t130.5 89.5l13 -38q-60 -19 -108 -75.5t-48 -143.5q0 -100 57.5 -163t173.5 -63q66 0 128 24q-71 40 -112.5 105t-41.5 147q0 85 58.5 146t143.5 61q86 0 140 -56t54 -151q0 -75 -41 -139.5t-109 -109.5q51 -15 108 -15h42v-41h-42
q-82 0 -154 30q-86 -42 -174 -42q-137 0 -206 76t-69 191zM334 305q0 -76 42.5 -136.5t113.5 -94.5q69 38 110.5 98t41.5 133q0 79 -42 122.5t-108 43.5q-64 0 -111 -47t-47 -119z" />
    <glyph glyph-name="uni04AA" unicode="&#x4aa;" horiz-adv-x="689" 
d="M42 355q0 152 98 254.5t244 102.5q56 0 113.5 -14.5t102 -48.5t44.5 -81v-50h-43v40q0 50 -70 81t-146 31q-127 0 -212.5 -90t-85.5 -225q0 -137 86 -231t215 -94q42 0 82 10.5t67 25t47.5 29t30.5 25.5l10 10l27 -31q-4 -4 -10.5 -11t-29.5 -24.5t-49 -31.5t-67.5 -27
t-84.5 -16v-129h-42v129q-142 7 -234.5 112t-92.5 254z" />
    <glyph glyph-name="uni04AB" unicode="&#x4ab;" horiz-adv-x="521" 
d="M41 249q0 116 75.5 189.5t182.5 73.5q23 0 50.5 -5t57 -16t49 -33t19.5 -50v-38h-42v29q0 33 -45 52.5t-89 19.5q-90 0 -152 -61.5t-62 -160.5q0 -98 62 -159t152 -61q49 0 90.5 18t58.5 36l18 18l22 -35q-7 -8 -20.5 -20.5t-59.5 -34t-98 -23.5v-108h-42v110
q-98 10 -162.5 80.5t-64.5 178.5z" />
    <glyph glyph-name="uni04AC" unicode="&#x4ac;" horiz-adv-x="605" 
d="M280 0v660h-202q-22 0 -22 -22v-49h-42v57q0 31 11.5 42.5t42.5 11.5h467q31 0 42.5 -11.5t11.5 -42.5v-57h-42v49q0 22 -22 22h-202v-620h28q31 0 44.5 -13.5t13.5 -44.5v-122h-42v118q0 22 -22 22h-65z" />
    <glyph glyph-name="uni04AD" unicode="&#x4ad;" horiz-adv-x="500" 
d="M228 0v461h-150q-22 0 -22 -22v-43h-38v49q0 30 13.5 42.5t44.5 12.5h346q31 0 44.5 -12.5t13.5 -42.5v-49h-38v43q0 22 -22 22h-150v-423h19q30 0 43 -13t13 -42v-103h-42v98q0 22 -17 22h-58z" />
    <glyph glyph-name="uni04AE" unicode="&#x4ae;" horiz-adv-x="586" 
d="M272 0v304l-198 329q-15 27 -49 27h-13v40h9q38 0 56 -10.5t41 -47.5l131 -218l43 -79h2q22 45 43 79l131 218q23 37 41 47.5t56 10.5h9v-40h-13q-34 0 -49 -27l-197 -329v-304h-43z" />
    <glyph glyph-name="uni04AF" unicode="&#x4af;" horiz-adv-x="502" 
d="M231 39l-172 399q-10 24 -38 24h-8v38h7q37 0 51.5 -10.5t30.5 -47.5l126 -294l22 -57h2q12 34 22 57l126 294q16 37 30.5 47.5t51.5 10.5h7v-38h-8q-28 0 -38 -24l-172 -399v-239h-40v239z" />
    <glyph glyph-name="uni04B0" unicode="&#x4b0;" horiz-adv-x="586" 
d="M137 265v39h135l-198 329q-15 27 -49 27h-13v40h9q38 0 56 -10.5t41 -47.5l131 -218l43 -79h2q22 45 43 79l131 218q23 37 41 47.5t56 10.5h9v-40h-13q-34 0 -49 -27l-197 -329h130v-39h-130v-265h-43v265h-135z" />
    <glyph glyph-name="uni04B1" unicode="&#x4b1;" horiz-adv-x="502" 
d="M117 0v39h114l-172 399q-10 24 -38 24h-8v38h7q37 0 51.5 -10.5t30.5 -47.5l126 -294l22 -57h2q12 34 22 57l126 294q16 37 30.5 47.5t51.5 10.5h7v-38h-8q-28 0 -38 -24l-172 -399h114v-39h-114v-200h-40v200h-114z" />
    <glyph glyph-name="uni04B2" unicode="&#x4b2;" horiz-adv-x="581" 
d="M19 0l226 370l-160 263q-17 27 -54 27h-17v40h17q39 0 58.5 -11t41.5 -47l99 -165l46 -78h2q21 44 42 78l100 165q22 36 41.5 47t58.5 11h17v-40h-17q-37 0 -54 -27l-161 -263l202 -330h25q31 0 44.5 -13.5t13.5 -44.5v-122h-42v118q0 20 -19 22h-48l-162 266l-45 75h-2
q-21 -41 -42 -76l-160 -265h-51z" />
    <glyph glyph-name="uni04B3" unicode="&#x4b3;" horiz-adv-x="483" 
d="M24 0l180 264l-120 176q-16 22 -50 22h-14v38h14q41 0 57.5 -10t41.5 -48l82 -124l17 -29h2q9 16 17 29l82 124q25 38 41.5 48t57.5 10h14v-38h-14q-34 0 -50 -21l-120 -177l154 -226h4q30 0 43 -13t13 -42v-103h-42v98q0 21 -14 22h-30l-138 207l-18 29h-2
q-8 -14 -18 -29l-138 -207h-52z" />
    <glyph glyph-name="uni04B4" unicode="&#x4b4;" horiz-adv-x="878" 
d="M261 58v602h-182q-22 0 -22 -22v-49h-42v57q0 31 11.5 42.5t42.5 11.5h427q31 0 42.5 -11.5t11.5 -42.5v-57h-42v49q0 22 -22 22h-182v-598q0 -22 22 -22h395v660h43v-660h28q31 0 44.5 -13.5t13.5 -44.5v-122h-42v118q0 22 -22 22h-467q-31 0 -44.5 13.5t-13.5 44.5z
" />
    <glyph glyph-name="uni04B5" unicode="&#x4b5;" horiz-adv-x="688" 
d="M204 57v404h-126q-22 0 -22 -22v-43h-38v49q0 30 13.5 42.5t44.5 12.5h298q31 0 44.5 -12.5t13.5 -42.5v-49h-38v43q0 22 -22 22h-126v-400q0 -22 21 -22h290v461h42v-462h12q31 0 44.5 -13t13.5 -42v-103h-42v98q0 22 -22 22h-344q-31 0 -44 13.5t-13 43.5z" />
    <glyph glyph-name="uni04B6" unicode="&#x4b6;" horiz-adv-x="628" 
d="M287 283q-206 0 -206 193v162q0 22 -22 22h-43v40h50q31 0 44.5 -13.5t13.5 -44.5v-159q0 -80 38.5 -119.5t124.5 -39.5q51 0 102 18.5t82 40.5v317h43v-660h28q31 0 44.5 -13.5t13.5 -44.5v-122h-42v118q0 22 -22 22h-65v305l2 33h-2q-94 -55 -184 -55z" />
    <glyph glyph-name="uni04B7" unicode="&#x4b7;" horiz-adv-x="519" 
d="M244 190q-85 0 -122.5 40t-37.5 115v95q0 22 -22 22h-43v38h49q31 0 44.5 -13.5t13.5 -44.5v-97q0 -50 24.5 -82t93.5 -32q76 0 142 45v224h42v-462h19q30 0 43 -13t13 -42v-103h-42v98q0 22 -17 22h-58v198l2 37h-2q-27 -20 -68.5 -32.5t-73.5 -12.5z" />
    <glyph glyph-name="uni04B8" unicode="&#x4b8;" horiz-adv-x="607" 
d="M271 170v113q-94 1 -142.5 51t-48.5 142v162q0 22 -22 22h-43v40h50q31 0 44.5 -13.5t13.5 -44.5v-159q0 -77 35 -117t113 -42v146h41v-145q99 11 158 58v317h43v-700h-43v305l2 33h-2q-76 -46 -158 -54v-114h-41z" />
    <glyph glyph-name="uni04B9" unicode="&#x4b9;" horiz-adv-x="505" 
d="M239 109v81q-155 1 -155 155v95q0 22 -22 22h-43v38h49q31 0 44.5 -13.5t13.5 -44.5v-97q0 -112 113 -114v127h39v-125q58 9 108 43v224h42v-500h-42v198l2 37h-2q-44 -32 -108 -42v-84h-39z" />
    <glyph glyph-name="uni04BA" unicode="&#x4ba;" horiz-adv-x="614" 
d="M106 0v638q0 22 -22 22h-43v40h50q31 0 44.5 -13.5t13.5 -44.5v-203l-2 -33h2q92 54 201 54q189 0 189 -193v-205q0 -22 22 -22h43v-40h-50q-31 0 -44.5 13.5t-13.5 44.5v202q0 80 -35 119.5t-111 39.5q-59 0 -114.5 -19.5t-86.5 -41.5v-358h-43z" />
    <glyph glyph-name="uni04BB" unicode="&#x4bb;" horiz-adv-x="580" 
d="M78 0v640q0 22 -22 22h-43v38h49q31 0 44.5 -13t13.5 -42v-228l-2 -41h2q17 47 72 91.5t138 44.5q92 0 128.5 -49.5t36.5 -145.5v-257q0 -22 22 -22h43v-38h-49q-31 0 -44.5 13.5t-13.5 44.5v244q0 30 -2 51.5t-9 45t-20 38.5t-36.5 24.5t-55.5 9.5q-70 0 -126.5 -44.5
t-75.5 -114.5q-8 -28 -8 -68v-244h-42z" />
    <glyph glyph-name="uni04BC" unicode="&#x4bc;" horiz-adv-x="813" 
d="M161 367q-61 0 -95 38t-34 100q0 45 6 77l9 45h44l-9 -45q-7 -35 -7 -77q0 -43 22.5 -70.5t64.5 -27.5h15q17 131 101 218t213 87q123 0 198.5 -83t75.5 -234v-28h-547q-3 -81 20.5 -147t64 -106.5t92 -62.5t106.5 -22q41 0 80 9.5t66.5 22.5t48.5 26.5t32 22.5l10 10
l24 -37q-4 -4 -11 -10.5t-32 -22.5t-53 -28.5t-73 -23t-93 -10.5q-143 0 -235 98t-92 259v22h-12zM222 407h497q0 70 -22.5 127.5t-75.5 97t-130 39.5q-109 0 -180.5 -74.5t-88.5 -189.5z" />
    <glyph glyph-name="uni04BD" unicode="&#x4bd;" horiz-adv-x="625" 
d="M130 257q-101 0 -101 119q0 39 14 79h42q-15 -35 -15 -76q0 -82 62 -82h10q15 100 82.5 157.5t157.5 57.5q97 0 150.5 -65.5t53.5 -162.5l-2 -27h-401q0 -105 61.5 -166.5t152.5 -61.5q43 0 81.5 15.5t55.5 31.5l18 16l23 -35q-8 -8 -22.5 -19.5t-61 -30.5t-94.5 -19
q-109 0 -183.5 72.5t-74.5 188.5v8h-9zM186 296h356q-4 87 -49 132t-112 45q-73 0 -127.5 -46.5t-67.5 -130.5z" />
    <glyph glyph-name="uni04BE" unicode="&#x4be;" horiz-adv-x="812" 
d="M161 367q-61 0 -95 38t-34 100q0 45 6 77l9 45h44l-9 -45q-7 -35 -7 -77q0 -43 22.5 -70.5t64.5 -27.5h15q17 131 101 218t213 87q123 0 198.5 -83t75.5 -234v-28h-547q-3 -81 20.5 -147t64 -106.5t92 -62.5t106.5 -22q41 0 80 9.5t66.5 22.5t48.5 26.5t32 22.5l10 10
l24 -37q-4 -4 -10.5 -10t-30.5 -21.5t-50.5 -28t-69.5 -23.5t-88 -12v-128h-42v129q-132 10 -215 107t-83 249v22h-12zM222 407h497q0 70 -22.5 127.5t-75.5 97t-130 39.5q-109 0 -180.5 -74.5t-88.5 -189.5z" />
    <glyph glyph-name="uni04BF" unicode="&#x4bf;" horiz-adv-x="626" 
d="M131 257q-101 0 -101 119q0 39 14 79h42q-15 -35 -15 -76q0 -82 62 -82h10q15 100 82.5 157.5t157.5 57.5q97 0 150.5 -65.5t53.5 -162.5l-2 -27h-401q0 -105 61.5 -166.5t152.5 -61.5q43 0 81.5 15.5t56.5 31.5l17 16l23 -35q-8 -8 -22.5 -19.5t-61 -30.5t-94.5 -19h-2
v-108h-42v112q-93 14 -153.5 83.5t-60.5 173.5v8h-9zM187 296h356q-4 87 -49 132t-112 45q-73 0 -127.5 -46.5t-67.5 -130.5z" />
    <glyph glyph-name="uni04C0" unicode="&#x4c0;" horiz-adv-x="259" 
d="M44 0v40h64v620h-64v40h171v-40h-64v-620h64v-40h-171z" />
    <glyph glyph-name="uni04C1" unicode="&#x4c1;" horiz-adv-x="813" 
d="M11 0l210 332q7 11 16 19.5t15 11.5l5 3v2q-13 8 -29 36l-134 233q-9 14 -19.5 18.5t-32.5 4.5h-20v40h19q43 0 57.5 -9t34.5 -44l132 -227q19 -32 69 -32h51v312h43v-312h51q50 0 69 32l132 227q20 35 34.5 44t57.5 9h19v-40h-20q-22 0 -32.5 -4.5t-19.5 -18.5
l-134 -233q-7 -12 -14.5 -21t-10.5 -12l-4 -3v-2q20 -9 36 -34l210 -332h-52l-197 314q-22 34 -66 34h-59v-348h-43v348h-59q-44 0 -66 -34l-197 -314h-52zM406 734q-48 0 -83 29.5t-35 79.5v18h42v-15q0 -34 22 -53t54 -19q31 0 54 19.5t23 53.5v14h41v-18q0 -50 -35 -79.5
t-83 -29.5z" />
    <glyph glyph-name="uni04C2" unicode="&#x4c2;" horiz-adv-x="684" 
d="M20 0l133 212q12 18 26 29t23 13l8 1v2q-26 8 -41 38l-72 144q-7 14 -17.5 18.5t-32.5 4.5h-17v38h17q41 0 58.5 -9.5t34.5 -43.5l66 -134q20 -39 70 -39h46v226h42v-226h44q50 0 70 39l66 134q17 34 34.5 43.5t58.5 9.5h17v-38h-17q-22 0 -32.5 -4.5t-17.5 -18.5
l-72 -144q-7 -13 -17 -22.5t-17 -12.5l-7 -3v-2q31 -2 57 -43l134 -212h-52l-116 187q-18 29 -39.5 38.5t-52.5 9.5h-41v-235h-42v235h-43q-31 0 -52.5 -9.5t-39.5 -38.5l-115 -187h-52zM343 573q-48 0 -83 29.5t-35 79.5v18h42v-15q0 -34 22 -53t54 -19q31 0 54 19.5
t23 53.5v14h41v-18q0 -50 -35 -79.5t-83 -29.5z" />
    <glyph glyph-name="uni04C3" unicode="&#x4c3;" horiz-adv-x="588" 
d="M106 0v638q0 22 -22 22h-43v40h50q31 0 44.5 -13.5t13.5 -44.5v-254h99q44 0 60 25l182 287h52l-181 -281q-19 -31 -34 -41v-1q67 -17 113 -50.5t65.5 -75t26.5 -72.5t7 -62q0 -140 -65.5 -213.5t-162.5 -73.5v39q77 0 131 59t54 189q0 117 -76 174t-186 57h-85v-348h-43
z" />
    <glyph glyph-name="uni04C4" unicode="&#x4c4;" horiz-adv-x="474" 
d="M90 0v440q0 22 -22 22h-43v38h49q31 0 44.5 -13.5t13.5 -44.5v-165h35q48 0 73 32l143 191h53l-148 -195q-6 -8 -11.5 -14t-9 -9t-6.5 -5.5t-4 -2.5l-1 -1v-2q179 -38 179 -227q0 -168 -139 -249l-22 36q53 28 85 81.5t32 131.5q0 98 -55 146t-150 48h-54v-238h-42z" />
    <glyph glyph-name="uni04C5" unicode="&#x4c5;" horiz-adv-x="660" 
d="M10 -3v42q52 7 87.5 48.5t54 118t25.5 166t7 214.5v74h-66v40h370q31 0 44.5 -13.5t13.5 -44.5v-580q0 -22 22 -22h68v-33l-60 -147h-40l49 140h-24q-31 0 -44.5 13.5t-13.5 44.5v580q0 22 -22 22h-255v-74q0 -90 -3 -157.5t-11 -136.5t-23 -117.5t-38.5 -88.5t-58.5 -62
t-82 -27z" />
    <glyph glyph-name="uni04C6" unicode="&#x4c6;" horiz-adv-x="508" 
d="M10 -4v39q35 0 61.5 31t41.5 75.5t24 101.5t12 100t3 80v39h-65v38h267q31 0 44.5 -13.5t13.5 -44.5v-382q0 -22 22 -22h63v-31l-51 -127h-38l41 120h-21q-31 0 -44.5 13.5t-13.5 44.5v382q0 22 -22 22h-154v-39q0 -24 -1 -49.5t-5 -70t-11 -83t-21 -81.5t-33 -73
t-48 -50t-65 -20z" />
    <glyph glyph-name="uni04C7" unicode="&#x4c7;" horiz-adv-x="742" 
d="M106 0v638q0 22 -22 22h-43v40h50q31 0 44.5 -13.5t13.5 -44.5v-271h444v271q0 31 13.5 44.5t44.5 13.5h50v-40h-43q-22 0 -22 -22v-623q0 -47 -12.5 -82.5t-29.5 -54.5t-41 -30.5t-42 -14.5t-37 -3v39q19 0 36 5t37.5 18.5t33 45t12.5 76.5v317h-444v-331h-43z" />
    <glyph glyph-name="uni04C8" unicode="&#x4c8;" horiz-adv-x="592" 
d="M90 0v440q0 22 -22 22h-43v38h49q31 0 44.5 -13.5t13.5 -44.5v-165h327v165q0 31 14 44.5t45 13.5h49v-38h-43q-22 0 -22 -22v-407q0 -99 -37.5 -151t-101.5 -87l-22 36q118 55 118 202v205h-327v-238h-42z" />
    <glyph glyph-name="uni04C9" unicode="&#x4c9;" horiz-adv-x="751" 
d="M106 0v638q0 22 -22 22h-43v40h50q31 0 44.5 -13.5t13.5 -44.5v-271h444v271q0 31 13.5 44.5t44.5 13.5h50v-40h-43q-22 0 -22 -22v-598h90v-33l-60 -147h-40l49 140h-82v331h-444v-331h-43z" />
    <glyph glyph-name="uni04CA" unicode="&#x4ca;" horiz-adv-x="593" 
d="M90 0v440q0 22 -22 22h-43v38h49q31 0 44.5 -13.5t13.5 -44.5v-165h327v223h42v-440q0 -22 22 -22h48v-31l-51 -127h-38l41 120h-6q-31 0 -44.5 13.5t-13.5 44.5v180h-327v-238h-42z" />
    <glyph glyph-name="uni04CB" unicode="&#x4cb;" horiz-adv-x="608" 
d="M287 283q-206 0 -206 193v162q0 22 -22 22h-43v40h50q31 0 44.5 -13.5t13.5 -44.5v-159q0 -80 38.5 -119.5t124.5 -39.5q51 0 102 18.5t82 40.5v317h43v-700h-100q-22 0 -22 -22v-118h-42v122q0 31 13.5 44.5t44.5 13.5h63v265l2 33h-2q-94 -55 -184 -55z" />
    <glyph glyph-name="uni04CC" unicode="&#x4cc;" horiz-adv-x="504" 
d="M309 -17q0 29 13 42t43 13h20v160l2 37h-2q-27 -20 -68.5 -32.5t-73.5 -12.5q-85 0 -122.5 40t-37.5 115v95q0 22 -22 22h-43v38h49q31 0 44.5 -13.5t13.5 -44.5v-97q0 -50 24.5 -82t93.5 -32q76 0 142 45v224h42v-500h-59q-17 0 -17 -22v-98h-42v103z" />
    <glyph glyph-name="uni04CD" unicode="&#x4cd;" horiz-adv-x="845" 
d="M23 0v40h40q21 0 22 22l51 638h42l204 -440l34 -79h2q18 45 34 79l204 440h42l51 -638q1 -22 22 -22h68v-33l-60 -147h-40l49 140h-24q-30 0 -43 13.5t-15 44.5l-38 476l-3 93h-2q-20 -59 -36 -93l-188 -399h-44l-187 399l-37 95h-2q0 -61 -3 -95l-38 -476
q-2 -31 -15 -44.5t-43 -13.5h-47z" />
    <glyph glyph-name="uni04CE" unicode="&#x4ce;" horiz-adv-x="704" 
d="M19 0v38h32q19 0 21 21l35 441h40l170 -337l32 -65h2q16 32 32 65l169 337h40l35 -441q1 -21 21 -21h51v-31l-51 -127h-38l41 120h-9q-31 0 -41.5 13.5t-13.5 42.5l-24 287l-2 88h-2q-9 -29 -31 -74l-155 -302h-46l-156 302q-9 18 -16.5 37t-10.5 29l-4 10h-2
q0 -66 -2 -90l-24 -287q-3 -29 -13.5 -42.5t-41.5 -13.5h-38z" />
    <glyph glyph-name="uni04CF" unicode="&#x4cf;" horiz-adv-x="259" 
d="M44 0v38h64v624h-64v38h170v-38h-64v-624h64v-38h-170z" />
    <glyph glyph-name="uni04D0" unicode="&#x4d0;" horiz-adv-x="647" 
d="M12 0v40h11q30 0 38 22l239 638h47l239 -638q8 -22 38 -22h11v-40h-12q-38 0 -53.5 11t-28.5 47l-69 184h-297l-69 -184q-13 -36 -28.5 -47t-53.5 -11h-12zM190 282h268l-107 284l-27 84h-2q-15 -54 -26 -84zM323 734q-48 0 -83 29.5t-35 79.5v18h42v-15q0 -34 22 -53
t54 -19q31 0 54 19.5t23 53.5v14h41v-18q0 -50 -35 -79.5t-83 -29.5z" />
    <glyph glyph-name="uni04D1" unicode="&#x4d1;" horiz-adv-x="500" 
d="M34 133q0 35 13 63t32 45.5t49.5 30.5t55.5 19t60 9.5t54 4t46 0.5h33v7q0 89 -33 125t-112 36q-35 0 -73 -11t-38 -38v-34h-42v46q0 27 31.5 45.5t64 24.5t58.5 6q106 0 146 -49.5t40 -139.5v-263q0 -22 22 -22h43v-38h-49q-31 0 -44.5 14t-13.5 47l2 45h-2
q1 0 -4.5 -12t-18.5 -29.5t-32 -35t-50.5 -29.5t-67.5 -12q-68 0 -119 37.5t-51 107.5zM78 136q0 -43 34 -76t94 -33q77 0 124 65.5t47 146.5v27h-32q-31 0 -50.5 -0.5t-56 -4t-60 -12t-49 -22t-38.5 -37t-13 -54.5zM251 573q-48 0 -83 29.5t-35 79.5v18h42v-15
q0 -34 22 -53t54 -19q31 0 54 19.5t23 53.5v14h41v-18q0 -50 -35 -79.5t-83 -29.5z" />
    <glyph glyph-name="uni04D2" unicode="&#x4d2;" horiz-adv-x="647" 
d="M12 0v40h11q30 0 38 22l239 638h47l239 -638q8 -22 38 -22h11v-40h-12q-38 0 -53.5 11t-28.5 47l-69 184h-297l-69 -184q-13 -36 -28.5 -47t-53.5 -11h-12zM190 282h268l-107 284l-27 84h-2q-15 -54 -26 -84zM368 788v73h46v-73h-46zM231 788v73h46v-73h-46z" />
    <glyph glyph-name="uni04D3" unicode="&#x4d3;" horiz-adv-x="500" 
d="M34 133q0 35 13 63t32 45.5t49.5 30.5t55.5 19t60 9.5t54 4t46 0.5h33v7q0 89 -33 125t-112 36q-35 0 -73 -11t-38 -38v-34h-42v46q0 27 31.5 45.5t64 24.5t58.5 6q106 0 146 -49.5t40 -139.5v-263q0 -22 22 -22h43v-38h-49q-31 0 -44.5 14t-13.5 47l2 45h-2
q1 0 -4.5 -12t-18.5 -29.5t-32 -35t-50.5 -29.5t-67.5 -12q-68 0 -119 37.5t-51 107.5zM78 136q0 -43 34 -76t94 -33q77 0 124 65.5t47 146.5v27h-32q-31 0 -50.5 -0.5t-56 -4t-60 -12t-49 -22t-38.5 -37t-13 -54.5zM289 627v73h46v-73h-46zM152 627v73h46v-73h-46z" />
    <glyph glyph-name="uni04D4" unicode="&#x4d4;" horiz-adv-x="795" 
d="M10 0v40h6q30 0 38 22l239 638h383q31 0 44.5 -13.5t13.5 -44.5v-53h-42v49q0 22 -22 22h-266v-287h269v-40h-269v-271q0 -14 6.5 -18t23.5 -4h266q22 0 22 22v49h42v-53q0 -31 -13.5 -44.5t-44.5 -13.5h-275q-40 0 -55 11t-15 47v275h-159l-103 -275q-13 -36 -28.5 -47
t-53.5 -11h-7zM217 373h144v287h-37z" />
    <glyph glyph-name="uni04D5" unicode="&#x4d5;" horiz-adv-x="851" 
d="M35 133q0 34 11 61t27.5 44t43.5 29.5t50.5 18.5t58.5 9.5t56.5 4t54.5 0.5h40v12q0 89 -33 125t-111 36q-36 0 -73.5 -11t-37.5 -38v-34h-42v46q0 35 49 55.5t105 20.5q82 0 122.5 -30t53.5 -87h2q62 117 198 117q96 0 149 -64t53 -159l-2 -28h-391q0 -110 56.5 -171
t147.5 -61q43 0 81.5 15.5t55.5 31.5l18 16l23 -35q-8 -8 -22.5 -19.5t-61 -30.5t-94.5 -19q-78 0 -138 40.5t-87 112.5h-2q-3 -15 -13.5 -36t-31 -49.5t-58.5 -48t-86 -19.5q-73 0 -122.5 38t-49.5 107zM423 300h345q-4 86 -50 129t-111 43q-72 0 -122 -44t-62 -128z
M79 136q0 -45 34 -77t94 -32q77 0 123.5 65.5t46.5 146.5v22h-69q-34 0 -59.5 -1.5t-60 -8.5t-56 -19.5t-37.5 -37t-16 -58.5z" />
    <glyph glyph-name="uni04D6" unicode="&#x4d6;" horiz-adv-x="550" 
d="M106 58v602h-65v40h390q31 0 44.5 -13.5t13.5 -44.5v-53h-42v49q0 22 -22 22h-276v-287h279v-40h-279v-271q0 -22 22 -22h284q22 0 22 22v49h42v-53q0 -31 -13.5 -44.5t-44.5 -13.5h-297q-31 0 -44.5 13.5t-13.5 44.5zM292 734q-48 0 -83 29.5t-35 79.5v18h42v-15
q0 -34 22 -53t54 -19q31 0 54 19.5t23 53.5v14h41v-18q0 -50 -35 -79.5t-83 -29.5z" />
    <glyph glyph-name="uni04D7" unicode="&#x4d7;" horiz-adv-x="527" 
d="M279 573q-48 0 -83 29.5t-35 79.5v18h42v-15q0 -34 22 -53t54 -19q31 0 54 19.5t23 53.5v14h41v-18q0 -50 -35 -79.5t-83 -29.5zM41 249q0 122 71 192.5t172 70.5q97 0 150.5 -65.5t53.5 -162.5l-2 -27h-401q0 -105 61.5 -166.5t152.5 -61.5q43 0 81.5 15.5t55.5 31.5
l18 16l23 -35q-8 -8 -22.5 -19.5t-61 -30.5t-94.5 -19q-109 0 -183.5 72.5t-74.5 188.5zM88 296h356q-4 87 -49 132t-112 45q-73 0 -127.5 -46.5t-67.5 -130.5z" />
    <glyph glyph-name="uni04D8" unicode="&#x4d8;" horiz-adv-x="684" 
d="M43 343l1 28h551q0 132 -77 216t-196 84q-41 0 -80 -8t-65.5 -19.5t-47 -23.5t-30.5 -20l-10 -8l-26 32q4 4 11 9.5t31.5 21t52.5 27t72.5 21t92.5 9.5q140 0 228.5 -97t88.5 -260q0 -160 -82.5 -263.5t-225.5 -103.5q-132 0 -210.5 86.5t-78.5 268.5zM89 331
q0 -301 252 -301q110 0 181 82.5t71 218.5h-504z" />
    <glyph glyph-name="uni04D9" unicode="&#x4d9;" horiz-adv-x="529" 
d="M40 232l2 27h401q0 92 -56 152t-138 60q-48 0 -91.5 -15.5t-63.5 -31.5l-20 -16l-23 35q9 8 25.5 19.5t68.5 30.5t105 19q102 0 169.5 -72t67.5 -189q0 -126 -67 -194.5t-166 -68.5q-104 0 -159 66.5t-55 177.5zM84 220q7 -193 171 -193q72 0 126 49t59 144h-356z" />
    <glyph glyph-name="uni04DA" unicode="&#x4da;" horiz-adv-x="684" 
d="M387 787v73h46v-73h-46zM250 787v73h46v-73h-46zM43 343l1 28h551q0 132 -77 216t-196 84q-41 0 -80 -8t-65.5 -19.5t-47 -23.5t-30.5 -20l-10 -8l-26 32q4 4 11 9.5t31.5 21t52.5 27t72.5 21t92.5 9.5q140 0 228.5 -97t88.5 -260q0 -160 -82.5 -263.5t-225.5 -103.5
q-132 0 -210.5 86.5t-78.5 268.5zM89 331q0 -301 252 -301q110 0 181 82.5t71 218.5h-504z" />
    <glyph glyph-name="uni04DB" unicode="&#x4db;" horiz-adv-x="528" 
d="M300 627v73h46v-73h-46zM163 627v73h46v-73h-46zM40 232l2 27h401q0 92 -56 152t-138 60q-48 0 -91.5 -15.5t-63.5 -31.5l-20 -16l-23 35q9 8 25.5 19.5t68.5 30.5t105 19q102 0 169.5 -72t67.5 -189q0 -126 -67 -194.5t-166 -68.5q-104 0 -159 66.5t-55 177.5zM84 220
q7 -193 171 -193q72 0 126 49t59 144h-356z" />
    <glyph glyph-name="uni04DC" unicode="&#x4dc;" horiz-adv-x="813" 
d="M453 788v73h46v-73h-46zM316 788v73h46v-73h-46zM11 0l210 332q7 11 16 19.5t15 11.5l5 3v2q-13 8 -29 36l-134 233q-9 14 -19.5 18.5t-32.5 4.5h-20v40h19q43 0 57.5 -9t34.5 -44l132 -227q19 -32 69 -32h51v312h43v-312h51q50 0 69 32l132 227q20 35 34.5 44t57.5 9h19
v-40h-20q-22 0 -32.5 -4.5t-19.5 -18.5l-134 -233q-7 -12 -14.5 -21t-10.5 -12l-4 -3v-2q20 -9 36 -34l210 -332h-52l-197 314q-22 34 -66 34h-59v-348h-43v348h-59q-44 0 -66 -34l-197 -314h-52z" />
    <glyph glyph-name="uni04DD" unicode="&#x4dd;" horiz-adv-x="684" 
d="M388 627v73h46v-73h-46zM251 627v73h46v-73h-46zM20 0l133 212q12 18 26 29t23 13l8 1v2q-26 8 -41 38l-72 144q-7 14 -17.5 18.5t-32.5 4.5h-17v38h17q41 0 58.5 -9.5t34.5 -43.5l66 -134q20 -39 70 -39h46v226h42v-226h44q50 0 70 39l66 134q17 34 34.5 43.5t58.5 9.5
h17v-38h-17q-22 0 -32.5 -4.5t-17.5 -18.5l-72 -144q-7 -13 -17 -22.5t-17 -12.5l-7 -3v-2q31 -2 57 -43l134 -212h-52l-116 187q-18 29 -39.5 38.5t-52.5 9.5h-41v-235h-42v235h-43q-31 0 -52.5 -9.5t-39.5 -38.5l-115 -187h-52z" />
    <glyph glyph-name="uni04DE" unicode="&#x4de;" horiz-adv-x="504" 
d="M295 788v73h46v-73h-46zM158 788v73h46v-73h-46zM24 74l29 34q29 -34 77 -56t99 -22q80 0 132.5 45t52.5 119q0 70 -47.5 110.5t-118.5 40.5h-89v40h71q65 0 112 40.5t47 104.5q0 61 -38.5 100.5t-116.5 39.5q-57 0 -98.5 -23t-41.5 -57v-34h-43v44q0 31 19 54t49 35
t59 17.5t56 5.5q97 0 148.5 -49t51.5 -130q0 -61 -31.5 -100.5t-77.5 -59.5v-2q61 -15 97.5 -61.5t36.5 -115.5q0 -92 -65.5 -149t-165.5 -57q-58 0 -114.5 23t-89.5 63z" />
    <glyph glyph-name="uni04DF" unicode="&#x4df;" horiz-adv-x="416" 
d="M253 627v73h46v-73h-46zM116 627v73h46v-73h-46zM28 60l27 32q56 -63 138 -63q55 0 95.5 28t40.5 82q0 49 -36 75t-103 26h-60v39h54q60 0 93 24.5t33 71.5q0 48 -32 72t-84 24q-39 0 -71 -15t-32 -43v-24h-42v38q0 41 45 63t104 22q70 0 113.5 -34t43.5 -99
q0 -86 -81 -115v-2q46 -10 72.5 -41t26.5 -81q0 -72 -53 -112t-127 -40q-95 0 -165 72z" />
    <glyph glyph-name="uni04E0" unicode="&#x4e0;" horiz-adv-x="490" 
d="M51 89q32 -27 76.5 -42.5t87.5 -15.5q84 0 136.5 45.5t52.5 117.5q0 65 -32 101t-107 46q-28 4 -148 4v34l214 239l43 43l-1 2q-26 -2 -61 -2h-206q-22 0 -22 -22v-43h-42v47q0 31 13.5 44t44.5 13h333v-30l-230 -257l-27 -26v-2q71 0 98 -4q175 -24 175 -181
q0 -92 -64.5 -151t-169.5 -59q-101 0 -187 62z" />
    <glyph glyph-name="uni04E1" unicode="&#x4e1;" horiz-adv-x="454" 
d="M32 -111q32 -27 76.5 -42.5t87.5 -15.5q84 0 136.5 45.5t52.5 117.5q0 65 -32 101t-107 46q-28 4 -148 4v34l214 239l43 43l-1 2q-26 -2 -61 -2h-206q-22 0 -22 -22v-43h-42v47q0 31 13.5 44t44.5 13h333v-30l-230 -257l-27 -26v-2q71 0 98 -4q175 -24 175 -181
q0 -92 -64.5 -151t-169.5 -59q-101 0 -187 62z" />
    <glyph glyph-name="uni04E2" unicode="&#x4e2;" horiz-adv-x="748" 
d="M257 787v40h239v-40h-239zM106 0v638q0 22 -22 22h-43v40h50q31 0 44.5 -13.5t13.5 -44.5v-491l-5 -88h2q38 59 61 91l395 546h40v-638q0 -22 22 -22h43v-40h-50q-31 0 -44.5 13.5t-13.5 44.5v491l5 88h-2q-35 -56 -58 -88l-398 -549h-40z" />
    <glyph glyph-name="uni04E3" unicode="&#x4e3;" horiz-adv-x="590" 
d="M176 625v40h239v-40h-239zM89 0v440q0 22 -21 22h-42v38h48q30 0 43.5 -13t13.5 -43v-300l-5 -85h2q38 55 61 85l273 356h39v-440q0 -22 21 -22h42v-38h-48q-30 0 -43.5 13.5t-13.5 43.5v300l5 85h-2q-37 -55 -60 -85l-274 -357h-39z" />
    <glyph glyph-name="uni04E4" unicode="&#x4e4;" horiz-adv-x="748" 
d="M419 788v73h46v-73h-46zM282 788v73h46v-73h-46zM106 0v638q0 22 -22 22h-43v40h50q31 0 44.5 -13.5t13.5 -44.5v-491l-5 -88h2q38 59 61 91l395 546h40v-638q0 -22 22 -22h43v-40h-50q-31 0 -44.5 13.5t-13.5 44.5v491l5 88h-2q-35 -56 -58 -88l-398 -549h-40z" />
    <glyph glyph-name="uni04E5" unicode="&#x4e5;" horiz-adv-x="590" 
d="M346 627v73h46v-73h-46zM209 627v73h46v-73h-46zM89 0v440q0 22 -21 22h-42v38h48q30 0 43.5 -13t13.5 -43v-300l-5 -85h2q38 55 61 85l273 356h39v-440q0 -22 21 -22h42v-38h-48q-30 0 -43.5 13.5t-13.5 43.5v300l5 85h-2q-37 -55 -60 -85l-274 -357h-39z" />
    <glyph glyph-name="uni04E6" unicode="&#x4e6;" horiz-adv-x="790" 
d="M41 355q0 150 103.5 253.5t250.5 103.5t250.5 -103.5t103.5 -253.5q0 -154 -103.5 -260.5t-250.5 -106.5t-250.5 106.5t-103.5 260.5zM86 355q0 -137 90 -231t219 -94t219 94t90 231q0 133 -90 224t-219 91t-219 -91t-90 -224zM439 788v73h46v-73h-46zM302 788v73h46v-73
h-46z" />
    <glyph glyph-name="uni04E7" unicode="&#x4e7;" horiz-adv-x="596" 
d="M39 253q0 109 75.5 184t183.5 75t183.5 -75t75.5 -184q0 -111 -75.5 -188t-183.5 -77t-183.5 77t-75.5 188zM83 253q0 -95 62.5 -159.5t152.5 -64.5t152.5 64.5t62.5 159.5q0 92 -62.5 155t-152.5 63t-152.5 -63t-62.5 -155zM345 627v73h46v-73h-46zM208 627v73h46v-73
h-46z" />
    <glyph glyph-name="uni04E8" unicode="&#x4e8;" horiz-adv-x="790" 
d="M41 355q0 151 102 254t252 103t252 -103t102 -254q0 -155 -102 -261t-252 -106t-252 106t-102 261zM395 29q127 0 214 87.5t94 218.5h-617q7 -131 94.5 -218.5t214.5 -87.5zM395 671q-127 0 -214 -84t-95 -212h617q-7 127 -94 211.5t-214 84.5z" />
    <glyph glyph-name="uni04E9" unicode="&#x4e9;" horiz-adv-x="596" 
d="M39 253q0 109 75.5 184t183.5 75t183.5 -75t75.5 -184q0 -111 -75.5 -188t-183.5 -77t-183.5 77t-75.5 188zM298 29q84 0 145.5 58.5t68.5 145.5h-429q7 -88 68.5 -146t146.5 -58zM298 471q-85 0 -146.5 -57t-68.5 -142h429q-7 85 -68 142t-146 57z" />
    <glyph glyph-name="uni04EA" unicode="&#x4ea;" horiz-adv-x="790" 
d="M41 355q0 151 102 254t252 103t252 -103t102 -254q0 -155 -102 -261t-252 -106t-252 106t-102 261zM395 29q127 0 214 87.5t94 218.5h-617q7 -131 94.5 -218.5t214.5 -87.5zM395 671q-127 0 -214 -84t-95 -212h617q-7 127 -94 211.5t-214 84.5zM305 788v73h46v-73h-46z
M442 788v73h46v-73h-46z" />
    <glyph glyph-name="uni04EB" unicode="&#x4eb;" horiz-adv-x="598" 
d="M40 253q0 109 75.5 184t183.5 75t183.5 -75t75.5 -184q0 -111 -75.5 -188t-183.5 -77t-183.5 77t-75.5 188zM299 29q84 0 145.5 58.5t68.5 145.5h-429q7 -88 68.5 -146t146.5 -58zM299 471q-85 0 -146.5 -57t-68.5 -142h429q-7 85 -68 142t-146 57zM214 592v73h46v-73
h-46zM351 592v73h46v-73h-46z" />
    <glyph glyph-name="uni04EC" unicode="&#x4ec;" horiz-adv-x="689" 
d="M365 788v73h46v-73h-46zM228 788v73h46v-73h-46zM37 94l27 30q37 -41 103 -67.5t135 -26.5q122 0 206.5 86t92.5 215h-421v40h422q-6 130 -91.5 214.5t-209.5 84.5q-47 0 -95.5 -12.5t-84.5 -39t-36 -60.5v-40h-43v50q0 47 44.5 81t102 48.5t113.5 14.5q148 0 246.5 -102
t98.5 -255q0 -154 -98.5 -260.5t-246.5 -106.5q-73 0 -144.5 27.5t-120.5 78.5z" />
    <glyph glyph-name="uni04ED" unicode="&#x4ed;" horiz-adv-x="520" 
d="M291 627v73h46v-73h-46zM154 627v73h46v-73h-46zM33 66l22 35q62 -72 169 -72q84 0 144 55.5t67 145.5h-275v39h275q-7 87 -68.5 144.5t-136.5 57.5q-49 0 -97.5 -20t-48.5 -52v-29h-42v38q0 41 53.5 72.5t134.5 31.5q99 0 174.5 -74t75.5 -189q0 -116 -74.5 -188.5
t-182.5 -72.5q-118 0 -190 78z" />
    <glyph glyph-name="uni04EE" unicode="&#x4ee;" horiz-adv-x="593" 
d="M185 787v40h239v-40h-239zM99 27l23 34q38 -33 80 -33q37 0 57.5 25.5t41.5 82.5l-239 502q-10 22 -35 22h-17v40h18q32 0 47 -11.5t32 -46.5l175 -368l40 -90h2q12 35 32 90l135 368q13 37 28.5 47.5t53.5 10.5h10v-40h-9q-30 0 -38 -21l-208 -545q-40 -106 -126 -106
q-27 0 -52.5 9.5t-37.5 19.5z" />
    <glyph glyph-name="uni04EF" unicode="&#x4ef;" horiz-adv-x="523" 
d="M31 -131q0 -2 9 -10.5t28 -18.5t38 -10q60 0 98 90l36 83l-181 435q-10 24 -38 24h-8v38h7q37 0 52 -10.5t30 -47.5l142 -341l17 -47h2q7 23 17 47l141 341q15 37 30 47.5t52 10.5h7v-38h-8q-28 0 -38 -24l-231 -555q-39 -93 -127 -93q-29 0 -54 12t-36 24l-10 11z
M143 625v40h239v-40h-239z" />
    <glyph glyph-name="uni04F0" unicode="&#x4f0;" horiz-adv-x="593" 
d="M346 788v73h46v-73h-46zM209 788v73h46v-73h-46zM99 27l23 34q38 -33 80 -33q37 0 57.5 25.5t41.5 82.5l-239 502q-10 22 -35 22h-17v40h18q32 0 47 -11.5t32 -46.5l175 -368l40 -90h2q12 35 32 90l135 368q13 37 28.5 47.5t53.5 10.5h10v-40h-9q-30 0 -38 -21l-208 -545
q-40 -106 -126 -106q-27 0 -52.5 9.5t-37.5 19.5z" />
    <glyph glyph-name="uni04F1" unicode="&#x4f1;" horiz-adv-x="523" 
d="M31 -131q0 -2 9 -10.5t28 -18.5t38 -10q60 0 98 90l36 83l-181 435q-10 24 -38 24h-8v38h7q37 0 52 -10.5t30 -47.5l142 -341l17 -47h2q7 23 17 47l141 341q15 37 30 47.5t52 10.5h7v-38h-8q-28 0 -38 -24l-231 -555q-39 -93 -127 -93q-29 0 -54 12t-36 24l-10 11z
M307 627v73h46v-73h-46zM170 627v73h46v-73h-46z" />
    <glyph glyph-name="uni04F2" unicode="&#x4f2;" horiz-adv-x="593" 
d="M99 27l23 34q38 -33 80 -33q37 0 57.5 25.5t41.5 82.5l-239 502q-10 22 -35 22h-17v40h18q32 0 47 -11.5t32 -46.5l175 -368l40 -90h2q12 35 32 90l135 368q13 37 28.5 47.5t53.5 10.5h10v-40h-9q-30 0 -38 -21l-208 -545q-40 -106 -126 -106q-27 0 -52.5 9.5t-37.5 19.5
zM328 750l67 111h56l-79 -111h-44zM212 750l63 111h49l-64 -111h-48z" />
    <glyph glyph-name="uni04F3" unicode="&#x4f3;" horiz-adv-x="523" 
d="M31 -131q0 -2 9 -10.5t28 -18.5t38 -10q60 0 98 90l36 83l-181 435q-10 24 -38 24h-8v38h7q37 0 52 -10.5t30 -47.5l142 -341l17 -47h2q7 23 17 47l141 341q15 37 30 47.5t52 10.5h7v-38h-8q-28 0 -38 -24l-231 -555q-39 -93 -127 -93q-29 0 -54 12t-36 24l-10 11z
M289 589l67 111h56l-79 -111h-44zM173 589l63 111h49l-64 -111h-48z" />
    <glyph glyph-name="uni04F4" unicode="&#x4f4;" horiz-adv-x="608" 
d="M315 788v73h46v-73h-46zM178 788v73h46v-73h-46zM287 283q-206 0 -206 193v162q0 22 -22 22h-43v40h50q31 0 44.5 -13.5t13.5 -44.5v-159q0 -80 38.5 -119.5t124.5 -39.5q51 0 102 18.5t82 40.5v317h43v-700h-43v305l2 33h-2q-94 -55 -184 -55z" />
    <glyph glyph-name="uni04F5" unicode="&#x4f5;" horiz-adv-x="505" 
d="M298 627v73h46v-73h-46zM161 627v73h46v-73h-46zM244 190q-85 0 -122.5 40t-37.5 115v95q0 22 -22 22h-43v38h49q31 0 44.5 -13.5t13.5 -44.5v-97q0 -50 24.5 -82t93.5 -32q76 0 142 45v224h42v-500h-42v198l2 37h-2q-27 -20 -68.5 -32.5t-73.5 -12.5z" />
    <glyph glyph-name="uni04F6" unicode="&#x4f6;" horiz-adv-x="484" 
d="M106 0v660h-65v40h370q31 0 44.5 -13.5t13.5 -44.5v-53h-42v49q0 22 -22 22h-256v-620h28q31 0 44.5 -13.5t13.5 -44.5v-122h-42v118q0 22 -22 22h-65z" />
    <glyph glyph-name="uni04F7" unicode="&#x4f7;" horiz-adv-x="413" 
d="M90 0v462h-65v38h311q31 0 44.5 -12t13.5 -42v-50h-38v44q0 22 -22 22h-202v-424h19q30 0 43 -13t13 -42v-103h-42v98q0 22 -17 22h-58z" />
    <glyph glyph-name="uni04F8" unicode="&#x4f8;" horiz-adv-x="784" 
d="M635 58v642h43v-638q0 -22 22 -22h43v-40h-50q-31 0 -44.5 13.5t-13.5 44.5zM106 58v580q0 22 -22 22h-43v40h50q31 0 44.5 -13.5t13.5 -44.5v-240h160q95 0 153.5 -54t58.5 -146q0 -94 -58.5 -148t-153.5 -54h-145q-31 0 -44.5 13.5t-13.5 44.5zM149 62q0 -22 22 -22
h136q80 0 124.5 42t44.5 120q0 76 -45 118t-124 42h-158v-300zM441 788v73h46v-73h-46zM304 788v73h46v-73h-46z" />
    <glyph glyph-name="uni04F9" unicode="&#x4f9;" horiz-adv-x="638" 
d="M506 58v442h42v-440q0 -22 22 -22h43v-38h-49q-31 0 -44.5 13.5t-13.5 44.5zM89 57v383q0 22 -22 22h-43v38h49q31 0 44.5 -13.5t13.5 -44.5v-144h116q75 0 120.5 -39.5t45.5 -110.5q0 -65 -44 -106.5t-122 -41.5h-101q-31 0 -44 13.5t-13 43.5zM131 61q0 -23 21 -23h95
q59 0 90.5 30t31.5 80q0 52 -31 82t-91 30h-116v-199zM363 628v73h46v-73h-46zM226 628v73h46v-73h-46z" />
    <glyph glyph-name="uni0524" unicode="&#x524;" horiz-adv-x="740" 
d="M107 0v660h-66v40h528q31 0 44.5 -13.5t13.5 -44.5v-602h28q31 0 44.5 -13.5t13.5 -44.5v-122h-42v118q0 22 -22 22h-65v638q0 22 -22 22h-412v-660h-43z" />
    <glyph glyph-name="uni0525" unicode="&#x525;" horiz-adv-x="580" 
d="M88 0v461h-54v39h397q31 0 44.5 -13.5t13.5 -44.5v-403h17q31 0 44.5 -13t13.5 -42v-104h-42v98q0 22 -22 22h-53v439q0 22 -22 22h-295v-461h-42z" />
    <glyph glyph-name="uni1E9E" unicode="&#x1e9e;" horiz-adv-x="604" 
d="M38 0v40h43q22 0 22 22v463q0 73 51 124t124 51h256v-30l-173 -242l-27 -36v-2h36q80 0 136.5 -57t56.5 -137q0 -81 -56.5 -138.5t-136.5 -57.5h-96v40h94q64 0 107 45.5t43 110.5q0 64 -42.5 109t-105.5 45h-93v32l156 220l44 58v2q-6 -2 -42 -2h-151q-60 0 -99 -39
t-39 -96v-467q0 -31 -13.5 -44.5t-44.5 -13.5h-50z" />
    <glyph glyph-name="endash" unicode="&#x2013;" horiz-adv-x="604" 
d="M64 263v40h476v-40h-476z" />
    <glyph glyph-name="emdash" unicode="&#x2014;" horiz-adv-x="804" 
d="M64 263v40h676v-40h-676z" />
    <glyph glyph-name="quoteleft" unicode="&#x2018;" horiz-adv-x="192" 
d="M58 556l48 151h39l-35 -151h-52z" />
    <glyph glyph-name="quoteright" unicode="&#x2019;" horiz-adv-x="189" 
d="M61 558l35 151h52l-48 -151h-39z" />
    <glyph glyph-name="quotesinglbase" unicode="&#x201a;" horiz-adv-x="217" 
d="M52 -90l35 151h52l-48 -151h-39z" />
    <glyph glyph-name="quotedblleft" unicode="&#x201c;" horiz-adv-x="292" 
d="M158 556l48 151h39l-35 -151h-52zM58 556l48 151h39l-35 -151h-52z" />
    <glyph glyph-name="quotedblright" unicode="&#x201d;" horiz-adv-x="289" 
d="M161 558l35 151h52l-48 -151h-39zM61 558l35 151h52l-48 -151h-39z" />
    <glyph glyph-name="quotedblbase" unicode="&#x201e;" horiz-adv-x="317" 
d="M152 -90l35 151h52l-48 -151h-39zM52 -90l35 151h52l-48 -151h-39z" />
    <glyph glyph-name="dagger" unicode="&#x2020;" horiz-adv-x="377" 
d="M165 -50v510h-114v40h114v200h42v-200h119v-40h-119v-510h-42z" />
    <glyph glyph-name="daggerdbl" unicode="&#x2021;" horiz-adv-x="383" 
d="M54 186v40h114v234h-114v40h114v200h42v-200h119v-40h-119v-234h119v-40h-119v-236h-42v236h-114z" />
    <glyph glyph-name="bullet" unicode="&#x2022;" horiz-adv-x="422" 
d="M211 159q-55 0 -93.5 38.5t-38.5 93.5t38.5 93.5t93.5 38.5t93.5 -38.5t38.5 -93.5t-38.5 -93.5t-93.5 -38.5z" />
    <glyph glyph-name="ellipsis" unicode="&#x2026;" horiz-adv-x="611" 
d="M490 0v59h57v-59h-57zM277 0v59h57v-59h-57zM64 0v59h57v-59h-57z" />
    <glyph glyph-name="perthousand" unicode="&#x2030;" horiz-adv-x="985" 
d="M183 451q-54 0 -92 38t-38 92t38 92.5t92 38.5t92.5 -38.5t38.5 -92.5t-38.5 -92t-92.5 -38zM51 0l531 700h52l-531 -700h-52zM183 491q37 0 62.5 26t25.5 64t-25.5 64.5t-62.5 26.5t-62 -26.5t-25 -64.5t25 -64t62 -26zM689 118q0 54 38 92.5t92 38.5t92.5 -38.5
t38.5 -92.5t-38.5 -92t-92.5 -38t-92 38t-38 92zM369 118q0 54 38 92.5t92 38.5t92.5 -38.5t38.5 -92.5t-38.5 -92t-92.5 -38t-92 38t-38 92zM732 118q0 -38 25 -64t62 -26t62.5 26t25.5 64t-25.5 64.5t-62.5 26.5t-62 -26.5t-25 -64.5zM412 118q0 -38 25 -64t62 -26
t62.5 26t25.5 64t-25.5 64.5t-62.5 26.5t-62 -26.5t-25 -64.5z" />
    <glyph glyph-name="guilsinglleft" unicode="&#x2039;" horiz-adv-x="319" 
d="M213 77l-164 205l164 206h53l-164 -206l164 -205h-53z" />
    <glyph glyph-name="guilsinglright" unicode="&#x203a;" horiz-adv-x="319" 
d="M53 77l164 205l-164 206h53l164 -206l-164 -205h-53z" />
    <glyph glyph-name="fraction" unicode="&#x2044;" horiz-adv-x="150" 
d="M-53 0h-47l306 700h46z" />
    <glyph glyph-name="Euro" unicode="&#x20ac;" 
d="M28 273v40h54q-2 19 -2 37l3 52h-55v40h62q28 119 119.5 194.5t213.5 75.5q23 0 45.5 -3t33.5 -5l10 -3l-10 -42q-36 11 -79 11q-106 0 -183 -62.5t-104 -165.5h328l-8 -40h-328q-4 -21 -4 -50l2 -39h314l-7 -40h-301q23 -108 102 -175.5t189 -67.5q23 0 45 3t32 7l11 3
l12 -41q-43 -14 -100 -14q-126 0 -219 79.5t-117 205.5h-59z" />
    <glyph glyph-name="numero" unicode="&#x2116;" horiz-adv-x="1005" 
d="M42 0v40h43q22 0 22 22v638h40l399 -549l57 -88h2q-5 53 -5 88v491q0 31 13.5 44.5t44.5 13.5h50v-40h-43q-22 0 -22 -22v-638h-40l-399 549l-57 88h-2q5 -53 5 -88v-491q0 -31 -13.5 -44.5t-44.5 -13.5h-50zM722 480q0 51 35.5 86.5t86.5 35.5t87 -35.5t36 -86.5
q0 -53 -36 -89t-87 -36t-86.5 36t-35.5 89zM762 480q0 -37 24 -62t58 -25q35 0 59 25t24 62q0 36 -24 59.5t-59 23.5q-34 0 -58 -23.5t-24 -59.5zM741 243v37h219v-37h-219z" />
    <glyph glyph-name="trademark" unicode="&#x2122;" horiz-adv-x="975" 
d="M426 264v37h26q11 0 12 11l30 388h35l126 -270l14 -40h2q5 20 14 40l126 270h35l30 -388q1 -11 12 -11h26v-37h-29q-26 0 -35.5 9.5t-11.5 37.5l-23 281l1 28h-2l-127 -274h-34l-127 274h-2l1 -28l-23 -281q-2 -28 -11.5 -37.5t-35.5 -9.5h-29zM218 264v398h-110
q-11 0 -11 -11v-30h-39v32q0 27 10 37t37 10h266q27 0 37 -10t10 -37v-32h-39v30q0 11 -11 11h-111v-398h-39z" />
    <glyph glyph-name="minus" unicode="&#x2212;" 
d="M32 263v40h496v-40h-496z" />
    <glyph glyph-name="infinity" unicode="&#x221e;" horiz-adv-x="437" 
d="M219 184q-68 0 -116.5 48.5t-48.5 116.5t48.5 116t116.5 48t116 -48t48 -116t-48 -116.5t-116 -48.5z" />
    <glyph glyph-name="approxequal" unicode="&#x2248;" 
d="M65 321l-25 30q64 66 141 66q50 0 107.5 -35t90.5 -35q60 0 116 56l25 -30q-64 -66 -141 -66q-50 0 -107.5 35t-90.5 35q-60 0 -116 -56zM65 161l-25 30q64 66 141 66q50 0 107.5 -35t90.5 -35q60 0 116 56l25 -30q-64 -66 -141 -66q-50 0 -107.5 35t-90.5 35
q-60 0 -116 -56z" />
    <glyph glyph-name="notequal" unicode="&#x2260;" 
d="M109 92l68 91h-126v40h156l91 120h-247v40h277l90 119l33 -25l-71 -94h127v-40h-157l-91 -120h248v-40h-278l-87 -116z" />
    <glyph glyph-name="lessequal" unicode="&#x2264;" 
d="M53 265v36l439 197v-48l-377 -166v-2l377 -166v-48zM53 -113h439v-40h-439v40z" />
    <glyph glyph-name="greaterequal" unicode="&#x2265;" 
d="M68 68v48l377 166v2l-377 166v48l439 -197v-36zM67 -113h439v-40h-439v40z" />
    <glyph glyph-name="commaaccent" unicode="&#xf6c3;" horiz-adv-x="335" 
d="M142 -66h48q6 -26 6 -47q0 -37 -22 -87h-39q18 47 18 78q0 27 -11 56z" />
    <glyph glyph-name="cyrbreve" unicode="&#xf6d4;" horiz-adv-x="276" 
d="M138 734q-48 0 -83 29.5t-35 79.5v18h42v-15q0 -34 22 -53t54 -19q31 0 54 19.5t23 53.5v14h41v-18q0 -50 -35 -79.5t-83 -29.5z" />
    <glyph glyph-name="apple" unicode="&#xf8ff;" horiz-adv-x="1130" 
d="M42 128v278l126 71v151l265 142l134 -71l132 71l265 -142v-151l124 -71v-278l-124 -72v-152l-265 -141l-132 71l-134 -71l-265 141v152zM94 142l114 -64v-139l238 -126l121 66l118 -66l238 126v139l114 64v249l-114 66v136l-238 126l-118 -64l-121 64l-238 -126v-136
l-114 -66v-249zM143 154v225l99 58v123l215 114l110 -59l107 59l214 -114v-123l100 -58v-225l-100 -60v-121l-214 -114l-107 58l-110 -58l-215 114v121zM447 0h43v228h228v40h-228v192h199q17 0 23 -6.5t6 -22.5v-42h42v54q0 30 -13 43.5t-45 13.5h-320v-40h65v-460z" />
    <glyph glyph-name="zero.tnum" 
d="M280 -12q-236 0 -236 362t236 362t236 -362t-236 -362zM280 30q54 0 92.5 24t59.5 69t30 100t9 127q0 320 -191 320t-191 -320q0 -72 9 -127t30 -100t59.5 -69t92.5 -24z" />
    <glyph glyph-name="one.tnum" 
d="M115 0v40h159v570l1 35h-2q-7 -13 -37 -43l-83 -83l-30 29l151 152h43v-660h155v-40h-357z" />
    <glyph glyph-name="two.tnum" 
d="M47 58q0 53 21 96t55 72t74.5 53.5t81.5 48t75 48.5t55 62t21 82q0 65 -44 107.5t-118 42.5q-57 0 -98 -25t-41 -60v-34h-43v44q0 40 33.5 68t73 38.5t76.5 10.5q98 0 152 -56t54 -136q0 -50 -21 -91.5t-55 -69.5t-75 -53t-82.5 -49t-75.5 -50t-55 -63t-21 -82
q0 -22 22 -22h332q22 0 22 22v49h42v-53q0 -31 -13.5 -44.5t-44.5 -13.5h-345q-31 0 -44.5 13.5t-13.5 44.5z" />
    <glyph glyph-name="three.tnum" 
d="M52 85l32 32q3 -4 8.5 -9.5t24.5 -20.5t39.5 -26.5t52 -21t63.5 -9.5q70 0 122.5 48.5t52.5 123.5q0 78 -55.5 122.5t-131.5 44.5h-48l-12 30l196 229l31 32v2q-19 -2 -54 -2h-224q-22 0 -22 -22v-49h-42v53q0 31 13.5 44.5t44.5 13.5h344v-30l-226 -261q36 0 72.5 -9.5
t74 -31.5t61 -65t23.5 -101q0 -89 -65.5 -151.5t-156.5 -62.5q-37 0 -73.5 10t-61.5 24.5t-44.5 28.5t-28.5 24z" />
    <glyph glyph-name="four.tnum" 
d="M18 200v30l363 470h40v-460h113v-40h-113v-200h-43v200h-360zM74 237q28 3 56 3h248v328l3 63h-2q-17 -25 -35 -48l-233 -301l-37 -43v-2z" />
    <glyph glyph-name="five.tnum" 
d="M62 89l35 27l6 -9t18.5 -21t31.5 -26t45.5 -20.5t60.5 -9.5q82 0 138 52.5t56 130.5q0 79 -56 132t-138 53q-36 0 -70 -10.5t-50 -21.5l-16 -10l-32 11l32 275q4 32 16 45t42 13h218q30 0 43.5 -13.5t13.5 -44.5v-53h-42v49q0 22 -22 22h-204q-19 0 -22 -22l-22 -187
l-7 -43h2q49 32 120 32q100 0 169.5 -66t69.5 -161q0 -94 -70 -159.5t-169 -65.5q-38 0 -72.5 10.5t-56 25t-38 29.5t-23.5 25z" />
    <glyph glyph-name="six.tnum" 
d="M299 -12q-113 0 -179 91t-66 226q0 69 17.5 138t51.5 130.5t94.5 100t137.5 38.5q32 0 62.5 -7t44.5 -14l15 -7l-21 -39q-43 25 -103 25q-47 0 -88 -19t-69.5 -51t-50 -75t-33 -90t-14.5 -96h2q27 48 81 74t118 26q94 0 154.5 -60t60.5 -158q0 -109 -62 -171t-153 -62z
M103 258q0 -79 56 -153.5t139 -74.5q79 0 125 53t46 138q0 81 -47.5 128.5t-124.5 47.5q-78 0 -136 -44.5t-58 -94.5z" />
    <glyph glyph-name="seven.tnum" 
d="M122 0l312 595l37 65v2q-20 -2 -55 -2h-289q-22 0 -22 -22v-49h-42v53q0 31 13.5 44.5t44.5 13.5h403v-30l-352 -670h-50z" />
    <glyph glyph-name="eight.tnum" 
d="M49 195q0 36 13.5 68.5t33 54t39 37.5t33.5 23l13 7v2l-11 5.5t-25 16.5t-32 28.5t-25 41.5t-11 55q0 74 55.5 126t150.5 52q96 0 152 -50.5t56 -131.5q0 -31 -10.5 -61t-25.5 -50.5t-29.5 -36.5t-25.5 -24l-10 -8v-2q58 -28 88.5 -64.5t30.5 -96.5q0 -82 -67 -140.5
t-161 -58.5t-163 55.5t-69 151.5zM275 391q54 -21 69 -21q24 0 63 52t39 108q0 64 -45.5 102t-117.5 38q-74 0 -117.5 -38.5t-43.5 -97.5q0 -31 11 -53.5t36 -39.5t46 -26.5t60 -23.5zM94 195q0 -74 56 -119.5t131 -45.5q71 0 127 44.5t56 111.5q0 56 -36.5 87t-111.5 60
q-75 30 -90 30q-30 0 -81 -51.5t-51 -116.5z" />
    <glyph glyph-name="nine.tnum" 
d="M82 16l21 39q43 -25 103 -25q59 0 107 29t78.5 77t48 106t21.5 120h-2q-27 -48 -81 -74.5t-118 -26.5q-94 0 -154.5 60t-60.5 158q0 109 62 171t153 62q113 0 179 -91t66 -226q0 -69 -17.5 -138t-51.5 -130.5t-94.5 -100t-137.5 -38.5q-32 0 -62.5 7t-45.5 14zM262 303
q78 0 136 44.5t58 94.5q0 79 -56 153.5t-139 74.5q-79 0 -125 -53t-46 -138q0 -81 47.5 -128.5t124.5 -47.5z" />
    <glyph glyph-name="hyphen.case" horiz-adv-x="404" 
d="M64 329v40h276v-40h-276z" />
    <glyph glyph-name="parenleft.case" horiz-adv-x="234" 
d="M159 -65q-112 196 -112 430q0 218 104 390h44q-107 -180 -107 -387q0 -232 115 -433h-44z" />
    <glyph glyph-name="parenright.case" horiz-adv-x="234" 
d="M31 -65q115 201 115 433q0 207 -107 387h44q104 -172 104 -390q0 -234 -112 -430h-44z" />
    <glyph glyph-name="bracketleft.case" horiz-adv-x="241" 
d="M88 -7v704q0 31 13.5 44.5t44.5 13.5h50v-40h-43q-22 0 -22 -22v-696q0 -22 22 -22h43v-40h-50q-31 0 -44.5 13.5t-13.5 44.5z" />
    <glyph glyph-name="bracketright.case" horiz-adv-x="241" 
d="M45 -25h43q22 0 22 22v696q0 22 -22 22h-43v40h50q31 0 44.5 -13.5t13.5 -44.5v-704q0 -31 -13.5 -44.5t-44.5 -13.5h-50v40z" />
    <glyph glyph-name="braceleft.case" horiz-adv-x="282" 
d="M111 118v94q0 30 -9 53.5t-21 35t-24.5 19t-21.5 9.5l-9 2v40q3 0 9 1.5t20.5 9.5t26 19.5t20.5 35t9 53.5v81q0 59 16 99.5t41 56.5t43 21.5t36 5.5h9v-39h-6q-13 0 -25.5 -4t-30.5 -17t-29 -44.5t-11 -77.5v-93q0 -27 -8 -50t-19.5 -36.5t-23.5 -23.5t-20 -13l-8 -4v-2
q3 -1 8.5 -3.5t19 -12.5t24 -22.5t19 -36.5t8.5 -52v-106q0 -46 11 -77.5t29 -44.5t30.5 -17t25.5 -4h6v-39q-3 -1 -9 -1q-13 0 -26.5 2.5t-34.5 13.5t-36.5 29t-27 54.5t-11.5 84.5z" />
    <glyph glyph-name="braceright.case" horiz-adv-x="282" 
d="M26 -26h6q13 0 25.5 4t30.5 17t29 44.5t11 77.5v106q0 45 20 76.5t40 40.5l19 10v2q-3 1 -8.5 3.5t-19 13t-24 23.5t-19 36.5t-8.5 50.5v93q0 46 -11 77.5t-29 44.5t-30.5 17t-25.5 4h-6v39h9q18 0 36 -5.5t43 -21.5t41 -56.5t16 -99.5v-81q0 -30 9 -53.5t21 -35
t24.5 -19t21.5 -9.5l9 -2v-40q-3 0 -9 -1.5t-20.5 -9.5t-26 -19.5t-20.5 -35t-9 -53.5v-94q0 -48 -11.5 -84.5t-27 -54.5t-36.5 -29t-34.5 -13.5t-26.5 -2.5l-9 1v39z" />
    <glyph glyph-name="at.case" horiz-adv-x="738" 
d="M51 350q0 151 102 258t244 107q120 0 176 -51t56 -126v-344h70v-40h-265q-80 0 -136.5 57t-56.5 137q0 81 56.5 138.5t136.5 57.5h150q-3 57 -46 94t-135 37q-129 0 -218 -94.5t-89 -230.5t88.5 -229.5t218.5 -93.5v-42q-146 0 -249 106.5t-103 258.5zM286 348
q0 -64 44.5 -109t108.5 -45h145v310h-143q-65 0 -110 -46t-45 -110z" />
    <glyph glyph-name="guillemotleft.case" horiz-adv-x="479" 
d="M372 137l-164 205l164 206h53l-164 -206l164 -205h-53zM212 137l-164 205l164 206h53l-164 -206l164 -205h-53z" />
    <glyph glyph-name="guillemotright.case" horiz-adv-x="479" 
d="M214 137l164 205l-164 206h53l164 -206l-164 -205h-53zM54 137l164 205l-164 206h53l164 -206l-164 -205h-53z" />
    <glyph glyph-name="guilsinglleft.case" horiz-adv-x="319" 
d="M212 137l-164 205l164 206h53l-164 -206l164 -205h-53z" />
    <glyph glyph-name="guilsinglright.case" horiz-adv-x="319" 
d="M54 137l164 205l-164 206h53l164 -206l-164 -205h-53z" />
    <glyph glyph-name="endash.case" horiz-adv-x="606" 
d="M65 323v40h476v-40h-476z" />
    <glyph glyph-name="emdash.case" horiz-adv-x="806" 
d="M65 323v40h676v-40h-676z" />
    <glyph glyph-name="periodcentered.case" horiz-adv-x="185" 
d="M64 317v59h57v-59h-57z" />
    <glyph glyph-name="questiondown.case" horiz-adv-x="431" 
d="M223 641v59h57v-59h-57zM49 160q0 46 18.5 82.5t45 61.5t53.5 49t45.5 56.5t18.5 71.5v44h43v-44q0 -45 -18.5 -82.5t-44.5 -63.5t-52.5 -50.5t-45 -56.5t-18.5 -69q0 -55 41 -92t105 -37q32 0 64 10.5t48 21.5l15 10l23 -34q-7 -6 -19 -14t-51 -22t-79 -14
q-85 0 -138.5 49t-53.5 123z" />
    <glyph glyph-name="exclamdown.case" horiz-adv-x="241" 
d="M91 641v59h57v-59h-57zM99 0v525h43v-525h-43z" />
    <glyph glyph-name="bullet.case" horiz-adv-x="418" 
d="M209 219q-55 0 -93.5 38.5t-38.5 93.5t38.5 93.5t93.5 38.5t93.5 -38.5t38.5 -93.5t-38.5 -93.5t-93.5 -38.5z" />
    <glyph glyph-name="uni0433.BUL" horiz-adv-x="414" 
d="M41 112q0 45 28.5 78t69.5 53t82.5 39t70 46t28.5 63q0 39 -30.5 59.5t-78.5 20.5q-46 0 -82 -17t-36 -46v-21h-42v33q0 43 49.5 67.5t111.5 24.5q68 0 110 -31t42 -90q0 -39 -20.5 -69.5t-51.5 -48t-67.5 -35.5t-67.5 -32.5t-51.5 -38.5t-20.5 -54q0 -41 33 -62.5
t83 -21.5q51 0 93.5 21t60.5 42l27 -32q-24 -26 -71 -49t-110 -23q-71 0 -115.5 32.5t-44.5 91.5z" />
    <glyph glyph-name="uni0434.BUL" horiz-adv-x="563" 
d="M107 -134q62 -35 134 -35q85 0 137.5 42.5t52.5 129.5v53l2 41h-2q-48 -97 -166 -97q-98 0 -160 71t-62 187q0 117 58.5 185.5t156.5 68.5q40 0 72 -9.5t50 -23t30 -27.5t16 -24l4 -9h2q-1 11 -1 23q0 31 13.5 44.5t44.5 13.5h49v-38h-43q-22 0 -22 -22v-437
q0 -108 -65.5 -160.5t-163.5 -52.5q-81 0 -157 39zM268 41q73 0 118.5 51.5t45.5 165.5q0 213 -174 213q-81 0 -126 -56t-45 -157q0 -100 50 -158.5t131 -58.5z" />
    <glyph glyph-name="uni0436.BUL" horiz-adv-x="702" 
d="M20 0l133 212q12 18 26 29t23 13l8 1v2q-26 8 -41 38l-72 144q-7 14 -17.5 18.5t-32.5 4.5h-17v38h17q41 0 58.5 -9.5t34.5 -43.5l66 -134q20 -39 70 -39h54v426h42v-426h54q50 0 70 39l66 134q17 34 34.5 43.5t58.5 9.5h17v-38h-17q-22 0 -32.5 -4.5t-17.5 -18.5
l-72 -144q-7 -13 -17 -22.5t-17 -12.5l-7 -3v-2q31 -2 57 -43l134 -212h-52l-116 187q-18 29 -39.5 38.5t-52.5 9.5h-51v-235h-42v235h-51q-31 0 -52.5 -9.5t-39.5 -38.5l-115 -187h-52z" />
    </font>
</defs>
</svg>
