<?xml version="1.0" standalone="no"?>
<!DOCTYPE svg PUBLIC "-//W3C//DTD SVG 1.1//EN" "http://www.w3.org/Graphics/SVG/1.1/DTD/svg11.dtd" >
<svg>
<metadata>
Created by FontForge 20090914 at Wed Jun 24 15:40:02 2015
 By www-data
Copyright &#194;&#169; 2013, Natanael Gama (www.ndiscovered.com . info(at)ndiscovered.com), with Reserved Font Name Exo. This Font Software is licensed under the SIL Open Font License, Version 1.1.
</metadata>
<defs>
<font id="Exo2-ExtraLight" horiz-adv-x="563" >
  <font-face 
    font-family="Exo 2 Extra Light"
    font-weight="250"
    font-stretch="normal"
    units-per-em="1000"
    panose-1="0 0 3 0 0 0 0 0 0 0"
    ascent="800"
    descent="-200"
    x-height="482"
    cap-height="690"
    bbox="-173 -264.001 1189 923"
    underline-thickness="50"
    underline-position="-50"
    unicode-range="U+0020-U+FB02"
  />
<missing-glyph horiz-adv-x="600" 
 />
    <glyph glyph-name=".notdef" horiz-adv-x="600" 
 />
    <glyph glyph-name="space" unicode=" " horiz-adv-x="228" 
 />
    <glyph glyph-name="exclam" unicode="!" horiz-adv-x="258" 
d="M149 363l-3 -158h-33l-4 158v332h40v-332zM123 94h13c11.333 0 17 -5.66699 17 -17v-60c0 -11.333 -5.66699 -17 -17 -17h-13c-11.333 0 -17 5.66699 -17 17v60c0 11.333 5.66699 17 17 17z" />
    <glyph glyph-name="quotedbl" unicode="&#x22;" horiz-adv-x="334" 
d="M116 480h-30l-3 210h36zM248 480h-30l-3 210h35z" />
    <glyph glyph-name="numbersign" unicode="#" horiz-adv-x="672" 
d="M500 464l-36 -209h109l-5 -31h-109l-39 -224h-36l39 224h-215l-39 -224h-36l39 224h-116l6 31h115l36 209h-115l6 31h115l34 195h36l-34 -195h215l34 195h36l-34 -195h109l-5 -31h-110zM464 464h-215l-36 -209h215z" />
    <glyph glyph-name="dollar" unicode="$" horiz-adv-x="560" 
d="M300 365l60.001 -9.99902c51.333 -7.33301 87.5 -25.166 108.5 -53.499s31.5 -71.833 31.5 -130.5c0 -40 -4.33301 -72.333 -13 -97s-23 -43.167 -43 -55.5s-41.833 -20.333 -65.5 -24s-55.167 -5.5 -94.5 -5.5h-8l-7 -122h-28l7 122
c-64 1.33301 -121 5.66602 -171 12.999l4 31c71.333 -4 128 -6 170 -6l18 304l-68 11c-48 7.33301 -82.5 25.333 -103.5 54s-31.5 71 -31.5 127c0 40.667 4 73.167 12 97.5s21.833 42.333 41.5 54s41 19.167 64 22.5s54.5 4.66602 94.5 3.99902h14l6 102h27l-6 -103
c55.333 -2 105.666 -6.33301 150.999 -13l-4 -30c-47.333 2.66699 -97 4.66699 -149 6zM290.001 664.001l-11.002 0.000976562c-24.667 0 -43.167 -0.333008 -55.5 -1s-26.333 -2.33398 -42 -5.00098s-27.167 -7 -34.5 -13s-14.666 -14.167 -21.999 -24.5
s-12.166 -23.5 -14.499 -39.5s-3.5 -35.667 -3.5 -59c0 -46.667 7.83301 -80.5 23.5 -101.5s42.5 -34.5 80.5 -40.5l61 -10zM277.999 27.002l7 -0.000976562c66.667 0.666992 112.167 9.83398 136.5 27.501s36.5 56.5 36.5 116.5c0 50 -8 85.333 -24 106s-43.667 34 -83 40
l-55 9z" />
    <glyph glyph-name="percent" unicode="%" horiz-adv-x="886" 
d="M210 702c56 0 95.5 -16 118.5 -48s34.5 -84 34.5 -156s-11.5 -124 -34.5 -156s-62.5 -48 -118.5 -48s-95.5 16 -118.5 48s-34.5 84 -34.5 156s11.5 124 34.5 156s62.5 48 118.5 48zM222 0h-33l471 690h34zM210 674c-44 0 -74.833 -13.5 -92.5 -40.5
s-26.5 -72.167 -26.5 -135.5s8.83301 -108.5 26.5 -135.5s48.5 -40.5 92.5 -40.5s74.833 13.5 92.5 40.5s26.5 72.167 26.5 135.5s-8.83301 108.5 -26.5 135.5s-48.5 40.5 -92.5 40.5zM676 401c55.333 0 94.5 -16 117.5 -48s34.5 -84 34.5 -156
c0 -72.667 -11.5 -125 -34.5 -157s-62.167 -48 -117.5 -48c-56 0 -95.5 16 -118.5 48s-34.5 84.333 -34.5 157c0 72 11.5 124 34.5 156s62.5 48 118.5 48zM675 373c-44 0 -74.667 -13.5 -92 -40.5s-26 -72.167 -26 -135.5s8.66699 -108.666 26 -135.999s48 -41 92 -41
s74.833 13.667 92.5 41s26.5 72.666 26.5 135.999s-8.83301 108.5 -26.5 135.5s-48.5 40.5 -92.5 40.5z" />
    <glyph glyph-name="ampersand" unicode="&#x26;" horiz-adv-x="780" 
d="M721 29l5 -28.002c-30 -5.33301 -60.333 -8 -91 -8c-72 0 -109.667 32.667 -113 98c-31.333 -36.667 -66.166 -62.5 -104.499 -77.5s-85.5 -22.5 -141.5 -22.5c-72.667 0 -124 13.333 -154 40s-45 74.334 -45 143.001c0 56 10.333 99.333 31 130s55.667 48 105 52v4
c-41.333 3.33301 -71 18.333 -89 45s-27 65.334 -27 116.001c0 39.333 4.66699 71 14 95s25.666 42 48.999 54s49.333 19.833 78 23.5s67.667 5.5 117 5.5c59.333 0 112.333 -3 159 -9l-6 -30c-20.667 2 -72.334 3 -155.001 3c-84 0 -140.667 -9 -170 -27
s-44 -57.667 -44 -119c0 -56 11.833 -93.833 35.5 -113.5s66.834 -29.5 129.501 -29.5h219l6 149h32v-149h137l-3 -33h-134v-236c0 -50.667 25.333 -76 76 -76h84zM522 340.998h-219c-68 0 -115.5 -11.5 -142.5 -34.5s-40.5 -65.833 -40.5 -128.5
c0 -56.667 11.667 -95.834 35 -117.501s65 -32.5 125 -32.5c56 0 102.833 8.33301 140.5 25s71.5 43.334 101.5 80.001v208z" />
    <glyph glyph-name="quotesingle" unicode="'" horiz-adv-x="202" 
d="M116 480h-30l-3 210h36z" />
    <glyph glyph-name="parenleft" unicode="(" horiz-adv-x="356" 
d="M309 790l6 -23.9961c-72 -36.667 -124.833 -91.667 -158.5 -165s-50.5 -169.333 -50.5 -288c0 -116.667 16.833 -211.834 50.5 -285.501s86.5 -129.834 158.5 -168.501l-6 -24c-84 37.333 -145.667 94.666 -185 171.999s-59 179 -59 305
c0 127.333 19.667 229.666 59 306.999s101 134.333 185 171z" />
    <glyph glyph-name="parenright" unicode=")" horiz-adv-x="356" 
d="M42 766l5 23.9951c84 -36.667 145.667 -93.667 185 -171s59 -179.666 59 -306.999c0 -126 -19.667 -227.667 -59 -305s-101 -134.666 -185 -171.999l-5 24c71.333 38.667 123.833 94.834 157.5 168.501s50.5 168.834 50.5 285.501c0 118 -16.833 213.833 -50.5 287.5
s-86.167 128.834 -157.5 165.501z" />
    <glyph glyph-name="asterisk" unicode="*" horiz-adv-x="452" 
d="M236 535l96 -129l-24 -17l-82 124l-82 -123l-25 17l96 128l-4 155h31zM199 550l-1 -13l-6 -9l-125 37l11 29zM386 564l-127 -36l-6 9v13l123 43z" />
    <glyph glyph-name="plus" unicode="+" horiz-adv-x="552" 
d="M487 281h-195v-184h-32v184h-195v33h194v184h34v-184h194v-33z" />
    <glyph glyph-name="comma" unicode="," horiz-adv-x="213" 
d="M101 94h13c11.333 0 17 -5.66699 17 -17v-64c-1.33301 -48 -9 -92.667 -23 -134l-19 7c3.33301 33.333 5 71.333 5 114c-3.33301 0 -6 1.5 -8 4.5s-2.66699 6.5 -2 10.5v62c-0.666992 11.333 5 17 17 17z" />
    <glyph glyph-name="hyphen" unicode="-" horiz-adv-x="474" 
d="M392 235h-310v33h310v-33z" />
    <glyph glyph-name="period" unicode="." horiz-adv-x="212" 
d="M99 94h14c11.333 0 17 -5.66699 17 -17v-60c0 -11.333 -5.66699 -17 -17 -17h-14c-12 0 -18 5.66699 -18 17v60c0 11.333 6 17 18 17z" />
    <glyph glyph-name="slash" unicode="/" horiz-adv-x="500" 
d="M72 -61h-37l393 751h37z" />
    <glyph glyph-name="zero" unicode="0" horiz-adv-x="589" 
d="M294 702c81.333 0 138.5 -28.167 171.5 -84.5s49.5 -147.166 49.5 -272.499s-16.5 -216.166 -49.5 -272.499s-90.167 -84.5 -171.5 -84.5c-80.667 0 -137.5 28.167 -170.5 84.5s-49.5 147.166 -49.5 272.499s16.5 216.166 49.5 272.499s89.833 84.5 170.5 84.5zM294 665
c-66 0 -112.333 -25 -139 -75s-40 -131.667 -40 -245s13.333 -195 40 -245s73 -75 139 -75s112.5 25 139.5 75s40.5 131.667 40.5 245s-13.5 195 -40.5 245s-73.5 75 -139.5 75z" />
    <glyph glyph-name="one" unicode="1" horiz-adv-x="383" 
d="M260 0h-41v600c0 16.667 1 33 3 49l-182 -60l-7 29l186 72h41v-690z" />
    <glyph glyph-name="two" unicode="2" horiz-adv-x="558" 
d="M72 644l-6.00098 30.998c74.667 18 141.334 27 200.001 27c70.667 0 122.334 -9.5 155.001 -28.5s49 -56.5 49 -112.5c0 -44 -10.333 -85.5 -31 -124.5s-55.334 -86.833 -104.001 -143.5l-223 -256c25.333 0.666992 64.333 1 117 1h270v-38h-439v25
c0 8 2.33301 14.667 7 20l230 264c47.333 53.333 81.166 99.833 101.499 139.5s29.833 78.834 28.5 117.501c-2 40.667 -15.667 67.334 -41 80.001s-64.666 19 -117.999 19c-60.667 0 -126 -7 -196 -21z" />
    <glyph glyph-name="three" unicode="3" horiz-adv-x="553" 
d="M76 654l-7.00293 30.998c66 11.333 126.333 17 181 17c76.667 0 130.5 -11.5 161.5 -34.5s46.5 -64.5 46.5 -124.5c0 -101.333 -35.667 -159.333 -107 -174v-4c82 -13.333 124 -71 126 -173c1.33301 -70 -14.167 -121.5 -46.5 -154.5s-86.833 -49.5 -163.5 -49.5
c-55.333 0 -124.666 5.66699 -207.999 17l6 32c80 -8 145 -12 195 -12c62.667 0 107.667 12.833 135 38.5s41 69.167 41 130.5c0 22 -2.16699 41.5 -6.5 58.5s-12.166 33 -23.499 48s-28.166 26.667 -50.499 35s-49.833 12.833 -82.5 13.5h-128v31l128 2
c31.333 0.666992 57.333 5.83398 78 15.501s35.5 22.834 44.5 39.501s15 32.5 18 47.5s4.5 32.5 4.5 52.5c-1.33301 50.667 -14 84.667 -38 102s-68.333 26 -133 26c-59.333 0 -116.333 -3.66699 -171 -11z" />
    <glyph glyph-name="four" unicode="4" horiz-adv-x="600" 
d="M548 194l-84 -4v-190h-40v189h-317c-22.667 0 -39.5 9.16699 -50.5 27.5s-11.167 37.833 -0.5 58.5l216 415h42l-218 -419c-6 -12.667 -6.16699 -23.667 -0.5 -33s15.167 -14 28.5 -14h300v219l9 116h31v-335h84v-30z" />
    <glyph glyph-name="five" unicode="5" horiz-adv-x="529" 
d="M440 654l-303.997 -0.00195312l-11 -245l60 -1c52.667 -1.33301 95 -4.83301 127 -10.5s60.333 -15.834 85 -30.501s42 -35 52 -61s15 -60 15 -102c0 -24.667 -1.33301 -46.334 -4 -65.001s-8.33398 -38 -17.001 -58s-20.5 -36.333 -35.5 -49
s-35.833 -23.167 -62.5 -31.5s-58.334 -12.5 -95.001 -12.5c-56 0 -118.667 9 -188 27l7 32c66.667 -15.333 124.667 -23 174 -23c71.333 0 119.166 14.833 143.499 44.5s36.833 74.834 37.5 135.501c0 22.667 -2 42.334 -6 59.001s-9 31 -15 43s-15.667 22 -29 30
s-26.333 14.5 -39 19.5s-31 8.83301 -55 11.5s-46.5 4.33398 -67.5 5.00098s-49.167 1.33398 -84.5 2.00098h-23c-13.333 1.33301 -19.333 8.33301 -18 21l15 295h342z" />
    <glyph glyph-name="six" unicode="6" horiz-adv-x="566" 
d="M458 689l-7.99902 -29.998c-26 4.66699 -64.667 7 -116 7c-41.333 0 -74.333 -3.66699 -99 -11s-46 -22.333 -64 -45s-30.833 -54.5 -38.5 -95.5s-12.167 -95.5 -13.5 -163.5c28.667 34.667 57.5 58.667 86.5 72s65.5 20 109.5 20c71.333 0 120.333 -17 147 -51
s40 -94.667 40 -182c0 -38 -2.5 -69.167 -7.5 -93.5s-14.5 -47 -28.5 -68s-35 -36.333 -63 -46s-64 -14.5 -108 -14.5c-46.667 0 -84.167 5.16699 -112.5 15.5s-50.333 29.166 -66 56.499s-26.167 59.833 -31.5 97.5s-8 88.167 -8 151.5c0 68.667 3.16699 126.167 9.5 172.5
s15.5 84.166 27.5 113.499s29 51.833 51 67.5s45.833 26.167 71.5 31.5s58.167 8 97.5 8c49.333 0 90.666 -4.33301 123.999 -13zM296.001 24.002c35.333 0 64.334 3.99902 87.001 11.999s39.667 20.833 51 38.5s18.833 36.834 22.5 57.501s5.5 47.667 5.5 81
c0 72.667 -10.667 123.5 -32 152.5s-62.333 43.5 -123 43.5c-36.667 0 -69 -6.33301 -97 -19s-58.333 -36.334 -91 -71.001v-13c0 -37.333 0.666992 -68.166 2 -92.499s4.16602 -48 8.49902 -71s10.5 -41.167 18.5 -54.5s18.5 -25.333 31.5 -36s29 -18 48 -22
s41.833 -6 68.5 -6z" />
    <glyph glyph-name="seven" unicode="7" horiz-adv-x="507" 
d="M46 690h380.001c33.333 0 44.666 -15.333 33.999 -46l-223 -644h-41l212 613l15 41h-375z" />
    <glyph glyph-name="eight" unicode="8" horiz-adv-x="610" 
d="M194 356l0.000976562 4.00195c-66 7.33301 -99 60 -99 158c0 64.667 15 111 45 139s85 42 165 42c81.333 0 136.666 -13.833 165.999 -41.5s44 -74.167 44 -139.5c0 -98 -33 -150.667 -99 -158v-4c41.333 -4.66699 70.5 -21.667 87.5 -51s25.5 -73.666 25.5 -132.999
c0 -66.667 -15.333 -113.334 -46 -140.001s-90 -40.334 -178 -41.001c-86.667 -0.666992 -145.667 12.5 -177 39.5s-47 74.167 -47 141.5c0 59.333 8.5 103.666 25.5 132.999s46.167 46.333 87.5 51zM306.001 663.002c-68 0 -113.5 -10.5 -136.5 -31.5
s-34.5 -59.5 -34.5 -115.5c0 -59.333 11 -97.666 33 -114.999s68.333 -26 139 -26s116.5 8.66699 137.5 26s31.5 55.666 31.5 114.999c0 56 -11.333 94.5 -34 115.5s-68 31.5 -136 31.5zM307.001 341.002c-40 0 -71.168 -2.00098 -93.501 -6.00098s-41 -12.167 -56 -24.5
s-24.833 -28.666 -29.5 -48.999s-7 -48.5 -7 -84.5c0 -55.333 12.667 -93.833 38 -115.5s74.333 -32.5 147 -32.5s121.334 10.667 146.001 32s37 60 37 116c0 70 -11.5 114.833 -34.5 134.5s-72.167 29.5 -147.5 29.5z" />
    <glyph glyph-name="nine" unicode="9" horiz-adv-x="567" 
d="M98 1l8.00098 30.001c34.667 -4 75.667 -6 123 -6c42 0 75.333 3.66699 100 11s46.334 22.166 65.001 44.499s31.667 54.333 39 96s11.333 96.5 12 164.5c-28.667 -35.333 -57.5 -59.833 -86.5 -73.5s-65.5 -20.5 -109.5 -20.5c-66.667 0 -114.167 18.833 -142.5 56.5
s-42.5 93.834 -42.5 168.501c0 78 15.167 135.833 45.5 173.5s84.5 56.5 162.5 56.5c33.333 0 61.333 -2.16699 84 -6.5s42.167 -12.833 58.5 -25.5s29 -26.834 38 -42.501s16.167 -38 21.5 -67s8.66602 -58.5 9.99902 -88.5s2 -69.333 2 -118
c0 -78.667 -4.5 -142 -13.5 -190s-24.667 -85 -47 -111s-48.333 -43.333 -78 -52s-69.167 -13 -118.5 -13c-50.667 0 -94.334 4.33301 -131.001 13zM257.001 281.001c36.667 0 68.999 6.5 96.999 19.5s58.333 36.833 91 71.5c0 50.667 -1 89.5 -3 116.5s-6 54 -12 81
s-15.333 46.333 -28 58s-29.5 21 -50.5 28s-47.833 10.5 -80.5 10.5c-64.667 0 -108.667 -16 -132 -48s-35 -81.333 -35 -148c0 -64 11.333 -111.5 34 -142.5s62.334 -46.5 119.001 -46.5z" />
    <glyph glyph-name="colon" unicode=":" horiz-adv-x="214" 
d="M99 433h14c12 0 18 -5.66699 18 -17v-61c0 -11.333 -6 -17 -18 -17h-14c-11.333 0 -17 5.66699 -17 17v61c0 11.333 5.66699 17 17 17zM99 94h14c12 0 18 -5.66699 18 -17v-60c0 -11.333 -6 -17 -18 -17h-14c-11.333 0 -17 5.66699 -17 17v60c0 11.333 5.66699 17 17 17z
" />
    <glyph glyph-name="semicolon" unicode=";" horiz-adv-x="216" 
d="M100 433h15c11.333 0 17 -5.66699 17 -17v-61c0 -11.333 -5.66699 -17 -17 -17h-15c-11.333 0 -17 5.66699 -17 17v61c0 11.333 5.66699 17 17 17zM102 94l13 0.000976562c11.333 0 17 -5.66699 17 -17v-64c-1.33301 -46.667 -8.66602 -91.334 -21.999 -134.001l-20 7
c4 40 6 78 6 114c-8.66699 0 -12.334 5 -11.001 15v62c0 11.333 5.66699 17 17 17z" />
    <glyph glyph-name="less" unicode="&#x3c;" horiz-adv-x="538" 
d="M458 459l-359 -163l359 -159v-34l-396 176v34l396 180v-34z" />
    <glyph glyph-name="equal" unicode="=" horiz-adv-x="588" 
d="M505 380h-422v33h422v-33zM505 168h-422v33h422v-33z" />
    <glyph glyph-name="greater" unicode="&#x3e;" horiz-adv-x="538" 
d="M476 313v-34l-396 -176v34l359 159l-359 163v34z" />
    <glyph glyph-name="question" unicode="?" horiz-adv-x="506" 
d="M52 664l-5 28.999c4.66699 0.666992 14.5 2.33398 29.5 5.00098s24.833 4.33398 29.5 5.00098s13.5 1.83398 26.5 3.50098s24.333 2.66699 34 3s22.167 0.833008 37.5 1.5s32.333 1 51 1c131.333 0 197 -51.667 197 -155c0 -28 -6.33301 -53.833 -19 -77.5
s-28.167 -44.5 -46.5 -62.5l-55 -55c-18.333 -18.667 -34 -41.334 -47 -68.001s-19.833 -56.334 -20.5 -89.001h-36c0 35.333 6.16699 67.333 18.5 96s27.5 52.5 45.5 71.5l54 54.5c18 17.333 33.333 36.5 46 57.5s19 43.833 19 68.5c0 42.667 -13 74 -39 94
s-66.667 30 -122 30c-59.333 0 -125.333 -4.33301 -198 -13zM239 93.999h13c11.333 0 17 -5.66699 17 -17v-60c0 -11.333 -5.66699 -17 -17 -17h-13c-11.333 0 -17 5.66699 -17 17v60c0 11.333 5.66699 17 17 17z" />
    <glyph glyph-name="at" unicode="@" horiz-adv-x="699" 
d="M341 572l140.996 0.00390625c90.667 0 136 -41.333 136 -124v-318h-29l-6 79c-23.333 -20.667 -56.166 -40 -98.499 -58s-83.833 -27 -124.5 -27c-39.333 0 -70.166 9.5 -92.499 28.5s-33.5 45.833 -33.5 80.5v53c0 31.333 10 55.666 30 72.999s48.333 26 85 26h232v62
c0 28.667 -7.83301 51 -23.5 67s-42.5 23.667 -80.5 23h-135c-35.333 0 -62.666 -0.666992 -81.999 -2s-38.333 -5.33301 -57 -12s-31.834 -15 -39.501 -25s-14.834 -26.167 -21.501 -48.5s-10.667 -47.166 -12 -74.499s-2 -64 -2 -110c0 -47.333 0.666992 -85 2 -113
s5.66602 -53.5 12.999 -76.5s15.166 -39.667 23.499 -50s23 -19 44 -26s42.333 -11.167 64 -12.5s52.834 -2 93.501 -2h245v-31c-108 -2.66699 -189.333 -4 -244 -4c-45.333 -0.666992 -81.666 0 -108.999 2s-52.333 7.33301 -75 16s-39.5 19.167 -50.5 31.5
s-20.333 31.666 -28 57.999s-12.5 54.666 -14.5 84.999s-3 71.166 -3 122.499c0 48.667 0.833008 87.667 2.5 117s6 56.666 13 81.999s15.333 44 25 56s24.834 22.333 45.501 31s43.334 14.167 68.001 16.5s57.334 3.83301 98.001 4.5zM580.996 359.004l-225.001 -4.00195
c-55.333 -2 -83 -26 -83 -72v-46c0 -51.333 30 -77.666 90 -78.999c34.667 -0.666992 72.834 6.83301 114.501 22.5s76.167 34.834 103.5 57.501v121z" />
    <glyph glyph-name="A" unicode="A" horiz-adv-x="608" 
d="M463 243h-318l-85 -243h-43l241 677c3.33301 8.66699 9.33301 13 18 13h56c8.66699 0 14.667 -4.33301 18 -13l241 -677h-43zM450 279l-112 321l-20 56h-28l-20 -56l-112 -321h292z" />
    <glyph glyph-name="B" unicode="B" horiz-adv-x="614" 
d="M408 360v-4.00293c49.333 -4.66699 84.5 -22.167 105.5 -52.5s31.5 -74.166 31.5 -131.499c0 -69.333 -15.667 -116.666 -47 -141.999s-87 -38 -167 -38c-99.333 0 -176.666 2.66699 -231.999 8v690c48.667 5.33301 116 8 202 8c84 0 142.333 -12.667 175 -38
s49 -72.666 49 -141.999c0 -50 -9.33301 -87.833 -28 -113.5s-48.334 -40.5 -89.001 -44.5zM140 373.997l177.998 -0.000976562c62.667 0.666992 105.834 10.5 129.501 29.5s35.5 56.167 35.5 111.5c0 58.667 -13.167 97.834 -39.5 117.501s-74.166 29.5 -143.499 29.5
c-60 0 -113.333 -0.666992 -160 -2v-286zM139.998 340.996v-311c52 -1.33301 114.333 -2 187 -2c66.667 0 112.667 10 138 30s38 59.333 38 118c0 63.333 -13.5 106.333 -40.5 129s-75.167 34.667 -144.5 36h-178z" />
    <glyph glyph-name="C" unicode="C" 
d="M516 38l7 -30.998c-52.667 -12.667 -116.667 -19 -192 -19c-95.333 0 -162.333 26.667 -201 80s-58 145.666 -58 276.999s19.333 223.666 58 276.999s105.667 80 201 80c70 0 129.333 -6 178 -18l-7 -30c-52 7.33301 -109 11 -171 11
c-80.667 0 -136.834 -23.5 -168.501 -70.5s-47.5 -130.167 -47.5 -249.5s15.833 -202.5 47.5 -249.5s87.834 -70.5 168.501 -70.5c72 0 133.667 4.33301 185 13z" />
    <glyph glyph-name="D" unicode="D" horiz-adv-x="660" 
d="M99 0l-0.000976562 690.002c80.667 6 158.334 9 233.001 9c94.667 0 161 -26.333 199 -79s57 -144.334 57 -275.001s-19 -222.334 -57 -275.001s-104.333 -79 -199 -79c-74 0 -151.667 3 -233 9zM139.999 659.002v-628c56 -2 120 -3 192 -3
c79.333 0 134.666 23.333 165.999 70s47 129 47 247s-15.667 200.333 -47 247s-86.666 70 -165.999 70c-70.667 0 -134.667 -1 -192 -3z" />
    <glyph glyph-name="E" unicode="E" horiz-adv-x="553" 
d="M495 35l2 -31.002c-64 -2.66699 -162 -4 -294 -4c-32.667 0 -59.167 9.83301 -79.5 29.5s-30.5 45.167 -30.5 76.5v478c0 31.333 10.167 56.833 30.5 76.5s46.833 29.5 79.5 29.5c132 0 230 -1.33301 294 -4l-2 -31h-285c-22.667 0 -41 -7.16699 -55 -21.5
s-21 -33.166 -21 -56.499v-192h320v-34h-320v-238c0 -23.333 7 -42.166 21 -56.499s32.333 -21.5 55 -21.5h285z" />
    <glyph glyph-name="F" unicode="F" horiz-adv-x="532" 
d="M490 655l-275.002 -0.000976562c-23.333 0 -42.166 -7.16699 -56.499 -21.5s-21.5 -33.166 -21.5 -56.499v-197h313v-34h-313v-346h-41v583c0 32 10.167 57.833 30.5 77.5s46.833 29.5 79.5 29.5c128.667 0 224.334 -1.66699 287.001 -5z" />
    <glyph glyph-name="G" unicode="G" horiz-adv-x="624" 
d="M546 400l-0.00292969 -400h-29l-8 84c-59.333 -64 -129.666 -96 -210.999 -96c-80.667 0 -138.5 28.167 -173.5 84.5s-52.5 147.5 -52.5 273.5c0 132 19.667 224.333 59 277s108.333 79 207 79c75.333 0 140.333 -6 195 -18l-7 -30c-58 7.33301 -120.333 11 -187 11
c-83.333 0 -141.333 -23 -174 -69s-49 -130 -49 -252c0 -114 14.333 -195.667 43 -245s77.334 -74 146.001 -74c40.667 0 75.834 8 105.501 24s61.167 38.667 94.5 68v283h41z" />
    <glyph glyph-name="H" unicode="H" horiz-adv-x="660" 
d="M561 690v-690h-41v352h-380v-352h-41v690h41v-302h380v302h41z" />
    <glyph glyph-name="I" unicode="I" horiz-adv-x="239" 
d="M140 0h-41v690h41v-690z" />
    <glyph glyph-name="J" unicode="J" horiz-adv-x="328" 
d="M232 690v-567c0 -43.333 -10.5 -76 -31.5 -98s-52.167 -32.667 -93.5 -32c-22 0 -45.667 2.66699 -71 8l5 28h56c62.667 0 94 31.333 94 94v567h41z" />
    <glyph glyph-name="K" unicode="K" horiz-adv-x="570" 
d="M243 343h-106.999c2 -29.333 3 -57 3 -83v-260h-40v690h40v-231c0 -30 -1.33301 -57.333 -4 -82h108l234 313h47l-223 -300c-6 -9.33301 -15 -19 -27 -29v-2c11.333 -10 20.666 -20 27.999 -30l238 -329h-48z" />
    <glyph glyph-name="L" unicode="L" horiz-adv-x="509" 
d="M137 690l0.000976562 -577.001c0 -23.333 7.16699 -42.166 21.5 -56.499s33.166 -21.5 56.499 -21.5h267v-30c-60 -3.33301 -151.333 -5 -274 -5c-34.667 0 -62 10.167 -82 30.5s-30 46.5 -30 78.5v581h41z" />
    <glyph glyph-name="M" unicode="M" horiz-adv-x="860" 
d="M669 690l57 0.000976562c13.333 0 20 -7 20 -21l30 -669h-41l-29 655h-23l-208 -576c-3.33301 -9.33301 -9.66602 -14 -18.999 -14h-52c-10 0 -16.667 4.66699 -20 14l-207 576h-23l-29 -655h-41l29 669c1.33301 14 8.33301 21 21 21h57
c9.33301 0 15.666 -4.66699 18.999 -14l175 -484l10.5 -29.5l12 -34.5c4.33301 -12.667 7.83301 -22.334 10.5 -29.001h24l33 95l174 482c3.33301 9.33301 10 14 20 14z" />
    <glyph glyph-name="N" unicode="N" horiz-adv-x="692" 
d="M593 690l0.000976562 -669.999c0 -13.333 -6.33301 -20 -19 -20h-54c-10.667 0 -18.334 5 -23.001 15l-298 564c-18.667 36 -31 60.667 -37 74h-23c0.666992 -16.667 1 -41.667 1 -75v-578h-41v670c0 13.333 6.66699 20 20 20h50c11.333 0 19.333 -5 24 -15l290 -551
c5.33301 -8.66699 20.333 -37.334 45 -86.001h25c0 10.667 -0.166992 26.5 -0.5 47.5s-0.5 36.5 -0.5 46.5v558h41z" />
    <glyph glyph-name="O" unicode="O" horiz-adv-x="664" 
d="M332 702c96 0 163.167 -26.3311 201.5 -78.998s57.5 -145.334 57.5 -278.001s-19.167 -225.334 -57.5 -278.001s-105.5 -79 -201.5 -79s-163.333 26.5 -202 79.5s-58 145.5 -58 277.5s19.333 224.5 58 277.5s106 79.5 202 79.5zM332 665.002
c-80.667 0 -137 -23.667 -169 -71s-48 -130.333 -48 -249s16 -201.667 48 -249s88.333 -71 169 -71s136.834 23.5 168.501 70.5s47.5 130.167 47.5 249.5s-15.833 202.5 -47.5 249.5s-87.834 70.5 -168.501 70.5z" />
    <glyph glyph-name="P" unicode="P" horiz-adv-x="583" 
d="M99 0l-0.000976562 690c54 5.33301 129 8 225 8c76.667 0 130 -14.5 160 -43.5s45 -83.167 45 -162.5c0 -80 -14.833 -134.333 -44.5 -163s-82.167 -43 -157.5 -43c-71.333 0 -133.666 2 -186.999 6v-292h-41zM139.999 322h184c61.333 1.33301 103.833 13.5 127.5 36.5
s35.5 67.5 35.5 133.5s-11.833 110.833 -35.5 134.5s-66.167 35.5 -127.5 35.5c-70.667 0 -132 -0.666992 -184 -2v-338z" />
    <glyph glyph-name="Q" unicode="Q" horiz-adv-x="664" 
d="M332 702c96 0 163.167 -26.3311 201.5 -78.998s57.5 -145.334 57.5 -278.001s-19.167 -225.334 -57.5 -278.001s-105.5 -79 -201.5 -79s-163.333 26.5 -202 79.5s-58 145.5 -58 277.5s19.333 224.5 58 277.5s106 79.5 202 79.5zM332 665.002
c-80.667 0 -136.834 -23.5 -168.501 -70.5s-47.5 -130.167 -47.5 -249.5s15.833 -202.5 47.5 -249.5s87.834 -70.5 168.501 -70.5s136.834 23.5 168.501 70.5s47.5 130.167 47.5 249.5s-15.833 202.5 -47.5 249.5s-87.834 70.5 -168.501 70.5zM282 -72.998l15.001 24
c63.333 -39.333 141.666 -66.333 234.999 -81l-13 -41c-90 14 -169 46.667 -237 98z" />
    <glyph glyph-name="R" unicode="R" horiz-adv-x="610" 
d="M554 0l-44.999 -0.000976562l-70 217c-20 58 -56 87 -108 87c-49.333 0 -113 1 -191 3v-307h-41v690c54 5.33301 129 8 225 8c76.667 0 130 -13.667 160 -41s45 -78.666 45 -153.999c0 -60 -9.83301 -103.833 -29.5 -131.5s-52.167 -44.5 -97.5 -50.5v-5
c35.333 -10 61.666 -42 78.999 -96zM140.001 340.999h184c61.333 1.33301 103.833 13 127.5 35s35.5 64 35.5 126s-11.833 104.167 -35.5 126.5s-66.167 33.5 -127.5 33.5c-72 0 -133.333 -0.666992 -184 -2v-319z" />
    <glyph glyph-name="S" unicode="S" horiz-adv-x="556" 
d="M348 317l-150.002 25c-48 7.33301 -82.5 25.333 -103.5 54s-31.5 71 -31.5 127c0 40.667 4 73.167 12 97.5s21.833 42.333 41.5 54s41 19.167 64 22.5s54.5 4.66602 94.5 3.99902c71.333 -1.33301 135.333 -6 192 -14l-4 -30c-92 4.66699 -154.333 7 -187 7
c-24 0 -42.333 -0.333008 -55 -1s-26.667 -2.33398 -42 -5.00098s-26.666 -7 -33.999 -13s-14.666 -14.167 -21.999 -24.5s-12.166 -23.5 -14.499 -39.5s-3.5 -35.667 -3.5 -59c0 -46.667 7.83301 -80.5 23.5 -101.5s42.167 -34.5 79.5 -40.5l150 -25
c50.667 -7.33301 86.5 -25.166 107.5 -53.499s31.5 -71.833 31.5 -130.5c0 -40 -4.33301 -72.333 -13 -97s-23 -43.167 -43 -55.5s-41.833 -20.333 -65.5 -24s-55.167 -5.5 -94.5 -5.5c-74.667 0 -143.334 4.33301 -206.001 13l3 31
c78.667 -5.33301 147 -7.66602 205 -6.99902c34.667 0.666992 61.667 2.66699 81 6s36.5 10 51.5 20s25.333 24.5 31 43.5s8.5 44.167 8.5 75.5c0 50 -8 85.333 -24 106s-43.667 34 -83 40z" />
    <glyph glyph-name="T" unicode="T" horiz-adv-x="568" 
d="M542 654h-238v-654h-41v654h-237v36h516v-36z" />
    <glyph glyph-name="U" unicode="U" horiz-adv-x="667" 
d="M573 690v-433c0 -97.333 -18 -166.5 -54 -207.5s-97.333 -61.5 -184 -61.5c-88 0 -150.167 20.5 -186.5 61.5s-54.5 110.167 -54.5 207.5v433h41v-433c0 -85.333 14.833 -145.333 44.5 -180s81.167 -52 154.5 -52c72 0 123 17.333 153 52s45 94.667 45 180v433h41z" />
    <glyph glyph-name="V" unicode="V" horiz-adv-x="596" 
d="M573 690l-229 -677c-4 -8.66699 -10.333 -13 -19 -13h-54c-9.33301 -0 -15.333 4.33301 -18 13l-229 677h43l194 -582c12 -38 19.667 -62.667 23 -74h28l24 75l193 581h44z" />
    <glyph glyph-name="W" unicode="W" horiz-adv-x="935" 
d="M902 690l-171.999 -675.999c-2.66699 -9.33301 -9 -14 -19 -14h-57c-10.667 0 -17 5 -19 15l-137 564l-19 78h-23c-4.66699 -17.333 -11 -43.333 -19 -78l-137 -564c-2 -10 -8.33301 -15 -19 -15h-57c-10 0 -16.667 4.66699 -20 14l-172 676h44l146 -583l17 -73h27
c1.33301 6 4 17.167 8 33.5s7 29.166 9 38.499l139 568c2 10.667 8.33301 16 19 16h53c9.33301 0 15.666 -5.33301 18.999 -16l139 -567c4 -16.667 9.33301 -41 16 -73h27l17 72l147 584h43z" />
    <glyph glyph-name="X" unicode="X" horiz-adv-x="598" 
d="M314 343h-30l-202 -343h-47l212 359l-199 331h46l188 -313h33l188 313h47l-200 -331l213 -359h-47z" />
    <glyph glyph-name="Y" unicode="Y" horiz-adv-x="548" 
d="M295 253v-253h-42v254l-234 436h45l171 -322c4 -7.33301 10 -19 18 -35l18 -36h6l35 70l171 323h45z" />
    <glyph glyph-name="Z" unicode="Z" horiz-adv-x="560" 
d="M510 36v-36h-459v36l407 618h-403v36h450v-36l-408 -618h413z" />
    <glyph glyph-name="bracketleft" unicode="[" horiz-adv-x="316" 
d="M269 737h-116c-8 0 -12 -4.33301 -12 -13v-845c0 -8.66699 4 -13 12 -13h116v-31h-130c-10.667 0 -19.5 3.33301 -26.5 10s-10.5 15.667 -10.5 27v859c0 10.667 3.5 19.5 10.5 26.5s15.833 10.5 26.5 10.5h130v-31z" />
    <glyph glyph-name="backslash" unicode="\" horiz-adv-x="500" 
d="M465 -61h-37l-393 751h37z" />
    <glyph glyph-name="bracketright" unicode="]" horiz-adv-x="316" 
d="M48 768h129c11.333 0 20.333 -3.33301 27 -10s10 -15.667 10 -27v-859c0 -10.667 -3.33301 -19.5 -10 -26.5s-15.667 -10.5 -27 -10.5h-129v31h115c8.66699 0 13 4.33301 13 13v845c0 8.66699 -4.33301 13 -13 13h-115v31z" />
    <glyph glyph-name="asciicircum" unicode="^" horiz-adv-x="401" 
d="M371 381l-18 -14l-148 179h-8l-148 -179l-19 14l156 201h29z" />
    <glyph glyph-name="underscore" unicode="_" horiz-adv-x="586" 
d="M509 -33h-432v33h432v-33z" />
    <glyph glyph-name="grave" unicode="`" horiz-adv-x="287" 
d="M225 567l-17 -20l-163 136l25 29z" />
    <glyph glyph-name="a" unicode="a" horiz-adv-x="541" 
d="M86 443l-3.99902 30c101.333 14 178 21 230 21c94.667 0 142 -46.667 142 -140v-354h-30l-7 89c-24.667 -24 -57.834 -46 -99.501 -66s-83.167 -30 -124.5 -30s-73.5 10.833 -96.5 32.5s-34.5 52.5 -34.5 92.5v60c0 36.667 10.5 65 31.5 85s50.5 30 88.5 30h232v61
c0 33.333 -8 59 -24 77s-43.667 27 -83 27c-57.333 0 -131 -5 -221 -15zM103.001 175l0.000976562 -54c0 -60 31.333 -90.333 94 -91c33.333 -0.666992 70.666 7.83301 111.999 25.5s76.333 39.834 105 66.501v139l-228 -3c-55.333 -0.666992 -83 -28.334 -83 -83.001z" />
    <glyph glyph-name="b" unicode="b" horiz-adv-x="561" 
d="M128 700l-0.000976562 -208.001c0 -43.333 -1.66699 -75.666 -5 -96.999c71.333 66 137.333 99 198 99c62 0 106.5 -19.333 133.5 -58s40.5 -103.667 40.5 -195c0 -90 -15.167 -154.667 -45.5 -194s-81.5 -59 -153.5 -59c-65.333 0 -134.666 10.667 -207.999 32v680h40z
M127.999 364.999v-317.998c56.667 -16.667 112.334 -24.334 167.001 -23.001c57.333 0 98.166 16.333 122.499 49s36.5 88.667 36.5 168s-10.5 135.333 -31.5 168s-57.5 49 -109.5 49c-28 0 -55.667 -7.33301 -83 -22s-61.333 -38.334 -102 -71.001z" />
    <glyph glyph-name="c" unicode="c" horiz-adv-x="481" 
d="M433 35l5.99805 -28c-48.667 -12.667 -99 -19 -151 -19c-81.333 0 -138.833 19 -172.5 57s-50.5 103.333 -50.5 196s16.833 158 50.5 196s90.834 57 171.501 57c58 0 105 -6.33301 141 -19l-7 -27c-35.333 6.66699 -77.666 10 -126.999 10
c-69.333 0 -117.833 -15.5 -145.5 -46.5s-41.5 -87.833 -41.5 -170.5s13.833 -139.5 41.5 -170.5s76.167 -46.5 145.5 -46.5c56 0 102.333 3.66699 139 11z" />
    <glyph glyph-name="d" unicode="d" horiz-adv-x="564" 
d="M473 700l0.00195312 -700h-30l-5 80c-70 -61.333 -136 -92 -198 -92s-106.333 19.667 -133 59s-40 104 -40 194c0 91.333 13.667 156.333 41 195s72.666 58 135.999 58c59.333 0 123.666 -16.333 192.999 -49c-2 16.667 -3 48 -3 94v161h39zM434.002 112l-0.00195312 303
c-76 28.667 -137.667 43 -185 43c-51.333 0 -87.666 -16 -108.999 -48s-32 -88 -32 -168s10.667 -136.333 32 -169s57.333 -49 108 -49c28.667 0 56.834 6.66699 84.501 20s61.5 36 101.5 68z" />
    <glyph glyph-name="e" unicode="e" horiz-adv-x="530" 
d="M364 221h-257c2.66699 -73.333 18 -124.5 46 -153.5s73.333 -43.5 136 -43.5c55.333 0 110.333 4 165 12l5 -28c-40 -13.333 -98.333 -20 -175 -20c-78 0 -134 19.5 -168 58.5s-51 104.5 -51 196.5s16.167 156.833 48.5 194.5s86.5 56.5 162.5 56.5
c127.333 0 192 -47.333 194 -142c1.33301 -44 -6.5 -76.833 -23.5 -98.5s-44.5 -32.5 -82.5 -32.5zM107 254l250.999 0.000976562c49.333 0 73 32 71 96c-0.666992 37.333 -13.167 64.666 -37.5 81.999s-62.166 26 -113.499 26c-62.667 0 -106.667 -15 -132 -45
s-38.333 -83 -39 -159z" />
    <glyph glyph-name="f" unicode="f" horiz-adv-x="361" 
d="M371 680h-108c-37.333 0 -63.833 -7.66699 -79.5 -23s-23.5 -42 -23.5 -80v-95h172v-34h-172v-448h-40v448h-87v29l87 4v98c0 46 10.167 80.167 30.5 102.5s53.5 33.5 99.5 33.5c52.667 0 93.667 -1.66699 123 -5z" />
    <glyph glyph-name="g" unicode="g" horiz-adv-x="548" 
d="M518 456l-93.002 -4.00195c26 -23.333 39 -59.666 39 -108.999c0 -51.333 -15 -89 -45 -113s-80 -36 -150 -36c-48.667 0 -88 6 -118 18c-13.333 -15.333 -21.5 -31 -24.5 -47s0.833008 -30.667 11.5 -44s28.667 -22.333 54 -27l190 -33
c41.333 -6.66699 69.833 -19.834 85.5 -39.501s23.5 -49.5 23.5 -89.5c0 -52 -16.167 -88.5 -48.5 -109.5s-88.166 -31.5 -167.499 -31.5c-82 0 -139.5 10.333 -172.5 31s-49.5 57 -49.5 109c0 34.667 5 61.834 15 81.501s29 36.834 57 51.501l14 8
c-21.333 10 -35.666 24.5 -42.999 43.5s-7.83301 38.333 -1.5 58s17.833 36.167 34.5 49.5c-37.333 22.667 -56 62.667 -56 120c0 51.333 15.333 89.333 46 114s81 37 151 37c40.667 0 74 -4 100 -12h151zM268.998 226.998c56.667 0 97 9.16699 121 27.5s36 47.833 36 88.5
s-11.833 70.5 -35.5 89.5s-64.167 28.5 -121.5 28.5c-56.667 0 -97.167 -9.5 -121.5 -28.5s-36.5 -48.833 -36.5 -89.5c0 -40 12.167 -69.333 36.5 -88s64.833 -28 121.5 -28zM170.998 61.998l-21 -13c-22.667 -14 -38 -29.333 -46 -46s-12 -40 -12 -70
c0 -40 13.333 -67.833 40 -83.5s74 -23.5 142 -23.5c66 0 112.167 7.83301 138.5 23.5s39.5 43.5 39.5 83.5c0 31.333 -5.66699 53.833 -17 67.5s-34.333 23.5 -69 29.5l-193 32h-2z" />
    <glyph glyph-name="h" unicode="h" horiz-adv-x="572" 
d="M131 700v-209c0 -40.667 -1.66699 -72 -5 -94c86 64.667 162.333 97 229 97c86.667 0 130 -44 130 -132v-362h-40v354c0 36 -8 62.333 -24 79s-41 25 -75 25c-32.667 0 -65 -7.16699 -97 -21.5s-71.667 -37.833 -119 -70.5v-366h-40v700h41z" />
    <glyph glyph-name="i" unicode="i" horiz-adv-x="227" 
d="M105 683h18c10 0 15 -5.33301 15 -16v-60c0 -10.667 -5 -16 -15 -16h-18c-10.667 0 -16 5.33301 -16 16v60c0 10.667 5.33301 16 16 16zM133 0h-39v482h39v-482z" />
    <glyph glyph-name="j" unicode="j" horiz-adv-x="228" 
d="M105 683h18c10 0 15 -5.33301 15 -16v-60c0 -10.667 -5 -16 -15 -16h-18c-10 0 -15 5.33301 -15 16v60c0 10.667 5 16 15 16zM134 482v-518.999c0 -65.333 -24.333 -122.333 -73 -171l-22 17c36.667 47.333 55 98.666 55 153.999v519h40z" />
    <glyph glyph-name="k" unicode="k" horiz-adv-x="482" 
d="M206 259h-79c2 -30 3 -58.333 3 -85v-174h-40v700h41v-327c0 -30 -1.33301 -57.333 -4 -82h79l182 191h49l-173 -184c-10 -10 -18.667 -17.667 -26 -23v-2c9.33301 -8 18 -17.667 26 -29l189 -244h-48z" />
    <glyph glyph-name="l" unicode="l" horiz-adv-x="277" 
d="M131 700l0.000976562 -594c-0.666992 -24.667 5.66602 -43.5 18.999 -56.5s32.333 -19.5 57 -19.5h55l5 -29c-16 -5.33301 -39.333 -8 -70 -8c-32.667 0 -58.5 9.33301 -77.5 28s-28.5 45 -28.5 79v600h40z" />
    <glyph glyph-name="m" unicode="m" horiz-adv-x="879" 
d="M122 482l4.00098 -85c74 64.667 144 97 210 97c70 0 110.667 -32 122 -96c74 64 143.667 96 209 96c83.333 0 125 -44 125 -132v-362h-39v354c-0.666992 69.333 -33.334 104 -98.001 104c-29.333 0 -58 -7 -86 -21s-64 -37.667 -108 -71v-4v-362h-39v354
c0 69.333 -32.667 104 -98 104c-28.667 0 -57.167 -7 -85.5 -21s-64.5 -37.667 -108.5 -71v-366h-39v482h31z" />
    <glyph glyph-name="n" unicode="n" horiz-adv-x="573" 
d="M123 482l3.00195 -85c83.333 64.667 160 97 230 97c86.667 0 130 -44 130 -132v-362h-40v354c0 36 -8 62.333 -24 79s-41 25 -75 25c-32.667 0 -64.834 -7.16699 -96.501 -21.5s-71.834 -37.833 -120.501 -70.5v-366h-39v482h32z" />
    <glyph glyph-name="o" unicode="o" horiz-adv-x="562" 
d="M281 494c78.667 0 134.167 -19 166.5 -57s48.5 -103.333 48.5 -196s-16 -158 -48 -196s-87.667 -57 -167 -57s-135 19 -167 57s-48 103.333 -48 196s16.167 158 48.5 196s87.833 57 166.5 57zM281 458c-64.667 0 -109.667 -15.667 -135 -47s-38 -88 -38 -170
s12.667 -138.833 38 -170.5s70.333 -47.5 135 -47.5s109.834 15.833 135.501 47.5s38.5 88.5 38.5 170.5s-12.833 138.667 -38.5 170s-70.834 47 -135.501 47z" />
    <glyph glyph-name="p" unicode="p" horiz-adv-x="566" 
d="M122 482l4.99902 -85.002c68 64.667 134.667 97 200 97c61.333 0 105.333 -19.833 132 -59.5s40 -104.5 40 -194.5c0 -91.333 -13.667 -156.166 -41 -194.499s-72.666 -57.5 -135.999 -57.5c-62.667 0 -127.667 17.667 -195 53c2 -17.333 3 -48.666 3 -93.999v-155h-39
v690h31zM129.999 366.998v-299c78.667 -29.333 141 -44 187 -44c51.333 0 87.666 16 108.999 48s32 88 32 168c0 79.333 -10.667 135.5 -32 168.5s-57 49.5 -107 49.5c-29.333 0 -58.166 -7 -86.499 -21s-62.5 -37.333 -102.5 -70z" />
    <glyph glyph-name="q" unicode="q" horiz-adv-x="562" 
d="M473 -208l-40.002 -0.000976562v192c0 42.667 1.66699 74.334 5 95.001c-75.333 -60.667 -144.333 -91 -207 -91c-57.333 0 -99.166 20.167 -125.499 60.5s-39.5 104.5 -39.5 192.5c0 90.667 15.333 155.5 46 194.5s83.334 58.5 158.001 58.5
c62 0 129.667 -10.667 203 -32v-670zM433.998 109.999l0.000976562 325c-56.667 15.333 -110.667 23 -162 23c-60.667 0 -103.334 -16 -128.001 -48s-37 -89.333 -37 -172c0 -76 10.333 -130.667 31 -164s55 -50 103 -50c31.333 0 60.833 6.66699 88.5 20
s62.5 35.333 104.5 66z" />
    <glyph glyph-name="r" unicode="r" horiz-adv-x="388" 
d="M366 494l-5.99902 -38h-20c-30.667 0 -61.167 -6.83301 -91.5 -20.5s-69.833 -36.167 -118.5 -67.5v-368h-39v482h30l5 -85c81.333 64.667 154.666 97 219.999 97h20z" />
    <glyph glyph-name="s" unicode="s" horiz-adv-x="501" 
d="M321 215l-157.002 22.999c-36 5.33301 -62.5 17.833 -79.5 37.5s-25.5 49.5 -25.5 89.5c0 56 13.333 91.833 40 107.5s73.334 22.834 140.001 21.501c72 -1.33301 135.667 -5.66602 191 -12.999l-4 -29c-76.667 4 -137.667 6.33301 -183 7
c-57.333 1.33301 -95.833 -3.16699 -115.5 -13.5s-29.5 -37.166 -29.5 -80.499c0 -31.333 6.33301 -53.666 19 -66.999s32.334 -22 59.001 -26l157 -23c36.667 -6 64.167 -18.833 82.5 -38.5s27.5 -48.5 27.5 -86.5c0 -56.667 -14.667 -93.334 -44 -110.001
s-79.333 -25 -150 -25c-64 0 -123.667 4 -179 12l4 29c57.333 -4.66699 114.333 -6.66699 171 -6c62 0.666992 104 7.16699 126 19.5s33 39.166 33 80.499c0 29.333 -7.16699 50.666 -21.5 63.999s-34.833 22.333 -61.5 27z" />
    <glyph glyph-name="t" unicode="t" horiz-adv-x="356" 
d="M159 448v-342c0 -50.667 25.667 -76 77 -76h84l5 -29c-30 -5.33301 -60.667 -8 -92 -8c-76 0 -114 36.333 -114 109v346h-87v29l87 4v150h40v-149h172v-34h-172z" />
    <glyph glyph-name="u" unicode="u" 
d="M472 482l-0.00292969 -482h-31l-4 83c-77.333 -63.333 -150.666 -95 -219.999 -95c-86.667 0 -130 44 -130 132v362h40v-354c-0.666992 -36 7.33301 -62.333 24 -79s42.334 -25 77.001 -25c30.667 0 60.834 7 90.501 21s67.5 37 113.5 69v368h40z" />
    <glyph glyph-name="v" unicode="v" horiz-adv-x="513" 
d="M486 482l-192 -471c-4 -7.33301 -10 -11 -18 -11h-40c-8 0 -13.667 3.66699 -17 11l-192 471h43l144 -361l18 -44l18 -45h13l37 90l143 360h43z" />
    <glyph glyph-name="w" unicode="w" horiz-adv-x="815" 
d="M783 482l-160.002 -468.996c-3.33301 -8.66699 -9.33301 -13 -18 -13h-39c-9.33301 0 -15.666 4.66699 -18.999 14l-113 365l-21 73h-11l-22 -73l-112 -365c-3.33301 -9.33301 -9.66602 -14 -18.999 -14h-39c-8.66699 0 -14.667 4.33301 -18 13l-160 469h42l128 -385
c3.33301 -8.66699 7.5 -21.334 12.5 -38.001s7.83301 -26.334 8.5 -29.001h13l21 68l114 370c2 9.33301 8 14 18 14h37c9.33301 0 15.333 -4.66699 18 -14l115 -370l20 -68h13c2.66699 7.33301 6.16699 18.666 10.5 33.999s7.83301 26.666 10.5 33.999l128 384h42z" />
    <glyph glyph-name="x" unicode="x" horiz-adv-x="511" 
d="M267 235h-23l-165 -235h-46l177 250l-165 232h46l151 -214h27l151 214h46l-165 -232l177 -250h-46z" />
    <glyph glyph-name="y" unicode="y" horiz-adv-x="512" 
d="M485 482l-214 -523.999c-18.667 -46.667 -40.667 -83.834 -66 -111.501s-60 -46.167 -104 -55.5l-6 25c36.667 13.333 65.5 32.333 86.5 57s38.833 55.667 53.5 93l14 34h-13c-8 0 -13.667 4 -17 12l-192 470h43l158 -395c1.33301 -4 3.5 -9.66699 6.5 -17l8 -20l6.5 -17
h13l22 55l159 394h42z" />
    <glyph glyph-name="z" unicode="z" horiz-adv-x="502" 
d="M450 34v-34h-398v34l347 413h-344v35h392v-35l-348 -413h351z" />
    <glyph glyph-name="braceleft" unicode="{" horiz-adv-x="303" 
d="M255 768l-0.000976562 -27c-37.333 0 -63.166 -8.16699 -77.499 -24.5s-21.5 -42.166 -21.5 -77.499v-199c0 -39.333 -5.16699 -66 -15.5 -80s-31.833 -24.667 -64.5 -32c34 -11.333 56.333 -23.666 67 -36.999s16.334 -37 17.001 -71v-256
c0 -35.333 7.16699 -61.166 21.5 -77.499s40.166 -24.5 77.499 -24.5v-27c-49.333 -0.666992 -84.666 9.16602 -105.999 29.499s-32 53.166 -32 98.499v268c0 13.333 -1 24 -3 32s-6.83301 15 -14.5 21s-14 10.167 -19 12.5s-15.5 6.5 -31.5 12.5v38
c17.333 5.33301 28.333 8.83301 33 10.5s10.5 5.5 17.5 11.5s11 13.333 12 22s1.5 21.334 1.5 38.001v211c0 45.333 10.667 78.166 32 98.499s56.666 30.166 105.999 29.499z" />
    <glyph glyph-name="bar" unicode="|" horiz-adv-x="237" 
d="M135 -169h-33v950h33v-950z" />
    <glyph glyph-name="braceright" unicode="}" horiz-adv-x="304" 
d="M48 741l-0.000976562 27c49.333 0.666992 84.833 -9.16602 106.5 -29.499s32.5 -53.166 32.5 -98.499v-211c0 -30.667 3.5 -49.834 10.5 -57.501s24.5 -15.834 52.5 -24.501v-38c-16 -6 -26.667 -10.167 -32 -12.5s-11.666 -6.33301 -18.999 -12
s-11.833 -12.667 -13.5 -21s-2.5 -19.166 -2.5 -32.499v-268c0 -45.333 -10.833 -78.166 -32.5 -98.499s-57.167 -30.166 -106.5 -29.499v27c37.333 0 63.333 8.16699 78 24.5s22 42.166 22 77.499v256c0 34 5.5 57.667 16.5 71s33.167 25.666 66.5 36.999
c-32 7.33301 -53.167 18 -63.5 32s-15.5 40.667 -15.5 80v199c0 35.333 -7.33301 61.166 -22 77.499s-40.667 24.5 -78 24.5z" />
    <glyph glyph-name="asciitilde" unicode="~" horiz-adv-x="531" 
d="M108 238l-23.998 0.000976562c-2 32 4 56.5 18 73.5s33.333 24.833 58 23.5c28 -2 63.167 -13.167 105.5 -33.5s76.833 -31.166 103.5 -32.499c19.333 -1.33301 33.333 2.66699 42 12s13 25.666 13 48.999h24c1.33301 -31.333 -4.83398 -55.333 -18.501 -72
s-32.834 -24 -57.501 -22c-34 2 -71.833 13.167 -113.5 33.5s-73.5 31.166 -95.5 32.499c-19.333 2 -33.333 -2.16699 -42 -12.5s-13 -27.5 -13 -51.5z" />
    <glyph glyph-name="uni00A0" unicode="&#xa0;" horiz-adv-x="228" 
 />
    <glyph glyph-name="exclamdown" unicode="&#xa1;" horiz-adv-x="239" 
d="M114 483h13c11.333 0 17 -5.66699 17 -17v-60c0 -11.333 -5.66699 -17 -17 -17h-13c-12 0 -18 5.66699 -18 17v60c0 11.333 6 17 18 17zM140 120v-323h-41v323l4 158h33z" />
    <glyph glyph-name="cent" unicode="&#xa2;" horiz-adv-x="505" 
d="M433 144l5 -28c-47.333 -12.667 -97.333 -19 -150 -19h-12l-8 -97h-27l8 98c-66.667 5.33301 -114 27.333 -142 66s-42 100.667 -42 186c0 92 16.667 157 50 195s90.333 57.333 171 58l6 87h28l-7 -88c42 -1.33301 80.333 -7.33301 115 -18l-7 -28
c-27.333 6 -64.333 9.66699 -111 11l-31 -434l15 -1c52.667 0 99 4 139 12zM252 134l31 432.999c-66 -1.33301 -112.167 -17.666 -138.5 -48.999s-39.5 -87.333 -39.5 -168c0 -74.667 11 -128 33 -160s60 -50.667 114 -56z" />
    <glyph glyph-name="sterling" unicode="&#xa3;" horiz-adv-x="562" 
d="M505 36v-36.001h-436v36c33.333 20 55.833 47.333 67.5 82s16.167 78 13.5 130l-5 101h-82v28h80l-7 148c-2 38 0.833008 69.167 8.5 93.5s20.667 42.333 39 54s37.5 19.334 57.5 23.001s46 5.5 78 5.5c47.333 0 101.333 -3.33301 162 -10l-4 -31
c-49.333 3.33301 -108 5 -176 5c-48 0 -81.333 -10.5 -100 -31.5s-27 -56.5 -25 -106.5l8 -150h240l-2 -28h-237l5 -101c2 -52.667 -2 -96 -12 -130s-30.333 -61.667 -61 -83c14 0.666992 34.667 1 62 1h326z" />
    <glyph glyph-name="currency" unicode="&#xa4;" horiz-adv-x="600" 
d="M499 132l-75.001 74.999c-35.333 -31.333 -77 -47 -125 -47c-47.333 0 -89 15.333 -125 46l-74 -74l-21 21l74 74c-30.667 34.667 -46 76.334 -46 125.001c0 48 15.333 90 46 126l-73 73l20 21l74 -74c34.667 30.667 76.334 46 125.001 46s90.667 -15.667 126 -47l74 75
l20 -21l-74 -74c30.667 -36 46 -77.667 46 -125c0 -48 -15.667 -89.667 -47 -125l76 -75zM298.999 188.999c44.667 -0.666992 82.834 15 114.501 47s47.5 70.667 47.5 116s-15.833 84 -47.5 116s-69.834 48 -114.501 48s-83 -16 -115 -48s-48 -70.667 -48 -116
s16 -84 48 -116s70.333 -47.667 115 -47z" />
    <glyph glyph-name="yen" unicode="&#xa5;" horiz-adv-x="606" 
d="M340 310l176 0.000976562v-28h-192l-1 -1v-81h193v-28h-193v-172h-41v172h-188v28h188v81l-1 1h-187v28h171l-217 380h44l169 -296c11.333 -18.667 24.333 -42.334 39 -71.001h6l38 70l168 297h45z" />
    <glyph glyph-name="brokenbar" unicode="&#xa6;" horiz-adv-x="239" 
d="M136 381h-33v400h33v-400zM136 -169h-33v400h33v-400z" />
    <glyph glyph-name="section" unicode="&#xa7;" horiz-adv-x="543" 
d="M361 332l-187.002 107.005c-38 21.333 -64.667 43.166 -80 65.499s-23 50.166 -23 83.499c0 46 14.667 76.667 44 92s75.333 22.666 138 21.999c82 -1.33301 154.333 -5.33301 217 -12l-4 -30c-63.333 4 -132.333 6.33301 -207 7c-25.333 0 -45.166 -0.5 -59.499 -1.5
s-29 -3.83301 -44 -8.5s-25.833 -12.667 -32.5 -24s-10 -26.333 -10 -45c0 -46.667 25.333 -84.667 76 -114l184 -104c42 -24 68.833 -53.333 80.5 -88s13.834 -80.334 6.50098 -137.001h-33c5.33301 47.333 3 86.166 -7 116.499s-29.667 53.833 -59 70.5zM83.998 409.005
h32.0039c-5.33301 -47.333 -3.33301 -85.5 6 -114.5s29.333 -52.167 60 -69.5l188 -106c36.667 -20.667 63 -42.5 79 -65.5s24 -51.5 24 -85.5c0 -22 -3.33301 -40.5 -10 -55.5s-14.667 -26.5 -24 -34.5s-22.833 -14 -40.5 -18s-33.834 -6.5 -48.501 -7.5
s-34.667 -1.5 -60 -1.5c-66.667 0.666992 -138.667 4.66699 -216 12l4 31c86 -4.66699 155 -7.33398 207 -8.00098c20.667 0 36.667 0.166992 48 0.5s24.166 1.83301 38.499 4.5s25.166 6.83398 32.499 12.501s13.666 14 18.999 25s8 24.5 8 40.5c0 48 -25.333 86 -76 114
l-183 104c-42 23.333 -69 52 -81 86s-14.333 79.333 -7 136z" />
    <glyph glyph-name="dieresis" unicode="&#xa8;" horiz-adv-x="402" 
d="M105 678h15c9.33301 0 14 -4.66699 14 -14v-56c0 -9.33301 -4.66699 -14 -14 -14h-15c-8.66699 0 -13 4.66699 -13 14v56c0 9.33301 4.33301 14 13 14zM282 678h15c9.33301 0 14 -4.66699 14 -14v-56c0 -9.33301 -4.66699 -14 -14 -14h-15c-8.66699 0 -13 4.66699 -13 14
v56c0 9.33301 4.33301 14 13 14z" />
    <glyph glyph-name="copyright" unicode="&#xa9;" horiz-adv-x="852" 
d="M426 702c100.667 0 185.5 -33.833 254.5 -101.5s103.5 -152.834 103.5 -255.501s-34.5 -187.834 -103.5 -255.501s-153.833 -101.5 -254.5 -101.5c-100 0 -184.5 33.833 -253.5 101.5s-103.5 152.834 -103.5 255.501s34.5 187.834 103.5 255.501s153.5 101.5 253.5 101.5
zM426 675c-91.333 0 -169.166 -31.5 -233.499 -94.5s-96.5 -141.5 -96.5 -235.5s32.167 -172.5 96.5 -235.5s142.166 -94.5 233.499 -94.5c92 0 170 31.5 234 94.5s96 141.5 96 235.5s-32 172.5 -96 235.5s-142 94.5 -234 94.5zM571 156l3.99902 -24
c-38.667 -8.66699 -86.667 -13 -144 -13c-72 0 -122.5 17.167 -151.5 51.5s-43.5 93.5 -43.5 177.5s14.5 143.167 43.5 177.5s79.5 51.5 151.5 51.5c54.667 0 99.334 -4.33301 134.001 -13l-6 -23c-36 3.33301 -78.667 5 -128 5c-60 0 -101.833 -14.5 -125.5 -43.5
s-35.5 -80.5 -35.5 -154.5s11.833 -125.667 35.5 -155s65.5 -44 125.5 -44c62 0 108.667 2.33301 140 7z" />
    <glyph glyph-name="ordfeminine" unicode="&#xaa;" horiz-adv-x="443" 
d="M93 564l-4 24c73.333 9.33301 129.333 14 168 14c67.333 0 101 -32 101 -96v-235h-25l-6 62c-18 -17.333 -41.667 -32.833 -71 -46.5s-59 -20.5 -89 -20.5c-28.667 0 -51.167 7.16699 -67.5 21.5s-24.5 34.833 -24.5 61.5v41c0 24 7.5 42.833 22.5 56.5
s36.167 20.5 63.5 20.5h164v39c0 44.667 -24.333 67 -73 67c-44.667 0 -97.667 -3 -159 -9zM108 388l0.000976562 -33.999c0 -38 22.333 -57.667 67 -59c23.333 -0.666992 49.166 5 77.499 17s52.5 26.333 72.5 43v91l-157 -5c-40 -0.666992 -60 -18.334 -60 -53.001z" />
    <glyph glyph-name="guillemotleft" unicode="&#xab;" horiz-adv-x="460" 
d="M232 440l-142 -189l143 -192l-20 -15l-164 201v12l163 198zM396 440l-142 -189l143 -192l-20 -15l-164 201v12l163 198z" />
    <glyph glyph-name="logicalnot" unicode="&#xac;" horiz-adv-x="592" 
d="M505 313v-183h-34v150h-388v33h422z" />
    <glyph glyph-name="softhyphen" unicode="&#xad;" horiz-adv-x="474" 
d="M392 235h-310v33h310v-33z" />
    <glyph glyph-name="registered" unicode="&#xae;" horiz-adv-x="574" 
d="M287 701c61.333 0 113.666 -21.667 156.999 -65s65 -95.666 65 -156.999c0 -62 -21.667 -114.667 -65 -158s-95.666 -65 -156.999 -65c-62 0 -114.667 21.667 -158 65s-65 96 -65 158c0 61.333 21.667 113.666 65 156.999s96 65 158 65zM287 276
c55.333 0 102.666 19.667 141.999 59s59 87.333 59 144c0 56 -19.667 103.833 -59 143.5s-86.666 59.5 -141.999 59.5s-102.666 -19.833 -141.999 -59.5s-59 -87.5 -59 -143.5c0 -56.667 19.667 -104.667 59 -144s86.666 -59 141.999 -59zM337 469l0.000976562 -2
c18.667 -3.33301 31.667 -16.333 39 -39l36 -88h-26l-34 86c-9.33301 22.667 -26.333 34 -51 34c-15.333 0 -33.166 0.166992 -53.499 0.5s-32.833 0.5 -37.5 0.5v-121h-23v277c23.333 2 60.333 3 111 3c37.333 0 63.666 -5.66699 78.999 -17s23 -32 23 -62
c0 -23.333 -4.83301 -40.5 -14.5 -51.5s-25.834 -17.833 -48.501 -20.5zM210.001 478l87.999 0.000976562c29.333 0.666992 49.666 5.16699 60.999 13.5s17 24.166 17 47.499c0 24 -5.66699 40.167 -17 48.5s-31.666 12.5 -60.999 12.5
c-45.333 0 -74.666 -0.333008 -87.999 -1v-121z" />
    <glyph glyph-name="macron" unicode="&#xaf;" horiz-adv-x="400" 
d="M332 621h-264v33h264v-33z" />
    <glyph glyph-name="degree" unicode="&#xb0;" horiz-adv-x="378" 
d="M189 702c34 0 63.333 -12.167 88 -36.5s37 -53.5 37 -87.5s-12.333 -63.333 -37 -88s-54 -37 -88 -37s-63.333 12.333 -88 37s-37 54 -37 88s12.167 63.167 36.5 87.5s53.833 36.5 88.5 36.5zM189 674c-26.667 0 -49.332 -9.33301 -67.999 -28s-28 -41.334 -28 -68.001
c0 -26 9.5 -48.667 28.5 -68s41.5 -29 67.5 -29s48.5 9.66699 67.5 29s28.5 42 28.5 68c0 26.667 -9.33301 49.334 -28 68.001s-41.334 28 -68.001 28z" />
    <glyph glyph-name="plusminus" unicode="&#xb1;" horiz-adv-x="596" 
d="M509 366v-32h-195v-144h-33v144h-194v32h194v144h34v-144h194zM87 121h422v-33h-422v33z" />
    <glyph glyph-name="twosuperior" unicode="&#xb2;" horiz-adv-x="439" 
d="M78 741l-4.00098 24.001c48.667 10.667 93.667 16 135 16c48.667 0 84 -5.83301 106 -17.5s33 -34.834 33 -69.501c0 -25.333 -7 -49.833 -21 -73.5s-37 -51.5 -69 -83.5l-146 -148c25.333 0.666992 51 0.666992 77 0h179v-29h-298v19c0 6 2 11 6 15l150 152
c30.667 31.333 52.834 58.5 66.501 81.5s20.167 45.5 19.5 67.5c-0.666992 24 -9.16699 39.5 -25.5 46.5s-42.166 10.5 -77.499 10.5c-40.667 0 -84.334 -3.66699 -131.001 -11z" />
    <glyph glyph-name="threesuperior" unicode="&#xb3;" horiz-adv-x="422" 
d="M81 747l-3.99902 24c40.667 6.66699 81.334 10 122.001 10c54 0 91.333 -6.83301 112 -20.5s31 -38.5 31 -74.5c0 -61.333 -25 -96.333 -75 -105v-2c56 -8 84.667 -42.667 86 -104c1.33301 -42.667 -9 -73.667 -31 -93s-59.333 -29 -112 -29
c-34.667 0 -81.334 3.33301 -140.001 10l4 25c48 -4.66699 91.667 -7 131 -7c40.667 0 69.834 7.33301 87.501 22s26.5 39.667 26.5 75c0 26.667 -7.5 47.834 -22.5 63.501s-42.833 23.834 -83.5 24.501h-85v24l85 1c27.333 0.666992 48.666 6.16699 63.999 16.5
s24.666 21.166 27.999 32.499s5 24.666 5 39.999c-0.666992 28 -9 47.167 -25 57.5s-45.333 15.5 -88 15.5c-36 0 -74.667 -2 -116 -6z" />
    <glyph glyph-name="acute" unicode="&#xb4;" horiz-adv-x="287" 
d="M240 683l-163 -136l-18 20l155 145z" />
    <glyph glyph-name="paragraph" unicode="&#xb6;" horiz-adv-x="596" 
d="M490 0h-34.999v663c-34 4 -80 6.66699 -138 8v-881h-35v411c-82.667 7.33301 -142 30.333 -178 69s-54 98.667 -54 180c0 92 23 157 69 195s123.333 57 232 57c55.333 0 101.666 -5.66699 138.999 -17v-685z" />
    <glyph glyph-name="periodcentered" unicode="&#xb7;" horiz-adv-x="214" 
d="M100 304h14c11.333 0 17 -5.66699 17 -17v-60c0 -11.333 -5.66699 -17 -17 -17h-14c-12 0 -18 5.66699 -18 17v60c0 11.333 6 17 18 17z" />
    <glyph glyph-name="cedilla" unicode="&#xb8;" horiz-adv-x="223" 
d="M95 -68l5.00195 20.9961c29.333 2 51.166 -2.16699 65.499 -12.5s21.166 -27.833 20.499 -52.5c-0.666992 -36.667 -14.334 -65.5 -41.001 -86.5s-61.667 -28.833 -105 -23.5l6 23c32.667 -1.33301 58.834 6.33398 78.501 23.001s29.5 37.334 29.5 62.001
c0 16.667 -4.33301 28.334 -13 35.001s-24 10.334 -46 11.001z" />
    <glyph glyph-name="onesuperior" unicode="&#xb9;" horiz-adv-x="288" 
d="M201 360h-33v351c0 14 0.666992 24.667 2 32l-120 -35l-6 22l124 44h33v-414z" />
    <glyph glyph-name="ordmasculine" unicode="&#xba;" horiz-adv-x="448" 
d="M223 602c56.667 0 96.5 -12.667 119.5 -38s34.5 -69.333 34.5 -132c0 -62 -11.5 -105.667 -34.5 -131s-62.833 -38 -119.5 -38c-56 0 -95.333 12.667 -118 38s-34 69 -34 131c0 62.667 11.333 106.667 34 132s62 38 118 38zM223 574c-44 0 -74.667 -10.333 -92 -31
s-26 -57.667 -26 -111s8.66699 -90.166 26 -110.499s48 -30.5 92 -30.5s74.833 10.167 92.5 30.5s26.5 57.166 26.5 110.499s-8.66699 90.333 -26 111s-48.333 31 -93 31z" />
    <glyph glyph-name="guillemotright" unicode="&#xbb;" horiz-adv-x="460" 
d="M411 257v-12l-163 -201l-21 15l144 192l-143 189l21 15zM247 257v-12l-163 -201l-21 15l144 192l-143 189l21 15z" />
    <glyph glyph-name="onequarter" unicode="&#xbc;" horiz-adv-x="846" 
d="M174 276v351c0 14 0.666992 24.667 2 32l-121 -35l-5 22l124 44h32v-414h-32zM634 690l-472 -690h-33l471 690h34zM796 114l-45 -3v-111h-32v110h-220c-14.667 0 -25.667 5.33301 -33 16s-7.33301 23 0 37l142 251h34l-142 -249c-4 -6.66699 -4 -13 0 -19
s10.333 -9 19 -9h200v129l7 70h25v-199h45v-23z" />
    <glyph glyph-name="onehalf" unicode="&#xbd;" horiz-adv-x="875" 
d="M206 276h-32v351c0 14 0.666992 24.667 2 32l-121 -35l-5 22l124 44h32v-414zM161 0h-34l472 690h33zM529 381l-3.99805 24c48.667 10.667 93.667 16 135 16c48.667 0 84 -5.83301 106 -17.5s33 -34.834 33 -69.501c0 -25.333 -7 -49.666 -21 -72.999
s-37 -51.333 -69 -84l-146 -148c25.333 0.666992 51 0.666992 77 0h178v-29h-297v19c0 5.33301 1.66699 10.333 5 15l151 152c30.667 31.333 52.834 58.5 66.501 81.5s20.167 45.5 19.5 67.5c-0.666992 24 -9.33398 39.5 -26.001 46.5s-42.334 10.5 -77.001 10.5
c-40.667 0 -84.334 -3.66699 -131.001 -11z" />
    <glyph glyph-name="threequarters" unicode="&#xbe;" horiz-adv-x="936" 
d="M262 495v-2c56 -8 84.667 -42.667 86 -104c1.33301 -42.667 -8.83398 -73.667 -30.501 -93s-58.834 -29 -111.501 -29c-34 0 -81 3.33301 -141 10l4 25c48 -4.66699 91.667 -7 131 -7c40.667 0 69.834 7.33301 87.501 22s26.5 39.667 26.5 75
c0 26.667 -7.5 47.834 -22.5 63.501s-42.5 23.5 -82.5 23.5l-86 1v23l86 2c20.667 0.666992 37.834 3.66699 51.501 9s23.5 12.833 29.5 22.5s10 18.667 12 27s3 18.166 3 29.499c-0.666992 28.667 -9 48.167 -25 58.5s-45.333 15.5 -88 15.5c-36 0 -74.667 -2 -116 -6
l-4 24c40.667 6.66699 81.667 10 123 10c53.333 0 90.333 -6.83301 111 -20.5s31 -38.5 31 -74.5c0 -61.333 -25 -96.333 -75 -105zM737 690l-471 -690h-34l472 690h33zM886 114l-53.998 -3v-111h-32v110h-211c-14.667 0 -25.834 5.5 -33.501 16.5
s-7.83398 23.167 -0.500977 36.5l143 251h33l-142 -249c-3.33301 -7.33301 -3 -13.833 1 -19.5s10.333 -8.5 19 -8.5h191v129l7 70h25v-199h54v-23z" />
    <glyph glyph-name="questiondown" unicode="&#xbf;" horiz-adv-x="503" 
d="M253 492h13c11.333 0 17 -5.66699 17 -17v-60c0 -11.333 -5.66699 -17 -17 -17h-13c-11.333 0 -17 5.66699 -17 17v60c0 11.333 5.66699 17 17 17zM240 287l37.001 -0.000976562c0 -35.333 -6.16699 -67.333 -18.5 -96s-27.5 -52.5 -45.5 -71.5l-54 -54.5
c-18 -17.333 -33.333 -36.5 -46 -57.5s-19 -43.833 -19 -68.5c-0.666992 -42 12.166 -73.167 38.499 -93.5s66.833 -30.5 121.5 -30.5c59.333 0 125.333 4.33301 198 13l5 -29l-34.5 -6c-15.667 -2.66699 -27.5 -4.5 -35.5 -5.5s-19.167 -2.16699 -33.5 -3.5
s-29.833 -2.33301 -46.5 -3s-35.667 -1 -57 -1c-132 0 -198 51.667 -198 155c0 28 6.33301 53.833 19 77.5s28.167 44.667 46.5 63l55 55.5c18.333 18.667 34 41.334 47 68.001s19.833 56 20.5 88z" />
    <glyph glyph-name="Agrave" unicode="&#xc0;" horiz-adv-x="608" 
d="M328 734l-163 136l26 29l155 -145zM463 243h-318l-85 -243h-43l241 677c3.33301 8.66699 9.33301 13 18 13h56c8.66699 0 14.667 -4.33301 18 -13l241 -677h-43zM450 279l-112 321l-20 56h-28l-20 -56l-112 -321h292z" />
    <glyph glyph-name="Aacute" unicode="&#xc1;" horiz-adv-x="608" 
d="M270 734l-18 20l155 145l26 -29zM463 243h-318l-85 -243h-43l241 677c3.33301 8.66699 9.33301 13 18 13h56c8.66699 0 14.667 -4.33301 18 -13l241 -677h-43zM450 279l-112 321l-20 56h-28l-20 -56l-112 -321h292z" />
    <glyph glyph-name="Acircumflex" unicode="&#xc2;" horiz-adv-x="608" 
d="M170 746l-16 19l135 119h29l135 -119l-16 -19l-129 101h-8zM463 243h-318l-85 -243h-43l241 677c3.33301 8.66699 9.33301 13 18 13h56c8.66699 0 14.667 -4.33301 18 -13l241 -677h-43zM450 279l-112 321l-20 56h-28l-20 -56l-112 -321h292z" />
    <glyph glyph-name="Atilde" unicode="&#xc3;" horiz-adv-x="608" 
d="M179 774l-22.998 -0.000976562c-2 32 4 56.5 18 73.5s33.333 24.5 58 22.5c20 -2 43.833 -13 71.5 -33s51.167 -30.667 70.5 -32c20 -2 34.333 1.83301 43 11.5s13 25.834 13 48.501h23c1.33301 -30.667 -4.83398 -54.167 -18.501 -70.5s-32.834 -23.5 -57.501 -21.5
c-24 2 -50.167 12.833 -78.5 32.5s-49.833 30.5 -64.5 32.5c-19.333 2 -33.333 -2.16699 -42 -12.5s-13 -27.5 -13 -51.5zM463.002 242.999h-318l-85 -243h-43l241 677c3.33301 8.66699 9.33301 13 18 13h56c8.66699 0 14.667 -4.33301 18 -13l241 -677h-43z
M450.002 278.999l-112 321l-20 56h-28l-20 -56l-112 -321h292z" />
    <glyph glyph-name="Adieresis" unicode="&#xc4;" horiz-adv-x="608" 
d="M223 775h-15c-8.66699 0 -13 5 -13 15v55c0 10 4.33301 15 13 15h15c8.66699 0 13 -5 13 -15v-55c0 -10 -4.33301 -15 -13 -15zM400 775h-15c-8.66699 0 -13 5 -13 15v55c0 10 4.33301 15 13 15h15c8.66699 0 13 -5 13 -15v-55c0 -10 -4.33301 -15 -13 -15zM463 243h-318
l-85 -243h-43l241 677c3.33301 8.66699 9.33301 13 18 13h56c8.66699 0 14.667 -4.33301 18 -13l241 -677h-43zM450 279l-112 321l-20 56h-28l-20 -56l-112 -321h292z" />
    <glyph glyph-name="Aring" unicode="&#xc5;" horiz-adv-x="608" 
d="M304 718c-27.333 0 -50.5 9.5 -69.5 28.5s-28.5 41.833 -28.5 68.5c0 27.333 9.66699 50.5 29 69.5s42.333 28.5 69 28.5c27.333 0 50.666 -9.5 69.999 -28.5s29 -42.167 29 -69.5c0 -26.667 -9.66699 -49.5 -29 -68.5s-42.666 -28.5 -69.999 -28.5zM304 888
c-20 0 -36.833 -7 -50.5 -21s-20.5 -31.333 -20.5 -52s6.83301 -37.834 20.5 -51.501s30.5 -20.5 50.5 -20.5s37 6.83301 51 20.5s21 30.834 21 51.501s-7 38 -21 52s-31 21 -51 21zM463 243h-318l-85 -243h-43l241 677c3.33301 8.66699 9.33301 13 18 13h56
c8.66699 0 14.667 -4.33301 18 -13l241 -677h-43zM450 279l-112 321l-20 56h-28l-20 -56l-112 -321h292z" />
    <glyph glyph-name="AE" unicode="&#xc6;" horiz-adv-x="908" 
d="M850 35l0.000976562 -31c-61.333 -2.66699 -154 -4 -278 -4c-30.667 0 -56 10 -76 30s-30 45.333 -30 76v154h-246l-166 -260h-46l384 599c23.333 36 48.5 60.167 75.5 72.5s62.167 18.5 105.5 18.5c117.333 0 209.666 -1.33301 276.999 -4v-32h-265
c-24 0 -43.167 -7 -57.5 -21s-21.5 -33 -21.5 -57v-191h302v-34h-302v-237c0 -24 7.16699 -43.167 21.5 -57.5s33.5 -21.5 57.5 -21.5h265zM466.001 295v284c0 15.333 3.83301 30.5 11.5 45.5s16.834 25.167 27.501 30.5h-7c-24.667 -11.333 -48.334 -34.333 -71.001 -69
l-185 -291h224z" />
    <glyph glyph-name="Ccedilla" unicode="&#xc7;" 
d="M516 38l7 -30.998c-52.667 -12.667 -116.667 -19 -192 -19c-95.333 0 -162.333 26.667 -201 80s-58 145.666 -58 276.999s19.333 223.666 58 276.999s105.667 80 201 80c70 0 129.333 -6 178 -18l-7 -30c-52 7.33301 -109 11 -171 11
c-80.667 0 -136.834 -23.5 -168.501 -70.5s-47.5 -130.167 -47.5 -249.5s15.833 -202.5 47.5 -249.5s87.834 -70.5 168.501 -70.5c72 0 133.667 4.33301 185 13zM292 -79.998l5 20.9961c59.333 4 88 -17.667 86 -65c-0.666992 -36.667 -14.334 -65.5 -41.001 -86.5
s-61.667 -28.833 -105 -23.5l6 23c32.667 -1.33301 58.834 6.33398 78.501 23.001s29.5 37.334 29.5 62.001c0 16.667 -4.33301 28.334 -13 35.001s-24 10.334 -46 11.001z" />
    <glyph glyph-name="Egrave" unicode="&#xc8;" horiz-adv-x="553" 
d="M334 758l-163 136l26 29l155 -145zM495 35l2 -31.002c-64 -2.66699 -162 -4 -294 -4c-32.667 0 -59.167 9.83301 -79.5 29.5s-30.5 45.167 -30.5 76.5v478c0 31.333 10.167 56.833 30.5 76.5s46.833 29.5 79.5 29.5c132 0 230 -1.33301 294 -4l-2 -31h-285
c-22.667 0 -41 -7.16699 -55 -21.5s-21 -33.166 -21 -56.499v-192h320v-34h-320v-238c0 -23.333 7 -42.166 21 -56.499s32.333 -21.5 55 -21.5h285z" />
    <glyph glyph-name="Eacute" unicode="&#xc9;" horiz-adv-x="553" 
d="M275 758l-18 20l156 145l25 -29zM495 35l2 -31.002c-64 -2.66699 -162 -4 -294 -4c-32.667 0 -59.167 9.83301 -79.5 29.5s-30.5 45.167 -30.5 76.5v478c0 31.333 10.167 56.833 30.5 76.5s46.833 29.5 79.5 29.5c132 0 230 -1.33301 294 -4l-2 -31h-285
c-22.667 0 -41 -7.16699 -55 -21.5s-21 -33.166 -21 -56.499v-192h320v-34h-320v-238c0 -23.333 7 -42.166 21 -56.499s32.333 -21.5 55 -21.5h285z" />
    <glyph glyph-name="Ecircumflex" unicode="&#xca;" horiz-adv-x="553" 
d="M176 770l-16 18l134 120h30l135 -120l-16 -18l-130 101h-8zM495 35l2 -31.002c-64 -2.66699 -162 -4 -294 -4c-32.667 0 -59.167 9.83301 -79.5 29.5s-30.5 45.167 -30.5 76.5v478c0 31.333 10.167 56.833 30.5 76.5s46.833 29.5 79.5 29.5c132 0 230 -1.33301 294 -4
l-2 -31h-285c-22.667 0 -41 -7.16699 -55 -21.5s-21 -33.166 -21 -56.499v-192h320v-34h-320v-238c0 -23.333 7 -42.166 21 -56.499s32.333 -21.5 55 -21.5h285z" />
    <glyph glyph-name="Edieresis" unicode="&#xcb;" horiz-adv-x="553" 
d="M228 799h-14c-9.33301 0 -14 4.66699 -14 14v56c0 9.33301 4.66699 14 14 14h14c9.33301 0 14 -4.66699 14 -14v-56c0 -9.33301 -4.66699 -14 -14 -14zM405 799h-14c-9.33301 0 -14 4.66699 -14 14v56c0 9.33301 4.66699 14 14 14h14c9.33301 0 14 -4.66699 14 -14v-56
c0 -9.33301 -4.66699 -14 -14 -14zM495 35l2 -31.002c-64 -2.66699 -162 -4 -294 -4c-32.667 0 -59.167 9.83301 -79.5 29.5s-30.5 45.167 -30.5 76.5v478c0 31.333 10.167 56.833 30.5 76.5s46.833 29.5 79.5 29.5c132 0 230 -1.33301 294 -4l-2 -31h-285
c-22.667 0 -41 -7.16699 -55 -21.5s-21 -33.166 -21 -56.499v-192h320v-34h-320v-238c0 -23.333 7 -42.166 21 -56.499s32.333 -21.5 55 -21.5h285z" />
    <glyph glyph-name="Igrave" unicode="&#xcc;" horiz-adv-x="239" 
d="M161 754l-18 -20l-163 136l26 29zM140 0h-41v690h41v-690z" />
    <glyph glyph-name="Iacute" unicode="&#xcd;" horiz-adv-x="239" 
d="M248 870l-163 -136l-18 20l155 145zM140 0h-41v690h41v-690z" />
    <glyph glyph-name="Icircumflex" unicode="&#xce;" horiz-adv-x="239" 
d="M268 765l-16 -19l-130 101h-8l-129 -101l-16 19l135 119h29zM140 0h-41v690h41v-690z" />
    <glyph glyph-name="Idieresis" unicode="&#xcf;" horiz-adv-x="239" 
d="M23 860h15c8.66699 0 13 -5 13 -15v-55c0 -10 -4.33301 -15 -13 -15h-15c-9.33301 0 -14 5 -14 15v55c0 10 4.66699 15 14 15zM200 860h15c8.66699 0 13 -5 13 -15v-55c0 -10 -4.33301 -15 -13 -15h-15c-9.33301 0 -14 5 -14 15v55c0 10 4.66699 15 14 15zM140 0h-41v690
h41v-690z" />
    <glyph glyph-name="Eth" unicode="&#xd0;" horiz-adv-x="664" 
d="M102 384v306.002c81.333 6 159.333 9 234 9c94 0 160 -26.333 198 -79s57 -144.334 57 -275.001s-19 -222.334 -57 -275.001s-104 -79 -198 -79c-73.333 0 -151.333 3 -234 9v356h-77v28h77zM143 356.002v-325c56 -2 120.333 -3 193 -3c78.667 0 133.667 23.333 165 70
s47 129 47 247s-15.667 200.333 -47 247s-86.333 70 -165 70c-70.667 0 -135 -1 -193 -3v-275h175v-28h-175z" />
    <glyph glyph-name="Ntilde" unicode="&#xd1;" horiz-adv-x="692" 
d="M233 774l-23 -0.000976562c-1.33301 32 5 56.5 19 73.5s33 24.5 57 22.5c20 -2 44 -13 72 -33s51.667 -30.667 71 -32c20 -2 34.167 1.83301 42.5 11.5s12.5 25.834 12.5 48.501h23c2 -31.333 -4 -55 -18 -71s-33.333 -23 -58 -21c-24 2 -50 12.833 -78 32.5
s-49.333 30.5 -64 32.5c-20 2 -34.333 -2.16699 -43 -12.5s-13 -27.5 -13 -51.5zM593 689.999l0.000976562 -669.999c0 -13.333 -6.33301 -20 -19 -20h-54c-10.667 0 -18.334 5 -23.001 15l-298 564c-18.667 36 -31 60.667 -37 74h-23c0.666992 -16.667 1 -41.667 1 -75
v-578h-41v670c0 13.333 6.66699 20 20 20h50c11.333 0 19.333 -5 24 -15l290 -551c5.33301 -8.66699 20.333 -37.334 45 -86.001h25c0 10.667 -0.166992 26.5 -0.5 47.5s-0.5 36.5 -0.5 46.5v558h41z" />
    <glyph glyph-name="Ograve" unicode="&#xd2;" horiz-adv-x="664" 
d="M374 754l-18 -20l-163 136l26 29zM332 702c96 0 163.167 -26.3311 201.5 -78.998s57.5 -145.334 57.5 -278.001s-19.167 -225.334 -57.5 -278.001s-105.5 -79 -201.5 -79s-163.333 26.5 -202 79.5s-58 145.5 -58 277.5s19.333 224.5 58 277.5s106 79.5 202 79.5z
M332 665.002c-80.667 0 -137 -23.667 -169 -71s-48 -130.333 -48 -249s16 -201.667 48 -249s88.333 -71 169 -71s136.834 23.5 168.501 70.5s47.5 130.167 47.5 249.5s-15.833 202.5 -47.5 249.5s-87.834 70.5 -168.501 70.5z" />
    <glyph glyph-name="Oacute" unicode="&#xd3;" horiz-adv-x="664" 
d="M461 870l-163 -136l-18 20l155 145zM332 702c96 0 163.167 -26.3311 201.5 -78.998s57.5 -145.334 57.5 -278.001s-19.167 -225.334 -57.5 -278.001s-105.5 -79 -201.5 -79s-163.333 26.5 -202 79.5s-58 145.5 -58 277.5s19.333 224.5 58 277.5s106 79.5 202 79.5z
M332 665.002c-80.667 0 -137 -23.667 -169 -71s-48 -130.333 -48 -249s16 -201.667 48 -249s88.333 -71 169 -71s136.834 23.5 168.501 70.5s47.5 130.167 47.5 249.5s-15.833 202.5 -47.5 249.5s-87.834 70.5 -168.501 70.5z" />
    <glyph glyph-name="Ocircumflex" unicode="&#xd4;" horiz-adv-x="664" 
d="M481 765l-16 -19l-129 101h-8l-130 -101l-16 19l135 119h29zM332 702c96 0 163.167 -26.3311 201.5 -78.998s57.5 -145.334 57.5 -278.001s-19.167 -225.334 -57.5 -278.001s-105.5 -79 -201.5 -79s-163.333 26.5 -202 79.5s-58 145.5 -58 277.5s19.333 224.5 58 277.5
s106 79.5 202 79.5zM332 665.002c-80.667 0 -137 -23.667 -169 -71s-48 -130.333 -48 -249s16 -201.667 48 -249s88.333 -71 169 -71s136.834 23.5 168.501 70.5s47.5 130.167 47.5 249.5s-15.833 202.5 -47.5 249.5s-87.834 70.5 -168.501 70.5z" />
    <glyph glyph-name="Otilde" unicode="&#xd5;" horiz-adv-x="664" 
d="M207 774l-22.998 -0.000976562c-2 32 4 56.5 18 73.5s33.333 24.5 58 22.5c20 -2 43.833 -13 71.5 -33s51.167 -30.667 70.5 -32c20 -2 34.333 1.83301 43 11.5s13 25.834 13 48.501h23c1.33301 -30.667 -4.83398 -54.167 -18.501 -70.5s-32.834 -23.5 -57.501 -21.5
c-24 2 -50.167 12.833 -78.5 32.5s-49.833 30.5 -64.5 32.5c-19.333 2 -33.333 -2.16699 -42 -12.5s-13 -27.5 -13 -51.5zM332.002 701.999c96 0 163.167 -26.3311 201.5 -78.998s57.5 -145.334 57.5 -278.001s-19.167 -225.334 -57.5 -278.001s-105.5 -79 -201.5 -79
s-163.333 26.5 -202 79.5s-58 145.5 -58 277.5s19.333 224.5 58 277.5s106 79.5 202 79.5zM332.002 665.001c-80.667 0 -137 -23.667 -169 -71s-48 -130.333 -48 -249s16 -201.667 48 -249s88.333 -71 169 -71s136.834 23.5 168.501 70.5s47.5 130.167 47.5 249.5
s-15.833 202.5 -47.5 249.5s-87.834 70.5 -168.501 70.5z" />
    <glyph glyph-name="Odieresis" unicode="&#xd6;" horiz-adv-x="664" 
d="M236 860h15c8.66699 0 13 -5 13 -15v-55c0 -10 -4.33301 -15 -13 -15h-15c-8.66699 0 -13 5 -13 15v55c0 10 4.33301 15 13 15zM413 860h15c8.66699 0 13 -5 13 -15v-55c0 -10 -4.33301 -15 -13 -15h-15c-8.66699 0 -13 5 -13 15v55c0 10 4.33301 15 13 15zM332 702
c96 0 163.167 -26.3311 201.5 -78.998s57.5 -145.334 57.5 -278.001s-19.167 -225.334 -57.5 -278.001s-105.5 -79 -201.5 -79s-163.333 26.5 -202 79.5s-58 145.5 -58 277.5s19.333 224.5 58 277.5s106 79.5 202 79.5zM332 665.002c-80.667 0 -137 -23.667 -169 -71
s-48 -130.333 -48 -249s16 -201.667 48 -249s88.333 -71 169 -71s136.834 23.5 168.501 70.5s47.5 130.167 47.5 249.5s-15.833 202.5 -47.5 249.5s-87.834 70.5 -168.501 70.5z" />
    <glyph glyph-name="multiply" unicode="&#xd7;" horiz-adv-x="487" 
d="M60 433l352 -316l21 26l-352 316z" />
    <glyph glyph-name="Oslash" unicode="&#xd8;" horiz-adv-x="664" 
d="M522 731l-31.001 -66.999c35.333 -24 60.833 -61.333 76.5 -112s23.5 -119.667 23.5 -207c0 -132.667 -19.167 -225.334 -57.5 -278.001s-105.5 -79 -201.5 -79c-60.667 0 -109 9.66699 -145 29l-33 -70l-27 13l35 74c-31.333 25.333 -54.166 63 -68.499 113
s-21.5 116 -21.5 198c0 132 19.333 224.5 58 277.5s106 79.5 202 79.5c54.667 0 98.667 -7.66699 132 -23l30 64zM180.999 74.001l266 568c-28.667 15.333 -67 23 -115 23c-80.667 0 -137 -23.667 -169 -71s-48 -130.333 -48 -249c0 -136 22 -226.333 66 -271z
M471.999 625.001l-267.001 -570c30.667 -20 73 -30 127 -30c80.667 0 136.834 23.5 168.501 70.5s47.5 130.167 47.5 249.5c0 75.333 -5.83301 135.333 -17.5 180s-31.167 78 -58.5 100z" />
    <glyph glyph-name="Ugrave" unicode="&#xd9;" horiz-adv-x="667" 
d="M377 754l-18 -20l-163 136l26 29zM573 690v-433c0 -97.333 -18 -166.5 -54 -207.5s-97.333 -61.5 -184 -61.5c-88 0 -150.167 20.5 -186.5 61.5s-54.5 110.167 -54.5 207.5v433h41v-433c0 -85.333 14.833 -145.333 44.5 -180s81.167 -52 154.5 -52
c72 0 123 17.333 153 52s45 94.667 45 180v433h41z" />
    <glyph glyph-name="Uacute" unicode="&#xda;" horiz-adv-x="667" 
d="M463 870l-163 -136l-18 20l155 145zM573 690v-433c0 -97.333 -18 -166.5 -54 -207.5s-97.333 -61.5 -184 -61.5c-88 0 -150.167 20.5 -186.5 61.5s-54.5 110.167 -54.5 207.5v433h41v-433c0 -85.333 14.833 -145.333 44.5 -180s81.167 -52 154.5 -52
c72 0 123 17.333 153 52s45 94.667 45 180v433h41z" />
    <glyph glyph-name="Ucircumflex" unicode="&#xdb;" horiz-adv-x="667" 
d="M484 765l-16 -19l-130 101h-8l-129 -101l-17 19l135 119h30zM573 690v-433c0 -97.333 -18 -166.5 -54 -207.5s-97.333 -61.5 -184 -61.5c-88 0 -150.167 20.5 -186.5 61.5s-54.5 110.167 -54.5 207.5v433h41v-433c0 -85.333 14.833 -145.333 44.5 -180
s81.167 -52 154.5 -52c72 0 123 17.333 153 52s45 94.667 45 180v433h41z" />
    <glyph glyph-name="Udieresis" unicode="&#xdc;" horiz-adv-x="667" 
d="M238 860h15c9.33301 0 14 -5 14 -15v-55c0 -10 -4.66699 -15 -14 -15h-15c-8.66699 0 -13 5 -13 15v55c0 10 4.33301 15 13 15zM416 860h14c9.33301 0 14 -5 14 -15v-55c0 -10 -4.66699 -15 -14 -15h-14c-9.33301 0 -14 5 -14 15v55c0 10 4.66699 15 14 15zM573 690v-433
c0 -97.333 -18 -166.5 -54 -207.5s-97.333 -61.5 -184 -61.5c-88 0 -150.167 20.5 -186.5 61.5s-54.5 110.167 -54.5 207.5v433h41v-433c0 -85.333 14.833 -145.333 44.5 -180s81.167 -52 154.5 -52c72 0 123 17.333 153 52s45 94.667 45 180v433h41z" />
    <glyph glyph-name="Yacute" unicode="&#xdd;" horiz-adv-x="548" 
d="M240 734l-18 20l155 145l26 -29zM295 253v-253h-42v254l-234 436h45l171 -322c4 -7.33301 10 -19 18 -35l18 -36h6l35 70l171 323h45z" />
    <glyph glyph-name="Thorn" unicode="&#xde;" horiz-adv-x="585" 
d="M140 690l-0.000976562 -136c34.667 2.66699 96 4 184 4c76.667 0 130 -14.5 160 -43.5s45 -83.5 45 -163.5s-14.833 -134.5 -44.5 -163.5s-82.167 -43.5 -157.5 -43.5c-71.333 0 -133.666 2 -186.999 6v-150h-41v550v140h41zM139.999 181l184 -0.000976562
c61.333 1.33301 103.833 13.5 127.5 36.5s35.5 67.5 35.5 133.5c0 66.667 -11.833 111.834 -35.5 135.501s-66.167 35.5 -127.5 35.5c-70.667 0 -132 -0.666992 -184 -2v-339z" />
    <glyph glyph-name="germandbls" unicode="&#xdf;" horiz-adv-x="657" 
d="M390 289l125 -41.998c32.667 -10.667 56.667 -25.167 72 -43.5s23 -45.166 23 -80.499c0 -55.333 -13.167 -91.5 -39.5 -108.5s-67.833 -25.5 -124.5 -25.5c-59.333 0 -114 3.66699 -164 11l3 30c44.667 -4.66699 97 -7 157 -7c47.333 1.33301 80.5 8.16602 99.5 20.499
s28.5 39.166 28.5 80.499c0 29.333 -5.83301 50 -17.5 62s-30.167 22.333 -55.5 31l-125 42c-28.667 10 -50.334 23 -65.001 39s-22 38.333 -22 67c0 12 0.833008 22.667 2.5 32s5.5 17.666 11.5 24.999l15 18c4 4.66699 11.833 10 23.5 16s20 10.167 25 12.5
s16 6.5 33 12.5s28.5 10.333 34.5 13c30 11.333 50.333 24 61 38s16 35.667 16 65c0 30.667 -14.167 52.167 -42.5 64.5s-72.166 18.5 -131.499 18.5c-66 0 -111.167 -10 -135.5 -30s-36.5 -59.333 -36.5 -118v-532h-40v448h-87v30l87 3v53c0 40 4.83301 72.5 14.5 97.5
s25 43.333 46 55s42.333 19.167 64 22.5s50.5 5 86.5 5c72 0 125.333 -8.5 160 -25.5s52 -47.167 52 -90.5c0 -36.667 -7.16699 -64 -21.5 -82s-39.833 -34.333 -76.5 -49l-36.5 -13c-17 -6 -27.833 -10 -32.5 -12s-12 -5.83301 -22 -11.5s-16.167 -11 -18.5 -16
s-5 -11.5 -8 -19.5s-4.5 -17.667 -4.5 -29c0 -22 5.5 -38.5 16.5 -49.5s27.5 -20.167 49.5 -27.5z" />
    <glyph glyph-name="agrave" unicode="&#xe0;" horiz-adv-x="541" 
d="M291 552l-163 136l26 30l155 -146zM86 443l-3.99902 30c101.333 14 178 21 230 21c94.667 0 142 -46.667 142 -140v-354h-30l-7 89c-24.667 -24 -57.834 -46 -99.501 -66s-83.167 -30 -124.5 -30s-73.5 10.833 -96.5 32.5s-34.5 52.5 -34.5 92.5v60
c0 36.667 10.5 65 31.5 85s50.5 30 88.5 30h232v61c0 33.333 -8 59 -24 77s-43.667 27 -83 27c-57.333 0 -131 -5 -221 -15zM103.001 175l0.000976562 -54c0 -60 31.333 -90.333 94 -91c33.333 -0.666992 70.666 7.83301 111.999 25.5s76.333 39.834 105 66.501v139l-228 -3
c-55.333 -0.666992 -83 -28.334 -83 -83.001z" />
    <glyph glyph-name="aacute" unicode="&#xe1;" horiz-adv-x="541" 
d="M233 552l-18 20l155 146l26 -30zM86 443l-3.99902 30c101.333 14 178 21 230 21c94.667 0 142 -46.667 142 -140v-354h-30l-7 89c-24.667 -24 -57.834 -46 -99.501 -66s-83.167 -30 -124.5 -30s-73.5 10.833 -96.5 32.5s-34.5 52.5 -34.5 92.5v60
c0 36.667 10.5 65 31.5 85s50.5 30 88.5 30h232v61c0 33.333 -8 59 -24 77s-43.667 27 -83 27c-57.333 0 -131 -5 -221 -15zM103.001 175l0.000976562 -54c0 -60 31.333 -90.333 94 -91c33.333 -0.666992 70.666 7.83301 111.999 25.5s76.333 39.834 105 66.501v139l-228 -3
c-55.333 -0.666992 -83 -28.334 -83 -83.001z" />
    <glyph glyph-name="acircumflex" unicode="&#xe2;" horiz-adv-x="541" 
d="M134 565l-17 18l135 120h29l135 -120l-15 -18l-130 101h-8zM86 443l-3.99902 30c101.333 14 178 21 230 21c94.667 0 142 -46.667 142 -140v-354h-30l-7 89c-24.667 -24 -57.834 -46 -99.501 -66s-83.167 -30 -124.5 -30s-73.5 10.833 -96.5 32.5s-34.5 52.5 -34.5 92.5
v60c0 36.667 10.5 65 31.5 85s50.5 30 88.5 30h232v61c0 33.333 -8 59 -24 77s-43.667 27 -83 27c-57.333 0 -131 -5 -221 -15zM103.001 175l0.000976562 -54c0 -60 31.333 -90.333 94 -91c33.333 -0.666992 70.666 7.83301 111.999 25.5s76.333 39.834 105 66.501v139
l-228 -3c-55.333 -0.666992 -83 -28.334 -83 -83.001z" />
    <glyph glyph-name="atilde" unicode="&#xe3;" horiz-adv-x="541" 
d="M142 593h-23c-2 32 4 56.333 18 73s33.333 24 58 22c20 -2 43.833 -12.833 71.5 -32.5s51.167 -30.5 70.5 -32.5c20 -1.33301 34.333 2.66699 43 12s13 25.333 13 48h23c1.33301 -30.667 -5 -54.167 -19 -70.5s-33 -23.5 -57 -21.5s-50 13 -78 33s-49.667 30.667 -65 32
c-36.667 4 -55 -17 -55 -63zM86 443l-3.99902 30c101.333 14 178 21 230 21c94.667 0 142 -46.667 142 -140v-354h-30l-7 89c-24.667 -24 -57.834 -46 -99.501 -66s-83.167 -30 -124.5 -30s-73.5 10.833 -96.5 32.5s-34.5 52.5 -34.5 92.5v60c0 36.667 10.5 65 31.5 85
s50.5 30 88.5 30h232v61c0 33.333 -8 59 -24 77s-43.667 27 -83 27c-57.333 0 -131 -5 -221 -15zM103.001 175l0.000976562 -54c0 -60 31.333 -90.333 94 -91c33.333 -0.666992 70.666 7.83301 111.999 25.5s76.333 39.834 105 66.501v139l-228 -3
c-55.333 -0.666992 -83 -28.334 -83 -83.001z" />
    <glyph glyph-name="adieresis" unicode="&#xe4;" horiz-adv-x="541" 
d="M186 594h-15c-8.66699 0 -13 4.66699 -13 14v56c0 9.33301 4.33301 14 13 14h15c8.66699 0 13 -4.66699 13 -14v-56c0 -9.33301 -4.33301 -14 -13 -14zM363 594h-15c-8.66699 0 -13 4.66699 -13 14v56c0 9.33301 4.33301 14 13 14h15c9.33301 0 14 -4.66699 14 -14v-56
c0 -9.33301 -4.66699 -14 -14 -14zM86 443l-3.99902 30c101.333 14 178 21 230 21c94.667 0 142 -46.667 142 -140v-354h-30l-7 89c-24.667 -24 -57.834 -46 -99.501 -66s-83.167 -30 -124.5 -30s-73.5 10.833 -96.5 32.5s-34.5 52.5 -34.5 92.5v60
c0 36.667 10.5 65 31.5 85s50.5 30 88.5 30h232v61c0 33.333 -8 59 -24 77s-43.667 27 -83 27c-57.333 0 -131 -5 -221 -15zM103.001 175l0.000976562 -54c0 -60 31.333 -90.333 94 -91c33.333 -0.666992 70.666 7.83301 111.999 25.5s76.333 39.834 105 66.501v139l-228 -3
c-55.333 -0.666992 -83 -28.334 -83 -83.001z" />
    <glyph glyph-name="aring" unicode="&#xe5;" horiz-adv-x="541" 
d="M268 536c-27.333 0 -50.666 9.5 -69.999 28.5s-29 42.167 -29 69.5s9.66699 50.5 29 69.5s42.666 28.5 69.999 28.5c26.667 0 49.667 -9.66699 69 -29s29 -42.333 29 -69c0 -27.333 -9.5 -50.5 -28.5 -69.5s-42.167 -28.5 -69.5 -28.5zM268 706
c-20.667 0 -37.667 -6.83203 -51 -20.499s-20 -30.834 -20 -51.501s6.66699 -37.834 20 -51.501s30.333 -20.5 51 -20.5c20 0 36.833 6.83301 50.5 20.5s20.5 30.834 20.5 51.501c0 20 -6.83301 37 -20.5 51s-30.5 21 -50.5 21zM86 443.001l-3.99902 30
c101.333 14 178 21 230 21c94.667 0 142 -46.667 142 -140v-354h-30l-7 89c-24.667 -24 -57.834 -46 -99.501 -66s-83.167 -30 -124.5 -30s-73.5 10.833 -96.5 32.5s-34.5 52.5 -34.5 92.5v60c0 36.667 10.5 65 31.5 85s50.5 30 88.5 30h232v61c0 33.333 -8 59 -24 77
s-43.667 27 -83 27c-57.333 0 -131 -5 -221 -15zM103.001 175.001l0.000976562 -54c0 -60 31.333 -90.333 94 -91c33.333 -0.666992 70.666 7.83301 111.999 25.5s76.333 39.834 105 66.501v139l-228 -3c-55.333 -0.666992 -83 -28.334 -83 -83.001z" />
    <glyph glyph-name="ae" unicode="&#xe6;" horiz-adv-x="878" 
d="M680 221h-224.004c2.66699 -73.333 18 -124.5 46 -153.5s73.333 -43.5 136 -43.5c55.333 0 110.333 4 165 12l5 -28c-40 -13.333 -98.333 -20 -175 -20c-104.667 0 -170.667 37 -198 111c-25.333 -26 -60.666 -50.167 -105.999 -72.5s-90.666 -33.5 -135.999 -33.5
c-41.333 0 -73.5 10.833 -96.5 32.5s-34.5 52.5 -34.5 92.5v60c0 36.667 10.5 65 31.5 85s50.5 30 88.5 30h232v61c0 33.333 -8 59 -24 77s-43.667 27 -83 27c-57.333 0 -131 -5 -221 -15l-4 30c101.333 14 178 21 230 21c72.667 0 117.334 -26.667 134.001 -80
c30 53.333 89.667 80 179 80c127.333 0 192 -47.333 194 -142c0.666992 -46.667 -9.66602 -80.167 -30.999 -100.5s-57.333 -30.5 -108 -30.5zM455.996 254h218.001c38.667 0 66 7.5 82 22.5s23.333 39.5 22 73.5c-0.666992 72 -51.334 108 -152.001 108
c-62 0 -105.667 -15 -131 -45s-38.333 -83 -39 -159zM102.997 175l0.000976562 -53.998c0 -60 31.333 -90.333 94 -91c34.667 -0.666992 73.667 8.16602 117 26.499s80.666 41.5 111.999 69.5c-8 33.333 -12 72.333 -12 117v17v1l-228 -3
c-55.333 -0.666992 -83 -28.334 -83 -83.001z" />
    <glyph glyph-name="ccedilla" unicode="&#xe7;" horiz-adv-x="481" 
d="M433 35l5.99805 -28c-48.667 -12.667 -99 -19 -151 -19c-81.333 0 -138.833 19 -172.5 57s-50.5 103.333 -50.5 196s16.833 158 50.5 196s90.834 57 171.501 57c58 0 105 -6.33301 141 -19l-7 -27c-35.333 6.66699 -77.666 10 -126.999 10
c-69.333 0 -117.833 -15.5 -145.5 -46.5s-41.5 -87.833 -41.5 -170.5s13.833 -139.5 41.5 -170.5s76.167 -46.5 145.5 -46.5c56 0 102.333 3.66699 139 11zM246.998 -80l4.00098 20.999c30 2 52.167 -2.16699 66.5 -12.5s21.166 -27.833 20.499 -52.5
c-0.666992 -36.667 -14.5 -65.5 -41.5 -86.5s-61.833 -28.833 -104.5 -23.5l6 23c32.667 -1.33301 58.667 6.16699 78 22.5s29.333 37.166 30 62.499c0 16.667 -4.33301 28.334 -13 35.001s-24 10.334 -46 11.001z" />
    <glyph glyph-name="egrave" unicode="&#xe8;" horiz-adv-x="530" 
d="M302 552l-163 136l25 30l155 -146zM364 221h-257c2.66699 -73.333 18 -124.5 46 -153.5s73.333 -43.5 136 -43.5c55.333 0 110.333 4 165 12l5 -28c-40 -13.333 -98.333 -20 -175 -20c-78 0 -134 19.5 -168 58.5s-51 104.5 -51 196.5s16.167 156.833 48.5 194.5
s86.5 56.5 162.5 56.5c127.333 0 192 -47.333 194 -142c1.33301 -44 -6.5 -76.833 -23.5 -98.5s-44.5 -32.5 -82.5 -32.5zM107 254l250.999 0.000976562c49.333 0 73 32 71 96c-0.666992 37.333 -13.167 64.666 -37.5 81.999s-62.166 26 -113.499 26
c-62.667 0 -106.667 -15 -132 -45s-38.333 -83 -39 -159z" />
    <glyph glyph-name="eacute" unicode="&#xe9;" horiz-adv-x="530" 
d="M243 552l-18 20l155 146l26 -30zM364 221h-257c2.66699 -73.333 18 -124.5 46 -153.5s73.333 -43.5 136 -43.5c55.333 0 110.333 4 165 12l5 -28c-40 -13.333 -98.333 -20 -175 -20c-78 0 -134 19.5 -168 58.5s-51 104.5 -51 196.5s16.167 156.833 48.5 194.5
s86.5 56.5 162.5 56.5c127.333 0 192 -47.333 194 -142c1.33301 -44 -6.5 -76.833 -23.5 -98.5s-44.5 -32.5 -82.5 -32.5zM107 254l250.999 0.000976562c49.333 0 73 32 71 96c-0.666992 37.333 -13.167 64.666 -37.5 81.999s-62.166 26 -113.499 26
c-62.667 0 -106.667 -15 -132 -45s-38.333 -83 -39 -159z" />
    <glyph glyph-name="ecircumflex" unicode="&#xea;" horiz-adv-x="530" 
d="M144 565l-17 18l135 120h30l135 -120l-16 -18l-130 101h-8zM364 221h-257c2.66699 -73.333 18 -124.5 46 -153.5s73.333 -43.5 136 -43.5c55.333 0 110.333 4 165 12l5 -28c-40 -13.333 -98.333 -20 -175 -20c-78 0 -134 19.5 -168 58.5s-51 104.5 -51 196.5
s16.167 156.833 48.5 194.5s86.5 56.5 162.5 56.5c127.333 0 192 -47.333 194 -142c1.33301 -44 -6.5 -76.833 -23.5 -98.5s-44.5 -32.5 -82.5 -32.5zM107 254l250.999 0.000976562c49.333 0 73 32 71 96c-0.666992 37.333 -13.167 64.666 -37.5 81.999
s-62.166 26 -113.499 26c-62.667 0 -106.667 -15 -132 -45s-38.333 -83 -39 -159z" />
    <glyph glyph-name="edieresis" unicode="&#xeb;" horiz-adv-x="530" 
d="M196 594h-15c-8.66699 0 -13 4.66699 -13 14v56c0 9.33301 4.33301 14 13 14h15c9.33301 0 14 -4.66699 14 -14v-56c0 -9.33301 -4.66699 -14 -14 -14zM373 594h-14c-9.33301 0 -14 4.66699 -14 14v56c0 9.33301 4.66699 14 14 14h14c9.33301 0 14 -4.66699 14 -14v-56
c0 -9.33301 -4.66699 -14 -14 -14zM364 221h-257c2.66699 -73.333 18 -124.5 46 -153.5s73.333 -43.5 136 -43.5c55.333 0 110.333 4 165 12l5 -28c-40 -13.333 -98.333 -20 -175 -20c-78 0 -134 19.5 -168 58.5s-51 104.5 -51 196.5s16.167 156.833 48.5 194.5
s86.5 56.5 162.5 56.5c127.333 0 192 -47.333 194 -142c1.33301 -44 -6.5 -76.833 -23.5 -98.5s-44.5 -32.5 -82.5 -32.5zM107 254l250.999 0.000976562c49.333 0 73 32 71 96c-0.666992 37.333 -13.167 64.666 -37.5 81.999s-62.166 26 -113.499 26
c-62.667 0 -106.667 -15 -132 -45s-38.333 -83 -39 -159z" />
    <glyph glyph-name="igrave" unicode="&#xec;" horiz-adv-x="228" 
d="M155 572l-18 -20l-163 136l26 30zM134 0h-40v482h40v-482z" />
    <glyph glyph-name="iacute" unicode="&#xed;" horiz-adv-x="228" 
d="M242 688l-163 -136l-18 20l155 146zM134 0h-40v482h40v-482z" />
    <glyph glyph-name="icircumflex" unicode="&#xee;" horiz-adv-x="228" 
d="M262 583l-16 -18l-130 101h-8l-129 -101l-16 18l135 120h29zM134 0h-40v482h40v-482z" />
    <glyph glyph-name="idieresis" unicode="&#xef;" horiz-adv-x="228" 
d="M17 678h15c8.66699 0 13 -4.66699 13 -14v-56c0 -9.33301 -4.33301 -14 -13 -14h-15c-9.33301 0 -14 4.66699 -14 14v56c0 9.33301 4.66699 14 14 14zM194 678h15c8.66699 0 13 -4.66699 13 -14v-56c0 -9.33301 -4.33301 -14 -13 -14h-15c-9.33301 0 -14 4.66699 -14 14
v56c0 9.33301 4.66699 14 14 14zM134 0h-40v482h40v-482z" />
    <glyph glyph-name="eth" unicode="&#xf0;" horiz-adv-x="551" 
d="M430 679l-76.002 -54.001c80 -69.333 120 -184.333 120 -345c0 -35.333 -1.16699 -65.666 -3.5 -90.999s-7.5 -51.5 -15.5 -78.5s-19.167 -48.833 -33.5 -65.5s-34.166 -30.334 -59.499 -41.001s-55.666 -16 -90.999 -16c-70 0 -121.667 18.5 -155 55.5
s-50 95.833 -50 176.5c0 73.333 15.667 129.5 47 168.5s82.666 58.5 153.999 58.5c54 0 107 -16.667 159 -50c-14 91.333 -48 160.333 -102 207l-89 -63l-16 22l82 58c-47.333 32 -108.666 48 -183.999 48l7 29c82 2.66699 151 -15.666 207 -54.999l83 59zM271.998 22.999
c28 0 51.8311 4.16797 71.498 12.501s35.334 19.5 47.001 33.5s20.834 32.833 27.501 56.5s11 47.667 13 72s3 53.833 3 88.5c0 20.667 -1.33301 47.667 -4 81c-51.333 30 -106 45 -164 45c-57.333 0 -98 -16.833 -122 -50.5s-36 -80.834 -36 -141.501
c0 -70.667 13.167 -121.167 39.5 -151.5s67.833 -45.5 124.5 -45.5z" />
    <glyph glyph-name="ntilde" unicode="&#xf1;" horiz-adv-x="573" 
d="M169 593h-22.999c-2 32 4 56.333 18 73s33 24 57 22c20 -2 44 -12.833 72 -32.5s51.667 -30.5 71 -32.5c20 -1.33301 34.167 2.66699 42.5 12s12.5 25.333 12.5 48h23c2 -30.667 -3.83301 -54.167 -17.5 -70.5s-32.834 -23.5 -57.501 -21.5s-51 13 -79 33
s-49.333 30.667 -64 32c-36.667 4 -55 -17 -55 -63zM123.001 482l3.00195 -85c83.333 64.667 160 97 230 97c86.667 0 130 -44 130 -132v-362h-40v354c0 36 -8 62.333 -24 79s-41 25 -75 25c-32.667 0 -64.834 -7.16699 -96.501 -21.5s-71.834 -37.833 -120.501 -70.5v-366
h-39v482h32z" />
    <glyph glyph-name="ograve" unicode="&#xf2;" horiz-adv-x="562" 
d="M322 572l-18 -20l-163 136l26 30zM281 494c78.667 0 134.167 -19 166.5 -57s48.5 -103.333 48.5 -196s-16 -158 -48 -196s-87.667 -57 -167 -57s-135 19 -167 57s-48 103.333 -48 196s16.167 158 48.5 196s87.833 57 166.5 57zM281 458
c-64.667 0 -109.667 -15.667 -135 -47s-38 -88 -38 -170s12.667 -138.833 38 -170.5s70.333 -47.5 135 -47.5s109.834 15.833 135.501 47.5s38.5 88.5 38.5 170.5s-12.833 138.667 -38.5 170s-70.834 47 -135.501 47z" />
    <glyph glyph-name="oacute" unicode="&#xf3;" horiz-adv-x="562" 
d="M409 688l-163 -136l-18 20l155 146zM281 494c78.667 0 134.167 -19 166.5 -57s48.5 -103.333 48.5 -196s-16 -158 -48 -196s-87.667 -57 -167 -57s-135 19 -167 57s-48 103.333 -48 196s16.167 158 48.5 196s87.833 57 166.5 57zM281 458
c-64.667 0 -109.667 -15.667 -135 -47s-38 -88 -38 -170s12.667 -138.833 38 -170.5s70.333 -47.5 135 -47.5s109.834 15.833 135.501 47.5s38.5 88.5 38.5 170.5s-12.833 138.667 -38.5 170s-70.834 47 -135.501 47z" />
    <glyph glyph-name="ocircumflex" unicode="&#xf4;" horiz-adv-x="562" 
d="M429 583l-16 -18l-130 101h-8l-129 -101l-16 18l135 120h29zM281 494c78.667 0 134.167 -19 166.5 -57s48.5 -103.333 48.5 -196s-16 -158 -48 -196s-87.667 -57 -167 -57s-135 19 -167 57s-48 103.333 -48 196s16.167 158 48.5 196s87.833 57 166.5 57zM281 458
c-64.667 0 -109.667 -15.667 -135 -47s-38 -88 -38 -170s12.667 -138.833 38 -170.5s70.333 -47.5 135 -47.5s109.834 15.833 135.501 47.5s38.5 88.5 38.5 170.5s-12.833 138.667 -38.5 170s-70.834 47 -135.501 47z" />
    <glyph glyph-name="otilde" unicode="&#xf5;" horiz-adv-x="562" 
d="M155 593h-22.999c-2 32 4 56.333 18 73s33 24 57 22c20 -2 44 -12.833 72 -32.5s51.667 -30.5 71 -32.5c20 -1.33301 34.167 2.66699 42.5 12s12.5 25.333 12.5 48h23c2 -30.667 -3.83301 -54.167 -17.5 -70.5s-32.834 -23.5 -57.501 -21.5s-51 13 -79 33
s-49.333 30.667 -64 32c-36.667 4 -55 -17 -55 -63zM281.001 494c78.667 0 134.167 -19 166.5 -57s48.5 -103.333 48.5 -196s-16 -158 -48 -196s-87.667 -57 -167 -57s-135 19 -167 57s-48 103.333 -48 196s16.167 158 48.5 196s87.833 57 166.5 57zM281.001 458
c-64.667 0 -109.667 -15.667 -135 -47s-38 -88 -38 -170s12.667 -138.833 38 -170.5s70.333 -47.5 135 -47.5s109.834 15.833 135.501 47.5s38.5 88.5 38.5 170.5s-12.833 138.667 -38.5 170s-70.834 47 -135.501 47z" />
    <glyph glyph-name="odieresis" unicode="&#xf6;" horiz-adv-x="562" 
d="M184 678h15c8.66699 0 13 -4.66699 13 -14v-56c0 -9.33301 -4.33301 -14 -13 -14h-15c-9.33301 0 -14 4.66699 -14 14v56c0 9.33301 4.66699 14 14 14zM361 678h15c8.66699 0 13 -4.66699 13 -14v-56c0 -9.33301 -4.33301 -14 -13 -14h-15c-9.33301 0 -14 4.66699 -14 14
v56c0 9.33301 4.66699 14 14 14zM281 494c78.667 0 134.167 -19 166.5 -57s48.5 -103.333 48.5 -196s-16 -158 -48 -196s-87.667 -57 -167 -57s-135 19 -167 57s-48 103.333 -48 196s16.167 158 48.5 196s87.833 57 166.5 57zM281 458c-64.667 0 -109.667 -15.667 -135 -47
s-38 -88 -38 -170s12.667 -138.833 38 -170.5s70.333 -47.5 135 -47.5s109.834 15.833 135.501 47.5s38.5 88.5 38.5 170.5s-12.833 138.667 -38.5 170s-70.834 47 -135.501 47z" />
    <glyph glyph-name="divide" unicode="&#xf7;" horiz-adv-x="584" 
d="M284 508h13c11.333 0 17 -5.66699 17 -17v-59c0 -11.333 -5.66699 -17 -17 -17h-13c-11.333 0 -17 5.66699 -17 17v59c0 11.333 5.66699 17 17 17zM503 279h-422v33h422v-33zM284 176h13c11.333 0 17 -5.66699 17 -17v-59c0 -11.333 -5.66699 -17 -17 -17h-13
c-11.333 0 -17 5.66699 -17 17v59c0 11.333 5.66699 17 17 17z" />
    <glyph glyph-name="oslash" unicode="&#xf8;" horiz-adv-x="562" 
d="M428 533l-27.999 -60c34 -16 58.5 -42.5 73.5 -79.5s22.5 -87.833 22.5 -152.5c0 -92.667 -16 -158 -48 -196s-87.667 -57 -167 -57c-40.667 0 -74.334 4.33301 -101.001 13l-30 -66l-25 12l31 65c-32 16 -55 42.333 -69 79s-21 86.667 -21 150
c0 92.667 16.167 158 48.5 196s87.833 57 166.5 57c36.667 0 68 -4 94 -12l29 62zM172.001 47l187 401.001c-20 6.66699 -46 10 -78 10c-64.667 0 -109.667 -15.667 -135 -47s-38 -88 -38 -170c0 -102.667 21.333 -167.334 64 -194.001zM384.001 438.001l-188.001 -403
c22.667 -8 51 -12 85 -12c64.667 0 109.834 15.833 135.501 47.5s38.5 88.5 38.5 170.5c0 55.333 -5.5 98.5 -16.5 129.5s-29.167 53.5 -54.5 67.5z" />
    <glyph glyph-name="ugrave" unicode="&#xf9;" 
d="M306 553l-163 136l26 30l155 -146zM472 482l-0.00292969 -482h-31l-4 83c-77.333 -63.333 -150.666 -95 -219.999 -95c-86.667 0 -130 44 -130 132v362h40v-354c-0.666992 -36 7.33301 -62.333 24 -79s42.334 -25 77.001 -25c30.667 0 60.834 7 90.501 21
s67.5 37 113.5 69v368h40z" />
    <glyph glyph-name="uacute" unicode="&#xfa;" 
d="M247 553l-18 20l155 146l26 -30zM472 482l-0.00292969 -482h-31l-4 83c-77.333 -63.333 -150.666 -95 -219.999 -95c-86.667 0 -130 44 -130 132v362h40v-354c-0.666992 -36 7.33301 -62.333 24 -79s42.334 -25 77.001 -25c30.667 0 60.834 7 90.501 21s67.5 37 113.5 69
v368h40z" />
    <glyph glyph-name="ucircumflex" unicode="&#xfb;" 
d="M148 566l-16 18l134 120h30l135 -120l-16 -18l-130 101h-8zM472 482l-0.00292969 -482h-31l-4 83c-77.333 -63.333 -150.666 -95 -219.999 -95c-86.667 0 -130 44 -130 132v362h40v-354c-0.666992 -36 7.33301 -62.333 24 -79s42.334 -25 77.001 -25
c30.667 0 60.834 7 90.501 21s67.5 37 113.5 69v368h40z" />
    <glyph glyph-name="udieresis" unicode="&#xfc;" 
d="M200 595h-15c-8.66699 0 -13 4.66699 -13 14v56c0 9.33301 4.33301 14 13 14h15c9.33301 0 14 -4.66699 14 -14v-56c0 -9.33301 -4.66699 -14 -14 -14zM377 595h-14c-9.33301 0 -14 4.66699 -14 14v56c0 9.33301 4.66699 14 14 14h14c9.33301 0 14 -4.66699 14 -14v-56
c0 -9.33301 -4.66699 -14 -14 -14zM472 482l-0.00292969 -482h-31l-4 83c-77.333 -63.333 -150.666 -95 -219.999 -95c-86.667 0 -130 44 -130 132v362h40v-354c-0.666992 -36 7.33301 -62.333 24 -79s42.334 -25 77.001 -25c30.667 0 60.834 7 90.501 21s67.5 37 113.5 69
v368h40z" />
    <glyph glyph-name="yacute" unicode="&#xfd;" horiz-adv-x="512" 
d="M224 552l-18 20l155 146l26 -30zM485 482l-214 -523.999c-18.667 -46.667 -40.667 -83.834 -66 -111.501s-60 -46.167 -104 -55.5l-6 25c36.667 13.333 65.5 32.333 86.5 57s38.833 55.667 53.5 93l14 34h-13c-8 0 -13.667 4 -17 12l-192 470h43l158 -395
c1.33301 -4 3.5 -9.66699 6.5 -17l8 -20l6.5 -17h13l22 55l159 394h42z" />
    <glyph glyph-name="thorn" unicode="&#xfe;" horiz-adv-x="565" 
d="M130 700v-195c0 -46 -1 -77.667 -3 -95c67.333 56 132.666 84 195.999 84c62.667 0 107.334 -19.5 134.001 -58.5s40 -104.167 40 -195.5s-13.5 -156.166 -40.5 -194.499s-71.833 -57.5 -134.5 -57.5c-61.333 0 -126 17 -194 51c1.33301 -14.667 2 -45.334 2 -92.001
v-155h-39v908h39zM130 376l-0.00195312 -308c76.667 -30 138.334 -45 185.001 -45c50.667 0 86.834 16.333 108.501 49s32.5 88.667 32.5 168c0 80 -10.667 136.333 -32 169s-57.333 49 -108 49c-52 0 -114 -27.333 -186 -82z" />
    <glyph glyph-name="ydieresis" unicode="&#xff;" horiz-adv-x="512" 
d="M177 594h-15c-8.66699 0 -13 4.66699 -13 14v56c0 9.33301 4.33301 14 13 14h15c9.33301 0 14 -4.66699 14 -14v-56c0 -9.33301 -4.66699 -14 -14 -14zM354 594h-14c-9.33301 0 -14 4.66699 -14 14v56c0 9.33301 4.66699 14 14 14h14c9.33301 0 14 -4.66699 14 -14v-56
c0 -9.33301 -4.66699 -14 -14 -14zM485 482l-214 -523.999c-18.667 -46.667 -40.667 -83.834 -66 -111.501s-60 -46.167 -104 -55.5l-6 25c36.667 13.333 65.5 32.333 86.5 57s38.833 55.667 53.5 93l14 34h-13c-8 0 -13.667 4 -17 12l-192 470h43l158 -395
c1.33301 -4 3.5 -9.66699 6.5 -17l8 -20l6.5 -17h13l22 55l159 394h42z" />
    <glyph glyph-name="Amacron" unicode="&#x100;" horiz-adv-x="608" 
d="M437 799h-265v34h265v-34zM463 243h-318l-85 -243h-43l241 677c3.33301 8.66699 9.33301 13 18 13h56c8.66699 0 14.667 -4.33301 18 -13l241 -677h-43zM450 279l-112 321l-20 56h-28l-20 -56l-112 -321h292z" />
    <glyph glyph-name="amacron" unicode="&#x101;" horiz-adv-x="541" 
d="M400 618h-265v33h265v-33zM86 443l-3.99902 30c101.333 14 178 21 230 21c94.667 0 142 -46.667 142 -140v-354h-30l-7 89c-24.667 -24 -57.834 -46 -99.501 -66s-83.167 -30 -124.5 -30s-73.5 10.833 -96.5 32.5s-34.5 52.5 -34.5 92.5v60c0 36.667 10.5 65 31.5 85
s50.5 30 88.5 30h232v61c0 33.333 -8 59 -24 77s-43.667 27 -83 27c-57.333 0 -131 -5 -221 -15zM103.001 175l0.000976562 -54c0 -60 31.333 -90.333 94 -91c33.333 -0.666992 70.666 7.83301 111.999 25.5s76.333 39.834 105 66.501v139l-228 -3
c-55.333 -0.666992 -83 -28.334 -83 -83.001z" />
    <glyph glyph-name="Abreve" unicode="&#x102;" horiz-adv-x="608" 
d="M418 876l25 -5c0.666992 -36.667 -11.5 -65.5 -36.5 -86.5s-59.167 -31.5 -102.5 -31.5s-77.666 10.5 -102.999 31.5s-37.666 49.833 -36.999 86.5l25 5c0 -28.667 10.167 -50.667 30.5 -66s48.833 -23 85.5 -23c35.333 0 63.166 7.83301 83.499 23.5
s30.166 37.5 29.499 65.5zM463 243h-318l-85 -243h-43l241 677c3.33301 8.66699 9.33301 13 18 13h56c8.66699 0 14.667 -4.33301 18 -13l241 -677h-43zM450 279l-112 321l-20 56h-28l-20 -56l-112 -321h292z" />
    <glyph glyph-name="abreve" unicode="&#x103;" horiz-adv-x="541" 
d="M382 694l24 -4c0.666992 -36.667 -11.333 -65.667 -36 -87s-58.667 -32 -102 -32c-44 0 -78.667 10.667 -104 32s-37.666 50.333 -36.999 87l25 4c0 -28 10.333 -49.833 31 -65.5s49 -23.5 85 -23.5c35.333 0 63.166 7.83301 83.499 23.5s30.5 37.5 30.5 65.5zM86 443
l-3.99902 30c101.333 14 178 21 230 21c94.667 0 142 -46.667 142 -140v-354h-30l-7 89c-24.667 -24 -57.834 -46 -99.501 -66s-83.167 -30 -124.5 -30s-73.5 10.833 -96.5 32.5s-34.5 52.5 -34.5 92.5v60c0 36.667 10.5 65 31.5 85s50.5 30 88.5 30h232v61
c0 33.333 -8 59 -24 77s-43.667 27 -83 27c-57.333 0 -131 -5 -221 -15zM103.001 175l0.000976562 -54c0 -60 31.333 -90.333 94 -91c33.333 -0.666992 70.666 7.83301 111.999 25.5s76.333 39.834 105 66.501v139l-228 -3c-55.333 -0.666992 -83 -28.334 -83 -83.001z" />
    <glyph glyph-name="Aogonek" unicode="&#x104;" horiz-adv-x="608" 
d="M597 -176l4.99902 -18.002c-53.333 -21.333 -91 -23.833 -113 -7.5s-26.333 42.833 -13 79.5c12.667 39.333 42.667 80 90 122h-18l-85 243h-318l-85 -243h-43l241 677c3.33301 8.66699 9.33301 13 18 13h56c8.66699 0 14.667 -4.33301 18 -13l241 -677
c-42 -43.333 -69.667 -84.333 -83 -123c-10.667 -29.333 -7.66699 -48.666 9 -57.999s43.334 -7.66602 80.001 5.00098zM449.999 278.998l-112 321l-20 56h-28l-20 -56l-112 -321h292z" />
    <glyph glyph-name="aogonek" unicode="&#x105;" horiz-adv-x="541" 
d="M460 -176l5 -18.002c-53.333 -21.333 -91 -23.833 -113 -7.5s-26.333 42.833 -13 79.5c12.667 39.333 42.667 80 90 122h-5l-7 89c-24.667 -24 -57.834 -46 -99.501 -66s-83.167 -30 -124.5 -30s-73.5 10.833 -96.5 32.5s-34.5 52.5 -34.5 92.5v60
c0 36.667 10.5 65 31.5 85s50.5 30 88.5 30h232v61c0 33.333 -8 59 -24 77s-43.667 27 -83 27c-57.333 0 -131 -5 -221 -15l-4 30c101.333 14 178 21 230 21c94.667 0 142 -46.667 142 -140v-354c-42 -43.333 -69.667 -84.333 -83 -123
c-10.667 -29.333 -7.66699 -48.666 9 -57.999s43.334 -7.66602 80.001 5.00098zM103 174.998l0.000976562 -54c0 -60 31.333 -90.333 94 -91c33.333 -0.666992 70.666 7.83301 111.999 25.5s76.333 39.834 105 66.501v139l-228 -3
c-55.333 -0.666992 -83 -28.334 -83 -83.001z" />
    <glyph glyph-name="Cacute" unicode="&#x106;" 
d="M450 870l-163 -136l-18 20l155 145zM516 38l7 -30.998c-52.667 -12.667 -116.667 -19 -192 -19c-95.333 0 -162.333 26.667 -201 80s-58 145.666 -58 276.999s19.333 223.666 58 276.999s105.667 80 201 80c70 0 129.333 -6 178 -18l-7 -30c-52 7.33301 -109 11 -171 11
c-80.667 0 -136.834 -23.5 -168.501 -70.5s-47.5 -130.167 -47.5 -249.5s15.833 -202.5 47.5 -249.5s87.834 -70.5 168.501 -70.5c72 0 133.667 4.33301 185 13z" />
    <glyph glyph-name="cacute" unicode="&#x107;" horiz-adv-x="481" 
d="M400 688l-163 -136l-18 20l155 146zM433 35l5.99805 -28c-48.667 -12.667 -99 -19 -151 -19c-81.333 0 -138.833 19 -172.5 57s-50.5 103.333 -50.5 196s16.833 158 50.5 196s90.834 57 171.501 57c58 0 105 -6.33301 141 -19l-7 -27
c-35.333 6.66699 -77.666 10 -126.999 10c-69.333 0 -117.833 -15.5 -145.5 -46.5s-41.5 -87.833 -41.5 -170.5s13.833 -139.5 41.5 -170.5s76.167 -46.5 145.5 -46.5c56 0 102.333 3.66699 139 11z" />
    <glyph glyph-name="Cdotaccent" unicode="&#x10a;" 
d="M314 862h15c10 0 15 -5.33301 15 -16v-60c0 -10.667 -5 -16 -15 -16h-15c-10 0 -15 5.33301 -15 16v60c0 10.667 5 16 15 16zM516 38l7 -30.998c-52.667 -12.667 -116.667 -19 -192 -19c-95.333 0 -162.333 26.667 -201 80s-58 145.666 -58 276.999
s19.333 223.666 58 276.999s105.667 80 201 80c70 0 129.333 -6 178 -18l-7 -30c-52 7.33301 -109 11 -171 11c-80.667 0 -136.834 -23.5 -168.501 -70.5s-47.5 -130.167 -47.5 -249.5s15.833 -202.5 47.5 -249.5s87.834 -70.5 168.501 -70.5c72 0 133.667 4.33301 185 13z
" />
    <glyph glyph-name="cdotaccent" unicode="&#x10b;" horiz-adv-x="481" 
d="M264 680h15c10.667 0 16 -5 16 -15v-61c0 -10 -5.33301 -15 -16 -15h-15c-10 0 -15 5 -15 15v61c0 10 5 15 15 15zM433 35l5.99805 -28c-48.667 -12.667 -99 -19 -151 -19c-81.333 0 -138.833 19 -172.5 57s-50.5 103.333 -50.5 196s16.833 158 50.5 196
s90.834 57 171.501 57c58 0 105 -6.33301 141 -19l-7 -27c-35.333 6.66699 -77.666 10 -126.999 10c-69.333 0 -117.833 -15.5 -145.5 -46.5s-41.5 -87.833 -41.5 -170.5s13.833 -139.5 41.5 -170.5s76.167 -46.5 145.5 -46.5c56 0 102.333 3.66699 139 11z" />
    <glyph glyph-name="Ccaron" unicode="&#x10c;" 
d="M473 869l-139 -120h-23l-139 120l17 18l130 -98h8l129 98zM516 38l7 -30.998c-52.667 -12.667 -116.667 -19 -192 -19c-95.333 0 -162.333 26.667 -201 80s-58 145.666 -58 276.999s19.333 223.666 58 276.999s105.667 80 201 80c70 0 129.333 -6 178 -18l-7 -30
c-52 7.33301 -109 11 -171 11c-80.667 0 -136.834 -23.5 -168.501 -70.5s-47.5 -130.167 -47.5 -249.5s15.833 -202.5 47.5 -249.5s87.834 -70.5 168.501 -70.5c72 0 133.667 4.33301 185 13z" />
    <glyph glyph-name="ccaron" unicode="&#x10d;" horiz-adv-x="481" 
d="M423 687l-139 -119h-23l-139 119l17 19l130 -98h8l129 98zM433 35l5.99805 -28c-48.667 -12.667 -99 -19 -151 -19c-81.333 0 -138.833 19 -172.5 57s-50.5 103.333 -50.5 196s16.833 158 50.5 196s90.834 57 171.501 57c58 0 105 -6.33301 141 -19l-7 -27
c-35.333 6.66699 -77.666 10 -126.999 10c-69.333 0 -117.833 -15.5 -145.5 -46.5s-41.5 -87.833 -41.5 -170.5s13.833 -139.5 41.5 -170.5s76.167 -46.5 145.5 -46.5c56 0 102.333 3.66699 139 11z" />
    <glyph glyph-name="Dcaron" unicode="&#x10e;" horiz-adv-x="660" 
d="M312 749l-139 120l17 18l129 -98h8l130 98l17 -18l-139 -120h-23zM99 0l-0.000976562 690.002c80.667 6 158.334 9 233.001 9c94.667 0 161 -26.333 199 -79s57 -144.334 57 -275.001s-19 -222.334 -57 -275.001s-104.333 -79 -199 -79c-74 0 -151.667 3 -233 9z
M139.999 659.002v-628c56 -2 120 -3 192 -3c79.333 0 134.666 23.333 165.999 70s47 129 47 247s-15.667 200.333 -47 247s-86.666 70 -165.999 70c-70.667 0 -134.667 -1 -192 -3z" />
    <glyph glyph-name="dcaron" unicode="&#x10f;" horiz-adv-x="564" 
d="M572 702l12 0.000976562c10 0 15 -5 15 -15v-56c-1.33301 -42 -8 -81.333 -20 -118l-17 6c3.33301 29.333 5 62.666 5 99.999c-8 0 -11 4.33301 -9 13v55c-0.666992 10 4 15 14 15zM434 700.001h39.002v-700h-30l-5 80c-70 -61.333 -136 -92 -198 -92
s-106.333 19.667 -133 59s-40 104 -40 194c0 91.333 13.667 156.333 41 195s72.666 58 135.999 58c59.333 0 123.666 -16.333 192.999 -49c-2 16.667 -3 48 -3 94v161zM434.002 112.001l-0.00195312 303c-76 28.667 -137.667 43 -185 43c-51.333 0 -87.666 -16 -108.999 -48
s-32 -88 -32 -168s10.667 -136.333 32 -169s57.333 -49 108 -49c28.667 0 56.834 6.66699 84.501 20s61.5 36 101.5 68z" />
    <glyph glyph-name="Dcroat" unicode="&#x110;" horiz-adv-x="664" 
d="M102 384v306.002c81.333 6 159.333 9 234 9c94 0 160 -26.333 198 -79s57 -144.334 57 -275.001s-19 -222.334 -57 -275.001s-104 -79 -198 -79c-73.333 0 -151.333 3 -234 9v356h-77v28h77zM143 356.002v-325c56 -2 120.333 -3 193 -3c78.667 0 133.667 23.333 165 70
s47 129 47 247s-15.667 200.333 -47 247s-86.333 70 -165 70c-70.667 0 -135 -1 -193 -3v-275h175v-28h-175z" />
    <glyph glyph-name="dcroat" unicode="&#x111;" horiz-adv-x="557" 
d="M546 586h-72.998v-586h-30l-5 80c-70 -61.333 -136 -92 -198 -92s-106.333 19.667 -133 59s-40 104 -40 194c0 91.333 13.667 156.333 41 195s72.666 58 135.999 58c59.333 0 123.666 -16.333 192.999 -49c-2 16.667 -3 48 -3 94v47h-171v27h171v87h39v-87h73v-27z
M434.002 112l-0.00195312 303c-76 28.667 -137.667 43 -185 43c-51.333 0 -87.666 -16 -108.999 -48s-32 -88 -32 -168s10.667 -136.333 32 -169s57.333 -49 108 -49c28.667 0 56.834 6.66699 84.501 20s61.5 36 101.5 68z" />
    <glyph glyph-name="Emacron" unicode="&#x112;" horiz-adv-x="553" 
d="M442 823h-264v34h264v-34zM495 35l2 -31.002c-64 -2.66699 -162 -4 -294 -4c-32.667 0 -59.167 9.83301 -79.5 29.5s-30.5 45.167 -30.5 76.5v478c0 31.333 10.167 56.833 30.5 76.5s46.833 29.5 79.5 29.5c132 0 230 -1.33301 294 -4l-2 -31h-285
c-22.667 0 -41 -7.16699 -55 -21.5s-21 -33.166 -21 -56.499v-192h320v-34h-320v-238c0 -23.333 7 -42.166 21 -56.499s32.333 -21.5 55 -21.5h285z" />
    <glyph glyph-name="emacron" unicode="&#x113;" horiz-adv-x="530" 
d="M410 618h-265v33h265v-33zM364 221h-257c2.66699 -73.333 18 -124.5 46 -153.5s73.333 -43.5 136 -43.5c55.333 0 110.333 4 165 12l5 -28c-40 -13.333 -98.333 -20 -175 -20c-78 0 -134 19.5 -168 58.5s-51 104.5 -51 196.5s16.167 156.833 48.5 194.5
s86.5 56.5 162.5 56.5c127.333 0 192 -47.333 194 -142c1.33301 -44 -6.5 -76.833 -23.5 -98.5s-44.5 -32.5 -82.5 -32.5zM107 254l250.999 0.000976562c49.333 0 73 32 71 96c-0.666992 37.333 -13.167 64.666 -37.5 81.999s-62.166 26 -113.499 26
c-62.667 0 -106.667 -15 -132 -45s-38.333 -83 -39 -159z" />
    <glyph glyph-name="Edotaccent" unicode="&#x116;" horiz-adv-x="553" 
d="M317 794h-14c-10.667 0 -16 5 -16 15v61c0 10.667 5.33301 16 16 16h14c10.667 0 16 -5.33301 16 -16v-61c0 -10 -5.33301 -15 -16 -15zM495 35l2 -31.002c-64 -2.66699 -162 -4 -294 -4c-32.667 0 -59.167 9.83301 -79.5 29.5s-30.5 45.167 -30.5 76.5v478
c0 31.333 10.167 56.833 30.5 76.5s46.833 29.5 79.5 29.5c132 0 230 -1.33301 294 -4l-2 -31h-285c-22.667 0 -41 -7.16699 -55 -21.5s-21 -33.166 -21 -56.499v-192h320v-34h-320v-238c0 -23.333 7 -42.166 21 -56.499s32.333 -21.5 55 -21.5h285z" />
    <glyph glyph-name="edotaccent" unicode="&#x117;" horiz-adv-x="530" 
d="M285 589h-15c-10 0 -15 5 -15 15v61c0 10 5 15 15 15h15c10.667 0 16 -5 16 -15v-61c0 -10 -5.33301 -15 -16 -15zM364 221h-257c2.66699 -73.333 18 -124.5 46 -153.5s73.333 -43.5 136 -43.5c55.333 0 110.333 4 165 12l5 -28c-40 -13.333 -98.333 -20 -175 -20
c-78 0 -134 19.5 -168 58.5s-51 104.5 -51 196.5s16.167 156.833 48.5 194.5s86.5 56.5 162.5 56.5c127.333 0 192 -47.333 194 -142c1.33301 -44 -6.5 -76.833 -23.5 -98.5s-44.5 -32.5 -82.5 -32.5zM107 254l250.999 0.000976562c49.333 0 73 32 71 96
c-0.666992 37.333 -13.167 64.666 -37.5 81.999s-62.166 26 -113.499 26c-62.667 0 -106.667 -15 -132 -45s-38.333 -83 -39 -159z" />
    <glyph glyph-name="Eogonek" unicode="&#x118;" horiz-adv-x="553" 
d="M503 -171l5.00098 -18.001c-53.333 -22 -91 -24.833 -113 -8.5s-26.333 42.833 -13 79.5c13.333 40 42.666 80.333 87.999 121c-58.667 -2 -147.667 -3 -267 -3c-32.667 0 -59.167 9.83301 -79.5 29.5s-30.5 45.167 -30.5 76.5v478c0 31.333 10.167 56.833 30.5 76.5
s46.833 29.5 79.5 29.5c132 0 230 -1.33301 294 -4l-2 -31h-285c-22.667 0 -41 -7.16699 -55 -21.5s-21 -33.166 -21 -56.499v-192h320v-34h-320v-238c0 -23.333 7 -42.166 21 -56.499s32.333 -21.5 55 -21.5h285l2 -31c-40.667 -41.333 -68.334 -82 -83.001 -122
c-10.667 -29.333 -7.66699 -48.833 9 -58.5s43.334 -7.83398 80.001 5.49902z" />
    <glyph glyph-name="eogonek" unicode="&#x119;" horiz-adv-x="530" 
d="M454 36l5 -27.998c-41.333 -42.667 -69.333 -83.334 -84 -122.001c-10.667 -29.333 -7.5 -48.833 9.5 -58.5s43.5 -7.83398 79.5 5.49902l5 -18c-53.333 -21.333 -91 -24 -113 -8s-26.333 42.333 -13 79c12.667 37.333 39.667 75.333 81 114c-42 -8 -88.667 -12 -140 -12
c-78 0 -134 19.5 -168 58.5s-51 104.5 -51 196.5s16.167 156.833 48.5 194.5s86.5 56.5 162.5 56.5c127.333 0 192 -47.333 194 -142c1.33301 -44 -6.5 -76.833 -23.5 -98.5s-44.5 -32.5 -82.5 -32.5h-257c2.66699 -73.333 18 -124.5 46 -153.5s73.333 -43.5 136 -43.5
c55.333 0 110.333 4 165 12zM107 254.002l250.999 0.000976562c49.333 0 73 32 71 96c-0.666992 37.333 -13.167 64.666 -37.5 81.999s-62.166 26 -113.499 26c-62.667 0 -106.667 -15 -132 -45s-38.333 -83 -39 -159z" />
    <glyph glyph-name="Ecaron" unicode="&#x11a;" horiz-adv-x="553" 
d="M299 773l-138 120l17 18l129 -98h8l130 98l16 -18l-138 -120h-24zM495 35l2 -31.002c-64 -2.66699 -162 -4 -294 -4c-32.667 0 -59.167 9.83301 -79.5 29.5s-30.5 45.167 -30.5 76.5v478c0 31.333 10.167 56.833 30.5 76.5s46.833 29.5 79.5 29.5
c132 0 230 -1.33301 294 -4l-2 -31h-285c-22.667 0 -41 -7.16699 -55 -21.5s-21 -33.166 -21 -56.499v-192h320v-34h-320v-238c0 -23.333 7 -42.166 21 -56.499s32.333 -21.5 55 -21.5h285z" />
    <glyph glyph-name="ecaron" unicode="&#x11b;" horiz-adv-x="530" 
d="M267 568l-139 119l18 19l129 -98h8l130 98l16 -19l-138 -119h-24zM364 221h-257c2.66699 -73.333 18 -124.5 46 -153.5s73.333 -43.5 136 -43.5c55.333 0 110.333 4 165 12l5 -28c-40 -13.333 -98.333 -20 -175 -20c-78 0 -134 19.5 -168 58.5s-51 104.5 -51 196.5
s16.167 156.833 48.5 194.5s86.5 56.5 162.5 56.5c127.333 0 192 -47.333 194 -142c1.33301 -44 -6.5 -76.833 -23.5 -98.5s-44.5 -32.5 -82.5 -32.5zM107 254l250.999 0.000976562c49.333 0 73 32 71 96c-0.666992 37.333 -13.167 64.666 -37.5 81.999
s-62.166 26 -113.499 26c-62.667 0 -106.667 -15 -132 -45s-38.333 -83 -39 -159z" />
    <glyph glyph-name="Gbreve" unicode="&#x11e;" horiz-adv-x="624" 
d="M439 876l25.001 -5c0.666992 -36.667 -11.5 -65.5 -36.5 -86.5s-59.167 -31.5 -102.5 -31.5s-77.833 10.5 -103.5 31.5s-38.167 49.833 -37.5 86.5l25 5c0 -28 10.333 -49.833 31 -65.5s49 -23.5 85 -23.5c35.333 0 63.166 7.83301 83.499 23.5s30.5 37.5 30.5 65.5z
M546.001 400l-0.00292969 -400h-29l-8 84c-59.333 -64 -129.666 -96 -210.999 -96c-80.667 0 -138.5 28.167 -173.5 84.5s-52.5 147.5 -52.5 273.5c0 132 19.667 224.333 59 277s108.333 79 207 79c75.333 0 140.333 -6 195 -18l-7 -30c-58 7.33301 -120.333 11 -187 11
c-83.333 0 -141.333 -23 -174 -69s-49 -130 -49 -252c0 -114 14.333 -195.667 43 -245s77.334 -74 146.001 -74c40.667 0 75.834 8 105.501 24s61.167 38.667 94.5 68v283h41z" />
    <glyph glyph-name="gbreve" unicode="&#x11f;" horiz-adv-x="548" 
d="M385 694l24 -4c0.666992 -36.667 -11.333 -65.667 -36 -87s-58.667 -32 -102 -32c-44 0 -78.667 10.667 -104 32s-37.666 50.333 -36.999 87l25 4c0 -28 10.333 -49.833 31 -65.5s49 -23.5 85 -23.5c35.333 0 63.166 7.83301 83.499 23.5s30.5 37.5 30.5 65.5zM518 456
l-93.002 -4.00195c26 -23.333 39 -59.666 39 -108.999c0 -51.333 -15 -89 -45 -113s-80 -36 -150 -36c-48.667 0 -88 6 -118 18c-13.333 -15.333 -21.5 -31 -24.5 -47s0.833008 -30.667 11.5 -44s28.667 -22.333 54 -27l190 -33
c41.333 -6.66699 69.833 -19.834 85.5 -39.501s23.5 -49.5 23.5 -89.5c0 -52 -16.167 -88.5 -48.5 -109.5s-88.166 -31.5 -167.499 -31.5c-82 0 -139.5 10.333 -172.5 31s-49.5 57 -49.5 109c0 34.667 5 61.834 15 81.501s29 36.834 57 51.501l14 8
c-21.333 10 -35.666 24.5 -42.999 43.5s-7.83301 38.333 -1.5 58s17.833 36.167 34.5 49.5c-37.333 22.667 -56 62.667 -56 120c0 51.333 15.333 89.333 46 114s81 37 151 37c40.667 0 74 -4 100 -12h151zM268.998 226.998c56.667 0 97 9.16699 121 27.5s36 47.833 36 88.5
s-11.833 70.5 -35.5 89.5s-64.167 28.5 -121.5 28.5c-56.667 0 -97.167 -9.5 -121.5 -28.5s-36.5 -48.833 -36.5 -89.5c0 -40 12.167 -69.333 36.5 -88s64.833 -28 121.5 -28zM170.998 61.998l-21 -13c-22.667 -14 -38 -29.333 -46 -46s-12 -40 -12 -70
c0 -40 13.333 -67.833 40 -83.5s74 -23.5 142 -23.5c66 0 112.167 7.83301 138.5 23.5s39.5 43.5 39.5 83.5c0 31.333 -5.66699 53.833 -17 67.5s-34.333 23.5 -69 29.5l-193 32h-2z" />
    <glyph glyph-name="Gdotaccent" unicode="&#x120;" horiz-adv-x="624" 
d="M332 770h-14c-10.667 0 -16 5.33301 -16 16v60c0 10.667 5.33301 16 16 16h14c10.667 0 16 -5.33301 16 -16v-60c0 -10.667 -5.33301 -16 -16 -16zM546 400l-0.00292969 -400h-29l-8 84c-59.333 -64 -129.666 -96 -210.999 -96c-80.667 0 -138.5 28.167 -173.5 84.5
s-52.5 147.5 -52.5 273.5c0 132 19.667 224.333 59 277s108.333 79 207 79c75.333 0 140.333 -6 195 -18l-7 -30c-58 7.33301 -120.333 11 -187 11c-83.333 0 -141.333 -23 -174 -69s-49 -130 -49 -252c0 -114 14.333 -195.667 43 -245s77.334 -74 146.001 -74
c40.667 0 75.834 8 105.501 24s61.167 38.667 94.5 68v283h41z" />
    <glyph glyph-name="gdotaccent" unicode="&#x121;" horiz-adv-x="548" 
d="M278 589h-15c-10 0 -15 5 -15 15v61c0 10 5 15 15 15h15c10 0 15 -5 15 -15v-61c0 -10 -5 -15 -15 -15zM518 456l-93.002 -4.00195c26 -23.333 39 -59.666 39 -108.999c0 -51.333 -15 -89 -45 -113s-80 -36 -150 -36c-48.667 0 -88 6 -118 18
c-13.333 -15.333 -21.5 -31 -24.5 -47s0.833008 -30.667 11.5 -44s28.667 -22.333 54 -27l190 -33c41.333 -6.66699 69.833 -19.834 85.5 -39.501s23.5 -49.5 23.5 -89.5c0 -52 -16.167 -88.5 -48.5 -109.5s-88.166 -31.5 -167.499 -31.5c-82 0 -139.5 10.333 -172.5 31
s-49.5 57 -49.5 109c0 34.667 5 61.834 15 81.501s29 36.834 57 51.501l14 8c-21.333 10 -35.666 24.5 -42.999 43.5s-7.83301 38.333 -1.5 58s17.833 36.167 34.5 49.5c-37.333 22.667 -56 62.667 -56 120c0 51.333 15.333 89.333 46 114s81 37 151 37
c40.667 0 74 -4 100 -12h151zM268.998 226.998c56.667 0 97 9.16699 121 27.5s36 47.833 36 88.5s-11.833 70.5 -35.5 89.5s-64.167 28.5 -121.5 28.5c-56.667 0 -97.167 -9.5 -121.5 -28.5s-36.5 -48.833 -36.5 -89.5c0 -40 12.167 -69.333 36.5 -88s64.833 -28 121.5 -28z
M170.998 61.998l-21 -13c-22.667 -14 -38 -29.333 -46 -46s-12 -40 -12 -70c0 -40 13.333 -67.833 40 -83.5s74 -23.5 142 -23.5c66 0 112.167 7.83301 138.5 23.5s39.5 43.5 39.5 83.5c0 31.333 -5.66699 53.833 -17 67.5s-34.333 23.5 -69 29.5l-193 32h-2z" />
    <glyph glyph-name="Gcommaaccent" unicode="&#x122;" horiz-adv-x="624" 
d="M546 400l-0.00292969 -400h-29l-8 84c-59.333 -64 -129.666 -96 -210.999 -96c-80.667 0 -138.5 28.167 -173.5 84.5s-52.5 147.5 -52.5 273.5c0 132 19.667 224.333 59 277s108.333 79 207 79c75.333 0 140.333 -6 195 -18l-7 -30c-58 7.33301 -120.333 11 -187 11
c-83.333 0 -141.333 -23 -174 -69s-49 -130 -49 -252c0 -114 14.333 -195.667 43 -245s77.334 -74 146.001 -74c40.667 0 75.834 8 105.501 24s61.167 38.667 94.5 68v283h41zM316.997 -63h12c10 0 15 -5 15 -15v-58c-1.33301 -42.667 -8 -82.667 -20 -120l-18 6
c3.33301 30 5 64.333 5 103c-8 0 -11 4.33301 -9 13v56c-0.666992 10 4.33301 15 15 15z" />
    <glyph glyph-name="gcommaaccent" unicode="&#x123;" horiz-adv-x="548" 
d="M282 563h-11c-10.667 0 -16 5.33301 -16 16v57c1.33301 43.333 8 83.333 20 120l18 -6c-3.33301 -30 -5 -64 -5 -102c8 0 11.333 -4.33301 10 -13v-56c0 -10.667 -5.33301 -16 -16 -16zM518 456l-93.002 -4.00195c26 -23.333 39 -59.666 39 -108.999
c0 -51.333 -15 -89 -45 -113s-80 -36 -150 -36c-48.667 0 -88 6 -118 18c-13.333 -15.333 -21.5 -31 -24.5 -47s0.833008 -30.667 11.5 -44s28.667 -22.333 54 -27l190 -33c41.333 -6.66699 69.833 -19.834 85.5 -39.501s23.5 -49.5 23.5 -89.5
c0 -52 -16.167 -88.5 -48.5 -109.5s-88.166 -31.5 -167.499 -31.5c-82 0 -139.5 10.333 -172.5 31s-49.5 57 -49.5 109c0 34.667 5 61.834 15 81.501s29 36.834 57 51.501l14 8c-21.333 10 -35.666 24.5 -42.999 43.5s-7.83301 38.333 -1.5 58s17.833 36.167 34.5 49.5
c-37.333 22.667 -56 62.667 -56 120c0 51.333 15.333 89.333 46 114s81 37 151 37c40.667 0 74 -4 100 -12h151zM268.998 226.998c56.667 0 97 9.16699 121 27.5s36 47.833 36 88.5s-11.833 70.5 -35.5 89.5s-64.167 28.5 -121.5 28.5c-56.667 0 -97.167 -9.5 -121.5 -28.5
s-36.5 -48.833 -36.5 -89.5c0 -40 12.167 -69.333 36.5 -88s64.833 -28 121.5 -28zM170.998 61.998l-21 -13c-22.667 -14 -38 -29.333 -46 -46s-12 -40 -12 -70c0 -40 13.333 -67.833 40 -83.5s74 -23.5 142 -23.5c66 0 112.167 7.83301 138.5 23.5s39.5 43.5 39.5 83.5
c0 31.333 -5.66699 53.833 -17 67.5s-34.333 23.5 -69 29.5l-193 32h-2z" />
    <glyph glyph-name="Hbar" unicode="&#x126;" horiz-adv-x="668" 
d="M642 523h-77v-523h-41v352h-380v-352h-41v523h-78v27h78v140h41v-140h380v140h41v-140h77v-27zM524 523h-380v-135h380v135z" />
    <glyph glyph-name="hbar" unicode="&#x127;" horiz-adv-x="576" 
d="M135 586v-95c0 -40.667 -1.66699 -72 -5 -94c86 64.667 162.333 97 229 97c86.667 0 130 -44 130 -132v-362h-40v354c0 36 -8 62.333 -24 79s-41 25 -75 25c-32.667 0 -65 -7.16699 -97 -21.5s-71.667 -37.833 -119 -70.5v-366h-40v586h-83v27h83v87h40v-87h160v-27h-159
z" />
    <glyph glyph-name="Imacron" unicode="&#x12a;" horiz-adv-x="239" 
d="M252 799h-265v34h265v-34zM140 0h-41v690h41v-690z" />
    <glyph glyph-name="imacron" unicode="&#x12b;" horiz-adv-x="228" 
d="M246 618h-265v33h265v-33zM134 0h-40v482h40v-482z" />
    <glyph glyph-name="Iogonek" unicode="&#x12e;" horiz-adv-x="239" 
d="M143 -176l4.99902 -18.0029c-53.333 -21.333 -91 -23.833 -113 -7.5s-26.333 42.833 -13 79.5c14.667 40.667 44.667 81.334 90 122.001h-13v690h41v-690h-2c-40.667 -40.667 -68.667 -81.667 -84 -123c-10.667 -29.333 -7.66699 -48.666 9 -57.999
s43.334 -7.66602 80.001 5.00098z" />
    <glyph glyph-name="iogonek" unicode="&#x12f;" horiz-adv-x="228" 
d="M120 589h-14c-10.667 0 -16 5 -16 15v61c0 10 5.33301 15 16 15h14c10.667 0 16 -5 16 -15v-61c0 -10 -5.33301 -15 -16 -15zM137 -176l5 -18.0029c-52.667 -22 -90 -24.667 -112 -8s-26.333 43.334 -13 80.001c13.333 40 43 80.667 89 122h-12v482h40v-482h-2
c-41.333 -42.667 -69.333 -83.667 -84 -123c-10.667 -29.333 -7.5 -48.666 9.5 -57.999s43.5 -7.66602 79.5 5.00098z" />
    <glyph glyph-name="Idotaccent" unicode="&#x130;" horiz-adv-x="239" 
d="M112 862h14c10.667 0 16 -5.33301 16 -16v-60c0 -10.667 -5.33301 -16 -16 -16h-14c-10.667 0 -16 5.33301 -16 16v60c0 10.667 5.33301 16 16 16zM140 0h-41v690h41v-690z" />
    <glyph glyph-name="dotlessi" unicode="&#x131;" horiz-adv-x="228" 
d="M134 0h-40v482h40v-482z" />
    <glyph glyph-name="IJ" unicode="&#x132;" horiz-adv-x="567" 
d="M140 0h-41v690h41v-690zM471 690v-567c0 -43.333 -10.5 -76 -31.5 -98s-52.167 -32.667 -93.5 -32c-22 0 -45.667 2.66699 -71 8l5 28h55c63.333 0 95 31.333 95 94v567h41z" />
    <glyph glyph-name="ij" unicode="&#x133;" horiz-adv-x="455" 
d="M105 683h18c10 0 15 -5.33301 15 -16v-60c0 -10.667 -5 -16 -15 -16h-18c-10.667 0 -16 5.33301 -16 16v60c0 10.667 5.33301 16 16 16zM333 683h17c10.667 0 16 -5.33301 16 -16v-60c0 -10.667 -5.33301 -16 -16 -16h-17c-10.667 0 -16 5.33301 -16 16v60
c0 10.667 5.33301 16 16 16zM133 0h-39v482h39v-482zM361 482v-518.999c0 -66.667 -24.333 -123.667 -73 -171l-22 17c36.667 47.333 55 98.666 55 153.999v519h40z" />
    <glyph glyph-name="Kcommaaccent" unicode="&#x136;" horiz-adv-x="570" 
d="M540 0h-47.999l-249 343h-107c2 -29.333 3 -57 3 -83v-260h-40v690h40v-231c0 -30 -1.33301 -57.333 -4 -82h108l234 313h47l-223 -300c-6 -9.33301 -15 -19 -27 -29v-2c11.333 -10 20.666 -20 27.999 -30zM302.001 -63h12c10 0 15 -5 15 -15v-58
c-1.33301 -42.667 -8 -82.667 -20 -120l-18 6c3.33301 30 5 64.333 5 103c-8 0 -11.333 4.33301 -10 13v56c0 10 5.33301 15 16 15z" />
    <glyph glyph-name="kcommaaccent" unicode="&#x137;" horiz-adv-x="482" 
d="M453 0h-48l-199 259h-79c2 -30 3 -58.333 3 -85v-174h-40v700h41v-327c0 -30 -1.33301 -57.333 -4 -82h79l182 191h49l-173 -184c-10 -10 -18.667 -17.667 -26 -23v-2c9.33301 -8 18 -17.667 26 -29zM258 -63h12c10.667 0 16 -5 16 -15v-58
c-1.33301 -43.333 -8.33301 -83.333 -21 -120l-17 6c3.33301 40 5 74.333 5 103c-8 0 -11.333 4.33301 -10 13v56c0 10 5 15 15 15z" />
    <glyph glyph-name="Lacute" unicode="&#x139;" horiz-adv-x="509" 
d="M246 870l-163 -136l-18 20l155 145zM137 690l0.000976562 -577.001c0 -23.333 7.16699 -42.166 21.5 -56.499s33.166 -21.5 56.499 -21.5h267v-30c-60 -3.33301 -151.333 -5 -274 -5c-34.667 0 -62 10.167 -82 30.5s-30 46.5 -30 78.5v581h41z" />
    <glyph glyph-name="lacute" unicode="&#x13a;" horiz-adv-x="277" 
d="M241 892l-163 -135l-18 19l155 146zM131 700l0.000976562 -594c-0.666992 -24.667 5.66602 -43.5 18.999 -56.5s32.333 -19.5 57 -19.5h55l5 -29c-16 -5.33301 -39.333 -8 -70 -8c-32.667 0 -58.5 9.33301 -77.5 28s-28.5 45 -28.5 79v600h40z" />
    <glyph glyph-name="Lcommaaccent" unicode="&#x13b;" horiz-adv-x="509" 
d="M137 690l0.000976562 -577.001c0 -23.333 7.16699 -42.166 21.5 -56.499s33.166 -21.5 56.499 -21.5h267v-30c-60 -3.33301 -151.333 -5 -274 -5c-34.667 0 -62 10.167 -82 30.5s-30 46.5 -30 78.5v581h41zM294.001 -71.001h12c10 0 15 -5 15 -15v-58
c-1.33301 -42.667 -8 -82.667 -20 -120l-18 6c3.33301 30 5 64.333 5 103c-8 0 -11 4.33301 -9 13v56c-0.666992 10 4.33301 15 15 15z" />
    <glyph glyph-name="lcommaaccent" unicode="&#x13c;" horiz-adv-x="277" 
d="M131 700l0.000976562 -594c-0.666992 -24.667 5.66602 -43.5 18.999 -56.5s32.333 -19.5 57 -19.5h55l5 -29c-16 -5.33301 -39.333 -8 -70 -8c-32.667 0 -58.5 9.33301 -77.5 28s-28.5 45 -28.5 79v600h40zM162.001 -71h12c10 0 15 -5 15 -15v-58
c-1.33301 -42.667 -8 -82.667 -20 -120l-18 6c3.33301 30 5 64.333 5 103c-8 0 -11 4.33301 -9 13v56c-0.666992 10 4.33301 15 15 15z" />
    <glyph glyph-name="Lcaron" unicode="&#x13d;" horiz-adv-x="509" 
d="M294 691h12c10 0 15 -5 15 -15v-58c-1.33301 -43.333 -8 -83.333 -20 -120l-18 6c3.33301 30 5 64 5 102c-8 0 -11 4.33301 -9 13v57c-0.666992 10 4.33301 15 15 15zM137 690l0.000976562 -577.001c0 -23.333 7.16699 -42.166 21.5 -56.499s33.166 -21.5 56.499 -21.5
h267v-30c-60 -3.33301 -151.333 -5 -274 -5c-34.667 0 -62 10.167 -82 30.5s-30 46.5 -30 78.5v581h41z" />
    <glyph glyph-name="lcaron" unicode="&#x13e;" horiz-adv-x="277" 
d="M231 702h12c9.33301 0 14 -5 14 -15v-56c0 -40.667 -6.33301 -80 -19 -118l-17 6c3.33301 38.667 5 72 5 100c-8 0 -11 4.33301 -9 13v55c-0.666992 10 4 15 14 15zM131 700l0.000976562 -594c-0.666992 -24.667 5.66602 -43.5 18.999 -56.5s32.333 -19.5 57 -19.5h55
l5 -29c-16 -5.33301 -39.333 -8 -70 -8c-32.667 0 -58.5 9.33301 -77.5 28s-28.5 45 -28.5 79v600h40z" />
    <glyph glyph-name="Ldot" unicode="&#x13f;" horiz-adv-x="509" 
d="M137 690l0.000976562 -577.001c0 -23.333 7.16699 -42.166 21.5 -56.499s33.166 -21.5 56.499 -21.5h267v-30c-60 -3.33301 -151.333 -5 -274 -5c-34.667 0 -62 10.167 -82 30.5s-30 46.5 -30 78.5v581h41zM381.001 332.999h-15c-10 0 -15 5 -15 15v61
c0 10.667 5 16 15 16h15c10 0 15 -5.33301 15 -16v-61c0 -10 -5 -15 -15 -15z" />
    <glyph glyph-name="ldot" unicode="&#x140;" horiz-adv-x="305" 
d="M131 700l0.000976562 -594c-0.666992 -24.667 5.66602 -43.5 18.999 -56.5s32.333 -19.5 57 -19.5h55l5 -29c-16 -5.33301 -39.333 -8 -70 -8c-32.667 0 -58.5 9.33301 -77.5 28s-28.5 45 -28.5 79v600h40zM263.001 344h-15c-10.667 0 -16 5.33301 -16 16v60
c0 10.667 5.33301 16 16 16h15c10 0 15 -5.33301 15 -16v-60c0 -10.667 -5 -16 -15 -16z" />
    <glyph glyph-name="Lslash" unicode="&#x141;" horiz-adv-x="513" 
d="M486 35v-30.001c-60 -3.33301 -151.333 -5 -274 -5c-34 0 -61 10.167 -81 30.5s-30 46.5 -30 78.5v242l-76 -33v30l76 33v309h41v-291l125 54v-29l-125 -55v-256c0 -23.333 7 -42.166 21 -56.499s33 -21.5 57 -21.5h266z" />
    <glyph glyph-name="lslash" unicode="&#x142;" horiz-adv-x="309" 
d="M286 30l4 -29c-14.667 -5.33301 -38 -8 -70 -8c-32.667 0 -58.5 9.33301 -77.5 28s-28.5 45 -28.5 79v255l-86 -37v30l86 37v315h40v-298l116 51v-30l-116 -50v-267c0 -50.667 25.333 -76 76 -76h56z" />
    <glyph glyph-name="Nacute" unicode="&#x143;" horiz-adv-x="692" 
d="M487 870l-163 -136l-18 20l155 145zM593 690l0.000976562 -669.999c0 -13.333 -6.33301 -20 -19 -20h-54c-10.667 0 -18.334 5 -23.001 15l-298 564c-18.667 36 -31 60.667 -37 74h-23c0.666992 -16.667 1 -41.667 1 -75v-578h-41v670c0 13.333 6.66699 20 20 20h50
c11.333 0 19.333 -5 24 -15l290 -551c5.33301 -8.66699 20.333 -37.334 45 -86.001h25c0 10.667 -0.166992 26.5 -0.5 47.5s-0.5 36.5 -0.5 46.5v558h41z" />
    <glyph glyph-name="nacute" unicode="&#x144;" horiz-adv-x="573" 
d="M260 552l-18 20l155 146l26 -30zM123 482l3.00195 -85c83.333 64.667 160 97 230 97c86.667 0 130 -44 130 -132v-362h-40v354c0 36 -8 62.333 -24 79s-41 25 -75 25c-32.667 0 -64.834 -7.16699 -96.501 -21.5s-71.834 -37.833 -120.501 -70.5v-366h-39v482h32z" />
    <glyph glyph-name="Ncommaaccent" unicode="&#x145;" horiz-adv-x="692" 
d="M593 690l0.000976562 -669.999c0 -13.333 -6.33301 -20 -19 -20h-54c-10.667 0 -18.334 5 -23.001 15l-298 564c-18.667 36 -31 60.667 -37 74h-23c0.666992 -16.667 1 -41.667 1 -75v-578h-41v670c0 13.333 6.66699 20 20 20h50c11.333 0 19.333 -5 24 -15l290 -551
c5.33301 -8.66699 20.333 -37.334 45 -86.001h25c0 10.667 -0.166992 26.5 -0.5 47.5s-0.5 36.5 -0.5 46.5v558h41zM327.001 -62.999h12c10 0 15 -5 15 -15v-58c-1.33301 -42.667 -8 -82.667 -20 -120l-18 6c3.33301 30 5 64.333 5 103c-8 0 -11.333 4.33301 -10 13v56
c0 10 5.33301 15 16 15z" />
    <glyph glyph-name="ncommaaccent" unicode="&#x146;" horiz-adv-x="573" 
d="M123 482l3.00195 -85c83.333 64.667 160 97 230 97c86.667 0 130 -44 130 -132v-362h-40v354c0 36 -8 62.333 -24 79s-41 25 -75 25c-32.667 0 -64.834 -7.16699 -96.501 -21.5s-71.834 -37.833 -120.501 -70.5v-366h-39v482h32zM284.002 -63h12c10.667 0 16 -5 16 -15
v-58c-1.33301 -43.333 -8.33301 -83.333 -21 -120l-17 6c3.33301 40 5 74.333 5 103c-8 0 -11.333 4.33301 -10 13v56c0 10 5 15 15 15z" />
    <glyph glyph-name="Ncaron" unicode="&#x147;" horiz-adv-x="692" 
d="M510 869l-138 -120h-24l-139 120l18 18l129 -98h8l130 98zM593 690l0.000976562 -669.999c0 -13.333 -6.33301 -20 -19 -20h-54c-10.667 0 -18.334 5 -23.001 15l-298 564c-18.667 36 -31 60.667 -37 74h-23c0.666992 -16.667 1 -41.667 1 -75v-578h-41v670
c0 13.333 6.66699 20 20 20h50c11.333 0 19.333 -5 24 -15l290 -551c5.33301 -8.66699 20.333 -37.334 45 -86.001h25c0 10.667 -0.166992 26.5 -0.5 47.5s-0.5 36.5 -0.5 46.5v558h41z" />
    <glyph glyph-name="ncaron" unicode="&#x148;" horiz-adv-x="573" 
d="M283 568l-138 119l17 19l129 -98h8l130 98l17 -19l-139 -119h-24zM123 482l3.00195 -85c83.333 64.667 160 97 230 97c86.667 0 130 -44 130 -132v-362h-40v354c0 36 -8 62.333 -24 79s-41 25 -75 25c-32.667 0 -64.834 -7.16699 -96.501 -21.5
s-71.834 -37.833 -120.501 -70.5v-366h-39v482h32z" />
    <glyph glyph-name="Eng" unicode="&#x14a;" horiz-adv-x="692" 
d="M593 690v-785.003c0 -41.333 -10.5 -72.666 -31.5 -93.999s-52.167 -31.666 -93.5 -30.999c-23.333 0 -46.666 2.33301 -69.999 7l5 26h55c64 0 96 31.333 96 94v93h-33c-9.33301 0 -16 5 -20 15l-302 560c-20.667 39.333 -33.334 64 -38.001 74h-22
c0.666992 -16.667 1 -42 1 -76v-573h-41v670c0 13.333 6.66699 20 20 20h46c10 0 18 -5 24 -15l294 -547c5.33301 -9.33301 20.333 -38 45 -86h25c0 10.667 -0.166992 26.334 -0.5 47.001s-0.5 36 -0.5 46v555h41z" />
    <glyph glyph-name="eng" unicode="&#x14b;" horiz-adv-x="573" 
d="M121 482l4.00098 -86.002c84 65.333 161 98 231 98c86.667 0 130 -44 130 -132v-446c0 -41.333 -9.5 -72.666 -28.5 -93.999s-47.5 -31.666 -85.5 -30.999c-7.33301 0 -28.333 2.66699 -63 8l5 26h47c56.667 0 85 31.333 85 94v435c0 35.333 -8 61.333 -24 78
s-41.333 25 -76 25c-32 0 -64.333 -7.16699 -97 -21.5s-72.334 -37.5 -119.001 -69.5v-366h-39v482h30z" />
    <glyph glyph-name="Omacron" unicode="&#x14c;" horiz-adv-x="664" 
d="M465 799h-265v34h265v-34zM332 702c96 0 163.167 -26.3311 201.5 -78.998s57.5 -145.334 57.5 -278.001s-19.167 -225.334 -57.5 -278.001s-105.5 -79 -201.5 -79s-163.333 26.5 -202 79.5s-58 145.5 -58 277.5s19.333 224.5 58 277.5s106 79.5 202 79.5zM332 665.002
c-80.667 0 -137 -23.667 -169 -71s-48 -130.333 -48 -249s16 -201.667 48 -249s88.333 -71 169 -71s136.834 23.5 168.501 70.5s47.5 130.167 47.5 249.5s-15.833 202.5 -47.5 249.5s-87.834 70.5 -168.501 70.5z" />
    <glyph glyph-name="omacron" unicode="&#x14d;" horiz-adv-x="562" 
d="M413 618h-265v33h265v-33zM281 494c78.667 0 134.167 -19 166.5 -57s48.5 -103.333 48.5 -196s-16 -158 -48 -196s-87.667 -57 -167 -57s-135 19 -167 57s-48 103.333 -48 196s16.167 158 48.5 196s87.833 57 166.5 57zM281 458c-64.667 0 -109.667 -15.667 -135 -47
s-38 -88 -38 -170s12.667 -138.833 38 -170.5s70.333 -47.5 135 -47.5s109.834 15.833 135.501 47.5s38.5 88.5 38.5 170.5s-12.833 138.667 -38.5 170s-70.834 47 -135.501 47z" />
    <glyph glyph-name="Ohungarumlaut" unicode="&#x150;" horiz-adv-x="664" 
d="M370 885l-122 -154l-22 15l111 161zM516 885l-122 -154l-21 15l110 161zM332 702c96 0 163.167 -26.3311 201.5 -78.998s57.5 -145.334 57.5 -278.001s-19.167 -225.334 -57.5 -278.001s-105.5 -79 -201.5 -79s-163.333 26.5 -202 79.5s-58 145.5 -58 277.5
s19.333 224.5 58 277.5s106 79.5 202 79.5zM332 665.002c-80.667 0 -137 -23.667 -169 -71s-48 -130.333 -48 -249s16 -201.667 48 -249s88.333 -71 169 -71s136.834 23.5 168.501 70.5s47.5 130.167 47.5 249.5s-15.833 202.5 -47.5 249.5s-87.834 70.5 -168.501 70.5z" />
    <glyph glyph-name="ohungarumlaut" unicode="&#x151;" horiz-adv-x="562" 
d="M317 703l-121 -153l-22 14l111 162zM464 703l-122 -153l-21 14l110 162zM281 494c78.667 0 134.167 -19 166.5 -57s48.5 -103.333 48.5 -196s-16 -158 -48 -196s-87.667 -57 -167 -57s-135 19 -167 57s-48 103.333 -48 196s16.167 158 48.5 196s87.833 57 166.5 57z
M281 458c-64.667 0 -109.667 -15.667 -135 -47s-38 -88 -38 -170s12.667 -138.833 38 -170.5s70.333 -47.5 135 -47.5s109.834 15.833 135.501 47.5s38.5 88.5 38.5 170.5s-12.833 138.667 -38.5 170s-70.834 47 -135.501 47z" />
    <glyph glyph-name="OE" unicode="&#x152;" horiz-adv-x="895" 
d="M839 35v-31.001c-61.333 -2.66699 -154.666 -4 -279.999 -4c-26 0 -47.667 7 -65 21c-50.667 -22 -104.667 -33 -162 -33c-96 0 -163.333 26.5 -202 79.5s-58 145.5 -58 277.5s19.333 224.5 58 277.5s106 79.5 202 79.5c34.667 0 63.167 -2.33301 85.5 -7
s48.166 -13.334 77.499 -26.001c18 14 40 21 66 21c124 0 216.333 -1.33301 277 -4v-31h-266c-23.333 0 -42.166 -7.16699 -56.499 -21.5s-21.5 -33.166 -21.5 -56.499v-192h302v-34h-302v-238c0 -23.333 7.16699 -42.166 21.5 -56.499s33.166 -21.5 56.499 -21.5h267z
M453 108.999v472c0 22 5.33301 42 16 60c-44 16 -89.667 24 -137 24c-80.667 0 -137 -23.333 -169 -70s-48 -130 -48 -250c0 -118.667 16 -201.667 48 -249s88.333 -71 169 -71c50 0 95.667 8 137 24c-10.667 18 -16 38 -16 60z" />
    <glyph glyph-name="oe" unicode="&#x153;" horiz-adv-x="918" 
d="M714 222l-218.001 0.000976562c2.66699 -74 18 -125.5 46 -154.5s73.667 -43.5 137 -43.5c56 0 110.667 4 164 12l5 -28c-38.667 -13.333 -97 -20 -175 -20c-52.667 0 -95 8.5 -127 25.5s-55.333 44.167 -70 81.5c-14 -38 -36.5 -65.333 -67.5 -82s-73.5 -25 -127.5 -25
c-79.333 0 -135 19 -167 57s-48 103.333 -48 196s16.167 158 48.5 196s87.833 57 166.5 57c53.333 0 95.333 -8.16699 126 -24.5s53.334 -42.833 68.001 -79.5c14.667 36.667 37 63.167 67 79.5s70.667 24.5 122 24.5c128.667 0 193.667 -46.667 195 -140
c0.666992 -48.667 -10 -82.834 -32 -102.501s-59.667 -29.5 -113 -29.5zM280.999 23.001c63.333 0 108 15 134 45s39.333 84 40 162l-1 13c0 5.33301 0.333008 9.33301 1 12c-1.33301 76.667 -14.833 129.667 -40.5 159s-70.167 44 -133.5 44
c-64.667 0 -109.667 -15.667 -135 -47s-38 -88 -38 -170s12.667 -138.833 38 -170.5s70.333 -47.5 135 -47.5zM495.999 254.001l216.998 -0.000976562c39.333 0 67 7.33301 83 22s23.667 40.334 23 77.001c-3.33301 70 -54.666 105 -153.999 105
c-61.333 0 -104.666 -15.167 -129.999 -45.5s-38.333 -82.833 -39 -157.5v-1z" />
    <glyph glyph-name="Racute" unicode="&#x154;" horiz-adv-x="610" 
d="M268 734l-18 20l156 145l25 -29zM554 0l-44.999 -0.000976562l-70 217c-20 58 -56 87 -108 87c-49.333 0 -113 1 -191 3v-307h-41v690c54 5.33301 129 8 225 8c76.667 0 130 -13.667 160 -41s45 -78.666 45 -153.999c0 -60 -9.83301 -103.833 -29.5 -131.5
s-52.167 -44.5 -97.5 -50.5v-5c35.333 -10 61.666 -42 78.999 -96zM140.001 340.999h184c61.333 1.33301 103.833 13 127.5 35s35.5 64 35.5 126s-11.833 104.167 -35.5 126.5s-66.167 33.5 -127.5 33.5c-72 0 -133.333 -0.666992 -184 -2v-319z" />
    <glyph glyph-name="racute" unicode="&#x155;" horiz-adv-x="388" 
d="M188 552l-18 20l155 146l26 -30zM366 494l-5.99902 -38h-20c-30.667 0 -61.167 -6.83301 -91.5 -20.5s-69.833 -36.167 -118.5 -67.5v-368h-39v482h30l5 -85c81.333 64.667 154.666 97 219.999 97h20z" />
    <glyph glyph-name="Rcommaaccent" unicode="&#x156;" horiz-adv-x="610" 
d="M554 0l-44.999 -0.000976562l-70 217c-20 58 -56 87 -108 87c-49.333 0 -113 1 -191 3v-307h-41v690c54 5.33301 129 8 225 8c76.667 0 130 -13.667 160 -41s45 -78.666 45 -153.999c0 -60 -9.83301 -103.833 -29.5 -131.5s-52.167 -44.5 -97.5 -50.5v-5
c35.333 -10 61.666 -42 78.999 -96zM140.001 340.999h184c61.333 1.33301 103.833 13 127.5 35s35.5 64 35.5 126s-11.833 104.167 -35.5 126.5s-66.167 33.5 -127.5 33.5c-72 0 -133.333 -0.666992 -184 -2v-319zM322.001 -63.001h12c10 0 15 -5 15 -15v-58
c0 -42 -6.66699 -82 -20 -120l-17 6c3.33301 40 5 74.333 5 103c-8 0 -11.333 4.33301 -10 13v56c0 10 5 15 15 15z" />
    <glyph glyph-name="rcommaaccent" unicode="&#x157;" horiz-adv-x="388" 
d="M366 494l-5.99902 -38h-20c-30.667 0 -61.167 -6.83301 -91.5 -20.5s-69.833 -36.167 -118.5 -67.5v-368h-39v482h30l5 -85c81.333 64.667 154.666 97 219.999 97h20zM98.001 -63h12c10 0 15 -5 15 -15v-58c0 -42 -6.66699 -82 -20 -120l-17 6c3.33301 40 5 74.333 5 103
c-8 0 -11.333 4.33301 -10 13v56c0 10 5 15 15 15z" />
    <glyph glyph-name="Rcaron" unicode="&#x158;" horiz-adv-x="610" 
d="M292 749l-138 120l17 18l129 -98h8l130 98l16 -18l-138 -120h-24zM554 0l-44.999 -0.000976562l-70 217c-20 58 -56 87 -108 87c-49.333 0 -113 1 -191 3v-307h-41v690c54 5.33301 129 8 225 8c76.667 0 130 -13.667 160 -41s45 -78.666 45 -153.999
c0 -60 -9.83301 -103.833 -29.5 -131.5s-52.167 -44.5 -97.5 -50.5v-5c35.333 -10 61.666 -42 78.999 -96zM140.001 340.999h184c61.333 1.33301 103.833 13 127.5 35s35.5 64 35.5 126s-11.833 104.167 -35.5 126.5s-66.167 33.5 -127.5 33.5
c-72 0 -133.333 -0.666992 -184 -2v-319z" />
    <glyph glyph-name="rcaron" unicode="&#x159;" horiz-adv-x="388" 
d="M212 568l-139 119l17 19l130 -98h8l129 98l17 -19l-139 -119h-23zM121 482l5.00098 -85c81.333 64.667 154.666 97 219.999 97h20l-6 -38h-20c-30.667 0 -61.167 -6.83301 -91.5 -20.5s-69.833 -36.167 -118.5 -67.5v-368h-39v482h30z" />
    <glyph glyph-name="Sacute" unicode="&#x15a;" horiz-adv-x="556" 
d="M408 870l-163 -136l-18 20l155 145zM348 317l-150.002 25c-48 7.33301 -82.5 25.333 -103.5 54s-31.5 71 -31.5 127c0 40.667 4 73.167 12 97.5s21.833 42.333 41.5 54s41 19.167 64 22.5s54.5 4.66602 94.5 3.99902c71.333 -1.33301 135.333 -6 192 -14l-4 -30
c-92 4.66699 -154.333 7 -187 7c-24 0 -42.333 -0.333008 -55 -1s-26.667 -2.33398 -42 -5.00098s-26.666 -7 -33.999 -13s-14.666 -14.167 -21.999 -24.5s-12.166 -23.5 -14.499 -39.5s-3.5 -35.667 -3.5 -59c0 -46.667 7.83301 -80.5 23.5 -101.5s42.167 -34.5 79.5 -40.5
l150 -25c50.667 -7.33301 86.5 -25.166 107.5 -53.499s31.5 -71.833 31.5 -130.5c0 -40 -4.33301 -72.333 -13 -97s-23 -43.167 -43 -55.5s-41.833 -20.333 -65.5 -24s-55.167 -5.5 -94.5 -5.5c-74.667 0 -143.334 4.33301 -206.001 13l3 31
c78.667 -5.33301 147 -7.66602 205 -6.99902c34.667 0.666992 61.667 2.66699 81 6s36.5 10 51.5 20s25.333 24.5 31 43.5s8.5 44.167 8.5 75.5c0 50 -8 85.333 -24 106s-43.667 34 -83 40z" />
    <glyph glyph-name="sacute" unicode="&#x15b;" horiz-adv-x="501" 
d="M383 688l-163 -136l-18 20l155 146zM321 215l-157.002 22.999c-36 5.33301 -62.5 17.833 -79.5 37.5s-25.5 49.5 -25.5 89.5c0 56 13.333 91.833 40 107.5s73.334 22.834 140.001 21.501c72 -1.33301 135.667 -5.66602 191 -12.999l-4 -29
c-76.667 4 -137.667 6.33301 -183 7c-57.333 1.33301 -95.833 -3.16699 -115.5 -13.5s-29.5 -37.166 -29.5 -80.499c0 -31.333 6.33301 -53.666 19 -66.999s32.334 -22 59.001 -26l157 -23c36.667 -6 64.167 -18.833 82.5 -38.5s27.5 -48.5 27.5 -86.5
c0 -56.667 -14.667 -93.334 -44 -110.001s-79.333 -25 -150 -25c-64 0 -123.667 4 -179 12l4 29c57.333 -4.66699 114.333 -6.66699 171 -6c62 0.666992 104 7.16699 126 19.5s33 39.166 33 80.499c0 29.333 -7.16699 50.666 -21.5 63.999s-34.833 22.333 -61.5 27z" />
    <glyph glyph-name="Scedilla" unicode="&#x15e;" horiz-adv-x="556" 
d="M348 317l-150.002 25c-48 7.33301 -82.5 25.333 -103.5 54s-31.5 71 -31.5 127c0 40.667 4 73.167 12 97.5s21.833 42.333 41.5 54s41 19.167 64 22.5s54.5 4.66602 94.5 3.99902c71.333 -1.33301 135.333 -6 192 -14l-4 -30c-92 4.66699 -154.333 7 -187 7
c-24 0 -42.333 -0.333008 -55 -1s-26.667 -2.33398 -42 -5.00098s-26.666 -7 -33.999 -13s-14.666 -14.167 -21.999 -24.5s-12.166 -23.5 -14.499 -39.5s-3.5 -35.667 -3.5 -59c0 -46.667 7.83301 -80.5 23.5 -101.5s42.167 -34.5 79.5 -40.5l150 -25
c50.667 -7.33301 86.5 -25.166 107.5 -53.499s31.5 -71.833 31.5 -130.5c0 -40 -4.33301 -72.333 -13 -97s-23 -43.167 -43 -55.5s-41.833 -20.333 -65.5 -24s-55.167 -5.5 -94.5 -5.5c-74.667 0 -143.334 4.33301 -206.001 13l3 31
c78.667 -5.33301 147 -7.66602 205 -6.99902c34.667 0.666992 61.667 2.66699 81 6s36.5 10 51.5 20s25.333 24.5 31 43.5s8.5 44.167 8.5 75.5c0 50 -8 85.333 -24 106s-43.667 34 -83 40zM244.998 -79l5.00098 19.9961c30 2 52 -2 66 -12s20.667 -27.667 20 -53
c-0.666992 -36 -14.334 -64.5 -41.001 -85.5s-61.667 -28.833 -105 -23.5l7 23c32 -1.33301 57.833 6.33398 77.5 23.001s29.5 37.334 29.5 62.001c0 16.667 -4.33301 28.334 -13 35.001s-24 10.334 -46 11.001z" />
    <glyph glyph-name="scedilla" unicode="&#x15f;" horiz-adv-x="501" 
d="M321 215l-157.002 22.999c-36 5.33301 -62.5 17.833 -79.5 37.5s-25.5 49.5 -25.5 89.5c0 56 13.333 91.833 40 107.5s73.334 22.834 140.001 21.501c72 -1.33301 135.667 -5.66602 191 -12.999l-4 -29c-76.667 4 -137.667 6.33301 -183 7
c-57.333 1.33301 -95.833 -3.16699 -115.5 -13.5s-29.5 -37.166 -29.5 -80.499c0 -31.333 6.33301 -53.666 19 -66.999s32.334 -22 59.001 -26l157 -23c36.667 -6 64.167 -18.833 82.5 -38.5s27.5 -48.5 27.5 -86.5c0 -56.667 -14.667 -93.334 -44 -110.001
s-79.333 -25 -150 -25c-64 0 -123.667 4 -179 12l4 29c57.333 -4.66699 114.333 -6.66699 171 -6c62 0.666992 104 7.16699 126 19.5s33 39.166 33 80.499c0 29.333 -7.16699 50.666 -21.5 63.999s-34.833 22.333 -61.5 27zM210.998 -79.001l5.00195 20.9961
c29.333 2 51.166 -2.16699 65.499 -12.5s21.166 -27.833 20.499 -52.5c-0.666992 -36.667 -14.334 -65.5 -41.001 -86.5s-61.667 -28.833 -105 -23.5l6 23c32.667 -1.33301 58.834 6.33398 78.501 23.001s29.5 37.334 29.5 62.001c0 16.667 -4.33301 28.334 -13 35.001
s-24 10.334 -46 11.001z" />
    <glyph glyph-name="Scaron" unicode="&#x160;" horiz-adv-x="556" 
d="M431 869l-139 -120h-23l-139 120l17 18l130 -98h8l129 98zM348 317l-150.002 25c-48 7.33301 -82.5 25.333 -103.5 54s-31.5 71 -31.5 127c0 40.667 4 73.167 12 97.5s21.833 42.333 41.5 54s41 19.167 64 22.5s54.5 4.66602 94.5 3.99902
c71.333 -1.33301 135.333 -6 192 -14l-4 -30c-92 4.66699 -154.333 7 -187 7c-24 0 -42.333 -0.333008 -55 -1s-26.667 -2.33398 -42 -5.00098s-26.666 -7 -33.999 -13s-14.666 -14.167 -21.999 -24.5s-12.166 -23.5 -14.499 -39.5s-3.5 -35.667 -3.5 -59
c0 -46.667 7.83301 -80.5 23.5 -101.5s42.167 -34.5 79.5 -40.5l150 -25c50.667 -7.33301 86.5 -25.166 107.5 -53.499s31.5 -71.833 31.5 -130.5c0 -40 -4.33301 -72.333 -13 -97s-23 -43.167 -43 -55.5s-41.833 -20.333 -65.5 -24s-55.167 -5.5 -94.5 -5.5
c-74.667 0 -143.334 4.33301 -206.001 13l3 31c78.667 -5.33301 147 -7.66602 205 -6.99902c34.667 0.666992 61.667 2.66699 81 6s36.5 10 51.5 20s25.333 24.5 31 43.5s8.5 44.167 8.5 75.5c0 50 -8 85.333 -24 106s-43.667 34 -83 40z" />
    <glyph glyph-name="scaron" unicode="&#x161;" horiz-adv-x="501" 
d="M406 687l-139 -119h-24l-138 119l17 19l129 -98h8l130 98zM321 215l-157.002 22.999c-36 5.33301 -62.5 17.833 -79.5 37.5s-25.5 49.5 -25.5 89.5c0 56 13.333 91.833 40 107.5s73.334 22.834 140.001 21.501c72 -1.33301 135.667 -5.66602 191 -12.999l-4 -29
c-76.667 4 -137.667 6.33301 -183 7c-57.333 1.33301 -95.833 -3.16699 -115.5 -13.5s-29.5 -37.166 -29.5 -80.499c0 -31.333 6.33301 -53.666 19 -66.999s32.334 -22 59.001 -26l157 -23c36.667 -6 64.167 -18.833 82.5 -38.5s27.5 -48.5 27.5 -86.5
c0 -56.667 -14.667 -93.334 -44 -110.001s-79.333 -25 -150 -25c-64 0 -123.667 4 -179 12l4 29c57.333 -4.66699 114.333 -6.66699 171 -6c62 0.666992 104 7.16699 126 19.5s33 39.166 33 80.499c0 29.333 -7.16699 50.666 -21.5 63.999s-34.833 22.333 -61.5 27z" />
    <glyph glyph-name="Tcedilla" unicode="&#x162;" horiz-adv-x="568" 
d="M542 690v-36h-238v-654h-41v654h-237v36h516zM246 -68l5.00098 20.9961c59.333 4 88 -17.667 86 -65c-0.666992 -36.667 -14.334 -65.5 -41.001 -86.5s-61.667 -28.833 -105 -23.5l7 23c32 -1.33301 57.833 6.33398 77.5 23.001s29.5 37.334 29.5 62.001
c0 16.667 -4.33301 28.334 -13 35.001s-24 10.334 -46 11.001z" />
    <glyph glyph-name="tcedilla" unicode="&#x163;" horiz-adv-x="356" 
d="M159 448v-342c0 -50.667 25.667 -76 77 -76h84l5 -29c-30 -5.33301 -60.667 -8 -92 -8c-76 0 -114 36.333 -114 109v346h-87v29l87 4v150h40v-149h172v-34h-172zM167 -75l5.00195 20.999c30 2 52.167 -2.16699 66.5 -12.5s21.166 -27.833 20.499 -52.5
c-1.33301 -36.667 -15.333 -65.5 -42 -86.5s-61.667 -28.5 -105 -22.5l7 22c32 -0.666992 57.833 7.16602 77.5 23.499s29.5 36.833 29.5 61.5c0.666992 16.667 -3.33301 28.334 -12 35.001s-24.334 10.334 -47.001 11.001z" />
    <glyph glyph-name="Tcaron" unicode="&#x164;" horiz-adv-x="568" 
d="M274 749l-138 120l17 18l129 -98h8l130 98l16 -18l-138 -120h-24zM542 654h-238v-654h-41v654h-237v36h516v-36z" />
    <glyph glyph-name="tcaron" unicode="&#x165;" horiz-adv-x="356" 
d="M280 560l-18 6c3.33301 30 5 64 5 102c-8 0 -11 4.33301 -9 13v57c-1.33301 10 3.66699 15 15 15h12c10 0 15 -5 15 -15v-58c-1.33301 -43.333 -8 -83.333 -20 -120zM159 448v-342c0 -50.667 25.667 -76 77 -76h84l5 -29c-30 -5.33301 -60.667 -8 -92 -8
c-76 0 -114 36.333 -114 109v346h-87v29l87 4v150h40v-149h172v-34h-172z" />
    <glyph glyph-name="Tbar" unicode="&#x166;" horiz-adv-x="568" 
d="M304 654v-230h147v-28h-147v-396h-41v396h-151v28h151v230h-237v36h516v-36h-238z" />
    <glyph glyph-name="tbar" unicode="&#x167;" horiz-adv-x="356" 
d="M159 448v-112h150v-27h-150v-203c0 -50.667 25.667 -76 77 -76h84l5 -29c-30 -5.33301 -60.667 -8 -92 -8c-76 0 -114 36.333 -114 109v207h-71v27h71v112h-87v29l87 4v150h40v-149h172v-34h-172z" />
    <glyph glyph-name="Umacron" unicode="&#x16a;" horiz-adv-x="667" 
d="M467 799h-265v34h265v-34zM573 690v-433c0 -97.333 -18 -166.5 -54 -207.5s-97.333 -61.5 -184 -61.5c-88 0 -150.167 20.5 -186.5 61.5s-54.5 110.167 -54.5 207.5v433h41v-433c0 -85.333 14.833 -145.333 44.5 -180s81.167 -52 154.5 -52c72 0 123 17.333 153 52
s45 94.667 45 180v433h41z" />
    <glyph glyph-name="umacron" unicode="&#x16b;" 
d="M414 619h-265v33h265v-33zM472 482l-0.00292969 -482h-31l-4 83c-77.333 -63.333 -150.666 -95 -219.999 -95c-86.667 0 -130 44 -130 132v362h40v-354c-0.666992 -36 7.33301 -62.333 24 -79s42.334 -25 77.001 -25c30.667 0 60.834 7 90.501 21s67.5 37 113.5 69v368
h40z" />
    <glyph glyph-name="Uring" unicode="&#x16e;" horiz-adv-x="667" 
d="M335 913c27.333 0 50.666 -9.66699 69.999 -29s29 -42.333 29 -69s-9.66699 -49.5 -29 -68.5s-42.666 -28.5 -69.999 -28.5s-50.666 9.5 -69.999 28.5s-29 41.833 -29 68.5c0 27.333 9.66699 50.5 29 69.5s42.666 28.5 69.999 28.5zM335 888
c-20.667 0 -37.667 -6.83301 -51 -20.5s-20 -31.167 -20 -52.5c0 -20.667 6.66699 -37.834 20 -51.501s30.333 -20.5 51 -20.5c20 0 36.833 6.83301 50.5 20.5s20.5 30.834 20.5 51.501s-6.83301 38 -20.5 52s-30.5 21 -50.5 21zM573 690v-433
c0 -97.333 -18 -166.5 -54 -207.5s-97.333 -61.5 -184 -61.5c-88 0 -150.167 20.5 -186.5 61.5s-54.5 110.167 -54.5 207.5v433h41v-433c0 -85.333 14.833 -145.333 44.5 -180s81.167 -52 154.5 -52c72 0 123 17.333 153 52s45 94.667 45 180v433h41z" />
    <glyph glyph-name="uring" unicode="&#x16f;" 
d="M282 537c-27.333 0 -50.666 9.5 -69.999 28.5s-29 42.167 -29 69.5c0 26.667 9.66699 49.5 29 68.5s42.666 28.5 69.999 28.5s50.666 -9.5 69.999 -28.5s29 -41.833 29 -68.5c0 -27.333 -9.66699 -50.5 -29 -69.5s-42.666 -28.5 -69.999 -28.5zM282 707
c-20.667 0 -37.667 -6.83301 -51 -20.5s-20 -30.834 -20 -51.501s6.66699 -37.834 20 -51.501s30.333 -20.5 51 -20.5c20 0 36.833 6.83301 50.5 20.5s20.5 30.834 20.5 51.501s-6.83301 37.834 -20.5 51.501s-30.5 20.5 -50.5 20.5zM472 482l-0.00292969 -482h-31l-4 83
c-77.333 -63.333 -150.666 -95 -219.999 -95c-86.667 0 -130 44 -130 132v362h40v-354c-0.666992 -36 7.33301 -62.333 24 -79s42.334 -25 77.001 -25c30.667 0 60.834 7 90.501 21s67.5 37 113.5 69v368h40z" />
    <glyph glyph-name="Uhungarumlaut" unicode="&#x170;" horiz-adv-x="667" 
d="M372 885l-122 -154l-21 15l111 161zM518 885l-121 -154l-22 15l111 161zM573 690v-433c0 -97.333 -18 -166.5 -54 -207.5s-97.333 -61.5 -184 -61.5c-88 0 -150.167 20.5 -186.5 61.5s-54.5 110.167 -54.5 207.5v433h41v-433c0 -85.333 14.833 -145.333 44.5 -180
s81.167 -52 154.5 -52c72 0 123 17.333 153 52s45 94.667 45 180v433h41z" />
    <glyph glyph-name="uhungarumlaut" unicode="&#x171;" 
d="M198 550l-22 15l111 162l32 -23zM344 550l-22 15l111 162l32 -23zM472 482l-0.00292969 -482h-31l-4 83c-77.333 -63.333 -150.666 -95 -219.999 -95c-86.667 0 -130 44 -130 132v362h40v-354c-0.666992 -36 7.33301 -62.333 24 -79s42.334 -25 77.001 -25
c30.667 0 60.834 7 90.501 21s67.5 37 113.5 69v368h40z" />
    <glyph glyph-name="Uogonek" unicode="&#x172;" horiz-adv-x="667" 
d="M573 690l0.000976562 -433.003c0 -90 -15.333 -155.833 -46 -197.5s-82.334 -65.167 -155.001 -70.5c-40.667 -42.667 -68 -83 -82 -121c-10.667 -29.333 -7.5 -48.666 9.5 -57.999s43.833 -7.66602 80.5 5.00098l4 -18c-52.667 -22 -90 -24.667 -112 -8
s-26.333 43.334 -13 80.001c13.333 39.333 42 79 86 119h-10c-88 0 -150.167 20.5 -186.5 61.5s-54.5 110.167 -54.5 207.5v433h41v-433c0 -85.333 14.833 -145.333 44.5 -180s81.167 -52 154.5 -52c72 0 123 17.333 153 52s45 94.667 45 180v433h41z" />
    <glyph glyph-name="uogonek" unicode="&#x173;" 
d="M478 -176l4.99609 -18.0029c-53.333 -21.333 -91 -23.833 -113 -7.5s-26.333 42.833 -13 79.5c14.667 40.667 44.667 81.334 90 122.001h-6l-4 83c-77.333 -63.333 -150.666 -95 -219.999 -95c-86.667 0 -130 44 -130 132v362h40v-354
c-0.666992 -36 7.33301 -62.333 24 -79s42.334 -25 77.001 -25c30.667 0 60.834 7 90.501 21s67.5 37 113.5 69v368h40l1 -482c-40.667 -40.667 -68.667 -81.667 -84 -123c-10.667 -29.333 -7.66699 -48.666 9 -57.999s43.334 -7.66602 80.001 5.00098z" />
    <glyph glyph-name="Wcircumflex" unicode="&#x174;" horiz-adv-x="935" 
d="M617 764l-16 -18l-130 101h-8l-129 -101l-16 18l135 120h29zM902 690l-171.999 -675.999c-2.66699 -9.33301 -9 -14 -19 -14h-57c-10.667 0 -17 5 -19 15l-137 564l-19 78h-23c-4.66699 -17.333 -11 -43.333 -19 -78l-137 -564c-2 -10 -8.33301 -15 -19 -15h-57
c-10 0 -16.667 4.66699 -20 14l-172 676h44l146 -583l17 -73h27c1.33301 6 4 17.167 8 33.5s7 29.166 9 38.499l139 568c2 10.667 8.33301 16 19 16h53c9.33301 0 15.666 -5.33301 18.999 -16l139 -567c4 -16.667 9.33301 -41 16 -73h27l17 72l147 584h43z" />
    <glyph glyph-name="wcircumflex" unicode="&#x175;" horiz-adv-x="815" 
d="M557 583l-16 -18l-130 101h-8l-129 -101l-17 18l135 120h29zM783 482l-160.002 -468.996c-3.33301 -8.66699 -9.33301 -13 -18 -13h-39c-9.33301 0 -15.666 4.66699 -18.999 14l-113 365l-21 73h-11l-22 -73l-112 -365c-3.33301 -9.33301 -9.66602 -14 -18.999 -14h-39
c-8.66699 0 -14.667 4.33301 -18 13l-160 469h42l128 -385c3.33301 -8.66699 7.5 -21.334 12.5 -38.001s7.83301 -26.334 8.5 -29.001h13l21 68l114 370c2 9.33301 8 14 18 14h37c9.33301 0 15.333 -4.66699 18 -14l115 -370l20 -68h13
c2.66699 7.33301 6.16699 18.666 10.5 33.999s7.83301 26.666 10.5 33.999l128 384h42z" />
    <glyph glyph-name="Ycircumflex" unicode="&#x176;" horiz-adv-x="548" 
d="M140 746l-16 19l135 119h29l135 -119l-16 -19l-129 101h-8zM295 253v-253h-42v254l-234 436h45l171 -322c4 -7.33301 10 -19 18 -35l18 -36h6l35 70l171 323h45z" />
    <glyph glyph-name="ycircumflex" unicode="&#x177;" horiz-adv-x="512" 
d="M125 565l-17 18l135 120h30l135 -120l-16 -18l-130 101h-8zM485 482l-214 -523.999c-18.667 -46.667 -40.667 -83.834 -66 -111.501s-60 -46.167 -104 -55.5l-6 25c36.667 13.333 65.5 32.333 86.5 57s38.833 55.667 53.5 93l14 34h-13c-8 0 -13.667 4 -17 12l-192 470
h43l158 -395c1.33301 -4 3.5 -9.66699 6.5 -17l8 -20l6.5 -17h13l22 55l159 394h42z" />
    <glyph glyph-name="Ydieresis" unicode="&#x178;" horiz-adv-x="548" 
d="M193 775h-15c-8.66699 0 -13 5 -13 15v55c0 10 4.33301 15 13 15h15c8.66699 0 13 -5 13 -15v-55c0 -10 -4.33301 -15 -13 -15zM370 775h-15c-8.66699 0 -13 5 -13 15v55c0 10 4.33301 15 13 15h15c8.66699 0 13 -5 13 -15v-55c0 -10 -4.33301 -15 -13 -15zM295 253v-253
h-42v254l-234 436h45l171 -322c4 -7.33301 10 -19 18 -35l18 -36h6l35 70l171 323h45z" />
    <glyph glyph-name="Zacute" unicode="&#x179;" horiz-adv-x="560" 
d="M246 734l-18 20l155 145l26 -29zM510 36v-36h-459v36l407 618h-403v36h450v-36l-408 -618h413z" />
    <glyph glyph-name="zacute" unicode="&#x17a;" horiz-adv-x="502" 
d="M215 552l-18 20l155 146l25 -30zM450 34v-34h-398v34l347 413h-344v35h392v-35l-348 -413h351z" />
    <glyph glyph-name="Zdotaccent" unicode="&#x17b;" horiz-adv-x="560" 
d="M288 770h-15c-10 0 -15 5.33301 -15 16v60c0 10.667 5 16 15 16h15c10.667 0 16 -5.33301 16 -16v-60c0 -10.667 -5.33301 -16 -16 -16zM510 36v-36h-459v36l407 618h-403v36h450v-36l-408 -618h413z" />
    <glyph glyph-name="zdotaccent" unicode="&#x17c;" horiz-adv-x="502" 
d="M256 589h-14c-10.667 0 -16 5 -16 15v61c0 10 5.33301 15 16 15h14c10.667 0 16 -5 16 -15v-61c0 -10 -5.33301 -15 -16 -15zM450 34v-34h-398v34l347 413h-344v35h392v-35l-348 -413h351z" />
    <glyph glyph-name="Zcaron" unicode="&#x17d;" horiz-adv-x="560" 
d="M270 749l-139 120l17 18l130 -98h8l129 98l17 -18l-139 -120h-23zM510 36v-36h-459v36l407 618h-403v36h450v-36l-408 -618h413z" />
    <glyph glyph-name="zcaron" unicode="&#x17e;" horiz-adv-x="502" 
d="M238 568l-138 119l17 19l129 -98h8l130 98l17 -19l-139 -119h-24zM450 34v-34h-398v34l347 413h-344v35h392v-35l-348 -413h351z" />
    <glyph glyph-name="florin" unicode="&#x192;" horiz-adv-x="414" 
d="M393 665h-69.9971c-37.333 0 -64.333 -7.66699 -81 -23s-27 -42.333 -31 -81l-16 -173h161l-4 -34h-160l-34 -353c-4 -45.333 -16.333 -79.166 -37 -101.499s-52.334 -33.5 -95.001 -33.5c-36.667 0 -64.667 1.66699 -84 5l4 29h69c34.667 0 59.667 7.83301 75 23.5
s24.666 42.5 27.999 80.5l34 350h-96l2 30l97 4l17 176c4 45.333 17.167 79.166 39.5 101.499s56.166 33.5 101.499 33.5c35.333 0 63.333 -1.33301 84 -4z" />
    <glyph glyph-name="Scommaaccent" unicode="&#x218;" horiz-adv-x="556" 
d="M348 317l-150.002 25c-48 7.33301 -82.5 25.333 -103.5 54s-31.5 71 -31.5 127c0 40.667 4 73.167 12 97.5s21.833 42.333 41.5 54s41 19.167 64 22.5s54.5 4.66602 94.5 3.99902c71.333 -1.33301 135.333 -6 192 -14l-4 -30c-92 4.66699 -154.333 7 -187 7
c-24 0 -42.333 -0.333008 -55 -1s-26.667 -2.33398 -42 -5.00098s-26.666 -7 -33.999 -13s-14.666 -14.167 -21.999 -24.5s-12.166 -23.5 -14.499 -39.5s-3.5 -35.667 -3.5 -59c0 -46.667 7.83301 -80.5 23.5 -101.5s42.167 -34.5 79.5 -40.5l150 -25
c50.667 -7.33301 86.5 -25.166 107.5 -53.499s31.5 -71.833 31.5 -130.5c0 -40 -4.33301 -72.333 -13 -97s-23 -43.167 -43 -55.5s-41.833 -20.333 -65.5 -24s-55.167 -5.5 -94.5 -5.5c-74.667 0 -143.334 4.33301 -206.001 13l3 31
c78.667 -5.33301 147 -7.66602 205 -6.99902c34.667 0.666992 61.667 2.66699 81 6s36.5 10 51.5 20s25.333 24.5 31 43.5s8.5 44.167 8.5 75.5c0 50 -8 85.333 -24 106s-43.667 34 -83 40zM283.998 -63h12c10.667 0 16 -5 16 -15v-58
c-1.33301 -43.333 -8.33301 -83.333 -21 -120l-17 6c3.33301 40 5 74.333 5 103c-8 0 -11.333 4.33301 -10 13v56c0 10 5 15 15 15z" />
    <glyph glyph-name="scommaaccent" unicode="&#x219;" horiz-adv-x="501" 
d="M321 215l-157.002 22.999c-36 5.33301 -62.5 17.833 -79.5 37.5s-25.5 49.5 -25.5 89.5c0 56 13.333 91.833 40 107.5s73.334 22.834 140.001 21.501c72 -1.33301 135.667 -5.66602 191 -12.999l-4 -29c-76.667 4 -137.667 6.33301 -183 7
c-57.333 1.33301 -95.833 -3.16699 -115.5 -13.5s-29.5 -37.166 -29.5 -80.499c0 -31.333 6.33301 -53.666 19 -66.999s32.334 -22 59.001 -26l157 -23c36.667 -6 64.167 -18.833 82.5 -38.5s27.5 -48.5 27.5 -86.5c0 -56.667 -14.667 -93.334 -44 -110.001
s-79.333 -25 -150 -25c-64 0 -123.667 4 -179 12l4 29c57.333 -4.66699 114.333 -6.66699 171 -6c62 0.666992 104 7.16699 126 19.5s33 39.166 33 80.499c0 29.333 -7.16699 50.666 -21.5 63.999s-34.833 22.333 -61.5 27zM254.998 -63.001h12c10 0 15 -5 15 -15v-58
c-1.33301 -42.667 -8 -82.667 -20 -120l-18 6c3.33301 30 5 64.333 5 103c-8 0 -11 4.33301 -9 13v56c-0.666992 10 4.33301 15 15 15z" />
    <glyph glyph-name="uni021A" unicode="&#x21a;" horiz-adv-x="568" 
d="M542 654h-238v-654h-41v654h-237v36h516v-36zM269 -63h12c10 0 15 -5 15 -15v-58c-1.33301 -42.667 -8 -82.667 -20 -120l-18 6c3.33301 30 5 64.333 5 103c-8 0 -11 4.33301 -9 13v56c-0.666992 10 4.33301 15 15 15z" />
    <glyph glyph-name="uni021B" unicode="&#x21b;" horiz-adv-x="356" 
d="M159 448v-342c0 -50.667 25.667 -76 77 -76h84l5 -29c-30 -5.33301 -60.667 -8 -92 -8c-76 0 -114 36.333 -114 109v346h-87v29l87 4v150h40v-149h172v-34h-172zM224 -63h12c10 0 15 -5 15 -15v-58c-1.33301 -42.667 -8 -82.667 -20 -120l-18 6
c3.33301 30 5 64.333 5 103c-8 0 -11 4.33301 -9 13v56c-0.666992 10 4.33301 15 15 15z" />
    <glyph glyph-name="circumflex" unicode="&#x2c6;" horiz-adv-x="399" 
d="M349 587l-15 -19l-130 101h-8l-129 -101l-17 19l135 119h29z" />
    <glyph glyph-name="caron" unicode="&#x2c7;" horiz-adv-x="399" 
d="M350 691l-138 -120h-24l-139 120l18 18l129 -98h8l130 98z" />
    <glyph glyph-name="breve" unicode="&#x2d8;" horiz-adv-x="362" 
d="M296 689l24.999 -4c0.666992 -36.667 -11.5 -65.667 -36.5 -87s-59.167 -32 -102.5 -32s-77.666 10.667 -102.999 32s-37.666 50.333 -36.999 87l24 4c0 -28 10.333 -49.833 31 -65.5s49 -23.5 85 -23.5c35.333 0 63.166 7.83301 83.499 23.5s30.5 37.5 30.5 65.5z" />
    <glyph glyph-name="dotaccent" unicode="&#x2d9;" horiz-adv-x="210" 
d="M98 678h14c10.667 0 16 -5 16 -15v-61c0 -10 -5.33301 -15 -16 -15h-14c-10.667 0 -16 5 -16 15v61c0 10 5.33301 15 16 15z" />
    <glyph glyph-name="ring" unicode="&#x2da;" horiz-adv-x="294" 
d="M147 735c27.333 0 50.666 -9.5 69.999 -28.5s29 -41.833 29 -68.5c0 -27.333 -9.66699 -50.5 -29 -69.5s-42.666 -28.5 -69.999 -28.5s-50.666 9.5 -69.999 28.5s-29 42.167 -29 69.5c0 26.667 9.66699 49.5 29 68.5s42.666 28.5 69.999 28.5zM147 710
c-20.667 0 -37.667 -6.83301 -51 -20.5s-20 -30.834 -20 -51.501c0 -21.333 6.83301 -38.666 20.5 -51.999s30.5 -20 50.5 -20s36.833 6.66699 50.5 20s20.5 30.666 20.5 51.999c0 20.667 -6.83301 37.834 -20.5 51.501s-30.5 20.5 -50.5 20.5z" />
    <glyph glyph-name="ogonek" unicode="&#x2db;" horiz-adv-x="253" 
d="M145 2l23.999 -2.00098c-40.667 -40.667 -68.667 -81.667 -84 -123c-10.667 -29.333 -7.5 -48.666 9.5 -57.999s43.5 -7.66602 79.5 5.00098l5 -18c-53.333 -21.333 -91 -23.833 -113 -7.5s-26.333 42.833 -13 79.5c14.667 41.333 45.334 82.666 92.001 123.999z" />
    <glyph glyph-name="tilde" unicode="&#x2dc;" horiz-adv-x="405" 
d="M77 595h-23.002c-1.33301 32.667 4.83398 57.167 18.501 73.5s32.834 23.5 57.501 21.5c20 -2 43.833 -12.833 71.5 -32.5s51.167 -30.5 70.5 -32.5c20 -1.33301 34.333 2.66699 43 12s13 25.333 13 48h23c2 -30.667 -4 -54.167 -18 -70.5s-33.333 -23.5 -58 -21.5
c-24 2 -50 13 -78 33s-49.667 30.667 -65 32c-36.667 4 -55 -17 -55 -63z" />
    <glyph glyph-name="hungarumlaut" unicode="&#x2dd;" horiz-adv-x="422" 
d="M205 698l-121 -154l-22 15l111 161zM351 698l-121 -154l-22 15l111 161z" />
    <glyph glyph-name="Delta" unicode="&#x394;" horiz-adv-x="617" 
d="M583 26v-26h-549v26l253 664h43zM537 35l-203.998 543l-12 34.5l-12 35.5c-2.66699 -8 -6.83398 -19.833 -12.501 -35.5s-9.83398 -27.5 -12.501 -35.5l-205 -542h458z" />
    <glyph glyph-name="Omega" unicode="&#x3a9;" horiz-adv-x="718" 
d="M54 36h126.999c28.667 0 49.667 -0.333008 63 -1c-56 37.333 -96.167 81.333 -120.5 132s-36.5 115.334 -36.5 194.001c0 115.333 21.5 201 64.5 257s112.167 84 207.5 84c94 0 162.833 -28.167 206.5 -84.5s65.5 -141.833 65.5 -256.5c0 -79.333 -12.333 -144 -37 -194
s-64.667 -94 -120 -132c14 0.666992 35 1 63 1h127v-36h-234v35c58 38.667 98.833 82.667 122.5 132s35.834 112.666 36.501 189.999c-0.666992 106 -19.167 183.833 -55.5 233.5s-94.5 74.5 -174.5 74.5c-81.333 0 -139.833 -24.667 -175.5 -74s-53.5 -128 -53.5 -236
c0 -80 12 -143 36 -189s64.667 -89.667 122 -131v-35h-234v36z" />
    <glyph glyph-name="mu" unicode="&#x3bc;" horiz-adv-x="581" 
d="M481 482v-482h-30l-5 85c-76.667 -64.667 -148.667 -97 -216 -97c-44.667 0 -78.667 12.333 -102 37c3.33301 -21.333 5 -48 5 -80v-153h-37v690h39v-354c0 -68 34.667 -102 104 -102c30.667 0 61 6.83301 91 20.5s67 36.167 111 67.5v368h40z" />
    <glyph glyph-name="pi" unicode="&#x3c0;" horiz-adv-x="641" 
d="M611 448h-107v-448h-40v448h-288v-448h-39v448h-107v34h581v-34z" />
    <glyph glyph-name="uni0401" unicode="&#x401;" horiz-adv-x="553" 
d="M228 799h-15c-8.66699 0 -13 4.66699 -13 14v56c0 9.33301 4.33301 14 13 14h15c9.33301 0 14 -4.66699 14 -14v-56c0 -9.33301 -4.66699 -14 -14 -14zM405 799h-14c-9.33301 0 -14 4.66699 -14 14v56c0 9.33301 4.66699 14 14 14h14c9.33301 0 14 -4.66699 14 -14v-56
c0 -9.33301 -4.66699 -14 -14 -14zM495 35l2 -31.002c-64 -2.66699 -162 -4 -294 -4c-32.667 0 -59.167 9.83301 -79.5 29.5s-30.5 45.167 -30.5 76.5v478c0 31.333 10.167 56.833 30.5 76.5s46.833 29.5 79.5 29.5c132 0 230 -1.33301 294 -4l-2 -31h-285
c-22.667 0 -41 -7.16699 -55 -21.5s-21 -33.166 -21 -56.499v-192h320v-34h-320v-238c0 -23.333 7 -42.166 21 -56.499s32.333 -21.5 55 -21.5h285z" />
    <glyph glyph-name="uni0402" unicode="&#x402;" horiz-adv-x="749" 
d="M304 654l-0.000976562 -295.001c40 28 77.333 47.667 112 59s72 17 112 17c55.333 0 97 -15.833 125 -47.5s42 -85.167 42 -160.5c0 -158 -84.333 -233.667 -253 -227l-4 29c72.667 4 126.834 19.833 162.501 47.5s53.5 76.834 53.5 147.501c0 66 -11 111.5 -33 136.5
s-56.333 37.5 -103 37.5c-40 0 -75.333 -5.66699 -106 -17s-66.667 -30.333 -108 -57v-324h-41v654h-237v36h516v-36h-238z" />
    <glyph glyph-name="uni0403" unicode="&#x403;" horiz-adv-x="515" 
d="M425 870l-163 -136l-18 20l155 145zM96 0l0.000976562 581c0 32 10.167 58.167 30.5 78.5s46.166 30.5 77.499 30.5c127.333 0 222.666 -1.66699 285.999 -5l-3 -30h-272c-23.333 0 -42.166 -7.16699 -56.499 -21.5s-21.5 -33.833 -21.5 -58.5v-575h-41z" />
    <glyph glyph-name="uni0404" unicode="&#x404;" horiz-adv-x="572" 
d="M521 38l7.00391 -30.998c-52.667 -12.667 -115.334 -19 -188.001 -19c-98.667 0 -168 26.667 -208 80s-60 145.666 -60 276.999s20 223.666 60 276.999s109.333 80 208 80c71.333 0 131.333 -6 180 -18l-7 -31c-50.667 8 -108.334 12 -173.001 12
c-78.667 0 -135 -20.833 -169 -62.5s-52.333 -114.167 -55 -217.5h311v-33h-312v-7c0 -118.667 16.667 -201.667 50 -249s91.666 -71 174.999 -71c69.333 0 129.666 4.33301 180.999 13z" />
    <glyph glyph-name="uni0405" unicode="&#x405;" horiz-adv-x="556" 
d="M348 317l-150.002 25c-48 7.33301 -82.5 25.333 -103.5 54s-31.5 71 -31.5 127c0 40.667 4 73.167 12 97.5s21.833 42.333 41.5 54s41 19.167 64 22.5s54.5 4.66602 94.5 3.99902c71.333 -1.33301 135.333 -6 192 -14l-4 -30c-92 4.66699 -154.333 7 -187 7
c-24 0 -42.333 -0.333008 -55 -1s-26.667 -2.33398 -42 -5.00098s-26.666 -7 -33.999 -13s-14.666 -14.167 -21.999 -24.5s-12.166 -23.5 -14.499 -39.5s-3.5 -35.667 -3.5 -59c0 -46.667 7.83301 -80.5 23.5 -101.5s42.167 -34.5 79.5 -40.5l150 -25
c50.667 -7.33301 86.5 -25.166 107.5 -53.499s31.5 -71.833 31.5 -130.5c0 -40 -4.33301 -72.333 -13 -97s-23 -43.167 -43 -55.5s-41.833 -20.333 -65.5 -24s-55.167 -5.5 -94.5 -5.5c-74.667 0 -143.334 4.33301 -206.001 13l3 31
c78.667 -5.33301 147 -7.66602 205 -6.99902c34.667 0.666992 61.667 2.66699 81 6s36.5 10 51.5 20s25.333 24.5 31 43.5s8.5 44.167 8.5 75.5c0 50 -8 85.333 -24 106s-43.667 34 -83 40z" />
    <glyph glyph-name="uni0406" unicode="&#x406;" horiz-adv-x="239" 
d="M140 0h-41v690h41v-690z" />
    <glyph glyph-name="uni0407" unicode="&#x407;" horiz-adv-x="239" 
d="M23 859h15c8.66699 0 13 -4.66699 13 -14v-56c0 -9.33301 -4.33301 -14 -13 -14h-15c-9.33301 0 -14 4.66699 -14 14v56c0 9.33301 4.66699 14 14 14zM200 859h15c8.66699 0 13 -4.66699 13 -14v-56c0 -9.33301 -4.33301 -14 -13 -14h-15c-9.33301 0 -14 4.66699 -14 14
v56c0 9.33301 4.66699 14 14 14zM140 0h-41v690h41v-690z" />
    <glyph glyph-name="uni0408" unicode="&#x408;" horiz-adv-x="328" 
d="M232 690v-567c0 -43.333 -10.5 -76 -31.5 -98s-52.167 -32.667 -93.5 -32c-22 0 -45.667 2.66699 -71 8l5 28h56c62.667 0 94 31.333 94 94v567h41z" />
    <glyph glyph-name="uni0409" unicode="&#x409;" horiz-adv-x="966" 
d="M526 391l173.002 -0.00195312c80 0 135.333 -15 166 -45s46 -81.667 46 -155c0 -76.667 -15.5 -129 -46.5 -157s-84.833 -42 -161.5 -42c-92 0 -164.667 2.66699 -218 8v655h-159c-50 0 -77 -26.667 -81 -80c-13.333 -156 -24.333 -260.333 -33 -313
s-25.334 -101 -50.001 -145c-38.667 -69.333 -82.667 -108.333 -132 -117l-5 29c37.333 18.667 70 52.334 98 101.001c24 42 40 85.167 48 129.5s18 133.5 30 267.5c2 22.667 3.66699 40.334 5 53.001c5.33301 73.333 43.666 110 114.999 110h205v-299zM526.002 354.998
v-324c49.333 -1.33301 107 -2 173 -2c64.667 0 109.167 11 133.5 33s36.5 65.333 36.5 130c0 61.333 -12 103.833 -36 127.5s-68.667 35.5 -134 35.5h-173z" />
    <glyph glyph-name="uni040A" unicode="&#x40a;" horiz-adv-x="982" 
d="M542 389l172.999 0.000976562c80 0 135.333 -14.833 166 -44.5s46 -80.834 46 -153.501c0 -76.667 -15.5 -129 -46.5 -157s-85.167 -42 -162.5 -42c-91.333 0 -163.666 2.66699 -216.999 8v354h-361v-354h-41v690h41v-301h361v301h41v-301zM541.999 354.001v-323
c48 -1.33301 105.667 -2 173 -2c64.667 0 109.167 11 133.5 33s36.5 65 36.5 129c0 60.667 -12 103 -36 127s-68.667 36 -134 36h-173z" />
    <glyph glyph-name="uni040B" unicode="&#x40b;" horiz-adv-x="786" 
d="M304 654l0.000976562 -296c87.333 51.333 176.666 77 267.999 77c98.667 0 148 -49.333 148 -148v-287h-41v280c0 41.333 -9.5 71.333 -28.5 90s-48.833 28 -89.5 28c-46 0 -87.833 -5.66699 -125.5 -17s-81.5 -31 -131.5 -59v-322h-41v654h-237v36h516v-36h-238z" />
    <glyph glyph-name="uni040C" unicode="&#x40c;" horiz-adv-x="580" 
d="M257 734l-18 20l155 145l26 -29zM288 361l-0.00195312 -2.00195c14 -0.666992 27.167 -3.16699 39.5 -7.5s24.166 -11.166 35.499 -20.499s21.333 -18.333 30 -27s18 -21.334 28 -38.001l24.5 -42c6.33301 -11.333 14.333 -28.333 24 -51l22.5 -53l24 -59.5l24 -60.5h-44
l-22.5 55.5l-21 54c-4.33301 11.667 -11 27.667 -20 48s-16.167 35.666 -21.5 45.999s-12.666 23.333 -21.999 39s-17.666 27.334 -24.999 35.001l-26.5 26.5c-10.333 10 -20.666 17.333 -30.999 22s-21.833 8.66699 -34.5 12s-26 5 -40 5h-96c2 -29.333 3 -57 3 -83v-260
h-40v690h40v-231c0 -30 -1.33301 -57.333 -4 -82h97c30 0 56.667 7 80 21s45.5 38.5 66.5 73.5s36.5 63.333 46.5 85s25.333 58.834 46 111.501l9 22h43c-42 -104 -71.333 -171.333 -88 -202c-43.333 -79.333 -92.333 -121.666 -147 -126.999z" />
    <glyph glyph-name="uni040D" unicode="&#x40d;" horiz-adv-x="681" 
d="M385 754l-18 -20l-163 136l26 29zM583 0l-40.999 0.000976562v562c0 31.333 0.333008 55 1 71h-2c-0.666992 -0.666992 -5.5 -9.66699 -14.5 -27s-15.833 -29.666 -20.5 -36.999l-366 -569h-41v690h40v-559c0 -32.667 -0.333008 -57.334 -1 -74.001h2
c3.33301 5.33301 9.66602 16.166 18.999 32.499l21 36.5l361 564h42v-690z" />
    <glyph glyph-name="uni040E" unicode="&#x40e;" horiz-adv-x="544" 
d="M388 876l24.001 -5c0.666992 -36.667 -11.333 -65.5 -36 -86.5s-58.667 -31.5 -102 -31.5s-77.833 10.5 -103.5 31.5s-38.167 49.833 -37.5 86.5l25 5c0 -28 10.333 -49.833 31 -65.5s49 -23.5 85 -23.5c35.333 0 63.166 7.83301 83.499 23.5s30.5 37.5 30.5 65.5z
M524.001 690l-198.001 -527.001c-24.667 -64.667 -45 -107 -61 -127c-20.667 -26 -45 -40 -73 -42c-35.333 -2.66699 -69.666 1.33301 -102.999 12l5 29c23.333 -3.33301 41.833 -5.66602 55.5 -6.99902s27 -0.333008 40 3s22.833 7 29.5 11s14.167 12.833 22.5 26.5
s15.166 26.667 20.499 39s13.333 31.833 24 58.5l14 38h-43c-27.333 0 -45.666 12.667 -54.999 38l-170 448h43l161 -430c5.33301 -14 15 -21 29 -21h48l168 451h43z" />
    <glyph glyph-name="uni040F" unicode="&#x40f;" horiz-adv-x="668" 
d="M569 690v-690h-217l-2 -151h-29l-4 151h-218v690h41v-655h388v655h41z" />
    <glyph glyph-name="uni0410" unicode="&#x410;" horiz-adv-x="608" 
d="M463 243h-318l-85 -243h-43l241 677c3.33301 8.66699 9.33301 13 18 13h56c8.66699 0 14.667 -4.33301 18 -13l241 -677h-43zM450 279l-112 321l-20 56h-28l-20 -56l-112 -321h292z" />
    <glyph glyph-name="uni0411" unicode="&#x411;" horiz-adv-x="594" 
d="M140 376h181.998c80 0 135.333 -14.333 166 -43s46 -78.667 46 -150c0 -75.333 -16.167 -126 -48.5 -152s-88.166 -39 -167.499 -39c-90.667 0 -163.667 2.66699 -219 8v690c74.667 3.33301 142.334 5 203.001 5c58.667 0 124.667 -1.66699 198 -5l-4 -34h-356v-280z
M139.998 341l-0.000976562 -311c50.667 -1.33301 111.334 -2 182.001 -2c64.667 0 109.167 10.5 133.5 31.5s36.5 62.5 36.5 124.5c0 59.333 -12 100.333 -36 123s-68.667 34 -134 34h-182z" />
    <glyph glyph-name="uni0412" unicode="&#x412;" horiz-adv-x="614" 
d="M408 360v-4.00293c49.333 -4.66699 84.5 -22.167 105.5 -52.5s31.5 -74.166 31.5 -131.499c0 -69.333 -15.667 -116.666 -47 -141.999s-87 -38 -167 -38c-99.333 0 -176.666 2.66699 -231.999 8v690c48.667 5.33301 116 8 202 8c84 0 142.333 -12.667 175 -38
s49 -72.666 49 -141.999c0 -50 -9.33301 -87.833 -28 -113.5s-48.334 -40.5 -89.001 -44.5zM140 373.997l177.998 -0.000976562c62.667 0.666992 105.834 10.5 129.501 29.5s35.5 56.167 35.5 111.5c0 58.667 -13.167 97.834 -39.5 117.501s-74.166 29.5 -143.499 29.5
c-60 0 -113.333 -0.666992 -160 -2v-286zM139.998 340.996v-311c52 -1.33301 114.333 -2 187 -2c66.667 0 112.667 10 138 30s38 59.333 38 118c0 63.333 -13.5 106.333 -40.5 129s-75.167 34.667 -144.5 36h-178z" />
    <glyph glyph-name="uni0413" unicode="&#x413;" horiz-adv-x="515" 
d="M96 0l0.000976562 581c0 32 10.167 58.167 30.5 78.5s46.166 30.5 77.499 30.5c127.333 0 222.666 -1.66699 285.999 -5l-3 -30h-272c-23.333 0 -42.166 -7.16699 -56.499 -21.5s-21.5 -33.833 -21.5 -58.5v-575h-41z" />
    <glyph glyph-name="uni0414" unicode="&#x414;" horiz-adv-x="665" 
d="M628 35l0.000976562 -186h-29l-6 151h-533l-7 -151h-29v186h59c68.667 126 106.667 307.667 114 545c0.666992 35.333 10.667 62.5 30 81.5s46.666 28.5 81.999 28.5h237v-655h82zM504.001 35v620h-189c-50.667 0 -77 -26 -79 -78
c-3.33301 -112.667 -13 -213.167 -29 -301.5s-43.333 -168.5 -82 -240.5h379z" />
    <glyph glyph-name="uni0415" unicode="&#x415;" horiz-adv-x="553" 
d="M495 35l2 -31.002c-64 -2.66699 -162 -4 -294 -4c-32.667 0 -59.167 9.83301 -79.5 29.5s-30.5 45.167 -30.5 76.5v478c0 31.333 10.167 56.833 30.5 76.5s46.833 29.5 79.5 29.5c132 0 230 -1.33301 294 -4l-2 -31h-285c-22.667 0 -41 -7.16699 -55 -21.5
s-21 -33.166 -21 -56.499v-192h320v-34h-320v-238c0 -23.333 7 -42.166 21 -56.499s32.333 -21.5 55 -21.5h285z" />
    <glyph glyph-name="uni0416" unicode="&#x416;" horiz-adv-x="886" 
d="M594 361l0.00292969 -2c14 -0.666992 27.167 -3.16699 39.5 -7.5s24.166 -11.333 35.499 -21l30 -26.5c8.66699 -8 18.167 -20.667 28.5 -38l24.5 -41.5c6 -10.333 14.167 -27.5 24.5 -51.5s17.666 -41.5 21.999 -52.5l23.5 -60l24 -60.5h-44l-22 55.5l-21.5 54
c-4.33301 11 -11 27 -20 48s-16.167 36.333 -21.5 46l-22 38.5c-9.33301 16 -17.666 27.833 -24.999 35.5l-26.5 26.5c-10.333 10 -20.5 17.333 -30.5 22s-21.333 8.66699 -34 12s-26 5 -40 5h-77c2.66699 -26 4 -53.667 4 -83v-260h-39v260c0 29.333 1.33301 57 4 83h-85
c-14 0 -27.167 -1.66699 -39.5 -5s-23.5 -7.33301 -33.5 -12s-20.333 -12 -31 -22s-19.5 -18.833 -26.5 -26.5s-15.167 -19.5 -24.5 -35.5l-22 -38.5c-5.33301 -9.66699 -12.5 -25 -21.5 -46s-15.667 -37 -20 -48l-21.5 -54l-22 -55.5h-44l24 60.5l23.5 60
c4.33301 11 11.666 28.5 21.999 52.5s18.5 41.167 24.5 51.5l24.5 41.5c10.333 17.333 19.833 30 28.5 38l30 26.5c11.333 9.66699 23.166 16.667 35.499 21s25.5 6.83301 39.5 7.5v2c-34 3.33301 -66.167 22.5 -96.5 57.5s-52.666 67.667 -66.999 98
s-34.5 79.166 -60.5 146.499c-4.66699 12 -8.33398 21 -11.001 27h43c40 -99.333 68.667 -164.333 86 -195c45.333 -78.667 98.666 -118 159.999 -118h85c-2.66699 18.667 -4 46 -4 82v231h39v-231c0 -36 -1.33301 -63.333 -4 -82h77c37.333 0 71.833 15.833 103.5 47.5
s54.667 62.167 69 91.5s34.833 77 61.5 143l13 31h43c-42 -104.667 -72 -173 -90 -205c-43.333 -77.333 -91.666 -118.666 -144.999 -123.999z" />
    <glyph glyph-name="uni0417" unicode="&#x417;" horiz-adv-x="546" 
d="M61 654l-5 29.9971c55.333 9.33301 114 14 176 14c83.333 0 141.333 -12.5 174 -37.5s49 -72.5 49 -142.5c0 -50 -9.33301 -87.833 -28 -113.5s-48.334 -40.5 -89.001 -44.5v-4c49.333 -4.66699 84.5 -22.167 105.5 -52.5s31.5 -74.166 31.5 -131.499
c0 -69.333 -15.667 -116.666 -47 -141.999s-86.666 -38 -165.999 -38c-84.667 0 -158 5.33301 -220 16l5 30c113.333 -6.66699 183.666 -10 210.999 -10c66.667 0 112.5 10 137.5 30s37.5 59.333 37.5 118c0 63.333 -13.5 106.666 -40.5 129.999s-74.833 35 -143.5 35h-105
v33h105c62 0 104.833 9.83301 128.5 29.5s35.5 56.834 35.5 111.501c0 58.667 -13 97.834 -39 117.501s-73.667 29.5 -143 29.5c-24 0 -47.833 -0.5 -71.5 -1.5s-44.667 -2.33301 -63 -4s-30.166 -2.5 -35.499 -2.5z" />
    <glyph glyph-name="uni0418" unicode="&#x418;" horiz-adv-x="681" 
d="M583 0l-40.999 0.000976562v562c0 31.333 0.333008 55 1 71h-2c-0.666992 -0.666992 -5.5 -9.66699 -14.5 -27s-15.833 -29.666 -20.5 -36.999l-366 -569h-41v690h40v-559c0 -32.667 -0.333008 -57.334 -1 -74.001h2c3.33301 5.33301 9.66602 16.166 18.999 32.499
l21 36.5l361 564h42v-690z" />
    <glyph glyph-name="uni0419" unicode="&#x419;" horiz-adv-x="681" 
d="M446 878h34.999c0.666992 -36.667 -11.666 -66.667 -36.999 -90s-59.333 -35 -102 -35s-77 11.667 -103 35s-38.333 53.333 -37 90h34c0 -31.333 9.5 -55.833 28.5 -73.5s44.833 -26.5 77.5 -26.5c31.333 0 56.5 8.83301 75.5 26.5s28.5 42.167 28.5 73.5zM582.999 0
l-40.999 0.000976562v562c0 31.333 0.333008 55 1 71h-2c-0.666992 -0.666992 -5.5 -9.66699 -14.5 -27s-15.833 -29.666 -20.5 -36.999l-366 -569h-41v690h40v-559c0 -32.667 -0.333008 -57.334 -1 -74.001h2c3.33301 5.33301 9.66602 16.166 18.999 32.499l21 36.5
l361 564h42v-690z" />
    <glyph glyph-name="uni041A" unicode="&#x41a;" horiz-adv-x="580" 
d="M288 361l-0.00195312 -2.00195c14 -0.666992 27.167 -3.16699 39.5 -7.5s24.166 -11.166 35.499 -20.499s21.333 -18.333 30 -27s18 -21.334 28 -38.001l24.5 -42c6.33301 -11.333 14.333 -28.333 24 -51l22.5 -53l24 -59.5l24 -60.5h-44l-22.5 55.5l-21 54
c-4.33301 11.667 -11 27.667 -20 48s-16.167 35.666 -21.5 45.999s-12.666 23.333 -21.999 39s-17.666 27.334 -24.999 35.001l-26.5 26.5c-10.333 10 -20.666 17.333 -30.999 22s-21.833 8.66699 -34.5 12s-26 5 -40 5h-96c2 -29.333 3 -57 3 -83v-260h-40v690h40v-231
c0 -30 -1.33301 -57.333 -4 -82h97c30 0 56.667 7 80 21s45.5 38.5 66.5 73.5s36.5 63.333 46.5 85s25.333 58.834 46 111.501l9 22h43c-42 -104 -71.333 -171.333 -88 -202c-43.333 -79.333 -92.333 -121.666 -147 -126.999z" />
    <glyph glyph-name="uni041B" unicode="&#x41b;" horiz-adv-x="637" 
d="M538 690l0.000976562 -690h-41v655h-180c-51.333 0 -79 -26.667 -83 -80c-10 -116.667 -17 -193.5 -21 -230.5s-11 -76.5 -21 -118.5s-24 -78.333 -42 -109c-36 -66.667 -80 -105.667 -132 -117l-5 32c38.667 18 71.667 50.667 99 98c24.667 44 41.167 90.667 49.5 140
s19.166 153 32.499 311c7.33301 72.667 45.333 109 114 109h230z" />
    <glyph glyph-name="uni041C" unicode="&#x41c;" horiz-adv-x="860" 
d="M669 690l57 0.000976562c13.333 0 20 -7 20 -21l30 -669h-41l-29 655h-23l-208 -576c-3.33301 -9.33301 -9.66602 -14 -18.999 -14h-52c-10 0 -16.667 4.66699 -20 14l-207 576h-23l-29 -655h-41l29 669c1.33301 14 8.33301 21 21 21h57
c9.33301 0 15.666 -4.66699 18.999 -14l175 -484l10.5 -29.5l12 -34.5c4.33301 -12.667 7.83301 -22.334 10.5 -29.001h24l33 95l174 482c3.33301 9.33301 10 14 20 14z" />
    <glyph glyph-name="uni041D" unicode="&#x41d;" horiz-adv-x="660" 
d="M561 690v-690h-41v352h-380v-352h-41v690h41v-302h380v302h41z" />
    <glyph glyph-name="uni041E" unicode="&#x41e;" horiz-adv-x="664" 
d="M332 702c96 0 163.167 -26.3311 201.5 -78.998s57.5 -145.334 57.5 -278.001s-19.167 -225.334 -57.5 -278.001s-105.5 -79 -201.5 -79s-163.333 26.5 -202 79.5s-58 145.5 -58 277.5s19.333 224.5 58 277.5s106 79.5 202 79.5zM332 665.002
c-80.667 0 -137 -23.667 -169 -71s-48 -130.333 -48 -249s16 -201.667 48 -249s88.333 -71 169 -71s136.834 23.5 168.501 70.5s47.5 130.167 47.5 249.5s-15.833 202.5 -47.5 249.5s-87.834 70.5 -168.501 70.5z" />
    <glyph glyph-name="uni041F" unicode="&#x41f;" horiz-adv-x="663" 
d="M564 690v-690h-41v655h-383v-655h-41v690h465z" />
    <glyph glyph-name="uni0420" unicode="&#x420;" horiz-adv-x="583" 
d="M99 0l-0.000976562 690c54 5.33301 129 8 225 8c76.667 0 130 -14.5 160 -43.5s45 -83.167 45 -162.5c0 -80 -14.833 -134.333 -44.5 -163s-82.167 -43 -157.5 -43c-71.333 0 -133.666 2 -186.999 6v-292h-41zM139.999 322h184c61.333 1.33301 103.833 13.5 127.5 36.5
s35.5 67.5 35.5 133.5s-11.833 110.833 -35.5 134.5s-66.167 35.5 -127.5 35.5c-70.667 0 -132 -0.666992 -184 -2v-338z" />
    <glyph glyph-name="uni0421" unicode="&#x421;" 
d="M516 38l7 -30.998c-52.667 -12.667 -116.667 -19 -192 -19c-95.333 0 -162.333 26.667 -201 80s-58 145.666 -58 276.999s19.333 223.666 58 276.999s105.667 80 201 80c70 0 129.333 -6 178 -18l-7 -30c-52 7.33301 -109 11 -171 11
c-80.667 0 -136.834 -23.5 -168.501 -70.5s-47.5 -130.167 -47.5 -249.5s15.833 -202.5 47.5 -249.5s87.834 -70.5 168.501 -70.5c72 0 133.667 4.33301 185 13z" />
    <glyph glyph-name="uni0422" unicode="&#x422;" horiz-adv-x="568" 
d="M542 654h-238v-654h-41v654h-237v36h516v-36z" />
    <glyph glyph-name="uni0423" unicode="&#x423;" horiz-adv-x="544" 
d="M524 690l-198.001 -527.001c-24.667 -64.667 -45 -107 -61 -127c-20.667 -26 -45 -40 -73 -42c-35.333 -2.66699 -69.666 1.33301 -102.999 12l5 29c23.333 -3.33301 41.833 -5.66602 55.5 -6.99902s27 -0.333008 40 3s22.833 7 29.5 11s14.167 12.833 22.5 26.5
s15.166 26.667 20.499 39s13.333 31.833 24 58.5l14 38h-43c-27.333 0 -45.666 12.667 -54.999 38l-170 448h43l161 -430c5.33301 -14 15 -21 29 -21h48l168 451h43z" />
    <glyph glyph-name="uni0424" unicode="&#x424;" horiz-adv-x="821" 
d="M431 755v-104c118 -2 201 -25.167 249 -69.5s72 -120.166 72 -227.499c0 -106.667 -24 -182 -72 -226s-131 -67 -249 -69v-104h-41v104c-118 2 -201 25 -249 69s-72 119.333 -72 226c0 107.333 24 183.166 72 227.499s131 67.5 249 69.5v104h41zM391 94v522.001
c-104 -2 -176.667 -21.833 -218 -59.5s-62 -105.167 -62 -202.5c0 -96.667 20.667 -163.834 62 -201.501s114 -57.167 218 -58.5zM430 616.001v-522c104 2 176.667 21.667 218 59s62 104.333 62 201c0 97.333 -20.667 164.833 -62 202.5s-114 57.5 -218 59.5z" />
    <glyph glyph-name="uni0425" unicode="&#x425;" horiz-adv-x="603" 
d="M316 343h-30l-202 -343h-47l213 359l-200 331h47l187 -313h34l188 313h47l-200 -331l213 -359h-48z" />
    <glyph glyph-name="uni0426" unicode="&#x426;" horiz-adv-x="677" 
d="M640 35v-186h-29l-7 151h-505v690h41v-655h376v655h41v-655h83z" />
    <glyph glyph-name="uni0427" unicode="&#x427;" horiz-adv-x="610" 
d="M511 690v-689.999h-41v341c-82.667 -51.333 -169.334 -77 -260.001 -77c-94.667 0 -142 49 -142 147v279h41v-272c0 -40.667 9 -70.334 27 -89.001s46.667 -28 86 -28c44.667 0 85.334 5.5 122.001 16.5s78.667 30.5 126 58.5v314h41z" />
    <glyph glyph-name="uni0428" unicode="&#x428;" horiz-adv-x="908" 
d="M809 690v-690h-710v690h41v-655h294v655h40v-655h295v655h40z" />
    <glyph glyph-name="uni0429" unicode="&#x429;" horiz-adv-x="919" 
d="M883 35v-186h-29l-7 151h-748v690h41v-655h289v655h41v-655h290v655h40v-655h83z" />
    <glyph glyph-name="uni042A" unicode="&#x42a;" horiz-adv-x="745" 
d="M297 391h180.999c80 0 135.333 -15 166 -45s46 -81.667 46 -155c0 -76.667 -15.5 -129 -46.5 -157s-85.167 -42 -162.5 -42c-95.333 0 -170.666 2.66699 -225.999 8v654h-229v36h271v-299zM296.999 355v-324c50.667 -1.33301 111 -2 181 -2c64.667 0 109.167 11 133.5 33
s36.5 65 36.5 129c0 61.333 -12 104 -36 128s-68.667 36 -134 36h-181z" />
    <glyph glyph-name="uni042B" unicode="&#x42b;" horiz-adv-x="819" 
d="M140 391h181.999c80 0 135.333 -15 166 -45s46 -81.667 46 -155c0 -76.667 -15.5 -129 -46.5 -157s-85.167 -42 -162.5 -42c-95.333 0 -170.666 2.66699 -225.999 8v690h41v-299zM719.999 690v-690h-41v690h41zM139.999 355l-0.000976562 -324
c50.667 -1.33301 111.334 -2 182.001 -2c64 0 108.333 11 133 33s37 65 37 129c0 61.333 -12 104 -36 128s-68.667 36 -134 36h-182z" />
    <glyph glyph-name="uni042C" unicode="&#x42c;" horiz-adv-x="589" 
d="M140 391h181.999c80 0 135.333 -15 166 -45s46 -81.667 46 -155c0 -76.667 -15.5 -129 -46.5 -157s-85.167 -42 -162.5 -42c-95.333 0 -170.666 2.66699 -225.999 8v690h41v-299zM139.999 355l-0.000976562 -324c50.667 -1.33301 111.334 -2 182.001 -2
c64 0 108.333 11 133 33s37 65 37 129c0 61.333 -12 104 -36 128s-68.667 36 -134 36h-182z" />
    <glyph glyph-name="uni042D" unicode="&#x42d;" horiz-adv-x="572" 
d="M58 653l-6.99902 30.999c50 12 110 18 180 18c99.333 0 168.833 -26.5 208.5 -79.5s59.5 -145.5 59.5 -277.5s-19.833 -224.5 -59.5 -277.5s-109.167 -79.5 -208.5 -79.5c-72 0 -134.333 6.33301 -187 19l7 31c51.333 -8.66699 111.333 -13 180 -13
c84 0 142.667 23.667 176 71s50 130.333 50 249v8h-313v33h312c-2.66699 102.667 -21 174.834 -55 216.501s-90.667 62.5 -170 62.5c-64.667 0 -122.334 -4 -173.001 -12z" />
    <glyph glyph-name="uni042E" unicode="&#x42e;" horiz-adv-x="902" 
d="M141 377l180 0.000976562c2.66699 120 22.667 204.167 60 252.5s100.333 72.5 189 72.5c96 0 163.167 -26.333 201.5 -79s57.5 -145.334 57.5 -278.001s-19.167 -225.334 -57.5 -278.001s-105.5 -79 -201.5 -79c-92 0 -156.5 26.333 -193.5 79
s-55.5 144.334 -55.5 275.001h-180v-342h-41v690h41v-313zM570 25.001c80.667 0 136.834 23.5 168.501 70.5s47.5 130.167 47.5 249.5s-15.833 202.5 -47.5 249.5s-87.834 70.5 -168.501 70.5c-77.333 0 -131.166 -23.5 -161.499 -70.5s-45.5 -130.167 -45.5 -249.5
s15.167 -202.5 45.5 -249.5s84.166 -70.5 161.499 -70.5z" />
    <glyph glyph-name="uni042F" unicode="&#x42f;" horiz-adv-x="605" 
d="M206 307l-1 5.00098c-40 6 -70.167 26.167 -90.5 60.5s-30.166 75.166 -29.499 122.499c0 74.667 16 127.167 48 157.5s84 45.5 156 45.5c92 0 164.333 -2.66699 217 -8v-690h-41v298c-38.667 -2 -102.334 -3 -191.001 -3c-52 0 -87.667 -29 -107 -87l-71 -208h-45
l73 211c18.667 52.667 46 84.667 82 96zM465 331.001v329c-50.667 1.33301 -109.334 2 -176.001 2c-57.333 0 -98.666 -12.333 -123.999 -37s-38 -68.667 -38 -132c0 -108 49.333 -162 148 -162h190z" />
    <glyph glyph-name="uni0430" unicode="&#x430;" horiz-adv-x="542" 
d="M86 443l-4.00293 29.999c101.333 14 178.333 21 231 21c94.667 0 142 -46.667 142 -140v-354h-31l-7 89c-23.333 -23.333 -56.166 -45.166 -98.499 -65.499s-84.166 -30.5 -125.499 -30.5c-40.667 0 -72.5 10.833 -95.5 32.5s-34.5 52.5 -34.5 92.5v60
c0 36.667 10.333 65 31 85s50.334 30 89.001 30h232v61c0 69.333 -35.667 104 -107 104c-58 0 -132 -5 -222 -15zM102.997 174.999l-0.000976562 -54.002c0 -59.333 31.333 -89.666 94 -90.999c33.333 -0.666992 70.833 7.83301 112.5 25.5s76.834 39.834 105.501 66.501
v139l-228 -3c-56 -1.33301 -84 -29 -84 -83z" />
    <glyph glyph-name="uni0431" unicode="&#x431;" horiz-adv-x="564" 
d="M460 734l9.99805 -30.0039c-16.667 -11.333 -34.334 -21.166 -53.001 -29.499s-33.167 -14.166 -43.5 -17.499s-26 -7.83301 -47 -13.5s-34.5 -9.16699 -40.5 -10.5c-60 -17.333 -101.333 -42.666 -124 -75.999s-36.667 -79.333 -42 -138c-2 -16 -3.66699 -39 -5 -69h1
c4.66699 15.333 10.334 29 17.001 41s16.834 24.333 30.501 37s32.834 22.5 57.501 29.5s53.667 10.5 87 10.5c70 0 119 -17.833 147 -53.5s42 -97.167 42 -184.5c0 -39.333 -2.66699 -72.5 -8 -99.5s-15.333 -52 -30 -75s-36 -40 -64 -51s-63 -16.5 -105 -16.5
c-38 0 -70 5 -96 15s-46.333 22.833 -61 38.5s-25.834 37.834 -33.501 66.501s-12.5 56.167 -14.5 82.5s-3 61.166 -3 104.499c0 60.667 2 109 6 145s12.667 70 26 102s32.833 57.333 58.5 76s59.5 34.334 101.5 47.001l45 11.5c20 5 35.333 9.16699 46 12.5
s24.834 8.83301 42.501 16.5s35.167 17.167 52.5 28.5zM299.998 432.996c-70 0 -117 -16.499 -141 -49.499s-36 -83.167 -36 -150.5c0 -78 12.667 -132.333 38 -163s69 -46 131 -46c60.667 0 103 15.167 127 45.5s36 85.166 36 164.499c0 75.333 -11.167 127.333 -33.5 156
s-62.833 43 -121.5 43z" />
    <glyph glyph-name="uni0432" unicode="&#x432;" horiz-adv-x="549" 
d="M363 249l0.00195312 -2c44 -3.33301 75.167 -15.5 93.5 -36.5s27.5 -51.5 27.5 -91.5c0 -48 -13.833 -80.833 -41.5 -98.5s-76.834 -26.5 -147.501 -26.5c-84.667 0 -153 2 -205 6v481c45.333 4 104.666 6 177.999 6c74.667 0 126.5 -9 155.5 -27s43.5 -52 43.5 -102
c0 -34 -8.33301 -60 -25 -78s-43 -28.333 -79 -31zM128.002 263h155.999c54.667 0.666992 92.334 7.16699 113.001 19.5s31 36.833 31 73.5c0 38.667 -11.667 64.5 -35 77.5s-65.333 19.5 -126 19.5c-60.667 1.33301 -107 1.33301 -139 0v-190zM128.001 233
l0.00195312 -204.999c23.333 -0.666992 77.666 -1 162.999 -1c57.333 0 97.166 6.66699 119.499 20s33.5 39.333 33.5 78c0 41.333 -11.667 69.666 -35 84.999s-65 23 -125 23h-156z" />
    <glyph glyph-name="uni0433" unicode="&#x433;" horiz-adv-x="444" 
d="M88 0v385c0 30.667 8.33301 54.5 25 71.5s40.334 25.5 71.001 25.5c103.333 0 180.666 -1.33301 231.999 -4v-30h-219c-24 0 -41.5 -5.66699 -52.5 -17s-16.5 -29.333 -16.5 -54v-377h-40z" />
    <glyph glyph-name="uni0434" unicode="&#x434;" horiz-adv-x="559" 
d="M510 33v-178h-28l-6 145h-413l-6 -145h-27v178h46c52.667 86 82.667 203.333 90 352c4 64.667 37.667 97 101 97h185v-449h58zM414 33l-0.000976562 416h-141c-44 0 -67 -22.667 -69 -68c-7.33301 -148 -36.666 -264 -87.999 -348h298z" />
    <glyph glyph-name="uni0435" unicode="&#x435;" horiz-adv-x="530" 
d="M364 221h-256.998c2.66699 -73.333 18 -124.5 46 -153.5s73.333 -43.5 136 -43.5c56.667 0 111.667 4 165 12l5 -28c-38.667 -13.333 -97 -20 -175 -20s-133.833 19.5 -167.5 58.5s-50.5 104.5 -50.5 196.5s16 156.833 48 194.5s86 56.5 162 56.5
c128 0 192.667 -47.333 194 -142c1.33301 -44 -6.33398 -76.833 -23.001 -98.5s-44.334 -32.5 -83.001 -32.5zM107.002 254h251.002c49.333 0 73.333 32 72 96c-0.666992 38 -13.334 65.5 -38.001 82.5s-62.667 25.5 -114 25.5c-62 0 -105.833 -15 -131.5 -45
s-38.834 -83 -39.501 -159z" />
    <glyph glyph-name="uni0436" unicode="&#x436;" horiz-adv-x="767" 
d="M529 252l0.000976562 -1.00195c30 -2.66699 56.833 -15.834 80.5 -39.501s41.334 -46.834 53.001 -69.501s29.167 -62.334 52.5 -119.001c4.66699 -10 8 -17.667 10 -23h-43c-2.66699 6.66699 -7 16.667 -13 30c-13.333 31.333 -23.5 54.333 -30.5 69
s-16.5 32.667 -28.5 54s-23.333 36.666 -34 45.999s-23.834 17.666 -39.501 24.999s-32.834 11 -51.501 11h-84c2.66699 -16.667 4 -35 4 -55v-180h-37v180c0 18 1 36.333 3 55h-88c-18.667 0 -35.834 -3.66699 -51.501 -11s-28.667 -15.666 -39 -24.999
s-21.666 -24.333 -33.999 -45s-22 -38.5 -29 -53.5l-30.5 -68.5l-14 -32h-42c37.333 88.667 64 145.334 80 170.001c32 50.667 70.667 77.667 116 81v1c-28 2.66699 -53.833 16.334 -77.5 41.001s-41 47.834 -52 69.501s-27.167 57.834 -48.5 108.501
c-2 4.66699 -3.66699 8.33398 -5 11.001h42c11.333 -26.667 19.5 -45.334 24.5 -56.001l23.5 -48.5c10.667 -21.667 20 -37.167 28 -46.5s17.833 -20 29.5 -32s24.167 -20.333 37.5 -25s28 -7 44 -7h86c-2 12.667 -3 32 -3 58v157h37v-157c0 -26 -1 -45.333 -3 -58h80
c16 0 30.667 2.33301 44 7s25.833 13 37.5 25s21.5 22.667 29.5 32s17.333 24.833 28 46.5l23.5 48.5c5 10.667 13.167 29.334 24.5 56.001h42c-12.667 -31.333 -22.167 -54.166 -28.5 -68.499s-16 -33.5 -29 -57.5s-24.667 -41.833 -35 -53.5s-23.333 -22.5 -39 -32.5
s-32.5 -16 -50.5 -18z" />
    <glyph glyph-name="uni0437" unicode="&#x437;" horiz-adv-x="478" 
d="M59 447l-4 29.9941c40 7.33301 85.667 11 137 11c78 0 131.833 -8.66699 161.5 -26s44.5 -50.666 44.5 -99.999c0 -36 -7.5 -63 -22.5 -81s-41.833 -28.667 -80.5 -32v-2c42 -3.33301 72.167 -15.166 90.5 -35.499s27.5 -51.166 27.5 -92.499
c0 -45.333 -14.833 -77.666 -44.5 -96.999s-80.5 -29 -152.5 -29c-68.667 0 -125.667 4 -171 12l4 30c70 -4.66699 124.667 -7 164 -7c59.333 0 100.5 7.33301 123.5 22s34.5 39.667 34.5 75c0 40.667 -11.333 68.334 -34 83.001s-63 22.667 -121 24h-99v31h99
c55.333 0.666992 92.833 7.33398 112.5 20.001s29.5 37.334 29.5 74.001c0 39.333 -11.667 65.166 -35 77.499s-68.333 18.5 -135 18.5c-57.333 0 -100.333 -2 -129 -6z" />
    <glyph glyph-name="uni0438" unicode="&#x438;" horiz-adv-x="583" 
d="M492 0l-36.999 -0.000976562v375v55h-1c-6 -10 -16 -25 -30 -45l-300 -385h-34v482h38v-372c0 -25.333 -0.333008 -44.666 -1 -57.999h1c7.33301 12 18.666 27.667 33.999 47l296 383h34v-482z" />
    <glyph glyph-name="uni0439" unicode="&#x439;" horiz-adv-x="583" 
d="M387 697h34c0.666992 -37.333 -11.5 -67.666 -36.5 -90.999s-58.833 -35 -101.5 -35c-43.333 0 -77.833 11.667 -103.5 35s-38.167 53.666 -37.5 90.999h34c0 -31.333 9.66699 -55.833 29 -73.5s45.333 -26.5 78 -26.5c31.333 0 56.5 8.83301 75.5 26.5
s28.5 42.167 28.5 73.5zM492 0l-36.999 -0.000976562v375v55h-1c-6 -10 -16 -25 -30 -45l-300 -385h-34v482h38v-372c0 -25.333 -0.333008 -44.666 -1 -57.999h1c7.33301 12 18.666 27.667 33.999 47l296 383h34v-482z" />
    <glyph glyph-name="uni043A" unicode="&#x43a;" horiz-adv-x="520" 
d="M269 252l-0.00195312 -1c24.667 -2 46.667 -8.66699 66 -20s37.333 -29.333 54 -54s30.334 -47.834 41.001 -69.501s25 -52.834 43 -93.501c2.66699 -6 4.66699 -10.667 6 -14h-43c-37.333 82 -63.666 134 -78.999 156c-34 50.667 -77.333 77 -130 79h-6h-94
c2 -18.667 3 -37 3 -55v-180h-40v482h40v-157c0 -19.333 -1 -38.666 -3 -57.999h92c20 0 38.667 4 56 12s32 17.333 44 28s24.5 26.167 37.5 46.5s23.333 38.333 31 54l30.5 63.5c2 4.66699 3.66699 8.33398 5 11.001h42l-31 -69c-6.66699 -14.667 -17 -34 -31 -58
s-26.5 -41.667 -37.5 -53s-25 -22 -42 -32s-35.167 -16 -54.5 -18z" />
    <glyph glyph-name="uni043B" unicode="&#x43b;" horiz-adv-x="543" 
d="M452 482l-0.00195312 -482.001h-39v449h-141c-22.667 0 -39.5 -5.5 -50.5 -16.5s-17.833 -28.167 -20.5 -51.5c-0.666992 -3.33301 -2.5 -19 -5.5 -47s-5 -46.167 -6 -54.5s-3.33301 -24.166 -7 -47.499s-7 -41 -10 -53s-7 -26.167 -12 -42.5s-10.5 -30.833 -16.5 -43.5
c-24.667 -54.667 -63.667 -87.334 -117 -98.001l-5 32c41.333 16 70.333 42.667 87 80c8.66699 18 16.5 41.5 23.5 70.5s11.833 53.333 14.5 73s5.83398 46 9.50098 79s5.83398 51.833 6.50098 56.5c4 32.667 14.333 56.834 31 72.501s41.667 23.5 75 23.5h183z" />
    <glyph glyph-name="uni043C" unicode="&#x43c;" horiz-adv-x="727" 
d="M556 482h49.001c12.667 0 19 -6 19 -18l24 -464h-38l-23 449h-19l-165 -389c-4 -9.33301 -10 -14 -18 -14h-44c-7.33301 0 -13 4.66699 -17 14l-165 389h-19l-23 -449h-38l24 464c0 12 6.33301 18 19 18h50c8.66699 0 14.667 -4.66699 18 -14l137 -325
c10.667 -24.667 19.667 -47 27 -67h19c14 36.667 23 59 27 67l137 325c3.33301 9.33301 9.66602 14 18.999 14z" />
    <glyph glyph-name="uni043D" unicode="&#x43d;" horiz-adv-x="570" 
d="M480 482v-482h-40v241h-310v-241h-40v482h40v-209h310v209h40z" />
    <glyph glyph-name="uni043E" unicode="&#x43e;" 
d="M282 494c78.667 0 134 -19 166 -57s48 -103.333 48 -196c0 -93.333 -16 -158.833 -48 -196.5s-87.333 -56.5 -166 -56.5c-79.333 0 -135.166 18.833 -167.499 56.5s-48.5 103.167 -48.5 196.5c0 92.667 16.167 158 48.5 196s88.166 57 167.499 57zM282 458
c-64.667 0 -109.834 -15.667 -135.501 -47s-38.5 -88 -38.5 -170s12.833 -138.833 38.5 -170.5s70.834 -47.5 135.501 -47.5s109.667 15.833 135 47.5s38 88.5 38 170.5s-12.667 138.667 -38 170s-70.333 47 -135 47z" />
    <glyph glyph-name="uni043F" unicode="&#x43f;" horiz-adv-x="567" 
d="M477 482v-482h-40v448h-308v-448h-39v482h387z" />
    <glyph glyph-name="uni0440" unicode="&#x440;" horiz-adv-x="567" 
d="M122 482l5 -85c68 64.667 134.667 97 200 97c61.333 0 105.333 -19.833 132 -59.5s40 -104.5 40 -194.5c0 -90.667 -13.667 -155.334 -41 -194.001s-72.333 -58 -135 -58s-127.667 17.667 -195 53c2 -23.333 3 -54.666 3 -93.999v-155h-40v690h31zM131 367v-299
c78.667 -29.333 140.667 -44 186 -44c51.333 0 87.666 16 108.999 48s32 88 32 168c0 79.333 -10.5 135.5 -31.5 168.5s-56.5 49.5 -106.5 49.5c-30 0 -59.167 -7 -87.5 -21s-62.166 -37.333 -101.499 -70z" />
    <glyph glyph-name="uni0441" unicode="&#x441;" horiz-adv-x="482" 
d="M434 35l4.99805 -28c-47.333 -12.667 -97.666 -19 -150.999 -19c-81.333 0 -138.666 19 -171.999 57s-50 103.333 -50 196s16.667 158 50 196s90.666 57 171.999 57c57.333 0 104 -6.33301 140 -19l-7 -27c-35.333 6.66699 -77.666 10 -126.999 10
c-69.333 0 -117.833 -15.5 -145.5 -46.5s-41.5 -87.833 -41.5 -170.5s13.833 -139.5 41.5 -170.5s76.167 -46.5 145.5 -46.5c56 0 102.667 3.66699 140 11z" />
    <glyph glyph-name="uni0442" unicode="&#x442;" horiz-adv-x="475" 
d="M446 447h-188v-447h-41v447h-188v35h417v-35z" />
    <glyph glyph-name="uni0443" unicode="&#x443;" horiz-adv-x="513" 
d="M486 482l-213.999 -524c-26 -64 -54.667 -108.667 -86 -134c-38.667 -28 -86.334 -37.667 -143.001 -29l3 26c48 -2.66699 87.333 7 118 29c25.333 22 49.333 60.667 72 116l13 34h-12c-8.66699 0 -14.667 4 -18 12l-192 470h43l159 -395l21 -54h13l22 55l158 394h43z
" />
    <glyph glyph-name="uni0444" unicode="&#x444;" horiz-adv-x="702" 
d="M371 700v-206c96 -2.66699 164.333 -23.334 205 -62.001s61 -102.334 61 -191.001s-20.333 -152.334 -61 -191.001s-109 -59.334 -205 -62.001v-196h-39v196c-96.667 2.66699 -165.334 23.334 -206.001 62.001s-61 102.334 -61 191.001s20.333 152.334 61 191.001
s109.334 59.334 206.001 62.001v206h39zM333 24v434c-84 -1.33301 -143.167 -18 -177.5 -50s-51.5 -87.667 -51.5 -167s17.167 -135 51.5 -167s93.5 -48.667 177.5 -50zM370 458v-434c83.333 2 142 19 176 51s51 87.333 51 166s-17 134 -51 166s-92.667 49 -176 51z" />
    <glyph glyph-name="uni0445" unicode="&#x445;" horiz-adv-x="512" 
d="M268 235h-24l-165 -235h-46l177 250l-164 232h46l151 -214h26l151 214h46l-164 -232l177 -250h-46z" />
    <glyph glyph-name="uni0446" unicode="&#x446;" horiz-adv-x="573" 
d="M524 -143h-27l-7 143h-399v482h39v-449h298v449h40v-449h56v-176z" />
    <glyph glyph-name="uni0447" unicode="&#x447;" horiz-adv-x="512" 
d="M421 482l-0.000976562 -482.001h-39v228c-68 -32.667 -139 -49 -213 -49c-71.333 0 -107 34.333 -107 103v200h40v-190c0 -27.333 6.33301 -47.166 19 -59.499s32.334 -18.5 59.001 -18.5c66 0 133.333 16 202 48v220h39z" />
    <glyph glyph-name="uni0448" unicode="&#x448;" horiz-adv-x="787" 
d="M697 482v-482h-607v482h40v-449h244v449h39v-449h245v449h39z" />
    <glyph glyph-name="uni0449" unicode="&#x449;" horiz-adv-x="804" 
d="M755 33v-176h-28l-5 143h-631v482h39v-449h245v449h38v-449h247v449h38v-449h57z" />
    <glyph glyph-name="uni044A" unicode="&#x44a;" horiz-adv-x="626" 
d="M249 276h146c68 0 115 -10.5 141 -31.5s39 -57.5 39 -109.5c0 -54 -13.167 -91 -39.5 -111s-71.833 -30 -136.5 -30c-78 0 -141 2 -189 6v448h-181v34h220v-206zM249 244l0.000976562 -215.002c21.333 -0.666992 70 -1 146 -1c52 0 88 7.33301 108 22
s30 43.334 30 86.001c0 40.667 -9.83301 68.834 -29.5 84.501s-55.834 23.5 -108.501 23.5h-146z" />
    <glyph glyph-name="uni044B" unicode="&#x44b;" horiz-adv-x="686" 
d="M129 276h148.002c61.333 0 103.833 -10.5 127.5 -31.5s35.5 -57.5 35.5 -109.5c0 -54 -11.833 -91 -35.5 -111s-64.834 -30 -123.501 -30c-78.667 0 -142.334 2 -191.001 6v482h39v-206zM595.002 482v-482h-40v482h40zM129.002 244v-215.002
c22 -0.666992 71.333 -1 148 -1c45.333 0 76.833 7.33301 94.5 22s26.5 43.334 26.5 86.001c0 40.667 -8.5 68.834 -25.5 84.501s-48.833 23.5 -95.5 23.5h-148z" />
    <glyph glyph-name="uni044C" unicode="&#x44c;" horiz-adv-x="507" 
d="M129 276h148.001c68 0 114.833 -10.5 140.5 -31.5s38.5 -57.5 38.5 -109.5c0 -54 -13 -91 -39 -111s-71.333 -30 -136 -30c-78.667 0 -142.334 2 -191.001 6v482h39v-206zM129.001 244v-215.002c22 -0.666992 71.333 -1 148 -1c51.333 0 87 7.33301 107 22
s30 43.334 30 86.001c0 40.667 -9.66699 68.834 -29 84.501s-55.333 23.5 -108 23.5h-148z" />
    <glyph glyph-name="uni044D" unicode="&#x44d;" horiz-adv-x="489" 
d="M57 444l-6.00195 28.999c39.333 8.66699 89.333 13 150 13c82 0 139.5 -18.333 172.5 -55s49.5 -100.667 49.5 -192s-16.5 -155.5 -49.5 -192.5s-90.5 -55.5 -172.5 -55.5c-59.333 0 -111.333 5 -156 15l6 30c44.667 -6 94.667 -9 150 -9
c66.667 0 113.334 14.833 140.001 44.5s40.334 82.834 41.001 159.501h-253v31h252c-2 70 -16.5 119 -43.5 147s-72.5 42 -136.5 42c-51.333 0 -99.333 -2.33301 -144 -7z" />
    <glyph glyph-name="uni044E" unicode="&#x44e;" horiz-adv-x="774" 
d="M131 265h148c2 85.333 18.5 144.833 49.5 178.5s84.167 50.5 159.5 50.5c82 0 139.167 -18.333 171.5 -55s48.5 -102 48.5 -196s-16.167 -159.333 -48.5 -196s-89.5 -55 -171.5 -55c-76.667 0 -130.667 17.667 -162 53s-47.333 98 -48 188h-147v-233h-40v482h40v-217z
M488 27c66 0 112.167 15.667 138.5 47s39.5 87.666 39.5 168.999s-13.167 137.666 -39.5 168.999s-72.5 47 -138.5 47c-63.333 0 -107.333 -15.667 -132 -47s-37 -87.666 -37 -168.999s12.333 -137.666 37 -168.999s68.667 -47 132 -47z" />
    <glyph glyph-name="uni044F" unicode="&#x44f;" horiz-adv-x="530" 
d="M439 0h-39.001v191h-152c-62.667 0 -100.667 -20.667 -114 -62l-39 -129h-43l45 141c12 36.667 44 58 96 64v3c-40 2 -69.667 15.5 -89 40.5s-29 58.5 -29 100.5c0 41.333 12.833 74.333 38.5 99s66.834 37 123.501 37c84.667 0 152 -2.33301 202 -7v-478zM399.999 223
v226c-45.333 1.33301 -99.333 2 -162 2c-82 0 -123 -36 -123 -108c0 -40 10.333 -70 31 -90s55 -30 103 -30h151z" />
    <glyph glyph-name="uni0451" unicode="&#x451;" horiz-adv-x="530" 
d="M197 594h-15c-9.33301 0 -14 4.66699 -14 14v56c0 9.33301 4.66699 14 14 14h15c8.66699 0 13 -4.66699 13 -14v-56c0 -9.33301 -4.33301 -14 -13 -14zM374 594h-15c-9.33301 0 -14 4.66699 -14 14v56c0 9.33301 4.66699 14 14 14h15c8.66699 0 13 -4.66699 13 -14v-56
c0 -9.33301 -4.33301 -14 -13 -14zM364 221h-256.998c2.66699 -73.333 18 -124.5 46 -153.5s73.333 -43.5 136 -43.5c56.667 0 111.667 4 165 12l5 -28c-38.667 -13.333 -97 -20 -175 -20s-133.833 19.5 -167.5 58.5s-50.5 104.5 -50.5 196.5s16 156.833 48 194.5
s86 56.5 162 56.5c128 0 192.667 -47.333 194 -142c1.33301 -44 -6.33398 -76.833 -23.001 -98.5s-44.334 -32.5 -83.001 -32.5zM107.002 254h251.002c49.333 0 73.333 32 72 96c-0.666992 38 -13.334 65.5 -38.001 82.5s-62.667 25.5 -114 25.5
c-62 0 -105.833 -15 -131.5 -45s-38.834 -83 -39.501 -159z" />
    <glyph glyph-name="uni0452" unicode="&#x452;" horiz-adv-x="571" 
d="M152 507v-116.001c0 -39.333 -1.66699 -69.666 -5 -90.999c86.667 63.333 163 95 229 95c86.667 0 130 -44 130 -132v-263h-40v255c0 35.333 -8.33301 61.333 -25 78s-42.667 25 -78 25c-32 0 -63.667 -7 -95 -21s-70.333 -36.667 -117 -68v-269h-40v507h-80v27h80v166
h41v-166h210v-27h-210z" />
    <glyph glyph-name="uni0453" unicode="&#x453;" horiz-adv-x="444" 
d="M388 688l-163 -136l-18 20l155 146zM88 0v385c0 30.667 8.33301 54.5 25 71.5s40.334 25.5 71.001 25.5c103.333 0 180.666 -1.33301 231.999 -4v-30h-219c-24 0 -41.5 -5.66699 -52.5 -17s-16.5 -29.333 -16.5 -54v-377h-40z" />
    <glyph glyph-name="uni0454" unicode="&#x454;" horiz-adv-x="490" 
d="M438 36l5.99805 -30c-44 -10 -95.667 -15 -155 -15c-82 0 -139.5 18.5 -172.5 55.5s-49.5 101.167 -49.5 192.5s16.5 155.333 49.5 192s90.5 55 172.5 55c60.667 0 110.667 -4.33301 150 -13l-6 -29c-44.667 4.66699 -92.667 7 -144 7c-64 0 -109.5 -14 -136.5 -42
s-41.833 -77.333 -44.5 -148h253v-31h-253c0.666992 -76 14.334 -128.833 41.001 -158.5s73.334 -44.5 140.001 -44.5c55.333 0 105 3 149 9z" />
    <glyph glyph-name="uni0455" unicode="&#x455;" horiz-adv-x="502" 
d="M321 215l-156.001 22.999c-36 6 -62.667 18.667 -80 38s-26 49 -26 89c0 55.333 13.5 91 40.5 107s73.833 23.333 140.5 22c72 -1.33301 135.333 -5.66602 190 -12.999l-3 -29c-78.667 4 -140 6.33301 -184 7c-57.333 1.33301 -95.833 -3.16699 -115.5 -13.5
s-29.5 -37.166 -29.5 -80.499c0 -31.333 6.33301 -53.666 19 -66.999s32.334 -22 59.001 -26l157 -23c37.333 -6 65 -18.833 83 -38.5s27 -48.5 27 -86.5c0 -56.667 -14.667 -93.334 -44 -110.001s-79.333 -25 -150 -25c-64 0 -123.333 4 -178 12l4 29
c57.333 -4.66699 114 -6.66699 170 -6c62 0.666992 104 7.16699 126 19.5s33 39.166 33 80.499c0 30 -7.16699 51.5 -21.5 64.5s-34.833 21.833 -61.5 26.5z" />
    <glyph glyph-name="uni0456" unicode="&#x456;" horiz-adv-x="228" 
d="M105 683h18c10 0 15 -5.33301 15 -16v-60c0 -10.667 -5 -16 -15 -16h-18c-10 0 -15 5.33301 -15 16v60c0 10.667 5 16 15 16zM134 0h-40v482h40v-482z" />
    <glyph glyph-name="uni0457" unicode="&#x457;" horiz-adv-x="228" 
d="M17 678h15c8.66699 0 13 -4.66699 13 -14v-56c0 -9.33301 -4.33301 -14 -13 -14h-15c-9.33301 0 -14 4.66699 -14 14v56c0 9.33301 4.66699 14 14 14zM194 678h15c8.66699 0 13 -4.66699 13 -14v-56c0 -9.33301 -4.33301 -14 -13 -14h-15c-9.33301 0 -14 4.66699 -14 14
v56c0 9.33301 4.66699 14 14 14zM134 0h-40v482h40v-482z" />
    <glyph glyph-name="uni0458" unicode="&#x458;" horiz-adv-x="228" 
d="M105 683h18c10.667 0 16 -5.33301 16 -16v-60c0 -10.667 -5.33301 -16 -16 -16h-18c-10 0 -15 5.33301 -15 16v60c0 10.667 5 16 15 16zM134 482v-518.999c0 -66.667 -24.333 -123.667 -73 -171l-22 17c36.667 47.333 55 98.666 55 153.999v519h40z" />
    <glyph glyph-name="uni0459" unicode="&#x459;" horiz-adv-x="778" 
d="M427 285l130.002 0.000976562c64 0 108.167 -10.833 132.5 -32.5s36.5 -59.5 36.5 -113.5c0 -61.333 -13.5 -100.833 -40.5 -118.5s-75.167 -26.5 -144.5 -26.5c-59.333 0 -110.333 2 -153 6v450h-115c-20 0 -35 -4.33301 -45 -13s-16 -23 -18 -43
c-10.667 -103.333 -19.334 -172.5 -26.001 -207.5s-19.334 -68.167 -38.001 -99.5c-24 -46 -60.333 -75.333 -109 -88l-6 29c35.333 19.333 61.333 42.666 78 69.999c19.333 32 31.833 63.333 37.5 94s14.167 100 25.5 208c5.33301 54.667 37 82 95 82h160v-197z
M427.002 254.001l-0.000976562 -226c20 -0.666992 56 -1 108 -1c58.667 0 98.5 6.66699 119.5 20s31.5 44.333 31.5 93c0 42 -9.16699 71.5 -27.5 88.5s-52.166 25.5 -101.499 25.5h-130z" />
    <glyph glyph-name="uni045A" unicode="&#x45a;" horiz-adv-x="791" 
d="M439 283h132.001c63.333 0 107.166 -10.667 131.499 -32s36.5 -58.333 36.5 -111c0 -56 -12.333 -94.333 -37 -115s-67 -31 -127 -31c-72 0 -130.333 2 -175 6v251h-271v-251h-38v482h38v-200h271v200h39v-199zM439.001 252v-224c19.333 -0.666992 63.333 -1 132 -1
c47.333 0 80.333 7.66699 99 23s28 45.333 28 90c0 42 -9 71.167 -27 87.5s-51.333 24.5 -100 24.5h-132z" />
    <glyph glyph-name="uni045B" unicode="&#x45b;" horiz-adv-x="571" 
d="M152 507v-116c0 -39.333 -1.66699 -69.666 -5 -90.999c86.667 63.333 163 95 229 95c86.667 0 130 -44 130 -132v-300c0 -66.667 -24.333 -123.667 -73 -171l-22 17c36.667 47.333 55 98.666 55 153.999v292c0 35.333 -8.33301 61.333 -25 78s-42.667 25 -78 25
c-32 0 -63.667 -7 -95 -21s-70.333 -36.667 -117 -68v-269h-40v507h-80v27h80v166h41v-166h210v-27h-210z" />
    <glyph glyph-name="uni045C" unicode="&#x45c;" horiz-adv-x="520" 
d="M241 552l-18 20l155 146l26 -30zM269 252l-0.00195312 -1c24.667 -2 46.667 -8.66699 66 -20s37.333 -29.333 54 -54s30.334 -47.834 41.001 -69.501s25 -52.834 43 -93.501c2.66699 -6 4.66699 -10.667 6 -14h-43c-37.333 82 -63.666 134 -78.999 156
c-34 50.667 -77.333 77 -130 79h-6h-94c2 -18.667 3 -37 3 -55v-180h-40v482h40v-157c0 -19.333 -1 -38.666 -3 -57.999h92c20 0 38.667 4 56 12s32 17.333 44 28s24.5 26.167 37.5 46.5s23.333 38.333 31 54l30.5 63.5c2 4.66699 3.66699 8.33398 5 11.001h42l-31 -69
c-6.66699 -14.667 -17 -34 -31 -58s-26.5 -41.667 -37.5 -53s-25 -22 -42 -32s-35.167 -16 -54.5 -18z" />
    <glyph glyph-name="uni045D" unicode="&#x45d;" horiz-adv-x="583" 
d="M325 572l-18 -20l-163 136l26 30zM492 0l-36.999 -0.000976562v375v55h-1c-6 -10 -16 -25 -30 -45l-300 -385h-34v482h38v-372c0 -25.333 -0.333008 -44.666 -1 -57.999h1c7.33301 12 18.666 27.667 33.999 47l296 383h34v-482z" />
    <glyph glyph-name="uni045E" unicode="&#x45e;" horiz-adv-x="513" 
d="M364 697h34.999c0.666992 -36.667 -11.666 -66.834 -36.999 -90.501s-59.333 -35.5 -102 -35.5s-77 11.833 -103 35.5s-38.667 53.834 -38 90.501h35c0 -31.333 9.5 -55.833 28.5 -73.5s44.833 -26.5 77.5 -26.5c31.333 0 56.5 8.83301 75.5 26.5s28.5 42.167 28.5 73.5z
M485.999 482l-213.999 -524c-26 -64 -54.667 -108.667 -86 -134c-38.667 -28 -86.334 -37.667 -143.001 -29l3 26c48 -2.66699 87.333 7 118 29c25.333 22 49.333 60.667 72 116l13 34h-12c-8.66699 0 -14.667 4 -18 12l-192 470h43l159 -395l21 -54h13l22 55l158 394h43z
" />
    <glyph glyph-name="uni045F" unicode="&#x45f;" horiz-adv-x="569" 
d="M478 0h-175l-4 -167h-28l-6 167h-174v482h41v-449h305v449h41v-482z" />
    <glyph glyph-name="uni0490" unicode="&#x490;" horiz-adv-x="516" 
d="M490 841v-157l-2 -29h-273c-23.333 0 -42.166 -7.16699 -56.499 -21.5s-21.5 -33.833 -21.5 -58.5v-575h-41v581c0 32 10.167 58.167 30.5 78.5s46.166 30.5 77.499 30.5c112.667 0 196.667 -1.33301 252 -4l7 155h27z" />
    <glyph glyph-name="uni0491" unicode="&#x491;" horiz-adv-x="445" 
d="M417 478l-1.00195 0.000976562v-30h-219c-23.333 0.666992 -40.666 -4.83301 -51.999 -16.5s-17 -29.834 -17 -54.501v-377h-40v385c0 30.667 8.33301 54.5 25 71.5s40.334 25.5 71.001 25.5c86.667 0 153 -0.666992 199 -2l6 149h28v-151z" />
    <glyph glyph-name="uni04B0" unicode="&#x4b0;" horiz-adv-x="562" 
d="M461 238h-159v-238h-41v238h-160v28h153l-227 424h45l171 -322c4 -7.33301 10 -19 18 -35l18 -36h6l35 70l171 323h45l-227 -424h152v-28z" />
    <glyph glyph-name="uni04B1" unicode="&#x4b1;" horiz-adv-x="568" 
d="M312 58h152v-28h-159v-238h-41v238h-160v28h153l-228 424h45l171 -322c4 -7.33301 10 -19 18 -35s14 -27.667 18 -35h6c16 32 28 55 36 69l170 323h45z" />
    <glyph glyph-name="uni04B6" unicode="&#x4b6;" horiz-adv-x="628" 
d="M590 32l0.000976562 -182.999h-29l-7 151h-84v339c-80.667 -50 -165.334 -75 -254.001 -75c-98.667 0 -148 49 -148 147v279h42v-272c-0.666992 -40.667 8.5 -70.334 27.5 -89.001s48.833 -28 89.5 -28c43.333 0 83 5.5 119 16.5s77.333 30.167 124 57.5v315h42v-658h78z
" />
    <glyph glyph-name="uni04B7" unicode="&#x4b7;" horiz-adv-x="527" 
d="M478 33l-0.000976562 -176.001h-27l-7 143h-62v228c-68 -32.667 -139 -49 -213 -49c-71.333 0 -107 34.333 -107 103v200h40v-190c0 -27.333 6.33301 -47.166 19 -59.499s32.334 -18.5 59.001 -18.5c66 0 133.333 16 202 48v220h39v-449h57z" />
    <glyph glyph-name="uni04BA" unicode="&#x4ba;" horiz-adv-x="610" 
d="M140 690l-0.000976562 -339.001c80.667 50 165.667 75 255 75c98 0 147 -49 147 -147v-279h-41v272c0 40.667 -9.5 70.334 -28.5 89.001s-48.833 28 -89.5 28c-43.333 0 -83.166 -5.5 -119.499 -16.5s-77.5 -30.167 -123.5 -57.5v-315h-41v690h41z" />
    <glyph glyph-name="uni04C0" unicode="&#x4c0;" horiz-adv-x="239" 
d="M140 0h-41v690h41v-690z" />
    <glyph glyph-name="Wgrave" unicode="&#x1e80;" horiz-adv-x="935" 
d="M510 753l-18 -19l-163 135l26 30zM902 690l-171.999 -675.999c-2.66699 -9.33301 -9 -14 -19 -14h-57c-10.667 0 -17 5 -19 15l-137 564l-19 78h-23c-4.66699 -17.333 -11 -43.333 -19 -78l-137 -564c-2 -10 -8.33301 -15 -19 -15h-57c-10 0 -16.667 4.66699 -20 14
l-172 676h44l146 -583l17 -73h27c1.33301 6 4 17.167 8 33.5s7 29.166 9 38.499l139 568c2 10.667 8.33301 16 19 16h53c9.33301 0 15.666 -5.33301 18.999 -16l139 -567c4 -16.667 9.33301 -41 16 -73h27l17 72l147 584h43z" />
    <glyph glyph-name="wgrave" unicode="&#x1e81;" horiz-adv-x="815" 
d="M449 572l-18 -20l-162 136l25 30zM783 482l-160.002 -468.996c-3.33301 -8.66699 -9.33301 -13 -18 -13h-39c-9.33301 0 -15.666 4.66699 -18.999 14l-113 365l-21 73h-11l-22 -73l-112 -365c-3.33301 -9.33301 -9.66602 -14 -18.999 -14h-39
c-8.66699 0 -14.667 4.33301 -18 13l-160 469h42l128 -385c3.33301 -8.66699 7.5 -21.334 12.5 -38.001s7.83301 -26.334 8.5 -29.001h13l21 68l114 370c2 9.33301 8 14 18 14h37c9.33301 0 15.333 -4.66699 18 -14l115 -370l20 -68h13
c2.66699 7.33301 6.16699 18.666 10.5 33.999s7.83301 26.666 10.5 33.999l128 384h42z" />
    <glyph glyph-name="Wacute" unicode="&#x1e82;" horiz-adv-x="935" 
d="M597 869l-163 -135l-18 19l155 146zM902 690l-171.999 -675.999c-2.66699 -9.33301 -9 -14 -19 -14h-57c-10.667 0 -17 5 -19 15l-137 564l-19 78h-23c-4.66699 -17.333 -11 -43.333 -19 -78l-137 -564c-2 -10 -8.33301 -15 -19 -15h-57c-10 0 -16.667 4.66699 -20 14
l-172 676h44l146 -583l17 -73h27c1.33301 6 4 17.167 8 33.5s7 29.166 9 38.499l139 568c2 10.667 8.33301 16 19 16h53c9.33301 0 15.666 -5.33301 18.999 -16l139 -567c4 -16.667 9.33301 -41 16 -73h27l17 72l147 584h43z" />
    <glyph glyph-name="wacute" unicode="&#x1e83;" horiz-adv-x="815" 
d="M536 688l-163 -136l-18 20l155 146zM783 482l-160.002 -468.996c-3.33301 -8.66699 -9.33301 -13 -18 -13h-39c-9.33301 0 -15.666 4.66699 -18.999 14l-113 365l-21 73h-11l-22 -73l-112 -365c-3.33301 -9.33301 -9.66602 -14 -18.999 -14h-39
c-8.66699 0 -14.667 4.33301 -18 13l-160 469h42l128 -385c3.33301 -8.66699 7.5 -21.334 12.5 -38.001s7.83301 -26.334 8.5 -29.001h13l21 68l114 370c2 9.33301 8 14 18 14h37c9.33301 0 15.333 -4.66699 18 -14l115 -370l20 -68h13
c2.66699 7.33301 6.16699 18.666 10.5 33.999s7.83301 26.666 10.5 33.999l128 384h42z" />
    <glyph glyph-name="Wdieresis" unicode="&#x1e84;" horiz-adv-x="935" 
d="M372 859h15c8.66699 0 13 -4.66699 13 -14v-56c0 -9.33301 -4.33301 -14 -13 -14h-15c-9.33301 0 -14 4.66699 -14 14v56c0 9.33301 4.66699 14 14 14zM549 859h15c8.66699 0 13 -4.66699 13 -14v-56c0 -9.33301 -4.33301 -14 -13 -14h-15c-9.33301 0 -14 4.66699 -14 14
v56c0 9.33301 4.66699 14 14 14zM902 690l-171.999 -675.999c-2.66699 -9.33301 -9 -14 -19 -14h-57c-10.667 0 -17 5 -19 15l-137 564l-19 78h-23c-4.66699 -17.333 -11 -43.333 -19 -78l-137 -564c-2 -10 -8.33301 -15 -19 -15h-57c-10 0 -16.667 4.66699 -20 14l-172 676
h44l146 -583l17 -73h27c1.33301 6 4 17.167 8 33.5s7 29.166 9 38.499l139 568c2 10.667 8.33301 16 19 16h53c9.33301 0 15.666 -5.33301 18.999 -16l139 -567c4 -16.667 9.33301 -41 16 -73h27l17 72l147 584h43z" />
    <glyph glyph-name="wdieresis" unicode="&#x1e85;" horiz-adv-x="815" 
d="M311 678h15c9.33301 0 14 -4.66699 14 -14v-56c0 -9.33301 -4.66699 -14 -14 -14h-15c-8.66699 0 -13 4.66699 -13 14v56c0 9.33301 4.33301 14 13 14zM488 678h15c9.33301 0 14 -4.66699 14 -14v-56c0 -9.33301 -4.66699 -14 -14 -14h-15c-8.66699 0 -13 4.66699 -13 14
v56c0 9.33301 4.33301 14 13 14zM783 482l-160.002 -468.996c-3.33301 -8.66699 -9.33301 -13 -18 -13h-39c-9.33301 0 -15.666 4.66699 -18.999 14l-113 365l-21 73h-11l-22 -73l-112 -365c-3.33301 -9.33301 -9.66602 -14 -18.999 -14h-39
c-8.66699 0 -14.667 4.33301 -18 13l-160 469h42l128 -385c3.33301 -8.66699 7.5 -21.334 12.5 -38.001s7.83301 -26.334 8.5 -29.001h13l21 68l114 370c2 9.33301 8 14 18 14h37c9.33301 0 15.333 -4.66699 18 -14l115 -370l20 -68h13
c2.66699 7.33301 6.16699 18.666 10.5 33.999s7.83301 26.666 10.5 33.999l128 384h42z" />
    <glyph glyph-name="Ygrave" unicode="&#x1ef2;" horiz-adv-x="548" 
d="M298 734l-163 136l26 29l155 -145zM295 253v-253h-42v254l-234 436h45l171 -322c4 -7.33301 10 -19 18 -35l18 -36h6l35 70l171 323h45z" />
    <glyph glyph-name="ygrave" unicode="&#x1ef3;" horiz-adv-x="512" 
d="M283 552l-163 136l26 30l155 -146zM485 482l-214 -523.999c-18.667 -46.667 -40.667 -83.834 -66 -111.501s-60 -46.167 -104 -55.5l-6 25c36.667 13.333 65.5 32.333 86.5 57s38.833 55.667 53.5 93l14 34h-13c-8 0 -13.667 4 -17 12l-192 470h43l158 -395
c1.33301 -4 3.5 -9.66699 6.5 -17l8 -20l6.5 -17h13l22 55l159 394h42z" />
    <glyph glyph-name="endash" unicode="&#x2013;" horiz-adv-x="615" 
d="M533 235h-451v33h451v-33z" />
    <glyph glyph-name="emdash" unicode="&#x2014;" horiz-adv-x="923" 
d="M841 235h-759v33h759v-33z" />
    <glyph glyph-name="quoteleft" unicode="&#x2018;" horiz-adv-x="202" 
d="M107 519h-12.001c-10.667 0 -16 5.66699 -16 17v63c1.33301 48.667 8.33301 92.667 21 132l19 -7c-4 -38.667 -6 -76 -6 -112c8.66699 0 12 -4.66699 10 -14v-62c0.666992 -11.333 -4.66602 -17 -15.999 -17z" />
    <glyph glyph-name="quoteright" unicode="&#x2019;" horiz-adv-x="200" 
d="M94 722h13.001c10.667 0 16 -5.66699 16 -17v-63c-1.33301 -48.667 -8.33301 -92.667 -21 -132l-19 7c4 40 6 77.333 6 112c-8.66699 0 -12.334 4.66699 -11.001 14v62c0 11.333 5.33301 17 16 17z" />
    <glyph glyph-name="quotesinglbase" unicode="&#x201a;" horiz-adv-x="213" 
d="M101 93h12.998c11.333 0 17 -5.66699 17 -17v-63c-1.33301 -47.333 -9 -91.333 -23 -132l-19 7c4 40 6 77.333 6 112c-3.33301 -0 -6.16602 1.33301 -8.49902 4s-3.16602 6 -2.49902 10v62c0 11.333 5.66699 17 17 17z" />
    <glyph glyph-name="quotedblleft" unicode="&#x201c;" horiz-adv-x="326" 
d="M231 519h-12.001c-10.667 0 -16 5.66699 -16 17v63c0 44.667 7 88.667 21 132l19 -7c-4 -38.667 -6 -76 -6 -112c8.66699 0 12 -4.66699 10 -14v-62c0.666992 -11.333 -4.66602 -17 -15.999 -17zM106.999 519h-12.001c-10.667 0 -16 5.66699 -16 17v63
c1.33301 48.667 8.33301 92.667 21 132l19 -7c-4 -38.667 -6 -76 -6 -112c8.66699 0 12 -4.66699 10 -14v-62c0.666992 -11.333 -4.66602 -17 -15.999 -17z" />
    <glyph glyph-name="quotedblright" unicode="&#x201d;" horiz-adv-x="324" 
d="M94 722h13.001c10.667 0 16 -5.66699 16 -17v-63c-1.33301 -48.667 -8.33301 -92.667 -21 -132l-19 7c4 40 6 77.333 6 112c-8.66699 0 -12.334 4.66699 -11.001 14v62c0 11.333 5.33301 17 16 17zM218.001 722h13.001c10.667 0 16 -5.66699 16 -17v-63
c-1.33301 -48.667 -8.33301 -92.667 -21 -132l-19 7c4 40 6 77.333 6 112c-8.66699 0 -12.334 4.66699 -11.001 14v62c0 11.333 5.33301 17 16 17z" />
    <glyph glyph-name="quotedblbase" unicode="&#x201e;" horiz-adv-x="336" 
d="M100 93l12.999 0.000976562c10.667 0 16 -5.66699 16 -17v-63c-1.33301 -49.333 -8.66602 -93.333 -21.999 -132l-18 7c3.33301 33.333 5 70.666 5 111.999c-3.33301 -0 -6 1.33301 -8 4s-2.66699 6 -2 10v62c0 11.333 5.33301 17 16 17zM223.999 93.001
l12.999 0.000976562c10.667 0 16 -5.66699 16 -17v-63c-1.33301 -49.333 -8.66602 -93.333 -21.999 -132l-18 7c3.33301 33.333 5 70.666 5 111.999c-3.33301 0 -6 1.33301 -8 4s-2.66699 6 -2 10v62c0 11.333 5.33301 17 16 17z" />
    <glyph glyph-name="dagger" unicode="&#x2020;" horiz-adv-x="437" 
d="M237 -110h-36v566l-2 21v214h38v-801zM386 482v-39l-133 6v33h133zM52 443v39h133v-33z" />
    <glyph glyph-name="daggerdbl" unicode="&#x2021;" horiz-adv-x="474" 
d="M257 -110h-40v801h40v-801zM203 449l-133 -6v39h133v-33zM404 443l-133 6v33h133v-39zM203 132v-33h-133v39zM404 99h-133v33l133 6v-39z" />
    <glyph glyph-name="bullet" unicode="&#x2022;" horiz-adv-x="354" 
d="M173 342h10c26 0 44 -5 54 -15s15 -27.667 15 -53v-11c0 -26.667 -5 -45 -15 -55s-28 -15 -54 -15h-10c-26.667 0 -45.167 5 -55.5 15s-15.5 28.333 -15.5 55v11c0 25.333 5.16699 43 15.5 53s28.833 15 55.5 15z" />
    <glyph glyph-name="ellipsis" unicode="&#x2026;" horiz-adv-x="789" 
d="M98 94h15c11.333 0 17 -5.66699 17 -17v-60c0 -11.333 -5.66699 -17 -17 -17h-15c-11.333 0 -17 5.66699 -17 17v60c0 11.333 5.66699 17 17 17zM387 94h14c11.333 0 17 -5.66699 17 -17v-60c0 -11.333 -5.66699 -17 -17 -17h-14c-11.333 0 -17 5.66699 -17 17v60
c0 11.333 5.66699 17 17 17zM675 94h15c11.333 0 17 -5.66699 17 -17v-60c0 -11.333 -5.66699 -17 -17 -17h-15c-11.333 0 -17 5.66699 -17 17v60c0 11.333 5.66699 17 17 17z" />
    <glyph glyph-name="perthousand" unicode="&#x2030;" horiz-adv-x="1248" 
d="M210 702c56 0 95.5 -16 118.5 -48s34.5 -84 34.5 -156s-11.5 -124 -34.5 -156s-62.5 -48 -118.5 -48s-95.5 16 -118.5 48s-34.5 84 -34.5 156s11.5 124 34.5 156s62.5 48 118.5 48zM222 0h-33l471 690h34zM210 674c-44 0 -74.833 -13.5 -92.5 -40.5
s-26.5 -72.167 -26.5 -135.5s8.83301 -108.5 26.5 -135.5s48.5 -40.5 92.5 -40.5s74.833 13.5 92.5 40.5s26.5 72.167 26.5 135.5s-8.83301 108.5 -26.5 135.5s-48.5 40.5 -92.5 40.5zM676 401c55.333 0 94.5 -16 117.5 -48s34.5 -84 34.5 -156
c0 -72.667 -11.5 -125 -34.5 -157s-62.167 -48 -117.5 -48c-56 0 -95.5 16 -118.5 48s-34.5 84.333 -34.5 157c0 72 11.5 124 34.5 156s62.5 48 118.5 48zM1036 401c56 0 95.5 -16 118.5 -48s34.5 -84 34.5 -156c0 -72.667 -11.5 -125 -34.5 -157s-62.5 -48 -118.5 -48
s-95.333 16 -118 48s-34 84.333 -34 157c0 72 11.333 124 34 156s62 48 118 48zM675 373c-44 0 -74.667 -13.5 -92 -40.5s-26 -72.167 -26 -135.5s8.66699 -108.666 26 -135.999s48 -41 92 -41s74.833 13.667 92.5 41s26.5 72.666 26.5 135.999s-8.83301 108.5 -26.5 135.5
s-48.5 40.5 -92.5 40.5zM1036 373c-44 0 -74.667 -13.5 -92 -40.5s-26 -72.167 -26 -135.5s8.66699 -108.666 26 -135.999s48 -41 92 -41s74.833 13.667 92.5 41s26.5 72.666 26.5 135.999s-8.83301 108.5 -26.5 135.5s-48.5 40.5 -92.5 40.5z" />
    <glyph glyph-name="guilsinglleft" unicode="&#x2039;" horiz-adv-x="240" 
d="M208 440l-143 -189l144 -192l-21 -15l-163 201v12l162 198z" />
    <glyph glyph-name="guilsinglright" unicode="&#x203a;" horiz-adv-x="242" 
d="M216 257v-12l-164 -201l-20 15l143 192l-142 189l20 15z" />
    <glyph glyph-name="fraction" unicode="&#x2044;" horiz-adv-x="160" 
d="M-140 0h-33l471 690h34z" />
    <glyph glyph-name="Euro" unicode="&#x20ac;" horiz-adv-x="646" 
d="M579 38l6.99805 -31c-49.333 -12.667 -106 -19 -170 -19c-84 0 -146.167 23.333 -186.5 70s-64.166 118 -71.499 214h-94v29h93l-1 44c0 29.333 0.666992 50.666 2 63.999h-94v29h96c8.66699 89.333 33.167 155.666 73.5 198.999s101.166 65 182.499 65
c59.333 0 113 -6 161 -18l-7 -31c-43.333 8 -95 12 -155 12c-66 -0.666992 -115.833 -19.667 -149.5 -57s-54.5 -94 -62.5 -170h280l-7 -29h-275c-1.33301 -13.333 -2 -34.666 -2 -63.999v-44h235l-8 -29h-225c6.66699 -83.333 26.834 -145.166 60.501 -185.499
s84.834 -60.833 153.501 -61.5c64 0 118.667 4.33301 164 13z" />
    <glyph glyph-name="trademark" unicode="&#x2122;" horiz-adv-x="951" 
d="M388 696v-27h-141v-353h-32v353h-140v27h313zM868 316h-31l-17 354h-13l-120 -305c-2 -7.33301 -7 -11 -15 -11h-32c-8 0 -12.667 3.66699 -14 11l-120 305h-13l-17 -354h-31l17 365c1.33301 10 6.33301 15 15 15h39c7.33301 0 12 -3.66699 14 -11l101 -255
c2 -5.33301 5 -14 9 -26s7 -20.667 9 -26h14l20 53l99 254c2 7.33301 6.66699 11 14 11h40c10 0 15 -5 15 -15z" />
    <glyph glyph-name="partialdiff" unicode="&#x2202;" horiz-adv-x="568" 
d="M144 671l0.00292969 31.002c29.333 0 55.5 -0.666992 78.5 -2s46 -3.83301 69 -7.5s42.667 -8.5 59 -14.5s32.666 -13.833 48.999 -23.5s29.5 -21.334 39.5 -35.001s19.833 -29.5 29.5 -47.5s16 -38.667 19 -62s5.83301 -49.333 8.5 -78s2 -60.667 -2 -96
c-2.66699 -42.667 -6.5 -79.5 -11.5 -110.5s-12.667 -62.333 -23 -94s-23.333 -57.334 -39 -77.001s-36.334 -35.667 -62.001 -48s-55.834 -18.5 -90.501 -18.5c-72.667 0 -125.334 21.667 -158.001 65s-47.667 98.666 -45 165.999c3.33301 70 22.833 124.833 58.5 164.5
s84.5 59.5 146.5 59.5c80 0 141 -34 183 -102c4 68.667 1.83301 124.167 -6.5 166.5s-25.666 75.833 -51.999 100.5s-58.833 41.334 -97.5 50.001s-89.667 13 -153 13zM269.003 24.002c26.667 0 50.167 5.16699 70.5 15.5s36.833 23.833 49.5 40.5s23.5 38 32.5 64
s15.5 51.833 19.5 77.5s7.33301 55.5 10 89.5c-46 64.667 -105.333 97 -178 97c-50.667 0 -90.667 -16.833 -120 -50.5s-45.333 -79.5 -48 -137.5c-2 -56.667 10.333 -103.5 37 -140.5s69 -55.5 127 -55.5z" />
    <glyph glyph-name="emptyset" unicode="&#x2205;" horiz-adv-x="685" 
d="M343 633c80.667 0 149.5 -28.5 206.5 -85.5s85.5 -125.833 85.5 -206.5s-28.5 -149.667 -85.5 -207s-125.833 -86 -206.5 -86s-149.667 28.667 -207 86s-86 126.333 -86 207s28.667 149.5 86 206.5s126.333 85.5 207 85.5zM312 241l54 0.000976562
c0 23.333 4.83301 44.833 14.5 64.5s20.5 35.167 32.5 46.5s22.833 25.833 32.5 43.5s14.5 36.5 14.5 56.5c0 62 -39 93 -117 93c-34 0 -74.667 -3.66699 -122 -11l3 -45c40 6 79.667 9 119 9c44 0 66 -15.333 66 -46c0 -14 -5 -28.833 -15 -44.5
s-21.167 -29.834 -33.5 -42.501s-23.5 -30 -33.5 -52s-15 -46 -15 -72zM359 171.001h-39c-4.66699 0 -7 -2.66699 -7 -8v-37c0 -4.66699 2.33301 -7 7 -7h39c5.33301 0 8 2.33301 8 7v37c0 5.33301 -2.66699 8 -8 8z" />
    </font>
</defs>
</svg>
