<?xml version="1.0" standalone="no"?>
<!DOCTYPE svg PUBLIC "-//W3C//DTD SVG 1.1//EN" "http://www.w3.org/Graphics/SVG/1.1/DTD/svg11.dtd" >
<svg>
<metadata>
Created by FontForge 20090914 at Tue Jan 17 13:46:25 2017
 By www-data
Typeface and data copyright 1996 Microsoft Corporation. All Rights Reserved.
</metadata>
<defs>
<font id="Georgia-BoldItalic" horiz-adv-x="1440" >
  <font-face 
    font-family="Georgia"
    font-weight="700"
    font-style="italic"
    font-stretch="normal"
    units-per-em="2048"
    panose-1="2 4 8 2 5 4 5 9 2 3"
    ascent="1638"
    descent="-410"
    x-height="986"
    cap-height="1419"
    bbox="-496 -444.008 2592 1873"
    underline-thickness="120"
    underline-position="-121"
    slope="-13"
    unicode-range="U+0020-U+F002"
  />
<missing-glyph horiz-adv-x="2048" 
d="M256 0v1536h1536v-1536h-1536zM384 128h1280v1280h-1280v-1280z" />
    <glyph glyph-name=".notdef" horiz-adv-x="2048" 
d="M256 0v1536h1536v-1536h-1536zM384 128h1280v1280h-1280v-1280z" />
    <glyph glyph-name="space" unicode=" " horiz-adv-x="520" 
 />
    <glyph glyph-name="space" unicode="&#xa0;" horiz-adv-x="520" 
 />
    <glyph glyph-name="exclam" unicode="!" horiz-adv-x="771" 
d="M697 1106l-118.998 -261.002c-50.667 -113.333 -103.334 -241 -158.001 -383h-77c8 170 11.833 307.333 11.5 412s-0.5 180.334 -0.5 227.001c0 39.333 0.666992 70.333 2 93s4.66602 46 9.99902 70c14 60.667 43.667 106.334 89 137.001s94 46 146 46
c45.333 0 82.833 -13.667 112.5 -41s44.5 -61.333 44.5 -102c0 -21.333 -4.5 -47.5 -13.5 -78.5s-24.833 -70.833 -47.5 -119.5zM509.002 155.998c0 -50.667 -19.167 -94.167 -57.5 -130.5s-83.166 -54.5 -134.499 -54.5c-52 0 -97.167 18.167 -135.5 54.5
s-57.5 79.833 -57.5 130.5s19.167 94.5 57.5 131.5s83.5 55.5 135.5 55.5c51.333 0 96.166 -18.5 134.499 -55.5s57.5 -80.833 57.5 -131.5z" />
    <glyph glyph-name="quotedbl" unicode="&#x22;" horiz-adv-x="1044" 
d="M588 1219l-92 -176c-34.667 -66 -69.334 -139.333 -104.001 -220h-67c0 123.333 -1.66699 223 -5 299s-5 140 -5 192c0 59.333 18.5 110 55.5 152s84.833 63 143.5 63c44 0 78.833 -11.833 104.5 -35.5s38.5 -52.5 38.5 -86.5c0 -20 -5.66699 -44.667 -17 -74
s-28.666 -67.333 -51.999 -114zM1061 1219l-91.999 -176c-34.667 -66 -69.334 -139.333 -104.001 -220h-67c0 123.333 -1.66699 223 -5 299s-5 140 -5 192c0 59.333 18.5 110 55.5 152s84.833 63 143.5 63c44 0 78.833 -11.833 104.5 -35.5s38.5 -52.5 38.5 -86.5
c0 -20 -5.5 -44.667 -16.5 -74s-28.5 -67.333 -52.5 -114z" />
    <glyph glyph-name="numbersign" unicode="#" 
d="M1335 748h-269l-100 -257h273v-160h-335l-130 -331h-149l130 331h-230l-130 -331h-149l130 331h-207v160h269l101 257h-274v160h336l134 341h149l-134 -341h230l134 341h149l-134 -341h206v-160zM920 750h-233l-101 -261h232z" />
    <glyph glyph-name="dollar" unicode="$" horiz-adv-x="1312" 
d="M677 816l90 407c-96.667 -8 -170 -32.333 -220 -73s-75 -91 -75 -151c0 -52 17 -93.5 51 -124.5s85.333 -50.5 154 -58.5zM936 312c0 58 -19.667 103.833 -59 137.5s-95.333 54.167 -168 61.5l-98 -446c106 10 186.667 36.333 242 79s83 98.667 83 168zM512 65
l100 455.998c-122 15.333 -218.667 51.5 -290 108.5s-107 130.833 -107 221.5c0 50.667 10.333 100 31 148s55.667 95.333 105 142c44.667 42.667 104.5 79.334 179.5 110.001s159.833 49 254.5 55l49 218h99l-49 -218c128.667 -6 227.167 -33.167 295.5 -81.5
s102.5 -113.166 102.5 -194.499c0 -46 -13.833 -84.833 -41.5 -116.5s-65.167 -47.5 -112.5 -47.5c-50.667 0 -90.334 14.5 -119.001 43.5s-43 65.833 -43 110.5c0 32.667 5.33301 64 16 94s19 54.333 25 73c-18 9.33301 -38.333 17.166 -61 23.499
s-49.334 10.5 -80.001 12.5l-92 -417c134.667 -20.667 238 -60.167 310 -118.5s108 -134.833 108 -229.5c0 -74 -16.667 -139.667 -50 -197s-77 -105 -131 -143c-56.667 -40.667 -121.167 -72.167 -193.5 -94.5s-147.166 -36.166 -224.499 -41.499l-62 -281h-99l62 281
c-136 3.33301 -244 35.5 -324 96.5s-120 132.833 -120 215.5c0 48 13.667 88 41 120s67 48 119 48c52.667 0 94.167 -14.667 124.5 -44s45.5 -67.666 45.5 -114.999c0 -33.333 -5.5 -66.5 -16.5 -99.5s-20.167 -59.167 -27.5 -78.5
c32.667 -20.667 63.334 -35.834 92.001 -45.501s56.667 -14.5 84 -14.5z" />
    <glyph glyph-name="percent" unicode="%" horiz-adv-x="1801" 
d="M985 1145c0 -120 -44.668 -222.167 -134.001 -306.5s-197.333 -126.5 -324 -126.5c-99.333 0 -180.666 29 -243.999 87s-95 134 -95 228c0 121.333 45.167 223.833 135.5 307.5s197.833 125.5 322.5 125.5c100 0 181.5 -29 244.5 -87s94.5 -134 94.5 -228zM729.999 1219
c0 54.667 -7.33203 96.667 -21.999 126s-39.667 44 -75 44c-56 0 -101.667 -42.5 -137 -127.5s-53 -189.833 -53 -314.5c0 -52 7.66699 -92.333 23 -121s40.666 -43 75.999 -43c54 0 98.833 41.5 134.5 124.5s53.5 186.833 53.5 311.5zM1692 398
c0 -120 -44.668 -222.167 -134.001 -306.5s-197.333 -126.5 -324 -126.5c-99.333 0 -180.666 29 -243.999 87s-95 134 -95 228c0 121.333 45.167 223.833 135.5 307.5s197.833 125.5 322.5 125.5c100 0 181.5 -29 244.5 -87s94.5 -134 94.5 -228zM1437 472
c0 54.667 -7.33203 96.667 -21.999 126s-39.667 44 -75 44c-56 0 -101.667 -42.5 -137 -127.5s-53 -189.833 -53 -314.5c0 -52 7.66699 -92.333 23 -121s40.666 -43 75.999 -43c54 0 98.833 41.5 134.5 124.5s53.5 186.833 53.5 311.5zM1745 1428l-1453 -1428h-155
l1450 1428h158z" />
    <glyph glyph-name="ampersand" unicode="&#x26;" horiz-adv-x="1637" 
d="M1528 0l-586 0.000976562l-44 66.5c-15.333 23 -32 50.167 -50 81.5c-92.667 -71.333 -173.167 -119.666 -241.5 -144.999s-141.833 -38 -220.5 -38c-112 0 -202 28 -270 84s-102 130.333 -102 223c0 58.667 10.333 112 31 160s51.334 93 92.001 135
c38 39.333 87.167 75.833 147.5 109.5s125.166 64.167 194.499 91.5c-33.333 57.333 -57.666 108.166 -72.999 152.499s-23 86.5 -23 126.5c0 118 46.5 215.833 139.5 293.5s205.167 116.5 336.5 116.5c94.667 0 171.167 -20.333 229.5 -61s87.5 -97.334 87.5 -170.001
c0 -77.333 -28.333 -148.166 -85 -212.499s-145 -126.833 -265 -187.5c48.667 -87.333 91.667 -160.5 129 -219.5l113 -178.5c59.333 63.333 108.833 127.833 148.5 193.5s59.5 109.834 59.5 132.501c0 16.667 -14.167 30.667 -42.5 42s-66.5 22 -114.5 32l16 71h559
l-16 -71c-64 -6 -110.833 -14 -140.5 -24s-60.5 -28.333 -92.5 -55c-18 -14.667 -39.5 -37.5 -64.5 -68.5l-71.5 -89.5l-91.5 -113c-38.333 -46.667 -73.833 -86.334 -106.5 -119.001c48 -74 86.167 -127 114.5 -159s53.5 -55 75.5 -69
c25.333 -15.333 61.666 -27.833 108.999 -37.5s92.333 -15.834 135 -18.501zM1015 1218c0 44 -12.168 78.833 -36.501 104.5s-56.833 38.5 -97.5 38.5c-48.667 0 -91.667 -17 -129 -51s-56 -80.333 -56 -139c0 -38 7.83301 -77.833 23.5 -119.5s39.834 -94.5 72.501 -158.5
c73.333 42.667 128.833 93.5 166.5 152.5s56.5 116.5 56.5 172.5zM808.999 213.001l-156.001 254.499l-141 235.5c-55.333 -44 -96.333 -93.5 -123 -148.5s-40 -111.167 -40 -168.5c0 -72 22.333 -130.833 67 -176.5s104.334 -68.5 179.001 -68.5
c41.333 0 76.833 4.83301 106.5 14.5s65.5 28.834 107.5 57.501z" />
    <glyph glyph-name="quotesingle" unicode="'" horiz-adv-x="551" 
d="M578 1219l-91.999 -176c-34.667 -66 -69.334 -139.333 -104.001 -220h-67c0 123.333 -1.66699 223 -5 299s-5 140 -5 192c0 59.333 18.5 110 55.5 152s84.833 63 143.5 63c44 0 78.833 -11.833 104.5 -35.5s38.5 -52.5 38.5 -86.5c0 -20 -5.5 -44.667 -16.5 -74
s-28.5 -67.333 -52.5 -114z" />
    <glyph glyph-name="parenleft" unicode="(" horiz-adv-x="915" 
d="M667 -328c-74 10 -145.668 30.6641 -215.001 61.9971s-131 75 -185 131c-53.333 55.333 -95.833 122.833 -127.5 202.5s-47.5 172.5 -47.5 278.5c0 166.667 28.5 322.334 85.5 467.001s136.5 270.334 238.5 377.001c92.667 98 197.834 176 315.501 234
s229.5 94 335.5 108l-20 -90c-84 -14.667 -165.833 -58.667 -245.5 -132s-149.167 -168.666 -208.5 -285.999c-56 -111.333 -99.667 -236 -131 -374s-47 -276.333 -47 -415c0 -131.333 22 -238.833 66 -322.5s112.667 -134.5 206 -152.5z" />
    <glyph glyph-name="parenright" unicode=")" horiz-adv-x="915" 
d="M275 1532c74 -10 145.666 -30.665 214.999 -61.998s131 -75 185 -131c53.333 -55.333 95.833 -122.833 127.5 -202.5s47.5 -172.5 47.5 -278.5c0 -166.667 -28.5 -322.334 -85.5 -467.001s-136.5 -270.334 -238.5 -377.001
c-93.333 -97.333 -198.666 -175.166 -315.999 -233.499s-229 -94.5 -335 -108.5l20 90c84 14.667 165.833 58.667 245.5 132s149.167 168.666 208.5 285.999c56 110.667 99.667 235.167 131 373.5s47 276.833 47 415.5c0 131.333 -22 238.833 -66 322.5
s-112.667 134.5 -206 152.5z" />
    <glyph glyph-name="asterisk" unicode="*" horiz-adv-x="987" 
d="M1037 1083c0 -30 -8.50293 -51.8301 -25.5029 -65.4971s-38.5 -20.5 -64.5 -20.5c-16.667 0 -51.167 7.33301 -103.5 22s-107.833 25.667 -166.5 33c38.667 -50.667 81.334 -98.334 128.001 -143.001s70 -82.667 70 -114c0 -22 -9.66699 -41.167 -29 -57.5
s-39.666 -24.5 -60.999 -24.5c-14.667 0 -28.334 4.16699 -41.001 12.5s-23.667 20.166 -33 35.499c-8.66699 14.667 -19.667 48 -33 100s-31.333 105.333 -54 160c-22 -52 -40.167 -105.667 -54.5 -161s-25.166 -88.333 -32.499 -99
c-10.667 -16.667 -21.5 -28.834 -32.5 -36.501s-24.833 -11.5 -41.5 -11.5c-22 0 -42.5 7.83301 -61.5 23.5s-28.5 35.167 -28.5 58.5c0 31.333 23.333 69.333 70 114s89.334 92.334 128.001 143.001c-56 -6.66699 -111 -17.5 -165 -32.5s-89 -22.5 -105 -22.5
c-26 0 -47.5 6.83301 -64.5 20.5s-25.5 35.5 -25.5 65.5c0 27.333 8.5 48.5 25.5 63.5s38.5 22.5 64.5 22.5c20.667 0 53.834 -6.83301 99.501 -20.5s102.5 -24.5 170.5 -32.5c-44 56 -88 105.167 -132 147.5s-66 78.833 -66 109.5c0 22 9.66699 41.167 29 57.5
s39.666 24.5 60.999 24.5c15.333 0 29.166 -4 41.499 -12s23.166 -19.667 32.499 -35c8.66699 -14.667 19.834 -48.334 33.501 -101.001s31.5 -106 53.5 -160c22 54.667 40 108.5 54 161.5s25 86.167 33 99.5c8 14 18.5 25.333 31.5 34s27.167 13 42.5 13
c22 0 42.5 -7.83301 61.5 -23.5s28.5 -35.167 28.5 -58.5c0 -30.667 -20.833 -66.5 -62.5 -107.5s-86.5 -90.833 -134.5 -149.5c66.667 8.66699 123.834 19.667 171.501 33s80.167 20 97.5 20c26 0 47.5 -7.5 64.5 -22.5s25.5 -36.167 25.5 -63.5z" />
    <glyph glyph-name="plus" unicode="+" 
d="M1275 493h-473v-473h-165v473h-473v163h473v473h165v-473h473v-163z" />
    <glyph glyph-name="comma" unicode="," horiz-adv-x="672" 
d="M511 132c0 -103.333 -42.335 -203.169 -127.002 -299.502s-187.667 -170.166 -309 -221.499l-32 71c40.667 20 75.334 38.333 104.001 55s58.667 40.334 90 71.001c26.667 25.333 50.167 53.5 70.5 84.5s35.833 66.833 46.5 107.5h-59c-62 -0 -107.667 12.333 -137 37
s-44 58.667 -44 102c0 52 20.833 98.5 62.5 139.5s89.834 61.5 144.501 61.5c65.333 0 113.333 -19.333 144 -58s46 -88.667 46 -150z" />
    <glyph glyph-name="hyphen" unicode="-" horiz-adv-x="776" 
d="M671 435h-606l50 219h606z" />
    <glyph glyph-name="hyphen" unicode="&#xad;" horiz-adv-x="776" 
d="M671 435h-606l50 219h606z" />
    <glyph glyph-name="period" unicode="." horiz-adv-x="672" 
d="M504 166c0 -52.667 -19.5 -98.332 -58.5 -136.999s-85.167 -58 -138.5 -58c-54 0 -100.5 19.167 -139.5 57.5s-58.5 84.166 -58.5 137.499s19.5 99.5 58.5 138.5s85.5 58.5 139.5 58.5c53.333 0 99.5 -19.667 138.5 -59s58.5 -85.333 58.5 -138z" />
    <glyph glyph-name="slash" unicode="/" horiz-adv-x="966" 
d="M1068 1523l-1034 -1947h-183l1032 1947h185z" />
    <glyph glyph-name="zero" unicode="0" horiz-adv-x="1436" 
d="M1256 1157c42 -46.667 73.167 -101.5 93.5 -164.5s30.5 -131.167 30.5 -204.5c0 -120 -20.333 -231.667 -61 -335s-95.334 -190 -164.001 -260c-70.667 -73.333 -151.167 -129.666 -241.5 -168.999s-188.166 -59 -293.499 -59c-86 0 -161.667 12.833 -227 38.5
s-119.333 61.5 -162 107.5c-43.333 46 -75.833 100.667 -97.5 164s-32.5 132.666 -32.5 207.999c0 111.333 17 215.166 51 311.499s84.667 184.166 152 263.499c64.667 76.667 144.667 137.834 240 183.501s201 68.5 317 68.5c90 0 167.833 -13.667 233.5 -41
s119.5 -64.666 161.5 -111.999zM916 328c33.333 84.667 58.8311 178.166 76.498 280.499s26.5 206.5 26.5 312.5c0 44.667 -3.16699 85.834 -9.5 123.501s-16.833 70.167 -31.5 97.5c-14 26.667 -32 47.334 -54 62.001s-48.667 22 -80 22
c-53.333 0 -103.666 -23.333 -150.999 -70s-91.333 -121 -132 -223c-31.333 -82 -55.666 -174.333 -72.999 -277s-26 -202 -26 -298c0 -49.333 3 -91.833 9 -127.5s16.333 -67.834 31 -96.501c13.333 -26.667 31.333 -47.667 54 -63s50 -23 82 -23c56 0 108 25.5 156 76.5
s88.667 118.833 122 203.5z" />
    <glyph glyph-name="one" unicode="1" horiz-adv-x="1003" 
d="M822 0l-825.003 0.00292969l16 72c20.667 1.33301 53.334 4.66602 98.001 9.99902s75.667 10.666 93 15.999c19.333 6 37.166 17.333 53.499 34s27.5 38.667 33.5 66l195 843h-253l21 91h28c58.667 0 112 6.33301 160 19s89.667 28 125 46c36 18 67.333 37.5 94 58.5
s46.334 38.5 59.001 52.5h176l-41.5 -153c-13.667 -52 -26.5 -103.667 -38.5 -155l-179 -773c-2 -8 -3.83301 -17.333 -5.5 -28s-2.5 -19.334 -2.5 -26.001c0 -16 3.5 -29.333 10.5 -40s16.833 -19.667 29.5 -27c14.667 -8 41.334 -15.333 80.001 -22
s68.334 -10.667 89.001 -12z" />
    <glyph glyph-name="two" unicode="2" horiz-adv-x="1283" 
d="M354 1215c44 28.667 98.502 51.666 163.502 68.999s136.5 26 214.5 26c152.667 0 273.834 -27.833 363.501 -83.5s134.5 -135.167 134.5 -238.5c0 -78 -15.667 -147 -47 -207s-73.666 -111.667 -126.999 -155c-51.333 -42 -107.833 -78 -169.5 -108
s-121.834 -55.667 -180.501 -77l-203.5 -73c-79 -28 -150.833 -55.333 -215.5 -82l-4 -16h847l-62 -270h-1084l45 200c35.333 27.333 76.833 55.333 124.5 84l125.5 75l138.5 79.5c54.333 31 98.5 57.833 132.5 80.5c38.667 25.333 76.667 54.333 114 87
s70.666 70.667 99.999 114c29.333 44.667 51.666 89.834 66.999 135.501s23 100.5 23 164.5c0 61.333 -16.333 109.333 -49 144s-76.667 52 -132 52c-38.667 0 -70.167 -3.66699 -94.5 -11s-46.5 -15 -66.5 -23l29 -85c10 -30.667 15 -63.334 15 -98.001
c0 -47.333 -16.333 -86.5 -49 -117.5s-75.334 -46.5 -128.001 -46.5c-50 0 -89.833 16.333 -119.5 49s-44.5 72.334 -44.5 119.001c0 36.667 11.833 73.667 35.5 111s58.167 71 103.5 101z" />
    <glyph glyph-name="three" unicode="3" horiz-adv-x="1279" 
d="M768 1310c94.667 0 171.834 -9.82812 231.501 -29.4951s106.167 -43.834 139.5 -72.501s56.5 -60.334 69.5 -95.001s19.5 -67.334 19.5 -98.001c0 -34 -7.83301 -70.667 -23.5 -110s-40.5 -76.333 -74.5 -111s-78.833 -66.667 -134.5 -96s-124.167 -52 -205.5 -68l-4 -16
c43.333 -1.33301 85.5 -7.83301 126.5 -19.5s76.5 -27.5 106.5 -47.5c32.667 -22 59.334 -51 80.001 -87s31 -79.667 31 -131c0 -73.333 -19.167 -141 -57.5 -203s-90.833 -114.667 -157.5 -158c-70.667 -46 -146.167 -80.167 -226.5 -102.5s-172.5 -33.5 -276.5 -33.5
c-135.333 0 -244.5 28.667 -327.5 86s-124.5 128.333 -124.5 213c0 47.333 15.167 87.333 45.5 120s70.833 49 121.5 49c52.667 0 95.167 -15 127.5 -45s48.5 -68.667 48.5 -116c0 -34 -5.5 -67.833 -16.5 -101.5s-20.5 -60.5 -28.5 -80.5
c15.333 -8.66699 33.666 -16.334 54.999 -23.001s46.666 -10 75.999 -10c44.667 0 88.667 9.33301 132 28s81 45.667 113 81c36 39.333 64 84.5 84 135.5s30 117.167 30 198.5c0 52 -13.833 95.333 -41.5 130s-80.5 52 -158.5 52h-127l28 117h90
c96.667 0 174 33.167 232 99.5s87 158.166 87 275.499c0 53.333 -14 95.833 -42 127.5s-72.333 47.5 -133 47.5c-29.333 0 -60.333 -4.33301 -93 -13s-59.667 -18.667 -81 -30l26 -84.5c10 -33.667 15 -64.834 15 -93.501c0 -47.333 -15.667 -85.833 -47 -115.5
s-73.333 -44.5 -126 -44.5c-50 0 -89.833 16.333 -119.5 49s-44.5 72.334 -44.5 119.001c0 77.333 53.5 147.833 160.5 211.5s238.5 95.5 394.5 95.5z" />
    <glyph glyph-name="four" unicode="4" horiz-adv-x="1330" 
d="M1197 211h-222l-88 -379h-329l88 379h-668l44 194l918 899h287l-205 -886h222zM693 418l150 643l-656 -643h506z" />
    <glyph glyph-name="five" unicode="5" horiz-adv-x="1227" 
d="M431 -168c-132 0 -243.168 28.9971 -333.501 86.9971s-135.5 127 -135.5 207c0 47.333 15.167 87.333 45.5 120s70.833 49 121.5 49c52.667 0 95.167 -14.833 127.5 -44.5s48.5 -68.167 48.5 -115.5c0 -33.333 -5.66699 -68.666 -17 -105.999
s-20.666 -66.333 -27.999 -87c11.333 -3.33301 30.333 -7.16602 57 -11.499s53 -6.5 79 -6.5c34 0 71 10.833 111 32.5s76.333 52.834 109 93.501c35.333 44 63.666 93.333 84.999 148s32 122.334 32 203.001c0 75.333 -19 135.166 -57 179.499s-91.667 66.5 -161 66.5
c-34 0 -64.167 -4.33301 -90.5 -13s-51.833 -20 -76.5 -34c-25.333 -14.667 -47 -29 -65 -43s-37 -31.333 -57 -52l-74 27l256 746h845l-63 -275h-764l-109 -337c62 36.667 118.667 62.834 170 78.501s107.333 23.5 168 23.5c54 0 106 -5.5 156 -16.5
s98.333 -31.833 145 -62.5c46 -29.333 82.5 -67.5 109.5 -114.5s40.5 -103.5 40.5 -169.5c0 -160.667 -66.167 -296.334 -198.5 -407.001s-291.166 -166 -476.499 -166z" />
    <glyph glyph-name="six" unicode="6" horiz-adv-x="1327" 
d="M585 -35c-149.333 0 -268.501 42.334 -357.501 127.001s-133.5 197 -133.5 337c0 267.333 100 496.333 300 687s464 304.667 792 342l5 -99l-109 -18c-84 -22 -157.167 -52.667 -219.5 -92s-115.166 -82.666 -158.499 -129.999
c-42.667 -47.333 -78.5 -99.5 -107.5 -156.5s-54.833 -117.167 -77.5 -180.5c44.667 37.333 98 68.666 160 93.999s136 38 222 38c100 0 183.833 -33.333 251.5 -100s101.5 -153.334 101.5 -260.001c0 -159.333 -64.5 -297.333 -193.5 -414s-287.5 -175 -475.5 -175z
M881.999 550.001c0 70 -16 125.333 -48 166s-72.667 61 -122 61c-39.333 0 -76.5 -7.5 -111.5 -22.5s-72.167 -44.833 -111.5 -89.5c-4.66699 -20.667 -13 -60.5 -25 -119.5s-18 -131.5 -18 -217.5c0 -88 14.5 -156.667 43.5 -206s67.5 -74 115.5 -74
c74.667 0 139.5 48.833 194.5 146.5s82.5 216.167 82.5 355.5z" />
    <glyph glyph-name="seven" unicode="7" horiz-adv-x="1160" 
d="M1279 1149l-1022 -1317h-170l947 1177h-454c-54 0 -98.833 -0.5 -134.5 -1.5s-67.5 -7.5 -95.5 -19.5c-21.333 -8.66699 -43.333 -29.667 -66 -63s-46.334 -80 -71.001 -140h-73l114 493h1055z" />
    <glyph glyph-name="eight" unicode="8" horiz-adv-x="1385" 
d="M1343 1156c0 -88 -32.667 -162.668 -98 -224.001s-156 -108.666 -272 -141.999c104 -40 180.833 -88.833 230.5 -146.5s74.5 -121.5 74.5 -191.5c0 -138 -65.667 -254 -197 -348s-299.666 -141 -504.999 -141c-154.667 0 -278 30.5 -370 91.5s-138 141.167 -138 240.5
c0 96 33.667 177.833 101 245.5s170 117.167 308 148.5c-81.333 39.333 -139.833 88 -175.5 146s-53.5 118.667 -53.5 182c0 62.667 16.5 121.167 49.5 175.5s79.167 101.833 138.5 142.5c55.333 38 123.166 68.333 203.499 91s161.833 34 244.5 34
c140 0 251.5 -28.833 334.5 -86.5s124.5 -130.167 124.5 -217.5zM1012 1174c0 58.667 -14.001 106.999 -42.001 144.999s-68.667 57 -122 57c-69.333 0 -128.5 -26.167 -177.5 -78.5s-73.5 -114.5 -73.5 -186.5c0 -35.333 8 -65.666 24 -90.999s37.667 -48 65 -68
c22.667 -16.667 56.167 -36.834 100.5 -60.501l120.5 -65.5c28.667 44.667 53.334 99.334 74.001 164.001s31 126 31 184zM924.999 337.998c0 38.667 -10.001 71.502 -30.001 98.502s-47 51.5 -81 73.5c-36 23.333 -78.667 46.666 -128 69.999s-97.333 47.666 -144 72.999
c-32 -32 -63 -81.5 -93 -148.5s-45 -137.833 -45 -212.5c0 -75.333 19.667 -134.833 59 -178.5s92.333 -65.5 159 -65.5c90.667 0 163.834 28.5 219.501 85.5s83.5 125.167 83.5 204.5z" />
    <glyph glyph-name="nine" unicode="9" horiz-adv-x="1327" 
d="M1284 842c0 -267.333 -98.999 -492.671 -296.999 -676.004s-464 -296.666 -798 -339.999l-6 99l110 18c85.333 22.667 159.166 52.667 221.499 90s115.5 80 159.5 128c43.333 46.667 80.833 99.334 112.5 158.001s57.167 116.667 76.5 174
c-65.333 -49.333 -128 -83.666 -188 -102.999s-125.333 -29 -196 -29c-100.667 0 -185 35.5 -253 106.5s-102 160.167 -102 267.5c0 156.667 64.5 291.667 193.5 405s286.833 170 473.5 170c150 0 269.667 -42.667 359 -128s134 -198.666 134 -339.999zM933.001 946.995
c0 87.333 -14.498 155.669 -43.498 205.002s-66.167 74 -111.5 74c-75.333 0 -141 -47.333 -197 -142s-84 -211.334 -84 -350.001c0 -72 15.167 -129.667 45.5 -173s70.166 -65 119.499 -65c38 0 76.667 8.16699 116 24.5s76.666 45.166 111.999 86.499l25 116.5
c12 56.333 18 130.833 18 223.5z" />
    <glyph glyph-name="colon" unicode=":" horiz-adv-x="752" 
d="M674 799c0 -52.667 -19.5 -98.332 -58.5 -136.999s-85.167 -58 -138.5 -58c-54 0 -100.5 19.167 -139.5 57.5s-58.5 84.166 -58.5 137.499s19.5 99.5 58.5 138.5s85.5 58.5 139.5 58.5c53.333 0 99.5 -19.667 138.5 -59s58.5 -85.333 58.5 -138zM534 166.002
c0 -52.667 -19.5 -98.332 -58.5 -136.999s-85.167 -58 -138.5 -58c-54 0 -100.5 19.167 -139.5 57.5s-58.5 84.166 -58.5 137.499s19.5 99.5 58.5 138.5s85.5 58.5 139.5 58.5c53.333 0 99.5 -19.667 138.5 -59s58.5 -85.333 58.5 -138z" />
    <glyph glyph-name="semicolon" unicode=";" horiz-adv-x="752" 
d="M541 132c0 -103.333 -42.335 -203.169 -127.002 -299.502s-187.667 -170.166 -309 -221.499l-32 71c40.667 20 75.334 38.333 104.001 55s58.667 40.334 90 71.001c26.667 25.333 50.167 53.5 70.5 84.5s35.833 66.833 46.5 107.5h-59c-62 -0 -107.667 12.333 -137 37
s-44 58.667 -44 102c0 52 20.833 98.5 62.5 139.5s89.834 61.5 144.501 61.5c65.333 0 113.333 -19.333 144 -58s46 -88.667 46 -150zM673.998 798.997c0 -52.667 -19.5 -98.332 -58.5 -136.999s-85.167 -58 -138.5 -58c-54 0 -100.5 19.167 -139.5 57.5
s-58.5 84.166 -58.5 137.499s19.5 99.5 58.5 138.5s85.5 58.5 139.5 58.5c53.333 0 99.5 -19.667 138.5 -59s58.5 -85.333 58.5 -138z" />
    <glyph glyph-name="less" unicode="&#x3c;" 
d="M1231 6l-1000 500v139l1000 500v-188l-786 -382l786 -381v-188z" />
    <glyph glyph-name="equal" unicode="=" 
d="M1277 700h-1070v163h1070v-163zM1277 286h-1070v163h1070v-163z" />
    <glyph glyph-name="greater" unicode="&#x3e;" 
d="M1253 506l-1000 -500v188l786 381l-786 382v188l1000 -500v-139z" />
    <glyph glyph-name="question" unicode="?" horiz-adv-x="1123" 
d="M597 156c0 -50.667 -19.167 -94.167 -57.5 -130.5s-83.166 -54.5 -134.499 -54.5c-52 0 -97.167 18.167 -135.5 54.5s-57.5 79.833 -57.5 130.5s19.167 94.5 57.5 131.5s83.5 55.5 135.5 55.5c51.333 0 96.166 -18.5 134.499 -55.5s57.5 -80.833 57.5 -131.5zM720 1452
c123.333 0 226.166 -32.502 308.499 -97.502s123.5 -151.833 123.5 -260.5c0 -149.333 -57.333 -271 -172 -365s-266.667 -147.667 -456 -161l-29 -136h-86l77 389c116.667 8.66699 210.667 41.5 282 98.5s107 138.5 107 244.5c0 64.667 -17.167 114.667 -51.5 150
s-82.166 53 -143.499 53c-25.333 0 -49.666 -3.66699 -72.999 -11s-46.333 -18 -69 -32c6.66699 -21.333 13.5 -46.666 20.5 -75.999s10.5 -56.666 10.5 -81.999c0 -47.333 -15.5 -84.833 -46.5 -112.5s-72.833 -41.5 -125.5 -41.5c-48 0 -86.667 14.333 -116 43
s-44 65 -44 109c0 80 47.167 148 141.5 204s208.166 84 341.499 84z" />
    <glyph glyph-name="at" unicode="@" horiz-adv-x="1980" 
d="M1678 1173c57.333 -61.333 100.331 -131.503 128.998 -210.503s43 -160.833 43 -245.5c0 -168 -47.5 -310.333 -142.5 -427s-213.167 -175 -354.5 -175c-73.333 0 -133.666 12.5 -180.999 37.5s-77.666 56.833 -90.999 95.5h-5l-48.5 -50.5
c-17 -17 -35.167 -31.167 -54.5 -42.5c-21.333 -12 -41.333 -20.833 -60 -26.5s-43.667 -8.5 -75 -8.5c-82 0 -145.833 25.833 -191.5 77.5s-68.5 119.834 -68.5 204.501c0 64 13.5 129.833 40.5 197.5s63.833 129.5 110.5 185.5c44.667 54 99.167 98.5 163.5 133.5
s130.833 52.5 199.5 52.5c46 0 80.833 -8.16699 104.5 -24.5s41.167 -41.166 52.5 -74.499h2l32 87h257l-201 -555c-4.66699 -13.333 -9.33398 -32 -14.001 -56s-7 -42.333 -7 -55c0 -27.333 6 -48.833 18 -64.5s31 -23.5 57 -23.5c104.667 0 188.667 48.167 252 144.5
s95 222.5 95 378.5c0 78 -13 150 -39 216s-64.667 123.667 -116 173s-115.666 88.166 -192.999 116.499s-165.666 42.5 -264.999 42.5c-95.333 0 -187.5 -17.833 -276.5 -53.5s-169.833 -88.167 -242.5 -157.5c-71.333 -68 -128.833 -150.667 -172.5 -248
s-65.5 -206.333 -65.5 -327c0 -118 17.333 -221.833 52 -311.5s82.334 -164.5 143.001 -224.5c61.333 -60.667 133.333 -106.334 216 -137.001s174 -46 274 -46c114 0 215 14.833 303 44.5s166.667 71.5 236 125.5l39 -62c-76 -60.667 -161.5 -109.5 -256.5 -146.5
s-204.5 -55.5 -328.5 -55.5c-104.667 0 -209.834 17 -315.501 51s-199.167 83.667 -280.5 149c-82 66 -148.167 149.333 -198.5 250s-75.5 217.334 -75.5 350.001c0 116.667 22.667 228.834 68 336.501s109.666 203.5 192.999 287.5
c82 82.667 183.167 149.334 303.5 200.001s251.5 76 393.5 76c125.333 0 232.5 -18.5 321.5 -55.5s162.5 -86.5 220.5 -148.5zM1209 759.997c-0.666992 36.667 -9.83203 66.667 -27.499 90s-43.834 35 -78.501 35c-33.333 0 -65.5 -15 -96.5 -45s-58.833 -69.333 -83.5 -118
c-24.667 -48 -44 -102.833 -58 -164.5s-21 -122.167 -21 -181.5c0 -45.333 6.5 -80 19.5 -104s33.833 -36 62.5 -36c25.333 0 48 6.5 68 19.5s40.667 34.167 62 63.5z" />
    <glyph glyph-name="A" unicode="A" horiz-adv-x="1553" 
d="M892 571l-87 517l-324 -517h411zM732 0l17 73.001c68.667 5.33301 122.167 13.833 160.5 25.5s57.5 24.5 57.5 38.5c0 12 -0.666992 22.333 -2 31s-3 18.667 -5 30l-50 279h-489l-60.5 -97.5l-61.5 -103.5c-25.333 -45.333 -40.166 -76.333 -44.499 -93
s-6.5 -27.334 -6.5 -32.001c0 -20 15.667 -36.5 47 -49.5s79.333 -22.5 144 -28.5l-17 -73h-596l17 73c19.333 1.33301 43.666 4.66602 72.999 9.99902s54 13.333 74 24c28 14.667 54.333 33.667 79 57s47.667 51.666 69 84.999l373 576.5l394 613.5h198l127.5 -741
c33.667 -195.333 63.167 -358.666 88.5 -489.999c3.33301 -20 9.83301 -38.167 19.5 -54.5s25.167 -31.833 46.5 -46.5c16 -10.667 35.5 -18.667 58.5 -24s44.5 -8.66602 64.5 -9.99902l-17 -73h-759z" />
    <glyph glyph-name="B" unicode="B" horiz-adv-x="1555" 
d="M1131 1142c0 66 -20.833 114.333 -62.5 145s-96.5 46 -164.5 46c-13.333 0 -29 -0.5 -47 -1.5s-32 -1.83301 -42 -2.5l-124 -534h67c114.667 0 205.5 31.833 272.5 95.5s100.5 147.5 100.5 251.5zM1053 469c0 76.667 -24.668 135.5 -74.001 176.5
s-122.333 61.5 -219 61.5c-13.333 0 -29.833 -0.5 -49.5 -1.5s-33.167 -1.83301 -40.5 -2.5l-122 -528c0.666992 -24.667 19 -45.667 55 -63s76 -26 120 -26c88.667 0 165.834 35.667 231.501 107s98.5 163.333 98.5 276zM1026 1419
c171.333 0 297.168 -21.165 377.501 -63.498s120.5 -107.166 120.5 -194.499c0 -58 -12.833 -109 -38.5 -153s-59.5 -81 -101.5 -111c-42 -30.667 -90.5 -56.334 -145.5 -77.001s-111.833 -37 -170.5 -49l-4 -19c46 -4.66699 92.833 -14.5 140.5 -29.5
s88.5 -34.167 122.5 -57.5c36.667 -24.667 65.667 -54.667 87 -90s32 -78.333 32 -129c0 -146 -61.167 -256.833 -183.5 -332.5s-302.833 -113.5 -541.5 -113.5h-776l17 73c16.667 0.666992 41.5 3.16699 74.5 7.5s57.5 9.16602 73.5 14.499
c26 8.66699 45.833 21.667 59.5 39s23.167 37.666 28.5 60.999l229 992c3.33301 14 5.66602 25.667 6.99902 35s2 16.333 2 21c0 28 -14.167 49.833 -42.5 65.5s-74.5 28.167 -138.5 37.5l17 73h754z" />
    <glyph glyph-name="C" unicode="C" horiz-adv-x="1465" 
d="M721 -38c-91.333 0 -175.999 13.5029 -253.999 40.5029s-145.333 65.833 -202 116.5c-56 50.667 -99.667 112.5 -131 185.5s-47 155.5 -47 247.5c0 122 22.5 237 67.5 345s108.5 204.333 190.5 289c78.667 81.333 174.834 146.833 288.501 196.5s234.5 74.5 362.5 74.5
c77.333 0 155.666 -9.33301 234.999 -28s138.666 -40.334 177.999 -65.001l75 55h87l-111 -518h-88c-13.333 151.333 -53.5 266.5 -120.5 345.5s-153.167 118.5 -258.5 118.5c-77.333 0 -148.666 -23 -213.999 -69s-123.333 -116.667 -174 -212
c-41.333 -78.667 -72.833 -169.834 -94.5 -273.501s-32.5 -200.834 -32.5 -291.501c0 -133.333 32.333 -237 97 -311s151.334 -111 260.001 -111c95.333 0 183.666 26.667 264.999 80s159.666 130.333 234.999 231l77 -52c-32.667 -50.667 -71.667 -100.5 -117 -149.5
s-97 -91.5 -155 -127.5c-60.667 -38 -123.167 -67 -187.5 -87s-141.5 -30 -231.5 -30z" />
    <glyph glyph-name="D" unicode="D" horiz-adv-x="1708" 
d="M1448 1304c74 -46 132.001 -106.17 174.001 -180.503s63 -162.166 63 -263.499c0 -126.667 -25 -243.667 -75 -351s-120.667 -198.666 -212 -273.999c-90.667 -76 -196 -134.167 -316 -174.5s-252.333 -60.5 -397 -60.5h-740l17 73
c16.667 0.666992 41.5 2.83398 74.5 6.50098s57.5 8.16699 73.5 13.5c26 8.66699 45.833 22 59.5 40s23.167 38.667 28.5 62l229 992c3.33301 14 5.66602 25.667 6.99902 35s2 16.333 2 21c0 28 -14.167 49.833 -42.5 65.5s-74.5 28.167 -138.5 37.5l17 73h727
c74.667 0 151.5 -8.83301 230.5 -26.5s151.833 -47.167 218.5 -88.5zM1152 348.997c47.333 80.667 82.333 168.501 105 263.501s34 194.167 34 297.5c0 129.333 -29.333 232.166 -88 308.499s-147 114.5 -265 114.5c-23.333 0 -46.5 -0.5 -69.5 -1.5
s-41.167 -1.83301 -54.5 -2.5l-245 -1065c-2.66699 -10 -5 -22.167 -7 -36.5s-3 -24.5 -3 -30.5c0 -42 15.5 -71 46.5 -87s74.5 -24 130.5 -24c90.667 0 171.167 24 241.5 72s128.5 111.667 174.5 191z" />
    <glyph glyph-name="E" unicode="E" horiz-adv-x="1477" 
d="M1520 1419l-82.999 -362.001h-76c-9.33301 63.333 -31.833 121.5 -67.5 174.5s-73.167 83.833 -112.5 92.5c-18.667 4.66699 -45.667 7.5 -81 8.5s-64.666 1.5 -87.999 1.5h-196l-128 -555h136c50 0 89.167 5.5 117.5 16.5s54.833 26.5 79.5 46.5
c18.667 15.333 40.5 42.833 65.5 82.5s42.833 73.5 53.5 101.5h76l-137 -592h-76v37c0 30 -3.16699 60.833 -9.5 92.5s-13.833 53.834 -22.5 66.501c-17.333 25.333 -40.333 42.166 -69 50.499s-61.334 12.5 -98.001 12.5h-136l-91 -395c-4.66699 -20 -9 -41.667 -13 -65
s-6 -40 -6 -50c0 -42.667 14 -69.5 42 -80.5s79.667 -16.5 155 -16.5c96 0 166 4.16699 210 12.5s77 21.166 99 38.499c40 33.333 88 84.333 144 153s94 119.334 114 152.001h73l-129 -442h-1321l17 73c16.667 0.666992 41.5 2.83398 74.5 6.50098s57.5 8.16699 73.5 13.5
c26 8.66699 45.833 22 59.5 40s23.167 38.667 28.5 62l229 992c3.33301 14 5.66602 25.667 6.99902 35s2 16.333 2 21c0 28 -14.167 49.833 -42.5 65.5s-74.5 28.167 -138.5 37.5l17 73h1248z" />
    <glyph glyph-name="F" unicode="F" horiz-adv-x="1375" 
d="M1548 1419l-87.999 -379.002h-77c-7.33301 62.667 -28.833 124.334 -64.5 185.001s-73.167 93.667 -112.5 99c-20 2.66699 -46.167 5 -78.5 7s-62.5 3 -90.5 3h-221l-131 -565h141c36.667 0 71.167 4.66699 103.5 14s63.5 26.333 93.5 51
c20.667 16.667 43.334 44.334 68.001 83.001s42 72.334 52 101.001h76l-138 -597h-75v31c0 34.667 -3.5 67.834 -10.5 99.501s-14.5 53.167 -22.5 64.5c-16 23.333 -37.167 40.333 -63.5 51s-60.5 16 -102.5 16h-141l-106 -457c-2.66699 -11.333 -4.83398 -22 -6.50098 -32
s-2.5 -17.667 -2.5 -23c0 -30 12.333 -52 37 -66s71.667 -24.667 141 -32l-17 -73h-767l17 73c16.667 0.666992 41.5 3.16699 74.5 7.5s57.5 9.16602 73.5 14.499c26 8.66699 45.833 21.667 59.5 39s23.167 37.666 28.5 60.999l229 992
c3.33301 14 5.66602 25.667 6.99902 35s2 16.333 2 21c0 28 -14.167 49.833 -42.5 65.5s-74.5 28.167 -138.5 37.5l17 73h1276z" />
    <glyph glyph-name="G" unicode="G" horiz-adv-x="1653" 
d="M725 -39c-90.667 0 -174.67 12.833 -252.003 38.5s-144.666 63.5 -201.999 113.5c-58 50 -103.167 111 -135.5 183s-48.5 153 -48.5 243c0 133.333 23.5 255.833 70.5 367.5s112.5 208.834 196.5 291.501c82.667 81.333 181.5 144.833 296.5 190.5
s239.167 68.5 372.5 68.5c80.667 0 160.834 -9.83301 240.501 -29.5s139.5 -40.834 179.5 -63.501l74 55h87l-110 -518h-88c-14.667 154 -55.834 269.833 -123.501 347.5s-155.167 116.5 -262.5 116.5c-85.333 0 -161.333 -25.333 -228 -76s-123 -116.334 -169 -197.001
c-45.333 -78.667 -80.5 -172.5 -105.5 -281.5s-37.5 -216.5 -37.5 -322.5c0 -132 25.833 -236.833 77.5 -314.5s127.834 -116.5 228.501 -116.5c54.667 0 102 9 142 27s75.333 40 106 66l63 271c2.66699 12 4.83398 23.167 6.50098 33.5s2.5 18.5 2.5 24.5
c0 28 -17.333 49.833 -52 65.5s-84 28.167 -148 37.5l17 73h768l-17 -73c-20.667 -1.33301 -44.667 -4.66602 -72 -9.99902s-49.333 -10.333 -66 -15c-28 -8.66699 -48.333 -22.167 -61 -40.5s-21.667 -38.5 -27 -60.5l-40 -173
c-6.66699 -29.333 -12.167 -55.833 -16.5 -79.5l-13.5 -76.5c-76.667 -44 -178.167 -82.667 -304.5 -116s-242.5 -50 -348.5 -50z" />
    <glyph glyph-name="H" unicode="H" horiz-adv-x="1870" 
d="M1994 1419l-16.9951 -73.002c-20.667 -1.33301 -46.667 -4.66602 -78 -9.99902s-55 -10.333 -71 -15c-27.333 -8.66699 -47.5 -22.167 -60.5 -40.5s-22.167 -38.833 -27.5 -61.5l-229 -993c-2.66699 -11.333 -4.83398 -22 -6.50098 -32s-2.5 -17.667 -2.5 -23
c0 -30 12.833 -52.167 38.5 -66.5s73.5 -24.833 143.5 -31.5l-17 -73h-767l17 73c17.333 1.33301 42 3.33301 74 6s55 6.66699 69 12c26 9.33301 46 22.666 60 39.999s23.667 38 29 62l113 497h-596l-106 -464c-2.66699 -11.333 -4.83398 -22 -6.50098 -32
s-2.5 -17.667 -2.5 -23c0 -30 12.333 -52 37 -66s71.667 -24.667 141 -32l-17 -73h-767l17 73c16.667 0.666992 41.5 2.83398 74.5 6.50098s57.5 8.16699 73.5 13.5c26 8.66699 45.833 22 59.5 40s23.167 38.667 28.5 62l229 992c3.33301 14 5.66602 25.667 6.99902 35
s2 16.333 2 21c0 28 -14.167 49.833 -42.5 65.5s-74.5 28.167 -138.5 37.5l17 73h767l-17 -73c-20.667 -1.33301 -45.834 -4.66602 -75.501 -9.99902s-52.834 -10.333 -69.501 -15c-28 -8.66699 -48.333 -22.5 -61 -41.5s-21.667 -39.167 -27 -60.5l-99 -431h596l92 399
c3.33301 14 5.66602 25.667 6.99902 35s2 16.333 2 21c0 28 -13.667 49.5 -41 64.5s-72.666 27.833 -135.999 38.5l17 73h767z" />
    <glyph glyph-name="I" unicode="I" horiz-adv-x="923" 
d="M-61 0l17.002 72.998c19.333 0.666992 45.666 2.83398 78.999 6.50098s59 8.5 77 14.5c26 8.66699 45.833 21.834 59.5 39.501s23.167 38.167 28.5 61.5l229 992c3.33301 14 5.66602 25.667 6.99902 35s2 16.333 2 21c0 28 -15.5 49.833 -46.5 65.5
s-78.5 28.167 -142.5 37.5l17 73h787l-17 -73c-21.333 -1.33301 -48.666 -4.5 -81.999 -9.5s-58.333 -10.167 -75 -15.5c-27.333 -8.66699 -47.5 -22.167 -60.5 -40.5s-22.167 -38.833 -27.5 -61.5l-229 -993c-2.66699 -11.333 -4.83398 -22 -6.50098 -32
s-2.5 -17.667 -2.5 -23c0 -33.333 15.5 -56.5 46.5 -69.5s78.833 -22.5 143.5 -28.5l-17 -73h-787z" />
    <glyph glyph-name="J" unicode="J" horiz-adv-x="1219" 
d="M947 432c-18 -76.667 -47.167 -144.499 -87.5 -203.499s-86.833 -107.833 -139.5 -146.5c-52 -38 -108.667 -67.5 -170 -88.5s-123.333 -31.5 -186 -31.5c-125.333 0 -225.166 29.667 -299.499 89s-111.5 140.333 -111.5 243c0 63.333 18.333 115.833 55 157.5
s85.667 62.5 147 62.5c59.333 0 105.333 -16.833 138 -50.5s49 -75.834 49 -126.501c0 -26.667 -6.33301 -52.667 -19 -78s-35 -53 -67 -83l-62 -58v-13c6 -16 19 -28.167 39 -36.5s40.333 -12.5 61 -12.5c69.333 0 128.5 29.167 177.5 87.5s86.5 144.833 112.5 259.5
l181 784c3.33301 14 5.66602 25.667 6.99902 35s2 16.333 2 21c0 28 -14.5 49.833 -43.5 65.5s-75.5 28.167 -139.5 37.5l17 73h766l-17 -73c-20.667 -1.33301 -45.167 -4.66602 -73.5 -9.99902s-50.833 -10.333 -67.5 -15c-28 -8.66699 -48 -21.334 -60 -38.001
s-21.333 -38 -28 -64z" />
    <glyph glyph-name="K" unicode="K" horiz-adv-x="1673" 
d="M560 226c-2.66699 -11.333 -4.83398 -22 -6.50098 -32s-2.5 -17.667 -2.5 -23c0 -30 12.333 -52 37 -66s71.667 -24.667 141 -32l-17 -73h-767l17 73c16.667 0.666992 41.5 2.83398 74.5 6.50098s57.5 8.16699 73.5 13.5c26 8.66699 45.833 22 59.5 40
s23.167 38.667 28.5 62l229 992c3.33301 14 5.66602 25.667 6.99902 35s2 16.333 2 21c0 28 -14.167 49.833 -42.5 65.5s-74.5 28.167 -138.5 37.5l17 73h767l-17 -73c-20.667 -1.33301 -45.834 -4.66602 -75.501 -9.99902s-52.834 -10.333 -69.501 -15
c-28 -8.66699 -48.333 -22.5 -61 -41.5s-21.667 -39.167 -27 -60.5l-111 -483h42l232 180c82 65.333 150.333 122.666 205 171.999c62 56.667 109.833 103 143.5 139s50.5 63.333 50.5 82c0 10 -10.667 17.833 -32 23.5s-56.666 10.167 -105.999 13.5l17 73h617l-17 -73
c-74.667 -8 -140.5 -23.667 -197.5 -47s-114.167 -56.333 -171.5 -99c-92.667 -70 -172 -133.333 -238 -190l-210 -176l166.5 -273l197.5 -320c20.667 -34.667 42 -63.334 64 -86.001s49.333 -42 82 -58c14.667 -7.33301 32.334 -13 53.001 -17s38.334 -6.33301 53.001 -7
l-17 -73h-532c-55.333 126.667 -110.666 237.167 -165.999 331.5l-194 323.5h-61z" />
    <glyph glyph-name="L" unicode="L" horiz-adv-x="1404" 
d="M1385 455l-132.998 -454.998h-1307l17 73c16.667 0.666992 41.5 3.16699 74.5 7.5s57.5 9.16602 73.5 14.499c26.667 8.66699 46.667 21.667 60 39s22.666 37.666 27.999 60.999l229 992c3.33301 14 5.66602 25.667 6.99902 35s2 16.333 2 21
c0 28 -14.167 49.833 -42.5 65.5s-74.5 28.167 -138.5 37.5l17 73h780l-17 -73c-21.333 -1.33301 -48.666 -4.5 -81.999 -9.5s-58.666 -10.167 -75.999 -15.5c-28 -8.66699 -48.333 -22.5 -61 -41.5s-21.667 -39.167 -27 -60.5l-217 -943
c-4.66699 -19.333 -8.33398 -38.166 -11.001 -56.499s-4 -32.5 -4 -42.5c0 -38.667 14.167 -63.5 42.5 -74.5s86.166 -16.5 173.499 -16.5c53.333 0 106.333 4 159 12s92 22.667 118 44c41.333 33.333 87.333 81.166 138 143.499s92 118.833 124 169.5h73z" />
    <glyph glyph-name="M" unicode="M" horiz-adv-x="2116" 
d="M2246 1419l-17 -72.999c-20.667 -1.33301 -46.334 -4.66602 -77.001 -9.99902s-54 -10.333 -70 -15c-27.333 -8.66699 -47.5 -22.334 -60.5 -41.001s-22.167 -39 -27.5 -61l-223 -993l-6 -30c-2 -10 -3 -18.333 -3 -25c0 -30 12.333 -52 37 -66s73 -24.667 145 -32
l-17 -73h-767l17 73c26.667 3.33301 54 7 82 11s49.333 8.66699 64 14c27.333 10 48.333 23.5 63 40.5s25 39.167 31 66.5l240 1065h-10l-771 -1247h-126c-1.33301 26 -6 67.833 -14 125.5l-22 162.5l-136 975h-10l-200 -869c-8 -33.333 -14.333 -65.833 -19 -97.5
s-7 -59.834 -7 -84.501c0 -26.667 2.83301 -47.5 8.5 -62.5s13.5 -27.5 23.5 -37.5c14 -14 40.167 -27.167 78.5 -39.5s66.833 -19.833 85.5 -22.5l-17 -73h-610l17 73c17.333 2 45.666 6.5 84.999 13.5s73 19.167 101 36.5c30 18.667 54.833 49.5 74.5 92.5
s39.167 106.833 58.5 191.5l162 701c5.33301 24 8.83301 42.333 10.5 55s2.5 25 2.5 37c0 20.667 -2.83301 38.667 -8.5 54s-14.167 28.666 -25.5 39.999c-20.667 20 -45 33.167 -73 39.5s-55.333 10.5 -82 12.5l17 73h649l136 -937l465 761
c20.667 34.667 39.334 70.334 56.001 107.001s26.334 59.667 29.001 69h661z" />
    <glyph glyph-name="N" unicode="N" horiz-adv-x="1699" 
d="M1883 1419l-16.9932 -73.0029c-18.667 -2 -45.834 -5.5 -81.501 -10.5s-70.5 -18.167 -104.5 -39.5c-28.667 -18 -53.167 -49 -73.5 -93s-40.5 -108.333 -60.5 -193l-235 -1018h-168l-613 1137l-162 -710c-8.66699 -37.333 -15.334 -72.333 -20.001 -105
s-7 -58.667 -7 -78c0 -27.333 2.66699 -48.5 8 -63.5s13 -27.5 23 -37.5c15.333 -15.333 42.166 -28.666 80.499 -39.999s66.833 -18.666 85.5 -21.999l-17 -73h-610l17 73c18 2.66699 46.5 7.33398 85.5 14.001s72.5 18.667 100.5 36c29.333 18.667 54 49.167 74 91.5
s39.667 106.833 59 193.5l154 668c3.33301 15.333 6.16602 29.833 8.49902 43.5s3.5 26.167 3.5 37.5c0 20 -2.33301 39.167 -7 57.5s-13.334 35.166 -26.001 50.499c-18.667 22.667 -41.667 40.167 -69 52.5s-59.333 21.833 -96 28.5l18 73h524l536 -1000l133 581
c9.33301 42.667 16.166 77.5 20.499 104.5s6.5 52.167 6.5 75.5c0 26 -2.83301 47.167 -8.5 63.5s-13.834 29.833 -24.501 40.5c-14.667 14.667 -40.5 27.834 -77.5 39.501s-65.5 19.167 -85.5 22.5l17 73h609z" />
    <glyph glyph-name="O" unicode="O" horiz-adv-x="1679" 
d="M1661 875c0 -120 -22.499 -235.833 -67.499 -347.5s-108.167 -208.834 -189.5 -291.501c-83.333 -84.667 -181.333 -151.667 -294 -201s-240.334 -74 -383.001 -74c-186.667 0 -340 53.833 -460 161.5s-180 248.5 -180 422.5c0 126.667 24.333 245.834 73 357.501
s116 209.167 202 292.5c84 82 182.5 146.333 295.5 193s232.167 70 357.5 70c188 0 342.667 -52.667 464 -158s182 -247 182 -425zM1138 351c45.333 92 78.998 192.168 100.998 300.501s33 215.166 33 320.499c0 122 -23.333 218 -70 288s-116.334 105 -209.001 105
c-81.333 0 -154.166 -27.333 -218.499 -82s-118.5 -125.667 -162.5 -213s-77.667 -186 -101 -296s-35 -219.333 -35 -328c0 -118 23.333 -212.833 70 -284.5s116.667 -107.5 210 -107.5c80.667 0 153.834 28 219.501 84s119.834 127 162.501 213z" />
    <glyph glyph-name="P" unicode="P" horiz-adv-x="1446" 
d="M1532 1121c0 -82 -18.8301 -155.497 -56.4971 -220.497s-91.834 -119.5 -162.501 -163.5c-70 -42.667 -148.167 -74.334 -234.5 -95.001s-181.5 -31 -285.5 -31h-144l-89 -385c-2.66699 -11.333 -4.83398 -22 -6.50098 -32s-2.5 -17.667 -2.5 -23
c0 -30 12.333 -52 37 -66s73 -24.667 145 -32l-17 -73h-771l17 73c16.667 0.666992 41.5 3.16699 74.5 7.5s57.5 9.16602 73.5 14.499c26 8.66699 45.833 21.667 59.5 39s23.167 37.666 28.5 60.999l229 992c3.33301 14 5.66602 25.667 6.99902 35s2 16.333 2 21
c0 28 -14.167 49.833 -42.5 65.5s-74.5 28.167 -138.5 37.5l17 73h769c165.333 0 288.5 -24.333 369.5 -73s121.5 -123.667 121.5 -225zM1136 1118c0 72 -19.334 125.832 -58.001 161.499s-101.667 53.5 -189 53.5h-73l-146 -633h65c72 0 133.833 10.833 185.5 32.5
s93.5 51.834 125.5 90.501c30.667 37.333 53.334 81 68.001 131s22 104.667 22 164z" />
    <glyph glyph-name="Q" unicode="Q" horiz-adv-x="1679" 
d="M1661 875c0 -98 -15.167 -193.501 -45.5 -286.501s-73.166 -177.167 -128.499 -252.5c-56 -76.667 -123.5 -143.834 -202.5 -201.501s-167.833 -101.167 -266.5 -130.5v-53c0 -72 17.333 -129.333 52 -172s81 -64 139 -64c29.333 0 61.833 2.33301 97.5 7
s65.5 10 89.5 16l-16 -80c-46 -19.333 -109.5 -36.333 -190.5 -51s-156.167 -22 -225.5 -22c-97.333 0 -174.833 27.333 -232.5 82s-86.5 135.334 -86.5 242.001v57c-164.667 18 -298.834 77.5 -402.501 178.5s-155.5 234.5 -155.5 400.5
c0 126.667 24.333 245.834 73 357.501s116 209.167 202 292.5c84 82 182.5 146.333 295.5 193s232.167 70 357.5 70c188 0 342.667 -52.667 464 -158s182 -247 182 -425zM1272 971.999c0 122 -23.335 218.001 -70.002 288.001s-116.334 105 -209.001 105
c-81.333 0 -154.166 -27.333 -218.499 -82s-118.5 -125.667 -162.5 -213s-77.667 -186 -101 -296s-35 -219.333 -35 -328c0 -118 23.333 -212.833 70 -284.5s116.667 -107.5 210 -107.5c80.667 0 153.834 28 219.501 84s119.834 127 162.501 213
c45.333 92 79 192.167 101 300.5s33 215.166 33 320.499z" />
    <glyph glyph-name="R" unicode="R" horiz-adv-x="1633" 
d="M1147 1121c0 71.333 -22.5 124.5 -67.5 159.5s-110.167 52.5 -195.5 52.5h-68l-139 -603h97c108.667 0 198 34.167 268 102.5s105 164.5 105 288.5zM560 226c-2.66699 -11.333 -4.83496 -21.9971 -6.50195 -31.9971s-2.5 -17.667 -2.5 -23c0 -30 12.333 -52 37 -66
s71.667 -24.667 141 -32l-17 -73h-767l17 73c16.667 0.666992 41.5 3.16699 74.5 7.5s57.5 9.16602 73.5 14.499c26 8.66699 45.833 21.667 59.5 39s23.167 37.666 28.5 60.999l229 992c3.33301 14 5.66602 25.667 6.99902 35s2 16.333 2 21c0 28 -14.167 49.833 -42.5 65.5
s-74.5 28.167 -138.5 37.5l17 73h782c162.667 0 284.834 -23 366.501 -69s122.5 -115.667 122.5 -209c0 -110 -39.667 -202.167 -119 -276.5s-191.333 -128.833 -336 -163.5l103.5 -186.5l145.5 -256.5c16 -28.667 36.833 -61.167 62.5 -97.5s52.834 -59.5 81.501 -69.5
c14 -4.66699 33.333 -8.66699 58 -12s42.334 -5.33301 53.001 -6l-18 -73h-518c-62.667 143.333 -116.167 258.166 -160.5 344.499s-99.833 185.833 -166.5 298.5h-72z" />
    <glyph glyph-name="S" unicode="S" horiz-adv-x="1337" 
d="M575 -38c-78.667 0 -157.833 9.66602 -237.5 28.999s-149.5 45.666 -209.5 78.999l-86 -70h-85l106 513h86c8 -50 22.667 -101.833 44 -155.5s49 -101.5 83 -143.5c33.333 -43.333 75.666 -79.333 126.999 -108s110 -43 176 -43c96.667 0 174 23.5 232 70.5
s87 108.833 87 185.5c0 49.333 -16.5 92.666 -49.5 129.999s-86.167 69.333 -159.5 96l-135.5 48.5c-43.667 15.667 -85.167 31.834 -124.5 48.501c-78 32.667 -136.667 79.167 -176 139.5s-59 124.5 -59 192.5c0 62.667 14.333 122.834 43 180.501s70 109.167 124 154.5
c52.667 44.667 117.834 80.5 195.501 107.5s162.834 40.5 255.501 40.5c77.333 0 154 -11.167 230 -33.5s132 -43.833 168 -64.5l75 60h87l-104 -484h-86c-8.66699 56.667 -21.167 110 -37.5 160s-38.833 95 -67.5 135c-28 38.667 -62.833 69.5 -104.5 92.5
s-91.834 34.5 -150.501 34.5c-81.333 0 -149.166 -22.667 -203.499 -68s-81.5 -102.333 -81.5 -171c0 -48 16.333 -90 49 -126s84.334 -67.333 155.001 -94l130 -47.5c45.333 -16.333 88.666 -33.166 129.999 -50.499c77.333 -32 138.333 -75.5 183 -130.5
s67 -120.167 67 -195.5c0 -71.333 -16.333 -138.333 -49 -201s-78.334 -116.667 -137.001 -162c-62 -48 -134.333 -84.833 -217 -110.5s-173.667 -38.5 -273 -38.5z" />
    <glyph glyph-name="T" unicode="T" horiz-adv-x="1401" 
d="M1591 1419l-93.9951 -406.005h-77c-2.66699 22.667 -7.83398 51 -15.501 85s-18.167 67.667 -31.5 101c-14 34.667 -29.167 63.334 -45.5 86.001s-35.833 36 -58.5 40c-20 2.66699 -45.5 5 -76.5 7s-57.833 3 -80.5 3h-50l-255 -1103
c-2.66699 -11.333 -4.83398 -22.166 -6.50098 -32.499s-2.5 -17.833 -2.5 -22.5c0 -16 3.16699 -30.167 9.5 -42.5s18.166 -22.166 35.499 -29.499c16 -6.66699 39.333 -13.167 70 -19.5s56 -10.5 76 -12.5l-17 -73h-791l17 73c18.667 1.33301 46 4 82 8
s61.667 8.66699 77 14c26.667 10.667 46.667 25 60 43s22.666 39.333 27.999 64l262 1133h-39c-25.333 0 -50.833 -0.833008 -76.5 -2.5s-54.834 -4.16699 -87.501 -7.5c-24 -3.33301 -50.833 -17.666 -80.5 -42.999s-58.5 -53 -86.5 -83
c-33.333 -37.333 -60.833 -71.166 -82.5 -101.499s-40.167 -58.5 -55.5 -84.5h-77l94 406h1375z" />
    <glyph glyph-name="U" unicode="U" horiz-adv-x="1707" 
d="M755 -39c-173.333 0 -306.167 33.4971 -398.5 100.497s-138.5 161.5 -138.5 283.5c0 21.333 1.33301 42.833 4 64.5s6.66699 45.167 12 70.5l164 709c3.33301 14 5.66602 25 6.99902 33s2 15 2 21c0 28 -13.333 49.667 -40 65s-73 28 -139 38l17 73h760l-17 -73
c-22 -1.33301 -46 -4.16602 -72 -8.49902s-48 -9.16602 -66 -14.499c-27.333 -8 -47.333 -21.167 -60 -39.5s-21.667 -39.166 -27 -62.499l-162 -699c-6.66699 -28 -12 -58.333 -16 -91s-6 -60 -6 -82c0 -86 24.667 -149.5 74 -190.5s121.333 -61.5 216 -61.5
c114.667 0 213.834 38.167 297.501 114.5s139.834 177.5 168.501 303.5l112 486c9.33301 41.333 16.166 76.666 20.499 105.999s6.5 54 6.5 74c0 25.333 -2.83301 46.333 -8.5 63s-13.834 30 -24.501 40c-16.667 15.333 -44.167 28.833 -82.5 40.5
s-66.166 18.834 -83.499 21.501l17 73h615l-17 -73c-20 -2 -48.833 -6.5 -86.5 -13.5s-71.167 -19.167 -100.5 -36.5c-29.333 -16.667 -54.166 -47.167 -74.499 -91.5s-40.5 -108.833 -60.5 -193.5l-123 -533c-38.667 -165.333 -119.834 -292.833 -243.501 -382.5
s-272.5 -134.5 -446.5 -134.5z" />
    <glyph glyph-name="V" unicode="V" horiz-adv-x="1561" 
d="M1787 1346c-20.667 -2 -41.666 -6.50293 -62.999 -13.5029s-44.666 -16.5 -69.999 -28.5c-32 -15.333 -58 -32.666 -78 -51.999s-41.667 -46 -65 -80l-128 -193.5l-204 -312.5l-235 -362.5l-205 -319.5h-201l-132 743l-83 451c-8 36 -18.167 62.5 -30.5 79.5
s-30.166 33.167 -53.499 48.5c-18.667 12 -36.334 20.833 -53.001 26.5s-38 10.167 -64 13.5l17 73h753l-18 -73c-54.667 -6 -95.334 -12.167 -122.001 -18.5s-46.334 -12.833 -59.001 -19.5c-12 -6 -18.667 -13 -20 -21s-2 -15 -2 -21c0 -14.667 1.33301 -29.667 4 -45
s6 -36.333 10 -63c12.667 -78.667 31.667 -185 57 -319s56 -305.667 92 -515l244 387.5l214 344.5c28.667 46.667 53.5 90.334 74.5 131.001s31.5 68.334 31.5 83.001c0 20 -17.167 36.667 -51.5 50s-83.833 22 -148.5 26l18 73h589z" />
    <glyph glyph-name="W" unicode="W" horiz-adv-x="2307" 
d="M2549 1419l-17.999 -72.9971c-22 -2 -44 -7 -66 -15s-43.333 -17 -64 -27c-32 -16 -57 -33.833 -75 -53.5s-36.667 -45.834 -56 -78.501l-288 -494l-400 -694h-208l-128 1048l-576 -1048h-200l-77.5 705l-53.5 487c-4.66699 35.333 -12.167 61.5 -22.5 78.5
s-28.166 34.5 -53.499 52.5c-16 11.333 -33.333 19.833 -52 25.5s-40.334 10.167 -65.001 13.5l17 73h742l-18 -73c-48 -5.33301 -85.333 -11 -112 -17s-46.667 -12.667 -60 -20c-12 -6.66699 -19 -14.167 -21 -22.5s-3 -16.833 -3 -25.5
c0 -13.333 0.666992 -28.833 2 -46.5s3 -36.834 5 -57.501c5.33301 -62.667 15.166 -161.834 29.499 -297.501l48.5 -474.5l559 1034h213l129 -1066l221 401.5l162 302.5c24.667 47.333 46.167 91.333 64.5 132s27.5 67 27.5 79c0 20.667 -17.5 37.667 -52.5 51
s-86.167 22.333 -153.5 27l18 73h585z" />
    <glyph glyph-name="X" unicode="X" horiz-adv-x="1643" 
d="M1792 1419l-16.999 -73c-26.667 -0.666992 -50.167 -3.83398 -70.5 -9.50098s-37.5 -11.167 -51.5 -16.5c-44.667 -18 -84.667 -41.5 -120 -70.5l-110 -94.5l-188 -172l-215 -198c56 -123.333 101.167 -219.333 135.5 -288l113.5 -232
c15.333 -32 33.833 -63.5 55.5 -94.5s50.167 -54.167 85.5 -69.5c16.667 -6.66699 34.5 -12.5 53.5 -17.5s44.833 -8.5 77.5 -10.5l-17 -73h-834l17 73c88.667 5.33301 146.167 13.333 172.5 24s39.5 26 39.5 46c0 10.667 -2.33301 24.5 -7 41.5s-14.667 44.167 -30 81.5
l-55 129l-83 183l-176 -168l-142 -141c-48.667 -49.333 -77.834 -82.833 -87.501 -100.5s-14.5 -30.834 -14.5 -39.501c0 -13.333 10.167 -24.833 30.5 -34.5s59.833 -16.834 118.5 -21.501l-17 -73h-575l17 73c28.667 2 50 4.5 64 7.5s33 9.16699 57 18.5
c43.333 18.667 82.333 41.334 117 68.001s72.667 59 114 97l203 186l244 227l-113 242l-114 235c-17.333 35.333 -36.666 67.333 -57.999 96s-50 51 -86 67c-18 8 -35.333 14.167 -52 18.5s-42.334 7.83301 -77.001 10.5l17 73h836l-17 -73
c-54 -2.66699 -103.167 -8.66699 -147.5 -18s-66.5 -27.333 -66.5 -54c0 -11.333 2.16699 -24.5 6.5 -39.5s12.833 -38.167 25.5 -69.5c13.333 -33.333 28.833 -69.5 46.5 -108.5l76.5 -173.5l174 167.5c48.667 47.667 88 87.834 118 120.501
c45.333 49.333 70.5 79.833 75.5 91.5s7.5 21.167 7.5 28.5c0 6 -2 11.667 -6 17s-12 10.666 -24 15.999c-12 4.66699 -27.5 8.83398 -46.5 12.501s-43.833 6.83398 -74.5 9.50098l17 73h577z" />
    <glyph glyph-name="Y" unicode="Y" horiz-adv-x="1499" 
d="M1770 1419l-16.9971 -73.0049c-22.667 -2.66699 -43.667 -6.66699 -63 -12s-41.666 -14.666 -66.999 -27.999c-32 -16 -60.833 -35.167 -86.5 -57.5s-55.167 -51.5 -88.5 -87.5l-181.5 -201l-217.5 -254c-58.667 -68 -94 -115.833 -106 -143.5
s-25.667 -75.834 -41 -144.501l-43 -186c-2.66699 -11.333 -4.83398 -22.166 -6.50098 -32.499s-2.5 -17.833 -2.5 -22.5c0 -16 3.16699 -30.167 9.5 -42.5s18.166 -22.166 35.499 -29.499c16 -6.66699 39.333 -13.167 70 -19.5s56 -10.5 76 -12.5l-17 -73h-791l17 73
c18.667 1.33301 46 4 82 8s61.667 8.66699 77 14c25.333 10 45 24.333 59 43s23.667 40 29 64l59 255l11 49.5c3.33301 14.333 5 26.833 5 37.5c0 14 -3.66699 32 -11 54l-29 84l-90.5 259c-21 58.667 -49.5 134.334 -85.5 227.001
c-13.333 34.667 -28.833 63.834 -46.5 87.501s-37.167 42.834 -58.5 57.501c-16 10 -35.833 17.667 -59.5 23s-45.834 8.66602 -66.501 9.99902l17 73h793l-17 -73c-68.667 -2 -119.834 -7.5 -153.501 -16.5s-50.5 -22.833 -50.5 -41.5
c0 -8.66699 2.83301 -25.834 8.5 -51.501s17.834 -68.167 36.501 -127.5c14 -45.333 33.833 -104.166 59.5 -176.499l85.5 -238.5l231.5 270.5c70.333 82.333 118.5 139.833 144.5 172.5c49.333 61.333 77.666 99.166 84.999 113.499s11 24.833 11 31.5
c0 20.667 -15.833 35.834 -47.5 45.501s-70.167 15.834 -115.5 18.501l17 73h540z" />
    <glyph glyph-name="Z" unicode="Z" horiz-adv-x="1412" 
d="M1563 1419l-14 -61l-1186 -1271h339c112 0 189.5 5.5 232.5 16.5s76.5 27.833 100.5 50.5c44 41.333 91.167 92.5 141.5 153.5s94.166 118.167 131.499 171.5h75l-159 -479h-1322l15 61l1186 1271h-291c-63.333 0 -109.333 -1.83301 -138 -5.5s-57 -11.167 -85 -22.5
c-30.667 -10.667 -70.667 -41 -120 -91s-113.666 -125.667 -192.999 -227h-81l144 433h1224z" />
    <glyph glyph-name="bracketleft" unicode="[" horiz-adv-x="915" 
d="M651 -310h-662l422 1829h662l-22 -95h-347l-378 -1638h347z" />
    <glyph glyph-name="backslash" unicode="\" horiz-adv-x="966" 
d="M778 -424h-174l-349 1947h176z" />
    <glyph glyph-name="bracketright" unicode="]" horiz-adv-x="915" 
d="M537 -310h-662l22 96h347l378 1638h-347l22 95h662z" />
    <glyph glyph-name="asciicircum" unicode="^" 
d="M1272 760h-196l-317 513l-317 -513h-194l442 696h140z" />
    <glyph glyph-name="underscore" unicode="_" 
d="M1262 -301h-1450l27 120h1450z" />
    <glyph glyph-name="grave" unicode="`" horiz-adv-x="1024" 
d="M857 1139l-46.001 -37.999c-87.333 58.667 -163 106.667 -227 144s-109.333 65.333 -136 84c-23.333 17.333 -40.666 34 -51.999 50s-17 36 -17 60s10.5 48.167 31.5 72.5s48.5 36.5 82.5 36.5c42 0 75.333 -8 100 -24s49.334 -42.667 74.001 -80
c19.333 -29.333 45.166 -71.333 77.499 -126s69.833 -114.334 112.5 -179.001z" />
    <glyph glyph-name="a" unicode="a" horiz-adv-x="1352" 
d="M760 125l-8.00098 0.00195312l-66.5 -55c-21 -16.667 -47.5 -33.334 -79.5 -50.001c-28 -14.667 -57.5 -26.834 -88.5 -36.501s-65.167 -14.5 -102.5 -14.5c-116 0 -203.333 34.167 -262 102.5s-88 161.833 -88 280.5c0 91.333 16.333 177 49 257
s76.334 150.333 131.001 211c55.333 60 120 107.5 194 142.5s152 52.5 234 52.5c60 0 112.5 -7 157.5 -21s81.833 -33 110.5 -57l307 63l14 -16l-147 -615c-5.33301 -20.667 -11 -46.5 -17 -77.5s-9 -54.5 -9 -70.5c0 -38 8.66699 -64.167 26 -78.5s47.333 -21.5 90 -21.5
c18.667 0 41.167 3.66699 67.5 11s44.833 13.333 55.5 18l-22 -90c-66 -26 -118.833 -45.833 -158.5 -59.5s-85.5 -20.5 -137.5 -20.5c-68.667 0 -123.5 13.5 -164.5 40.5s-69.5 61.833 -85.5 104.5zM878.999 759.002c0 14.667 -2 32.001 -6 52.001s-11 37 -21 51
c-12 17.333 -27.667 30.5 -47 39.5s-43.333 13.5 -72 13.5c-44 0 -84.5 -15.833 -121.5 -47.5s-69.833 -73.834 -98.5 -126.501c-28 -52 -50 -112.5 -66 -181.5s-24 -139.5 -24 -211.5c0 -32.667 2.5 -63 7.5 -91s13.167 -51.667 24.5 -71
c12 -20.667 28.167 -36.667 48.5 -48s45.833 -17 76.5 -17c31.333 0 61.5 9.16699 90.5 27.5s55.833 40.833 80.5 67.5z" />
    <glyph glyph-name="b" unicode="b" horiz-adv-x="1329" 
d="M1264 632c0 -90.667 -15.334 -176.833 -46.001 -258.5s-74.667 -151.834 -132 -210.501c-60.667 -62 -132.667 -110 -216 -144s-176 -51 -278 -51c-24.667 0 -61 2.66699 -109 8s-91 14.666 -129 27.999c-48 16.667 -93.167 40.334 -135.5 71.001
s-79.5 70.667 -111.5 120l251 1078c2.66699 11.333 4.66699 22 6 32s2 18.333 2 25c0 22 -4.16699 40.333 -12.5 55s-20.166 26.334 -35.499 35.001c-15.333 8 -33.5 14 -54.5 18s-45.167 7.33301 -72.5 10l18 74l527 26l11 -16l-151 -648h7c15.333 12.667 32 25.5 50 38.5
s42 27.5 72 43.5c22.667 12 52.5 23.167 89.5 33.5s70.5 15.5 100.5 15.5c116 0 203.167 -34.167 261.5 -102.5s87.5 -161.833 87.5 -280.5zM905.999 636.001c0 32.667 -2.33398 62.832 -7.00098 90.499s-13 51.5 -25 71.5c-12 20.667 -28.167 36.667 -48.5 48
s-45.833 17 -76.5 17c-34 0 -66.333 -9.5 -97 -28.5s-58 -41.167 -82 -66.5l-126 -558c0 -16 2.33301 -32.333 7 -49s13.667 -34 27 -52c13.333 -18.667 28 -33 44 -43s39 -15 69 -15c45.333 0 87.833 16.833 127.5 50.5s72.834 77.834 99.501 132.501
c29.333 58.667 51.333 120.5 66 185.5s22 137.167 22 216.5z" />
    <glyph glyph-name="c" unicode="c" horiz-adv-x="1097" 
d="M557 -33c-153.333 0 -272.834 38.3311 -358.501 114.998s-128.5 182 -128.5 316c0 80.667 13.667 157.167 41 229.5s69.333 138.166 126 197.499c52.667 56 120.334 101.667 203.001 137s175 53 277 53c118 0 208.167 -21.667 270.5 -65s93.5 -103 93.5 -179
c0 -20.667 -3.33301 -43.667 -10 -69s-16.667 -46.666 -30 -63.999c-16.667 -21.333 -34.834 -37.666 -54.501 -48.999s-49.167 -17 -88.5 -17c-52 0 -92.5 12.833 -121.5 38.5s-43.5 52.5 -43.5 80.5c0 33.333 7 66.333 21 99s31.667 67 53 103
c-6 7.33301 -18.167 16.333 -36.5 27s-42.166 16 -71.499 16c-78 0 -142.667 -47.167 -194 -141.5s-77 -211.166 -77 -350.499c0 -106 19.5 -186.333 58.5 -241s94.5 -82 166.5 -82c73.333 0 134.5 14.167 183.5 42.5s99.167 76.833 150.5 145.5l72 -61
c-54.667 -84.667 -127 -152.667 -217 -204s-185 -77 -285 -77z" />
    <glyph glyph-name="d" unicode="d" horiz-adv-x="1357" 
d="M766 125l-7.99805 0.000976562l-67 -55c-21.333 -16.667 -48.666 -33.334 -81.999 -50.001c-31.333 -16 -61.833 -28.5 -91.5 -37.5s-63.834 -13.5 -102.501 -13.5c-116 0 -203.333 34.167 -262 102.5s-88 161.833 -88 280.5c0 91.333 16 177 48 257
s75.333 150.333 130 211c54 60 118 107.5 192 142.5s151.667 52.5 233 52.5c61.333 0 112.666 -6.5 153.999 -19.5s75.666 -30.167 102.999 -51.5l74 325c2 9.33301 3.83301 19.5 5.5 30.5s2.5 19.833 2.5 26.5c0 22 -5.66699 40.667 -17 56s-27 27.333 -47 36
c-18.667 8.66699 -40 15 -64 19s-50.333 7.66699 -79 11l18 74l561 26l11 -16l-269 -1163c-4.66699 -19.333 -10.167 -44.833 -16.5 -76.5s-9.5 -55.5 -9.5 -71.5c0 -38 8.5 -64.167 25.5 -78.5s46.833 -21.5 89.5 -21.5c18.667 0 41.167 3.66699 67.5 11
s44.833 13.333 55.5 18l-22 -90c-66 -26 -118.667 -45.833 -158 -59.5s-85 -20.5 -137 -20.5c-68.667 0 -123.5 13.5 -164.5 40.5s-69.5 61.833 -85.5 104.5zM884.002 765.001c0 16.667 -2.16602 33.834 -6.49902 51.501s-12.833 34.5 -25.5 50.5
c-12.667 16.667 -28.334 29.834 -47.001 39.501s-44 14.5 -76 14.5c-42.667 0 -82.5 -15.833 -119.5 -47.5s-69.833 -74.834 -98.5 -129.501c-26.667 -50.667 -48 -110.834 -64 -180.501s-24 -141.5 -24 -215.5c0 -32.667 2.5 -63 7.5 -91s13.167 -51.667 24.5 -71
c12 -20.667 28.167 -36.667 48.5 -48s45.833 -17 76.5 -17c31.333 0 62.5 9.16699 93.5 27.5s58.833 40.833 83.5 67.5z" />
    <glyph glyph-name="e" unicode="e" horiz-adv-x="1141" 
d="M546 -33c-80 0 -150.165 10.8311 -210.498 32.498s-110.166 51.834 -149.499 90.501c-38.667 38.667 -67.667 83.667 -87 135s-29 108 -29 170c0 78.667 14.667 155 44 229s73 140.667 131 200c54.667 56.667 124 102.667 208 138s176.667 53 278 53
c119.333 0 210.166 -19 272.499 -57s93.5 -95 93.5 -171c0 -72.667 -27 -135.167 -81 -187.5s-127.333 -91.166 -220 -116.499c-73.333 -22 -135.833 -37.667 -187.5 -47s-114.834 -18 -189.501 -26c1.33301 -29.333 5.33301 -62.333 12 -99s16.667 -68 30 -94
c16 -30 38.667 -53.833 68 -71.5s66.666 -26.5 111.999 -26.5c78.667 0 145.5 15.167 200.5 45.5s107.5 78.5 157.5 144.5l73 -61c-60 -85.333 -136.833 -153.5 -230.5 -204.5s-192.167 -76.5 -295.5 -76.5zM772.002 758.998c0 56.667 -10.332 100.167 -30.999 130.5
s-49.334 45.5 -86.001 45.5c-51.333 0 -99.833 -41.833 -145.5 -125.5s-74.834 -189.5 -87.501 -317.5c39.333 4.66699 78.333 10.667 117 18s69.334 16 92.001 26c50 22 86 50.333 108 85s33 80.667 33 138z" />
    <glyph glyph-name="f" unicode="f" horiz-adv-x="780" 
d="M620 868l-86.501 -428.503c-24.333 -121 -53.5 -247.5 -87.5 -379.5c-16.667 -64.667 -44.167 -128.167 -82.5 -190.5s-83.5 -116.166 -135.5 -161.499c-54.667 -48 -113.834 -85.333 -177.501 -112s-129.167 -40 -196.5 -40c-60.667 0 -109.834 6 -147.501 18
s-67.167 27.333 -88.5 46c-20.667 18.667 -34.667 39.334 -42 62.001s-11 45 -11 67c0 38.667 13.833 72.834 41.5 102.501s64.834 44.5 111.501 44.5c36 0 67.167 -9.5 93.5 -28.5s48.833 -41.833 67.5 -68.5c18.667 -26 35.167 -55 49.5 -87l33.5 -75
c28 30.667 54.333 76.834 79 138.501s47.667 143.834 69 246.501l179 846h-194l24 103h192l17 77c14 62.667 39.5 124.167 76.5 184.5s81.833 114.166 134.5 161.499c50.667 46.667 109.167 84.667 175.5 114s132.833 44 199.5 44c58 0 106.167 -5.5 144.5 -16.5
s68.5 -26.167 90.5 -45.5c20 -18 33.5 -38.167 40.5 -60.5s10.5 -44.5 10.5 -66.5c0 -14.667 -2.83301 -31 -8.5 -49s-14.5 -34.333 -26.5 -49c-14.667 -16.667 -30.167 -29.667 -46.5 -39s-40.166 -14 -71.499 -14c-36 0 -67 9.5 -93 28.5s-48 41.5 -66 67.5
c-19.333 27.333 -35.666 56.666 -48.999 87.999s-24.333 56.333 -33 75c-27.333 -31.333 -52 -77 -74 -137s-44.667 -142.667 -68 -248l-25 -115h253l-24 -103h-248z" />
    <glyph glyph-name="g" unicode="g" horiz-adv-x="1330" 
d="M750 105l-7.99609 -0.000976562c-16.667 -13.333 -36 -27.666 -58 -42.999s-45.667 -28.666 -71 -39.999c-30.667 -14.667 -59.334 -25.834 -86.001 -33.501s-60.334 -11.5 -101.001 -11.5c-116 0 -205.167 34 -267.5 102s-93.5 161.333 -93.5 280
c0 90 16 174.5 48 253.5s75.333 148.833 130 209.5c54 59.333 117.833 106.333 191.5 141s151.5 52 233.5 52c60 0 113 -6.33301 159 -19s85.667 -32.334 119 -59.001l305 63l14 -16l-170 -813c-26.667 -121.333 -63.667 -221.5 -111 -300.5s-102.333 -141.833 -165 -188.5
c-64 -47.333 -130.833 -80.166 -200.5 -98.499s-142.834 -27.5 -219.501 -27.5c-82 0 -148.833 6.16699 -200.5 18.5s-91.167 28.166 -118.5 47.499c-26.667 18.667 -44.834 39.5 -54.501 62.5s-14.5 45.5 -14.5 67.5c0 38 13.5 72.167 40.5 102.5s64.5 45.5 112.5 45.5
c36 0 68.167 -9.66699 96.5 -29s53.166 -42.666 74.499 -69.999c19.333 -24.667 37.333 -53.167 54 -85.5s29.334 -58.5 38.001 -78.5c30.667 5.33301 61.167 14 91.5 26s59.5 34.667 87.5 68c26.667 32 52.167 76.333 76.5 133s46.833 137 67.5 241zM884.004 759.999
c0 16.667 -2.16602 33.8311 -6.49902 51.498s-12.833 34.5 -25.5 50.5c-12.667 16.667 -28.334 29.834 -47.001 39.501s-44 14.5 -76 14.5c-43.333 0 -83.333 -15.5 -120 -46.5s-69 -72.5 -97 -124.5c-27.333 -51.333 -49 -111.166 -65 -179.499s-24 -138.833 -24 -211.5
c0 -32 2.83301 -61.5 8.5 -88.5s15.5 -51.167 29.5 -72.5s32.167 -37.333 54.5 -48s47.5 -16 75.5 -16c32.667 0 66.167 10 100.5 30s61.833 41.333 82.5 64z" />
    <glyph glyph-name="h" unicode="h" horiz-adv-x="1383" 
d="M1354 151l-22.001 -88.001c-66 -26 -118.667 -45.833 -158 -59.5s-85 -20.5 -137 -20.5c-79.333 0 -141.166 19.833 -185.499 59.5s-66.5 88.834 -66.5 147.501c0 18.667 0.833008 39.334 2.5 62.001s7.5 53.667 17.5 93l72 266c7.33301 28.667 12.833 54.5 16.5 77.5
s5.5 41.833 5.5 56.5c0 32 -7.66699 57 -23 75s-41.333 27 -78 27c-22.667 0 -55 -8.83301 -97 -26.5s-89 -50.5 -141 -98.5l-165 -722h-331l294 1273c2.66699 11.333 4.66699 22 6 32s2 18.333 2 25c0 24 -4 43 -12 57s-20 25.333 -36 34s-34.333 14.667 -55 18
s-44.667 6.33301 -72 9l18 74l527 26l11 -16l-160 -692h7c62 54.667 126.333 97.5 193 128.5s138.334 46.5 215.001 46.5c74 0 131.833 -20.333 173.5 -61s62.5 -90 62.5 -148c0 -15.333 -1.16699 -36.833 -3.5 -64.5s-7.83301 -57.167 -16.5 -88.5l-76 -281
c-6.66699 -23.333 -12.667 -50 -18 -80s-8 -52.667 -8 -68c0 -38.667 8.5 -65.334 25.5 -80.001s46.833 -22 89.5 -22c20 0 42.667 3.5 68 10.5s43.666 13.167 54.999 18.5z" />
    <glyph glyph-name="i" unicode="i" horiz-adv-x="749" 
d="M713 143l-22 -90c-66 -26 -118.667 -45.833 -158 -59.5s-85 -20.5 -137 -20.5c-80 0 -142.167 19.5 -186.5 58.5s-66.5 88.5 -66.5 148.5c0 23.333 1.66699 47.166 5 71.499s8.66602 51.833 15.999 82.5l82 292c7.33301 28 13.5 54.5 18.5 79.5s7.5 47.833 7.5 68.5
c0 37.333 -7.66699 63.333 -23 78s-44.666 22 -87.999 22c-21.333 0 -43.166 -3.33301 -65.499 -10s-41.5 -13 -57.5 -19l22 90c54 22 105.667 40.833 155 56.5s96 23.5 140 23.5c79.333 0 140.5 -19.167 183.5 -57.5s64.5 -88.166 64.5 -149.499
c0 -12.667 -1.5 -35 -4.5 -67s-8.5 -61.333 -16.5 -88l-82 -291c-6.66699 -23.333 -12.667 -50 -18 -80s-8 -52.667 -8 -68c0 -38.667 8.66699 -65 26 -79s47.333 -21 90 -21c20 0 42.667 3.5 68 10.5s43.666 13.167 54.999 18.5zM734 1364
c0 -50.667 -19.167 -93.834 -57.5 -129.501s-84.5 -53.5 -138.5 -53.5s-100.333 17.833 -139 53.5s-58 78.834 -58 129.501s19.333 94 58 130s85 54 139 54s100.167 -18 138.5 -54s57.5 -79.333 57.5 -130z" />
    <glyph glyph-name="j" unicode="j" horiz-adv-x="747" 
d="M627 808c0 -12.667 -0.666016 -29.999 -1.99902 -51.999s-4.66602 -46.333 -9.99902 -73l-62 -324c-12 -62.667 -35.667 -162.334 -71 -299.001c-18 -68 -45 -131.667 -81 -191s-80.667 -113 -134 -161c-55.333 -49.333 -111.5 -87 -168.5 -113s-120.833 -39 -191.5 -39
c-60 0 -108.5 6 -145.5 18s-65.833 27.333 -86.5 46s-34.667 39.334 -42 62.001s-11 45 -11 67c0 39.333 14 73.666 42 102.999s65 44 111 44c36 0 67.167 -9.5 93.5 -28.5s48.833 -41.833 67.5 -68.5c18.667 -26 35.167 -55 49.5 -87l33.5 -75
c22 38.667 43.5 88.167 64.5 148.5s42.5 139.166 64.5 236.499c27.333 120.667 51.5 233 72.5 337l58.5 300l9.5 56c3.66699 22 5.5 41.667 5.5 59c0 33.333 -8.33301 58.333 -25 75s-46.334 25 -89.001 25c-22 0 -44.667 -3.5 -68 -10.5l-60 -18.5l22 90
c54 22 107.167 40.833 159.5 56.5s100.5 23.5 144.5 23.5c79.333 0 140.666 -19.167 183.999 -57.5s65 -88.166 65 -149.499zM742.001 1364c0 -50.667 -19.167 -93.834 -57.5 -129.501s-84.5 -53.5 -138.5 -53.5s-100.333 17.833 -139 53.5s-58 78.834 -58 129.501
s19.333 94 58 130s85 54 139 54s100.167 -18 138.5 -54s57.5 -79.333 57.5 -130z" />
    <glyph glyph-name="k" unicode="k" horiz-adv-x="1313" 
d="M1297 858c0 -47.333 -17.168 -89.334 -51.501 -126.001s-76.833 -55 -127.5 -55c-42 0 -81 9.5 -117 28.5s-67.667 38.833 -95 59.5l-39 -25.5c-12.667 -8.33301 -39 -29.833 -79 -64.5l101 -255c36.667 -92.667 64.334 -156.667 83.001 -192
c22 -42 42.833 -71.667 62.5 -89s54.167 -26 103.5 -26c17.333 0 39 3.33301 65 10s47.333 13.334 64 20.001l-22 -90c-66 -28 -123.667 -48.333 -173 -61s-93.333 -19 -132 -19c-18.667 0 -42.167 1.33301 -70.5 4s-52.833 8.66699 -73.5 18
c-26 12 -49.833 28.667 -71.5 50s-42.834 55.333 -63.501 102c-29.333 66 -50.166 116.5 -62.499 151.5l-51.5 142.5l-66 -62l-86 -379h-331l294 1273c2.66699 11.333 4.66699 22 6 32s2 18.333 2 25c0 24 -4 43 -12 57s-20 25.333 -36 34s-34.333 14.667 -55 18
s-44.667 6.33301 -72 9l18 74l527 26l11 -16l-240 -1040h8c80 90 143.167 158.833 189.5 206.5l150.5 150.5c65.333 63.333 117.5 106.833 156.5 130.5s82.167 35.5 129.5 35.5c48 0 86 -13.333 114 -40s42 -65.667 42 -117z" />
    <glyph glyph-name="l" unicode="l" horiz-adv-x="726" 
d="M746 1532l-269 -1170c-4.66699 -19.333 -10.167 -45 -16.5 -77s-9.5 -55.667 -9.5 -71c0 -38.667 9.66699 -65 29 -79s51.333 -21 96 -21c16.667 0 39.334 3.5 68.001 10.5s49 13.167 61 18.5l-22 -90c-66 -26 -120 -45.833 -162 -59.5s-89.667 -20.5 -143 -20.5
c-80 0 -143 19.5 -189 58.5s-69 88.5 -69 148.5c0 24.667 2.16699 50.334 6.5 77.001s9.16602 52.334 14.499 77.001l216 939c2.66699 11.333 4.66699 22 6 32s2 18.333 2 25c0 24 -4 43 -12 57s-20 25.333 -36 34s-34.333 14.667 -55 18s-44.667 6.33301 -72 9l18 74
l527 26z" />
    <glyph glyph-name="m" unicode="m" horiz-adv-x="2052" 
d="M2023 153l-21.998 -90.002c-66 -26 -118.667 -45.833 -158 -59.5s-85 -20.5 -137 -20.5c-79.333 0 -141 19.833 -185 59.5s-66 88.834 -66 147.501c0 16 0.833008 36.5 2.5 61.5s7.16699 56.167 16.5 93.5l72 266c7.33301 28.667 12.833 54.5 16.5 77.5
s5.5 41.833 5.5 56.5c0 32 -8 57 -24 75s-42 27 -78 27c-25.333 0 -57.5 -11.333 -96.5 -34s-78.5 -53 -118.5 -91l-165 -722h-331l140 610c7.33301 33.333 12.833 60.333 16.5 81s5.5 38.667 5.5 54c0 32 -8 57 -24 75s-42.333 27 -79 27
c-20.667 0 -49.334 -8.33301 -86.001 -25s-82.667 -50 -138 -100l-165 -722h-331l142 615l15.5 74c6.33301 30.667 9.5 55.334 9.5 74.001c0 38 -7.33301 64.167 -22 78.5s-43.667 21.5 -87 21.5c-21.333 0 -43.166 -3.33301 -65.499 -10s-41.5 -13 -57.5 -19l22 90
c54 22 105.667 40.833 155 56.5s96 23.5 140 23.5c81.333 0 140 -16.5 176 -49.5s61.333 -75.5 76 -127.5h7c66.667 61.333 131 108 193 140s133.333 48 214 48c68.667 0 125 -18.333 169 -55s68.333 -82 73 -136h7c71.333 61.333 137.666 108.5 198.999 141.5
s131.333 49.5 210 49.5c74 0 132 -20.333 174 -61s63 -90 63 -148c0 -15.333 -1.16699 -36.833 -3.5 -64.5s-7.83301 -57.167 -16.5 -88.5l-76 -281c-6.66699 -23.333 -12.667 -50 -18 -80s-8 -52.667 -8 -68c0 -38.667 8.5 -65 25.5 -79s46.833 -21 89.5 -21
c20 0 42.667 3.5 68 10.5s43.666 13.167 54.999 18.5z" />
    <glyph glyph-name="n" unicode="n" horiz-adv-x="1413" 
d="M1384 153l-22.001 -90.001c-66 -26 -118.667 -45.833 -158 -59.5s-85 -20.5 -137 -20.5c-79.333 0 -141 19.833 -185 59.5s-66 88.834 -66 147.501c0 16 0.833008 36.5 2.5 61.5s7.16699 56.167 16.5 93.5l72 266c7.33301 28.667 12.833 54.5 16.5 77.5
s5.5 41.833 5.5 56.5c0 32 -7.66699 57 -23 75s-41.333 27 -78 27c-22.667 0 -55 -8.83301 -97 -26.5s-89 -50.5 -141 -98.5l-165 -722h-331l142 615l15.5 73c6.33301 30 9.5 55 9.5 75c0 38 -7.83301 64.167 -23.5 78.5s-44.167 21.5 -85.5 21.5
c-21.333 0 -43.166 -3.33301 -65.499 -10s-41.5 -13 -57.5 -19l22 90c54 22 105.667 40.833 155 56.5s96 23.5 140 23.5c78.667 0 137.5 -15.5 176.5 -46.5s64.833 -74.5 77.5 -130.5h7c65.333 59.333 132.833 105.5 202.5 138.5s143.834 49.5 222.501 49.5
c74 0 131.833 -20.333 173.5 -61s62.5 -90 62.5 -148c0 -15.333 -1.16699 -36.833 -3.5 -64.5s-7.83301 -57.167 -16.5 -88.5l-76 -281c-6.66699 -23.333 -12.667 -50 -18 -80s-8 -52.667 -8 -68c0 -38.667 8.5 -65 25.5 -79s46.833 -21 89.5 -21c20 0 42.667 3.5 68 10.5
s43.666 13.167 54.999 18.5z" />
    <glyph glyph-name="o" unicode="o" horiz-adv-x="1302" 
d="M1235 599c0 -84 -15.999 -164.332 -47.999 -240.999s-77.333 -143.334 -136 -200.001c-63.333 -60.667 -137.5 -107.5 -222.5 -140.5s-180.5 -49.5 -286.5 -49.5c-142 0 -256.667 37.833 -344 113.5s-131 178.834 -131 309.501c0 88.667 16.5 171 49.5 247
s79.167 142.333 138.5 199c58.667 55.333 130.667 99.166 216 131.499s177.666 48.5 276.999 48.5c150.667 0 269.5 -36.833 356.5 -110.5s130.5 -176.167 130.5 -307.5zM883.001 712.001c0 78 -13.167 135.333 -39.5 172s-64.5 55 -114.5 55
c-51.333 0 -98.333 -20.5 -141 -61.5s-77.334 -101.167 -104.001 -180.5c-23.333 -66 -40 -137.5 -50 -214.5s-15 -145.833 -15 -206.5c0 -80.667 13.333 -139.167 40 -175.5s65.334 -54.5 116.001 -54.5c54.667 0 102 22.333 142 67s71.667 99.667 95 165
c23.333 64 41 134.833 53 212.5s18 151.5 18 221.5z" />
    <glyph glyph-name="p" unicode="p" horiz-adv-x="1357" 
d="M1292 632c0 -89.333 -15.833 -174.502 -47.5 -255.502s-74.834 -151.167 -129.501 -210.5c-56.667 -61.333 -120.334 -108.666 -191.001 -141.999s-148.667 -50 -234 -50c-64 0 -115.5 6.16699 -154.5 18.5s-72.833 29.833 -101.5 52.5l-61 -266c-2 -8 -4 -17.5 -6 -28.5
s-3 -18.833 -3 -23.5c0 -15.333 3.33301 -29.333 10 -42s16.667 -22 30 -28c14.667 -6.66699 38.334 -13.167 71.001 -19.5s59.667 -10.166 81 -11.499l-16 -70h-722l16 70c17.333 1.33301 39 3.83301 65 7.5s45.667 7.5 59 11.5c22.667 7.33301 40 18.833 52 34.5
s20.667 36.834 26 63.501l198 872l15.5 74c6.33301 30 9.5 54.667 9.5 74c0 35.333 -7.33301 60.833 -22 76.5s-43.667 23.5 -87 23.5c-20 0 -41.667 -3.33301 -65 -10s-42.666 -13 -57.999 -19l22 90c54 22 105.667 40.833 155 56.5s96 23.5 140 23.5
c36.667 0 69 -3.5 97 -10.5s52.667 -18.167 74 -33.5c18 -12.667 32.833 -28 44.5 -46s21.5 -36.333 29.5 -55h8c61.333 53.333 121 92.666 179 117.999s113.667 38 167 38c116 0 203.167 -34.167 261.5 -102.5s87.5 -161.833 87.5 -280.5zM847 237.998
c28.667 58 50.335 118.999 65.002 182.999s22 135.667 22 215c0 32.667 -2.33301 62.834 -7 90.501s-13 51.5 -25 71.5c-12 20.667 -28.167 36.667 -48.5 48s-45.833 17 -76.5 17c-35.333 0 -70 -11 -104 -33s-59 -42.667 -75 -62l-124 -549c0 -46 13.333 -84.167 40 -114.5
s65 -45.5 115 -45.5c41.333 0 81.166 16 119.499 48s71.166 75.667 98.499 131z" />
    <glyph glyph-name="q" unicode="q" horiz-adv-x="1331" 
d="M732 98l-8 -0.00292969l-55 -39.5c-24 -17 -47 -30.833 -69 -41.5c-26 -13.333 -54.333 -24.666 -85 -33.999s-64 -14 -100 -14c-116 0 -203.333 34.167 -262 102.5s-88 161.833 -88 280.5c0 91.333 16 177 48 257s75.333 150.333 130 211c54 60 118 107.5 192 142.5
s151.667 52.5 233 52.5c63.333 0 116.833 -6.16699 160.5 -18.5s82.5 -32.166 116.5 -59.499l306 63l14 -16l-277 -1205c-2 -8.66699 -4 -18.5 -6 -29.5s-3 -18.5 -3 -22.5c0 -15.333 3.33301 -29.333 10 -42s16.667 -22 30 -28c14.667 -6.66699 37.5 -13.167 68.5 -19.5
s57.167 -10.166 78.5 -11.499l-16 -70h-722l16 70c16.667 1.33301 39 3.83301 67 7.5s48.333 7.5 61 11.5c23.333 8 41 19.833 53 35.5s20.667 36.5 26 62.5zM883 759.997c0 16.667 -2.16699 33.8311 -6.5 51.498s-12.833 34.5 -25.5 50.5
c-12.667 16.667 -28.334 29.834 -47.001 39.501s-44 14.5 -76 14.5c-44 0 -84.333 -15.667 -121 -47s-69 -73.666 -97 -126.999c-27.333 -52.667 -48.666 -114 -63.999 -184s-23 -140 -23 -210c0 -32.667 2.5 -63 7.5 -91s13.167 -51.667 24.5 -71
c12 -20.667 28.167 -36.667 48.5 -48s45.833 -17 76.5 -17c33.333 0 66.5 10.333 99.5 31s59.167 42 78.5 64z" />
    <glyph glyph-name="r" unicode="r" horiz-adv-x="1093" 
d="M1106 807c0 -30 -4.33594 -59.002 -13.0029 -87.002s-21.667 -52 -39 -72c-19.333 -22.667 -39.666 -39.5 -60.999 -50.5s-51.333 -16.5 -90 -16.5c-50 0 -89.333 12.333 -118 37s-43 52.334 -43 83.001c0 28.667 4.16699 53.334 12.5 74.001l39.5 94
c-44.667 -18.667 -83 -41.5 -115 -68.5s-62.667 -57.833 -92 -92.5l-158 -708h-331l138 615l15.5 73c6.33301 30 9.5 55 9.5 75c0 38.667 -7.5 65 -22.5 79s-43.833 21 -86.5 21c-21.333 0 -43.166 -3.33301 -65.499 -10s-41.5 -13 -57.5 -19l22 90
c54 22 105.667 40.833 155 56.5s96 23.5 140 23.5c78.667 0 137.5 -15.5 176.5 -46.5s64.833 -74.5 77.5 -130.5h7c66 70 122 118.833 168 146.5s95.333 41.5 148 41.5c56.667 0 101.334 -17.833 134.001 -53.5s49 -87.167 49 -154.5z" />
    <glyph glyph-name="s" unicode="s" horiz-adv-x="1059" 
d="M435 -33c-84 0 -153.495 6.83496 -208.495 20.502s-98.5 31.167 -130.5 52.5c-32.667 21.333 -55 44.166 -67 68.499s-18 47.166 -18 68.499c0 38.667 14.5 72.5 43.5 101.5s67.5 43.5 115.5 43.5c40 0 73.5 -10.333 100.5 -31s49.5 -46.667 67.5 -78
c16.667 -28.667 30.667 -60.334 42 -95.001s19.333 -60.334 24 -77.001c75.333 0 132.333 16.167 171 48.5s58 76.5 58 132.5c0 24.667 -5.83301 45.334 -17.5 62.001s-27.167 31.334 -46.5 44.001c-19.333 12 -44 23.667 -74 35s-59.667 22 -89 32
c-80.667 27.333 -144.5 65.166 -191.5 113.499s-70.5 108.5 -70.5 180.5c0 42.667 9.83301 82.834 29.5 120.501s50.5 72.5 92.5 104.5c41.333 30.667 93.666 55.167 156.999 73.5s137.333 27.5 222 27.5c50.667 0 97.667 -3 141 -9s83.666 -17 120.999 -33
c35.333 -16 62.833 -36.833 82.5 -62.5s29.5 -56.834 29.5 -93.501s-13.833 -68.167 -41.5 -94.5s-63.834 -39.5 -108.501 -39.5c-38.667 0 -70.834 10 -96.501 30s-46.5 43.667 -62.5 71c-16 28 -28.667 56.833 -38 86.5l-23 74.5
c-46.667 -2.66699 -89.167 -19.5 -127.5 -50.5s-57.5 -69.5 -57.5 -115.5c0 -28 4.5 -50 13.5 -66s21.167 -29.333 36.5 -40c17.333 -12 39.166 -23.167 65.499 -33.5s59.166 -22.166 98.499 -35.499c90.667 -32 159 -70.333 205 -115s69 -103.667 69 -177
c0 -48 -11.167 -94 -33.5 -138s-54.166 -80.667 -95.499 -110c-46 -32 -99 -56.167 -159 -72.5s-136.333 -24.5 -229 -24.5z" />
    <glyph glyph-name="t" unicode="t" horiz-adv-x="854" 
d="M408 -26c-80 0 -143.999 19.501 -191.999 58.501s-72 88.5 -72 148.5c0 24.667 1.66699 48 5 70s8.66602 50.333 15.999 85l124 532h-183l24 103h187l72 303h324l-70 -303h271l-24 -103h-270l-122 -532c-4.66699 -18.667 -9.16699 -41.334 -13.5 -68.001
s-6.5 -44 -6.5 -52c0 -38 10.5 -64.333 31.5 -79s53.167 -22 96.5 -22c20.667 0 49.167 4 85.5 12s61.833 14.667 76.5 20l-22 -90c-58.667 -26 -117.5 -46.333 -176.5 -61s-112.833 -22 -161.5 -22z" />
    <glyph glyph-name="u" unicode="u" horiz-adv-x="1403" 
d="M803 159l-7.00098 0.000976562c-70 -64 -136.667 -111.333 -200 -142s-136.666 -46 -219.999 -46c-74 0 -131.167 20.333 -171.5 61s-60.5 90 -60.5 148c0 20.667 1.16699 41.667 3.5 63s8.5 51.333 18.5 90l75 281c4.66699 18.667 10.167 44.167 16.5 76.5
s9.5 56.166 9.5 71.499c0 36.667 -7.5 62.5 -22.5 77.5s-44.167 22.5 -87.5 22.5c-21.333 0 -43.166 -3.33301 -65.499 -10s-41.5 -13 -57.5 -19l22 90c54 22 105.667 40.833 155 56.5s96 23.5 140 23.5c79.333 0 140.5 -19.833 183.5 -59.5s64.5 -88.834 64.5 -147.501
c0 -12 -1.33301 -34 -4 -66s-8 -61.667 -16 -89l-73 -266c-6.66699 -23.333 -12 -48.5 -16 -75.5s-6 -46.5 -6 -58.5c0 -31.333 7.33301 -56.166 22 -74.499s40 -27.5 76 -27.5c26 0 60.5 10.833 103.5 32.5s85.5 52.5 127.5 92.5l165 722l319 14l12 -14l-142 -615
c-4.66699 -19.333 -10.167 -45 -16.5 -77s-9.5 -55.667 -9.5 -71c0 -38.667 8.5 -65 25.5 -79s46.833 -21 89.5 -21c20 0 42.667 3.5 68 10.5s43.666 13.167 54.999 18.5l-22 -90c-66 -26 -118.667 -45.833 -158 -59.5s-85 -20.5 -137 -20.5c-73.333 0 -132 16.5 -176 49.5
s-71.667 75.5 -83 127.5z" />
    <glyph glyph-name="v" unicode="v" horiz-adv-x="1254" 
d="M1209 766c0 -94 -15.835 -189.329 -47.502 -285.996s-76.167 -182.334 -133.5 -257.001c-68 -87.333 -143.333 -151.666 -226 -192.999s-168.667 -62 -258 -62c-118.667 0 -213 27.667 -283 83s-105 134.666 -105 237.999c0 32 5.33301 66.333 16 103s24 79.667 40 129
c13.333 42 25.833 83.5 37.5 124.5s17.5 79.833 17.5 116.5c0 36 -8 61.667 -24 77s-44.667 23 -86 23c-21.333 0 -43.166 -3.33301 -65.499 -10s-41.5 -13 -57.5 -19l22 90c54 22 105.667 40.833 155 56.5s96 23.5 140 23.5c79.333 0 140.5 -19.833 183.5 -59.5
s64.5 -88.834 64.5 -147.501c0 -43.333 -5.83301 -89.333 -17.5 -138s-23.834 -92.334 -36.501 -131.001c-11.333 -34.667 -23.166 -74.5 -35.499 -119.5s-18.5 -80.833 -18.5 -107.5c0 -56.667 13.667 -102 41 -136s71.333 -51 132 -51
c90.667 0 169.334 33.833 236.001 101.5s100 158.834 100 273.501c0 11.333 -0.666992 23.666 -2 36.999s-4 28.333 -8 45c-7.33301 15.333 -21.666 31.666 -42.999 48.999s-39.333 33.333 -54 48c-19.333 19.333 -36.333 42.166 -51 68.499s-22 60.5 -22 102.5
c0 35.333 6.83301 64 20.5 86s30.167 40 49.5 54c16 11.333 35.167 20.333 57.5 27s43.166 10 62.499 10c62 0 110.667 -22.167 146 -66.5s53 -105.166 53 -182.499z" />
    <glyph glyph-name="w" unicode="w" horiz-adv-x="1912" 
d="M1867 766c0 -97.333 -16.002 -193.834 -48.002 -289.501s-76.667 -180.167 -134 -253.5c-59.333 -76 -130 -137.5 -212 -184.5s-175.667 -70.5 -281 -70.5c-97.333 0 -176.166 19 -236.499 57s-101.5 92.667 -123.5 164c-71.333 -78 -141.333 -133.833 -210 -167.5
s-144 -50.5 -226 -50.5c-77.333 0 -138.333 24 -183 72s-67 108.333 -67 181c0 26.667 2.66699 51.834 8 75.501s11.666 49.5 18.999 77.5l68 237c4.66699 18.667 10.167 44.167 16.5 76.5s9.5 56.166 9.5 71.499c0 35.333 -7.5 60.833 -22.5 76.5s-44.167 23.5 -87.5 23.5
c-21.333 0 -43.166 -3.33301 -65.499 -10s-41.5 -13 -57.5 -19l22 90c54 22 105.667 40.833 155 56.5s96 23.5 140 23.5c79.333 0 140.5 -19.833 183.5 -59.5s64.5 -89.834 64.5 -150.501c0 -22 -3.33301 -53.5 -10 -94.5s-14 -74.167 -22 -99.5l-58 -194
c-6.66699 -20.667 -12.5 -46.5 -17.5 -77.5s-7.5 -53.167 -7.5 -66.5c0 -38 10.5 -67.833 31.5 -89.5s45.5 -32.5 73.5 -32.5c8.66699 0 21.334 1.16699 38.001 3.5s34 7.83301 52 16.5c18.667 8.66699 41.5 22.5 68.5 41.5s53.167 42.833 78.5 71.5c0 12 1.5 29.5 4.5 52.5
s7.5 50.5 13.5 82.5l132 579l319 14l12 -14l-132 -573c-2 -8 -4.83301 -24.833 -8.5 -50.5s-5.5 -52.167 -5.5 -79.5c0 -57.333 13.833 -99.666 41.5 -126.999s68.5 -41 122.5 -41c90.667 0 168.834 33.833 234.501 101.5s98.5 158.167 98.5 271.5
c0 11.333 -0.666992 23.666 -2 36.999s-4 28.333 -8 45c-7.33301 15.333 -21 31 -41 47s-38.667 32.333 -56 49c-19.333 19.333 -36.333 42.833 -51 70.5s-22 61.5 -22 101.5c0 33.333 6.5 61.333 19.5 84s29.833 41.334 50.5 56.001c15.333 11.333 34.666 20.333 57.999 27
s44 10 62 10c64 0 113.167 -22.667 147.5 -68s51.5 -105.666 51.5 -180.999z" />
    <glyph glyph-name="x" unicode="x" horiz-adv-x="1195" 
d="M1218 866c0 -58 -18.4951 -104.165 -55.4951 -138.498s-82.167 -51.5 -135.5 -51.5c-32 0 -63.5 4 -94.5 12s-57.833 16 -80.5 24c-10.667 -7.33301 -26.334 -23.333 -47.001 -48s-44 -54.667 -70 -90c24 -102 43.333 -174.5 58 -217.5s28.667 -86.5 42 -130.5
c11.333 -35.333 28 -63 50 -83s56.667 -30 104 -30c17.333 0 39 3.33301 65 10s47.333 13.334 64 20.001l-22 -90c-66 -28 -123.667 -48.333 -173 -61s-93.333 -19 -132 -19c-28 0 -55.667 2.66699 -83 8s-52.333 15 -75 29c-24.667 14.667 -45.5 33 -62.5 55
s-31.5 52.667 -43.5 92c-8 24.667 -15.333 52.667 -22 84s-13.334 59 -20.001 83c-19.333 -28.667 -33.333 -50 -42 -64l-38 -59c-52.667 -80.667 -98.334 -138.167 -137.001 -172.5s-85 -51.5 -139 -51.5c-40.667 0 -75.334 13.667 -104.001 41s-43 63 -43 107
c0 59.333 18.5 106.166 55.5 140.499s82.167 51.5 135.5 51.5c32 0 62.667 -3.83301 92 -11.5s57 -16.167 83 -25.5c10 8 25.5 23.667 46.5 47s43.833 52.333 68.5 87c-22 89.333 -40 156.666 -54 201.999l-43 135c-12 36 -29.333 63.833 -52 83.5s-56.667 29.5 -102 29.5
c-20 0 -42.333 -3.5 -67 -10.5s-45.334 -13.5 -62.001 -19.5l22 90c60 26.667 116.833 46.667 170.5 60s98.5 20 134.5 20c32.667 0 60.667 -2.33301 84 -7s48 -14.667 74 -30c24 -14.667 44.833 -33.167 62.5 -55.5s32.167 -52.833 43.5 -91.5
c8 -26.667 15.333 -54.334 22 -83.001l17 -74l43.5 66l38.5 60c51.333 80.667 97.333 138.5 138 173.5s86.667 52.5 138 52.5c42 0 77 -13.833 105 -41.5s42 -63.5 42 -107.5z" />
    <glyph glyph-name="y" unicode="y" horiz-adv-x="1371" 
d="M803 160l-6.99609 0.00390625c-75.333 -68.667 -144.666 -116.334 -207.999 -143.001s-133.333 -40 -210 -40c-74 0 -131.5 20.667 -172.5 62s-61.5 91 -61.5 149c0 20.667 1.16699 41.667 3.5 63s8.5 51.333 18.5 90l75 273c4.66699 18.667 10.167 44.167 16.5 76.5
s9.5 56.166 9.5 71.499c0 38 -7.5 64.167 -22.5 78.5s-44.167 21.5 -87.5 21.5c-21.333 0 -43.166 -3.33301 -65.499 -10s-41.5 -13 -57.5 -19l22 90c54 22 105.667 40.833 155 56.5s96 23.5 140 23.5c79.333 0 140.5 -19.833 183.5 -59.5s64.5 -88.834 64.5 -147.501
c0 -12 -1.33301 -34 -4 -66s-8 -61.667 -16 -89l-73 -260c-6.66699 -23.333 -12 -48.333 -16 -75s-6 -46 -6 -58c0 -33.333 8.16699 -58.666 24.5 -75.999s42.166 -26 77.499 -26c29.333 0 66.5 11.167 111.5 33.5s86.5 52.166 124.5 89.499l152 717l317 14l14 -16
l-175 -813c-26.667 -121.333 -64 -221.5 -112 -300.5s-103.667 -141.833 -167 -188.5c-60.667 -44.667 -126.334 -76.834 -197.001 -96.501s-142.334 -29.5 -215.001 -29.5c-79.333 0 -145.166 5.83301 -197.499 17.5s-93.166 27.834 -122.499 48.501
c-26.667 18.667 -44.834 39.5 -54.501 62.5s-14.5 45.5 -14.5 67.5c0 38.667 13.667 73 41 103s64.666 45 111.999 45c36 0 68.167 -9.66699 96.5 -29s53.166 -42.666 74.499 -69.999c20.667 -26 39.167 -54.833 55.5 -86.5s28.833 -57.5 37.5 -77.5
c12 2 26.833 6.16699 44.5 12.5s32.5 13.5 44.5 21.5c17.333 11.333 32.666 22.666 45.999 33.999s28.666 28.666 45.999 51.999c33.333 44.667 63 100 89 166s48 145 66 237z" />
    <glyph glyph-name="z" unicode="z" horiz-adv-x="1059" 
d="M1084 986l-15 -71.999l-708 -830c24 -0.666992 48.167 -1.16699 72.5 -1.5s52.5 -0.5 84.5 -0.5c24 0 48.167 0.333008 72.5 1s56.5 2.66699 96.5 6c26 2.66699 48.667 12 68 28s35 35 47 57c9.33301 16.667 25.833 44.5 49.5 83.5s42.5 74.167 56.5 105.5h70l-71 -363
h-934l18 83l697 819h-118c-58 0 -99.5 -1 -124.5 -3s-53.833 -9 -86.5 -21c-22.667 -8.66699 -49 -33.334 -79 -74.001s-55.667 -86 -77 -136h-71l62 318h890z" />
    <glyph glyph-name="braceleft" unicode="{" horiz-adv-x="1024" 
d="M777 -333c-73.333 0 -144.996 3.50098 -214.996 10.501s-126.667 19.5 -170 37.5c-46 20 -81.667 48.5 -107 85.5s-38 86.5 -38 148.5c0 15.333 1 30.833 3 46.5s4.33301 32.834 7 51.501c5.33301 32.667 14.666 74.167 27.999 124.5s23 93.5 29 129.5
c2.66699 16.667 4.66699 30.834 6 42.501s2 23.167 2 34.5c0 50.667 -16.333 88 -49 112s-99.667 39.667 -201 47l34 150c45.333 3.33301 90.666 8.66602 135.999 15.999s82.666 18.666 111.999 33.999c32 16.667 59.167 39.5 81.5 68.5s37.5 68.167 45.5 117.5
c6.66699 39.333 11.667 77.5 15 114.5s8.33301 76.833 15 119.5c13.333 81.333 38.333 146.833 75 196.5s83.667 88.5 141 116.5s124.333 46.167 201 54.5s157.334 12.5 242.001 12.5l-15 -83c-37.333 -2.66699 -69.333 -6 -96 -10s-55.334 -14.667 -86.001 -32
c-28.667 -16 -52.167 -38 -70.5 -66s-32.833 -69.667 -43.5 -125l-34 -190c-13.333 -71.333 -35.333 -130.166 -66 -176.499s-67.667 -83.833 -111 -112.5c-42.667 -28 -89.167 -49.833 -139.5 -65.5s-100.5 -27.834 -150.5 -36.501l-18 -76
c98 -20.667 169 -54.334 213 -101.001s66 -107.334 66 -182.001c0 -15.333 -0.833008 -32.666 -2.5 -51.999s-4.5 -38 -8.5 -56l-40 -190c-2 -9.33301 -3.33301 -19.5 -4 -30.5s-1 -20.833 -1 -29.5c0 -38 6.83301 -67.833 20.5 -89.5s31.167 -38.5 52.5 -50.5
c21.333 -11.333 46.666 -19.333 75.999 -24s56 -7.66699 80 -9z" />
    <glyph glyph-name="bar" unicode="|" horiz-adv-x="794" 
d="M505 -424h-171v1947h171v-1947z" />
    <glyph glyph-name="braceright" unicode="}" horiz-adv-x="1024" 
d="M976 666l-33.998 -149.995c-56.667 -4 -102.667 -8.66699 -138 -14s-72 -17.333 -110 -36c-33.333 -16.667 -60.5 -39.667 -81.5 -69s-36.167 -68.333 -45.5 -117c-7.33301 -39.333 -12.333 -77.333 -15 -114s-7.66699 -76.667 -15 -120
c-12.667 -79.333 -37 -144.5 -73 -195.5s-83.333 -90.167 -142 -117.5s-124.167 -45.333 -196.5 -54s-154.833 -13 -247.5 -13l15 83c32 2 64 5.66699 96 11s61 15.666 87 30.999s49.167 38 69.5 68s34.833 71 43.5 123l34 190c12.667 72 34.5 130.667 65.5 176
s68.167 83 111.5 113c40 27.333 86.333 48.666 139 63.999s103 28 151 38l18 76c-40.667 8.66699 -77.834 20.167 -111.501 34.5s-62.834 32.166 -87.501 53.499c-26 23.333 -45.833 50.833 -59.5 82.5s-20.5 69.167 -20.5 112.5c0 20 1 38.667 3 56
s4.66699 34.666 8 51.999l40 190c2 10 3.33301 20.167 4 30.5s1 20.166 1 29.499c0 37.333 -6.66699 67 -20 89s-31 39 -53 51c-20 10.667 -44.5 18.334 -73.5 23.001s-56.5 8 -82.5 10l15 83c82 0 155 -3.16699 219 -9.5s119.333 -19.166 166 -38.499
c46 -20 81.667 -48.5 107 -85.5s38 -86.5 38 -148.5c0 -12.667 -0.833008 -28.167 -2.5 -46.5s-4.16699 -35.5 -7.5 -51.5c-6.66699 -37.333 -15.667 -77.333 -27 -120s-21.333 -87.334 -30 -134.001c-2.66699 -15.333 -4.66699 -29.5 -6 -42.5s-2 -24.5 -2 -34.5
c0 -58.667 20.667 -98.834 62 -120.501s104 -34.5 188 -38.5z" />
    <glyph glyph-name="asciitilde" unicode="~" 
d="M1317 735c-13.333 -36.667 -31.165 -74.335 -53.498 -113.002s-47.166 -73 -74.499 -103c-34 -37.333 -70.833 -67.166 -110.5 -89.499s-81.834 -33.5 -126.501 -33.5c-50.667 0 -96.834 8.83301 -138.501 26.5s-81.834 37.834 -120.501 60.501
c-30.667 18 -66 37.167 -106 57.5s-75.667 30.5 -107 30.5c-44 0 -82.333 -15.833 -115 -47.5s-64 -82.167 -94 -151.5l-104 42c10 29.333 25.833 63.666 47.5 102.999s48.5 77 80.5 113c30 34 65.5 63 106.5 87s84.5 36 130.5 36c54.667 0 103.167 -9.5 145.5 -28.5
s80.833 -38.833 115.5 -59.5c35.333 -21.333 70.166 -41.166 104.499 -59.499s69.833 -27.5 106.5 -27.5c46.667 0 86.334 17.5 119.001 52.5s62.667 83.833 90 146.5z" />
    <glyph glyph-name="exclamdown" unicode="&#xa1;" horiz-adv-x="771" 
d="M754 1262c0 -50.667 -19.167 -94.5 -57.5 -131.5s-83.5 -55.5 -135.5 -55.5c-51.333 0 -96.166 18.5 -134.499 55.5s-57.5 80.833 -57.5 131.5s19.167 94.167 57.5 130.5s83.166 54.5 134.499 54.5c52 0 97.167 -18.167 135.5 -54.5s57.5 -79.833 57.5 -130.5zM535 956
c-8 -156.667 -11.832 -290.668 -11.499 -402.001s0.5 -190.333 0.5 -237c0 -33.333 -0.833008 -64.5 -2.5 -93.5s-4.83398 -52.167 -9.50098 -69.5c-14.667 -60 -44 -105.5 -88 -136.5s-93 -46.5 -147 -46.5c-45.333 0 -82.833 13.667 -112.5 41s-44.5 61.333 -44.5 102
c0 26 4.5 52.833 13.5 80.5s24.833 66.834 47.5 117.501l120.5 266c55 122 107.167 248 156.5 378h77z" />
    <glyph glyph-name="cent" unicode="&#xa2;" horiz-adv-x="1240" 
d="M1124 262c-23.333 -32 -49.167 -63.8301 -77.5 -95.4971s-60.166 -59.834 -95.499 -84.501c-34 -23.333 -72.667 -44 -116 -62s-94.333 -31 -153 -39l-61 -280h-99l61 278c-148.667 2 -264 38.333 -346 109s-123 170 -123 298c0 165.333 64.167 310.166 192.5 434.499
s296.833 191.166 505.5 200.499l57 255h99l-57 -256c50 -4.66699 92.5 -14 127.5 -28s63.5 -29.667 85.5 -47c20 -16 35.667 -34.333 47 -55s17 -41 17 -61c0 -45.333 -17.333 -84.833 -52 -118.5s-83.667 -50.5 -147 -50.5c-28 0 -55.5 11.5 -82.5 34.5
s-41.833 56.833 -44.5 101.5l-149 -678c73.333 0 136.666 16.167 189.999 48.5s105.333 81.5 156 147.5zM617.999 135.003l175.999 803c-34 -4 -69.5 -17 -106.5 -39s-72.5 -54.667 -106.5 -98c-32.667 -42.667 -59.667 -96.5 -81 -161.5s-32 -140.5 -32 -226.5
c0 -75.333 13.833 -136 41.5 -182s63.834 -78 108.501 -96z" />
    <glyph glyph-name="sterling" unicode="&#xa3;" horiz-adv-x="1413" 
d="M1021 1372c-14 0 -30.1631 -2.33398 -48.4961 -7.00098s-40.5 -18 -66.5 -40c-22.667 -20 -44.167 -48.5 -64.5 -85.5s-37.5 -88.5 -51.5 -154.5c-9.33301 -44.667 -19 -102 -29 -172s-20 -128 -30 -174h394l-25 -111h-384c-32 -98 -71.5 -170.5 -118.5 -217.5
s-110.833 -90.167 -191.5 -129.5v-16h835l-61 -265h-1171l44 188c66 20.667 119 46.334 159 77.001s71 65.667 93 105c22 38.667 38 79.834 48 123.501s17 88.5 21 134.5h-200l25 111h190l15 113c6.66699 49.333 13 93 19 131c21.333 135.333 92 248.666 212 339.999
s263 137 429 137c100 0 182.833 -24.333 248.5 -73s98.5 -110 98.5 -184c0 -57.333 -15.333 -103.833 -46 -139.5s-71.334 -53.5 -122.001 -53.5c-52.667 0 -95.167 14.5 -127.5 43.5s-48.5 67.167 -48.5 114.5c0 28 5.16699 59 15.5 93s21.166 66.667 32.499 98
c-12.667 5.33301 -27.334 8.83301 -44.001 10.5s-33.334 2.5 -50.001 2.5z" />
    <glyph glyph-name="currency" unicode="&#xa4;" 
d="M1267 156l-106.002 -110.999l-236 231c-32 -16.667 -61.667 -29.667 -89 -39s-59 -14 -95 -14c-30.667 0 -62.167 5.16699 -94.5 15.5s-61.5 22.833 -87.5 37.5l-238 -233l-106 115l231 233c-16.667 26 -29.667 55 -39 87s-14 63 -14 93s4.5 60.667 13.5 92
s22.167 61.666 39.5 90.999l-231 237l110 109l234 -234c25.333 16 54.333 29 87 39s64.334 15 95.001 15c30 0 60.833 -4.66699 92.5 -14s60.834 -22 87.501 -38l234 232l112 -109l-231 -237c14.667 -26 27.167 -55 37.5 -87s15.5 -64 15.5 -96
c0 -29.333 -5.16699 -60.5 -15.5 -93.5s-22.833 -61.833 -37.5 -86.5zM943.998 571.001c0 56.667 -20 105.332 -60 145.999s-87.667 61 -143 61c-56.667 0 -105 -20.167 -145 -60.5s-60 -89.166 -60 -146.499c0 -55.333 20 -103.5 60 -144.5s88.333 -61.5 145 -61.5
c54.667 0 102.167 20 142.5 60s60.5 88.667 60.5 146z" />
    <glyph glyph-name="yen" unicode="&#xa5;" horiz-adv-x="1500" 
d="M1701 1419l-17.0029 -72.001c-20 -2 -39.333 -6.16699 -58 -12.5s-38.334 -14.833 -59.001 -25.5c-32 -16 -61 -35.167 -87 -57.5s-55.667 -51.5 -89 -87.5l-226 -255.5l-253 -293.5l-9 -34h434l-26 -112h-431l-54 -236c-2 -8 -4 -17.5 -6 -28.5s-3 -21.167 -3 -30.5
c0 -18 4.16699 -32.667 12.5 -44s18.833 -20 31.5 -26s34.834 -12.333 66.501 -19s58.167 -11 79.5 -13l-17 -72h-779l17 72c18.667 1.33301 46.167 4 82.5 8s61.833 8.66699 76.5 14c27.333 10.667 47.833 25.5 61.5 44.5s22.834 39.833 27.501 62.5l61 268h-431l26 112
h433l5 22l-104 296l-100 272c-14 36 -29.5 65.5 -46.5 88.5s-36.833 41.167 -59.5 54.5c-16 9.33301 -34.667 16.833 -56 22.5s-40.666 9.16699 -57.999 10.5l17 72h763l-17 -72c-13.333 -0.666992 -31.333 -1.5 -54 -2.5s-45 -3.16699 -67 -6.5
c-20 -3.33301 -37.667 -9.16602 -53 -17.499s-23 -19.5 -23 -33.5c0 -10 1.83301 -24.167 5.5 -42.5s12.834 -50.5 27.501 -96.5c12.667 -40 30.834 -92.667 54.501 -158l88.5 -243l210 244l125 148c43.333 53.333 70.166 88.166 80.499 104.499s15.5 29.833 15.5 40.5
c0 18.667 -11.333 32.834 -34 42.501s-63 16.5 -121 20.5l17 72h520z" />
    <glyph glyph-name="brokenbar" unicode="&#xa6;" horiz-adv-x="794" 
d="M505 723h-171v800h171v-800zM505 -424h-171v810h171v-810z" />
    <glyph glyph-name="section" unicode="&#xa7;" horiz-adv-x="1154" 
d="M798 604c0 27.333 -6.5 51.833 -19.5 73.5s-31.167 41.5 -54.5 59.5c-23.333 17.333 -51.333 34.333 -84 51l-106 52c-39.333 -26 -71.333 -59 -96 -99s-37 -79.667 -37 -119c0 -29.333 7 -55.333 21 -78s32.333 -42.667 55 -60c23.333 -18 51.333 -35.333 84 -52
s67 -33.334 103 -50.001c48 32.667 82.333 66.834 103 102.501s31 75.5 31 119.5zM105 -163c-25.333 20 -42.667 41.9951 -52 65.9951s-14 46 -14 66c0 36 11.5 66 34.5 90s54.5 36 94.5 36c29.333 0 54.5 -7.83301 75.5 -23.5s38.833 -35.834 53.5 -60.501
c12.667 -22.667 24 -48.167 34 -76.5l29 -83.5c3.33301 0 6.33301 -0.166992 9 -0.5s5.33398 -0.5 8.00098 -0.5c79.333 0 140.333 15 183 45s64 75.333 64 136c0 24.667 -5.83301 46.334 -17.5 65.001s-29.5 36.334 -53.5 53.001c-22.667 16 -51.167 32.167 -85.5 48.5
l-107.5 49.5c-77.333 35.333 -134.833 75.666 -172.5 120.999s-56.5 98.333 -56.5 159c0 80.667 24.833 148.334 74.5 203.001s133.834 102.334 252.501 143.001c-61.333 28 -104.833 62.333 -130.5 103s-38.5 84 -38.5 130c0 100 50 183 150 249s225.667 99 377 99
c64.667 0 119 -6.16699 163 -18.5s79 -29.166 105 -50.499c23.333 -19.333 39.833 -40.5 49.5 -63.5s14.5 -45.833 14.5 -68.5c0 -34 -10.667 -63.5 -32 -88.5s-53.666 -37.5 -96.999 -37.5c-30.667 0 -56 7.83301 -76 23.5s-37.667 35.834 -53 60.501
c-16 28 -27.833 54.333 -35.5 79s-16.834 51.667 -27.501 81c-2 0.666992 -4.66699 1 -8 1h-8c-69.333 0 -127.5 -15.333 -174.5 -46s-70.5 -75 -70.5 -133c0 -26 6.5 -48.667 19.5 -68s31.167 -36.666 54.5 -51.999s53.833 -31.833 91.5 -49.5l106.5 -48.5
c76.667 -34.667 134 -74.5 172 -119.5s57 -98.167 57 -159.5c0 -78.667 -24.833 -146 -74.5 -202s-133.834 -104.333 -252.501 -145c50 -22 89.5 -52.5 118.5 -91.5s43.5 -83.5 43.5 -133.5c0 -100.667 -48 -185.167 -144 -253.5s-224.667 -102.5 -386 -102.5
c-66.667 0 -121.834 6.5 -165.501 19.5s-77.5 29.5 -101.5 49.5z" />
    <glyph glyph-name="dieresis" unicode="&#xa8;" horiz-adv-x="1024" 
d="M1056 1349c0 -44.667 -15.5 -83.5 -46.5 -116.5s-67.833 -49.5 -110.5 -49.5c-44 0 -81.333 16.667 -112 50s-46 72 -46 116c0 44.667 15.333 83.5 46 116.5s68 49.5 112 49.5c42.667 0 79.5 -16.5 110.5 -49.5s46.5 -71.833 46.5 -116.5zM561 1349
c0 -44.667 -15.667 -83.5 -47 -116.5s-68.333 -49.5 -111 -49.5c-43.333 0 -80.333 16.333 -111 49s-46 71.667 -46 117c0 44.667 15.167 83.5 45.5 116.5s67.5 49.5 111.5 49.5c42.667 0 79.667 -16.5 111 -49.5s47 -71.833 47 -116.5z" />
    <glyph glyph-name="copyright" unicode="&#xa9;" horiz-adv-x="1929" 
d="M1869 602c0 -244 -86.333 -452.167 -259 -624.5s-381 -258.5 -625 -258.5s-452.333 86.167 -625 258.5s-259 380.5 -259 624.5s86.333 452.167 259 624.5s381 258.5 625 258.5s452.333 -86.167 625 -258.5s259 -380.5 259 -624.5zM1771 602c0 220 -76 407.667 -228 563
s-338 233 -558 233s-406 -77.667 -558 -233s-228 -343 -228 -563s76 -407.667 228 -563s338 -233 558 -233s406 77.667 558 233s228 343 228 563zM1413 381c-16 -37.333 -36.333 -72.5 -61 -105.5s-55 -61.167 -91 -84.5c-37.333 -24.667 -76.333 -43.5 -117 -56.5
s-89.667 -19.5 -147 -19.5c-67.333 0 -132 10.833 -194 32.5s-115.333 52.834 -160 93.501c-45.333 41.333 -81 91.166 -107 149.499s-39 125.5 -39 201.5c0 148 49.5 269 148.5 363s223.5 141 373.5 141c52.667 0 99.834 -6.66699 141.501 -20s76.5 -27.333 104.5 -42
l35 51h65l4 -370h-69c-34 104 -71.333 180.333 -112 229s-94 73 -160 73c-78.667 0 -139 -35.833 -181 -107.5s-63 -169.5 -63 -293.5c0 -124.667 22.667 -221 68 -289s111.666 -102 198.999 -102c66.667 0 123.5 16 170.5 48s88.833 80 125.5 144z" />
    <glyph glyph-name="ordfeminine" unicode="&#xaa;" horiz-adv-x="1130" 
d="M1209 761l-20 -78.001c-54.667 -20.667 -98.834 -36.667 -132.501 -48s-72.167 -17 -115.5 -17c-58 0 -104.5 11.5 -139.5 34.5s-58.5 50.5 -70.5 82.5h-7c-38.667 -35.333 -80.5 -65.166 -125.5 -89.499s-95.167 -36.5 -150.5 -36.5c-98 0 -170.667 27.833 -218 83.5
s-71 131.5 -71 227.5c0 148 49.5 274.5 148.5 379.5s216.833 157.5 353.5 157.5c48.667 0 90.834 -5.5 126.501 -16.5s66.167 -26.5 91.5 -46.5l258 51l11 -13l-118 -494c-4.66699 -16 -9.5 -36.667 -14.5 -62s-7.5 -44.666 -7.5 -57.999c0 -30.667 7 -51.834 21 -63.501
s39.333 -17.5 76 -17.5c14 0 31.333 2.5 52 7.5s38 10.5 52 16.5zM826 1245c0 12.667 -1.33301 26.666 -4 41.999s-8 29 -16 41c-8 12.667 -19.667 23 -35 31s-35.666 12 -60.999 12c-70.667 0 -129.834 -44.667 -177.501 -134s-71.5 -194.666 -71.5 -315.999
c0 -64.667 10 -111.5 30 -140.5s52 -43.5 96 -43.5c28 0 54 9 78 27s44 36 60 54z" />
    <glyph glyph-name="guillemotleft" unicode="&#xab;" horiz-adv-x="1250" 
d="M619 139l-60.998 -43l-215 179c-62.667 52 -110.667 94 -144 126c-14.667 14 -25.834 29.333 -33.501 46s-11.5 34.667 -11.5 54c0 41.333 8.66699 76.5 26 105.5s45.666 56.833 84.999 83.5l189.5 124l291.5 181l41 -43l-391 -419zM1058 139l-60.998 -43l-215 179
c-62.667 52 -110.667 94 -144 126c-14.667 14 -25.834 29.333 -33.501 46s-11.5 34.667 -11.5 54c0 41.333 8.66699 76.5 26 105.5s45.666 56.833 84.999 83.5l189.5 124l291.5 181l41 -43l-391 -419z" />
    <glyph glyph-name="logicalnot" unicode="&#xac;" 
d="M1288 50h-170v473h-932v163h1102v-636z" />
    <glyph glyph-name="registered" unicode="&#xae;" horiz-adv-x="1929" 
d="M1869 602c0 -244 -86.333 -452.167 -259 -624.5s-381 -258.5 -625 -258.5s-452.333 86.167 -625 258.5s-259 380.5 -259 624.5s86.333 452.167 259 624.5s381 258.5 625 258.5s452.333 -86.167 625 -258.5s259 -380.5 259 -624.5zM1771 602c0 220 -76 407.667 -228 563
s-338 233 -558 233s-406 -77.667 -558 -233s-228 -343 -228 -563s76 -407.667 228 -563s338 -233 558 -233s406 77.667 558 233s228 343 228 563zM1594 145l-362 -0.00195312c-64 98 -116.5 174.833 -157.5 230.5s-89.833 117.5 -146.5 185.5h-34v-269
c0 -16.667 2.5 -30.167 7.5 -40.5s16.833 -19.5 35.5 -27.5c8 -3.33301 19.833 -7.5 35.5 -12.5s29.5 -7.83301 41.5 -8.5v-58h-482v58c12.667 1.33301 27.834 3.5 45.501 6.5s31.5 6.5 41.5 10.5c17.333 7.33301 28.666 16.5 33.999 27.5s8 24.5 8 40.5v636
c0 16.667 -2 29.834 -6 39.501s-16 18.834 -36 27.501c-12.667 5.33301 -27.834 10.5 -45.501 15.5s-31.5 8.5 -41.5 10.5v58h515c116 0 204.333 -18.167 265 -54.5s91 -91.5 91 -165.5c0 -69.333 -20.167 -123.333 -60.5 -162s-95.166 -68 -164.499 -88l92 -118.5
l135 -170.5c13.333 -16.667 31.666 -35.667 54.999 -57s44 -35.333 62 -42c8 -2.66699 20.333 -5.66699 37 -9s28.334 -5 35.001 -5v-58zM1144 835.998c0 62 -17.333 105.668 -52 131.001s-84 38 -148 38h-50v-376h48c66 0 116.167 16.667 150.5 50
s51.5 85.666 51.5 156.999z" />
    <glyph glyph-name="macron" unicode="&#xaf;" 
d="M1685 1724l-28 -120h-1450l28 120h1450z" />
    <glyph glyph-name="degree" unicode="&#xb0;" horiz-adv-x="860" 
d="M855 1129c0 -93.333 -31.833 -171.833 -95.5 -235.5s-146.5 -95.5 -248.5 -95.5s-184.667 32.167 -248 96.5s-95 142.5 -95 234.5c0 95.333 32.5 174.333 97.5 237s146.833 94 245.5 94c101.333 0 184 -31.833 248 -95.5s96 -142.167 96 -235.5zM675 1121
c0 81.333 -15.001 143.001 -45.001 185.001s-70 63 -120 63c-51.333 0 -91.166 -21.833 -119.499 -65.5s-42.5 -100.834 -42.5 -171.501c0 -76.667 14.333 -136.5 43 -179.5s69.667 -64.5 123 -64.5c45.333 0 83.5 20.5 114.5 61.5s46.5 98.167 46.5 171.5z" />
    <glyph glyph-name="plusminus" unicode="&#xb1;" 
d="M1297 0h-1111v163h473v395h-473v163h473v473h165v-473h473v-163h-473v-395h473v-163z" />
    <glyph glyph-name="twosuperior" unicode="&#xb2;" horiz-adv-x="1130" 
d="M636 1377c-15.333 0 -31.002 -2 -47.002 -6s-31.333 -8.66699 -46 -14l21.5 -60c7.66699 -21.333 11.5 -47 11.5 -77c0 -34.667 -12.167 -63.167 -36.5 -85.5s-56.5 -33.5 -96.5 -33.5c-37.333 0 -67.5 12.833 -90.5 38.5s-34.5 56.834 -34.5 93.501
c0 56.667 34.667 108.167 104 154.5s158.333 69.5 267 69.5c124 0 221 -21.333 291 -64s105 -101.334 105 -176.001c0 -61.333 -12.667 -114.5 -38 -159.5s-58.666 -83.167 -99.999 -114.5c-40 -30 -83.5 -55.167 -130.5 -75.5s-89.833 -37.5 -128.5 -51.5l-147.5 -55
l-144.5 -56l-3 -12h629l-47 -203h-824l35 151c36 30 101 71.833 195 125.5s156.667 90.5 188 110.5c26 16.667 53.333 37.167 82 61.5s53.334 50.833 74.001 79.5c22.667 31.333 40.667 63.5 54 96.5s20 71.833 20 116.5c0 51.333 -14.333 88.5 -43 111.5
s-68.667 34.5 -120 34.5z" />
    <glyph glyph-name="threesuperior" unicode="&#xb3;" horiz-adv-x="1130" 
d="M679 591c23.333 22.667 40.834 51.334 52.501 86.001s17.5 77 17.5 127c0 42.667 -12.667 74.167 -38 94.5s-63.333 30.5 -114 30.5h-88l23 96h62c66 0 118 20.167 156 60.5s57 97.5 57 171.5c0 36.667 -14.167 65.834 -42.5 87.501s-63.833 32.5 -106.5 32.5
c-15.333 0 -32.833 -1.83301 -52.5 -5.5s-36.834 -8.16699 -51.501 -13.5l21 -58.5c7.33301 -20.333 11 -45.5 11 -75.5c0 -34.667 -11.167 -62.667 -33.5 -84s-53.5 -32 -93.5 -32c-37.333 0 -67.5 12.5 -90.5 37.5s-34.5 55.833 -34.5 92.5c0 58 38 109 114 153
s163.667 66 263 66c70.667 0 130.167 -6.66699 178.5 -20s86.5 -30.333 114.5 -51s47.167 -42.667 57.5 -66s15.5 -45.333 15.5 -66c0 -22 -4.5 -46.667 -13.5 -74s-23.5 -52 -43.5 -74c-22.667 -24 -52 -45.833 -88 -65.5s-84.667 -35.167 -146 -46.5v-11
c30 -2.66699 58.667 -7.5 86 -14.5s53.333 -18.167 78 -33.5c24 -16 43.167 -35.167 57.5 -57.5s21.5 -52.166 21.5 -89.499c0 -99.333 -45.667 -180.166 -137 -242.499s-202.666 -93.5 -333.999 -93.5c-114 0 -206 21.167 -276 63.5s-105 94.833 -105 157.5
c0 37.333 11 68.666 33 93.999s52.667 38 92 38c40 0 72 -11.333 96 -34s36 -51.334 36 -86.001c0 -27.333 -3.66699 -51.333 -11 -72s-14.333 -39.334 -21 -56.001c14 -6.66699 30.667 -12.334 50 -17.001s37 -7 53 -7c31.333 0 63.166 4.66699 95.499 14s58.5 24 78.5 44z
" />
    <glyph glyph-name="acute" unicode="&#xb4;" horiz-adv-x="1024" 
d="M943 1460c0 -30 -6.83203 -54.168 -20.499 -72.501s-35.5 -37.166 -65.5 -56.499c-32.667 -21.333 -84.334 -51.5 -155.001 -90.5s-150.667 -85.5 -240 -139.5l-42 38c58.667 78 104 140.167 136 186.5l83 118.5c28.667 40.667 56 68.167 82 82.5s58.333 21.5 97 21.5
c32 0 60.833 -8.66699 86.5 -26s38.5 -38 38.5 -62z" />
    <glyph glyph-name="mu1" unicode="&#xb5;" horiz-adv-x="1386" 
d="M796 264l165.002 721.998l319 14l12 -14l-142 -615c-4.66699 -19.333 -10.167 -45 -16.5 -77s-9.5 -55.667 -9.5 -71c0 -38.667 8.5 -65 25.5 -79s46.833 -21 89.5 -21c20 0 42.667 3.5 68 10.5s43.666 13.167 54.999 18.5l-22 -90c-66 -26 -118.667 -45.833 -158 -59.5
s-85 -20.5 -137 -20.5c-73.333 0 -132 16.5 -176 49.5s-71.667 75.5 -83 127.5h-7c-42 -58.667 -92.167 -104.167 -150.5 -136.5s-110.5 -48.5 -156.5 -48.5c-47.333 0 -85.833 5 -115.5 15s-55.834 28 -78.501 54h-11c-2 -10 -3.83301 -27.167 -5.5 -51.5
s-2.5 -43.833 -2.5 -58.5c0 -20.667 2.66699 -47.5 8 -80.5s8 -61.833 8 -86.5c0 -65.333 -18.333 -116.666 -55 -153.999s-86.334 -56 -149.001 -56c-39.333 0 -72 11 -98 33s-39 54 -39 96c0 32.667 14.833 80.667 44.5 144s48.834 105.666 57.501 126.999
c16 38.667 28.667 72.334 38 101.001s17.333 58.334 24 89.001l194 840l317 14l12 -14l-149 -643c-3.33301 -13.333 -6.16602 -29.333 -8.49902 -48s-3.5 -33 -3.5 -43c0 -40 8.5 -69.333 25.5 -88s44.5 -28 82.5 -28c37.333 0 71.166 7 101.499 21s72.5 49.667 126.5 107z
" />
    <glyph glyph-name="paragraph" unicode="&#xb6;" horiz-adv-x="1274" 
d="M1413 1419l-22.9971 -95.999h-221l-365 -1559h-110l366 1559h-173l-365 -1559h-110l214 900h-38c-78.667 0 -143.834 10.833 -195.501 32.5s-91.834 49.167 -120.501 82.5c-29.333 34 -49.333 70.5 -60 109.5s-16 76.833 -16 113.5c0 55.333 11.167 107.166 33.5 155.499
s55.166 92.833 98.499 133.5c42 38 94.5 68.833 157.5 92.5s132.833 35.5 209.5 35.5h718z" />
    <glyph glyph-name="periodcentered" unicode="&#xb7;" horiz-adv-x="692" 
d="M564 546c0 -52.667 -19.5 -98.332 -58.5 -136.999s-85.167 -58 -138.5 -58c-54 0 -100.5 19.167 -139.5 57.5s-58.5 84.166 -58.5 137.499s19.5 99.5 58.5 138.5s85.5 58.5 139.5 58.5c53.333 0 99.5 -19.667 138.5 -59s58.5 -85.333 58.5 -138z" />
    <glyph glyph-name="cedilla" unicode="&#xb8;" horiz-adv-x="1024" 
d="M593 -400c-42 -16 -92.166 -27.332 -150.499 -33.999s-129.833 -10 -214.5 -10l18 78c32 0 66 0.333008 102 1s65 3.66699 87 9c26 5.33301 45.833 14.333 59.5 27s20.5 30.334 20.5 53.001c0 21.333 -11.833 35.666 -35.5 42.999s-53.5 11 -89.5 11l53 239h86l-24 -113
c65.333 0 117.666 -10.833 156.999 -32.5s59 -53.834 59 -96.501c0 -43.333 -11 -79.333 -33 -108s-53.667 -51 -95 -67z" />
    <glyph glyph-name="onesuperior" unicode="&#xb9;" horiz-adv-x="1130" 
d="M834 490l-627.001 0.00292969l17 71c14.667 0.666992 39.667 3 75 7s59.333 8 72 12c15.333 4.66699 29 13.167 41 25.5s20 28.166 24 47.499l132 584h-197l19 83h40c43.333 0 83 4.66699 119 14s66 20.666 90 33.999c23.333 12.667 44.333 26 63 40
s34.334 27.667 47.001 41h134c-11.333 -39.333 -22 -79 -32 -119l-27 -107l-117 -506c-2.66699 -10.667 -6 -25.334 -10 -44.001s-6 -30.334 -6 -35.001c0 -12 2.5 -22.167 7.5 -30.5s13.167 -15.5 24.5 -21.5c10 -5.33301 29.833 -10.666 59.5 -15.999
s52.5 -8.33301 68.5 -9z" />
    <glyph glyph-name="ordmasculine" unicode="&#xba;" horiz-adv-x="1130" 
d="M1131 1118c0 -143.333 -53 -264.5 -159 -363.5s-244 -148.5 -414 -148.5c-118 0 -212.833 30.833 -284.5 92.5s-107.5 145.167 -107.5 250.5c0 144.667 52.333 265.5 157 362.5s240 145.5 406 145.5c134 0 234.5 -31.5 301.5 -94.5s100.5 -144.5 100.5 -244.5zM782 861
c19.333 52 33.5 108 42.5 168s13.5 118.667 13.5 176s-10 101.166 -30 131.499s-52 45.5 -96 45.5s-83.333 -16.833 -118 -50.5s-62.334 -79.5 -83.001 -137.5c-18 -48 -31 -104.5 -39 -169.5s-12 -119.5 -12 -163.5c0 -65.333 10.667 -111.666 32 -138.999s53 -41 95 -41
c46 0 85.333 17.5 118 52.5s58.334 77.5 77.001 127.5z" />
    <glyph glyph-name="guillemotright" unicode="&#xbb;" horiz-adv-x="1250" 
d="M1119 590c0 -38.667 -9.16895 -73.667 -27.502 -105s-46.166 -59.333 -83.499 -84l-204.5 -132.5l-276.5 -172.5l-41 43l391 419l-223 394l61 43l215 -179c63.333 -52.667 111.333 -94.667 144 -126c14.667 -14 25.834 -29.333 33.501 -46s11.5 -34.667 11.5 -54z
M679.998 590c0 -38.667 -9.16895 -73.667 -27.502 -105s-46.166 -59.333 -83.499 -84l-204.5 -132.5l-276.5 -172.5l-41 43l391 419l-223 394l61 43l215 -179c63.333 -52.667 111.333 -94.667 144 -126c14.667 -14 25.834 -29.333 33.501 -46s11.5 -34.667 11.5 -54z" />
    <glyph glyph-name="onequarter" unicode="&#xbc;" horiz-adv-x="2194" 
d="M773 490l-627.001 0.00292969l17 71c14.667 0.666992 39.667 3 75 7s59.333 8 72 12c15.333 4.66699 29 13.167 41 25.5s20 28.166 24 47.499l132 584h-197l19 83h40c43.333 0 83 4.66699 119 14s66 20.666 90 33.999c23.333 12.667 44.333 26 63 40
s34.334 27.667 47.001 41h134c-11.333 -39.333 -22 -79 -32 -119l-27 -107l-117 -506c-2.66699 -10.667 -6 -25.334 -10 -44.001s-6 -30.334 -6 -35.001c0 -12 2.5 -22.167 7.5 -30.5s13.167 -15.5 24.5 -21.5c10 -5.33301 29.833 -10.666 59.5 -15.999
s52.5 -8.33301 68.5 -9zM1736 1429l-1090 -1429h-156l1088 1429h158zM2074 373.003l-34 -147h-155l-57 -246h-231l57 246h-499l33 145l653 594h214l-136 -592h155zM1786 797.003l-474 -424h376z" />
    <glyph glyph-name="onehalf" unicode="&#xbd;" horiz-adv-x="2194" 
d="M763 490l-627.001 0.00292969l17 71c14.667 0.666992 39.667 3 75 7s59.333 8 72 12c15.333 4.66699 29 13.167 41 25.5s20 28.166 24 47.499l132 584h-197l19 83h40c43.333 0 83 4.66699 119 14s66 20.666 90 33.999c23.333 12.667 44.333 26 63 40
s34.334 27.667 47.001 41h134c-11.333 -39.333 -22 -79 -32 -119l-27 -107l-117 -506c-2.66699 -10.667 -6 -25.334 -10 -44.001s-6 -30.334 -6 -35.001c0 -12 2.5 -22.167 7.5 -30.5s13.167 -15.5 24.5 -21.5c10 -5.33301 29.833 -10.666 59.5 -15.999
s52.5 -8.33301 68.5 -9zM1716 1429l-1090 -1429h-156l1088 1429h158zM1703 887.003c-15.333 0 -31.001 -2 -47.001 -6s-31.333 -8.66699 -46 -14l21.5 -60c7.66699 -21.333 11.5 -47 11.5 -77c0 -34.667 -12.167 -63.167 -36.5 -85.5s-56.5 -33.5 -96.5 -33.5
c-37.333 0 -67.5 12.833 -90.5 38.5s-34.5 56.834 -34.5 93.501c0 56.667 34.667 108.167 104 154.5s158.333 69.5 267 69.5c124 0 221 -21.333 291 -64s105 -101.334 105 -176.001c0 -61.333 -12.667 -114.5 -38 -159.5s-58.666 -83.167 -100 -114.5
c-40 -30 -83.5 -55.167 -130.5 -75.5s-89.833 -37.5 -128.5 -51.5l-147.5 -55l-144.5 -56l-3 -12h629l-47 -203h-824l35 151c36 30 101 71.833 195 125.5s156.667 90.5 188 110.5c26 16.667 53.333 37.167 82 61.5s53.334 50.833 74.001 79.5
c22.667 31.333 40.667 63.5 54 96.5s20 71.833 20 116.5c0 51.333 -14.333 88.5 -43 111.5s-68.667 34.5 -120 34.5z" />
    <glyph glyph-name="threequarters" unicode="&#xbe;" horiz-adv-x="2194" 
d="M649 591c23.333 22.667 40.834 51.334 52.501 86.001s17.5 77 17.5 127c0 42.667 -12.667 74.167 -38 94.5s-63.333 30.5 -114 30.5h-88l23 96h62c66 0 118 20.167 156 60.5s57 97.5 57 171.5c0 36.667 -14.167 65.834 -42.5 87.501s-63.833 32.5 -106.5 32.5
c-15.333 0 -32.833 -1.83301 -52.5 -5.5s-36.834 -8.16699 -51.501 -13.5l21 -58.5c7.33301 -20.333 11 -45.5 11 -75.5c0 -34.667 -11.167 -62.667 -33.5 -84s-53.5 -32 -93.5 -32c-37.333 0 -67.5 12.5 -90.5 37.5s-34.5 55.833 -34.5 92.5c0 58 38 109 114 153
s163.667 66 263 66c70.667 0 130.167 -6.66699 178.5 -20s86.5 -30.333 114.5 -51s47.167 -42.667 57.5 -66s15.5 -45.333 15.5 -66c0 -22 -4.5 -46.667 -13.5 -74s-23.5 -52 -43.5 -74c-22.667 -24 -52 -45.833 -88 -65.5s-84.667 -35.167 -146 -46.5v-11
c30 -2.66699 58.667 -7.5 86 -14.5s53.333 -18.167 78 -33.5c24 -16 43.167 -35.167 57.5 -57.5s21.5 -52.166 21.5 -89.499c0 -99.333 -45.667 -180.166 -137 -242.499s-202.666 -93.5 -333.999 -93.5c-114 0 -206 21.167 -276 63.5s-105 94.833 -105 157.5
c0 37.333 11 68.666 33 93.999s52.667 38 92 38c40 0 72 -11.333 96 -34s36 -51.334 36 -86.001c0 -27.333 -3.66699 -51.333 -11 -72s-14.333 -39.334 -21 -56.001c14 -6.66699 30.667 -12.334 50 -17.001s37 -7 53 -7c31.333 0 63.166 4.66699 95.499 14s58.5 24 78.5 44z
M1863 1429l-1090 -1429h-156l1088 1429h158zM2124 373l-34 -147h-155l-57 -246h-231l57 246h-499l33 145l653 594h214l-136 -592h155zM1836 797l-474 -424h376z" />
    <glyph glyph-name="questiondown" unicode="&#xbf;" horiz-adv-x="1123" 
d="M992 1267c0 -50.667 -19.167 -94.5 -57.5 -131.5s-83.5 -55.5 -135.5 -55.5c-51.333 0 -96.166 18.5 -134.499 55.5s-57.5 80.833 -57.5 131.5s19.167 94.167 57.5 130.5s83.166 54.5 134.499 54.5c52 0 97.167 -18.167 135.5 -54.5s57.5 -79.833 57.5 -130.5zM967 259
c0 -80 -47.167 -147.998 -141.5 -203.998s-208.166 -84 -341.499 -84c-123.333 0 -226.166 32.5 -308.499 97.5s-123.5 151.833 -123.5 260.5c0 149.333 57.333 271 172 365s266.667 147.667 456 161l29 136h86l-77 -389c-116.667 -8.66699 -210.667 -41.5 -282 -98.5
s-107 -138.5 -107 -244.5c0 -64.667 17.167 -114.667 51.5 -150s82.166 -53 143.499 -53c25.333 0 49.666 3.66699 72.999 11s46.333 18 69 32c-6.66699 21.333 -13.5 46.666 -20.5 75.999s-10.5 56.666 -10.5 81.999c0 47.333 15.5 84.833 46.5 112.5
s72.833 41.5 125.5 41.5c48 0 86.667 -14.333 116 -43s44 -65 44 -109z" />
    <glyph glyph-name="Agrave" unicode="&#xc0;" horiz-adv-x="1553" 
d="M892 571l-87 517l-324 -517h411zM732 0l17 73.001c68.667 5.33301 122.167 13.833 160.5 25.5s57.5 24.5 57.5 38.5c0 12 -0.666992 22.333 -2 31s-3 18.667 -5 30l-50 279h-489l-60.5 -97.5l-61.5 -103.5c-25.333 -45.333 -40.166 -76.333 -44.499 -93
s-6.5 -27.334 -6.5 -32.001c0 -20 15.667 -36.5 47 -49.5s79.333 -22.5 144 -28.5l-17 -73h-596l17 73c19.333 1.33301 43.666 4.66602 72.999 9.99902s54 13.333 74 24c28 14.667 54.333 33.667 79 57s47.667 51.666 69 84.999l373 576.5l394 613.5h198l127.5 -741
c33.667 -195.333 63.167 -358.666 88.5 -489.999c3.33301 -20 9.83301 -38.167 19.5 -54.5s25.167 -31.833 46.5 -46.5c16 -10.667 35.5 -18.667 58.5 -24s44.5 -8.66602 64.5 -9.99902l-17 -73h-759zM1216 1526l-38.998 -41.001
c-98.667 44.667 -181.334 80.334 -248.001 107.001s-115 46.667 -145 60c-28 12.667 -50.5 26.667 -67.5 42s-25.5 34 -25.5 56c0 34.667 13.167 63 39.5 85s63.166 33 110.499 33c26.667 0 50.5 -6 71.5 -18s42.833 -31.333 65.5 -58l103.5 -118z" />
    <glyph glyph-name="Aacute" unicode="&#xc1;" horiz-adv-x="1553" 
d="M892 571l-87 517l-324 -517h411zM732 0l17 73.001c68.667 5.33301 122.167 13.833 160.5 25.5s57.5 24.5 57.5 38.5c0 12 -0.666992 22.333 -2 31s-3 18.667 -5 30l-50 279h-489l-60.5 -97.5l-61.5 -103.5c-25.333 -45.333 -40.166 -76.333 -44.499 -93
s-6.5 -27.334 -6.5 -32.001c0 -20 15.667 -36.5 47 -49.5s79.333 -22.5 144 -28.5l-17 -73h-596l17 73c19.333 1.33301 43.666 4.66602 72.999 9.99902s54 13.333 74 24c28 14.667 54.333 33.667 79 57s47.667 51.666 69 84.999l373 576.5l394 613.5h198l127.5 -741
c33.667 -195.333 63.167 -358.666 88.5 -489.999c3.33301 -20 9.83301 -38.167 19.5 -54.5s25.167 -31.833 46.5 -46.5c16 -10.667 35.5 -18.667 58.5 -24s44.5 -8.66602 64.5 -9.99902l-17 -73h-759zM1341 1768c0 -28 -8.66699 -51.001 -26 -69.001
s-42.333 -33.667 -75 -47c-37.333 -15.333 -93.333 -36.666 -168 -63.999s-161.334 -61.666 -260.001 -102.999l-33 41l157.5 151c36.333 35.333 73.5 73.666 111.5 114.999c24.667 27.333 48.834 46.833 72.501 58.5s48.5 17.5 74.5 17.5
c43.333 0 78.5 -9.16699 105.5 -27.5s40.5 -42.5 40.5 -72.5z" />
    <glyph glyph-name="Acircumflex" unicode="&#xc2;" horiz-adv-x="1553" 
d="M892 571l-87 517l-324 -517h411zM732 0l17 73.001c68.667 5.33301 122.167 13.833 160.5 25.5s57.5 24.5 57.5 38.5c0 12 -0.666992 22.333 -2 31s-3 18.667 -5 30l-50 279h-489l-60.5 -97.5l-61.5 -103.5c-25.333 -45.333 -40.166 -76.333 -44.499 -93
s-6.5 -27.334 -6.5 -32.001c0 -20 15.667 -36.5 47 -49.5s79.333 -22.5 144 -28.5l-17 -73h-596l17 73c19.333 1.33301 43.666 4.66602 72.999 9.99902s54 13.333 74 24c28 14.667 54.333 33.667 79 57s47.667 51.666 69 84.999l373 576.5l394 613.5h198l127.5 -741
c33.667 -195.333 63.167 -358.666 88.5 -489.999c3.33301 -20 9.83301 -38.167 19.5 -54.5s25.167 -31.833 46.5 -46.5c16 -10.667 35.5 -18.667 58.5 -24s44.5 -8.66602 64.5 -9.99902l-17 -73h-759zM1352 1513l-34 -29.001l-311 203l-384 -203l-32 29l196 198
c42.667 41.333 74.667 73.333 96 96c18.667 20.667 38.834 36 60.501 46s51.167 15 88.5 15c36.667 0 63.167 -4.66699 79.5 -14s31.166 -23.666 44.499 -42.999l65 -98z" />
    <glyph glyph-name="Atilde" unicode="&#xc3;" horiz-adv-x="1553" 
d="M892 571l-87 517l-324 -517h411zM732 0l17 73.001c68.667 5.33301 122.167 13.833 160.5 25.5s57.5 24.5 57.5 38.5c0 12 -0.666992 22.333 -2 31s-3 18.667 -5 30l-50 279h-489l-60.5 -97.5l-61.5 -103.5c-25.333 -45.333 -40.166 -76.333 -44.499 -93
s-6.5 -27.334 -6.5 -32.001c0 -20 15.667 -36.5 47 -49.5s79.333 -22.5 144 -28.5l-17 -73h-596l17 73c19.333 1.33301 43.666 4.66602 72.999 9.99902s54 13.333 74 24c28 14.667 54.333 33.667 79 57s47.667 51.666 69 84.999l373 576.5l394 613.5h198l127.5 -741
c33.667 -195.333 63.167 -358.666 88.5 -489.999c3.33301 -20 9.83301 -38.167 19.5 -54.5s25.167 -31.833 46.5 -46.5c16 -10.667 35.5 -18.667 58.5 -24s44.5 -8.66602 64.5 -9.99902l-17 -73h-759zM1506 1849c-12.667 -28.667 -30.3291 -60.667 -52.9961 -96
s-49 -68 -79 -98c-32 -32 -64.667 -57.833 -98 -77.5s-70.333 -29.5 -111 -29.5c-42.667 0 -80.667 6.5 -114 19.5s-61.333 25.833 -84 38.5c-24 12.667 -49.5 24.667 -76.5 36s-53.5 17 -79.5 17c-34.667 0 -62.667 -15.167 -84 -45.5l-73 -102.5l-71 30
c12 24.667 30 55.167 54 91.5s49.333 68.833 76 97.5c27.333 30 58.666 55.667 93.999 77s71.333 32 108 32c34 0 66.667 -5.5 98 -16.5s61.666 -23.5 90.999 -37.5l80 -39c22 -10.667 47.333 -16 76 -16c27.333 0 49.166 2.83301 65.499 8.5s29.5 14.5 39.5 26.5
c11.333 14 21.666 29.833 30.999 47.5l33 60.5z" />
    <glyph glyph-name="Adieresis" unicode="&#xc4;" horiz-adv-x="1553" 
d="M892 571l-87 517l-324 -517h411zM732 0l17 73.001c68.667 5.33301 122.167 13.833 160.5 25.5s57.5 24.5 57.5 38.5c0 12 -0.666992 22.333 -2 31s-3 18.667 -5 30l-50 279h-489l-60.5 -97.5l-61.5 -103.5c-25.333 -45.333 -40.166 -76.333 -44.499 -93
s-6.5 -27.334 -6.5 -32.001c0 -20 15.667 -36.5 47 -49.5s79.333 -22.5 144 -28.5l-17 -73h-596l17 73c19.333 1.33301 43.666 4.66602 72.999 9.99902s54 13.333 74 24c28 14.667 54.333 33.667 79 57s47.667 51.666 69 84.999l373 576.5l394 613.5h198l127.5 -741
c33.667 -195.333 63.167 -358.666 88.5 -489.999c3.33301 -20 9.83301 -38.167 19.5 -54.5s25.167 -31.833 46.5 -46.5c16 -10.667 35.5 -18.667 58.5 -24s44.5 -8.66602 64.5 -9.99902l-17 -73h-759zM1435 1702c0 -44.667 -15.5 -83.5 -46.5 -116.5
s-67.833 -49.5 -110.5 -49.5c-44 0 -81.333 16.667 -112 50s-46 72 -46 116c0 44.667 15.333 83.5 46 116.5s68 49.5 112 49.5c42.667 0 79.5 -16.5 110.5 -49.5s46.5 -71.833 46.5 -116.5zM899 1702c0 -44.667 -15.667 -83.5 -47 -116.5s-68.333 -49.5 -111 -49.5
c-43.333 0 -80.333 16.333 -111 49s-46 71.667 -46 117c0 44.667 15.167 83.5 45.5 116.5s67.5 49.5 111.5 49.5c42.667 0 79.667 -16.5 111 -49.5s47 -71.833 47 -116.5z" />
    <glyph glyph-name="Aring" unicode="&#xc5;" horiz-adv-x="1553" 
d="M892 571l-87 517l-324 -517h411zM732 0l16.999 73.0029c68.667 5.33301 122.167 13.833 160.5 25.5s57.5 24.5 57.5 38.5c0 12 -0.666992 22.333 -2 31s-3 18.667 -5 30l-50 279h-489l-60.5 -97.5l-61.5 -103.5c-25.333 -45.333 -40.166 -76.333 -44.499 -93
s-6.5 -27.334 -6.5 -32.001c0 -20 15.667 -36.5 47 -49.5s79.333 -22.5 144 -28.5l-17 -73h-596l17 73c19.333 1.33301 43.666 4.66602 72.999 9.99902s54 13.333 74 24c28 14.667 54.333 33.667 79 57s47.667 51.666 69 84.999l364 562.5l385 599.5
c-55.333 10 -98.666 31.333 -129.999 64s-47 73.667 -47 123c0 80 32.333 145 97 195s141.667 75 231 75c72 0 131.333 -17.333 178 -52s70 -81.334 70 -140.001c0 -56 -16 -105.5 -48 -148.5s-76.667 -75.167 -134 -96.5l127.5 -738c33 -192 62.167 -353.667 87.5 -485
c3.33301 -20 9.83301 -38.167 19.5 -54.5s25.167 -31.833 46.5 -46.5c16 -10.667 35.5 -18.667 58.5 -24s44.5 -8.66602 64.5 -9.99902l-17 -73h-759zM1134 1678c0 34.667 -9.33105 63.333 -27.998 86s-46 34 -82 34c-48.667 0 -87.834 -18.5 -117.501 -55.5
s-44.5 -84.833 -44.5 -143.5c0 -37.333 9.16699 -67.333 27.5 -90s46.166 -34 83.499 -34c50 0 89.333 19.167 118 57.5s43 86.833 43 145.5z" />
    <glyph glyph-name="AE" unicode="&#xc6;" horiz-adv-x="2201" 
d="M2119 442l-128.999 -441.998h-1310l17 73c18.667 1.33301 44.667 4 78 8s57 8.66699 71 14c28 10.667 48.5 24.834 61.5 42.501s21.833 37.834 26.5 60.501l91 396h-489l-167.5 -212l-83.5 -108c-35.333 -46.667 -56.833 -78.5 -64.5 -95.5s-11.5 -28.167 -11.5 -33.5
c0 -12.667 6.33301 -23.334 19 -32.001s28.334 -15.667 47.001 -21c17.333 -4.66699 36.666 -8.66699 57.999 -12s39.666 -5.66602 54.999 -6.99902l-17 -73h-589l17 73c25.333 2 51 6 77 12s47.333 13.333 64 22c34 16.667 64.333 36.167 91 58.5
s53.334 50.166 80.001 83.499l434 532.5l422 520.5c-19.333 12.667 -47.833 22.667 -85.5 30s-70.834 12 -99.501 14l17 73h1446l-84 -362h-76c-4.66699 48.667 -24 102.667 -58 162s-74.667 94.333 -122 105c-18.667 4.66699 -45.667 7.5 -81 8.5s-64.666 1.5 -87.999 1.5
h-186l-129 -555h126c40.667 0 76.5 4.83301 107.5 14.5s61.167 26.167 90.5 49.5c18.667 15.333 40.5 42.666 65.5 81.999s42.833 73 53.5 101h76l-137 -592h-76c2.66699 32 0.666992 68.333 -6 109s-15.334 69 -26.001 85c-20.667 27.333 -45.167 45 -73.5 53
s-59.5 12 -93.5 12h-126l-96 -417c-5.33301 -22 -9.33301 -41.833 -12 -59.5s-4 -32.167 -4 -43.5c0 -36.667 14.167 -60.334 42.5 -71.001s78.833 -16 151.5 -16c99.333 0 169.833 5.16699 211.5 15.5s73.167 23.833 94.5 40.5c40.667 34 88.5 84.667 143.5 152
s92.5 116.666 112.5 147.999h73zM1047 688.002l149 646h-68l-516 -646h435z" />
    <glyph glyph-name="Ccedilla" unicode="&#xc7;" horiz-adv-x="1465" 
d="M644 -34c-82.667 8.66699 -154.665 25.8369 -215.998 51.5039s-115.666 59.5 -162.999 101.5c-56 50.667 -99.667 112.5 -131 185.5s-47 155.5 -47 247.5c0 122 22.5 237 67.5 345s108.5 204.333 190.5 289c78.667 81.333 174.834 146.833 288.501 196.5
s234.5 74.5 362.5 74.5c77.333 0 155.666 -9.33301 234.999 -28s138.666 -40.334 177.999 -65.001l75 55h87l-111 -518h-88c-13.333 151.333 -53.5 266.5 -120.5 345.5s-153.167 118.5 -258.5 118.5c-77.333 0 -148.666 -23 -213.999 -69s-123.333 -116.667 -174 -212
c-41.333 -78.667 -72.833 -169.834 -94.5 -273.501s-32.5 -200.834 -32.5 -291.501c0 -133.333 32.333 -237 97 -311s151.334 -111 260.001 -111c95.333 0 183.666 26.667 264.999 80s159.666 130.333 234.999 231l77 -52c-32.667 -50.667 -71.667 -100.5 -117 -149.5
s-97 -91.5 -155 -127.5c-58.667 -36.667 -118.834 -65.167 -180.501 -85.5s-138.167 -30.5 -229.5 -30.5l-13 -59c65.333 0 117.666 -10.833 156.999 -32.5s59 -53.834 59 -96.501c0 -43.333 -11 -79.333 -33 -108s-53.667 -51 -95 -67c-42 -16 -92.167 -27.333 -150.5 -34
s-129.833 -10 -214.5 -10l18 78c32 0 66 0.333008 102 1s65 3.66699 87 9c26 5.33301 45.833 14.333 59.5 27s20.5 30.334 20.5 53.001c0 21.333 -11.833 35.666 -35.5 42.999s-53.5 11 -89.5 11z" />
    <glyph glyph-name="Egrave" unicode="&#xc8;" horiz-adv-x="1477" 
d="M1520 1419l-82.999 -362.001h-76c-9.33301 63.333 -31.833 121.5 -67.5 174.5s-73.167 83.833 -112.5 92.5c-18.667 4.66699 -45.667 7.5 -81 8.5s-64.666 1.5 -87.999 1.5h-196l-128 -555h136c50 0 89.167 5.5 117.5 16.5s54.833 26.5 79.5 46.5
c18.667 15.333 40.5 42.833 65.5 82.5s42.833 73.5 53.5 101.5h76l-137 -592h-76v37c0 30 -3.16699 60.833 -9.5 92.5s-13.833 53.834 -22.5 66.501c-17.333 25.333 -40.333 42.166 -69 50.499s-61.334 12.5 -98.001 12.5h-136l-91 -395c-4.66699 -20 -9 -41.667 -13 -65
s-6 -40 -6 -50c0 -42.667 14 -69.5 42 -80.5s79.667 -16.5 155 -16.5c96 0 166 4.16699 210 12.5s77 21.166 99 38.499c40 33.333 88 84.333 144 153s94 119.334 114 152.001h73l-129 -442h-1321l17 73c16.667 0.666992 41.5 2.83398 74.5 6.50098s57.5 8.16699 73.5 13.5
c26 8.66699 45.833 22 59.5 40s23.167 38.667 28.5 62l229 992c3.33301 14 5.66602 25.667 6.99902 35s2 16.333 2 21c0 28 -14.167 49.833 -42.5 65.5s-74.5 28.167 -138.5 37.5l17 73h1248zM1096 1526l-38.998 -41.001c-98.667 44.667 -181.334 80.334 -248.001 107.001
s-115 46.667 -145 60c-28 12.667 -50.5 26.667 -67.5 42s-25.5 34 -25.5 56c0 34.667 13.167 63 39.5 85s63.166 33 110.499 33c26.667 0 50.5 -6 71.5 -18s42.833 -31.333 65.5 -58l103.5 -118z" />
    <glyph glyph-name="Eacute" unicode="&#xc9;" horiz-adv-x="1477" 
d="M1520 1419l-82.999 -362.001h-76c-9.33301 63.333 -31.833 121.5 -67.5 174.5s-73.167 83.833 -112.5 92.5c-18.667 4.66699 -45.667 7.5 -81 8.5s-64.666 1.5 -87.999 1.5h-196l-128 -555h136c50 0 89.167 5.5 117.5 16.5s54.833 26.5 79.5 46.5
c18.667 15.333 40.5 42.833 65.5 82.5s42.833 73.5 53.5 101.5h76l-137 -592h-76v37c0 30 -3.16699 60.833 -9.5 92.5s-13.833 53.834 -22.5 66.501c-17.333 25.333 -40.333 42.166 -69 50.499s-61.334 12.5 -98.001 12.5h-136l-91 -395c-4.66699 -20 -9 -41.667 -13 -65
s-6 -40 -6 -50c0 -42.667 14 -69.5 42 -80.5s79.667 -16.5 155 -16.5c96 0 166 4.16699 210 12.5s77 21.166 99 38.499c40 33.333 88 84.333 144 153s94 119.334 114 152.001h73l-129 -442h-1321l17 73c16.667 0.666992 41.5 2.83398 74.5 6.50098s57.5 8.16699 73.5 13.5
c26 8.66699 45.833 22 59.5 40s23.167 38.667 28.5 62l229 992c3.33301 14 5.66602 25.667 6.99902 35s2 16.333 2 21c0 28 -14.167 49.833 -42.5 65.5s-74.5 28.167 -138.5 37.5l17 73h1248zM1281 1768c0 -28 -8.66699 -51.001 -26 -69.001s-42.333 -33.667 -75 -47
c-37.333 -15.333 -93.333 -36.666 -168 -63.999s-161.334 -61.666 -260.001 -102.999l-33 41l157.5 151c36.333 35.333 73.5 73.666 111.5 114.999c24.667 27.333 48.834 46.833 72.501 58.5s48.5 17.5 74.5 17.5c43.333 0 78.5 -9.16699 105.5 -27.5s40.5 -42.5 40.5 -72.5
z" />
    <glyph glyph-name="Ecircumflex" unicode="&#xca;" horiz-adv-x="1477" 
d="M1520 1419l-82.999 -362.001h-76c-9.33301 63.333 -31.833 121.5 -67.5 174.5s-73.167 83.833 -112.5 92.5c-18.667 4.66699 -45.667 7.5 -81 8.5s-64.666 1.5 -87.999 1.5h-196l-128 -555h136c50 0 89.167 5.5 117.5 16.5s54.833 26.5 79.5 46.5
c18.667 15.333 40.5 42.833 65.5 82.5s42.833 73.5 53.5 101.5h76l-137 -592h-76v37c0 30 -3.16699 60.833 -9.5 92.5s-13.833 53.834 -22.5 66.501c-17.333 25.333 -40.333 42.166 -69 50.499s-61.334 12.5 -98.001 12.5h-136l-91 -395c-4.66699 -20 -9 -41.667 -13 -65
s-6 -40 -6 -50c0 -42.667 14 -69.5 42 -80.5s79.667 -16.5 155 -16.5c96 0 166 4.16699 210 12.5s77 21.166 99 38.499c40 33.333 88 84.333 144 153s94 119.334 114 152.001h73l-129 -442h-1321l17 73c16.667 0.666992 41.5 2.83398 74.5 6.50098s57.5 8.16699 73.5 13.5
c26 8.66699 45.833 22 59.5 40s23.167 38.667 28.5 62l229 992c3.33301 14 5.66602 25.667 6.99902 35s2 16.333 2 21c0 28 -14.167 49.833 -42.5 65.5s-74.5 28.167 -138.5 37.5l17 73h1248zM1309 1513l-34 -29.001l-311 203l-384 -203l-32 29l196 198
c42.667 41.333 74.667 73.333 96 96c18.667 20.667 38.834 36 60.501 46s51.167 15 88.5 15c36.667 0 63.167 -4.66699 79.5 -14s31.166 -23.666 44.499 -42.999l65 -98z" />
    <glyph glyph-name="Edieresis" unicode="&#xcb;" horiz-adv-x="1477" 
d="M1520 1419l-82.999 -362.001h-76c-9.33301 63.333 -31.833 121.5 -67.5 174.5s-73.167 83.833 -112.5 92.5c-18.667 4.66699 -45.667 7.5 -81 8.5s-64.666 1.5 -87.999 1.5h-196l-128 -555h136c50 0 89.167 5.5 117.5 16.5s54.833 26.5 79.5 46.5
c18.667 15.333 40.5 42.833 65.5 82.5s42.833 73.5 53.5 101.5h76l-137 -592h-76v37c0 30 -3.16699 60.833 -9.5 92.5s-13.833 53.834 -22.5 66.501c-17.333 25.333 -40.333 42.166 -69 50.499s-61.334 12.5 -98.001 12.5h-136l-91 -395c-4.66699 -20 -9 -41.667 -13 -65
s-6 -40 -6 -50c0 -42.667 14 -69.5 42 -80.5s79.667 -16.5 155 -16.5c96 0 166 4.16699 210 12.5s77 21.166 99 38.499c40 33.333 88 84.333 144 153s94 119.334 114 152.001h73l-129 -442h-1321l17 73c16.667 0.666992 41.5 2.83398 74.5 6.50098s57.5 8.16699 73.5 13.5
c26 8.66699 45.833 22 59.5 40s23.167 38.667 28.5 62l229 992c3.33301 14 5.66602 25.667 6.99902 35s2 16.333 2 21c0 28 -14.167 49.833 -42.5 65.5s-74.5 28.167 -138.5 37.5l17 73h1248zM1350 1702c0 -44.667 -15.5 -83.5 -46.5 -116.5s-67.833 -49.5 -110.5 -49.5
c-44 0 -81.333 16.667 -112 50s-46 72 -46 116c0 44.667 15.333 83.5 46 116.5s68 49.5 112 49.5c42.667 0 79.5 -16.5 110.5 -49.5s46.5 -71.833 46.5 -116.5zM814.001 1702c0 -44.667 -15.667 -83.5 -47 -116.5s-68.333 -49.5 -111 -49.5
c-43.333 0 -80.333 16.333 -111 49s-46 71.667 -46 117c0 44.667 15.167 83.5 45.5 116.5s67.5 49.5 111.5 49.5c42.667 0 79.667 -16.5 111 -49.5s47 -71.833 47 -116.5z" />
    <glyph glyph-name="Igrave" unicode="&#xcc;" horiz-adv-x="913" 
d="M-61 0l17.002 72.998c19.333 0.666992 45.666 2.83398 78.999 6.50098s59 8.5 77 14.5c26 8.66699 45.833 21.834 59.5 39.501s23.167 38.167 28.5 61.5l229 992c3.33301 14 5.66602 25.667 6.99902 35s2 16.333 2 21c0 28 -15.5 49.833 -46.5 65.5
s-78.5 28.167 -142.5 37.5l17 73h787l-17 -73c-21.333 -1.33301 -48.666 -4.5 -81.999 -9.5s-58.333 -10.167 -75 -15.5c-27.333 -8.66699 -47.5 -22.167 -60.5 -40.5s-22.167 -38.833 -27.5 -61.5l-229 -993c-2.66699 -11.333 -4.83398 -22 -6.50098 -32
s-2.5 -17.667 -2.5 -23c0 -33.333 15.5 -56.5 46.5 -69.5s78.833 -22.5 143.5 -28.5l-17 -73h-787zM920.002 1526l-38.998 -41.001c-98.667 44.667 -181.334 80.334 -248.001 107.001s-115 46.667 -145 60c-28 12.667 -50.5 26.667 -67.5 42s-25.5 34 -25.5 56
c0 34.667 13.167 63 39.5 85s63.166 33 110.499 33c26.667 0 50.5 -6 71.5 -18s42.833 -31.333 65.5 -58l103.5 -118z" />
    <glyph glyph-name="Iacute" unicode="&#xcd;" horiz-adv-x="913" 
d="M-61 0l17.002 72.998c19.333 0.666992 45.666 2.83398 78.999 6.50098s59 8.5 77 14.5c26 8.66699 45.833 21.834 59.5 39.501s23.167 38.167 28.5 61.5l229 992c3.33301 14 5.66602 25.667 6.99902 35s2 16.333 2 21c0 28 -15.5 49.833 -46.5 65.5
s-78.5 28.167 -142.5 37.5l17 73h787l-17 -73c-21.333 -1.33301 -48.666 -4.5 -81.999 -9.5s-58.333 -10.167 -75 -15.5c-27.333 -8.66699 -47.5 -22.167 -60.5 -40.5s-22.167 -38.833 -27.5 -61.5l-229 -993c-2.66699 -11.333 -4.83398 -22 -6.50098 -32
s-2.5 -17.667 -2.5 -23c0 -33.333 15.5 -56.5 46.5 -69.5s78.833 -22.5 143.5 -28.5l-17 -73h-787zM1011 1768c0 -28 -8.66699 -51.001 -26 -69.001s-42.333 -33.667 -75 -47c-37.333 -15.333 -93.333 -36.666 -168 -63.999s-161.334 -61.666 -260.001 -102.999l-33 41
l157.5 151c36.333 35.333 73.5 73.666 111.5 114.999c24.667 27.333 48.834 46.833 72.501 58.5s48.5 17.5 74.5 17.5c43.333 0 78.5 -9.16699 105.5 -27.5s40.5 -42.5 40.5 -72.5z" />
    <glyph glyph-name="Icircumflex" unicode="&#xce;" horiz-adv-x="913" 
d="M-61 0l17.002 72.998c19.333 0.666992 45.666 2.83398 78.999 6.50098s59 8.5 77 14.5c26 8.66699 45.833 21.834 59.5 39.501s23.167 38.167 28.5 61.5l229 992c3.33301 14 5.66602 25.667 6.99902 35s2 16.333 2 21c0 28 -15.5 49.833 -46.5 65.5
s-78.5 28.167 -142.5 37.5l17 73h787l-17 -73c-21.333 -1.33301 -48.666 -4.5 -81.999 -9.5s-58.333 -10.167 -75 -15.5c-27.333 -8.66699 -47.5 -22.167 -60.5 -40.5s-22.167 -38.833 -27.5 -61.5l-229 -993c-2.66699 -11.333 -4.83398 -22 -6.50098 -32
s-2.5 -17.667 -2.5 -23c0 -33.333 15.5 -56.5 46.5 -69.5s78.833 -22.5 143.5 -28.5l-17 -73h-787zM1032 1513l-34 -29.001l-311 203l-384 -203l-32 29l196 198c42.667 41.333 74.667 73.333 96 96c18.667 20.667 38.834 36 60.501 46s51.167 15 88.5 15
c36.667 0 63.167 -4.66699 79.5 -14s31.166 -23.666 44.499 -42.999l65 -98z" />
    <glyph glyph-name="Idieresis" unicode="&#xcf;" horiz-adv-x="923" 
d="M-61 0l17.002 72.998c19.333 0.666992 45.666 2.83398 78.999 6.50098s59 8.5 77 14.5c26 8.66699 45.833 21.834 59.5 39.501s23.167 38.167 28.5 61.5l229 992c3.33301 14 5.66602 25.667 6.99902 35s2 16.333 2 21c0 28 -15.5 49.833 -46.5 65.5
s-78.5 28.167 -142.5 37.5l17 73h787l-17 -73c-21.333 -1.33301 -48.666 -4.5 -81.999 -9.5s-58.333 -10.167 -75 -15.5c-27.333 -8.66699 -47.5 -22.167 -60.5 -40.5s-22.167 -38.833 -27.5 -61.5l-229 -993c-2.66699 -11.333 -4.83398 -22 -6.50098 -32
s-2.5 -17.667 -2.5 -23c0 -33.333 15.5 -56.5 46.5 -69.5s78.833 -22.5 143.5 -28.5l-17 -73h-787zM1100 1700c0 -44.667 -15.5 -83.5 -46.5 -116.5s-67.833 -49.5 -110.5 -49.5c-44 0 -81.333 16.667 -112 50s-46 72 -46 116c0 44.667 15.333 83.5 46 116.5
s68 49.5 112 49.5c42.667 0 79.5 -16.5 110.5 -49.5s46.5 -71.833 46.5 -116.5zM605.002 1700c0 -44.667 -15.667 -83.5 -47 -116.5s-68.333 -49.5 -111 -49.5c-43.333 0 -80.333 16.333 -111 49s-46 71.667 -46 117c0 44.667 15.167 83.5 45.5 116.5s67.5 49.5 111.5 49.5
c42.667 0 79.667 -16.5 111 -49.5s47 -71.833 47 -116.5z" />
    <glyph glyph-name="Eth" unicode="&#xd0;" horiz-adv-x="1708" 
d="M1448 1304c74 -46 132.001 -106.17 174.001 -180.503s63 -162.166 63 -263.499c0 -126.667 -25 -243.667 -75 -351s-120.667 -198.666 -212 -273.999c-90.667 -76 -196 -134.167 -316 -174.5s-252.333 -60.5 -397 -60.5h-740l17 73
c16.667 0.666992 41.5 2.83398 74.5 6.50098s57.5 8.16699 73.5 13.5c26 8.66699 45.833 22 59.5 40s23.167 38.667 28.5 62l114 494h-195l23 100h195l92 398c3.33301 14 5.66602 25.667 6.99902 35s2 16.333 2 21c0 28 -14.167 49.833 -42.5 65.5s-74.5 28.167 -138.5 37.5
l17 73h727c74.667 0 151.5 -8.83301 230.5 -26.5s151.833 -47.167 218.5 -88.5zM1291 909.997c0 129.333 -29.333 232.167 -88 308.5s-147 114.5 -265 114.5c-23.333 0 -46.5 -0.5 -69.5 -1.5s-41.167 -1.83301 -54.5 -2.5l-124 -540h304l-23 -100h-304l-98 -425
c-2 -10 -4.16699 -22.167 -6.5 -36.5s-3.5 -24.5 -3.5 -30.5c0 -42 15.5 -71 46.5 -87s74.5 -24 130.5 -24c90.667 0 171.167 24 241.5 72s128.5 111.667 174.5 191c47.333 80.667 82.333 168.5 105 263.5s34 194.167 34 297.5z" />
    <glyph glyph-name="Ntilde" unicode="&#xd1;" horiz-adv-x="1699" 
d="M1883 1419l-16.9932 -73.0029c-18.667 -2 -45.834 -5.5 -81.501 -10.5s-70.5 -18.167 -104.5 -39.5c-28.667 -18 -53.167 -49 -73.5 -93s-40.5 -108.333 -60.5 -193l-235 -1018h-168l-613 1137l-162 -710c-8.66699 -37.333 -15.334 -72.333 -20.001 -105
s-7 -58.667 -7 -78c0 -27.333 2.66699 -48.5 8 -63.5s13 -27.5 23 -37.5c15.333 -15.333 42.166 -28.666 80.499 -39.999s66.833 -18.666 85.5 -21.999l-17 -73h-610l17 73c18 2.66699 46.5 7.33398 85.5 14.001s72.5 18.667 100.5 36c29.333 18.667 54 49.167 74 91.5
s39.667 106.833 59 193.5l154 668c3.33301 15.333 6.16602 29.833 8.49902 43.5s3.5 26.167 3.5 37.5c0 20 -2.33301 39.167 -7 57.5s-13.334 35.166 -26.001 50.499c-18.667 22.667 -41.667 40.167 -69 52.5s-59.333 21.833 -96 28.5l18 73h524l536 -1000l133 581
c9.33301 42.667 16.166 77.5 20.499 104.5s6.5 52.167 6.5 75.5c0 26 -2.83301 47.167 -8.5 63.5s-13.834 29.833 -24.501 40.5c-14.667 14.667 -40.5 27.834 -77.5 39.501s-65.5 19.167 -85.5 22.5l17 73h609zM1525.01 1849c-12.667 -28.667 -30.3291 -60.667 -52.9961 -96
s-49 -68 -79 -98c-32 -32 -64.667 -57.833 -98 -77.5s-70.333 -29.5 -111 -29.5c-42.667 0 -80.667 6.5 -114 19.5s-61.333 25.833 -84 38.5c-24 12.667 -49.5 24.667 -76.5 36s-53.5 17 -79.5 17c-34.667 0 -62.667 -15.167 -84 -45.5l-73 -102.5l-71 30
c12 24.667 30 55.167 54 91.5s49.333 68.833 76 97.5c27.333 30 58.666 55.667 93.999 77s71.333 32 108 32c34 0 66.667 -5.5 98 -16.5s61.666 -23.5 90.999 -37.5l80 -39c22 -10.667 47.333 -16 76 -16c27.333 0 49.166 2.83301 65.499 8.5s29.5 14.5 39.5 26.5
c11.333 14 21.666 29.833 30.999 47.5l33 60.5z" />
    <glyph glyph-name="Ograve" unicode="&#xd2;" horiz-adv-x="1679" 
d="M1661 875c0 -120 -22.499 -235.833 -67.499 -347.5s-108.167 -208.834 -189.5 -291.501c-83.333 -84.667 -181.333 -151.667 -294 -201s-240.334 -74 -383.001 -74c-186.667 0 -340 53.833 -460 161.5s-180 248.5 -180 422.5c0 126.667 24.333 245.834 73 357.501
s116 209.167 202 292.5c84 82 182.5 146.333 295.5 193s232.167 70 357.5 70c188 0 342.667 -52.667 464 -158s182 -247 182 -425zM1138 351c45.333 92 78.998 192.168 100.998 300.501s33 215.166 33 320.499c0 122 -23.333 218 -70 288s-116.334 105 -209.001 105
c-81.333 0 -154.166 -27.333 -218.499 -82s-118.5 -125.667 -162.5 -213s-77.667 -186 -101 -296s-35 -219.333 -35 -328c0 -118 23.333 -212.833 70 -284.5s116.667 -107.5 210 -107.5c80.667 0 153.834 28 219.501 84s119.834 127 162.501 213zM1276 1526l-38.998 -41.001
c-98.667 44.667 -181.334 80.334 -248.001 107.001s-115 46.667 -145 60c-28 12.667 -50.5 26.667 -67.5 42s-25.5 34 -25.5 56c0 34.667 13.167 63 39.5 85s63.166 33 110.499 33c26.667 0 50.5 -6 71.5 -18s42.833 -31.333 65.5 -58l103.5 -118z" />
    <glyph glyph-name="Oacute" unicode="&#xd3;" horiz-adv-x="1679" 
d="M1661 875c0 -120 -22.499 -235.833 -67.499 -347.5s-108.167 -208.834 -189.5 -291.501c-83.333 -84.667 -181.333 -151.667 -294 -201s-240.334 -74 -383.001 -74c-186.667 0 -340 53.833 -460 161.5s-180 248.5 -180 422.5c0 126.667 24.333 245.834 73 357.501
s116 209.167 202 292.5c84 82 182.5 146.333 295.5 193s232.167 70 357.5 70c188 0 342.667 -52.667 464 -158s182 -247 182 -425zM1138 351c45.333 92 78.998 192.168 100.998 300.501s33 215.166 33 320.499c0 122 -23.333 218 -70 288s-116.334 105 -209.001 105
c-81.333 0 -154.166 -27.333 -218.499 -82s-118.5 -125.667 -162.5 -213s-77.667 -186 -101 -296s-35 -219.333 -35 -328c0 -118 23.333 -212.833 70 -284.5s116.667 -107.5 210 -107.5c80.667 0 153.834 28 219.501 84s119.834 127 162.501 213zM1301 1768
c0 -28 -8.66699 -51.001 -26 -69.001s-42.333 -33.667 -75 -47c-37.333 -15.333 -93.333 -36.666 -168 -63.999s-161.334 -61.666 -260.001 -102.999l-33 41l157.5 151c36.333 35.333 73.5 73.666 111.5 114.999c24.667 27.333 48.834 46.833 72.501 58.5
s48.5 17.5 74.5 17.5c43.333 0 78.5 -9.16699 105.5 -27.5s40.5 -42.5 40.5 -72.5z" />
    <glyph glyph-name="Ocircumflex" unicode="&#xd4;" horiz-adv-x="1679" 
d="M1661 875c0 -120 -22.499 -235.833 -67.499 -347.5s-108.167 -208.834 -189.5 -291.501c-83.333 -84.667 -181.333 -151.667 -294 -201s-240.334 -74 -383.001 -74c-186.667 0 -340 53.833 -460 161.5s-180 248.5 -180 422.5c0 126.667 24.333 245.834 73 357.501
s116 209.167 202 292.5c84 82 182.5 146.333 295.5 193s232.167 70 357.5 70c188 0 342.667 -52.667 464 -158s182 -247 182 -425zM1138 351c45.333 92 78.998 192.168 100.998 300.501s33 215.166 33 320.499c0 122 -23.333 218 -70 288s-116.334 105 -209.001 105
c-81.333 0 -154.166 -27.333 -218.499 -82s-118.5 -125.667 -162.5 -213s-77.667 -186 -101 -296s-35 -219.333 -35 -328c0 -118 23.333 -212.833 70 -284.5s116.667 -107.5 210 -107.5c80.667 0 153.834 28 219.501 84s119.834 127 162.501 213zM1378 1513l-34 -29.001
l-311 203l-384 -203l-32 29l196 198c42.667 41.333 74.667 73.333 96 96c18.667 20.667 38.834 36 60.501 46s51.167 15 88.5 15c36.667 0 63.167 -4.66699 79.5 -14s31.166 -23.666 44.499 -42.999l65 -98z" />
    <glyph glyph-name="Otilde" unicode="&#xd5;" horiz-adv-x="1679" 
d="M1661 875c0 -120 -22.499 -235.833 -67.499 -347.5s-108.167 -208.834 -189.5 -291.501c-83.333 -84.667 -181.333 -151.667 -294 -201s-240.334 -74 -383.001 -74c-186.667 0 -340 53.833 -460 161.5s-180 248.5 -180 422.5c0 126.667 24.333 245.834 73 357.501
s116 209.167 202 292.5c84 82 182.5 146.333 295.5 193s232.167 70 357.5 70c188 0 342.667 -52.667 464 -158s182 -247 182 -425zM1138 351c45.333 92 78.998 192.168 100.998 300.501s33 215.166 33 320.499c0 122 -23.333 218 -70 288s-116.334 105 -209.001 105
c-81.333 0 -154.166 -27.333 -218.499 -82s-118.5 -125.667 -162.5 -213s-77.667 -186 -101 -296s-35 -219.333 -35 -328c0 -118 23.333 -212.833 70 -284.5s116.667 -107.5 210 -107.5c80.667 0 153.834 28 219.501 84s119.834 127 162.501 213zM1505 1849
c-12.667 -28.667 -30.3291 -60.667 -52.9961 -96s-49 -68 -79 -98c-32 -32 -64.667 -57.833 -98 -77.5s-70.333 -29.5 -111 -29.5c-42.667 0 -80.667 6.5 -114 19.5s-61.333 25.833 -84 38.5c-24 12.667 -49.5 24.667 -76.5 36s-53.5 17 -79.5 17
c-34.667 0 -62.667 -15.167 -84 -45.5l-73 -102.5l-71 30c12 24.667 30 55.167 54 91.5s49.333 68.833 76 97.5c27.333 30 58.666 55.667 93.999 77s71.333 32 108 32c34 0 66.667 -5.5 98 -16.5s61.666 -23.5 90.999 -37.5l80 -39c22 -10.667 47.333 -16 76 -16
c27.333 0 49.166 2.83301 65.499 8.5s29.5 14.5 39.5 26.5c11.333 14 21.666 29.833 30.999 47.5l33 60.5z" />
    <glyph glyph-name="Odieresis" unicode="&#xd6;" horiz-adv-x="1679" 
d="M1661 875c0 -120 -22.499 -235.833 -67.499 -347.5s-108.167 -208.834 -189.5 -291.501c-83.333 -84.667 -181.333 -151.667 -294 -201s-240.334 -74 -383.001 -74c-186.667 0 -340 53.833 -460 161.5s-180 248.5 -180 422.5c0 126.667 24.333 245.834 73 357.501
s116 209.167 202 292.5c84 82 182.5 146.333 295.5 193s232.167 70 357.5 70c188 0 342.667 -52.667 464 -158s182 -247 182 -425zM1138 351c45.333 92 78.998 192.168 100.998 300.501s33 215.166 33 320.499c0 122 -23.333 218 -70 288s-116.334 105 -209.001 105
c-81.333 0 -154.166 -27.333 -218.499 -82s-118.5 -125.667 -162.5 -213s-77.667 -186 -101 -296s-35 -219.333 -35 -328c0 -118 23.333 -212.833 70 -284.5s116.667 -107.5 210 -107.5c80.667 0 153.834 28 219.501 84s119.834 127 162.501 213zM1445 1702
c0 -44.667 -15.5 -83.5 -46.5 -116.5s-67.833 -49.5 -110.5 -49.5c-44 0 -81.333 16.667 -112 50s-46 72 -46 116c0 44.667 15.333 83.5 46 116.5s68 49.5 112 49.5c42.667 0 79.5 -16.5 110.5 -49.5s46.5 -71.833 46.5 -116.5zM908.999 1702
c0 -44.667 -15.667 -83.5 -47 -116.5s-68.333 -49.5 -111 -49.5c-43.333 0 -80.333 16.333 -111 49s-46 71.667 -46 117c0 44.667 15.167 83.5 45.5 116.5s67.5 49.5 111.5 49.5c42.667 0 79.667 -16.5 111 -49.5s47 -71.833 47 -116.5z" />
    <glyph glyph-name="multiply" unicode="&#xd7;" 
d="M1239 192l-115 -115l-383 384l-383 -384l-115 115l385 383l-385 382l115 116l383 -385l383 385l115 -116l-385 -382z" />
    <glyph glyph-name="Oslash" unicode="&#xd8;" horiz-adv-x="1679" 
d="M1274 1058l-776 -806.997c20 -62.667 51.833 -111.167 95.5 -145.5s97.834 -51.5 162.501 -51.5c80.667 0 154 27.5 220 82.5s120.667 125.167 164 210.5s77 182.666 101 291.999s36 220.333 36 333c0 11.333 -0.333008 25.166 -1 41.499
s-1.33398 31.166 -2.00098 44.499zM473 366.003l776.001 805.998c-23.333 67.333 -56.666 116.333 -99.999 147s-95.333 46 -156 46c-80.667 0 -153.334 -26.667 -218.001 -80s-120 -124 -166 -212c-44.667 -86.667 -78.834 -185.167 -102.501 -295.5
s-35.5 -220.833 -35.5 -331.5c0 -15.333 0.333008 -30.166 1 -44.499s1 -26.166 1 -35.499zM251.001 140.001c-51.333 50 -91.498 109.499 -120.498 178.499s-43.5 144.5 -43.5 226.5c0 126.667 24.333 245.834 73 357.501s116 209.167 202 292.5
c84 82 182.5 146.333 295.5 193s232.167 70 357.5 70c76.667 0 148.5 -9.66699 215.5 -29s128.5 -47.666 184.5 -84.999l160 165l74 -68l-156 -160c53.333 -51.333 94.666 -111.5 123.999 -180.5s44 -144.167 44 -225.5c0 -120 -22.5 -235.833 -67.5 -347.5
s-108.167 -208.834 -189.5 -291.501c-83.333 -84.667 -181.333 -151.667 -294 -201s-240.334 -74 -383.001 -74c-74.667 0 -146.5 10 -215.5 30s-130.167 48.333 -183.5 85l-165 -171l-74 68z" />
    <glyph glyph-name="Ugrave" unicode="&#xd9;" horiz-adv-x="1707" 
d="M755 -39c-173.333 0 -306.167 33.4971 -398.5 100.497s-138.5 161.5 -138.5 283.5c0 21.333 1.33301 42.833 4 64.5s6.66699 45.167 12 70.5l164 709c3.33301 14 5.66602 25 6.99902 33s2 15 2 21c0 28 -13.333 49.667 -40 65s-73 28 -139 38l17 73h760l-17 -73
c-22 -1.33301 -46 -4.16602 -72 -8.49902s-48 -9.16602 -66 -14.499c-27.333 -8 -47.333 -21.167 -60 -39.5s-21.667 -39.166 -27 -62.499l-162 -699c-6.66699 -28 -12 -58.333 -16 -91s-6 -60 -6 -82c0 -86 24.667 -149.5 74 -190.5s121.333 -61.5 216 -61.5
c114.667 0 213.834 38.167 297.501 114.5s139.834 177.5 168.501 303.5l112 486c9.33301 41.333 16.166 76.666 20.499 105.999s6.5 54 6.5 74c0 25.333 -2.83301 46.333 -8.5 63s-13.834 30 -24.501 40c-16.667 15.333 -44.167 28.833 -82.5 40.5
s-66.166 18.834 -83.499 21.501l17 73h615l-17 -73c-20 -2 -48.833 -6.5 -86.5 -13.5s-71.167 -19.167 -100.5 -36.5c-29.333 -16.667 -54.166 -47.167 -74.499 -91.5s-40.5 -108.833 -60.5 -193.5l-123 -533c-38.667 -165.333 -119.834 -292.833 -243.501 -382.5
s-272.5 -134.5 -446.5 -134.5zM1310 1526l-38.998 -41.001c-98.667 44.667 -181.334 80.334 -248.001 107.001s-115 46.667 -145 60c-28 12.667 -50.5 26.667 -67.5 42s-25.5 34 -25.5 56c0 34.667 13.167 63 39.5 85s63.166 33 110.499 33c26.667 0 50.5 -6 71.5 -18
s42.833 -31.333 65.5 -58l103.5 -118z" />
    <glyph glyph-name="Uacute" unicode="&#xda;" horiz-adv-x="1707" 
d="M755 -39c-173.333 0 -306.167 33.4971 -398.5 100.497s-138.5 161.5 -138.5 283.5c0 21.333 1.33301 42.833 4 64.5s6.66699 45.167 12 70.5l164 709c3.33301 14 5.66602 25 6.99902 33s2 15 2 21c0 28 -13.333 49.667 -40 65s-73 28 -139 38l17 73h760l-17 -73
c-22 -1.33301 -46 -4.16602 -72 -8.49902s-48 -9.16602 -66 -14.499c-27.333 -8 -47.333 -21.167 -60 -39.5s-21.667 -39.166 -27 -62.499l-162 -699c-6.66699 -28 -12 -58.333 -16 -91s-6 -60 -6 -82c0 -86 24.667 -149.5 74 -190.5s121.333 -61.5 216 -61.5
c114.667 0 213.834 38.167 297.501 114.5s139.834 177.5 168.501 303.5l112 486c9.33301 41.333 16.166 76.666 20.499 105.999s6.5 54 6.5 74c0 25.333 -2.83301 46.333 -8.5 63s-13.834 30 -24.501 40c-16.667 15.333 -44.167 28.833 -82.5 40.5
s-66.166 18.834 -83.499 21.501l17 73h615l-17 -73c-20 -2 -48.833 -6.5 -86.5 -13.5s-71.167 -19.167 -100.5 -36.5c-29.333 -16.667 -54.166 -47.167 -74.499 -91.5s-40.5 -108.833 -60.5 -193.5l-123 -533c-38.667 -165.333 -119.834 -292.833 -243.501 -382.5
s-272.5 -134.5 -446.5 -134.5zM1411 1768c0 -28 -8.66699 -51.001 -26 -69.001s-42.333 -33.667 -75 -47c-37.333 -15.333 -93.333 -36.666 -168 -63.999s-161.334 -61.666 -260.001 -102.999l-33 41l157.5 151c36.333 35.333 73.5 73.666 111.5 114.999
c24.667 27.333 48.834 46.833 72.501 58.5s48.5 17.5 74.5 17.5c43.333 0 78.5 -9.16699 105.5 -27.5s40.5 -42.5 40.5 -72.5z" />
    <glyph glyph-name="Ucircumflex" unicode="&#xdb;" horiz-adv-x="1707" 
d="M755 -39c-173.333 0 -306.167 33.4971 -398.5 100.497s-138.5 161.5 -138.5 283.5c0 21.333 1.33301 42.833 4 64.5s6.66699 45.167 12 70.5l164 709c3.33301 14 5.66602 25 6.99902 33s2 15 2 21c0 28 -13.333 49.667 -40 65s-73 28 -139 38l17 73h760l-17 -73
c-22 -1.33301 -46 -4.16602 -72 -8.49902s-48 -9.16602 -66 -14.499c-27.333 -8 -47.333 -21.167 -60 -39.5s-21.667 -39.166 -27 -62.499l-162 -699c-6.66699 -28 -12 -58.333 -16 -91s-6 -60 -6 -82c0 -86 24.667 -149.5 74 -190.5s121.333 -61.5 216 -61.5
c114.667 0 213.834 38.167 297.501 114.5s139.834 177.5 168.501 303.5l112 486c9.33301 41.333 16.166 76.666 20.499 105.999s6.5 54 6.5 74c0 25.333 -2.83301 46.333 -8.5 63s-13.834 30 -24.501 40c-16.667 15.333 -44.167 28.833 -82.5 40.5
s-66.166 18.834 -83.499 21.501l17 73h615l-17 -73c-20 -2 -48.833 -6.5 -86.5 -13.5s-71.167 -19.167 -100.5 -36.5c-29.333 -16.667 -54.166 -47.167 -74.499 -91.5s-40.5 -108.833 -60.5 -193.5l-123 -533c-38.667 -165.333 -119.834 -292.833 -243.501 -382.5
s-272.5 -134.5 -446.5 -134.5zM1502 1513l-34 -29.001l-311 203l-384 -203l-32 29l196 198c42.667 41.333 74.667 73.333 96 96c18.667 20.667 38.834 36 60.501 46s51.167 15 88.5 15c36.667 0 63.167 -4.66699 79.5 -14s31.166 -23.666 44.499 -42.999l65 -98z" />
    <glyph glyph-name="Udieresis" unicode="&#xdc;" horiz-adv-x="1707" 
d="M755 -39c-173.333 0 -306.167 33.4971 -398.5 100.497s-138.5 161.5 -138.5 283.5c0 21.333 1.33301 42.833 4 64.5s6.66699 45.167 12 70.5l164 709c3.33301 14 5.66602 25 6.99902 33s2 15 2 21c0 28 -13.333 49.667 -40 65s-73 28 -139 38l17 73h760l-17 -73
c-22 -1.33301 -46 -4.16602 -72 -8.49902s-48 -9.16602 -66 -14.499c-27.333 -8 -47.333 -21.167 -60 -39.5s-21.667 -39.166 -27 -62.499l-162 -699c-6.66699 -28 -12 -58.333 -16 -91s-6 -60 -6 -82c0 -86 24.667 -149.5 74 -190.5s121.333 -61.5 216 -61.5
c114.667 0 213.834 38.167 297.501 114.5s139.834 177.5 168.501 303.5l112 486c9.33301 41.333 16.166 76.666 20.499 105.999s6.5 54 6.5 74c0 25.333 -2.83301 46.333 -8.5 63s-13.834 30 -24.501 40c-16.667 15.333 -44.167 28.833 -82.5 40.5
s-66.166 18.834 -83.499 21.501l17 73h615l-17 -73c-20 -2 -48.833 -6.5 -86.5 -13.5s-71.167 -19.167 -100.5 -36.5c-29.333 -16.667 -54.166 -47.167 -74.499 -91.5s-40.5 -108.833 -60.5 -193.5l-123 -533c-38.667 -165.333 -119.834 -292.833 -243.501 -382.5
s-272.5 -134.5 -446.5 -134.5zM1583 1702c0 -44.667 -15.5 -83.5 -46.5 -116.5s-67.833 -49.5 -110.5 -49.5c-44 0 -81.333 16.667 -112 50s-46 72 -46 116c0 44.667 15.333 83.5 46 116.5s68 49.5 112 49.5c42.667 0 79.5 -16.5 110.5 -49.5s46.5 -71.833 46.5 -116.5z
M1047 1702c0 -44.667 -15.667 -83.5 -47 -116.5s-68.333 -49.5 -111 -49.5c-43.333 0 -80.333 16.333 -111 49s-46 71.667 -46 117c0 44.667 15.167 83.5 45.5 116.5s67.5 49.5 111.5 49.5c42.667 0 79.667 -16.5 111 -49.5s47 -71.833 47 -116.5z" />
    <glyph glyph-name="Yacute" unicode="&#xdd;" horiz-adv-x="1499" 
d="M1770 1419l-16.9971 -73.0049c-22.667 -2.66699 -43.667 -6.66699 -63 -12s-41.666 -14.666 -66.999 -27.999c-32 -16 -60.833 -35.167 -86.5 -57.5s-55.167 -51.5 -88.5 -87.5l-181.5 -201l-217.5 -254c-58.667 -68 -94 -115.833 -106 -143.5
s-25.667 -75.834 -41 -144.501l-43 -186c-2.66699 -11.333 -4.83398 -22.166 -6.50098 -32.499s-2.5 -17.833 -2.5 -22.5c0 -16 3.16699 -30.167 9.5 -42.5s18.166 -22.166 35.499 -29.499c16 -6.66699 39.333 -13.167 70 -19.5s56 -10.5 76 -12.5l-17 -73h-791l17 73
c18.667 1.33301 46 4 82 8s61.667 8.66699 77 14c25.333 10 45 24.333 59 43s23.667 40 29 64l59 255l11 49.5c3.33301 14.333 5 26.833 5 37.5c0 14 -3.66699 32 -11 54l-29 84l-90.5 259c-21 58.667 -49.5 134.334 -85.5 227.001
c-13.333 34.667 -28.833 63.834 -46.5 87.501s-37.167 42.834 -58.5 57.501c-16 10 -35.833 17.667 -59.5 23s-45.834 8.66602 -66.501 9.99902l17 73h793l-17 -73c-68.667 -2 -119.834 -7.5 -153.501 -16.5s-50.5 -22.833 -50.5 -41.5
c0 -8.66699 2.83301 -25.834 8.5 -51.501s17.834 -68.167 36.501 -127.5c14 -45.333 33.833 -104.166 59.5 -176.499l85.5 -238.5l231.5 270.5c70.333 82.333 118.5 139.833 144.5 172.5c49.333 61.333 77.666 99.166 84.999 113.499s11 24.833 11 31.5
c0 20.667 -15.833 35.834 -47.5 45.501s-70.167 15.834 -115.5 18.501l17 73h540zM1341 1768c0 -28 -8.66699 -51.001 -26 -69.001s-42.333 -33.667 -75 -47c-37.333 -15.333 -93.333 -36.666 -168 -63.999s-161.334 -61.666 -260.001 -102.999l-33 41l157.5 151
c36.333 35.333 73.5 73.666 111.5 114.999c24.667 27.333 48.834 46.833 72.501 58.5s48.5 17.5 74.5 17.5c43.333 0 78.5 -9.16699 105.5 -27.5s40.5 -42.5 40.5 -72.5z" />
    <glyph glyph-name="Thorn" unicode="&#xde;" horiz-adv-x="1450" 
d="M1464 830c0 -82.667 -19.9951 -156.33 -59.9951 -220.997s-91 -117.334 -153 -158.001c-63.333 -41.333 -133.333 -72.5 -210 -93.5s-155.334 -31.5 -236.001 -31.5h-221l-24 -100c-2.66699 -11.333 -4.83398 -22 -6.50098 -32s-2.5 -17.667 -2.5 -23
c0 -30 12.333 -52 37 -66s71.667 -24.667 141 -32l-17 -73h-767l17 73c16.667 0.666992 41.5 3.16699 74.5 7.5s57.5 9.16602 73.5 14.499c26 8.66699 45.833 21.667 59.5 39s23.167 37.666 28.5 60.999l229 992c3.33301 14 5.66602 25.667 6.99902 35s2 16.333 2 21
c0 28 -14.167 49.833 -42.5 65.5s-74.5 28.167 -138.5 37.5l17 73h767l-17 -73c-20.667 -1.33301 -45.834 -4.66602 -75.501 -9.99902s-52.834 -10.333 -69.501 -15c-28 -8.66699 -48.333 -22.334 -61 -41.001s-21.667 -39 -27 -61l-17 -75h205
c162.667 0 284.5 -25.167 365.5 -75.5s121.5 -129.833 121.5 -238.5zM1068 836.004c0 72 -18.834 125.833 -56.501 161.5s-101.5 53.5 -191.5 53.5h-69l-146 -632h75c70.667 0 131.334 11.333 182.001 34s90.667 53 120 91c30 38 51.833 81.667 65.5 131s20.5 103 20.5 161z
" />
    <glyph glyph-name="germandbls" unicode="&#xdf;" horiz-adv-x="1343" 
d="M294 1017c17.333 84.667 44.1689 161.665 80.502 230.998s93.166 130.333 170.499 183c64 43.333 127.5 74 190.5 92s129.5 27 199.5 27c51.333 0 102.333 -5.5 153 -16.5s94.667 -27.167 132 -48.5c39.333 -22.667 70.333 -50.334 93 -83.001s34 -72.334 34 -119.001
c0 -50 -11 -95.5 -33 -136.5s-50 -75.5 -84 -103.5c-34.667 -28.667 -72.834 -52.334 -114.501 -71.001s-82.834 -31.334 -123.501 -38.001v-12c36 -7.33301 70.167 -18.666 102.5 -33.999s62.833 -37 91.5 -65c27.333 -27.333 49.5 -60 66.5 -98s25.5 -84.333 25.5 -139
c0 -164 -56.5 -304.5 -169.5 -421.5s-246.167 -175.5 -399.5 -175.5c-44 0 -88.167 2.33301 -132.5 7s-74.833 9 -91.5 13l18 86l34.5 -7c16.333 -3.33301 34.166 -5 53.499 -5c52 0 98.833 16.333 140.5 49s76.5 74.667 104.5 126c29.333 55.333 51.333 115.333 66 180
s22 133.334 22 206.001c0 74 -14.667 132.5 -44 175.5s-76.333 64.5 -141 64.5h-28l21 89h37c32.667 0 64.834 6.66699 96.501 20s59.834 34 84.501 62c26 28.667 46.5 62.334 61.5 101.001s22.5 88.334 22.5 149.001c0 52.667 -11.333 92.834 -34 120.501
s-55 41.5 -97 41.5c-68 0 -122 -28.833 -162 -86.5s-74.667 -155.834 -104 -294.501l-218 -1026c-30.667 -139.333 -103.667 -258.166 -219 -356.499s-239.666 -147.5 -372.999 -147.5c-60.667 0 -109.834 6 -147.501 18s-67.167 27.333 -88.5 46
c-20.667 18.667 -34.667 39.334 -42 62.001s-11 45 -11 67c0 36 13.5 69.5 40.5 100.5s64.5 46.5 112.5 46.5c36 0 67.167 -9.5 93.5 -28.5s48.833 -41.833 67.5 -68.5c18.667 -26 35.167 -55 49.5 -87l33.5 -75c30 33.333 56.833 80.333 80.5 141s46.167 142 67.5 244z" />
    <glyph glyph-name="agrave" unicode="&#xe0;" horiz-adv-x="1352" 
d="M760 125l-8.00098 0.00195312l-66.5 -55c-21 -16.667 -47.5 -33.334 -79.5 -50.001c-28 -14.667 -57.5 -26.834 -88.5 -36.501s-65.167 -14.5 -102.5 -14.5c-116 0 -203.333 34.167 -262 102.5s-88 161.833 -88 280.5c0 91.333 16.333 177 49 257
s76.334 150.333 131.001 211c55.333 60 120 107.5 194 142.5s152 52.5 234 52.5c60 0 112.5 -7 157.5 -21s81.833 -33 110.5 -57l307 63l14 -16l-147 -615c-5.33301 -20.667 -11 -46.5 -17 -77.5s-9 -54.5 -9 -70.5c0 -38 8.66699 -64.167 26 -78.5s47.333 -21.5 90 -21.5
c18.667 0 41.167 3.66699 67.5 11s44.833 13.333 55.5 18l-22 -90c-66 -26 -118.833 -45.833 -158.5 -59.5s-85.5 -20.5 -137.5 -20.5c-68.667 0 -123.5 13.5 -164.5 40.5s-69.5 61.833 -85.5 104.5zM878.999 759.002c0 14.667 -2 32.001 -6 52.001s-11 37 -21 51
c-12 17.333 -27.667 30.5 -47 39.5s-43.333 13.5 -72 13.5c-44 0 -84.5 -15.833 -121.5 -47.5s-69.833 -73.834 -98.5 -126.501c-28 -52 -50 -112.5 -66 -181.5s-24 -139.5 -24 -211.5c0 -32.667 2.5 -63 7.5 -91s13.167 -51.667 24.5 -71
c12 -20.667 28.167 -36.667 48.5 -48s45.833 -17 76.5 -17c31.333 0 61.5 9.16699 90.5 27.5s55.833 40.833 80.5 67.5zM946.999 1139l-46.001 -37.999c-87.333 58.667 -163 106.667 -227 144s-109.333 65.333 -136 84c-23.333 17.333 -40.666 34 -51.999 50s-17 36 -17 60
s10.5 48.167 31.5 72.5s48.5 36.5 82.5 36.5c42 0 75.333 -8 100 -24s49.334 -42.667 74.001 -80c19.333 -29.333 45.166 -71.333 77.499 -126s69.833 -114.334 112.5 -179.001z" />
    <glyph glyph-name="aacute" unicode="&#xe1;" horiz-adv-x="1352" 
d="M760 125l-8.00098 0.00195312l-66.5 -55c-21 -16.667 -47.5 -33.334 -79.5 -50.001c-28 -14.667 -57.5 -26.834 -88.5 -36.501s-65.167 -14.5 -102.5 -14.5c-116 0 -203.333 34.167 -262 102.5s-88 161.833 -88 280.5c0 91.333 16.333 177 49 257
s76.334 150.333 131.001 211c55.333 60 120 107.5 194 142.5s152 52.5 234 52.5c60 0 112.5 -7 157.5 -21s81.833 -33 110.5 -57l307 63l14 -16l-147 -615c-5.33301 -20.667 -11 -46.5 -17 -77.5s-9 -54.5 -9 -70.5c0 -38 8.66699 -64.167 26 -78.5s47.333 -21.5 90 -21.5
c18.667 0 41.167 3.66699 67.5 11s44.833 13.333 55.5 18l-22 -90c-66 -26 -118.833 -45.833 -158.5 -59.5s-85.5 -20.5 -137.5 -20.5c-68.667 0 -123.5 13.5 -164.5 40.5s-69.5 61.833 -85.5 104.5zM878.999 759.002c0 14.667 -2 32.001 -6 52.001s-11 37 -21 51
c-12 17.333 -27.667 30.5 -47 39.5s-43.333 13.5 -72 13.5c-44 0 -84.5 -15.833 -121.5 -47.5s-69.833 -73.834 -98.5 -126.501c-28 -52 -50 -112.5 -66 -181.5s-24 -139.5 -24 -211.5c0 -32.667 2.5 -63 7.5 -91s13.167 -51.667 24.5 -71
c12 -20.667 28.167 -36.667 48.5 -48s45.833 -17 76.5 -17c31.333 0 61.5 9.16699 90.5 27.5s55.833 40.833 80.5 67.5zM1033 1460c0 -30 -6.83203 -54.168 -20.499 -72.501s-35.5 -37.166 -65.5 -56.499c-32.667 -21.333 -84.334 -51.5 -155.001 -90.5
s-150.667 -85.5 -240 -139.5l-42 38c58.667 78 104 140.167 136 186.5l83 118.5c28.667 40.667 56 68.167 82 82.5s58.333 21.5 97 21.5c32 0 60.833 -8.66699 86.5 -26s38.5 -38 38.5 -62z" />
    <glyph glyph-name="acircumflex" unicode="&#xe2;" horiz-adv-x="1352" 
d="M760 125l-8.00098 0.00195312l-66.5 -55c-21 -16.667 -47.5 -33.334 -79.5 -50.001c-28 -14.667 -57.5 -26.834 -88.5 -36.501s-65.167 -14.5 -102.5 -14.5c-116 0 -203.333 34.167 -262 102.5s-88 161.833 -88 280.5c0 91.333 16.333 177 49 257
s76.334 150.333 131.001 211c55.333 60 120 107.5 194 142.5s152 52.5 234 52.5c60 0 112.5 -7 157.5 -21s81.833 -33 110.5 -57l307 63l14 -16l-147 -615c-5.33301 -20.667 -11 -46.5 -17 -77.5s-9 -54.5 -9 -70.5c0 -38 8.66699 -64.167 26 -78.5s47.333 -21.5 90 -21.5
c18.667 0 41.167 3.66699 67.5 11s44.833 13.333 55.5 18l-22 -90c-66 -26 -118.833 -45.833 -158.5 -59.5s-85.5 -20.5 -137.5 -20.5c-68.667 0 -123.5 13.5 -164.5 40.5s-69.5 61.833 -85.5 104.5zM878.999 759.002c0 14.667 -2 32.001 -6 52.001s-11 37 -21 51
c-12 17.333 -27.667 30.5 -47 39.5s-43.333 13.5 -72 13.5c-44 0 -84.5 -15.833 -121.5 -47.5s-69.833 -73.834 -98.5 -126.501c-28 -52 -50 -112.5 -66 -181.5s-24 -139.5 -24 -211.5c0 -32.667 2.5 -63 7.5 -91s13.167 -51.667 24.5 -71
c12 -20.667 28.167 -36.667 48.5 -48s45.833 -17 76.5 -17c31.333 0 61.5 9.16699 90.5 27.5s55.833 40.833 80.5 67.5zM1086 1132l-54.0029 -28.998l-278 254l-358 -254l-51 29l172 220.5c37.333 47.667 76 92.5 116 134.5c18.667 20.667 38.834 36 60.501 46
s51.167 15 88.5 15c38.667 0 65.834 -4.83301 81.501 -14.5s29.834 -23.834 42.501 -42.501c26 -38.667 53.333 -88.334 82 -149.001z" />
    <glyph glyph-name="atilde" unicode="&#xe3;" horiz-adv-x="1352" 
d="M760 125l-8.00098 0.00195312l-66.5 -55c-21 -16.667 -47.5 -33.334 -79.5 -50.001c-28 -14.667 -57.5 -26.834 -88.5 -36.501s-65.167 -14.5 -102.5 -14.5c-116 0 -203.333 34.167 -262 102.5s-88 161.833 -88 280.5c0 91.333 16.333 177 49 257
s76.334 150.333 131.001 211c55.333 60 120 107.5 194 142.5s152 52.5 234 52.5c60 0 112.5 -7 157.5 -21s81.833 -33 110.5 -57l307 63l14 -16l-147 -615c-5.33301 -20.667 -11 -46.5 -17 -77.5s-9 -54.5 -9 -70.5c0 -38 8.66699 -64.167 26 -78.5s47.333 -21.5 90 -21.5
c18.667 0 41.167 3.66699 67.5 11s44.833 13.333 55.5 18l-22 -90c-66 -26 -118.833 -45.833 -158.5 -59.5s-85.5 -20.5 -137.5 -20.5c-68.667 0 -123.5 13.5 -164.5 40.5s-69.5 61.833 -85.5 104.5zM878.999 759.002c0 14.667 -2 32.001 -6 52.001s-11 37 -21 51
c-12 17.333 -27.667 30.5 -47 39.5s-43.333 13.5 -72 13.5c-44 0 -84.5 -15.833 -121.5 -47.5s-69.833 -73.834 -98.5 -126.501c-28 -52 -50 -112.5 -66 -181.5s-24 -139.5 -24 -211.5c0 -32.667 2.5 -63 7.5 -91s13.167 -51.667 24.5 -71
c12 -20.667 28.167 -36.667 48.5 -48s45.833 -17 76.5 -17c31.333 0 61.5 9.16699 90.5 27.5s55.833 40.833 80.5 67.5zM1216 1484c-12.667 -28.667 -30.3291 -60.667 -52.9961 -96s-49 -68 -79 -98c-32 -32 -64.667 -57.833 -98 -77.5s-70.333 -29.5 -111 -29.5
c-42.667 0 -80.667 6.5 -114 19.5s-61.333 25.833 -84 38.5c-24 12.667 -49.5 24.667 -76.5 36s-53.5 17 -79.5 17c-34.667 0 -62.667 -15.167 -84 -45.5l-73 -102.5l-71 30c12 24.667 30 55.167 54 91.5s49.333 68.833 76 97.5c27.333 30 58.666 55.667 93.999 77
s71.333 32 108 32c34 0 66.667 -5.5 98 -16.5s61.666 -23.5 90.999 -37.5l80 -39c22 -10.667 47.333 -16 76 -16c27.333 0 49.166 2.83301 65.499 8.5s29.5 14.5 39.5 26.5c11.333 14 21.666 29.833 30.999 47.5l33 60.5z" />
    <glyph glyph-name="adieresis" unicode="&#xe4;" horiz-adv-x="1352" 
d="M760 125l-8.00098 0.00195312l-66.5 -55c-21 -16.667 -47.5 -33.334 -79.5 -50.001c-28 -14.667 -57.5 -26.834 -88.5 -36.501s-65.167 -14.5 -102.5 -14.5c-116 0 -203.333 34.167 -262 102.5s-88 161.833 -88 280.5c0 91.333 16.333 177 49 257
s76.334 150.333 131.001 211c55.333 60 120 107.5 194 142.5s152 52.5 234 52.5c60 0 112.5 -7 157.5 -21s81.833 -33 110.5 -57l307 63l14 -16l-147 -615c-5.33301 -20.667 -11 -46.5 -17 -77.5s-9 -54.5 -9 -70.5c0 -38 8.66699 -64.167 26 -78.5s47.333 -21.5 90 -21.5
c18.667 0 41.167 3.66699 67.5 11s44.833 13.333 55.5 18l-22 -90c-66 -26 -118.833 -45.833 -158.5 -59.5s-85.5 -20.5 -137.5 -20.5c-68.667 0 -123.5 13.5 -164.5 40.5s-69.5 61.833 -85.5 104.5zM878.999 759.002c0 14.667 -2 32.001 -6 52.001s-11 37 -21 51
c-12 17.333 -27.667 30.5 -47 39.5s-43.333 13.5 -72 13.5c-44 0 -84.5 -15.833 -121.5 -47.5s-69.833 -73.834 -98.5 -126.501c-28 -52 -50 -112.5 -66 -181.5s-24 -139.5 -24 -211.5c0 -32.667 2.5 -63 7.5 -91s13.167 -51.667 24.5 -71
c12 -20.667 28.167 -36.667 48.5 -48s45.833 -17 76.5 -17c31.333 0 61.5 9.16699 90.5 27.5s55.833 40.833 80.5 67.5zM1156 1349c0 -44.667 -15.5 -83.5 -46.5 -116.5s-67.833 -49.5 -110.5 -49.5c-44 0 -81.333 16.667 -112 50s-46 72 -46 116
c0 44.667 15.333 83.5 46 116.5s68 49.5 112 49.5c42.667 0 79.5 -16.5 110.5 -49.5s46.5 -71.833 46.5 -116.5zM660.999 1349c0 -44.667 -15.667 -83.5 -47 -116.5s-68.333 -49.5 -111 -49.5c-43.333 0 -80.333 16.333 -111 49s-46 71.667 -46 117
c0 44.667 15.167 83.5 45.5 116.5s67.5 49.5 111.5 49.5c42.667 0 79.667 -16.5 111 -49.5s47 -71.833 47 -116.5z" />
    <glyph glyph-name="aring" unicode="&#xe5;" horiz-adv-x="1352" 
d="M760 125l-8.00098 0.00195312l-66.5 -55c-21 -16.667 -47.5 -33.334 -79.5 -50.001c-28 -14.667 -57.5 -26.834 -88.5 -36.501s-65.167 -14.5 -102.5 -14.5c-116 0 -203.333 34.167 -262 102.5s-88 161.833 -88 280.5c0 91.333 16.333 177 49 257
s76.334 150.333 131.001 211c55.333 60 120 107.5 194 142.5s152 52.5 234 52.5c60 0 112.5 -7 157.5 -21s81.833 -33 110.5 -57l307 63l14 -16l-147 -615c-5.33301 -20.667 -11 -46.5 -17 -77.5s-9 -54.5 -9 -70.5c0 -38 8.66699 -64.167 26 -78.5s47.333 -21.5 90 -21.5
c18.667 0 41.167 3.66699 67.5 11s44.833 13.333 55.5 18l-22 -90c-66 -26 -118.833 -45.833 -158.5 -59.5s-85.5 -20.5 -137.5 -20.5c-68.667 0 -123.5 13.5 -164.5 40.5s-69.5 61.833 -85.5 104.5zM878.999 759.002c0 14.667 -2 32.001 -6 52.001s-11 37 -21 51
c-12 17.333 -27.667 30.5 -47 39.5s-43.333 13.5 -72 13.5c-44 0 -84.5 -15.833 -121.5 -47.5s-69.833 -73.834 -98.5 -126.501c-28 -52 -50 -112.5 -66 -181.5s-24 -139.5 -24 -211.5c0 -32.667 2.5 -63 7.5 -91s13.167 -51.667 24.5 -71
c12 -20.667 28.167 -36.667 48.5 -48s45.833 -17 76.5 -17c31.333 0 61.5 9.16699 90.5 27.5s55.833 40.833 80.5 67.5zM737.999 1104c-76 0 -136.333 17.332 -181 51.999s-67 81.334 -67 140.001c0 80 32.333 145.167 97 195.5s141.667 75.5 231 75.5
c72 0 131.333 -17.167 178 -51.5s70 -80.833 70 -139.5c0 -80 -31.833 -145.333 -95.5 -196s-141.167 -76 -232.5 -76zM913.999 1379c0 35.333 -9.16504 63.832 -27.498 85.499s-45.833 32.5 -82.5 32.5c-48.667 0 -87.834 -19.167 -117.501 -57.5
s-44.5 -86.166 -44.5 -143.499c0 -37.333 9.16699 -67 27.5 -89s46.166 -33 83.499 -33c50 0 89.333 19.5 118 58.5s43 87.833 43 146.5z" />
    <glyph glyph-name="ae" unicode="&#xe6;" horiz-adv-x="1754" 
d="M1251 935c-55.333 0 -104.167 -41.6689 -146.5 -125.002s-70.5 -189.666 -84.5 -318.999c39.333 4.66699 78 10.834 116 18.501s68.333 16.5 91 26.5c54.667 24 91.834 54.333 111.501 91s29.5 80.667 29.5 132c0 56.667 -10.333 100.167 -31 130.5
s-49.334 45.5 -86.001 45.5zM1327 1015c118 0 208.5 -18.8301 271.5 -56.4971s94.5 -94.834 94.5 -171.501c0 -72.667 -26.333 -134.667 -79 -186s-126.667 -90.666 -222 -117.999c-73.333 -22 -135.5 -37.833 -186.5 -47.5s-113.833 -18.5 -188.5 -26.5
c0 -29.333 3.16699 -62.333 9.5 -99s16.5 -67.667 30.5 -93c16 -30 38.667 -53.833 68 -71.5s66.666 -26.5 111.999 -26.5c78.667 0 145.5 15.167 200.5 45.5s107.5 78.5 157.5 144.5l73 -61c-60 -85.333 -136.833 -153.5 -230.5 -204.5s-192.167 -76.5 -295.5 -76.5
c-106.667 0 -194.834 18 -264.501 54s-120.834 83.333 -153.501 142h-7c-20 -20.667 -45 -43.334 -75 -68.001s-61.333 -45.667 -94 -63c-38.667 -20 -78.5 -35.667 -119.5 -47s-90.5 -17 -148.5 -17c-75.333 0 -137 19.667 -185 59s-72 91.666 -72 156.999
c0 49.333 7.83301 91.5 23.5 126.5s36.834 65.5 63.501 91.5c24.667 24.667 53.834 45.334 87.501 62.001s67.167 31 100.5 43c78 27.333 157.5 49.666 238.5 66.999s142.167 29.333 183.5 36l26 114c2 10 4.33301 22.5 7 37.5s4 30.5 4 46.5
c0 41.333 -9.66699 72.833 -29 94.5s-48.333 32.5 -87 32.5c-32.667 0 -60.334 -4.33301 -83.001 -13s-38.334 -15.667 -47.001 -21c0.666992 -10.667 2.33398 -24 5.00098 -40s4 -35 4 -57c0 -12 -2.5 -29 -7.5 -51s-13.167 -40 -24.5 -54
c-14.667 -18 -34.167 -33 -58.5 -45s-60.166 -18 -107.499 -18c-48.667 0 -85.667 10.5 -111 31.5s-38 50.5 -38 88.5c0 41.333 16.5 78.166 49.5 110.499s74.167 59.5 123.5 81.5s103.333 38.667 162 50s113.334 17 164.001 17c66.667 0 128.5 -6.83301 185.5 -20.5
s104.167 -36.167 141.5 -67.5c46 24.667 97 45.5 153 62.5s114.333 25.5 175 25.5zM693.999 254.001c-3.33301 13.333 -5.83301 32.167 -7.5 56.5s-2.5 45.5 -2.5 63.5c0 31.333 1.5 57.833 4.5 79.5s7.16699 44.167 12.5 67.5c-43.333 -7.33301 -86 -17.5 -128 -30.5
s-78.333 -29.833 -109 -50.5c-32 -20.667 -57.333 -47.667 -76 -81s-28 -72.666 -28 -117.999c0 -42 11.5 -72.333 34.5 -91s49.5 -28 79.5 -28c34 0 71 10.667 111 32s76.333 54.666 109 99.999z" />
    <glyph glyph-name="ccedilla" unicode="&#xe7;" horiz-adv-x="1097" 
d="M468 -27c-128 13.333 -226.333 57.999 -295 133.999s-103 173 -103 291c0 80.667 13.667 157.167 41 229.5s69.333 138.166 126 197.499c52.667 56 120.334 101.667 203.001 137s175 53 277 53c118 0 208.167 -21.667 270.5 -65s93.5 -103 93.5 -179
c0 -20.667 -3.33301 -43.667 -10 -69s-16.667 -46.666 -30 -63.999c-16.667 -21.333 -34.834 -37.666 -54.501 -48.999s-49.167 -17 -88.5 -17c-52 0 -92.5 12.833 -121.5 38.5s-43.5 52.5 -43.5 80.5c0 33.333 7 66.333 21 99s31.667 67 53 103
c-6 7.33301 -18.167 16.333 -36.5 27s-42.166 16 -71.499 16c-78 0 -142.667 -47.167 -194 -141.5s-77 -211.166 -77 -350.499c0 -106 19.5 -186.333 58.5 -241s94.5 -82 166.5 -82c73.333 0 134.5 14.167 183.5 42.5s99.167 76.833 150.5 145.5l72 -61
c-54.667 -84.667 -126.167 -152.5 -214.5 -203.5s-185.5 -76.5 -291.5 -76.5l-13 -64c65.333 0 117.666 -10.833 156.999 -32.5s59 -53.834 59 -96.501c0 -43.333 -11 -79.333 -33 -108s-53.667 -51 -95 -67c-42 -16 -92.167 -27.333 -150.5 -34s-129.833 -10 -214.5 -10
l18 78c32 0 66 0.333008 102 1s65 3.66699 87 9c26 5.33301 45.833 14.333 59.5 27s20.5 30.334 20.5 53.001c0 21.333 -11.833 35.666 -35.5 42.999s-53.5 11 -89.5 11z" />
    <glyph glyph-name="egrave" unicode="&#xe8;" horiz-adv-x="1141" 
d="M546 -33c-80 0 -150.165 10.8311 -210.498 32.498s-110.166 51.834 -149.499 90.501c-38.667 38.667 -67.667 83.667 -87 135s-29 108 -29 170c0 78.667 14.667 155 44 229s73 140.667 131 200c54.667 56.667 124 102.667 208 138s176.667 53 278 53
c119.333 0 210.166 -19 272.499 -57s93.5 -95 93.5 -171c0 -72.667 -27 -135.167 -81 -187.5s-127.333 -91.166 -220 -116.499c-73.333 -22 -135.833 -37.667 -187.5 -47s-114.834 -18 -189.501 -26c1.33301 -29.333 5.33301 -62.333 12 -99s16.667 -68 30 -94
c16 -30 38.667 -53.833 68 -71.5s66.666 -26.5 111.999 -26.5c78.667 0 145.5 15.167 200.5 45.5s107.5 78.5 157.5 144.5l73 -61c-60 -85.333 -136.833 -153.5 -230.5 -204.5s-192.167 -76.5 -295.5 -76.5zM772.002 758.998c0 56.667 -10.332 100.167 -30.999 130.5
s-49.334 45.5 -86.001 45.5c-51.333 0 -99.833 -41.833 -145.5 -125.5s-74.834 -189.5 -87.501 -317.5c39.333 4.66699 78.333 10.667 117 18s69.334 16 92.001 26c50 22 86 50.333 108 85s33 80.667 33 138zM907.003 1139l-46.001 -37.999
c-87.333 58.667 -163 106.667 -227 144s-109.333 65.333 -136 84c-23.333 17.333 -40.666 34 -51.999 50s-17 36 -17 60s10.5 48.167 31.5 72.5s48.5 36.5 82.5 36.5c42 0 75.333 -8 100 -24s49.334 -42.667 74.001 -80c19.333 -29.333 45.166 -71.333 77.499 -126
s69.833 -114.334 112.5 -179.001z" />
    <glyph glyph-name="eacute" unicode="&#xe9;" horiz-adv-x="1141" 
d="M546 -33c-80 0 -150.165 10.8311 -210.498 32.498s-110.166 51.834 -149.499 90.501c-38.667 38.667 -67.667 83.667 -87 135s-29 108 -29 170c0 78.667 14.667 155 44 229s73 140.667 131 200c54.667 56.667 124 102.667 208 138s176.667 53 278 53
c119.333 0 210.166 -19 272.499 -57s93.5 -95 93.5 -171c0 -72.667 -27 -135.167 -81 -187.5s-127.333 -91.166 -220 -116.499c-73.333 -22 -135.833 -37.667 -187.5 -47s-114.834 -18 -189.501 -26c1.33301 -29.333 5.33301 -62.333 12 -99s16.667 -68 30 -94
c16 -30 38.667 -53.833 68 -71.5s66.666 -26.5 111.999 -26.5c78.667 0 145.5 15.167 200.5 45.5s107.5 78.5 157.5 144.5l73 -61c-60 -85.333 -136.833 -153.5 -230.5 -204.5s-192.167 -76.5 -295.5 -76.5zM772.002 758.998c0 56.667 -10.332 100.167 -30.999 130.5
s-49.334 45.5 -86.001 45.5c-51.333 0 -99.833 -41.833 -145.5 -125.5s-74.834 -189.5 -87.501 -317.5c39.333 4.66699 78.333 10.667 117 18s69.334 16 92.001 26c50 22 86 50.333 108 85s33 80.667 33 138zM1010 1460c0 -30 -6.83203 -54.168 -20.499 -72.501
s-35.5 -37.166 -65.5 -56.499c-32.667 -21.333 -84.334 -51.5 -155.001 -90.5s-150.667 -85.5 -240 -139.5l-42 38c58.667 78 104 140.167 136 186.5l83 118.5c28.667 40.667 56 68.167 82 82.5s58.333 21.5 97 21.5c32 0 60.833 -8.66699 86.5 -26s38.5 -38 38.5 -62z" />
    <glyph glyph-name="ecircumflex" unicode="&#xea;" horiz-adv-x="1141" 
d="M546 -33c-80 0 -150.165 10.8311 -210.498 32.498s-110.166 51.834 -149.499 90.501c-38.667 38.667 -67.667 83.667 -87 135s-29 108 -29 170c0 78.667 14.667 155 44 229s73 140.667 131 200c54.667 56.667 124 102.667 208 138s176.667 53 278 53
c119.333 0 210.166 -19 272.499 -57s93.5 -95 93.5 -171c0 -72.667 -27 -135.167 -81 -187.5s-127.333 -91.166 -220 -116.499c-73.333 -22 -135.833 -37.667 -187.5 -47s-114.834 -18 -189.501 -26c1.33301 -29.333 5.33301 -62.333 12 -99s16.667 -68 30 -94
c16 -30 38.667 -53.833 68 -71.5s66.666 -26.5 111.999 -26.5c78.667 0 145.5 15.167 200.5 45.5s107.5 78.5 157.5 144.5l73 -61c-60 -85.333 -136.833 -153.5 -230.5 -204.5s-192.167 -76.5 -295.5 -76.5zM772.002 758.998c0 56.667 -10.332 100.167 -30.999 130.5
s-49.334 45.5 -86.001 45.5c-51.333 0 -99.833 -41.833 -145.5 -125.5s-74.834 -189.5 -87.501 -317.5c39.333 4.66699 78.333 10.667 117 18s69.334 16 92.001 26c50 22 86 50.333 108 85s33 80.667 33 138zM1046 1132l-54.0029 -28.998l-278 254l-358 -254l-51 29
l172 220.5c37.333 47.667 76 92.5 116 134.5c18.667 20.667 38.834 36 60.501 46s51.167 15 88.5 15c38.667 0 65.834 -4.83301 81.501 -14.5s29.834 -23.834 42.501 -42.501c26 -38.667 53.333 -88.334 82 -149.001z" />
    <glyph glyph-name="edieresis" unicode="&#xeb;" horiz-adv-x="1141" 
d="M546 -33c-80 0 -150.165 10.8311 -210.498 32.498s-110.166 51.834 -149.499 90.501c-38.667 38.667 -67.667 83.667 -87 135s-29 108 -29 170c0 78.667 14.667 155 44 229s73 140.667 131 200c54.667 56.667 124 102.667 208 138s176.667 53 278 53
c119.333 0 210.166 -19 272.499 -57s93.5 -95 93.5 -171c0 -72.667 -27 -135.167 -81 -187.5s-127.333 -91.166 -220 -116.499c-73.333 -22 -135.833 -37.667 -187.5 -47s-114.834 -18 -189.501 -26c1.33301 -29.333 5.33301 -62.333 12 -99s16.667 -68 30 -94
c16 -30 38.667 -53.833 68 -71.5s66.666 -26.5 111.999 -26.5c78.667 0 145.5 15.167 200.5 45.5s107.5 78.5 157.5 144.5l73 -61c-60 -85.333 -136.833 -153.5 -230.5 -204.5s-192.167 -76.5 -295.5 -76.5zM772.002 758.998c0 56.667 -10.332 100.167 -30.999 130.5
s-49.334 45.5 -86.001 45.5c-51.333 0 -99.833 -41.833 -145.5 -125.5s-74.834 -189.5 -87.501 -317.5c39.333 4.66699 78.333 10.667 117 18s69.334 16 92.001 26c50 22 86 50.333 108 85s33 80.667 33 138zM1106 1349c0 -44.667 -15.5 -83.5 -46.5 -116.5
s-67.833 -49.5 -110.5 -49.5c-44 0 -81.333 16.667 -112 50s-46 72 -46 116c0 44.667 15.333 83.5 46 116.5s68 49.5 112 49.5c42.667 0 79.5 -16.5 110.5 -49.5s46.5 -71.833 46.5 -116.5zM611.003 1349c0 -44.667 -15.667 -83.5 -47 -116.5s-68.333 -49.5 -111 -49.5
c-43.333 0 -80.333 16.333 -111 49s-46 71.667 -46 117c0 44.667 15.167 83.5 45.5 116.5s67.5 49.5 111.5 49.5c42.667 0 79.667 -16.5 111 -49.5s47 -71.833 47 -116.5z" />
    <glyph glyph-name="igrave" unicode="&#xec;" horiz-adv-x="749" 
d="M713 143l-22 -90c-66 -26 -118.667 -45.833 -158 -59.5s-85 -20.5 -137 -20.5c-80 0 -142.167 19.5 -186.5 58.5s-66.5 88.5 -66.5 148.5c0 23.333 1.66699 47.166 5 71.499s8.66602 51.833 15.999 82.5l82 292c7.33301 28 13.5 54.5 18.5 79.5s7.5 47.833 7.5 68.5
c0 37.333 -7.66699 63.333 -23 78s-44.666 22 -87.999 22c-21.333 0 -43.166 -3.33301 -65.499 -10s-41.5 -13 -57.5 -19l22 90c54 22 105.667 40.833 155 56.5s96 23.5 140 23.5c79.333 0 140.5 -19.167 183.5 -57.5s64.5 -88.166 64.5 -149.499
c0 -12.667 -1.5 -35 -4.5 -67s-8.5 -61.333 -16.5 -88l-82 -291c-6.66699 -23.333 -12.667 -50 -18 -80s-8 -52.667 -8 -68c0 -38.667 8.66699 -65 26 -79s47.333 -21 90 -21c20 0 42.667 3.5 68 10.5s43.666 13.167 54.999 18.5zM617 1139l-46.001 -37.999
c-87.333 58.667 -163 106.667 -227 144s-109.333 65.333 -136 84c-23.333 17.333 -40.666 34 -51.999 50s-17 36 -17 60s10.5 48.167 31.5 72.5s48.5 36.5 82.5 36.5c42 0 75.333 -8 100 -24s49.334 -42.667 74.001 -80c19.333 -29.333 45.166 -71.333 77.499 -126
s69.833 -114.334 112.5 -179.001z" />
    <glyph glyph-name="iacute" unicode="&#xed;" horiz-adv-x="749" 
d="M713 143l-22 -90c-66 -26 -118.667 -45.833 -158 -59.5s-85 -20.5 -137 -20.5c-80 0 -142.167 19.5 -186.5 58.5s-66.5 88.5 -66.5 148.5c0 23.333 1.66699 47.166 5 71.499s8.66602 51.833 15.999 82.5l82 292c7.33301 28 13.5 54.5 18.5 79.5s7.5 47.833 7.5 68.5
c0 37.333 -7.66699 63.333 -23 78s-44.666 22 -87.999 22c-21.333 0 -43.166 -3.33301 -65.499 -10s-41.5 -13 -57.5 -19l22 90c54 22 105.667 40.833 155 56.5s96 23.5 140 23.5c79.333 0 140.5 -19.167 183.5 -57.5s64.5 -88.166 64.5 -149.499
c0 -12.667 -1.5 -35 -4.5 -67s-8.5 -61.333 -16.5 -88l-82 -291c-6.66699 -23.333 -12.667 -50 -18 -80s-8 -52.667 -8 -68c0 -38.667 8.66699 -65 26 -79s47.333 -21 90 -21c20 0 42.667 3.5 68 10.5s43.666 13.167 54.999 18.5zM763 1460
c0 -30 -6.83203 -54.168 -20.499 -72.501s-35.5 -37.166 -65.5 -56.499c-32.667 -21.333 -84.334 -51.5 -155.001 -90.5s-150.667 -85.5 -240 -139.5l-42 38c58.667 78 104 140.167 136 186.5l83 118.5c28.667 40.667 56 68.167 82 82.5s58.333 21.5 97 21.5
c32 0 60.833 -8.66699 86.5 -26s38.5 -38 38.5 -62z" />
    <glyph glyph-name="icircumflex" unicode="&#xee;" horiz-adv-x="749" 
d="M713 143l-22 -90c-66 -26 -118.667 -45.833 -158 -59.5s-85 -20.5 -137 -20.5c-80 0 -142.167 19.5 -186.5 58.5s-66.5 88.5 -66.5 148.5c0 23.333 1.66699 47.166 5 71.499s8.66602 51.833 15.999 82.5l82 292c7.33301 28 13.5 54.5 18.5 79.5s7.5 47.833 7.5 68.5
c0 37.333 -7.66699 63.333 -23 78s-44.666 22 -87.999 22c-21.333 0 -43.166 -3.33301 -65.499 -10s-41.5 -13 -57.5 -19l22 90c54 22 105.667 40.833 155 56.5s96 23.5 140 23.5c79.333 0 140.5 -19.167 183.5 -57.5s64.5 -88.166 64.5 -149.499
c0 -12.667 -1.5 -35 -4.5 -67s-8.5 -61.333 -16.5 -88l-82 -291c-6.66699 -23.333 -12.667 -50 -18 -80s-8 -52.667 -8 -68c0 -38.667 8.66699 -65 26 -79s47.333 -21 90 -21c20 0 42.667 3.5 68 10.5s43.666 13.167 54.999 18.5zM746 1132l-54 -29l-245 254l-341 -254
l-51 29l158.5 208l109.5 147c16 22.667 35.833 38.5 59.5 47.5s53.5 13.5 89.5 13.5c38.667 0 66.5 -5 83.5 -15s30.5 -25 40.5 -45c18.667 -38 39.667 -85.833 63 -143.5z" />
    <glyph glyph-name="idieresis" unicode="&#xef;" horiz-adv-x="749" 
d="M713 143l-22 -90c-66 -26 -118.667 -45.833 -158 -59.5s-85 -20.5 -137 -20.5c-80 0 -142.167 19.5 -186.5 58.5s-66.5 88.5 -66.5 148.5c0 23.333 1.66699 47.166 5 71.499s8.66602 51.833 15.999 82.5l82 292c7.33301 28 13.5 54.5 18.5 79.5s7.5 47.833 7.5 68.5
c0 37.333 -7.66699 63.333 -23 78s-44.666 22 -87.999 22c-21.333 0 -43.166 -3.33301 -65.499 -10s-41.5 -13 -57.5 -19l22 90c54 22 105.667 40.833 155 56.5s96 23.5 140 23.5c79.333 0 140.5 -19.167 183.5 -57.5s64.5 -88.166 64.5 -149.499
c0 -12.667 -1.5 -35 -4.5 -67s-8.5 -61.333 -16.5 -88l-82 -291c-6.66699 -23.333 -12.667 -50 -18 -80s-8 -52.667 -8 -68c0 -38.667 8.66699 -65 26 -79s47.333 -21 90 -21c20 0 42.667 3.5 68 10.5s43.666 13.167 54.999 18.5zM842 1349
c0 -44.667 -15.5 -83.5 -46.5 -116.5s-67.833 -49.5 -110.5 -49.5c-44 0 -81.333 16.667 -112 50s-46 72 -46 116c0 44.667 15.333 83.5 46 116.5s68 49.5 112 49.5c42.667 0 79.5 -16.5 110.5 -49.5s46.5 -71.833 46.5 -116.5zM383 1349
c0 -44.667 -15.667 -83.5 -47 -116.5s-68.333 -49.5 -111 -49.5c-43.333 0 -80.333 16.333 -111 49s-46 71.667 -46 117c0 44.667 15.167 83.5 45.5 116.5s67.5 49.5 111.5 49.5c42.667 0 79.667 -16.5 111 -49.5s47 -71.833 47 -116.5z" />
    <glyph glyph-name="eth" unicode="&#xf0;" horiz-adv-x="1305" 
d="M1271 826c0 -118 -16.1641 -230.168 -48.4971 -336.501s-78.5 -197.166 -138.5 -272.499c-62 -78.667 -136.333 -139.834 -223 -183.501s-187.334 -65.5 -302.001 -65.5c-150 0 -269.5 38.667 -358.5 116s-133.5 181.666 -133.5 312.999c0 82.667 15.333 162 46 238
s73.334 142.667 128.001 200c54 56.667 118.833 101.5 194.5 134.5s157.167 49.5 244.5 49.5c63.333 0 116.666 -10.667 159.999 -32s76.666 -52.333 99.999 -93l9 2c0.666992 14.667 1.66699 32.334 3 53.001s2 39.334 2 56.001c0 43.333 -5.33301 88.166 -16 134.499
s-26.334 88.5 -47.001 126.5l-244 -135l-44 82l238 131c-20.667 26.667 -42.5 50.667 -65.5 72s-46.167 40.666 -69.5 57.999l65 74c22 -10 52.5 -26.167 91.5 -48.5s78.5 -47.833 118.5 -76.5l226 125l44 -82l-198 -107c73.333 -73.333 128 -154.666 164 -243.999
s54 -185.666 54 -288.999zM891.003 685.999c0 75.333 -12.168 134.17 -36.501 176.503s-65.5 63.5 -123.5 63.5c-55.333 0 -103.5 -20.5 -144.5 -61.5s-74.5 -96.167 -100.5 -165.5c-23.333 -60.667 -40.333 -127.834 -51 -201.501s-16 -136.5 -16 -188.5
c0 -89.333 13.833 -155.5 41.5 -198.5s68.167 -64.5 121.5 -64.5c47.333 0 90.833 19.667 130.5 59s72.834 91.666 99.501 156.999c27.333 67.333 47.333 136.166 60 206.499s19 142.833 19 217.5z" />
    <glyph glyph-name="ntilde" unicode="&#xf1;" horiz-adv-x="1413" 
d="M1384 153l-22.001 -90.001c-66 -26 -118.667 -45.833 -158 -59.5s-85 -20.5 -137 -20.5c-79.333 0 -141 19.833 -185 59.5s-66 88.834 -66 147.501c0 16 0.833008 36.5 2.5 61.5s7.16699 56.167 16.5 93.5l72 266c7.33301 28.667 12.833 54.5 16.5 77.5
s5.5 41.833 5.5 56.5c0 32 -7.66699 57 -23 75s-41.333 27 -78 27c-22.667 0 -55 -8.83301 -97 -26.5s-89 -50.5 -141 -98.5l-165 -722h-331l142 615l15.5 73c6.33301 30 9.5 55 9.5 75c0 38 -7.83301 64.167 -23.5 78.5s-44.167 21.5 -85.5 21.5
c-21.333 0 -43.166 -3.33301 -65.499 -10s-41.5 -13 -57.5 -19l22 90c54 22 105.667 40.833 155 56.5s96 23.5 140 23.5c78.667 0 137.5 -15.5 176.5 -46.5s64.833 -74.5 77.5 -130.5h7c65.333 59.333 132.833 105.5 202.5 138.5s143.834 49.5 222.501 49.5
c74 0 131.833 -20.333 173.5 -61s62.5 -90 62.5 -148c0 -15.333 -1.16699 -36.833 -3.5 -64.5s-7.83301 -57.167 -16.5 -88.5l-76 -281c-6.66699 -23.333 -12.667 -50 -18 -80s-8 -52.667 -8 -68c0 -38.667 8.5 -65 25.5 -79s46.833 -21 89.5 -21c20 0 42.667 3.5 68 10.5
s43.666 13.167 54.999 18.5zM1263 1484c-12.667 -28.667 -30.3291 -60.667 -52.9961 -96s-49 -68 -79 -98c-32 -32 -64.667 -57.833 -98 -77.5s-70.333 -29.5 -111 -29.5c-42.667 0 -80.667 6.5 -114 19.5s-61.333 25.833 -84 38.5c-24 12.667 -49.5 24.667 -76.5 36
s-53.5 17 -79.5 17c-34.667 0 -62.667 -15.167 -84 -45.5l-73 -102.5l-71 30c12 24.667 30 55.167 54 91.5s49.333 68.833 76 97.5c27.333 30 58.666 55.667 93.999 77s71.333 32 108 32c34 0 66.667 -5.5 98 -16.5s61.666 -23.5 90.999 -37.5l80 -39
c22 -10.667 47.333 -16 76 -16c27.333 0 49.166 2.83301 65.499 8.5s29.5 14.5 39.5 26.5c11.333 14 21.666 29.833 30.999 47.5l33 60.5z" />
    <glyph glyph-name="ograve" unicode="&#xf2;" horiz-adv-x="1302" 
d="M1235 599c0 -84 -15.999 -164.332 -47.999 -240.999s-77.333 -143.334 -136 -200.001c-63.333 -60.667 -137.5 -107.5 -222.5 -140.5s-180.5 -49.5 -286.5 -49.5c-142 0 -256.667 37.833 -344 113.5s-131 178.834 -131 309.501c0 88.667 16.5 171 49.5 247
s79.167 142.333 138.5 199c58.667 55.333 130.667 99.166 216 131.499s177.666 48.5 276.999 48.5c150.667 0 269.5 -36.833 356.5 -110.5s130.5 -176.167 130.5 -307.5zM883.001 712.001c0 78 -13.167 135.333 -39.5 172s-64.5 55 -114.5 55
c-51.333 0 -98.333 -20.5 -141 -61.5s-77.334 -101.167 -104.001 -180.5c-23.333 -66 -40 -137.5 -50 -214.5s-15 -145.833 -15 -206.5c0 -80.667 13.333 -139.167 40 -175.5s65.334 -54.5 116.001 -54.5c54.667 0 102 22.333 142 67s71.667 99.667 95 165
c23.333 64 41 134.833 53 212.5s18 151.5 18 221.5zM988.001 1139l-46.001 -37.999c-87.333 58.667 -163 106.667 -227 144s-109.333 65.333 -136 84c-23.333 17.333 -40.666 34 -51.999 50s-17 36 -17 60s10.5 48.167 31.5 72.5s48.5 36.5 82.5 36.5
c42 0 75.333 -8 100 -24s49.334 -42.667 74.001 -80c19.333 -29.333 45.166 -71.333 77.499 -126s69.833 -114.334 112.5 -179.001z" />
    <glyph glyph-name="oacute" unicode="&#xf3;" horiz-adv-x="1302" 
d="M1235 599c0 -84 -15.999 -164.332 -47.999 -240.999s-77.333 -143.334 -136 -200.001c-63.333 -60.667 -137.5 -107.5 -222.5 -140.5s-180.5 -49.5 -286.5 -49.5c-142 0 -256.667 37.833 -344 113.5s-131 178.834 -131 309.501c0 88.667 16.5 171 49.5 247
s79.167 142.333 138.5 199c58.667 55.333 130.667 99.166 216 131.499s177.666 48.5 276.999 48.5c150.667 0 269.5 -36.833 356.5 -110.5s130.5 -176.167 130.5 -307.5zM883.001 712.001c0 78 -13.167 135.333 -39.5 172s-64.5 55 -114.5 55
c-51.333 0 -98.333 -20.5 -141 -61.5s-77.334 -101.167 -104.001 -180.5c-23.333 -66 -40 -137.5 -50 -214.5s-15 -145.833 -15 -206.5c0 -80.667 13.333 -139.167 40 -175.5s65.334 -54.5 116.001 -54.5c54.667 0 102 22.333 142 67s71.667 99.667 95 165
c23.333 64 41 134.833 53 212.5s18 151.5 18 221.5zM1058 1460c0 -30 -6.83203 -54.168 -20.499 -72.501s-35.5 -37.166 -65.5 -56.499c-32.667 -21.333 -84.334 -51.5 -155.001 -90.5s-150.667 -85.5 -240 -139.5l-42 38c58.667 78 104 140.167 136 186.5l83 118.5
c28.667 40.667 56 68.167 82 82.5s58.333 21.5 97 21.5c32 0 60.833 -8.66699 86.5 -26s38.5 -38 38.5 -62z" />
    <glyph glyph-name="ocircumflex" unicode="&#xf4;" horiz-adv-x="1302" 
d="M1235 599c0 -84 -15.999 -164.332 -47.999 -240.999s-77.333 -143.334 -136 -200.001c-63.333 -60.667 -137.5 -107.5 -222.5 -140.5s-180.5 -49.5 -286.5 -49.5c-142 0 -256.667 37.833 -344 113.5s-131 178.834 -131 309.501c0 88.667 16.5 171 49.5 247
s79.167 142.333 138.5 199c58.667 55.333 130.667 99.166 216 131.499s177.666 48.5 276.999 48.5c150.667 0 269.5 -36.833 356.5 -110.5s130.5 -176.167 130.5 -307.5zM883.001 712.001c0 78 -13.167 135.333 -39.5 172s-64.5 55 -114.5 55
c-51.333 0 -98.333 -20.5 -141 -61.5s-77.334 -101.167 -104.001 -180.5c-23.333 -66 -40 -137.5 -50 -214.5s-15 -145.833 -15 -206.5c0 -80.667 13.333 -139.167 40 -175.5s65.334 -54.5 116.001 -54.5c54.667 0 102 22.333 142 67s71.667 99.667 95 165
c23.333 64 41 134.833 53 212.5s18 151.5 18 221.5zM1122 1132l-54.0029 -28.998l-278 254l-358 -254l-51 29l172 220.5c37.333 47.667 76 92.5 116 134.5c18.667 20.667 38.834 36 60.501 46s51.167 15 88.5 15c38.667 0 65.834 -4.83301 81.501 -14.5
s29.834 -23.834 42.501 -42.501c26 -38.667 53.333 -88.334 82 -149.001z" />
    <glyph glyph-name="otilde" unicode="&#xf5;" horiz-adv-x="1302" 
d="M1235 599c0 -84 -15.999 -164.332 -47.999 -240.999s-77.333 -143.334 -136 -200.001c-63.333 -60.667 -137.5 -107.5 -222.5 -140.5s-180.5 -49.5 -286.5 -49.5c-142 0 -256.667 37.833 -344 113.5s-131 178.834 -131 309.501c0 88.667 16.5 171 49.5 247
s79.167 142.333 138.5 199c58.667 55.333 130.667 99.166 216 131.499s177.666 48.5 276.999 48.5c150.667 0 269.5 -36.833 356.5 -110.5s130.5 -176.167 130.5 -307.5zM883.001 712.001c0 78 -13.167 135.333 -39.5 172s-64.5 55 -114.5 55
c-51.333 0 -98.333 -20.5 -141 -61.5s-77.334 -101.167 -104.001 -180.5c-23.333 -66 -40 -137.5 -50 -214.5s-15 -145.833 -15 -206.5c0 -80.667 13.333 -139.167 40 -175.5s65.334 -54.5 116.001 -54.5c54.667 0 102 22.333 142 67s71.667 99.667 95 165
c23.333 64 41 134.833 53 212.5s18 151.5 18 221.5zM1239 1484c-12.667 -28.667 -30.3291 -60.667 -52.9961 -96s-49 -68 -79 -98c-32 -32 -64.667 -57.833 -98 -77.5s-70.333 -29.5 -111 -29.5c-42.667 0 -80.667 6.5 -114 19.5s-61.333 25.833 -84 38.5
c-24 12.667 -49.5 24.667 -76.5 36s-53.5 17 -79.5 17c-34.667 0 -62.667 -15.167 -84 -45.5l-73 -102.5l-71 30c12 24.667 30 55.167 54 91.5s49.333 68.833 76 97.5c27.333 30 58.666 55.667 93.999 77s71.333 32 108 32c34 0 66.667 -5.5 98 -16.5
s61.666 -23.5 90.999 -37.5l80 -39c22 -10.667 47.333 -16 76 -16c27.333 0 49.166 2.83301 65.499 8.5s29.5 14.5 39.5 26.5c11.333 14 21.666 29.833 30.999 47.5l33 60.5z" />
    <glyph glyph-name="odieresis" unicode="&#xf6;" horiz-adv-x="1302" 
d="M1235 599c0 -84 -15.999 -164.332 -47.999 -240.999s-77.333 -143.334 -136 -200.001c-63.333 -60.667 -137.5 -107.5 -222.5 -140.5s-180.5 -49.5 -286.5 -49.5c-142 0 -256.667 37.833 -344 113.5s-131 178.834 -131 309.501c0 88.667 16.5 171 49.5 247
s79.167 142.333 138.5 199c58.667 55.333 130.667 99.166 216 131.499s177.666 48.5 276.999 48.5c150.667 0 269.5 -36.833 356.5 -110.5s130.5 -176.167 130.5 -307.5zM883.001 712.001c0 78 -13.167 135.333 -39.5 172s-64.5 55 -114.5 55
c-51.333 0 -98.333 -20.5 -141 -61.5s-77.334 -101.167 -104.001 -180.5c-23.333 -66 -40 -137.5 -50 -214.5s-15 -145.833 -15 -206.5c0 -80.667 13.333 -139.167 40 -175.5s65.334 -54.5 116.001 -54.5c54.667 0 102 22.333 142 67s71.667 99.667 95 165
c23.333 64 41 134.833 53 212.5s18 151.5 18 221.5zM1182 1349c0 -44.667 -15.5 -83.5 -46.5 -116.5s-67.833 -49.5 -110.5 -49.5c-44 0 -81.333 16.667 -112 50s-46 72 -46 116c0 44.667 15.333 83.5 46 116.5s68 49.5 112 49.5c42.667 0 79.5 -16.5 110.5 -49.5
s46.5 -71.833 46.5 -116.5zM687.001 1349c0 -44.667 -15.667 -83.5 -47 -116.5s-68.333 -49.5 -111 -49.5c-43.333 0 -80.333 16.333 -111 49s-46 71.667 -46 117c0 44.667 15.167 83.5 45.5 116.5s67.5 49.5 111.5 49.5c42.667 0 79.667 -16.5 111 -49.5
s47 -71.833 47 -116.5z" />
    <glyph glyph-name="divide" unicode="&#xf7;" 
d="M904 982c0 -46 -16 -85.167 -48 -117.5s-70 -48.5 -114 -48.5c-44.667 0 -83 16.167 -115 48.5s-48 71.5 -48 117.5s16 85.333 48 118s70.333 49 115 49c44 0 82 -16.333 114 -49s48 -72 48 -118zM1297 493h-1111v163h1111v-163zM904 166c0 -46 -16 -85.167 -48 -117.5
s-70 -48.5 -114 -48.5c-44.667 0 -83 16.167 -115 48.5s-48 71.5 -48 117.5s16 85.333 48 118s70.333 49 115 49c44 0 82 -16.333 114 -49s48 -72 48 -118z" />
    <glyph glyph-name="oslash" unicode="&#xf8;" horiz-adv-x="1302" 
d="M805 250c24 56.667 43.168 121.666 57.501 194.999s22.5 146.333 24.5 219l-468 -455c6 -48.667 21.667 -88 47 -118s61.666 -45 108.999 -45c52.667 0 98.167 19.333 136.5 58s69.5 87.334 93.5 146.001zM491.001 730.999c-24 -58.667 -42.001 -124.167 -54.001 -196.5
s-19.333 -141.5 -22 -207.5l467 454c-6.66699 46 -22 83.833 -46 113.5s-59.667 44.5 -107 44.5c-45.333 0 -88.666 -16.5 -129.999 -49.5s-77.333 -85.833 -108 -158.5zM181 103.999c-36.667 37.333 -64.8311 80.502 -84.498 129.502s-29.5 101.5 -29.5 157.5
c0 88.667 16.5 171 49.5 247s79.167 142.333 138.5 199c58.667 55.333 130.667 99.166 216 131.499s177.666 48.5 276.999 48.5c65.333 0 123 -7 173 -21s92.667 -31.667 128 -53l161 155l66 -61l-155 -150c38 -38 66.5 -81 85.5 -129s28.5 -101 28.5 -159
c0 -84 -16 -164.333 -48 -241s-77.333 -143.334 -136 -200.001c-63.333 -60.667 -137.5 -107.5 -222.5 -140.5s-180.5 -49.5 -286.5 -49.5c-55.333 0 -107.833 7 -157.5 21s-93.834 33.333 -132.501 58l-174 -168l-66 61z" />
    <glyph glyph-name="ugrave" unicode="&#xf9;" horiz-adv-x="1403" 
d="M803 159l-7.00098 0.000976562c-70 -64 -136.667 -111.333 -200 -142s-136.666 -46 -219.999 -46c-74 0 -131.167 20.333 -171.5 61s-60.5 90 -60.5 148c0 20.667 1.16699 41.667 3.5 63s8.5 51.333 18.5 90l75 281c4.66699 18.667 10.167 44.167 16.5 76.5
s9.5 56.166 9.5 71.499c0 36.667 -7.5 62.5 -22.5 77.5s-44.167 22.5 -87.5 22.5c-21.333 0 -43.166 -3.33301 -65.499 -10s-41.5 -13 -57.5 -19l22 90c54 22 105.667 40.833 155 56.5s96 23.5 140 23.5c79.333 0 140.5 -19.833 183.5 -59.5s64.5 -88.834 64.5 -147.501
c0 -12 -1.33301 -34 -4 -66s-8 -61.667 -16 -89l-73 -266c-6.66699 -23.333 -12 -48.5 -16 -75.5s-6 -46.5 -6 -58.5c0 -31.333 7.33301 -56.166 22 -74.499s40 -27.5 76 -27.5c26 0 60.5 10.833 103.5 32.5s85.5 52.5 127.5 92.5l165 722l319 14l12 -14l-142 -615
c-4.66699 -19.333 -10.167 -45 -16.5 -77s-9.5 -55.667 -9.5 -71c0 -38.667 8.5 -65 25.5 -79s46.833 -21 89.5 -21c20 0 42.667 3.5 68 10.5s43.666 13.167 54.999 18.5l-22 -90c-66 -26 -118.667 -45.833 -158 -59.5s-85 -20.5 -137 -20.5c-73.333 0 -132 16.5 -176 49.5
s-71.667 75.5 -83 127.5zM961.999 1139l-46.001 -37.999c-87.333 58.667 -163 106.667 -227 144s-109.333 65.333 -136 84c-23.333 17.333 -40.666 34 -51.999 50s-17 36 -17 60s10.5 48.167 31.5 72.5s48.5 36.5 82.5 36.5c42 0 75.333 -8 100 -24
s49.334 -42.667 74.001 -80c19.333 -29.333 45.166 -71.333 77.499 -126s69.833 -114.334 112.5 -179.001z" />
    <glyph glyph-name="uacute" unicode="&#xfa;" horiz-adv-x="1403" 
d="M803 159l-7.00098 0.000976562c-70 -64 -136.667 -111.333 -200 -142s-136.666 -46 -219.999 -46c-74 0 -131.167 20.333 -171.5 61s-60.5 90 -60.5 148c0 20.667 1.16699 41.667 3.5 63s8.5 51.333 18.5 90l75 281c4.66699 18.667 10.167 44.167 16.5 76.5
s9.5 56.166 9.5 71.499c0 36.667 -7.5 62.5 -22.5 77.5s-44.167 22.5 -87.5 22.5c-21.333 0 -43.166 -3.33301 -65.499 -10s-41.5 -13 -57.5 -19l22 90c54 22 105.667 40.833 155 56.5s96 23.5 140 23.5c79.333 0 140.5 -19.833 183.5 -59.5s64.5 -88.834 64.5 -147.501
c0 -12 -1.33301 -34 -4 -66s-8 -61.667 -16 -89l-73 -266c-6.66699 -23.333 -12 -48.5 -16 -75.5s-6 -46.5 -6 -58.5c0 -31.333 7.33301 -56.166 22 -74.499s40 -27.5 76 -27.5c26 0 60.5 10.833 103.5 32.5s85.5 52.5 127.5 92.5l165 722l319 14l12 -14l-142 -615
c-4.66699 -19.333 -10.167 -45 -16.5 -77s-9.5 -55.667 -9.5 -71c0 -38.667 8.5 -65 25.5 -79s46.833 -21 89.5 -21c20 0 42.667 3.5 68 10.5s43.666 13.167 54.999 18.5l-22 -90c-66 -26 -118.667 -45.833 -158 -59.5s-85 -20.5 -137 -20.5c-73.333 0 -132 16.5 -176 49.5
s-71.667 75.5 -83 127.5zM1100 1460c0 -30 -6.83203 -54.168 -20.499 -72.501s-35.5 -37.166 -65.5 -56.499c-32.667 -21.333 -84.334 -51.5 -155.001 -90.5s-150.667 -85.5 -240 -139.5l-42 38c58.667 78 104 140.167 136 186.5l83 118.5c28.667 40.667 56 68.167 82 82.5
s58.333 21.5 97 21.5c32 0 60.833 -8.66699 86.5 -26s38.5 -38 38.5 -62z" />
    <glyph glyph-name="ucircumflex" unicode="&#xfb;" horiz-adv-x="1403" 
d="M803 159l-7.00098 0.000976562c-70 -64 -136.667 -111.333 -200 -142s-136.666 -46 -219.999 -46c-74 0 -131.167 20.333 -171.5 61s-60.5 90 -60.5 148c0 20.667 1.16699 41.667 3.5 63s8.5 51.333 18.5 90l75 281c4.66699 18.667 10.167 44.167 16.5 76.5
s9.5 56.166 9.5 71.499c0 36.667 -7.5 62.5 -22.5 77.5s-44.167 22.5 -87.5 22.5c-21.333 0 -43.166 -3.33301 -65.499 -10s-41.5 -13 -57.5 -19l22 90c54 22 105.667 40.833 155 56.5s96 23.5 140 23.5c79.333 0 140.5 -19.833 183.5 -59.5s64.5 -88.834 64.5 -147.501
c0 -12 -1.33301 -34 -4 -66s-8 -61.667 -16 -89l-73 -266c-6.66699 -23.333 -12 -48.5 -16 -75.5s-6 -46.5 -6 -58.5c0 -31.333 7.33301 -56.166 22 -74.499s40 -27.5 76 -27.5c26 0 60.5 10.833 103.5 32.5s85.5 52.5 127.5 92.5l165 722l319 14l12 -14l-142 -615
c-4.66699 -19.333 -10.167 -45 -16.5 -77s-9.5 -55.667 -9.5 -71c0 -38.667 8.5 -65 25.5 -79s46.833 -21 89.5 -21c20 0 42.667 3.5 68 10.5s43.666 13.167 54.999 18.5l-22 -90c-66 -26 -118.667 -45.833 -158 -59.5s-85 -20.5 -137 -20.5c-73.333 0 -132 16.5 -176 49.5
s-71.667 75.5 -83 127.5zM1134 1132l-54.0029 -28.998l-278 254l-358 -254l-51 29l172 220.5c37.333 47.667 76 92.5 116 134.5c18.667 20.667 38.834 36 60.501 46s51.167 15 88.5 15c38.667 0 65.834 -4.83301 81.501 -14.5s29.834 -23.834 42.501 -42.501
c26 -38.667 53.333 -88.334 82 -149.001z" />
    <glyph glyph-name="udieresis" unicode="&#xfc;" horiz-adv-x="1403" 
d="M803 159l-7.00098 0.000976562c-70 -64 -136.667 -111.333 -200 -142s-136.666 -46 -219.999 -46c-74 0 -131.167 20.333 -171.5 61s-60.5 90 -60.5 148c0 20.667 1.16699 41.667 3.5 63s8.5 51.333 18.5 90l75 281c4.66699 18.667 10.167 44.167 16.5 76.5
s9.5 56.166 9.5 71.499c0 36.667 -7.5 62.5 -22.5 77.5s-44.167 22.5 -87.5 22.5c-21.333 0 -43.166 -3.33301 -65.499 -10s-41.5 -13 -57.5 -19l22 90c54 22 105.667 40.833 155 56.5s96 23.5 140 23.5c79.333 0 140.5 -19.833 183.5 -59.5s64.5 -88.834 64.5 -147.501
c0 -12 -1.33301 -34 -4 -66s-8 -61.667 -16 -89l-73 -266c-6.66699 -23.333 -12 -48.5 -16 -75.5s-6 -46.5 -6 -58.5c0 -31.333 7.33301 -56.166 22 -74.499s40 -27.5 76 -27.5c26 0 60.5 10.833 103.5 32.5s85.5 52.5 127.5 92.5l165 722l319 14l12 -14l-142 -615
c-4.66699 -19.333 -10.167 -45 -16.5 -77s-9.5 -55.667 -9.5 -71c0 -38.667 8.5 -65 25.5 -79s46.833 -21 89.5 -21c20 0 42.667 3.5 68 10.5s43.666 13.167 54.999 18.5l-22 -90c-66 -26 -118.667 -45.833 -158 -59.5s-85 -20.5 -137 -20.5c-73.333 0 -132 16.5 -176 49.5
s-71.667 75.5 -83 127.5zM1196 1349c0 -44.667 -15.5 -83.5 -46.5 -116.5s-67.833 -49.5 -110.5 -49.5c-44 0 -81.333 16.667 -112 50s-46 72 -46 116c0 44.667 15.333 83.5 46 116.5s68 49.5 112 49.5c42.667 0 79.5 -16.5 110.5 -49.5s46.5 -71.833 46.5 -116.5z
M700.999 1349c0 -44.667 -15.667 -83.5 -47 -116.5s-68.333 -49.5 -111 -49.5c-43.333 0 -80.333 16.333 -111 49s-46 71.667 -46 117c0 44.667 15.167 83.5 45.5 116.5s67.5 49.5 111.5 49.5c42.667 0 79.667 -16.5 111 -49.5s47 -71.833 47 -116.5z" />
    <glyph glyph-name="yacute" unicode="&#xfd;" horiz-adv-x="1371" 
d="M803 160l-6.99609 0.00390625c-75.333 -68.667 -144.666 -116.334 -207.999 -143.001s-133.333 -40 -210 -40c-74 0 -131.5 20.667 -172.5 62s-61.5 91 -61.5 149c0 20.667 1.16699 41.667 3.5 63s8.5 51.333 18.5 90l75 273c4.66699 18.667 10.167 44.167 16.5 76.5
s9.5 56.166 9.5 71.499c0 38 -7.5 64.167 -22.5 78.5s-44.167 21.5 -87.5 21.5c-21.333 0 -43.166 -3.33301 -65.499 -10s-41.5 -13 -57.5 -19l22 90c54 22 105.667 40.833 155 56.5s96 23.5 140 23.5c79.333 0 140.5 -19.833 183.5 -59.5s64.5 -88.834 64.5 -147.501
c0 -12 -1.33301 -34 -4 -66s-8 -61.667 -16 -89l-73 -260c-6.66699 -23.333 -12 -48.333 -16 -75s-6 -46 -6 -58c0 -33.333 8.16699 -58.666 24.5 -75.999s42.166 -26 77.499 -26c29.333 0 66.5 11.167 111.5 33.5s86.5 52.166 124.5 89.499l152 717l317 14l14 -16
l-175 -813c-26.667 -121.333 -64 -221.5 -112 -300.5s-103.667 -141.833 -167 -188.5c-60.667 -44.667 -126.334 -76.834 -197.001 -96.501s-142.334 -29.5 -215.001 -29.5c-79.333 0 -145.166 5.83301 -197.499 17.5s-93.166 27.834 -122.499 48.501
c-26.667 18.667 -44.834 39.5 -54.501 62.5s-14.5 45.5 -14.5 67.5c0 38.667 13.667 73 41 103s64.666 45 111.999 45c36 0 68.167 -9.66699 96.5 -29s53.166 -42.666 74.499 -69.999c20.667 -26 39.167 -54.833 55.5 -86.5s28.833 -57.5 37.5 -77.5
c12 2 26.833 6.16699 44.5 12.5s32.5 13.5 44.5 21.5c17.333 11.333 32.666 22.666 45.999 33.999s28.666 28.666 45.999 51.999c33.333 44.667 63 100 89 166s48 145 66 237zM1093 1460c0 -30 -6.83203 -54.168 -20.499 -72.501s-35.5 -37.166 -65.5 -56.499
c-32.667 -21.333 -84.334 -51.5 -155.001 -90.5s-150.667 -85.5 -240 -139.5l-42 38c58.667 78 104 140.167 136 186.5l83 118.5c28.667 40.667 56 68.167 82 82.5s58.333 21.5 97 21.5c32 0 60.833 -8.66699 86.5 -26s38.5 -38 38.5 -62z" />
    <glyph glyph-name="thorn" unicode="&#xfe;" horiz-adv-x="1326" 
d="M1261 632c0 -89.333 -15.833 -174.502 -47.5 -255.502s-74.834 -151.167 -129.501 -210.5c-56.667 -61.333 -120.334 -108.666 -191.001 -141.999s-148.667 -50 -234 -50c-64 0 -115.5 6.16699 -154.5 18.5s-72.833 29.833 -101.5 52.5l-61 -266c-2 -8 -4 -17.5 -6 -28.5
s-3 -18.833 -3 -23.5c0 -15.333 3.5 -29.333 10.5 -42s16.833 -22 29.5 -28c14.667 -6.66699 38.334 -13.167 71.001 -19.5s59.667 -10.166 81 -11.499l-16 -70h-721l16 70c17.333 1.33301 39.5 3.83301 66.5 7.5s46.167 7.5 57.5 11.5c22.667 7.33301 39.834 19 51.501 35
s20.5 37 26.5 63l352 1530c2.66699 11.333 4.66699 22 6 32s2 18.333 2 25c0 24 -4 43 -12 57s-20 25.333 -36 34s-34.333 14.667 -55 18s-44.667 6.33301 -72 9l18 74l526 26l11 -16l-152 -648h8c42 38.667 90 70.167 144 94.5s109.333 36.5 166 36.5
c116 0 203.167 -34.167 261.5 -102.5s87.5 -161.833 87.5 -280.5zM903 635.998c0 32.667 -2.33203 62.833 -6.99902 90.5s-13 51.5 -25 71.5s-28.167 35.833 -48.5 47.5s-45.833 17.5 -76.5 17.5c-35.333 0 -70 -11 -104 -33s-59 -42.667 -75 -62l-124 -549
c0 -46 13.333 -84.167 40 -114.5s65 -45.5 115 -45.5c41.333 0 81.166 16 119.499 48s71.166 75.667 98.499 131c28.667 58 50.334 119 65.001 183s22 135.667 22 215z" />
    <glyph glyph-name="ydieresis" unicode="&#xff;" horiz-adv-x="1371" 
d="M803 160l-6.99609 0.00390625c-75.333 -68.667 -144.666 -116.334 -207.999 -143.001s-133.333 -40 -210 -40c-74 0 -131.5 20.667 -172.5 62s-61.5 91 -61.5 149c0 20.667 1.16699 41.667 3.5 63s8.5 51.333 18.5 90l75 273c4.66699 18.667 10.167 44.167 16.5 76.5
s9.5 56.166 9.5 71.499c0 38 -7.5 64.167 -22.5 78.5s-44.167 21.5 -87.5 21.5c-21.333 0 -43.166 -3.33301 -65.499 -10s-41.5 -13 -57.5 -19l22 90c54 22 105.667 40.833 155 56.5s96 23.5 140 23.5c79.333 0 140.5 -19.833 183.5 -59.5s64.5 -88.834 64.5 -147.501
c0 -12 -1.33301 -34 -4 -66s-8 -61.667 -16 -89l-73 -260c-6.66699 -23.333 -12 -48.333 -16 -75s-6 -46 -6 -58c0 -33.333 8.16699 -58.666 24.5 -75.999s42.166 -26 77.499 -26c29.333 0 66.5 11.167 111.5 33.5s86.5 52.166 124.5 89.499l152 717l317 14l14 -16
l-175 -813c-26.667 -121.333 -64 -221.5 -112 -300.5s-103.667 -141.833 -167 -188.5c-60.667 -44.667 -126.334 -76.834 -197.001 -96.501s-142.334 -29.5 -215.001 -29.5c-79.333 0 -145.166 5.83301 -197.499 17.5s-93.166 27.834 -122.499 48.501
c-26.667 18.667 -44.834 39.5 -54.501 62.5s-14.5 45.5 -14.5 67.5c0 38.667 13.667 73 41 103s64.666 45 111.999 45c36 0 68.167 -9.66699 96.5 -29s53.166 -42.666 74.499 -69.999c20.667 -26 39.167 -54.833 55.5 -86.5s28.833 -57.5 37.5 -77.5
c12 2 26.833 6.16699 44.5 12.5s32.5 13.5 44.5 21.5c17.333 11.333 32.666 22.666 45.999 33.999s28.666 28.666 45.999 51.999c33.333 44.667 63 100 89 166s48 145 66 237zM1196 1349c0 -44.667 -15.5 -83.5 -46.5 -116.5s-67.833 -49.5 -110.5 -49.5
c-44 0 -81.333 16.667 -112 50s-46 72 -46 116c0 44.667 15.333 83.5 46 116.5s68 49.5 112 49.5c42.667 0 79.5 -16.5 110.5 -49.5s46.5 -71.833 46.5 -116.5zM701.004 1349c0 -44.667 -15.667 -83.5 -47 -116.5s-68.333 -49.5 -111 -49.5
c-43.333 0 -80.333 16.333 -111 49s-46 71.667 -46 117c0 44.667 15.167 83.5 45.5 116.5s67.5 49.5 111.5 49.5c42.667 0 79.667 -16.5 111 -49.5s47 -71.833 47 -116.5z" />
    <glyph glyph-name="dotlessi" unicode="&#x131;" horiz-adv-x="749" 
d="M713 143l-22 -90c-66 -26 -118.667 -45.833 -158 -59.5s-85 -20.5 -137 -20.5c-80 0 -142.167 19.5 -186.5 58.5s-66.5 88.5 -66.5 148.5c0 23.333 1.66699 47.166 5 71.499s8.66602 51.833 15.999 82.5l82 292c7.33301 28 13.5 54.5 18.5 79.5s7.5 47.833 7.5 68.5
c0 37.333 -7.66699 63.333 -23 78s-44.666 22 -87.999 22c-21.333 0 -43.166 -3.33301 -65.499 -10s-41.5 -13 -57.5 -19l22 90c54 22 105.667 40.833 155 56.5s96 23.5 140 23.5c79.333 0 140.5 -19.167 183.5 -57.5s64.5 -88.166 64.5 -149.499
c0 -12.667 -1.5 -35 -4.5 -67s-8.5 -61.333 -16.5 -88l-82 -291c-6.66699 -23.333 -12.667 -50 -18 -80s-8 -52.667 -8 -68c0 -38.667 8.66699 -65 26 -79s47.333 -21 90 -21c20 0 42.667 3.5 68 10.5s43.666 13.167 54.999 18.5z" />
    <glyph glyph-name="OE" unicode="&#x152;" horiz-adv-x="2264" 
d="M2308 1419l-83.9961 -362h-76c-9.33301 63.333 -31.333 121.333 -66 174s-72.334 83.667 -113.001 93c-18.667 4.66699 -45.834 7.5 -81.501 8.5s-65.167 1.5 -88.5 1.5h-186l-129 -555h126c40 0 76 4.83301 108 14.5s61.667 25.834 89 48.501
c18.667 15.333 40.667 42.833 66 82.5s43.333 73.5 54 101.5h76l-137 -592h-76c2.66699 32 0.666992 68.333 -6 109s-15.334 69 -26.001 85c-18.667 25.333 -41.5 42.5 -68.5 51.5s-59.833 13.5 -98.5 13.5h-126l-96 -417c-5.33301 -22 -9.33301 -41.833 -12 -59.5
s-4 -32.167 -4 -43.5c0 -36.667 14.333 -60.334 43 -71.001s79 -16 151 -16c85.333 0 151.666 4.83301 198.999 14.5s83 23.5 107 41.5c40.667 34 88.667 84.5 144 151.5s92.666 116.5 112 148.5h73l-129 -442h-1298c-69.333 0 -143.333 8.66699 -222 26s-151 47 -217 89
c-72 45.333 -128.167 103.833 -168.5 175.5s-60.5 155.834 -60.5 252.501c0 136 25.833 259.5 77.5 370.5s127.834 206.5 228.501 286.5c87.333 69.333 191.666 123.166 312.999 161.499s247 57.5 377 57.5h1225zM1255 1330
c-22.667 1.33301 -52.999 2.16895 -90.999 2.50195s-68 0.5 -90 0.5c-98 0 -184.667 -23.5 -260 -70.5s-139.666 -114.5 -192.999 -202.5c-47.333 -76.667 -82.833 -166.334 -106.5 -269.001s-35.5 -200 -35.5 -292c0 -130.667 31.167 -232.167 93.5 -304.5
s150.166 -108.5 263.499 -108.5c15.333 0 35.666 0.166992 60.999 0.5s49.333 1.16602 72 2.49902z" />
    <glyph glyph-name="oe" unicode="&#x153;" horiz-adv-x="1910" 
d="M1866 787c0 -72.667 -26.9961 -135.17 -80.9961 -187.503s-127.333 -91.166 -220 -116.499c-73.333 -20 -135.833 -35.167 -187.5 -45.5s-114.834 -19.5 -189.501 -27.5c1.33301 -29.333 5.33301 -62.666 12 -99.999s16.667 -68.333 30 -93
c16 -30 38.667 -53.833 68 -71.5s66.666 -26.5 111.999 -26.5c78.667 0 145.5 15.167 200.5 45.5s107.5 78.5 157.5 144.5l73 -61c-60 -85.333 -136.833 -153.5 -230.5 -204.5s-192.167 -76.5 -295.5 -76.5c-78.667 0 -148 12.333 -208 37s-109.333 55.667 -148 93
c-58.667 -39.333 -122.5 -70.666 -191.5 -93.999s-144.167 -35 -225.5 -35c-142 0 -256.667 37.833 -344 113.5s-131 178.834 -131 309.501c0 88.667 16.5 171 49.5 247s79.167 142.333 138.5 199c58.667 55.333 130.667 99.166 216 131.499s177.666 48.5 276.999 48.5
c80.667 0 151.167 -12 211.5 -36s110.5 -54 150.5 -90c50.667 34.667 109.667 64 177 88s138.333 36 213 36c119.333 0 210.166 -19 272.499 -57s93.5 -95 93.5 -171zM1541 758.997c0 56.667 -10.333 100.167 -31 130.5s-49.334 45.5 -86.001 45.5
c-49.333 0 -96.5 -39.167 -141.5 -117.5s-75.5 -186.833 -91.5 -325.5c39.333 4.66699 78.333 10.667 117 18s69.334 16 92.001 26c50 22 86 50.333 108 85s33 80.667 33 138zM883.004 711.997c0 78 -13.166 135.333 -39.499 172s-64.5 55 -114.5 55
c-48.667 0 -94 -18.833 -136 -56.5s-78.333 -99.5 -109 -185.5c-23.333 -66 -40 -137.5 -50 -214.5s-15 -145.833 -15 -206.5c0 -80.667 13.167 -139.167 39.5 -175.5s65.166 -54.5 116.499 -54.5c54.667 0 102 22.333 142 67s71.667 99.667 95 165
c23.333 64 41 134.833 53 212.5s18 151.5 18 221.5z" />
    <glyph glyph-name="Scaron" unicode="&#x160;" horiz-adv-x="1329" 
d="M575 -38c-78.667 0 -157.833 9.66602 -237.5 28.999s-149.5 45.666 -209.5 78.999l-86 -70h-85l106 513h86c8 -50 22.667 -101.833 44 -155.5s49 -101.5 83 -143.5c33.333 -43.333 75.666 -79.333 126.999 -108s110 -43 176 -43c96.667 0 174 23.5 232 70.5
s87 108.833 87 185.5c0 49.333 -16.5 92.666 -49.5 129.999s-86.167 69.333 -159.5 96l-135.5 48.5c-43.667 15.667 -85.167 31.834 -124.5 48.501c-78 32.667 -136.667 79.167 -176 139.5s-59 124.5 -59 192.5c0 62.667 14.333 122.834 43 180.501s70 109.167 124 154.5
c52.667 44.667 117.834 80.5 195.501 107.5s162.834 40.5 255.501 40.5c77.333 0 154 -11.167 230 -33.5s132 -43.833 168 -64.5l75 60h87l-104 -484h-86c-8.66699 56.667 -21.167 110 -37.5 160s-38.833 95 -67.5 135c-28 38.667 -62.833 69.5 -104.5 92.5
s-91.834 34.5 -150.501 34.5c-81.333 0 -149.166 -22.667 -203.499 -68s-81.5 -102.333 -81.5 -171c0 -48 16.333 -90 49 -126s84.334 -67.333 155.001 -94l130 -47.5c45.333 -16.333 88.666 -33.166 129.999 -50.499c77.333 -32 138.333 -75.5 183 -130.5
s67 -120.167 67 -195.5c0 -71.333 -16.333 -138.333 -49 -201s-78.334 -116.667 -137.001 -162c-62 -48 -134.333 -84.833 -217 -110.5s-173.667 -38.5 -273 -38.5zM1263 1839l-182.5 -181.501l-110.5 -107.5c-21.333 -21.333 -41.5 -36.833 -60.5 -46.5
s-48.5 -14.5 -88.5 -14.5c-38 0 -64.833 4.83301 -80.5 14.5s-30.167 23.834 -43.5 42.501l-64.5 95.5l-130.5 197.5l34 29l310 -198l385 198z" />
    <glyph glyph-name="scaron" unicode="&#x161;" horiz-adv-x="1059" 
d="M435 -33c-84 0 -153.495 6.83496 -208.495 20.502s-98.5 31.167 -130.5 52.5c-32.667 21.333 -55 44.166 -67 68.499s-18 47.166 -18 68.499c0 38.667 14.5 72.5 43.5 101.5s67.5 43.5 115.5 43.5c40 0 73.5 -10.333 100.5 -31s49.5 -46.667 67.5 -78
c16.667 -28.667 30.667 -60.334 42 -95.001s19.333 -60.334 24 -77.001c75.333 0 132.333 16.167 171 48.5s58 76.5 58 132.5c0 24.667 -5.83301 45.334 -17.5 62.001s-27.167 31.334 -46.5 44.001c-19.333 12 -44 23.667 -74 35s-59.667 22 -89 32
c-80.667 27.333 -144.5 65.166 -191.5 113.499s-70.5 108.5 -70.5 180.5c0 42.667 9.83301 82.834 29.5 120.501s50.5 72.5 92.5 104.5c41.333 30.667 93.666 55.167 156.999 73.5s137.333 27.5 222 27.5c50.667 0 97.667 -3 141 -9s83.666 -17 120.999 -33
c35.333 -16 62.833 -36.833 82.5 -62.5s29.5 -56.834 29.5 -93.501s-13.833 -68.167 -41.5 -94.5s-63.834 -39.5 -108.501 -39.5c-38.667 0 -70.834 10 -96.501 30s-46.5 43.667 -62.5 71c-16 28 -28.667 56.833 -38 86.5l-23 74.5
c-46.667 -2.66699 -89.167 -19.5 -127.5 -50.5s-57.5 -69.5 -57.5 -115.5c0 -28 4.5 -50 13.5 -66s21.167 -29.333 36.5 -40c17.333 -12 39.166 -23.167 65.499 -33.5s59.166 -22.166 98.499 -35.499c90.667 -32 159 -70.333 205 -115s69 -103.667 69 -177
c0 -48 -11.167 -94 -33.5 -138s-54.166 -80.667 -95.499 -110c-46 -32 -99 -56.167 -159 -72.5s-136.333 -24.5 -229 -24.5zM1052 1521l-166 -212.001c-48 -61.333 -88.667 -109 -122 -143c-24 -25.333 -46.333 -41.833 -67 -49.5s-48 -11.5 -82 -11.5
c-38 0 -65.167 4.83301 -81.5 14.5s-30.5 23.834 -42.5 42.501c-23.333 36.667 -50.833 88 -82.5 154l-97.5 205l54 29l276 -254l360 254z" />
    <glyph glyph-name="Ydieresis" unicode="&#x178;" horiz-adv-x="1499" 
d="M1770 1419l-16.9971 -73.0049c-22.667 -2.66699 -43.667 -6.66699 -63 -12s-41.666 -14.666 -66.999 -27.999c-32 -16 -60.833 -35.167 -86.5 -57.5s-55.167 -51.5 -88.5 -87.5l-181.5 -201l-217.5 -254c-58.667 -68 -94 -115.833 -106 -143.5
s-25.667 -75.834 -41 -144.501l-43 -186c-2.66699 -11.333 -4.83398 -22.166 -6.50098 -32.499s-2.5 -17.833 -2.5 -22.5c0 -16 3.16699 -30.167 9.5 -42.5s18.166 -22.166 35.499 -29.499c16 -6.66699 39.333 -13.167 70 -19.5s56 -10.5 76 -12.5l-17 -73h-791l17 73
c18.667 1.33301 46 4 82 8s61.667 8.66699 77 14c25.333 10 45 24.333 59 43s23.667 40 29 64l59 255l11 49.5c3.33301 14.333 5 26.833 5 37.5c0 14 -3.66699 32 -11 54l-29 84l-90.5 259c-21 58.667 -49.5 134.334 -85.5 227.001
c-13.333 34.667 -28.833 63.834 -46.5 87.501s-37.167 42.834 -58.5 57.501c-16 10 -35.833 17.667 -59.5 23s-45.834 8.66602 -66.501 9.99902l17 73h793l-17 -73c-68.667 -2 -119.834 -7.5 -153.501 -16.5s-50.5 -22.833 -50.5 -41.5
c0 -8.66699 2.83301 -25.834 8.5 -51.501s17.834 -68.167 36.501 -127.5c14 -45.333 33.833 -104.166 59.5 -176.499l85.5 -238.5l231.5 270.5c70.333 82.333 118.5 139.833 144.5 172.5c49.333 61.333 77.666 99.166 84.999 113.499s11 24.833 11 31.5
c0 20.667 -15.833 35.834 -47.5 45.501s-70.167 15.834 -115.5 18.501l17 73h540zM1495 1702c0 -44.667 -15.5 -83.5 -46.5 -116.5s-67.833 -49.5 -110.5 -49.5c-44 0 -81.333 16.667 -112 50s-46 72 -46 116c0 44.667 15.333 83.5 46 116.5s68 49.5 112 49.5
c42.667 0 79.5 -16.5 110.5 -49.5s46.5 -71.833 46.5 -116.5zM959.003 1702c0 -44.667 -15.667 -83.5 -47 -116.5s-68.333 -49.5 -111 -49.5c-43.333 0 -80.333 16.333 -111 49s-46 71.667 -46 117c0 44.667 15.167 83.5 45.5 116.5s67.5 49.5 111.5 49.5
c42.667 0 79.667 -16.5 111 -49.5s47 -71.833 47 -116.5z" />
    <glyph glyph-name="florin" unicode="&#x192;" horiz-adv-x="1186" 
d="M713 639l-33.501 -183.002c-14.333 -79.333 -31.833 -162.666 -52.5 -249.999c-17.333 -75.333 -42.5 -148.333 -75.5 -219s-75.833 -133 -128.5 -187c-52.667 -53.333 -112 -94.833 -178 -124.5s-144.667 -44.5 -236 -44.5c-76.667 0 -136 15.5 -178 46.5
s-63 73.5 -63 127.5c0 42 14.667 78 44 108s69.333 45 120 45c53.333 0 94.333 -18.5 123 -55.5s57 -96.5 85 -178.5c38 20.667 67.5 75.5 88.5 164.5s37.5 163.833 49.5 224.5l57 291c19.333 102.667 33.666 181 42.999 235h-219l25 111h212
c13.333 69.333 36.333 137.333 69 204s74.334 126.667 125.001 180c50 52 110.833 94.333 182.5 127s150.834 49 237.501 49c78 0 137.667 -15.5 179 -46.5s62 -71.833 62 -122.5c0 -16.667 -3 -35 -9 -55s-15.333 -37 -28 -51c-14.667 -16.667 -31.167 -29.5 -49.5 -38.5
s-44.833 -13.5 -79.5 -13.5c-30.667 0 -55.667 5.33301 -75 16s-36 25.334 -50 44.001c-16 20.667 -30.333 45.667 -43 75s-26 62.333 -40 99c-33.333 -20 -60.333 -63.833 -81 -131.5s-39 -153.5 -55 -257.5l-12 -78h286l-25 -111h-277z" />
    <glyph glyph-name="circumflex" unicode="&#x2c6;" horiz-adv-x="1024" 
d="M996 1132l-54.0029 -28.998l-278 254l-358 -254l-51 29l172 220.5c37.333 47.667 76 92.5 116 134.5c18.667 20.667 38.834 36 60.501 46s51.167 15 88.5 15c38.667 0 65.834 -4.83301 81.501 -14.5s29.834 -23.834 42.501 -42.501
c26 -38.667 53.333 -88.334 82 -149.001z" />
    <glyph glyph-name="caron" unicode="&#x2c7;" horiz-adv-x="1024" 
d="M994 1521l-166 -212.001c-48 -61.333 -88.667 -109 -122 -143c-24 -25.333 -46.333 -41.833 -67 -49.5s-48 -11.5 -82 -11.5c-38 0 -65.167 4.83301 -81.5 14.5s-30.5 23.834 -42.5 42.501c-23.333 36.667 -50.833 88 -82.5 154l-97.5 205l54 29l276 -254l360 254z" />
    <glyph glyph-name="macron" unicode="&#x2c9;" horiz-adv-x="1024" 
d="M1029 1247h-748l34 171h748z" />
    <glyph glyph-name="breve" unicode="&#x2d8;" horiz-adv-x="1024" 
d="M1019 1532c-39.333 -129.333 -91.168 -227.832 -155.501 -295.499s-145.833 -101.5 -244.5 -101.5c-88.667 0 -154.5 29.5 -197.5 88.5s-64.5 143.167 -64.5 252.5c0 10.667 0.333008 20.834 1 30.501s1 18.167 1 25.5l74 16c4 -31.333 9.5 -61.833 16.5 -91.5
s17.833 -55.167 32.5 -76.5c16 -22.667 36.333 -40.334 61 -53.001s60.334 -19 107.001 -19c44 0 81.333 6.16699 112 18.5s57 29.166 79 50.499c22.667 21.333 43 47.333 61 78s34.333 61.667 49 93z" />
    <glyph glyph-name="dotaccent" unicode="&#x2d9;" horiz-adv-x="1024" 
d="M863 1364c0 -50.667 -18.167 -93.5 -54.5 -128.5s-81.5 -52.5 -135.5 -52.5s-99.333 17.5 -136 52.5s-55 77.833 -55 128.5s18.333 93.667 55 129s82 53 136 53s99.167 -17.667 135.5 -53s54.5 -78.333 54.5 -129z" />
    <glyph glyph-name="ring" unicode="&#x2da;" horiz-adv-x="1024" 
d="M582 1104c-76 0 -136.333 17.332 -181 51.999s-67 81.334 -67 140.001c0 80 32.333 145.167 97 195.5s141.667 75.5 231 75.5c72 0 131.333 -17.167 178 -51.5s70 -80.833 70 -139.5c0 -80 -31.833 -145.333 -95.5 -196s-141.167 -76 -232.5 -76zM758 1379
c0 35.333 -9.16504 63.832 -27.498 85.499s-45.833 32.5 -82.5 32.5c-48.667 0 -87.834 -19.167 -117.501 -57.5s-44.5 -86.166 -44.5 -143.499c0 -37.333 9.16699 -67 27.5 -89s46.166 -33 83.499 -33c50 0 89.333 19.5 118 58.5s43 87.833 43 146.5z" />
    <glyph glyph-name="ogonek" unicode="&#x2db;" horiz-adv-x="1024" 
d="M661 -444c-113.333 0 -205.331 12.001 -275.998 36.001s-106 65.667 -106 125c0 62.667 27.167 119.5 81.5 170.5s132.5 101.5 234.5 151.5h86c-62.667 -58.667 -108.834 -112.5 -138.501 -161.5s-44.5 -92.833 -44.5 -131.5c0 -33.333 14.667 -58.833 44 -76.5
s73.666 -29.834 132.999 -36.501z" />
    <glyph glyph-name="tilde" unicode="&#x2dc;" horiz-adv-x="1024" 
d="M1113 1484c-12.667 -28.667 -30.3291 -60.667 -52.9961 -96s-49 -68 -79 -98c-32 -32 -64.667 -57.833 -98 -77.5s-70.333 -29.5 -111 -29.5c-42.667 0 -80.667 6.5 -114 19.5s-61.333 25.833 -84 38.5c-24 12.667 -49.5 24.667 -76.5 36s-53.5 17 -79.5 17
c-34.667 0 -62.667 -15.167 -84 -45.5l-73 -102.5l-71 30c12 24.667 30 55.167 54 91.5s49.333 68.833 76 97.5c27.333 30 58.666 55.667 93.999 77s71.333 32 108 32c34 0 66.667 -5.5 98 -16.5s61.666 -23.5 90.999 -37.5l80 -39c22 -10.667 47.333 -16 76 -16
c27.333 0 49.166 2.83301 65.499 8.5s29.5 14.5 39.5 26.5c11.333 14 21.666 29.833 30.999 47.5l33 60.5z" />
    <glyph glyph-name="hungarumlaut" unicode="&#x2dd;" horiz-adv-x="1024" 
d="M998 1338c-38 -25.333 -85 -55.168 -141 -89.501s-133.333 -85.833 -232 -154.5l-30 35c64 74 116.167 138.5 156.5 193.5s72.5 97.5 96.5 127.5c40.667 50 75 78.833 103 86.5s55.333 11.5 82 11.5c22.667 0 42.667 -7 60 -21s26 -30.667 26 -50
c0 -27.333 -12.833 -52.666 -38.5 -75.999s-53.167 -44.333 -82.5 -63zM594 1338c-38 -25.333 -85 -55.168 -141 -89.501s-133.333 -85.833 -232 -154.5l-30 35c64 74 116.167 138.5 156.5 193.5s72.5 97.5 96.5 127.5c40.667 50 75 78.833 103 86.5s55.333 11.5 82 11.5
c22.667 0 42.667 -7.16699 60 -21.5s26 -31.166 26 -50.499c0 -27.333 -12.833 -52.5 -38.5 -75.5s-53.167 -43.833 -82.5 -62.5z" />
    <glyph glyph-name="endash" unicode="&#x2013;" 
d="M1329 493h-1231l37 161h1231z" />
    <glyph glyph-name="emdash" unicode="&#x2014;" horiz-adv-x="1900" 
d="M1789 493h-1691l37 161h1691z" />
    <glyph glyph-name="quoteleft" unicode="&#x2018;" horiz-adv-x="550" 
d="M673 1455c-30.667 -13.333 -65.4971 -31.499 -104.497 -54.499s-70.167 -45.167 -93.5 -66.5c-26.667 -24 -50.834 -51 -72.501 -81s-38.5 -64.333 -50.5 -103h56c58 0 101.333 -11 130 -33s43 -52.667 43 -92c0 -50.667 -21.333 -96.834 -64 -138.501
s-93.334 -62.5 -152.001 -62.5c-62 0 -106.833 16.833 -134.5 50.5s-41.5 77.167 -41.5 130.5c0 104.667 44.167 205 132.5 301s196.166 169.333 323.499 220z" />
    <glyph glyph-name="quoteright" unicode="&#x2019;" horiz-adv-x="550" 
d="M675 1349c0 -104.667 -44.1699 -205.001 -132.503 -301.001s-196.166 -169.333 -323.499 -220l-28 71c30.667 13.333 65.5 31.5 104.5 54.5s70.167 45.167 93.5 66.5c26.667 24 50.834 51 72.501 81s38.5 64.333 50.5 103h-56c-58 0 -101.333 11 -130 33
s-43 52.667 -43 92c0 50.667 21.333 96.834 64 138.501s93.334 62.5 152.001 62.5c62 0 106.833 -16.833 134.5 -50.5s41.5 -77.167 41.5 -130.5z" />
    <glyph glyph-name="quotesinglbase" unicode="&#x201a;" horiz-adv-x="550" 
d="M392 145c0 -104.667 -44.1699 -205.001 -132.503 -301.001s-196.166 -169.333 -323.499 -220l-28 71c30.667 13.333 65.5 31.5 104.5 54.5s70.167 45.167 93.5 66.5c26.667 24 50.834 51 72.501 81s38.5 64.333 50.5 103h-56c-58 0 -101.333 11 -130 33
s-43 52.667 -43 92c0 50.667 21.333 96.834 64 138.501s93.334 62.5 152.001 62.5c62 0 106.833 -16.833 134.5 -50.5s41.5 -77.167 41.5 -130.5z" />
    <glyph glyph-name="quotedblleft" unicode="&#x201c;" horiz-adv-x="1063" 
d="M683 1455c-30.667 -13.333 -65.4971 -31.499 -104.497 -54.499s-70.167 -45.167 -93.5 -66.5c-26.667 -24 -50.834 -51 -72.501 -81s-38.5 -64.333 -50.5 -103h56c58 0 101.333 -11 130 -33s43 -52.667 43 -92c0 -50.667 -21.333 -96.834 -64 -138.501
s-93.334 -62.5 -152.001 -62.5c-62 0 -106.833 16.833 -134.5 50.5s-41.5 77.167 -41.5 130.5c0 104.667 44.167 205 132.5 301s196.166 169.333 323.499 220zM1176 1455c-30.667 -13.333 -65.4971 -31.499 -104.497 -54.499s-70.167 -45.167 -93.5 -66.5
c-26.667 -24 -50.834 -51 -72.501 -81s-38.5 -64.333 -50.5 -103h56c58 0 101.333 -11 130 -33s43 -52.667 43 -92c0 -50.667 -21.333 -96.834 -64 -138.501s-93.334 -62.5 -152.001 -62.5c-62 0 -106.833 16.833 -134.5 50.5s-41.5 77.167 -41.5 130.5
c0 104.667 44.167 205 132.5 301s196.166 169.333 323.499 220z" />
    <glyph glyph-name="quotedblright" unicode="&#x201d;" horiz-adv-x="1063" 
d="M686 1349c0 -104.667 -44.1699 -205.001 -132.503 -301.001s-196.166 -169.333 -323.499 -220l-28 71c30.667 13.333 65.5 31.5 104.5 54.5s70.167 45.167 93.5 66.5c26.667 24 50.834 51 72.501 81s38.5 64.333 50.5 103h-56c-58 0 -101.333 11 -130 33
s-43 52.667 -43 92c0 50.667 21.333 96.834 64 138.501s93.334 62.5 152.001 62.5c62 0 106.833 -16.833 134.5 -50.5s41.5 -77.167 41.5 -130.5zM1179 1349c0 -104.667 -44.1699 -205.001 -132.503 -301.001s-196.166 -169.333 -323.499 -220l-28 71
c30.667 13.333 65.5 31.5 104.5 54.5s70.167 45.167 93.5 66.5c26.667 24 50.834 51 72.501 81s38.5 64.333 50.5 103h-56c-58 0 -101.333 11 -130 33s-43 52.667 -43 92c0 50.667 21.333 96.834 64 138.501s93.334 62.5 152.001 62.5c62 0 106.833 -16.833 134.5 -50.5
s41.5 -77.167 41.5 -130.5z" />
    </font>
</defs>
</svg>
